%TF.GenerationSoftware,KiCad,Pcbnew,8.0.8-8.0.8-0~ubuntu24.04.1*%
%TF.CreationDate,2025-02-18T11:40:41+01:00*%
%TF.ProjectId,SPU0410LR5H_panel,53505530-3431-4304-9c52-35485f70616e,rev?*%
%TF.SameCoordinates,Original*%
%TF.FileFunction,Soldermask,Bot*%
%TF.FilePolarity,Negative*%
%FSLAX46Y46*%
G04 Gerber Fmt 4.6, Leading zero omitted, Abs format (unit mm)*
G04 Created by KiCad (PCBNEW 8.0.8-8.0.8-0~ubuntu24.04.1) date 2025-02-18 11:40:41*
%MOMM*%
%LPD*%
G01*
G04 APERTURE LIST*
%ADD10C,0.500000*%
%ADD11C,0.450000*%
%ADD12R,1.700000X1.700000*%
%ADD13O,1.700000X1.700000*%
G04 APERTURE END LIST*
D10*
%TO.C,KiKit_MB_12_1*%
X90333334Y-42500000D03*
%TD*%
%TO.C,KiKit_MB_8_1*%
X127333334Y-32499999D03*
%TD*%
%TO.C,KiKit_MB_5_3*%
X110500000Y-25750000D03*
%TD*%
%TO.C,KiKit_MB_21_6*%
X106666667Y-39500500D03*
%TD*%
%TO.C,KiKit_MB_11_4*%
X85666668Y-42500000D03*
%TD*%
%TO.C,KiKit_MB_13_2*%
X110500001Y-49250000D03*
%TD*%
%TO.C,KiKit_MB_3_4*%
X82666668Y-32499999D03*
%TD*%
%TO.C,KiKit_MB_14_3*%
X133500000Y-49250000D03*
%TD*%
%TO.C,KiKit_MB_18_4*%
X133500001Y-37900500D03*
%TD*%
%TO.C,KiKit_MB_6_3*%
X133500000Y-26750000D03*
%TD*%
%TO.C,KiKit_MB_10_1*%
X99500001Y-47250000D03*
%TD*%
%TO.C,KiKit_MB_7_3*%
X117666667Y-32499999D03*
%TD*%
%TO.C,KiKit_MB_2_3*%
X99500000Y-26750000D03*
%TD*%
%TO.C,KiKit_MB_1_1*%
X76500002Y-27750000D03*
%TD*%
%TO.C,KiKit_MB_17_2*%
X107500000Y-38700500D03*
%TD*%
%TO.C,KiKit_MB_21_1*%
X102500000Y-39500500D03*
%TD*%
%TO.C,KiKit_MB_16_4*%
X127333334Y-42500000D03*
%TD*%
%TO.C,KiKit_MB_1_4*%
X76500001Y-24750000D03*
%TD*%
%TO.C,KiKit_MB_13_1*%
X110500001Y-50250000D03*
%TD*%
%TO.C,KiKit_MB_22_7*%
X102500000Y-35500500D03*
%TD*%
%TO.C,KiKit_MB_22_1*%
X107500000Y-35500500D03*
%TD*%
%TO.C,KiKit_MB_10_4*%
X99500000Y-50250000D03*
%TD*%
%TO.C,KiKit_MB_6_1*%
X133500001Y-24750000D03*
%TD*%
%TO.C,KiKit_MB_17_6*%
X107500000Y-35500500D03*
%TD*%
%TO.C,KiKit_MB_21_5*%
X105833334Y-39500500D03*
%TD*%
%TO.C,KiKit_MB_18_1*%
X133500001Y-35500500D03*
%TD*%
%TO.C,KiKit_MB_4_4*%
X90333334Y-32499999D03*
%TD*%
%TO.C,KiKit_MB_16_1*%
X124333334Y-42500000D03*
%TD*%
%TO.C,KiKit_MB_18_3*%
X133500001Y-37100500D03*
%TD*%
%TO.C,KiKit_MB_19_1*%
X76500000Y-35500500D03*
%TD*%
%TO.C,KiKit_MB_10_2*%
X99500001Y-48250000D03*
%TD*%
%TO.C,KiKit_MB_17_1*%
X107500000Y-39500500D03*
%TD*%
%TO.C,KiKit_MB_2_4*%
X99500000Y-27750000D03*
%TD*%
%TO.C,KiKit_MB_15_2*%
X117666667Y-42500000D03*
%TD*%
%TO.C,KiKit_MB_15_1*%
X116666667Y-42500000D03*
%TD*%
%TO.C,KiKit_MB_8_4*%
X124333334Y-32499999D03*
%TD*%
%TO.C,KiKit_MB_1_2*%
X76500002Y-26750000D03*
%TD*%
D11*
%TO.C,U2*%
X97300000Y-45405500D03*
%TD*%
D10*
%TO.C,KiKit_MB_22_3*%
X105833334Y-35500500D03*
%TD*%
%TO.C,KiKit_MB_2_1*%
X99500001Y-24750000D03*
%TD*%
%TO.C,KiKit_MB_22_6*%
X103333334Y-35500500D03*
%TD*%
%TO.C,KiKit_MB_11_3*%
X84666668Y-42500000D03*
%TD*%
D11*
%TO.C,U2*%
X97300000Y-22905500D03*
%TD*%
D10*
%TO.C,KiKit_MB_2_2*%
X99500001Y-25750000D03*
%TD*%
%TO.C,KiKit_MB_9_3*%
X76500001Y-48250000D03*
%TD*%
%TO.C,KiKit_MB_7_4*%
X116666667Y-32499999D03*
%TD*%
%TO.C,KiKit_MB_22_4*%
X105000000Y-35500500D03*
%TD*%
D11*
%TO.C,U2*%
X131300000Y-22905500D03*
%TD*%
D10*
%TO.C,KiKit_MB_18_2*%
X133500001Y-36300500D03*
%TD*%
%TO.C,KiKit_MB_6_4*%
X133500000Y-27750000D03*
%TD*%
%TO.C,KiKit_MB_4_3*%
X91333334Y-32499999D03*
%TD*%
D12*
%TO.C,J1*%
X112800000Y-44950000D03*
D13*
X112800000Y-47490000D03*
X112800000Y-50030000D03*
X112800000Y-52570000D03*
%TD*%
D10*
%TO.C,KiKit_MB_19_5*%
X76500000Y-38700500D03*
%TD*%
%TO.C,KiKit_MB_20_5*%
X102500000Y-38700500D03*
%TD*%
%TO.C,KiKit_MB_14_2*%
X133500001Y-48250000D03*
%TD*%
%TO.C,KiKit_MB_20_2*%
X102500000Y-36300500D03*
%TD*%
%TO.C,KiKit_MB_7_1*%
X119666667Y-32499999D03*
%TD*%
%TO.C,KiKit_MB_13_3*%
X110500000Y-48250000D03*
%TD*%
%TO.C,KiKit_MB_14_4*%
X133500000Y-50250000D03*
%TD*%
%TO.C,KiKit_MB_21_2*%
X103333334Y-39500500D03*
%TD*%
%TO.C,KiKit_MB_15_3*%
X118666667Y-42500000D03*
%TD*%
%TO.C,KiKit_MB_21_4*%
X105000000Y-39500500D03*
%TD*%
%TO.C,KiKit_MB_1_3*%
X76500001Y-25750000D03*
%TD*%
%TO.C,KiKit_MB_7_2*%
X118666667Y-32499999D03*
%TD*%
%TO.C,KiKit_MB_20_6*%
X102500000Y-39500500D03*
%TD*%
%TO.C,KiKit_MB_6_2*%
X133500001Y-25750000D03*
%TD*%
%TO.C,KiKit_MB_18_5*%
X133500001Y-38700500D03*
%TD*%
%TO.C,KiKit_MB_19_4*%
X76500000Y-37900500D03*
%TD*%
%TO.C,KiKit_MB_3_1*%
X85666668Y-32499999D03*
%TD*%
%TO.C,KiKit_MB_11_2*%
X83666668Y-42500000D03*
%TD*%
%TO.C,KiKit_MB_11_1*%
X82666668Y-42500000D03*
%TD*%
%TO.C,KiKit_MB_3_3*%
X83666668Y-32499999D03*
%TD*%
%TO.C,KiKit_MB_10_3*%
X99500000Y-49250000D03*
%TD*%
%TO.C,KiKit_MB_9_4*%
X76500001Y-47250000D03*
%TD*%
%TO.C,KiKit_MB_3_2*%
X84666668Y-32499999D03*
%TD*%
%TO.C,KiKit_MB_19_6*%
X76500000Y-39500500D03*
%TD*%
%TO.C,KiKit_MB_8_2*%
X126333334Y-32499999D03*
%TD*%
%TO.C,KiKit_MB_20_3*%
X102500000Y-37100500D03*
%TD*%
D12*
%TO.C,J1*%
X78800000Y-44950000D03*
D13*
X78800000Y-47490000D03*
X78800000Y-50030000D03*
X78800000Y-52570000D03*
%TD*%
D10*
%TO.C,KiKit_MB_21_3*%
X104166667Y-39500500D03*
%TD*%
%TO.C,KiKit_MB_4_1*%
X93333334Y-32499999D03*
%TD*%
%TO.C,KiKit_MB_8_3*%
X125333334Y-32499999D03*
%TD*%
%TO.C,KiKit_MB_16_3*%
X126333334Y-42500000D03*
%TD*%
D11*
%TO.C,U2*%
X131300000Y-45405500D03*
%TD*%
D10*
%TO.C,KiKit_MB_15_4*%
X119666667Y-42500000D03*
%TD*%
%TO.C,KiKit_MB_22_2*%
X106666667Y-35500500D03*
%TD*%
%TO.C,KiKit_MB_20_4*%
X102500000Y-37900500D03*
%TD*%
%TO.C,KiKit_MB_9_2*%
X76500002Y-49250000D03*
%TD*%
D12*
%TO.C,J1*%
X78800000Y-22450000D03*
D13*
X78800000Y-24990000D03*
X78800000Y-27530000D03*
X78800000Y-30070000D03*
%TD*%
D10*
%TO.C,KiKit_MB_4_2*%
X92333334Y-32499999D03*
%TD*%
%TO.C,KiKit_MB_12_4*%
X93333334Y-42500000D03*
%TD*%
%TO.C,KiKit_MB_18_6*%
X133500001Y-39500500D03*
%TD*%
%TO.C,KiKit_MB_5_4*%
X110500000Y-24750000D03*
%TD*%
%TO.C,KiKit_MB_17_5*%
X107500000Y-36300500D03*
%TD*%
%TO.C,KiKit_MB_12_2*%
X91333334Y-42500000D03*
%TD*%
%TO.C,KiKit_MB_16_2*%
X125333334Y-42500000D03*
%TD*%
%TO.C,KiKit_MB_17_3*%
X107500000Y-37900500D03*
%TD*%
%TO.C,KiKit_MB_13_4*%
X110500000Y-47250000D03*
%TD*%
%TO.C,KiKit_MB_12_3*%
X92333334Y-42500000D03*
%TD*%
%TO.C,KiKit_MB_17_4*%
X107500000Y-37100500D03*
%TD*%
%TO.C,KiKit_MB_22_5*%
X104166667Y-35500500D03*
%TD*%
D12*
%TO.C,J1*%
X112800000Y-22450000D03*
D13*
X112800000Y-24990000D03*
X112800000Y-27530000D03*
X112800000Y-30070000D03*
%TD*%
D10*
%TO.C,KiKit_MB_19_3*%
X76500000Y-37100500D03*
%TD*%
%TO.C,KiKit_MB_21_7*%
X107500000Y-39500500D03*
%TD*%
%TO.C,KiKit_MB_5_1*%
X110500001Y-27750000D03*
%TD*%
%TO.C,KiKit_MB_9_1*%
X76500002Y-50250000D03*
%TD*%
%TO.C,KiKit_MB_20_1*%
X102500000Y-35500500D03*
%TD*%
%TO.C,KiKit_MB_5_2*%
X110500001Y-26750000D03*
%TD*%
%TO.C,KiKit_MB_19_2*%
X76500000Y-36300500D03*
%TD*%
%TO.C,KiKit_MB_14_1*%
X133500001Y-47250000D03*
%TD*%
M02*
