%TF.GenerationSoftware,KiCad,Pcbnew,8.0.8-8.0.8-0~ubuntu24.04.1*%
%TF.CreationDate,2025-02-18T11:40:40+01:00*%
%TF.ProjectId,SPU0410LR5H_panel,53505530-3431-4304-9c52-35485f70616e,rev?*%
%TF.SameCoordinates,Original*%
%TF.FileFunction,Paste,Top*%
%TF.FilePolarity,Positive*%
%FSLAX46Y46*%
G04 Gerber Fmt 4.6, Leading zero omitted, Abs format (unit mm)*
G04 Created by KiCad (PCBNEW 8.0.8-8.0.8-0~ubuntu24.04.1) date 2025-02-18 11:40:40*
%MOMM*%
%LPD*%
G01*
G04 APERTURE LIST*
G04 Aperture macros list*
%AMRoundRect*
0 Rectangle with rounded corners*
0 $1 Rounding radius*
0 $2 $3 $4 $5 $6 $7 $8 $9 X,Y pos of 4 corners*
0 Add a 4 corners polygon primitive as box body*
4,1,4,$2,$3,$4,$5,$6,$7,$8,$9,$2,$3,0*
0 Add four circle primitives for the rounded corners*
1,1,$1+$1,$2,$3*
1,1,$1+$1,$4,$5*
1,1,$1+$1,$6,$7*
1,1,$1+$1,$8,$9*
0 Add four rect primitives between the rounded corners*
20,1,$1+$1,$2,$3,$4,$5,0*
20,1,$1+$1,$4,$5,$6,$7,0*
20,1,$1+$1,$6,$7,$8,$9,0*
20,1,$1+$1,$8,$9,$2,$3,0*%
G04 Aperture macros list end*
%ADD10C,0.001000*%
%ADD11RoundRect,0.250000X0.450000X-0.262500X0.450000X0.262500X-0.450000X0.262500X-0.450000X-0.262500X0*%
%ADD12RoundRect,0.250000X-0.262500X-0.450000X0.262500X-0.450000X0.262500X0.450000X-0.262500X0.450000X0*%
%ADD13RoundRect,0.250000X-0.450000X0.262500X-0.450000X-0.262500X0.450000X-0.262500X0.450000X0.262500X0*%
%ADD14RoundRect,0.250000X-0.250000X-0.475000X0.250000X-0.475000X0.250000X0.475000X-0.250000X0.475000X0*%
%ADD15RoundRect,0.250000X0.475000X-0.250000X0.475000X0.250000X-0.475000X0.250000X-0.475000X-0.250000X0*%
%ADD16RoundRect,0.250000X0.250000X0.475000X-0.250000X0.475000X-0.250000X-0.475000X0.250000X-0.475000X0*%
%ADD17C,0.723000*%
%ADD18C,0.562000*%
%ADD19C,0.612000*%
%ADD20RoundRect,0.150000X-0.825000X-0.150000X0.825000X-0.150000X0.825000X0.150000X-0.825000X0.150000X0*%
G04 APERTURE END LIST*
D10*
%TO.C,U2*%
X97038000Y-45249000D02*
X97032000Y-45259000D01*
X97027000Y-45268000D01*
X97022000Y-45278000D01*
X97017000Y-45288000D01*
X97013000Y-45298000D01*
X97009000Y-45309000D01*
X97006000Y-45319000D01*
X97003000Y-45330000D01*
X97000000Y-45340000D01*
X96998000Y-45351000D01*
X96996000Y-45362000D01*
X96995000Y-45373000D01*
X96994000Y-45384000D01*
X96993000Y-45395000D01*
X96993000Y-45405000D01*
X96993000Y-45416000D01*
X96994000Y-45427000D01*
X96995000Y-45438000D01*
X96996000Y-45449000D01*
X96998000Y-45460000D01*
X97000000Y-45471000D01*
X97003000Y-45481000D01*
X97006000Y-45492000D01*
X97009000Y-45502000D01*
X97013000Y-45513000D01*
X97017000Y-45523000D01*
X97022000Y-45533000D01*
X97027000Y-45543000D01*
X97032000Y-45552000D01*
X97038000Y-45562000D01*
X96820000Y-45780000D01*
X96819875Y-45779559D01*
X96806000Y-45762000D01*
X96791000Y-45740000D01*
X96776000Y-45717000D01*
X96763000Y-45693000D01*
X96750000Y-45669000D01*
X96739000Y-45644000D01*
X96728000Y-45619000D01*
X96719000Y-45593000D01*
X96711000Y-45567000D01*
X96705000Y-45541000D01*
X96699000Y-45514000D01*
X96695000Y-45487000D01*
X96692000Y-45460000D01*
X96690000Y-45433000D01*
X96689000Y-45405000D01*
X96690000Y-45378000D01*
X96692000Y-45351000D01*
X96695000Y-45324000D01*
X96699000Y-45297000D01*
X96705000Y-45270000D01*
X96711000Y-45244000D01*
X96719000Y-45218000D01*
X96728000Y-45192000D01*
X96739000Y-45167000D01*
X96750000Y-45142000D01*
X96763000Y-45118000D01*
X96776000Y-45094000D01*
X96791000Y-45071000D01*
X96806000Y-45049000D01*
X96820000Y-45031000D01*
X97038000Y-45249000D01*
G36*
X97038000Y-45249000D02*
G01*
X97032000Y-45259000D01*
X97027000Y-45268000D01*
X97022000Y-45278000D01*
X97017000Y-45288000D01*
X97013000Y-45298000D01*
X97009000Y-45309000D01*
X97006000Y-45319000D01*
X97003000Y-45330000D01*
X97000000Y-45340000D01*
X96998000Y-45351000D01*
X96996000Y-45362000D01*
X96995000Y-45373000D01*
X96994000Y-45384000D01*
X96993000Y-45395000D01*
X96993000Y-45405000D01*
X96993000Y-45416000D01*
X96994000Y-45427000D01*
X96995000Y-45438000D01*
X96996000Y-45449000D01*
X96998000Y-45460000D01*
X97000000Y-45471000D01*
X97003000Y-45481000D01*
X97006000Y-45492000D01*
X97009000Y-45502000D01*
X97013000Y-45513000D01*
X97017000Y-45523000D01*
X97022000Y-45533000D01*
X97027000Y-45543000D01*
X97032000Y-45552000D01*
X97038000Y-45562000D01*
X96820000Y-45780000D01*
X96819875Y-45779559D01*
X96806000Y-45762000D01*
X96791000Y-45740000D01*
X96776000Y-45717000D01*
X96763000Y-45693000D01*
X96750000Y-45669000D01*
X96739000Y-45644000D01*
X96728000Y-45619000D01*
X96719000Y-45593000D01*
X96711000Y-45567000D01*
X96705000Y-45541000D01*
X96699000Y-45514000D01*
X96695000Y-45487000D01*
X96692000Y-45460000D01*
X96690000Y-45433000D01*
X96689000Y-45405000D01*
X96690000Y-45378000D01*
X96692000Y-45351000D01*
X96695000Y-45324000D01*
X96699000Y-45297000D01*
X96705000Y-45270000D01*
X96711000Y-45244000D01*
X96719000Y-45218000D01*
X96728000Y-45192000D01*
X96739000Y-45167000D01*
X96750000Y-45142000D01*
X96763000Y-45118000D01*
X96776000Y-45094000D01*
X96791000Y-45071000D01*
X96806000Y-45049000D01*
X96820000Y-45031000D01*
X97038000Y-45249000D01*
G37*
X97332000Y-44796000D02*
X97359000Y-44798000D01*
X97386000Y-44801000D01*
X97412000Y-44805000D01*
X97439000Y-44811000D01*
X97465000Y-44818000D01*
X97490000Y-44826000D01*
X97516000Y-44835000D01*
X97541000Y-44845000D01*
X97565000Y-44856000D01*
X97589000Y-44869000D01*
X97612000Y-44882000D01*
X97635000Y-44897000D01*
X97657000Y-44912000D01*
X97674000Y-44925000D01*
X97456000Y-45143000D01*
X97447000Y-45138000D01*
X97437000Y-45132000D01*
X97427000Y-45127000D01*
X97417000Y-45123000D01*
X97407000Y-45119000D01*
X97397000Y-45115000D01*
X97387000Y-45111000D01*
X97376000Y-45108000D01*
X97365000Y-45106000D01*
X97355000Y-45103000D01*
X97344000Y-45102000D01*
X97333000Y-45100000D01*
X97322000Y-45099000D01*
X97311000Y-45099000D01*
X97300000Y-45098000D01*
X97289000Y-45099000D01*
X97278000Y-45099000D01*
X97267000Y-45100000D01*
X97256000Y-45102000D01*
X97245000Y-45103000D01*
X97235000Y-45106000D01*
X97224000Y-45108000D01*
X97213000Y-45111000D01*
X97203000Y-45115000D01*
X97193000Y-45119000D01*
X97183000Y-45123000D01*
X97173000Y-45127000D01*
X97163000Y-45132000D01*
X97153000Y-45138000D01*
X97144000Y-45143000D01*
X96926187Y-44925187D01*
X96952000Y-44906000D01*
X96974000Y-44891000D01*
X96997000Y-44877000D01*
X97020000Y-44864000D01*
X97044000Y-44852000D01*
X97069000Y-44841000D01*
X97094000Y-44831000D01*
X97120000Y-44822000D01*
X97145000Y-44815000D01*
X97172000Y-44809000D01*
X97198000Y-44803000D01*
X97225000Y-44799000D01*
X97251000Y-44797000D01*
X97278000Y-44795000D01*
X97305000Y-44795000D01*
X97332000Y-44796000D01*
G36*
X97332000Y-44796000D02*
G01*
X97359000Y-44798000D01*
X97386000Y-44801000D01*
X97412000Y-44805000D01*
X97439000Y-44811000D01*
X97465000Y-44818000D01*
X97490000Y-44826000D01*
X97516000Y-44835000D01*
X97541000Y-44845000D01*
X97565000Y-44856000D01*
X97589000Y-44869000D01*
X97612000Y-44882000D01*
X97635000Y-44897000D01*
X97657000Y-44912000D01*
X97674000Y-44925000D01*
X97456000Y-45143000D01*
X97447000Y-45138000D01*
X97437000Y-45132000D01*
X97427000Y-45127000D01*
X97417000Y-45123000D01*
X97407000Y-45119000D01*
X97397000Y-45115000D01*
X97387000Y-45111000D01*
X97376000Y-45108000D01*
X97365000Y-45106000D01*
X97355000Y-45103000D01*
X97344000Y-45102000D01*
X97333000Y-45100000D01*
X97322000Y-45099000D01*
X97311000Y-45099000D01*
X97300000Y-45098000D01*
X97289000Y-45099000D01*
X97278000Y-45099000D01*
X97267000Y-45100000D01*
X97256000Y-45102000D01*
X97245000Y-45103000D01*
X97235000Y-45106000D01*
X97224000Y-45108000D01*
X97213000Y-45111000D01*
X97203000Y-45115000D01*
X97193000Y-45119000D01*
X97183000Y-45123000D01*
X97173000Y-45127000D01*
X97163000Y-45132000D01*
X97153000Y-45138000D01*
X97144000Y-45143000D01*
X96926187Y-44925187D01*
X96952000Y-44906000D01*
X96974000Y-44891000D01*
X96997000Y-44877000D01*
X97020000Y-44864000D01*
X97044000Y-44852000D01*
X97069000Y-44841000D01*
X97094000Y-44831000D01*
X97120000Y-44822000D01*
X97145000Y-44815000D01*
X97172000Y-44809000D01*
X97198000Y-44803000D01*
X97225000Y-44799000D01*
X97251000Y-44797000D01*
X97278000Y-44795000D01*
X97305000Y-44795000D01*
X97332000Y-44796000D01*
G37*
X96926187Y-44925187D02*
X96925941Y-44925370D01*
X96926000Y-44925000D01*
X96926187Y-44925187D01*
G36*
X96926187Y-44925187D02*
G01*
X96925941Y-44925370D01*
X96926000Y-44925000D01*
X96926187Y-44925187D01*
G37*
X97673815Y-45885815D02*
X97657000Y-45899000D01*
X97635000Y-45914000D01*
X97612000Y-45929000D01*
X97589000Y-45942000D01*
X97565000Y-45955000D01*
X97541000Y-45966000D01*
X97516000Y-45976000D01*
X97490000Y-45985000D01*
X97465000Y-45993000D01*
X97439000Y-46000000D01*
X97412000Y-46006000D01*
X97386000Y-46010000D01*
X97359000Y-46013000D01*
X97332000Y-46015000D01*
X97305000Y-46016000D01*
X97278000Y-46016000D01*
X97251000Y-46014000D01*
X97225000Y-46012000D01*
X97198000Y-46008000D01*
X97172000Y-46002000D01*
X97145000Y-45996000D01*
X97120000Y-45989000D01*
X97094000Y-45980000D01*
X97069000Y-45970000D01*
X97044000Y-45959000D01*
X97020000Y-45947000D01*
X96997000Y-45934000D01*
X96974000Y-45920000D01*
X96952000Y-45905000D01*
X96926000Y-45886000D01*
X97144000Y-45668000D01*
X97153000Y-45673000D01*
X97163000Y-45679000D01*
X97173000Y-45684000D01*
X97183000Y-45688000D01*
X97193000Y-45692000D01*
X97203000Y-45696000D01*
X97213000Y-45700000D01*
X97224000Y-45703000D01*
X97235000Y-45705000D01*
X97245000Y-45708000D01*
X97256000Y-45709000D01*
X97267000Y-45711000D01*
X97278000Y-45712000D01*
X97289000Y-45712000D01*
X97300000Y-45713000D01*
X97311000Y-45712000D01*
X97322000Y-45712000D01*
X97333000Y-45711000D01*
X97344000Y-45709000D01*
X97355000Y-45708000D01*
X97365000Y-45705000D01*
X97376000Y-45703000D01*
X97387000Y-45700000D01*
X97397000Y-45696000D01*
X97407000Y-45692000D01*
X97417000Y-45688000D01*
X97427000Y-45684000D01*
X97437000Y-45679000D01*
X97447000Y-45673000D01*
X97456000Y-45668000D01*
X97673815Y-45885815D01*
G36*
X97673815Y-45885815D02*
G01*
X97657000Y-45899000D01*
X97635000Y-45914000D01*
X97612000Y-45929000D01*
X97589000Y-45942000D01*
X97565000Y-45955000D01*
X97541000Y-45966000D01*
X97516000Y-45976000D01*
X97490000Y-45985000D01*
X97465000Y-45993000D01*
X97439000Y-46000000D01*
X97412000Y-46006000D01*
X97386000Y-46010000D01*
X97359000Y-46013000D01*
X97332000Y-46015000D01*
X97305000Y-46016000D01*
X97278000Y-46016000D01*
X97251000Y-46014000D01*
X97225000Y-46012000D01*
X97198000Y-46008000D01*
X97172000Y-46002000D01*
X97145000Y-45996000D01*
X97120000Y-45989000D01*
X97094000Y-45980000D01*
X97069000Y-45970000D01*
X97044000Y-45959000D01*
X97020000Y-45947000D01*
X96997000Y-45934000D01*
X96974000Y-45920000D01*
X96952000Y-45905000D01*
X96926000Y-45886000D01*
X97144000Y-45668000D01*
X97153000Y-45673000D01*
X97163000Y-45679000D01*
X97173000Y-45684000D01*
X97183000Y-45688000D01*
X97193000Y-45692000D01*
X97203000Y-45696000D01*
X97213000Y-45700000D01*
X97224000Y-45703000D01*
X97235000Y-45705000D01*
X97245000Y-45708000D01*
X97256000Y-45709000D01*
X97267000Y-45711000D01*
X97278000Y-45712000D01*
X97289000Y-45712000D01*
X97300000Y-45713000D01*
X97311000Y-45712000D01*
X97322000Y-45712000D01*
X97333000Y-45711000D01*
X97344000Y-45709000D01*
X97355000Y-45708000D01*
X97365000Y-45705000D01*
X97376000Y-45703000D01*
X97387000Y-45700000D01*
X97397000Y-45696000D01*
X97407000Y-45692000D01*
X97417000Y-45688000D01*
X97427000Y-45684000D01*
X97437000Y-45679000D01*
X97447000Y-45673000D01*
X97456000Y-45668000D01*
X97673815Y-45885815D01*
G37*
X97674000Y-45886000D02*
X97673815Y-45885815D01*
X97674059Y-45885625D01*
X97674000Y-45886000D01*
G36*
X97674000Y-45886000D02*
G01*
X97673815Y-45885815D01*
X97674059Y-45885625D01*
X97674000Y-45886000D01*
G37*
X97780125Y-45031440D02*
X97799000Y-45057000D01*
X97814000Y-45079000D01*
X97828000Y-45101000D01*
X97841000Y-45125000D01*
X97853000Y-45148000D01*
X97864000Y-45173000D01*
X97874000Y-45197000D01*
X97882000Y-45222000D01*
X97890000Y-45248000D01*
X97896000Y-45274000D01*
X97901000Y-45300000D01*
X97905000Y-45326000D01*
X97908000Y-45352000D01*
X97910000Y-45379000D01*
X97911000Y-45405000D01*
X97910000Y-45432000D01*
X97908000Y-45459000D01*
X97905000Y-45485000D01*
X97901000Y-45511000D01*
X97896000Y-45537000D01*
X97890000Y-45563000D01*
X97882000Y-45589000D01*
X97874000Y-45614000D01*
X97864000Y-45638000D01*
X97853000Y-45663000D01*
X97841000Y-45686000D01*
X97828000Y-45710000D01*
X97814000Y-45732000D01*
X97799000Y-45754000D01*
X97780000Y-45780000D01*
X97562000Y-45562000D01*
X97568000Y-45552000D01*
X97573000Y-45543000D01*
X97578000Y-45533000D01*
X97583000Y-45523000D01*
X97587000Y-45513000D01*
X97591000Y-45502000D01*
X97594000Y-45492000D01*
X97597000Y-45481000D01*
X97600000Y-45471000D01*
X97602000Y-45460000D01*
X97604000Y-45449000D01*
X97605000Y-45438000D01*
X97606000Y-45427000D01*
X97607000Y-45416000D01*
X97607000Y-45405000D01*
X97607000Y-45395000D01*
X97606000Y-45384000D01*
X97605000Y-45373000D01*
X97604000Y-45362000D01*
X97602000Y-45351000D01*
X97600000Y-45340000D01*
X97597000Y-45330000D01*
X97594000Y-45319000D01*
X97591000Y-45309000D01*
X97587000Y-45298000D01*
X97583000Y-45288000D01*
X97578000Y-45278000D01*
X97573000Y-45268000D01*
X97568000Y-45259000D01*
X97562000Y-45249000D01*
X97780000Y-45031000D01*
X97780125Y-45031440D01*
G36*
X97780125Y-45031440D02*
G01*
X97799000Y-45057000D01*
X97814000Y-45079000D01*
X97828000Y-45101000D01*
X97841000Y-45125000D01*
X97853000Y-45148000D01*
X97864000Y-45173000D01*
X97874000Y-45197000D01*
X97882000Y-45222000D01*
X97890000Y-45248000D01*
X97896000Y-45274000D01*
X97901000Y-45300000D01*
X97905000Y-45326000D01*
X97908000Y-45352000D01*
X97910000Y-45379000D01*
X97911000Y-45405000D01*
X97910000Y-45432000D01*
X97908000Y-45459000D01*
X97905000Y-45485000D01*
X97901000Y-45511000D01*
X97896000Y-45537000D01*
X97890000Y-45563000D01*
X97882000Y-45589000D01*
X97874000Y-45614000D01*
X97864000Y-45638000D01*
X97853000Y-45663000D01*
X97841000Y-45686000D01*
X97828000Y-45710000D01*
X97814000Y-45732000D01*
X97799000Y-45754000D01*
X97780000Y-45780000D01*
X97562000Y-45562000D01*
X97568000Y-45552000D01*
X97573000Y-45543000D01*
X97578000Y-45533000D01*
X97583000Y-45523000D01*
X97587000Y-45513000D01*
X97591000Y-45502000D01*
X97594000Y-45492000D01*
X97597000Y-45481000D01*
X97600000Y-45471000D01*
X97602000Y-45460000D01*
X97604000Y-45449000D01*
X97605000Y-45438000D01*
X97606000Y-45427000D01*
X97607000Y-45416000D01*
X97607000Y-45405000D01*
X97607000Y-45395000D01*
X97606000Y-45384000D01*
X97605000Y-45373000D01*
X97604000Y-45362000D01*
X97602000Y-45351000D01*
X97600000Y-45340000D01*
X97597000Y-45330000D01*
X97594000Y-45319000D01*
X97591000Y-45309000D01*
X97587000Y-45298000D01*
X97583000Y-45288000D01*
X97578000Y-45278000D01*
X97573000Y-45268000D01*
X97568000Y-45259000D01*
X97562000Y-45249000D01*
X97780000Y-45031000D01*
X97780125Y-45031440D01*
G37*
X97038000Y-22749000D02*
X97032000Y-22759000D01*
X97027000Y-22768000D01*
X97022000Y-22778000D01*
X97017000Y-22788000D01*
X97013000Y-22798000D01*
X97009000Y-22809000D01*
X97006000Y-22819000D01*
X97003000Y-22830000D01*
X97000000Y-22840000D01*
X96998000Y-22851000D01*
X96996000Y-22862000D01*
X96995000Y-22873000D01*
X96994000Y-22884000D01*
X96993000Y-22895000D01*
X96993000Y-22905000D01*
X96993000Y-22916000D01*
X96994000Y-22927000D01*
X96995000Y-22938000D01*
X96996000Y-22949000D01*
X96998000Y-22960000D01*
X97000000Y-22971000D01*
X97003000Y-22981000D01*
X97006000Y-22992000D01*
X97009000Y-23002000D01*
X97013000Y-23013000D01*
X97017000Y-23023000D01*
X97022000Y-23033000D01*
X97027000Y-23043000D01*
X97032000Y-23052000D01*
X97038000Y-23062000D01*
X96820000Y-23280000D01*
X96819875Y-23279559D01*
X96806000Y-23262000D01*
X96791000Y-23240000D01*
X96776000Y-23217000D01*
X96763000Y-23193000D01*
X96750000Y-23169000D01*
X96739000Y-23144000D01*
X96728000Y-23119000D01*
X96719000Y-23093000D01*
X96711000Y-23067000D01*
X96705000Y-23041000D01*
X96699000Y-23014000D01*
X96695000Y-22987000D01*
X96692000Y-22960000D01*
X96690000Y-22933000D01*
X96689000Y-22905000D01*
X96690000Y-22878000D01*
X96692000Y-22851000D01*
X96695000Y-22824000D01*
X96699000Y-22797000D01*
X96705000Y-22770000D01*
X96711000Y-22744000D01*
X96719000Y-22718000D01*
X96728000Y-22692000D01*
X96739000Y-22667000D01*
X96750000Y-22642000D01*
X96763000Y-22618000D01*
X96776000Y-22594000D01*
X96791000Y-22571000D01*
X96806000Y-22549000D01*
X96820000Y-22531000D01*
X97038000Y-22749000D01*
G36*
X97038000Y-22749000D02*
G01*
X97032000Y-22759000D01*
X97027000Y-22768000D01*
X97022000Y-22778000D01*
X97017000Y-22788000D01*
X97013000Y-22798000D01*
X97009000Y-22809000D01*
X97006000Y-22819000D01*
X97003000Y-22830000D01*
X97000000Y-22840000D01*
X96998000Y-22851000D01*
X96996000Y-22862000D01*
X96995000Y-22873000D01*
X96994000Y-22884000D01*
X96993000Y-22895000D01*
X96993000Y-22905000D01*
X96993000Y-22916000D01*
X96994000Y-22927000D01*
X96995000Y-22938000D01*
X96996000Y-22949000D01*
X96998000Y-22960000D01*
X97000000Y-22971000D01*
X97003000Y-22981000D01*
X97006000Y-22992000D01*
X97009000Y-23002000D01*
X97013000Y-23013000D01*
X97017000Y-23023000D01*
X97022000Y-23033000D01*
X97027000Y-23043000D01*
X97032000Y-23052000D01*
X97038000Y-23062000D01*
X96820000Y-23280000D01*
X96819875Y-23279559D01*
X96806000Y-23262000D01*
X96791000Y-23240000D01*
X96776000Y-23217000D01*
X96763000Y-23193000D01*
X96750000Y-23169000D01*
X96739000Y-23144000D01*
X96728000Y-23119000D01*
X96719000Y-23093000D01*
X96711000Y-23067000D01*
X96705000Y-23041000D01*
X96699000Y-23014000D01*
X96695000Y-22987000D01*
X96692000Y-22960000D01*
X96690000Y-22933000D01*
X96689000Y-22905000D01*
X96690000Y-22878000D01*
X96692000Y-22851000D01*
X96695000Y-22824000D01*
X96699000Y-22797000D01*
X96705000Y-22770000D01*
X96711000Y-22744000D01*
X96719000Y-22718000D01*
X96728000Y-22692000D01*
X96739000Y-22667000D01*
X96750000Y-22642000D01*
X96763000Y-22618000D01*
X96776000Y-22594000D01*
X96791000Y-22571000D01*
X96806000Y-22549000D01*
X96820000Y-22531000D01*
X97038000Y-22749000D01*
G37*
X97332000Y-22296000D02*
X97359000Y-22298000D01*
X97386000Y-22301000D01*
X97412000Y-22305000D01*
X97439000Y-22311000D01*
X97465000Y-22318000D01*
X97490000Y-22326000D01*
X97516000Y-22335000D01*
X97541000Y-22345000D01*
X97565000Y-22356000D01*
X97589000Y-22369000D01*
X97612000Y-22382000D01*
X97635000Y-22397000D01*
X97657000Y-22412000D01*
X97674000Y-22425000D01*
X97456000Y-22643000D01*
X97447000Y-22638000D01*
X97437000Y-22632000D01*
X97427000Y-22627000D01*
X97417000Y-22623000D01*
X97407000Y-22619000D01*
X97397000Y-22615000D01*
X97387000Y-22611000D01*
X97376000Y-22608000D01*
X97365000Y-22606000D01*
X97355000Y-22603000D01*
X97344000Y-22602000D01*
X97333000Y-22600000D01*
X97322000Y-22599000D01*
X97311000Y-22599000D01*
X97300000Y-22598000D01*
X97289000Y-22599000D01*
X97278000Y-22599000D01*
X97267000Y-22600000D01*
X97256000Y-22602000D01*
X97245000Y-22603000D01*
X97235000Y-22606000D01*
X97224000Y-22608000D01*
X97213000Y-22611000D01*
X97203000Y-22615000D01*
X97193000Y-22619000D01*
X97183000Y-22623000D01*
X97173000Y-22627000D01*
X97163000Y-22632000D01*
X97153000Y-22638000D01*
X97144000Y-22643000D01*
X96926187Y-22425187D01*
X96952000Y-22406000D01*
X96974000Y-22391000D01*
X96997000Y-22377000D01*
X97020000Y-22364000D01*
X97044000Y-22352000D01*
X97069000Y-22341000D01*
X97094000Y-22331000D01*
X97120000Y-22322000D01*
X97145000Y-22315000D01*
X97172000Y-22309000D01*
X97198000Y-22303000D01*
X97225000Y-22299000D01*
X97251000Y-22297000D01*
X97278000Y-22295000D01*
X97305000Y-22295000D01*
X97332000Y-22296000D01*
G36*
X97332000Y-22296000D02*
G01*
X97359000Y-22298000D01*
X97386000Y-22301000D01*
X97412000Y-22305000D01*
X97439000Y-22311000D01*
X97465000Y-22318000D01*
X97490000Y-22326000D01*
X97516000Y-22335000D01*
X97541000Y-22345000D01*
X97565000Y-22356000D01*
X97589000Y-22369000D01*
X97612000Y-22382000D01*
X97635000Y-22397000D01*
X97657000Y-22412000D01*
X97674000Y-22425000D01*
X97456000Y-22643000D01*
X97447000Y-22638000D01*
X97437000Y-22632000D01*
X97427000Y-22627000D01*
X97417000Y-22623000D01*
X97407000Y-22619000D01*
X97397000Y-22615000D01*
X97387000Y-22611000D01*
X97376000Y-22608000D01*
X97365000Y-22606000D01*
X97355000Y-22603000D01*
X97344000Y-22602000D01*
X97333000Y-22600000D01*
X97322000Y-22599000D01*
X97311000Y-22599000D01*
X97300000Y-22598000D01*
X97289000Y-22599000D01*
X97278000Y-22599000D01*
X97267000Y-22600000D01*
X97256000Y-22602000D01*
X97245000Y-22603000D01*
X97235000Y-22606000D01*
X97224000Y-22608000D01*
X97213000Y-22611000D01*
X97203000Y-22615000D01*
X97193000Y-22619000D01*
X97183000Y-22623000D01*
X97173000Y-22627000D01*
X97163000Y-22632000D01*
X97153000Y-22638000D01*
X97144000Y-22643000D01*
X96926187Y-22425187D01*
X96952000Y-22406000D01*
X96974000Y-22391000D01*
X96997000Y-22377000D01*
X97020000Y-22364000D01*
X97044000Y-22352000D01*
X97069000Y-22341000D01*
X97094000Y-22331000D01*
X97120000Y-22322000D01*
X97145000Y-22315000D01*
X97172000Y-22309000D01*
X97198000Y-22303000D01*
X97225000Y-22299000D01*
X97251000Y-22297000D01*
X97278000Y-22295000D01*
X97305000Y-22295000D01*
X97332000Y-22296000D01*
G37*
X96926187Y-22425187D02*
X96925941Y-22425370D01*
X96926000Y-22425000D01*
X96926187Y-22425187D01*
G36*
X96926187Y-22425187D02*
G01*
X96925941Y-22425370D01*
X96926000Y-22425000D01*
X96926187Y-22425187D01*
G37*
X97673815Y-23385815D02*
X97657000Y-23399000D01*
X97635000Y-23414000D01*
X97612000Y-23429000D01*
X97589000Y-23442000D01*
X97565000Y-23455000D01*
X97541000Y-23466000D01*
X97516000Y-23476000D01*
X97490000Y-23485000D01*
X97465000Y-23493000D01*
X97439000Y-23500000D01*
X97412000Y-23506000D01*
X97386000Y-23510000D01*
X97359000Y-23513000D01*
X97332000Y-23515000D01*
X97305000Y-23516000D01*
X97278000Y-23516000D01*
X97251000Y-23514000D01*
X97225000Y-23512000D01*
X97198000Y-23508000D01*
X97172000Y-23502000D01*
X97145000Y-23496000D01*
X97120000Y-23489000D01*
X97094000Y-23480000D01*
X97069000Y-23470000D01*
X97044000Y-23459000D01*
X97020000Y-23447000D01*
X96997000Y-23434000D01*
X96974000Y-23420000D01*
X96952000Y-23405000D01*
X96926000Y-23386000D01*
X97144000Y-23168000D01*
X97153000Y-23173000D01*
X97163000Y-23179000D01*
X97173000Y-23184000D01*
X97183000Y-23188000D01*
X97193000Y-23192000D01*
X97203000Y-23196000D01*
X97213000Y-23200000D01*
X97224000Y-23203000D01*
X97235000Y-23205000D01*
X97245000Y-23208000D01*
X97256000Y-23209000D01*
X97267000Y-23211000D01*
X97278000Y-23212000D01*
X97289000Y-23212000D01*
X97300000Y-23213000D01*
X97311000Y-23212000D01*
X97322000Y-23212000D01*
X97333000Y-23211000D01*
X97344000Y-23209000D01*
X97355000Y-23208000D01*
X97365000Y-23205000D01*
X97376000Y-23203000D01*
X97387000Y-23200000D01*
X97397000Y-23196000D01*
X97407000Y-23192000D01*
X97417000Y-23188000D01*
X97427000Y-23184000D01*
X97437000Y-23179000D01*
X97447000Y-23173000D01*
X97456000Y-23168000D01*
X97673815Y-23385815D01*
G36*
X97673815Y-23385815D02*
G01*
X97657000Y-23399000D01*
X97635000Y-23414000D01*
X97612000Y-23429000D01*
X97589000Y-23442000D01*
X97565000Y-23455000D01*
X97541000Y-23466000D01*
X97516000Y-23476000D01*
X97490000Y-23485000D01*
X97465000Y-23493000D01*
X97439000Y-23500000D01*
X97412000Y-23506000D01*
X97386000Y-23510000D01*
X97359000Y-23513000D01*
X97332000Y-23515000D01*
X97305000Y-23516000D01*
X97278000Y-23516000D01*
X97251000Y-23514000D01*
X97225000Y-23512000D01*
X97198000Y-23508000D01*
X97172000Y-23502000D01*
X97145000Y-23496000D01*
X97120000Y-23489000D01*
X97094000Y-23480000D01*
X97069000Y-23470000D01*
X97044000Y-23459000D01*
X97020000Y-23447000D01*
X96997000Y-23434000D01*
X96974000Y-23420000D01*
X96952000Y-23405000D01*
X96926000Y-23386000D01*
X97144000Y-23168000D01*
X97153000Y-23173000D01*
X97163000Y-23179000D01*
X97173000Y-23184000D01*
X97183000Y-23188000D01*
X97193000Y-23192000D01*
X97203000Y-23196000D01*
X97213000Y-23200000D01*
X97224000Y-23203000D01*
X97235000Y-23205000D01*
X97245000Y-23208000D01*
X97256000Y-23209000D01*
X97267000Y-23211000D01*
X97278000Y-23212000D01*
X97289000Y-23212000D01*
X97300000Y-23213000D01*
X97311000Y-23212000D01*
X97322000Y-23212000D01*
X97333000Y-23211000D01*
X97344000Y-23209000D01*
X97355000Y-23208000D01*
X97365000Y-23205000D01*
X97376000Y-23203000D01*
X97387000Y-23200000D01*
X97397000Y-23196000D01*
X97407000Y-23192000D01*
X97417000Y-23188000D01*
X97427000Y-23184000D01*
X97437000Y-23179000D01*
X97447000Y-23173000D01*
X97456000Y-23168000D01*
X97673815Y-23385815D01*
G37*
X97674000Y-23386000D02*
X97673815Y-23385815D01*
X97674059Y-23385625D01*
X97674000Y-23386000D01*
G36*
X97674000Y-23386000D02*
G01*
X97673815Y-23385815D01*
X97674059Y-23385625D01*
X97674000Y-23386000D01*
G37*
X97780125Y-22531440D02*
X97799000Y-22557000D01*
X97814000Y-22579000D01*
X97828000Y-22601000D01*
X97841000Y-22625000D01*
X97853000Y-22648000D01*
X97864000Y-22673000D01*
X97874000Y-22697000D01*
X97882000Y-22722000D01*
X97890000Y-22748000D01*
X97896000Y-22774000D01*
X97901000Y-22800000D01*
X97905000Y-22826000D01*
X97908000Y-22852000D01*
X97910000Y-22879000D01*
X97911000Y-22905000D01*
X97910000Y-22932000D01*
X97908000Y-22959000D01*
X97905000Y-22985000D01*
X97901000Y-23011000D01*
X97896000Y-23037000D01*
X97890000Y-23063000D01*
X97882000Y-23089000D01*
X97874000Y-23114000D01*
X97864000Y-23138000D01*
X97853000Y-23163000D01*
X97841000Y-23186000D01*
X97828000Y-23210000D01*
X97814000Y-23232000D01*
X97799000Y-23254000D01*
X97780000Y-23280000D01*
X97562000Y-23062000D01*
X97568000Y-23052000D01*
X97573000Y-23043000D01*
X97578000Y-23033000D01*
X97583000Y-23023000D01*
X97587000Y-23013000D01*
X97591000Y-23002000D01*
X97594000Y-22992000D01*
X97597000Y-22981000D01*
X97600000Y-22971000D01*
X97602000Y-22960000D01*
X97604000Y-22949000D01*
X97605000Y-22938000D01*
X97606000Y-22927000D01*
X97607000Y-22916000D01*
X97607000Y-22905000D01*
X97607000Y-22895000D01*
X97606000Y-22884000D01*
X97605000Y-22873000D01*
X97604000Y-22862000D01*
X97602000Y-22851000D01*
X97600000Y-22840000D01*
X97597000Y-22830000D01*
X97594000Y-22819000D01*
X97591000Y-22809000D01*
X97587000Y-22798000D01*
X97583000Y-22788000D01*
X97578000Y-22778000D01*
X97573000Y-22768000D01*
X97568000Y-22759000D01*
X97562000Y-22749000D01*
X97780000Y-22531000D01*
X97780125Y-22531440D01*
G36*
X97780125Y-22531440D02*
G01*
X97799000Y-22557000D01*
X97814000Y-22579000D01*
X97828000Y-22601000D01*
X97841000Y-22625000D01*
X97853000Y-22648000D01*
X97864000Y-22673000D01*
X97874000Y-22697000D01*
X97882000Y-22722000D01*
X97890000Y-22748000D01*
X97896000Y-22774000D01*
X97901000Y-22800000D01*
X97905000Y-22826000D01*
X97908000Y-22852000D01*
X97910000Y-22879000D01*
X97911000Y-22905000D01*
X97910000Y-22932000D01*
X97908000Y-22959000D01*
X97905000Y-22985000D01*
X97901000Y-23011000D01*
X97896000Y-23037000D01*
X97890000Y-23063000D01*
X97882000Y-23089000D01*
X97874000Y-23114000D01*
X97864000Y-23138000D01*
X97853000Y-23163000D01*
X97841000Y-23186000D01*
X97828000Y-23210000D01*
X97814000Y-23232000D01*
X97799000Y-23254000D01*
X97780000Y-23280000D01*
X97562000Y-23062000D01*
X97568000Y-23052000D01*
X97573000Y-23043000D01*
X97578000Y-23033000D01*
X97583000Y-23023000D01*
X97587000Y-23013000D01*
X97591000Y-23002000D01*
X97594000Y-22992000D01*
X97597000Y-22981000D01*
X97600000Y-22971000D01*
X97602000Y-22960000D01*
X97604000Y-22949000D01*
X97605000Y-22938000D01*
X97606000Y-22927000D01*
X97607000Y-22916000D01*
X97607000Y-22905000D01*
X97607000Y-22895000D01*
X97606000Y-22884000D01*
X97605000Y-22873000D01*
X97604000Y-22862000D01*
X97602000Y-22851000D01*
X97600000Y-22840000D01*
X97597000Y-22830000D01*
X97594000Y-22819000D01*
X97591000Y-22809000D01*
X97587000Y-22798000D01*
X97583000Y-22788000D01*
X97578000Y-22778000D01*
X97573000Y-22768000D01*
X97568000Y-22759000D01*
X97562000Y-22749000D01*
X97780000Y-22531000D01*
X97780125Y-22531440D01*
G37*
X131038000Y-22749000D02*
X131032000Y-22759000D01*
X131027000Y-22768000D01*
X131022000Y-22778000D01*
X131017000Y-22788000D01*
X131013000Y-22798000D01*
X131009000Y-22809000D01*
X131006000Y-22819000D01*
X131003000Y-22830000D01*
X131000000Y-22840000D01*
X130998000Y-22851000D01*
X130996000Y-22862000D01*
X130995000Y-22873000D01*
X130994000Y-22884000D01*
X130993000Y-22895000D01*
X130993000Y-22905000D01*
X130993000Y-22916000D01*
X130994000Y-22927000D01*
X130995000Y-22938000D01*
X130996000Y-22949000D01*
X130998000Y-22960000D01*
X131000000Y-22971000D01*
X131003000Y-22981000D01*
X131006000Y-22992000D01*
X131009000Y-23002000D01*
X131013000Y-23013000D01*
X131017000Y-23023000D01*
X131022000Y-23033000D01*
X131027000Y-23043000D01*
X131032000Y-23052000D01*
X131038000Y-23062000D01*
X130820000Y-23280000D01*
X130819875Y-23279559D01*
X130806000Y-23262000D01*
X130791000Y-23240000D01*
X130776000Y-23217000D01*
X130763000Y-23193000D01*
X130750000Y-23169000D01*
X130739000Y-23144000D01*
X130728000Y-23119000D01*
X130719000Y-23093000D01*
X130711000Y-23067000D01*
X130705000Y-23041000D01*
X130699000Y-23014000D01*
X130695000Y-22987000D01*
X130692000Y-22960000D01*
X130690000Y-22933000D01*
X130689000Y-22905000D01*
X130690000Y-22878000D01*
X130692000Y-22851000D01*
X130695000Y-22824000D01*
X130699000Y-22797000D01*
X130705000Y-22770000D01*
X130711000Y-22744000D01*
X130719000Y-22718000D01*
X130728000Y-22692000D01*
X130739000Y-22667000D01*
X130750000Y-22642000D01*
X130763000Y-22618000D01*
X130776000Y-22594000D01*
X130791000Y-22571000D01*
X130806000Y-22549000D01*
X130820000Y-22531000D01*
X131038000Y-22749000D01*
G36*
X131038000Y-22749000D02*
G01*
X131032000Y-22759000D01*
X131027000Y-22768000D01*
X131022000Y-22778000D01*
X131017000Y-22788000D01*
X131013000Y-22798000D01*
X131009000Y-22809000D01*
X131006000Y-22819000D01*
X131003000Y-22830000D01*
X131000000Y-22840000D01*
X130998000Y-22851000D01*
X130996000Y-22862000D01*
X130995000Y-22873000D01*
X130994000Y-22884000D01*
X130993000Y-22895000D01*
X130993000Y-22905000D01*
X130993000Y-22916000D01*
X130994000Y-22927000D01*
X130995000Y-22938000D01*
X130996000Y-22949000D01*
X130998000Y-22960000D01*
X131000000Y-22971000D01*
X131003000Y-22981000D01*
X131006000Y-22992000D01*
X131009000Y-23002000D01*
X131013000Y-23013000D01*
X131017000Y-23023000D01*
X131022000Y-23033000D01*
X131027000Y-23043000D01*
X131032000Y-23052000D01*
X131038000Y-23062000D01*
X130820000Y-23280000D01*
X130819875Y-23279559D01*
X130806000Y-23262000D01*
X130791000Y-23240000D01*
X130776000Y-23217000D01*
X130763000Y-23193000D01*
X130750000Y-23169000D01*
X130739000Y-23144000D01*
X130728000Y-23119000D01*
X130719000Y-23093000D01*
X130711000Y-23067000D01*
X130705000Y-23041000D01*
X130699000Y-23014000D01*
X130695000Y-22987000D01*
X130692000Y-22960000D01*
X130690000Y-22933000D01*
X130689000Y-22905000D01*
X130690000Y-22878000D01*
X130692000Y-22851000D01*
X130695000Y-22824000D01*
X130699000Y-22797000D01*
X130705000Y-22770000D01*
X130711000Y-22744000D01*
X130719000Y-22718000D01*
X130728000Y-22692000D01*
X130739000Y-22667000D01*
X130750000Y-22642000D01*
X130763000Y-22618000D01*
X130776000Y-22594000D01*
X130791000Y-22571000D01*
X130806000Y-22549000D01*
X130820000Y-22531000D01*
X131038000Y-22749000D01*
G37*
X131332000Y-22296000D02*
X131359000Y-22298000D01*
X131386000Y-22301000D01*
X131412000Y-22305000D01*
X131439000Y-22311000D01*
X131465000Y-22318000D01*
X131490000Y-22326000D01*
X131516000Y-22335000D01*
X131541000Y-22345000D01*
X131565000Y-22356000D01*
X131589000Y-22369000D01*
X131612000Y-22382000D01*
X131635000Y-22397000D01*
X131657000Y-22412000D01*
X131674000Y-22425000D01*
X131456000Y-22643000D01*
X131447000Y-22638000D01*
X131437000Y-22632000D01*
X131427000Y-22627000D01*
X131417000Y-22623000D01*
X131407000Y-22619000D01*
X131397000Y-22615000D01*
X131387000Y-22611000D01*
X131376000Y-22608000D01*
X131365000Y-22606000D01*
X131355000Y-22603000D01*
X131344000Y-22602000D01*
X131333000Y-22600000D01*
X131322000Y-22599000D01*
X131311000Y-22599000D01*
X131300000Y-22598000D01*
X131289000Y-22599000D01*
X131278000Y-22599000D01*
X131267000Y-22600000D01*
X131256000Y-22602000D01*
X131245000Y-22603000D01*
X131235000Y-22606000D01*
X131224000Y-22608000D01*
X131213000Y-22611000D01*
X131203000Y-22615000D01*
X131193000Y-22619000D01*
X131183000Y-22623000D01*
X131173000Y-22627000D01*
X131163000Y-22632000D01*
X131153000Y-22638000D01*
X131144000Y-22643000D01*
X130926187Y-22425187D01*
X130952000Y-22406000D01*
X130974000Y-22391000D01*
X130997000Y-22377000D01*
X131020000Y-22364000D01*
X131044000Y-22352000D01*
X131069000Y-22341000D01*
X131094000Y-22331000D01*
X131120000Y-22322000D01*
X131145000Y-22315000D01*
X131172000Y-22309000D01*
X131198000Y-22303000D01*
X131225000Y-22299000D01*
X131251000Y-22297000D01*
X131278000Y-22295000D01*
X131305000Y-22295000D01*
X131332000Y-22296000D01*
G36*
X131332000Y-22296000D02*
G01*
X131359000Y-22298000D01*
X131386000Y-22301000D01*
X131412000Y-22305000D01*
X131439000Y-22311000D01*
X131465000Y-22318000D01*
X131490000Y-22326000D01*
X131516000Y-22335000D01*
X131541000Y-22345000D01*
X131565000Y-22356000D01*
X131589000Y-22369000D01*
X131612000Y-22382000D01*
X131635000Y-22397000D01*
X131657000Y-22412000D01*
X131674000Y-22425000D01*
X131456000Y-22643000D01*
X131447000Y-22638000D01*
X131437000Y-22632000D01*
X131427000Y-22627000D01*
X131417000Y-22623000D01*
X131407000Y-22619000D01*
X131397000Y-22615000D01*
X131387000Y-22611000D01*
X131376000Y-22608000D01*
X131365000Y-22606000D01*
X131355000Y-22603000D01*
X131344000Y-22602000D01*
X131333000Y-22600000D01*
X131322000Y-22599000D01*
X131311000Y-22599000D01*
X131300000Y-22598000D01*
X131289000Y-22599000D01*
X131278000Y-22599000D01*
X131267000Y-22600000D01*
X131256000Y-22602000D01*
X131245000Y-22603000D01*
X131235000Y-22606000D01*
X131224000Y-22608000D01*
X131213000Y-22611000D01*
X131203000Y-22615000D01*
X131193000Y-22619000D01*
X131183000Y-22623000D01*
X131173000Y-22627000D01*
X131163000Y-22632000D01*
X131153000Y-22638000D01*
X131144000Y-22643000D01*
X130926187Y-22425187D01*
X130952000Y-22406000D01*
X130974000Y-22391000D01*
X130997000Y-22377000D01*
X131020000Y-22364000D01*
X131044000Y-22352000D01*
X131069000Y-22341000D01*
X131094000Y-22331000D01*
X131120000Y-22322000D01*
X131145000Y-22315000D01*
X131172000Y-22309000D01*
X131198000Y-22303000D01*
X131225000Y-22299000D01*
X131251000Y-22297000D01*
X131278000Y-22295000D01*
X131305000Y-22295000D01*
X131332000Y-22296000D01*
G37*
X130926187Y-22425187D02*
X130925941Y-22425370D01*
X130926000Y-22425000D01*
X130926187Y-22425187D01*
G36*
X130926187Y-22425187D02*
G01*
X130925941Y-22425370D01*
X130926000Y-22425000D01*
X130926187Y-22425187D01*
G37*
X131673815Y-23385815D02*
X131657000Y-23399000D01*
X131635000Y-23414000D01*
X131612000Y-23429000D01*
X131589000Y-23442000D01*
X131565000Y-23455000D01*
X131541000Y-23466000D01*
X131516000Y-23476000D01*
X131490000Y-23485000D01*
X131465000Y-23493000D01*
X131439000Y-23500000D01*
X131412000Y-23506000D01*
X131386000Y-23510000D01*
X131359000Y-23513000D01*
X131332000Y-23515000D01*
X131305000Y-23516000D01*
X131278000Y-23516000D01*
X131251000Y-23514000D01*
X131225000Y-23512000D01*
X131198000Y-23508000D01*
X131172000Y-23502000D01*
X131145000Y-23496000D01*
X131120000Y-23489000D01*
X131094000Y-23480000D01*
X131069000Y-23470000D01*
X131044000Y-23459000D01*
X131020000Y-23447000D01*
X130997000Y-23434000D01*
X130974000Y-23420000D01*
X130952000Y-23405000D01*
X130926000Y-23386000D01*
X131144000Y-23168000D01*
X131153000Y-23173000D01*
X131163000Y-23179000D01*
X131173000Y-23184000D01*
X131183000Y-23188000D01*
X131193000Y-23192000D01*
X131203000Y-23196000D01*
X131213000Y-23200000D01*
X131224000Y-23203000D01*
X131235000Y-23205000D01*
X131245000Y-23208000D01*
X131256000Y-23209000D01*
X131267000Y-23211000D01*
X131278000Y-23212000D01*
X131289000Y-23212000D01*
X131300000Y-23213000D01*
X131311000Y-23212000D01*
X131322000Y-23212000D01*
X131333000Y-23211000D01*
X131344000Y-23209000D01*
X131355000Y-23208000D01*
X131365000Y-23205000D01*
X131376000Y-23203000D01*
X131387000Y-23200000D01*
X131397000Y-23196000D01*
X131407000Y-23192000D01*
X131417000Y-23188000D01*
X131427000Y-23184000D01*
X131437000Y-23179000D01*
X131447000Y-23173000D01*
X131456000Y-23168000D01*
X131673815Y-23385815D01*
G36*
X131673815Y-23385815D02*
G01*
X131657000Y-23399000D01*
X131635000Y-23414000D01*
X131612000Y-23429000D01*
X131589000Y-23442000D01*
X131565000Y-23455000D01*
X131541000Y-23466000D01*
X131516000Y-23476000D01*
X131490000Y-23485000D01*
X131465000Y-23493000D01*
X131439000Y-23500000D01*
X131412000Y-23506000D01*
X131386000Y-23510000D01*
X131359000Y-23513000D01*
X131332000Y-23515000D01*
X131305000Y-23516000D01*
X131278000Y-23516000D01*
X131251000Y-23514000D01*
X131225000Y-23512000D01*
X131198000Y-23508000D01*
X131172000Y-23502000D01*
X131145000Y-23496000D01*
X131120000Y-23489000D01*
X131094000Y-23480000D01*
X131069000Y-23470000D01*
X131044000Y-23459000D01*
X131020000Y-23447000D01*
X130997000Y-23434000D01*
X130974000Y-23420000D01*
X130952000Y-23405000D01*
X130926000Y-23386000D01*
X131144000Y-23168000D01*
X131153000Y-23173000D01*
X131163000Y-23179000D01*
X131173000Y-23184000D01*
X131183000Y-23188000D01*
X131193000Y-23192000D01*
X131203000Y-23196000D01*
X131213000Y-23200000D01*
X131224000Y-23203000D01*
X131235000Y-23205000D01*
X131245000Y-23208000D01*
X131256000Y-23209000D01*
X131267000Y-23211000D01*
X131278000Y-23212000D01*
X131289000Y-23212000D01*
X131300000Y-23213000D01*
X131311000Y-23212000D01*
X131322000Y-23212000D01*
X131333000Y-23211000D01*
X131344000Y-23209000D01*
X131355000Y-23208000D01*
X131365000Y-23205000D01*
X131376000Y-23203000D01*
X131387000Y-23200000D01*
X131397000Y-23196000D01*
X131407000Y-23192000D01*
X131417000Y-23188000D01*
X131427000Y-23184000D01*
X131437000Y-23179000D01*
X131447000Y-23173000D01*
X131456000Y-23168000D01*
X131673815Y-23385815D01*
G37*
X131674000Y-23386000D02*
X131673815Y-23385815D01*
X131674059Y-23385625D01*
X131674000Y-23386000D01*
G36*
X131674000Y-23386000D02*
G01*
X131673815Y-23385815D01*
X131674059Y-23385625D01*
X131674000Y-23386000D01*
G37*
X131780125Y-22531440D02*
X131799000Y-22557000D01*
X131814000Y-22579000D01*
X131828000Y-22601000D01*
X131841000Y-22625000D01*
X131853000Y-22648000D01*
X131864000Y-22673000D01*
X131874000Y-22697000D01*
X131882000Y-22722000D01*
X131890000Y-22748000D01*
X131896000Y-22774000D01*
X131901000Y-22800000D01*
X131905000Y-22826000D01*
X131908000Y-22852000D01*
X131910000Y-22879000D01*
X131911000Y-22905000D01*
X131910000Y-22932000D01*
X131908000Y-22959000D01*
X131905000Y-22985000D01*
X131901000Y-23011000D01*
X131896000Y-23037000D01*
X131890000Y-23063000D01*
X131882000Y-23089000D01*
X131874000Y-23114000D01*
X131864000Y-23138000D01*
X131853000Y-23163000D01*
X131841000Y-23186000D01*
X131828000Y-23210000D01*
X131814000Y-23232000D01*
X131799000Y-23254000D01*
X131780000Y-23280000D01*
X131562000Y-23062000D01*
X131568000Y-23052000D01*
X131573000Y-23043000D01*
X131578000Y-23033000D01*
X131583000Y-23023000D01*
X131587000Y-23013000D01*
X131591000Y-23002000D01*
X131594000Y-22992000D01*
X131597000Y-22981000D01*
X131600000Y-22971000D01*
X131602000Y-22960000D01*
X131604000Y-22949000D01*
X131605000Y-22938000D01*
X131606000Y-22927000D01*
X131607000Y-22916000D01*
X131607000Y-22905000D01*
X131607000Y-22895000D01*
X131606000Y-22884000D01*
X131605000Y-22873000D01*
X131604000Y-22862000D01*
X131602000Y-22851000D01*
X131600000Y-22840000D01*
X131597000Y-22830000D01*
X131594000Y-22819000D01*
X131591000Y-22809000D01*
X131587000Y-22798000D01*
X131583000Y-22788000D01*
X131578000Y-22778000D01*
X131573000Y-22768000D01*
X131568000Y-22759000D01*
X131562000Y-22749000D01*
X131780000Y-22531000D01*
X131780125Y-22531440D01*
G36*
X131780125Y-22531440D02*
G01*
X131799000Y-22557000D01*
X131814000Y-22579000D01*
X131828000Y-22601000D01*
X131841000Y-22625000D01*
X131853000Y-22648000D01*
X131864000Y-22673000D01*
X131874000Y-22697000D01*
X131882000Y-22722000D01*
X131890000Y-22748000D01*
X131896000Y-22774000D01*
X131901000Y-22800000D01*
X131905000Y-22826000D01*
X131908000Y-22852000D01*
X131910000Y-22879000D01*
X131911000Y-22905000D01*
X131910000Y-22932000D01*
X131908000Y-22959000D01*
X131905000Y-22985000D01*
X131901000Y-23011000D01*
X131896000Y-23037000D01*
X131890000Y-23063000D01*
X131882000Y-23089000D01*
X131874000Y-23114000D01*
X131864000Y-23138000D01*
X131853000Y-23163000D01*
X131841000Y-23186000D01*
X131828000Y-23210000D01*
X131814000Y-23232000D01*
X131799000Y-23254000D01*
X131780000Y-23280000D01*
X131562000Y-23062000D01*
X131568000Y-23052000D01*
X131573000Y-23043000D01*
X131578000Y-23033000D01*
X131583000Y-23023000D01*
X131587000Y-23013000D01*
X131591000Y-23002000D01*
X131594000Y-22992000D01*
X131597000Y-22981000D01*
X131600000Y-22971000D01*
X131602000Y-22960000D01*
X131604000Y-22949000D01*
X131605000Y-22938000D01*
X131606000Y-22927000D01*
X131607000Y-22916000D01*
X131607000Y-22905000D01*
X131607000Y-22895000D01*
X131606000Y-22884000D01*
X131605000Y-22873000D01*
X131604000Y-22862000D01*
X131602000Y-22851000D01*
X131600000Y-22840000D01*
X131597000Y-22830000D01*
X131594000Y-22819000D01*
X131591000Y-22809000D01*
X131587000Y-22798000D01*
X131583000Y-22788000D01*
X131578000Y-22778000D01*
X131573000Y-22768000D01*
X131568000Y-22759000D01*
X131562000Y-22749000D01*
X131780000Y-22531000D01*
X131780125Y-22531440D01*
G37*
X131038000Y-45249000D02*
X131032000Y-45259000D01*
X131027000Y-45268000D01*
X131022000Y-45278000D01*
X131017000Y-45288000D01*
X131013000Y-45298000D01*
X131009000Y-45309000D01*
X131006000Y-45319000D01*
X131003000Y-45330000D01*
X131000000Y-45340000D01*
X130998000Y-45351000D01*
X130996000Y-45362000D01*
X130995000Y-45373000D01*
X130994000Y-45384000D01*
X130993000Y-45395000D01*
X130993000Y-45405000D01*
X130993000Y-45416000D01*
X130994000Y-45427000D01*
X130995000Y-45438000D01*
X130996000Y-45449000D01*
X130998000Y-45460000D01*
X131000000Y-45471000D01*
X131003000Y-45481000D01*
X131006000Y-45492000D01*
X131009000Y-45502000D01*
X131013000Y-45513000D01*
X131017000Y-45523000D01*
X131022000Y-45533000D01*
X131027000Y-45543000D01*
X131032000Y-45552000D01*
X131038000Y-45562000D01*
X130820000Y-45780000D01*
X130819875Y-45779559D01*
X130806000Y-45762000D01*
X130791000Y-45740000D01*
X130776000Y-45717000D01*
X130763000Y-45693000D01*
X130750000Y-45669000D01*
X130739000Y-45644000D01*
X130728000Y-45619000D01*
X130719000Y-45593000D01*
X130711000Y-45567000D01*
X130705000Y-45541000D01*
X130699000Y-45514000D01*
X130695000Y-45487000D01*
X130692000Y-45460000D01*
X130690000Y-45433000D01*
X130689000Y-45405000D01*
X130690000Y-45378000D01*
X130692000Y-45351000D01*
X130695000Y-45324000D01*
X130699000Y-45297000D01*
X130705000Y-45270000D01*
X130711000Y-45244000D01*
X130719000Y-45218000D01*
X130728000Y-45192000D01*
X130739000Y-45167000D01*
X130750000Y-45142000D01*
X130763000Y-45118000D01*
X130776000Y-45094000D01*
X130791000Y-45071000D01*
X130806000Y-45049000D01*
X130820000Y-45031000D01*
X131038000Y-45249000D01*
G36*
X131038000Y-45249000D02*
G01*
X131032000Y-45259000D01*
X131027000Y-45268000D01*
X131022000Y-45278000D01*
X131017000Y-45288000D01*
X131013000Y-45298000D01*
X131009000Y-45309000D01*
X131006000Y-45319000D01*
X131003000Y-45330000D01*
X131000000Y-45340000D01*
X130998000Y-45351000D01*
X130996000Y-45362000D01*
X130995000Y-45373000D01*
X130994000Y-45384000D01*
X130993000Y-45395000D01*
X130993000Y-45405000D01*
X130993000Y-45416000D01*
X130994000Y-45427000D01*
X130995000Y-45438000D01*
X130996000Y-45449000D01*
X130998000Y-45460000D01*
X131000000Y-45471000D01*
X131003000Y-45481000D01*
X131006000Y-45492000D01*
X131009000Y-45502000D01*
X131013000Y-45513000D01*
X131017000Y-45523000D01*
X131022000Y-45533000D01*
X131027000Y-45543000D01*
X131032000Y-45552000D01*
X131038000Y-45562000D01*
X130820000Y-45780000D01*
X130819875Y-45779559D01*
X130806000Y-45762000D01*
X130791000Y-45740000D01*
X130776000Y-45717000D01*
X130763000Y-45693000D01*
X130750000Y-45669000D01*
X130739000Y-45644000D01*
X130728000Y-45619000D01*
X130719000Y-45593000D01*
X130711000Y-45567000D01*
X130705000Y-45541000D01*
X130699000Y-45514000D01*
X130695000Y-45487000D01*
X130692000Y-45460000D01*
X130690000Y-45433000D01*
X130689000Y-45405000D01*
X130690000Y-45378000D01*
X130692000Y-45351000D01*
X130695000Y-45324000D01*
X130699000Y-45297000D01*
X130705000Y-45270000D01*
X130711000Y-45244000D01*
X130719000Y-45218000D01*
X130728000Y-45192000D01*
X130739000Y-45167000D01*
X130750000Y-45142000D01*
X130763000Y-45118000D01*
X130776000Y-45094000D01*
X130791000Y-45071000D01*
X130806000Y-45049000D01*
X130820000Y-45031000D01*
X131038000Y-45249000D01*
G37*
X131332000Y-44796000D02*
X131359000Y-44798000D01*
X131386000Y-44801000D01*
X131412000Y-44805000D01*
X131439000Y-44811000D01*
X131465000Y-44818000D01*
X131490000Y-44826000D01*
X131516000Y-44835000D01*
X131541000Y-44845000D01*
X131565000Y-44856000D01*
X131589000Y-44869000D01*
X131612000Y-44882000D01*
X131635000Y-44897000D01*
X131657000Y-44912000D01*
X131674000Y-44925000D01*
X131456000Y-45143000D01*
X131447000Y-45138000D01*
X131437000Y-45132000D01*
X131427000Y-45127000D01*
X131417000Y-45123000D01*
X131407000Y-45119000D01*
X131397000Y-45115000D01*
X131387000Y-45111000D01*
X131376000Y-45108000D01*
X131365000Y-45106000D01*
X131355000Y-45103000D01*
X131344000Y-45102000D01*
X131333000Y-45100000D01*
X131322000Y-45099000D01*
X131311000Y-45099000D01*
X131300000Y-45098000D01*
X131289000Y-45099000D01*
X131278000Y-45099000D01*
X131267000Y-45100000D01*
X131256000Y-45102000D01*
X131245000Y-45103000D01*
X131235000Y-45106000D01*
X131224000Y-45108000D01*
X131213000Y-45111000D01*
X131203000Y-45115000D01*
X131193000Y-45119000D01*
X131183000Y-45123000D01*
X131173000Y-45127000D01*
X131163000Y-45132000D01*
X131153000Y-45138000D01*
X131144000Y-45143000D01*
X130926187Y-44925187D01*
X130952000Y-44906000D01*
X130974000Y-44891000D01*
X130997000Y-44877000D01*
X131020000Y-44864000D01*
X131044000Y-44852000D01*
X131069000Y-44841000D01*
X131094000Y-44831000D01*
X131120000Y-44822000D01*
X131145000Y-44815000D01*
X131172000Y-44809000D01*
X131198000Y-44803000D01*
X131225000Y-44799000D01*
X131251000Y-44797000D01*
X131278000Y-44795000D01*
X131305000Y-44795000D01*
X131332000Y-44796000D01*
G36*
X131332000Y-44796000D02*
G01*
X131359000Y-44798000D01*
X131386000Y-44801000D01*
X131412000Y-44805000D01*
X131439000Y-44811000D01*
X131465000Y-44818000D01*
X131490000Y-44826000D01*
X131516000Y-44835000D01*
X131541000Y-44845000D01*
X131565000Y-44856000D01*
X131589000Y-44869000D01*
X131612000Y-44882000D01*
X131635000Y-44897000D01*
X131657000Y-44912000D01*
X131674000Y-44925000D01*
X131456000Y-45143000D01*
X131447000Y-45138000D01*
X131437000Y-45132000D01*
X131427000Y-45127000D01*
X131417000Y-45123000D01*
X131407000Y-45119000D01*
X131397000Y-45115000D01*
X131387000Y-45111000D01*
X131376000Y-45108000D01*
X131365000Y-45106000D01*
X131355000Y-45103000D01*
X131344000Y-45102000D01*
X131333000Y-45100000D01*
X131322000Y-45099000D01*
X131311000Y-45099000D01*
X131300000Y-45098000D01*
X131289000Y-45099000D01*
X131278000Y-45099000D01*
X131267000Y-45100000D01*
X131256000Y-45102000D01*
X131245000Y-45103000D01*
X131235000Y-45106000D01*
X131224000Y-45108000D01*
X131213000Y-45111000D01*
X131203000Y-45115000D01*
X131193000Y-45119000D01*
X131183000Y-45123000D01*
X131173000Y-45127000D01*
X131163000Y-45132000D01*
X131153000Y-45138000D01*
X131144000Y-45143000D01*
X130926187Y-44925187D01*
X130952000Y-44906000D01*
X130974000Y-44891000D01*
X130997000Y-44877000D01*
X131020000Y-44864000D01*
X131044000Y-44852000D01*
X131069000Y-44841000D01*
X131094000Y-44831000D01*
X131120000Y-44822000D01*
X131145000Y-44815000D01*
X131172000Y-44809000D01*
X131198000Y-44803000D01*
X131225000Y-44799000D01*
X131251000Y-44797000D01*
X131278000Y-44795000D01*
X131305000Y-44795000D01*
X131332000Y-44796000D01*
G37*
X130926187Y-44925187D02*
X130925941Y-44925370D01*
X130926000Y-44925000D01*
X130926187Y-44925187D01*
G36*
X130926187Y-44925187D02*
G01*
X130925941Y-44925370D01*
X130926000Y-44925000D01*
X130926187Y-44925187D01*
G37*
X131673815Y-45885815D02*
X131657000Y-45899000D01*
X131635000Y-45914000D01*
X131612000Y-45929000D01*
X131589000Y-45942000D01*
X131565000Y-45955000D01*
X131541000Y-45966000D01*
X131516000Y-45976000D01*
X131490000Y-45985000D01*
X131465000Y-45993000D01*
X131439000Y-46000000D01*
X131412000Y-46006000D01*
X131386000Y-46010000D01*
X131359000Y-46013000D01*
X131332000Y-46015000D01*
X131305000Y-46016000D01*
X131278000Y-46016000D01*
X131251000Y-46014000D01*
X131225000Y-46012000D01*
X131198000Y-46008000D01*
X131172000Y-46002000D01*
X131145000Y-45996000D01*
X131120000Y-45989000D01*
X131094000Y-45980000D01*
X131069000Y-45970000D01*
X131044000Y-45959000D01*
X131020000Y-45947000D01*
X130997000Y-45934000D01*
X130974000Y-45920000D01*
X130952000Y-45905000D01*
X130926000Y-45886000D01*
X131144000Y-45668000D01*
X131153000Y-45673000D01*
X131163000Y-45679000D01*
X131173000Y-45684000D01*
X131183000Y-45688000D01*
X131193000Y-45692000D01*
X131203000Y-45696000D01*
X131213000Y-45700000D01*
X131224000Y-45703000D01*
X131235000Y-45705000D01*
X131245000Y-45708000D01*
X131256000Y-45709000D01*
X131267000Y-45711000D01*
X131278000Y-45712000D01*
X131289000Y-45712000D01*
X131300000Y-45713000D01*
X131311000Y-45712000D01*
X131322000Y-45712000D01*
X131333000Y-45711000D01*
X131344000Y-45709000D01*
X131355000Y-45708000D01*
X131365000Y-45705000D01*
X131376000Y-45703000D01*
X131387000Y-45700000D01*
X131397000Y-45696000D01*
X131407000Y-45692000D01*
X131417000Y-45688000D01*
X131427000Y-45684000D01*
X131437000Y-45679000D01*
X131447000Y-45673000D01*
X131456000Y-45668000D01*
X131673815Y-45885815D01*
G36*
X131673815Y-45885815D02*
G01*
X131657000Y-45899000D01*
X131635000Y-45914000D01*
X131612000Y-45929000D01*
X131589000Y-45942000D01*
X131565000Y-45955000D01*
X131541000Y-45966000D01*
X131516000Y-45976000D01*
X131490000Y-45985000D01*
X131465000Y-45993000D01*
X131439000Y-46000000D01*
X131412000Y-46006000D01*
X131386000Y-46010000D01*
X131359000Y-46013000D01*
X131332000Y-46015000D01*
X131305000Y-46016000D01*
X131278000Y-46016000D01*
X131251000Y-46014000D01*
X131225000Y-46012000D01*
X131198000Y-46008000D01*
X131172000Y-46002000D01*
X131145000Y-45996000D01*
X131120000Y-45989000D01*
X131094000Y-45980000D01*
X131069000Y-45970000D01*
X131044000Y-45959000D01*
X131020000Y-45947000D01*
X130997000Y-45934000D01*
X130974000Y-45920000D01*
X130952000Y-45905000D01*
X130926000Y-45886000D01*
X131144000Y-45668000D01*
X131153000Y-45673000D01*
X131163000Y-45679000D01*
X131173000Y-45684000D01*
X131183000Y-45688000D01*
X131193000Y-45692000D01*
X131203000Y-45696000D01*
X131213000Y-45700000D01*
X131224000Y-45703000D01*
X131235000Y-45705000D01*
X131245000Y-45708000D01*
X131256000Y-45709000D01*
X131267000Y-45711000D01*
X131278000Y-45712000D01*
X131289000Y-45712000D01*
X131300000Y-45713000D01*
X131311000Y-45712000D01*
X131322000Y-45712000D01*
X131333000Y-45711000D01*
X131344000Y-45709000D01*
X131355000Y-45708000D01*
X131365000Y-45705000D01*
X131376000Y-45703000D01*
X131387000Y-45700000D01*
X131397000Y-45696000D01*
X131407000Y-45692000D01*
X131417000Y-45688000D01*
X131427000Y-45684000D01*
X131437000Y-45679000D01*
X131447000Y-45673000D01*
X131456000Y-45668000D01*
X131673815Y-45885815D01*
G37*
X131674000Y-45886000D02*
X131673815Y-45885815D01*
X131674059Y-45885625D01*
X131674000Y-45886000D01*
G36*
X131674000Y-45886000D02*
G01*
X131673815Y-45885815D01*
X131674059Y-45885625D01*
X131674000Y-45886000D01*
G37*
X131780125Y-45031440D02*
X131799000Y-45057000D01*
X131814000Y-45079000D01*
X131828000Y-45101000D01*
X131841000Y-45125000D01*
X131853000Y-45148000D01*
X131864000Y-45173000D01*
X131874000Y-45197000D01*
X131882000Y-45222000D01*
X131890000Y-45248000D01*
X131896000Y-45274000D01*
X131901000Y-45300000D01*
X131905000Y-45326000D01*
X131908000Y-45352000D01*
X131910000Y-45379000D01*
X131911000Y-45405000D01*
X131910000Y-45432000D01*
X131908000Y-45459000D01*
X131905000Y-45485000D01*
X131901000Y-45511000D01*
X131896000Y-45537000D01*
X131890000Y-45563000D01*
X131882000Y-45589000D01*
X131874000Y-45614000D01*
X131864000Y-45638000D01*
X131853000Y-45663000D01*
X131841000Y-45686000D01*
X131828000Y-45710000D01*
X131814000Y-45732000D01*
X131799000Y-45754000D01*
X131780000Y-45780000D01*
X131562000Y-45562000D01*
X131568000Y-45552000D01*
X131573000Y-45543000D01*
X131578000Y-45533000D01*
X131583000Y-45523000D01*
X131587000Y-45513000D01*
X131591000Y-45502000D01*
X131594000Y-45492000D01*
X131597000Y-45481000D01*
X131600000Y-45471000D01*
X131602000Y-45460000D01*
X131604000Y-45449000D01*
X131605000Y-45438000D01*
X131606000Y-45427000D01*
X131607000Y-45416000D01*
X131607000Y-45405000D01*
X131607000Y-45395000D01*
X131606000Y-45384000D01*
X131605000Y-45373000D01*
X131604000Y-45362000D01*
X131602000Y-45351000D01*
X131600000Y-45340000D01*
X131597000Y-45330000D01*
X131594000Y-45319000D01*
X131591000Y-45309000D01*
X131587000Y-45298000D01*
X131583000Y-45288000D01*
X131578000Y-45278000D01*
X131573000Y-45268000D01*
X131568000Y-45259000D01*
X131562000Y-45249000D01*
X131780000Y-45031000D01*
X131780125Y-45031440D01*
G36*
X131780125Y-45031440D02*
G01*
X131799000Y-45057000D01*
X131814000Y-45079000D01*
X131828000Y-45101000D01*
X131841000Y-45125000D01*
X131853000Y-45148000D01*
X131864000Y-45173000D01*
X131874000Y-45197000D01*
X131882000Y-45222000D01*
X131890000Y-45248000D01*
X131896000Y-45274000D01*
X131901000Y-45300000D01*
X131905000Y-45326000D01*
X131908000Y-45352000D01*
X131910000Y-45379000D01*
X131911000Y-45405000D01*
X131910000Y-45432000D01*
X131908000Y-45459000D01*
X131905000Y-45485000D01*
X131901000Y-45511000D01*
X131896000Y-45537000D01*
X131890000Y-45563000D01*
X131882000Y-45589000D01*
X131874000Y-45614000D01*
X131864000Y-45638000D01*
X131853000Y-45663000D01*
X131841000Y-45686000D01*
X131828000Y-45710000D01*
X131814000Y-45732000D01*
X131799000Y-45754000D01*
X131780000Y-45780000D01*
X131562000Y-45562000D01*
X131568000Y-45552000D01*
X131573000Y-45543000D01*
X131578000Y-45533000D01*
X131583000Y-45523000D01*
X131587000Y-45513000D01*
X131591000Y-45502000D01*
X131594000Y-45492000D01*
X131597000Y-45481000D01*
X131600000Y-45471000D01*
X131602000Y-45460000D01*
X131604000Y-45449000D01*
X131605000Y-45438000D01*
X131606000Y-45427000D01*
X131607000Y-45416000D01*
X131607000Y-45405000D01*
X131607000Y-45395000D01*
X131606000Y-45384000D01*
X131605000Y-45373000D01*
X131604000Y-45362000D01*
X131602000Y-45351000D01*
X131600000Y-45340000D01*
X131597000Y-45330000D01*
X131594000Y-45319000D01*
X131591000Y-45309000D01*
X131587000Y-45298000D01*
X131583000Y-45288000D01*
X131578000Y-45278000D01*
X131573000Y-45268000D01*
X131568000Y-45259000D01*
X131562000Y-45249000D01*
X131780000Y-45031000D01*
X131780125Y-45031440D01*
G37*
%TD*%
D11*
%TO.C,R3*%
X94300000Y-28802500D03*
X94300000Y-26977500D03*
%TD*%
D12*
%TO.C,R4*%
X123137500Y-52765000D03*
X124962500Y-52765000D03*
%TD*%
D13*
%TO.C,R2*%
X116050000Y-48890000D03*
X116050000Y-50715000D03*
%TD*%
D11*
%TO.C,R5*%
X128300000Y-47552500D03*
X128300000Y-45727500D03*
%TD*%
D13*
%TO.C,R1*%
X82050000Y-22702500D03*
X82050000Y-24527500D03*
%TD*%
D12*
%TO.C,R4*%
X123137500Y-30265000D03*
X124962500Y-30265000D03*
%TD*%
D13*
%TO.C,R2*%
X116050000Y-26390000D03*
X116050000Y-28215000D03*
%TD*%
%TO.C,R2*%
X82050000Y-48890000D03*
X82050000Y-50715000D03*
%TD*%
D14*
%TO.C,C3*%
X130350000Y-27140000D03*
X132250000Y-27140000D03*
%TD*%
D15*
%TO.C,C2*%
X84300000Y-50715000D03*
X84300000Y-48815000D03*
%TD*%
D11*
%TO.C,R5*%
X128300000Y-25052500D03*
X128300000Y-23227500D03*
%TD*%
D16*
%TO.C,C1*%
X91750000Y-44765000D03*
X89850000Y-44765000D03*
%TD*%
D17*
%TO.C,U2*%
X98266000Y-47508500D03*
D18*
X98315000Y-44771500D03*
X96285000Y-44771500D03*
D17*
X96334000Y-47508500D03*
D19*
X97300000Y-47508500D03*
%TD*%
D13*
%TO.C,R1*%
X116050000Y-22702500D03*
X116050000Y-24527500D03*
%TD*%
D17*
%TO.C,U2*%
X98266000Y-25008500D03*
D18*
X98315000Y-22271500D03*
X96285000Y-22271500D03*
D17*
X96334000Y-25008500D03*
D19*
X97300000Y-25008500D03*
%TD*%
D15*
%TO.C,C2*%
X118300000Y-28215000D03*
X118300000Y-26315000D03*
%TD*%
D17*
%TO.C,U2*%
X132266000Y-25008500D03*
D18*
X132315000Y-22271500D03*
X130285000Y-22271500D03*
D17*
X130334000Y-25008500D03*
D19*
X131300000Y-25008500D03*
%TD*%
D12*
%TO.C,R4*%
X89137500Y-30265000D03*
X90962500Y-30265000D03*
%TD*%
D11*
%TO.C,R3*%
X128300000Y-51302500D03*
X128300000Y-49477500D03*
%TD*%
D13*
%TO.C,R1*%
X82050000Y-45202500D03*
X82050000Y-47027500D03*
%TD*%
D20*
%TO.C,U1*%
X86825000Y-46860000D03*
X86825000Y-48130000D03*
X86825000Y-49400000D03*
X86825000Y-50670000D03*
X91775000Y-50670000D03*
X91775000Y-49400000D03*
X91775000Y-48130000D03*
X91775000Y-46860000D03*
%TD*%
D16*
%TO.C,C1*%
X125750000Y-44765000D03*
X123850000Y-44765000D03*
%TD*%
D20*
%TO.C,U1*%
X120825000Y-46860000D03*
X120825000Y-48130000D03*
X120825000Y-49400000D03*
X120825000Y-50670000D03*
X125775000Y-50670000D03*
X125775000Y-49400000D03*
X125775000Y-48130000D03*
X125775000Y-46860000D03*
%TD*%
D12*
%TO.C,R4*%
X89137500Y-52765000D03*
X90962500Y-52765000D03*
%TD*%
D13*
%TO.C,R2*%
X82050000Y-26390000D03*
X82050000Y-28215000D03*
%TD*%
D14*
%TO.C,C3*%
X96350000Y-49640000D03*
X98250000Y-49640000D03*
%TD*%
D16*
%TO.C,C1*%
X91750000Y-22265000D03*
X89850000Y-22265000D03*
%TD*%
D15*
%TO.C,C2*%
X84300000Y-28215000D03*
X84300000Y-26315000D03*
%TD*%
D11*
%TO.C,R5*%
X94300000Y-25052500D03*
X94300000Y-23227500D03*
%TD*%
D14*
%TO.C,C3*%
X96350000Y-27140000D03*
X98250000Y-27140000D03*
%TD*%
D16*
%TO.C,C1*%
X125750000Y-22265000D03*
X123850000Y-22265000D03*
%TD*%
D15*
%TO.C,C2*%
X118300000Y-50715000D03*
X118300000Y-48815000D03*
%TD*%
D11*
%TO.C,R3*%
X94300000Y-51302500D03*
X94300000Y-49477500D03*
%TD*%
D17*
%TO.C,U2*%
X132266000Y-47508500D03*
D18*
X132315000Y-44771500D03*
X130285000Y-44771500D03*
D17*
X130334000Y-47508500D03*
D19*
X131300000Y-47508500D03*
%TD*%
D11*
%TO.C,R5*%
X94300000Y-47552500D03*
X94300000Y-45727500D03*
%TD*%
D14*
%TO.C,C3*%
X130350000Y-49640000D03*
X132250000Y-49640000D03*
%TD*%
D11*
%TO.C,R3*%
X128300000Y-28802500D03*
X128300000Y-26977500D03*
%TD*%
D13*
%TO.C,R1*%
X116050000Y-45202500D03*
X116050000Y-47027500D03*
%TD*%
D20*
%TO.C,U1*%
X86825000Y-24360000D03*
X86825000Y-25630000D03*
X86825000Y-26900000D03*
X86825000Y-28170000D03*
X91775000Y-28170000D03*
X91775000Y-26900000D03*
X91775000Y-25630000D03*
X91775000Y-24360000D03*
%TD*%
%TO.C,U1*%
X120825000Y-24360000D03*
X120825000Y-25630000D03*
X120825000Y-26900000D03*
X120825000Y-28170000D03*
X125775000Y-28170000D03*
X125775000Y-26900000D03*
X125775000Y-25630000D03*
X125775000Y-24360000D03*
%TD*%
M02*
