M48
; DRILL file {KiCad 8.0.8-8.0.8-0~ubuntu24.04.1} date 2025-02-18T11:20:40+0100
; FORMAT={-:-/ absolute / inch / decimal}
; #@! TF.CreationDate,2025-02-18T11:20:40+01:00
; #@! TF.GenerationSoftware,Kicad,Pcbnew,8.0.8-8.0.8-0~ubuntu24.04.1
; #@! TF.FileFunction,NonPlated,1,2,NPTH
FMAT,2
INCH
; #@! TA.AperFunction,NonPlated,NPTH,ComponentDrill
T1C0.0177
; #@! TA.AperFunction,NonPlated,NPTH,ComponentDrill
T2C0.0197
%
G90
G05
T1
X3.8504Y-0.9018
X3.8504Y-1.7876
X5.1496Y-0.9018
X5.1496Y-1.7876
T2
X3.0315Y-1.3977
X3.0315Y-1.4292
X3.0315Y-1.4606
X3.0315Y-1.4921
X3.0315Y-1.5236
X3.0315Y-1.5551
X3.0315Y-0.9744
X3.0315Y-1.0138
X3.0315Y-1.8602
X3.0315Y-1.8996
X3.0315Y-1.0531
X3.0315Y-1.0925
X3.0315Y-1.939
X3.0315Y-1.9783
X3.2743Y-1.2795
X3.2743Y-1.6732
X3.3136Y-1.2795
X3.3136Y-1.6732
X3.353Y-1.2795
X3.353Y-1.6732
X3.3924Y-1.2795
X3.3924Y-1.6732
X3.5761Y-1.2795
X3.5761Y-1.6732
X3.6155Y-1.2795
X3.6155Y-1.6732
X3.6549Y-1.2795
X3.6549Y-1.6732
X3.6942Y-1.2795
X3.6942Y-1.6732
X3.937Y-1.0531
X3.937Y-1.0925
X3.937Y-1.939
X3.937Y-1.9783
X3.937Y-0.9744
X3.937Y-1.0138
X3.937Y-1.8602
X3.937Y-1.8996
X4.0551Y-1.3977
X4.0551Y-1.3977
X4.0551Y-1.4292
X4.0551Y-1.4606
X4.0551Y-1.4921
X4.0551Y-1.5236
X4.0551Y-1.5551
X4.0551Y-1.5551
X4.0866Y-1.3977
X4.0866Y-1.5551
X4.1181Y-1.3977
X4.1181Y-1.5551
X4.1496Y-1.3977
X4.1496Y-1.5551
X4.1811Y-1.3977
X4.1811Y-1.5551
X4.2126Y-1.3977
X4.2126Y-1.3977
X4.2126Y-1.4292
X4.2126Y-1.4606
X4.2126Y-1.4921
X4.2126Y-1.5236
X4.2126Y-1.5551
X4.2126Y-1.5551
X4.3307Y-0.9744
X4.3307Y-1.0138
X4.3307Y-1.8602
X4.3307Y-1.8996
X4.3307Y-1.0531
X4.3307Y-1.0925
X4.3307Y-1.939
X4.3307Y-1.9783
X4.5735Y-1.2795
X4.5735Y-1.6732
X4.6129Y-1.2795
X4.6129Y-1.6732
X4.6522Y-1.2795
X4.6522Y-1.6732
X4.6916Y-1.2795
X4.6916Y-1.6732
X4.8753Y-1.2795
X4.8753Y-1.6732
X4.9147Y-1.2795
X4.9147Y-1.6732
X4.9541Y-1.2795
X4.9541Y-1.6732
X4.9934Y-1.2795
X4.9934Y-1.6732
X5.2362Y-1.0531
X5.2362Y-1.0925
X5.2362Y-1.939
X5.2362Y-1.9783
X5.2362Y-0.9744
X5.2362Y-1.0138
X5.2362Y-1.3977
X5.2362Y-1.4292
X5.2362Y-1.4606
X5.2362Y-1.4921
X5.2362Y-1.5236
X5.2362Y-1.5551
X5.2362Y-1.8602
X5.2362Y-1.8996
M30
