%TF.GenerationSoftware,KiCad,Pcbnew,8.0.8-8.0.8-0~ubuntu24.04.1*%
%TF.CreationDate,2025-02-18T11:20:38+01:00*%
%TF.ProjectId,SPU0410LR5H_panel,53505530-3431-4304-9c52-35485f70616e,rev?*%
%TF.SameCoordinates,Original*%
%TF.FileFunction,Legend,Bot*%
%TF.FilePolarity,Positive*%
%FSLAX46Y46*%
G04 Gerber Fmt 4.6, Leading zero omitted, Abs format (unit mm)*
G04 Created by KiCad (PCBNEW 8.0.8-8.0.8-0~ubuntu24.04.1) date 2025-02-18 11:20:38*
%MOMM*%
%LPD*%
G01*
G04 APERTURE LIST*
%ADD10C,0.000000*%
G04 APERTURE END LIST*
D10*
%TO.C,kibuzzard-670AB201*%
G36*
X85251717Y-46977771D02*
G01*
X85323203Y-47090452D01*
X85357129Y-47256446D01*
X85363490Y-47354588D01*
X85365610Y-47460000D01*
X85363490Y-47565715D01*
X85357129Y-47664766D01*
X85323203Y-47830759D01*
X85251717Y-47942229D01*
X85128131Y-47983425D01*
X85005756Y-47942229D01*
X84933058Y-47829548D01*
X84899132Y-47663554D01*
X84892771Y-47565412D01*
X84890651Y-47460000D01*
X84892771Y-47354285D01*
X84899132Y-47255234D01*
X84933058Y-47089241D01*
X85004544Y-46977771D01*
X85128131Y-46936575D01*
X85251717Y-46977771D01*
G37*
G36*
X85860816Y-46494267D02*
G01*
X86045530Y-46550300D01*
X86215764Y-46641291D01*
X86364975Y-46763745D01*
X86487429Y-46912956D01*
X86578421Y-47083190D01*
X86634453Y-47267904D01*
X86653373Y-47460000D01*
X86634453Y-47652096D01*
X86578421Y-47836810D01*
X86487429Y-48007044D01*
X86364975Y-48156255D01*
X86215764Y-48278709D01*
X86045530Y-48369700D01*
X85860816Y-48425733D01*
X85668720Y-48444653D01*
X85668518Y-48444653D01*
X85125707Y-48444653D01*
X83921345Y-48444653D01*
X82554625Y-48444653D01*
X82159633Y-48444653D01*
X81553817Y-48444653D01*
X81553817Y-46958384D01*
X82159633Y-46958384D01*
X82554625Y-46958384D01*
X82554625Y-48211212D01*
X82855110Y-48211212D01*
X82855110Y-47668401D01*
X83405190Y-47668401D01*
X83411248Y-47793199D01*
X83429423Y-47905880D01*
X83462743Y-48004628D01*
X83514237Y-48087625D01*
X83584512Y-48153962D01*
X83674173Y-48202730D01*
X83785643Y-48232718D01*
X83921345Y-48242714D01*
X84054928Y-48232718D01*
X84164883Y-48202730D01*
X84321184Y-48087625D01*
X84370861Y-48004628D01*
X84403575Y-47905880D01*
X84421749Y-47793199D01*
X84427807Y-47668401D01*
X84427807Y-47460000D01*
X84587743Y-47460000D01*
X84596527Y-47641972D01*
X84622880Y-47800166D01*
X84666802Y-47934581D01*
X84728292Y-48045218D01*
X84834916Y-48154938D01*
X84967387Y-48220770D01*
X85125707Y-48242714D01*
X85287931Y-48220770D01*
X85422422Y-48154938D01*
X85529181Y-48045218D01*
X85590141Y-47934581D01*
X85633684Y-47800166D01*
X85659810Y-47641972D01*
X85668518Y-47460000D01*
X85659582Y-47278028D01*
X85632775Y-47119834D01*
X85588096Y-46985419D01*
X85525546Y-46874782D01*
X85417845Y-46765062D01*
X85285373Y-46699230D01*
X85128131Y-46677286D01*
X84966041Y-46699230D01*
X84831954Y-46765062D01*
X84725869Y-46874782D01*
X84665439Y-46985419D01*
X84622274Y-47119834D01*
X84596376Y-47278028D01*
X84587743Y-47460000D01*
X84427807Y-47460000D01*
X84427807Y-46711212D01*
X84127323Y-46711212D01*
X84127323Y-47649015D01*
X84117630Y-47807738D01*
X84084916Y-47910727D01*
X84020699Y-47966462D01*
X83916499Y-47983425D01*
X83812299Y-47966462D01*
X83746870Y-47909515D01*
X83712945Y-47805315D01*
X83703252Y-47646591D01*
X83703252Y-46711212D01*
X83405190Y-46711212D01*
X83405190Y-47668401D01*
X82855110Y-47668401D01*
X82855110Y-46958384D01*
X83250101Y-46958384D01*
X83250101Y-46711212D01*
X82159633Y-46711212D01*
X82159633Y-46958384D01*
X81553817Y-46958384D01*
X81553817Y-46475347D01*
X82159633Y-46475347D01*
X85668518Y-46475347D01*
X85668720Y-46475347D01*
X85860816Y-46494267D01*
G37*
%TO.C,kibuzzard-670AB1F3*%
G36*
X115833300Y-26994750D02*
G01*
X115876918Y-27000808D01*
X115876918Y-28008885D01*
X115850263Y-28011309D01*
X115823607Y-28011309D01*
X115652767Y-27972536D01*
X115541297Y-27865913D01*
X115480715Y-27704766D01*
X115467084Y-27606926D01*
X115462540Y-27500000D01*
X115477080Y-27310985D01*
X115527969Y-27148627D01*
X115627322Y-27035945D01*
X115789681Y-26993538D01*
X115833300Y-26994750D01*
G37*
G36*
X120101527Y-26534267D02*
G01*
X120286241Y-26590300D01*
X120456474Y-26681291D01*
X120605685Y-26803745D01*
X120728139Y-26952956D01*
X120819131Y-27123190D01*
X120875163Y-27307904D01*
X120894083Y-27500000D01*
X120875163Y-27692096D01*
X120819131Y-27876810D01*
X120728139Y-28047044D01*
X120605685Y-28196255D01*
X120456474Y-28318709D01*
X120286241Y-28409700D01*
X120101527Y-28465733D01*
X119909431Y-28484653D01*
X119909229Y-28484653D01*
X119490004Y-28484653D01*
X118050586Y-28484653D01*
X116657209Y-28484653D01*
X115855109Y-28484653D01*
X115159633Y-28484653D01*
X114553817Y-28484653D01*
X114553817Y-27500000D01*
X115159633Y-27500000D01*
X115172658Y-27692952D01*
X115211733Y-27855008D01*
X115273829Y-27987985D01*
X115355917Y-28093700D01*
X115456785Y-28173364D01*
X115575222Y-28228191D01*
X115708805Y-28259996D01*
X115855109Y-28270598D01*
X116011410Y-28262116D01*
X116075413Y-28251212D01*
X116417306Y-28251212D01*
X116657209Y-28251212D01*
X116727080Y-28084949D01*
X116800990Y-27918955D01*
X116878938Y-27753231D01*
X116960925Y-27587507D01*
X117046951Y-27421513D01*
X117137015Y-27255250D01*
X117137015Y-28251212D01*
X117405998Y-28251212D01*
X117405998Y-26826333D01*
X117604705Y-26826333D01*
X117682250Y-27063813D01*
X117813106Y-27003231D01*
X117973041Y-26976575D01*
X118152363Y-27015347D01*
X118272314Y-27123183D01*
X118340166Y-27287964D01*
X118355614Y-27388833D01*
X118360763Y-27500000D01*
X118351340Y-27663570D01*
X118323068Y-27795638D01*
X118275949Y-27896204D01*
X118171143Y-27991620D01*
X118026353Y-28023425D01*
X117968195Y-28021002D01*
X117910036Y-28013732D01*
X117910036Y-27466074D01*
X117611975Y-27466074D01*
X117611975Y-28214863D01*
X117777969Y-28258481D01*
X117902464Y-28276656D01*
X118050586Y-28282714D01*
X118184168Y-28270295D01*
X118303817Y-28233037D01*
X118408320Y-28171244D01*
X118496466Y-28085218D01*
X118567347Y-27974960D01*
X118620053Y-27840468D01*
X118652767Y-27682048D01*
X118663671Y-27500000D01*
X118650949Y-27319770D01*
X118612783Y-27161955D01*
X118552807Y-27027161D01*
X118474657Y-26915994D01*
X118379544Y-26829059D01*
X118268679Y-26766963D01*
X118216689Y-26751212D01*
X118758179Y-26751212D01*
X118790590Y-26905089D01*
X118829665Y-27075929D01*
X118875101Y-27259794D01*
X118926595Y-27452746D01*
X118964156Y-27585218D01*
X119004140Y-27719305D01*
X119046547Y-27855008D01*
X119090704Y-27990038D01*
X119135938Y-28122106D01*
X119182250Y-28251212D01*
X119490004Y-28251212D01*
X119549980Y-28073102D01*
X119613591Y-27873183D01*
X119656402Y-27732768D01*
X119697597Y-27592623D01*
X119737177Y-27452746D01*
X119774603Y-27315563D01*
X119809336Y-27183495D01*
X119841377Y-27056543D01*
X119881361Y-26886914D01*
X119909229Y-26751212D01*
X119594204Y-26751212D01*
X119576030Y-26876918D01*
X119550586Y-27021405D01*
X119519992Y-27177706D01*
X119486369Y-27338853D01*
X119450020Y-27501212D01*
X119411248Y-27661147D01*
X119371567Y-27811692D01*
X119332492Y-27945880D01*
X119293720Y-27813510D01*
X119254948Y-27663570D01*
X119217387Y-27503635D01*
X119182250Y-27341276D01*
X119149536Y-27179826D01*
X119119245Y-27022617D01*
X119092589Y-26877221D01*
X119070780Y-26751212D01*
X118758179Y-26751212D01*
X118216689Y-26751212D01*
X118145699Y-26729705D01*
X118014237Y-26717286D01*
X117857936Y-26730614D01*
X117737985Y-26760905D01*
X117654382Y-26797254D01*
X117604705Y-26826333D01*
X117405998Y-26826333D01*
X117405998Y-26751212D01*
X117166095Y-26751212D01*
X117098243Y-26862379D01*
X117030392Y-26982633D01*
X116963449Y-27107128D01*
X116898324Y-27231018D01*
X116836531Y-27352787D01*
X116779584Y-27470921D01*
X116728998Y-27579968D01*
X116686288Y-27674475D01*
X116686288Y-26751212D01*
X116417306Y-26751212D01*
X116417306Y-28251212D01*
X116075413Y-28251212D01*
X116174980Y-28234249D01*
X116174980Y-26770598D01*
X115983542Y-26741519D01*
X115816337Y-26734249D01*
X115674879Y-26745153D01*
X115546143Y-26777868D01*
X115433158Y-26833905D01*
X115338954Y-26914782D01*
X115263530Y-27020800D01*
X115206886Y-27152262D01*
X115171446Y-27311288D01*
X115159633Y-27500000D01*
X114553817Y-27500000D01*
X114553817Y-26515347D01*
X115159633Y-26515347D01*
X119909229Y-26515347D01*
X119909431Y-26515347D01*
X120101527Y-26534267D01*
G37*
%TO.C,kibuzzard-670AB1E7*%
G36*
X82833300Y-29534750D02*
G01*
X82876919Y-29540808D01*
X82876919Y-30548885D01*
X82850263Y-30551309D01*
X82823607Y-30551309D01*
X82652767Y-30512536D01*
X82541297Y-30405913D01*
X82480716Y-30244766D01*
X82467085Y-30146926D01*
X82462541Y-30040000D01*
X82477081Y-29850985D01*
X82527969Y-29688627D01*
X82627323Y-29575945D01*
X82789682Y-29533538D01*
X82833300Y-29534750D01*
G37*
G36*
X85855970Y-29074267D02*
G01*
X86040684Y-29130300D01*
X86210918Y-29221291D01*
X86360129Y-29343745D01*
X86482583Y-29492956D01*
X86573574Y-29663190D01*
X86629607Y-29847904D01*
X86648527Y-30040000D01*
X86629607Y-30232096D01*
X86573574Y-30416810D01*
X86482583Y-30587044D01*
X86360129Y-30736255D01*
X86210918Y-30858709D01*
X86040684Y-30949700D01*
X85855970Y-31005733D01*
X85663874Y-31024653D01*
X85663672Y-31024653D01*
X85050586Y-31024653D01*
X83657210Y-31024653D01*
X82855110Y-31024653D01*
X82159633Y-31024653D01*
X81553817Y-31024653D01*
X81553817Y-30040000D01*
X82159633Y-30040000D01*
X82172658Y-30232952D01*
X82211733Y-30395008D01*
X82273830Y-30527985D01*
X82355918Y-30633700D01*
X82456786Y-30713364D01*
X82575223Y-30768191D01*
X82708805Y-30799996D01*
X82855110Y-30810598D01*
X83011410Y-30802116D01*
X83075413Y-30791212D01*
X83417307Y-30791212D01*
X83657210Y-30791212D01*
X83727081Y-30624949D01*
X83800990Y-30458955D01*
X83878939Y-30293231D01*
X83960926Y-30127507D01*
X84046951Y-29961513D01*
X84137016Y-29795250D01*
X84137016Y-30791212D01*
X84405998Y-30791212D01*
X84405998Y-29366333D01*
X84604706Y-29366333D01*
X84682250Y-29603813D01*
X84813107Y-29543231D01*
X84973042Y-29516575D01*
X85152363Y-29555347D01*
X85272315Y-29663183D01*
X85340166Y-29827964D01*
X85355615Y-29928833D01*
X85360764Y-30040000D01*
X85351340Y-30203570D01*
X85323069Y-30335638D01*
X85275950Y-30436204D01*
X85171144Y-30531620D01*
X85026354Y-30563425D01*
X84968195Y-30561002D01*
X84910037Y-30553732D01*
X84910037Y-30006074D01*
X84611976Y-30006074D01*
X84611976Y-30754863D01*
X84777969Y-30798481D01*
X84902464Y-30816656D01*
X85050586Y-30822714D01*
X85184169Y-30810295D01*
X85303817Y-30773037D01*
X85408321Y-30711244D01*
X85496467Y-30625218D01*
X85567347Y-30514960D01*
X85620053Y-30380468D01*
X85652767Y-30222048D01*
X85663672Y-30040000D01*
X85650950Y-29859770D01*
X85612783Y-29701955D01*
X85552808Y-29567161D01*
X85474657Y-29455994D01*
X85379544Y-29369059D01*
X85268680Y-29306963D01*
X85145699Y-29269705D01*
X85014237Y-29257286D01*
X84857937Y-29270614D01*
X84737985Y-29300905D01*
X84654383Y-29337254D01*
X84604706Y-29366333D01*
X84405998Y-29366333D01*
X84405998Y-29291212D01*
X84166095Y-29291212D01*
X84098244Y-29402379D01*
X84030393Y-29522633D01*
X83963450Y-29647128D01*
X83898325Y-29771018D01*
X83836531Y-29892787D01*
X83779585Y-30010921D01*
X83728999Y-30119968D01*
X83686289Y-30214475D01*
X83686289Y-29291212D01*
X83417307Y-29291212D01*
X83417307Y-30791212D01*
X83075413Y-30791212D01*
X83174981Y-30774249D01*
X83174981Y-29310598D01*
X82983543Y-29281519D01*
X82816338Y-29274249D01*
X82674880Y-29285153D01*
X82546144Y-29317868D01*
X82433159Y-29373905D01*
X82338955Y-29454782D01*
X82263531Y-29560800D01*
X82206887Y-29692262D01*
X82171447Y-29851288D01*
X82159633Y-30040000D01*
X81553817Y-30040000D01*
X81553817Y-29055347D01*
X82159633Y-29055347D01*
X85663672Y-29055347D01*
X85663874Y-29055347D01*
X85855970Y-29074267D01*
G37*
%TO.C,kibuzzard-670AB1F3*%
G36*
X115833300Y-49494750D02*
G01*
X115876918Y-49500808D01*
X115876918Y-50508885D01*
X115850263Y-50511309D01*
X115823607Y-50511309D01*
X115652767Y-50472536D01*
X115541297Y-50365913D01*
X115480715Y-50204766D01*
X115467084Y-50106926D01*
X115462540Y-50000000D01*
X115477080Y-49810985D01*
X115527969Y-49648627D01*
X115627322Y-49535945D01*
X115789681Y-49493538D01*
X115833300Y-49494750D01*
G37*
G36*
X120101527Y-49034267D02*
G01*
X120286241Y-49090300D01*
X120456474Y-49181291D01*
X120605685Y-49303745D01*
X120728139Y-49452956D01*
X120819131Y-49623190D01*
X120875163Y-49807904D01*
X120894083Y-50000000D01*
X120875163Y-50192096D01*
X120819131Y-50376810D01*
X120728139Y-50547044D01*
X120605685Y-50696255D01*
X120456474Y-50818709D01*
X120286241Y-50909700D01*
X120101527Y-50965733D01*
X119909431Y-50984653D01*
X119909229Y-50984653D01*
X119490004Y-50984653D01*
X118050586Y-50984653D01*
X116657209Y-50984653D01*
X115855109Y-50984653D01*
X115159633Y-50984653D01*
X114553817Y-50984653D01*
X114553817Y-50000000D01*
X115159633Y-50000000D01*
X115172658Y-50192952D01*
X115211733Y-50355008D01*
X115273829Y-50487985D01*
X115355917Y-50593700D01*
X115456785Y-50673364D01*
X115575222Y-50728191D01*
X115708805Y-50759996D01*
X115855109Y-50770598D01*
X116011410Y-50762116D01*
X116075413Y-50751212D01*
X116417306Y-50751212D01*
X116657209Y-50751212D01*
X116727080Y-50584949D01*
X116800990Y-50418955D01*
X116878938Y-50253231D01*
X116960925Y-50087507D01*
X117046951Y-49921513D01*
X117137015Y-49755250D01*
X117137015Y-50751212D01*
X117405998Y-50751212D01*
X117405998Y-49326333D01*
X117604705Y-49326333D01*
X117682250Y-49563813D01*
X117813106Y-49503231D01*
X117973041Y-49476575D01*
X118152363Y-49515347D01*
X118272314Y-49623183D01*
X118340166Y-49787964D01*
X118355614Y-49888833D01*
X118360763Y-50000000D01*
X118351340Y-50163570D01*
X118323068Y-50295638D01*
X118275949Y-50396204D01*
X118171143Y-50491620D01*
X118026353Y-50523425D01*
X117968195Y-50521002D01*
X117910036Y-50513732D01*
X117910036Y-49966074D01*
X117611975Y-49966074D01*
X117611975Y-50714863D01*
X117777969Y-50758481D01*
X117902464Y-50776656D01*
X118050586Y-50782714D01*
X118184168Y-50770295D01*
X118303817Y-50733037D01*
X118408320Y-50671244D01*
X118496466Y-50585218D01*
X118567347Y-50474960D01*
X118620053Y-50340468D01*
X118652767Y-50182048D01*
X118663671Y-50000000D01*
X118650949Y-49819770D01*
X118612783Y-49661955D01*
X118552807Y-49527161D01*
X118474657Y-49415994D01*
X118379544Y-49329059D01*
X118268679Y-49266963D01*
X118216689Y-49251212D01*
X118758179Y-49251212D01*
X118790590Y-49405089D01*
X118829665Y-49575929D01*
X118875101Y-49759794D01*
X118926595Y-49952746D01*
X118964156Y-50085218D01*
X119004140Y-50219305D01*
X119046547Y-50355008D01*
X119090704Y-50490038D01*
X119135938Y-50622106D01*
X119182250Y-50751212D01*
X119490004Y-50751212D01*
X119549980Y-50573102D01*
X119613591Y-50373183D01*
X119656402Y-50232768D01*
X119697597Y-50092623D01*
X119737177Y-49952746D01*
X119774603Y-49815563D01*
X119809336Y-49683495D01*
X119841377Y-49556543D01*
X119881361Y-49386914D01*
X119909229Y-49251212D01*
X119594204Y-49251212D01*
X119576030Y-49376918D01*
X119550586Y-49521405D01*
X119519992Y-49677706D01*
X119486369Y-49838853D01*
X119450020Y-50001212D01*
X119411248Y-50161147D01*
X119371567Y-50311692D01*
X119332492Y-50445880D01*
X119293720Y-50313510D01*
X119254948Y-50163570D01*
X119217387Y-50003635D01*
X119182250Y-49841276D01*
X119149536Y-49679826D01*
X119119245Y-49522617D01*
X119092589Y-49377221D01*
X119070780Y-49251212D01*
X118758179Y-49251212D01*
X118216689Y-49251212D01*
X118145699Y-49229705D01*
X118014237Y-49217286D01*
X117857936Y-49230614D01*
X117737985Y-49260905D01*
X117654382Y-49297254D01*
X117604705Y-49326333D01*
X117405998Y-49326333D01*
X117405998Y-49251212D01*
X117166095Y-49251212D01*
X117098243Y-49362379D01*
X117030392Y-49482633D01*
X116963449Y-49607128D01*
X116898324Y-49731018D01*
X116836531Y-49852787D01*
X116779584Y-49970921D01*
X116728998Y-50079968D01*
X116686288Y-50174475D01*
X116686288Y-49251212D01*
X116417306Y-49251212D01*
X116417306Y-50751212D01*
X116075413Y-50751212D01*
X116174980Y-50734249D01*
X116174980Y-49270598D01*
X115983542Y-49241519D01*
X115816337Y-49234249D01*
X115674879Y-49245153D01*
X115546143Y-49277868D01*
X115433158Y-49333905D01*
X115338954Y-49414782D01*
X115263530Y-49520800D01*
X115206886Y-49652262D01*
X115171446Y-49811288D01*
X115159633Y-50000000D01*
X114553817Y-50000000D01*
X114553817Y-49015347D01*
X115159633Y-49015347D01*
X119909229Y-49015347D01*
X119909431Y-49015347D01*
X120101527Y-49034267D01*
G37*
G36*
X82833300Y-49494750D02*
G01*
X82876918Y-49500808D01*
X82876918Y-50508885D01*
X82850263Y-50511309D01*
X82823607Y-50511309D01*
X82652767Y-50472536D01*
X82541297Y-50365913D01*
X82480715Y-50204766D01*
X82467084Y-50106926D01*
X82462540Y-50000000D01*
X82477080Y-49810985D01*
X82527969Y-49648627D01*
X82627322Y-49535945D01*
X82789681Y-49493538D01*
X82833300Y-49494750D01*
G37*
G36*
X87101527Y-49034267D02*
G01*
X87286241Y-49090300D01*
X87456474Y-49181291D01*
X87605685Y-49303745D01*
X87728139Y-49452956D01*
X87819131Y-49623190D01*
X87875163Y-49807904D01*
X87894083Y-50000000D01*
X87875163Y-50192096D01*
X87819131Y-50376810D01*
X87728139Y-50547044D01*
X87605685Y-50696255D01*
X87456474Y-50818709D01*
X87286241Y-50909700D01*
X87101527Y-50965733D01*
X86909431Y-50984653D01*
X86909229Y-50984653D01*
X86490004Y-50984653D01*
X85050586Y-50984653D01*
X83657209Y-50984653D01*
X82855109Y-50984653D01*
X82159633Y-50984653D01*
X81553817Y-50984653D01*
X81553817Y-50000000D01*
X82159633Y-50000000D01*
X82172658Y-50192952D01*
X82211733Y-50355008D01*
X82273829Y-50487985D01*
X82355917Y-50593700D01*
X82456785Y-50673364D01*
X82575222Y-50728191D01*
X82708805Y-50759996D01*
X82855109Y-50770598D01*
X83011410Y-50762116D01*
X83075413Y-50751212D01*
X83417306Y-50751212D01*
X83657209Y-50751212D01*
X83727080Y-50584949D01*
X83800990Y-50418955D01*
X83878938Y-50253231D01*
X83960925Y-50087507D01*
X84046951Y-49921513D01*
X84137015Y-49755250D01*
X84137015Y-50751212D01*
X84405998Y-50751212D01*
X84405998Y-49326333D01*
X84604705Y-49326333D01*
X84682250Y-49563813D01*
X84813106Y-49503231D01*
X84973041Y-49476575D01*
X85152363Y-49515347D01*
X85272314Y-49623183D01*
X85340166Y-49787964D01*
X85355614Y-49888833D01*
X85360763Y-50000000D01*
X85351340Y-50163570D01*
X85323068Y-50295638D01*
X85275949Y-50396204D01*
X85171143Y-50491620D01*
X85026353Y-50523425D01*
X84968195Y-50521002D01*
X84910036Y-50513732D01*
X84910036Y-49966074D01*
X84611975Y-49966074D01*
X84611975Y-50714863D01*
X84777969Y-50758481D01*
X84902464Y-50776656D01*
X85050586Y-50782714D01*
X85184168Y-50770295D01*
X85303817Y-50733037D01*
X85408320Y-50671244D01*
X85496466Y-50585218D01*
X85567347Y-50474960D01*
X85620053Y-50340468D01*
X85652767Y-50182048D01*
X85663671Y-50000000D01*
X85650949Y-49819770D01*
X85612783Y-49661955D01*
X85552807Y-49527161D01*
X85474657Y-49415994D01*
X85379544Y-49329059D01*
X85268679Y-49266963D01*
X85216689Y-49251212D01*
X85758179Y-49251212D01*
X85790590Y-49405089D01*
X85829665Y-49575929D01*
X85875101Y-49759794D01*
X85926595Y-49952746D01*
X85964156Y-50085218D01*
X86004140Y-50219305D01*
X86046547Y-50355008D01*
X86090704Y-50490038D01*
X86135938Y-50622106D01*
X86182250Y-50751212D01*
X86490004Y-50751212D01*
X86549980Y-50573102D01*
X86613591Y-50373183D01*
X86656402Y-50232768D01*
X86697597Y-50092623D01*
X86737177Y-49952746D01*
X86774603Y-49815563D01*
X86809336Y-49683495D01*
X86841377Y-49556543D01*
X86881361Y-49386914D01*
X86909229Y-49251212D01*
X86594204Y-49251212D01*
X86576030Y-49376918D01*
X86550586Y-49521405D01*
X86519992Y-49677706D01*
X86486369Y-49838853D01*
X86450020Y-50001212D01*
X86411248Y-50161147D01*
X86371567Y-50311692D01*
X86332492Y-50445880D01*
X86293720Y-50313510D01*
X86254948Y-50163570D01*
X86217387Y-50003635D01*
X86182250Y-49841276D01*
X86149536Y-49679826D01*
X86119245Y-49522617D01*
X86092589Y-49377221D01*
X86070780Y-49251212D01*
X85758179Y-49251212D01*
X85216689Y-49251212D01*
X85145699Y-49229705D01*
X85014237Y-49217286D01*
X84857936Y-49230614D01*
X84737985Y-49260905D01*
X84654382Y-49297254D01*
X84604705Y-49326333D01*
X84405998Y-49326333D01*
X84405998Y-49251212D01*
X84166095Y-49251212D01*
X84098243Y-49362379D01*
X84030392Y-49482633D01*
X83963449Y-49607128D01*
X83898324Y-49731018D01*
X83836531Y-49852787D01*
X83779584Y-49970921D01*
X83728998Y-50079968D01*
X83686288Y-50174475D01*
X83686288Y-49251212D01*
X83417306Y-49251212D01*
X83417306Y-50751212D01*
X83075413Y-50751212D01*
X83174980Y-50734249D01*
X83174980Y-49270598D01*
X82983542Y-49241519D01*
X82816337Y-49234249D01*
X82674879Y-49245153D01*
X82546143Y-49277868D01*
X82433158Y-49333905D01*
X82338954Y-49414782D01*
X82263530Y-49520800D01*
X82206886Y-49652262D01*
X82171446Y-49811288D01*
X82159633Y-50000000D01*
X81553817Y-50000000D01*
X81553817Y-49015347D01*
X82159633Y-49015347D01*
X86909229Y-49015347D01*
X86909431Y-49015347D01*
X87101527Y-49034267D01*
G37*
%TO.C,kibuzzard-670AB20C*%
G36*
X87070025Y-43954267D02*
G01*
X87254739Y-44010300D01*
X87424972Y-44101291D01*
X87574183Y-44223745D01*
X87696637Y-44372956D01*
X87787629Y-44543190D01*
X87843661Y-44727904D01*
X87862581Y-44920000D01*
X87843661Y-45112096D01*
X87787629Y-45296810D01*
X87696637Y-45467044D01*
X87574183Y-45616255D01*
X87424972Y-45738709D01*
X87254739Y-45829700D01*
X87070025Y-45885733D01*
X86877928Y-45904653D01*
X86877726Y-45904653D01*
X86460925Y-45904653D01*
X85157210Y-45904653D01*
X84037662Y-45904653D01*
X82891458Y-45904653D01*
X82159633Y-45904653D01*
X81553817Y-45904653D01*
X81553817Y-44171212D01*
X82159633Y-44171212D01*
X82192044Y-44325089D01*
X82231119Y-44495929D01*
X82276555Y-44679794D01*
X82328050Y-44872746D01*
X82365610Y-45005218D01*
X82405594Y-45139305D01*
X82448001Y-45275008D01*
X82492158Y-45410038D01*
X82537393Y-45542106D01*
X82583704Y-45671212D01*
X82891458Y-45671212D01*
X82951434Y-45493102D01*
X83015045Y-45293183D01*
X83035732Y-45225331D01*
X83460925Y-45225331D01*
X83494851Y-45416769D01*
X83599051Y-45568223D01*
X83679019Y-45625170D01*
X83778373Y-45667577D01*
X83897718Y-45693930D01*
X84037662Y-45702714D01*
X84155190Y-45694233D01*
X84273930Y-45673635D01*
X84379342Y-45646979D01*
X84454463Y-45620323D01*
X84421714Y-45479774D01*
X84941539Y-45479774D01*
X85006967Y-45642132D01*
X85157210Y-45697868D01*
X85239600Y-45683328D01*
X85308663Y-45640921D01*
X85357129Y-45573069D01*
X85375303Y-45479774D01*
X85357129Y-45388901D01*
X85308663Y-45322262D01*
X85239600Y-45281066D01*
X85157210Y-45266527D01*
X85006967Y-45322262D01*
X84941539Y-45479774D01*
X84421714Y-45479774D01*
X84396305Y-45370727D01*
X84252121Y-45421616D01*
X84154887Y-45441607D01*
X84040085Y-45448271D01*
X83910138Y-45431914D01*
X83825626Y-45382843D01*
X83765677Y-45225331D01*
X85884188Y-45225331D01*
X85918114Y-45416769D01*
X86022315Y-45568223D01*
X86102282Y-45625170D01*
X86201636Y-45667577D01*
X86320982Y-45693930D01*
X86460925Y-45702714D01*
X86578453Y-45694233D01*
X86697193Y-45673635D01*
X86802605Y-45646979D01*
X86877726Y-45620323D01*
X86819568Y-45370727D01*
X86675384Y-45421616D01*
X86578151Y-45441607D01*
X86463348Y-45448271D01*
X86333401Y-45431914D01*
X86248890Y-45382843D01*
X86187096Y-45220485D01*
X86210723Y-45119616D01*
X86281604Y-45054491D01*
X86388833Y-45019051D01*
X86521507Y-45007237D01*
X86613591Y-45007237D01*
X86613591Y-44760065D01*
X86502121Y-44760065D01*
X86410037Y-44750372D01*
X86327646Y-44718869D01*
X86268276Y-44660711D01*
X86245255Y-44568627D01*
X86294932Y-44438982D01*
X86431846Y-44391729D01*
X86600263Y-44419596D01*
X86744447Y-44488659D01*
X86851071Y-44270565D01*
X86677807Y-44182116D01*
X86563005Y-44148494D01*
X86434269Y-44137286D01*
X86316438Y-44145162D01*
X86214964Y-44168788D01*
X86061087Y-44257237D01*
X85971426Y-44391729D01*
X85942347Y-44558934D01*
X85993235Y-44730985D01*
X86128938Y-44856995D01*
X86025646Y-44916971D01*
X85948405Y-44999968D01*
X85900243Y-45103562D01*
X85884188Y-45225331D01*
X83765677Y-45225331D01*
X83763833Y-45220485D01*
X83787460Y-45119616D01*
X83858340Y-45054491D01*
X83965570Y-45019051D01*
X84098243Y-45007237D01*
X84190327Y-45007237D01*
X84190327Y-44760065D01*
X84078857Y-44760065D01*
X83986773Y-44750372D01*
X83904382Y-44718869D01*
X83845012Y-44660711D01*
X83821991Y-44568627D01*
X83871668Y-44438982D01*
X84008583Y-44391729D01*
X84176999Y-44419596D01*
X84321184Y-44488659D01*
X84427807Y-44270565D01*
X84254544Y-44182116D01*
X84139742Y-44148494D01*
X84011006Y-44137286D01*
X83893175Y-44145162D01*
X83791701Y-44168788D01*
X83637823Y-44257237D01*
X83548163Y-44391729D01*
X83519083Y-44558934D01*
X83569972Y-44730985D01*
X83705675Y-44856995D01*
X83602383Y-44916971D01*
X83525142Y-44999968D01*
X83476979Y-45103562D01*
X83460925Y-45225331D01*
X83035732Y-45225331D01*
X83057856Y-45152768D01*
X83099051Y-45012623D01*
X83138631Y-44872746D01*
X83176057Y-44735563D01*
X83210791Y-44603495D01*
X83242831Y-44476543D01*
X83282815Y-44306914D01*
X83310683Y-44171212D01*
X82995659Y-44171212D01*
X82977484Y-44296918D01*
X82952040Y-44441405D01*
X82921446Y-44597706D01*
X82887823Y-44758853D01*
X82851474Y-44921212D01*
X82812702Y-45081147D01*
X82773021Y-45231692D01*
X82733946Y-45365880D01*
X82695174Y-45233510D01*
X82656402Y-45083570D01*
X82618841Y-44923635D01*
X82583704Y-44761276D01*
X82550990Y-44599826D01*
X82520699Y-44442617D01*
X82494043Y-44297221D01*
X82472234Y-44171212D01*
X82159633Y-44171212D01*
X81553817Y-44171212D01*
X81553817Y-43935347D01*
X82159633Y-43935347D01*
X86877726Y-43935347D01*
X86877928Y-43935347D01*
X87070025Y-43954267D01*
G37*
%TO.C,kibuzzard-670AB201*%
G36*
X118251717Y-24477771D02*
G01*
X118323203Y-24590452D01*
X118357129Y-24756446D01*
X118363490Y-24854588D01*
X118365610Y-24960000D01*
X118363490Y-25065715D01*
X118357129Y-25164766D01*
X118323203Y-25330759D01*
X118251717Y-25442229D01*
X118128131Y-25483425D01*
X118005756Y-25442229D01*
X117933058Y-25329548D01*
X117899132Y-25163554D01*
X117892771Y-25065412D01*
X117890651Y-24960000D01*
X117892771Y-24854285D01*
X117899132Y-24755234D01*
X117933058Y-24589241D01*
X118004544Y-24477771D01*
X118128131Y-24436575D01*
X118251717Y-24477771D01*
G37*
G36*
X118860816Y-23994267D02*
G01*
X119045530Y-24050300D01*
X119215764Y-24141291D01*
X119364975Y-24263745D01*
X119487429Y-24412956D01*
X119578421Y-24583190D01*
X119634453Y-24767904D01*
X119653373Y-24960000D01*
X119634453Y-25152096D01*
X119578421Y-25336810D01*
X119487429Y-25507044D01*
X119364975Y-25656255D01*
X119215764Y-25778709D01*
X119045530Y-25869700D01*
X118860816Y-25925733D01*
X118668720Y-25944653D01*
X118668518Y-25944653D01*
X118125707Y-25944653D01*
X116921345Y-25944653D01*
X115554625Y-25944653D01*
X115159633Y-25944653D01*
X114553817Y-25944653D01*
X114553817Y-24458384D01*
X115159633Y-24458384D01*
X115554625Y-24458384D01*
X115554625Y-25711212D01*
X115855110Y-25711212D01*
X115855110Y-25168401D01*
X116405190Y-25168401D01*
X116411248Y-25293199D01*
X116429423Y-25405880D01*
X116462743Y-25504628D01*
X116514237Y-25587625D01*
X116584512Y-25653962D01*
X116674173Y-25702730D01*
X116785643Y-25732718D01*
X116921345Y-25742714D01*
X117054928Y-25732718D01*
X117164883Y-25702730D01*
X117321184Y-25587625D01*
X117370861Y-25504628D01*
X117403575Y-25405880D01*
X117421749Y-25293199D01*
X117427807Y-25168401D01*
X117427807Y-24960000D01*
X117587743Y-24960000D01*
X117596527Y-25141972D01*
X117622880Y-25300166D01*
X117666802Y-25434581D01*
X117728292Y-25545218D01*
X117834916Y-25654938D01*
X117967387Y-25720770D01*
X118125707Y-25742714D01*
X118287931Y-25720770D01*
X118422422Y-25654938D01*
X118529181Y-25545218D01*
X118590141Y-25434581D01*
X118633684Y-25300166D01*
X118659810Y-25141972D01*
X118668518Y-24960000D01*
X118659582Y-24778028D01*
X118632775Y-24619834D01*
X118588096Y-24485419D01*
X118525546Y-24374782D01*
X118417845Y-24265062D01*
X118285373Y-24199230D01*
X118128131Y-24177286D01*
X117966041Y-24199230D01*
X117831954Y-24265062D01*
X117725869Y-24374782D01*
X117665439Y-24485419D01*
X117622274Y-24619834D01*
X117596376Y-24778028D01*
X117587743Y-24960000D01*
X117427807Y-24960000D01*
X117427807Y-24211212D01*
X117127323Y-24211212D01*
X117127323Y-25149015D01*
X117117630Y-25307738D01*
X117084916Y-25410727D01*
X117020699Y-25466462D01*
X116916499Y-25483425D01*
X116812299Y-25466462D01*
X116746870Y-25409515D01*
X116712945Y-25305315D01*
X116703252Y-25146591D01*
X116703252Y-24211212D01*
X116405190Y-24211212D01*
X116405190Y-25168401D01*
X115855110Y-25168401D01*
X115855110Y-24458384D01*
X116250101Y-24458384D01*
X116250101Y-24211212D01*
X115159633Y-24211212D01*
X115159633Y-24458384D01*
X114553817Y-24458384D01*
X114553817Y-23975347D01*
X115159633Y-23975347D01*
X118668518Y-23975347D01*
X118668720Y-23975347D01*
X118860816Y-23994267D01*
G37*
%TO.C,kibuzzard-670AB1E7*%
G36*
X115833300Y-52034750D02*
G01*
X115876919Y-52040808D01*
X115876919Y-53048885D01*
X115850263Y-53051309D01*
X115823607Y-53051309D01*
X115652767Y-53012536D01*
X115541297Y-52905913D01*
X115480716Y-52744766D01*
X115467085Y-52646926D01*
X115462541Y-52540000D01*
X115477081Y-52350985D01*
X115527969Y-52188627D01*
X115627323Y-52075945D01*
X115789682Y-52033538D01*
X115833300Y-52034750D01*
G37*
G36*
X118855970Y-51574267D02*
G01*
X119040684Y-51630300D01*
X119210918Y-51721291D01*
X119360129Y-51843745D01*
X119482583Y-51992956D01*
X119573574Y-52163190D01*
X119629607Y-52347904D01*
X119648527Y-52540000D01*
X119629607Y-52732096D01*
X119573574Y-52916810D01*
X119482583Y-53087044D01*
X119360129Y-53236255D01*
X119210918Y-53358709D01*
X119040684Y-53449700D01*
X118855970Y-53505733D01*
X118663874Y-53524653D01*
X118663672Y-53524653D01*
X118050586Y-53524653D01*
X116657210Y-53524653D01*
X115855110Y-53524653D01*
X115159633Y-53524653D01*
X114553817Y-53524653D01*
X114553817Y-52540000D01*
X115159633Y-52540000D01*
X115172658Y-52732952D01*
X115211733Y-52895008D01*
X115273830Y-53027985D01*
X115355918Y-53133700D01*
X115456786Y-53213364D01*
X115575223Y-53268191D01*
X115708805Y-53299996D01*
X115855110Y-53310598D01*
X116011410Y-53302116D01*
X116075413Y-53291212D01*
X116417307Y-53291212D01*
X116657210Y-53291212D01*
X116727081Y-53124949D01*
X116800990Y-52958955D01*
X116878939Y-52793231D01*
X116960926Y-52627507D01*
X117046951Y-52461513D01*
X117137016Y-52295250D01*
X117137016Y-53291212D01*
X117405998Y-53291212D01*
X117405998Y-51866333D01*
X117604706Y-51866333D01*
X117682250Y-52103813D01*
X117813107Y-52043231D01*
X117973042Y-52016575D01*
X118152363Y-52055347D01*
X118272315Y-52163183D01*
X118340166Y-52327964D01*
X118355615Y-52428833D01*
X118360764Y-52540000D01*
X118351340Y-52703570D01*
X118323069Y-52835638D01*
X118275950Y-52936204D01*
X118171144Y-53031620D01*
X118026354Y-53063425D01*
X117968195Y-53061002D01*
X117910037Y-53053732D01*
X117910037Y-52506074D01*
X117611976Y-52506074D01*
X117611976Y-53254863D01*
X117777969Y-53298481D01*
X117902464Y-53316656D01*
X118050586Y-53322714D01*
X118184169Y-53310295D01*
X118303817Y-53273037D01*
X118408321Y-53211244D01*
X118496467Y-53125218D01*
X118567347Y-53014960D01*
X118620053Y-52880468D01*
X118652767Y-52722048D01*
X118663672Y-52540000D01*
X118650950Y-52359770D01*
X118612783Y-52201955D01*
X118552808Y-52067161D01*
X118474657Y-51955994D01*
X118379544Y-51869059D01*
X118268680Y-51806963D01*
X118145699Y-51769705D01*
X118014237Y-51757286D01*
X117857937Y-51770614D01*
X117737985Y-51800905D01*
X117654383Y-51837254D01*
X117604706Y-51866333D01*
X117405998Y-51866333D01*
X117405998Y-51791212D01*
X117166095Y-51791212D01*
X117098244Y-51902379D01*
X117030393Y-52022633D01*
X116963450Y-52147128D01*
X116898325Y-52271018D01*
X116836531Y-52392787D01*
X116779585Y-52510921D01*
X116728999Y-52619968D01*
X116686289Y-52714475D01*
X116686289Y-51791212D01*
X116417307Y-51791212D01*
X116417307Y-53291212D01*
X116075413Y-53291212D01*
X116174981Y-53274249D01*
X116174981Y-51810598D01*
X115983543Y-51781519D01*
X115816338Y-51774249D01*
X115674880Y-51785153D01*
X115546144Y-51817868D01*
X115433159Y-51873905D01*
X115338955Y-51954782D01*
X115263531Y-52060800D01*
X115206887Y-52192262D01*
X115171447Y-52351288D01*
X115159633Y-52540000D01*
X114553817Y-52540000D01*
X114553817Y-51555347D01*
X115159633Y-51555347D01*
X118663672Y-51555347D01*
X118663874Y-51555347D01*
X118855970Y-51574267D01*
G37*
%TO.C,kibuzzard-670AB20C*%
G36*
X120070025Y-21454267D02*
G01*
X120254739Y-21510300D01*
X120424972Y-21601291D01*
X120574183Y-21723745D01*
X120696637Y-21872956D01*
X120787629Y-22043190D01*
X120843661Y-22227904D01*
X120862581Y-22420000D01*
X120843661Y-22612096D01*
X120787629Y-22796810D01*
X120696637Y-22967044D01*
X120574183Y-23116255D01*
X120424972Y-23238709D01*
X120254739Y-23329700D01*
X120070025Y-23385733D01*
X119877928Y-23404653D01*
X119877726Y-23404653D01*
X119460925Y-23404653D01*
X118157210Y-23404653D01*
X117037662Y-23404653D01*
X115891458Y-23404653D01*
X115159633Y-23404653D01*
X114553817Y-23404653D01*
X114553817Y-21671212D01*
X115159633Y-21671212D01*
X115192044Y-21825089D01*
X115231119Y-21995929D01*
X115276555Y-22179794D01*
X115328050Y-22372746D01*
X115365610Y-22505218D01*
X115405594Y-22639305D01*
X115448001Y-22775008D01*
X115492158Y-22910038D01*
X115537393Y-23042106D01*
X115583704Y-23171212D01*
X115891458Y-23171212D01*
X115951434Y-22993102D01*
X116015045Y-22793183D01*
X116035732Y-22725331D01*
X116460925Y-22725331D01*
X116494851Y-22916769D01*
X116599051Y-23068223D01*
X116679019Y-23125170D01*
X116778373Y-23167577D01*
X116897718Y-23193930D01*
X117037662Y-23202714D01*
X117155190Y-23194233D01*
X117273930Y-23173635D01*
X117379342Y-23146979D01*
X117454463Y-23120323D01*
X117421714Y-22979774D01*
X117941539Y-22979774D01*
X118006967Y-23142132D01*
X118157210Y-23197868D01*
X118239600Y-23183328D01*
X118308663Y-23140921D01*
X118357129Y-23073069D01*
X118375303Y-22979774D01*
X118357129Y-22888901D01*
X118308663Y-22822262D01*
X118239600Y-22781066D01*
X118157210Y-22766527D01*
X118006967Y-22822262D01*
X117941539Y-22979774D01*
X117421714Y-22979774D01*
X117396305Y-22870727D01*
X117252121Y-22921616D01*
X117154887Y-22941607D01*
X117040085Y-22948271D01*
X116910138Y-22931914D01*
X116825626Y-22882843D01*
X116765677Y-22725331D01*
X118884188Y-22725331D01*
X118918114Y-22916769D01*
X119022315Y-23068223D01*
X119102282Y-23125170D01*
X119201636Y-23167577D01*
X119320982Y-23193930D01*
X119460925Y-23202714D01*
X119578453Y-23194233D01*
X119697193Y-23173635D01*
X119802605Y-23146979D01*
X119877726Y-23120323D01*
X119819568Y-22870727D01*
X119675384Y-22921616D01*
X119578151Y-22941607D01*
X119463348Y-22948271D01*
X119333401Y-22931914D01*
X119248890Y-22882843D01*
X119187096Y-22720485D01*
X119210723Y-22619616D01*
X119281604Y-22554491D01*
X119388833Y-22519051D01*
X119521507Y-22507237D01*
X119613591Y-22507237D01*
X119613591Y-22260065D01*
X119502121Y-22260065D01*
X119410037Y-22250372D01*
X119327646Y-22218869D01*
X119268276Y-22160711D01*
X119245255Y-22068627D01*
X119294932Y-21938982D01*
X119431846Y-21891729D01*
X119600263Y-21919596D01*
X119744447Y-21988659D01*
X119851071Y-21770565D01*
X119677807Y-21682116D01*
X119563005Y-21648494D01*
X119434269Y-21637286D01*
X119316438Y-21645162D01*
X119214964Y-21668788D01*
X119061087Y-21757237D01*
X118971426Y-21891729D01*
X118942347Y-22058934D01*
X118993235Y-22230985D01*
X119128938Y-22356995D01*
X119025646Y-22416971D01*
X118948405Y-22499968D01*
X118900243Y-22603562D01*
X118884188Y-22725331D01*
X116765677Y-22725331D01*
X116763833Y-22720485D01*
X116787460Y-22619616D01*
X116858340Y-22554491D01*
X116965570Y-22519051D01*
X117098243Y-22507237D01*
X117190327Y-22507237D01*
X117190327Y-22260065D01*
X117078857Y-22260065D01*
X116986773Y-22250372D01*
X116904382Y-22218869D01*
X116845012Y-22160711D01*
X116821991Y-22068627D01*
X116871668Y-21938982D01*
X117008583Y-21891729D01*
X117176999Y-21919596D01*
X117321184Y-21988659D01*
X117427807Y-21770565D01*
X117254544Y-21682116D01*
X117139742Y-21648494D01*
X117011006Y-21637286D01*
X116893175Y-21645162D01*
X116791701Y-21668788D01*
X116637823Y-21757237D01*
X116548163Y-21891729D01*
X116519083Y-22058934D01*
X116569972Y-22230985D01*
X116705675Y-22356995D01*
X116602383Y-22416971D01*
X116525142Y-22499968D01*
X116476979Y-22603562D01*
X116460925Y-22725331D01*
X116035732Y-22725331D01*
X116057856Y-22652768D01*
X116099051Y-22512623D01*
X116138631Y-22372746D01*
X116176057Y-22235563D01*
X116210791Y-22103495D01*
X116242831Y-21976543D01*
X116282815Y-21806914D01*
X116310683Y-21671212D01*
X115995659Y-21671212D01*
X115977484Y-21796918D01*
X115952040Y-21941405D01*
X115921446Y-22097706D01*
X115887823Y-22258853D01*
X115851474Y-22421212D01*
X115812702Y-22581147D01*
X115773021Y-22731692D01*
X115733946Y-22865880D01*
X115695174Y-22733510D01*
X115656402Y-22583570D01*
X115618841Y-22423635D01*
X115583704Y-22261276D01*
X115550990Y-22099826D01*
X115520699Y-21942617D01*
X115494043Y-21797221D01*
X115472234Y-21671212D01*
X115159633Y-21671212D01*
X114553817Y-21671212D01*
X114553817Y-21435347D01*
X115159633Y-21435347D01*
X119877726Y-21435347D01*
X119877928Y-21435347D01*
X120070025Y-21454267D01*
G37*
%TO.C,kibuzzard-670AB1F3*%
G36*
X82833300Y-26994750D02*
G01*
X82876918Y-27000808D01*
X82876918Y-28008885D01*
X82850263Y-28011309D01*
X82823607Y-28011309D01*
X82652767Y-27972536D01*
X82541297Y-27865913D01*
X82480715Y-27704766D01*
X82467084Y-27606926D01*
X82462540Y-27500000D01*
X82477080Y-27310985D01*
X82527969Y-27148627D01*
X82627322Y-27035945D01*
X82789681Y-26993538D01*
X82833300Y-26994750D01*
G37*
G36*
X87101527Y-26534267D02*
G01*
X87286241Y-26590300D01*
X87456474Y-26681291D01*
X87605685Y-26803745D01*
X87728139Y-26952956D01*
X87819131Y-27123190D01*
X87875163Y-27307904D01*
X87894083Y-27500000D01*
X87875163Y-27692096D01*
X87819131Y-27876810D01*
X87728139Y-28047044D01*
X87605685Y-28196255D01*
X87456474Y-28318709D01*
X87286241Y-28409700D01*
X87101527Y-28465733D01*
X86909431Y-28484653D01*
X86909229Y-28484653D01*
X86490004Y-28484653D01*
X85050586Y-28484653D01*
X83657209Y-28484653D01*
X82855109Y-28484653D01*
X82159633Y-28484653D01*
X81553817Y-28484653D01*
X81553817Y-27500000D01*
X82159633Y-27500000D01*
X82172658Y-27692952D01*
X82211733Y-27855008D01*
X82273829Y-27987985D01*
X82355917Y-28093700D01*
X82456785Y-28173364D01*
X82575222Y-28228191D01*
X82708805Y-28259996D01*
X82855109Y-28270598D01*
X83011410Y-28262116D01*
X83075413Y-28251212D01*
X83417306Y-28251212D01*
X83657209Y-28251212D01*
X83727080Y-28084949D01*
X83800990Y-27918955D01*
X83878938Y-27753231D01*
X83960925Y-27587507D01*
X84046951Y-27421513D01*
X84137015Y-27255250D01*
X84137015Y-28251212D01*
X84405998Y-28251212D01*
X84405998Y-26826333D01*
X84604705Y-26826333D01*
X84682250Y-27063813D01*
X84813106Y-27003231D01*
X84973041Y-26976575D01*
X85152363Y-27015347D01*
X85272314Y-27123183D01*
X85340166Y-27287964D01*
X85355614Y-27388833D01*
X85360763Y-27500000D01*
X85351340Y-27663570D01*
X85323068Y-27795638D01*
X85275949Y-27896204D01*
X85171143Y-27991620D01*
X85026353Y-28023425D01*
X84968195Y-28021002D01*
X84910036Y-28013732D01*
X84910036Y-27466074D01*
X84611975Y-27466074D01*
X84611975Y-28214863D01*
X84777969Y-28258481D01*
X84902464Y-28276656D01*
X85050586Y-28282714D01*
X85184168Y-28270295D01*
X85303817Y-28233037D01*
X85408320Y-28171244D01*
X85496466Y-28085218D01*
X85567347Y-27974960D01*
X85620053Y-27840468D01*
X85652767Y-27682048D01*
X85663671Y-27500000D01*
X85650949Y-27319770D01*
X85612783Y-27161955D01*
X85552807Y-27027161D01*
X85474657Y-26915994D01*
X85379544Y-26829059D01*
X85268679Y-26766963D01*
X85216689Y-26751212D01*
X85758179Y-26751212D01*
X85790590Y-26905089D01*
X85829665Y-27075929D01*
X85875101Y-27259794D01*
X85926595Y-27452746D01*
X85964156Y-27585218D01*
X86004140Y-27719305D01*
X86046547Y-27855008D01*
X86090704Y-27990038D01*
X86135938Y-28122106D01*
X86182250Y-28251212D01*
X86490004Y-28251212D01*
X86549980Y-28073102D01*
X86613591Y-27873183D01*
X86656402Y-27732768D01*
X86697597Y-27592623D01*
X86737177Y-27452746D01*
X86774603Y-27315563D01*
X86809336Y-27183495D01*
X86841377Y-27056543D01*
X86881361Y-26886914D01*
X86909229Y-26751212D01*
X86594204Y-26751212D01*
X86576030Y-26876918D01*
X86550586Y-27021405D01*
X86519992Y-27177706D01*
X86486369Y-27338853D01*
X86450020Y-27501212D01*
X86411248Y-27661147D01*
X86371567Y-27811692D01*
X86332492Y-27945880D01*
X86293720Y-27813510D01*
X86254948Y-27663570D01*
X86217387Y-27503635D01*
X86182250Y-27341276D01*
X86149536Y-27179826D01*
X86119245Y-27022617D01*
X86092589Y-26877221D01*
X86070780Y-26751212D01*
X85758179Y-26751212D01*
X85216689Y-26751212D01*
X85145699Y-26729705D01*
X85014237Y-26717286D01*
X84857936Y-26730614D01*
X84737985Y-26760905D01*
X84654382Y-26797254D01*
X84604705Y-26826333D01*
X84405998Y-26826333D01*
X84405998Y-26751212D01*
X84166095Y-26751212D01*
X84098243Y-26862379D01*
X84030392Y-26982633D01*
X83963449Y-27107128D01*
X83898324Y-27231018D01*
X83836531Y-27352787D01*
X83779584Y-27470921D01*
X83728998Y-27579968D01*
X83686288Y-27674475D01*
X83686288Y-26751212D01*
X83417306Y-26751212D01*
X83417306Y-28251212D01*
X83075413Y-28251212D01*
X83174980Y-28234249D01*
X83174980Y-26770598D01*
X82983542Y-26741519D01*
X82816337Y-26734249D01*
X82674879Y-26745153D01*
X82546143Y-26777868D01*
X82433158Y-26833905D01*
X82338954Y-26914782D01*
X82263530Y-27020800D01*
X82206886Y-27152262D01*
X82171446Y-27311288D01*
X82159633Y-27500000D01*
X81553817Y-27500000D01*
X81553817Y-26515347D01*
X82159633Y-26515347D01*
X86909229Y-26515347D01*
X86909431Y-26515347D01*
X87101527Y-26534267D01*
G37*
%TO.C,kibuzzard-670AB1E7*%
G36*
X82833300Y-52034750D02*
G01*
X82876919Y-52040808D01*
X82876919Y-53048885D01*
X82850263Y-53051309D01*
X82823607Y-53051309D01*
X82652767Y-53012536D01*
X82541297Y-52905913D01*
X82480716Y-52744766D01*
X82467085Y-52646926D01*
X82462541Y-52540000D01*
X82477081Y-52350985D01*
X82527969Y-52188627D01*
X82627323Y-52075945D01*
X82789682Y-52033538D01*
X82833300Y-52034750D01*
G37*
G36*
X85855970Y-51574267D02*
G01*
X86040684Y-51630300D01*
X86210918Y-51721291D01*
X86360129Y-51843745D01*
X86482583Y-51992956D01*
X86573574Y-52163190D01*
X86629607Y-52347904D01*
X86648527Y-52540000D01*
X86629607Y-52732096D01*
X86573574Y-52916810D01*
X86482583Y-53087044D01*
X86360129Y-53236255D01*
X86210918Y-53358709D01*
X86040684Y-53449700D01*
X85855970Y-53505733D01*
X85663874Y-53524653D01*
X85663672Y-53524653D01*
X85050586Y-53524653D01*
X83657210Y-53524653D01*
X82855110Y-53524653D01*
X82159633Y-53524653D01*
X81553817Y-53524653D01*
X81553817Y-52540000D01*
X82159633Y-52540000D01*
X82172658Y-52732952D01*
X82211733Y-52895008D01*
X82273830Y-53027985D01*
X82355918Y-53133700D01*
X82456786Y-53213364D01*
X82575223Y-53268191D01*
X82708805Y-53299996D01*
X82855110Y-53310598D01*
X83011410Y-53302116D01*
X83075413Y-53291212D01*
X83417307Y-53291212D01*
X83657210Y-53291212D01*
X83727081Y-53124949D01*
X83800990Y-52958955D01*
X83878939Y-52793231D01*
X83960926Y-52627507D01*
X84046951Y-52461513D01*
X84137016Y-52295250D01*
X84137016Y-53291212D01*
X84405998Y-53291212D01*
X84405998Y-51866333D01*
X84604706Y-51866333D01*
X84682250Y-52103813D01*
X84813107Y-52043231D01*
X84973042Y-52016575D01*
X85152363Y-52055347D01*
X85272315Y-52163183D01*
X85340166Y-52327964D01*
X85355615Y-52428833D01*
X85360764Y-52540000D01*
X85351340Y-52703570D01*
X85323069Y-52835638D01*
X85275950Y-52936204D01*
X85171144Y-53031620D01*
X85026354Y-53063425D01*
X84968195Y-53061002D01*
X84910037Y-53053732D01*
X84910037Y-52506074D01*
X84611976Y-52506074D01*
X84611976Y-53254863D01*
X84777969Y-53298481D01*
X84902464Y-53316656D01*
X85050586Y-53322714D01*
X85184169Y-53310295D01*
X85303817Y-53273037D01*
X85408321Y-53211244D01*
X85496467Y-53125218D01*
X85567347Y-53014960D01*
X85620053Y-52880468D01*
X85652767Y-52722048D01*
X85663672Y-52540000D01*
X85650950Y-52359770D01*
X85612783Y-52201955D01*
X85552808Y-52067161D01*
X85474657Y-51955994D01*
X85379544Y-51869059D01*
X85268680Y-51806963D01*
X85145699Y-51769705D01*
X85014237Y-51757286D01*
X84857937Y-51770614D01*
X84737985Y-51800905D01*
X84654383Y-51837254D01*
X84604706Y-51866333D01*
X84405998Y-51866333D01*
X84405998Y-51791212D01*
X84166095Y-51791212D01*
X84098244Y-51902379D01*
X84030393Y-52022633D01*
X83963450Y-52147128D01*
X83898325Y-52271018D01*
X83836531Y-52392787D01*
X83779585Y-52510921D01*
X83728999Y-52619968D01*
X83686289Y-52714475D01*
X83686289Y-51791212D01*
X83417307Y-51791212D01*
X83417307Y-53291212D01*
X83075413Y-53291212D01*
X83174981Y-53274249D01*
X83174981Y-51810598D01*
X82983543Y-51781519D01*
X82816338Y-51774249D01*
X82674880Y-51785153D01*
X82546144Y-51817868D01*
X82433159Y-51873905D01*
X82338955Y-51954782D01*
X82263531Y-52060800D01*
X82206887Y-52192262D01*
X82171447Y-52351288D01*
X82159633Y-52540000D01*
X81553817Y-52540000D01*
X81553817Y-51555347D01*
X82159633Y-51555347D01*
X85663672Y-51555347D01*
X85663874Y-51555347D01*
X85855970Y-51574267D01*
G37*
%TO.C,kibuzzard-670AB20C*%
G36*
X87070025Y-21454267D02*
G01*
X87254739Y-21510300D01*
X87424972Y-21601291D01*
X87574183Y-21723745D01*
X87696637Y-21872956D01*
X87787629Y-22043190D01*
X87843661Y-22227904D01*
X87862581Y-22420000D01*
X87843661Y-22612096D01*
X87787629Y-22796810D01*
X87696637Y-22967044D01*
X87574183Y-23116255D01*
X87424972Y-23238709D01*
X87254739Y-23329700D01*
X87070025Y-23385733D01*
X86877928Y-23404653D01*
X86877726Y-23404653D01*
X86460925Y-23404653D01*
X85157210Y-23404653D01*
X84037662Y-23404653D01*
X82891458Y-23404653D01*
X82159633Y-23404653D01*
X81553817Y-23404653D01*
X81553817Y-21671212D01*
X82159633Y-21671212D01*
X82192044Y-21825089D01*
X82231119Y-21995929D01*
X82276555Y-22179794D01*
X82328050Y-22372746D01*
X82365610Y-22505218D01*
X82405594Y-22639305D01*
X82448001Y-22775008D01*
X82492158Y-22910038D01*
X82537393Y-23042106D01*
X82583704Y-23171212D01*
X82891458Y-23171212D01*
X82951434Y-22993102D01*
X83015045Y-22793183D01*
X83035732Y-22725331D01*
X83460925Y-22725331D01*
X83494851Y-22916769D01*
X83599051Y-23068223D01*
X83679019Y-23125170D01*
X83778373Y-23167577D01*
X83897718Y-23193930D01*
X84037662Y-23202714D01*
X84155190Y-23194233D01*
X84273930Y-23173635D01*
X84379342Y-23146979D01*
X84454463Y-23120323D01*
X84421714Y-22979774D01*
X84941539Y-22979774D01*
X85006967Y-23142132D01*
X85157210Y-23197868D01*
X85239600Y-23183328D01*
X85308663Y-23140921D01*
X85357129Y-23073069D01*
X85375303Y-22979774D01*
X85357129Y-22888901D01*
X85308663Y-22822262D01*
X85239600Y-22781066D01*
X85157210Y-22766527D01*
X85006967Y-22822262D01*
X84941539Y-22979774D01*
X84421714Y-22979774D01*
X84396305Y-22870727D01*
X84252121Y-22921616D01*
X84154887Y-22941607D01*
X84040085Y-22948271D01*
X83910138Y-22931914D01*
X83825626Y-22882843D01*
X83765677Y-22725331D01*
X85884188Y-22725331D01*
X85918114Y-22916769D01*
X86022315Y-23068223D01*
X86102282Y-23125170D01*
X86201636Y-23167577D01*
X86320982Y-23193930D01*
X86460925Y-23202714D01*
X86578453Y-23194233D01*
X86697193Y-23173635D01*
X86802605Y-23146979D01*
X86877726Y-23120323D01*
X86819568Y-22870727D01*
X86675384Y-22921616D01*
X86578151Y-22941607D01*
X86463348Y-22948271D01*
X86333401Y-22931914D01*
X86248890Y-22882843D01*
X86187096Y-22720485D01*
X86210723Y-22619616D01*
X86281604Y-22554491D01*
X86388833Y-22519051D01*
X86521507Y-22507237D01*
X86613591Y-22507237D01*
X86613591Y-22260065D01*
X86502121Y-22260065D01*
X86410037Y-22250372D01*
X86327646Y-22218869D01*
X86268276Y-22160711D01*
X86245255Y-22068627D01*
X86294932Y-21938982D01*
X86431846Y-21891729D01*
X86600263Y-21919596D01*
X86744447Y-21988659D01*
X86851071Y-21770565D01*
X86677807Y-21682116D01*
X86563005Y-21648494D01*
X86434269Y-21637286D01*
X86316438Y-21645162D01*
X86214964Y-21668788D01*
X86061087Y-21757237D01*
X85971426Y-21891729D01*
X85942347Y-22058934D01*
X85993235Y-22230985D01*
X86128938Y-22356995D01*
X86025646Y-22416971D01*
X85948405Y-22499968D01*
X85900243Y-22603562D01*
X85884188Y-22725331D01*
X83765677Y-22725331D01*
X83763833Y-22720485D01*
X83787460Y-22619616D01*
X83858340Y-22554491D01*
X83965570Y-22519051D01*
X84098243Y-22507237D01*
X84190327Y-22507237D01*
X84190327Y-22260065D01*
X84078857Y-22260065D01*
X83986773Y-22250372D01*
X83904382Y-22218869D01*
X83845012Y-22160711D01*
X83821991Y-22068627D01*
X83871668Y-21938982D01*
X84008583Y-21891729D01*
X84176999Y-21919596D01*
X84321184Y-21988659D01*
X84427807Y-21770565D01*
X84254544Y-21682116D01*
X84139742Y-21648494D01*
X84011006Y-21637286D01*
X83893175Y-21645162D01*
X83791701Y-21668788D01*
X83637823Y-21757237D01*
X83548163Y-21891729D01*
X83519083Y-22058934D01*
X83569972Y-22230985D01*
X83705675Y-22356995D01*
X83602383Y-22416971D01*
X83525142Y-22499968D01*
X83476979Y-22603562D01*
X83460925Y-22725331D01*
X83035732Y-22725331D01*
X83057856Y-22652768D01*
X83099051Y-22512623D01*
X83138631Y-22372746D01*
X83176057Y-22235563D01*
X83210791Y-22103495D01*
X83242831Y-21976543D01*
X83282815Y-21806914D01*
X83310683Y-21671212D01*
X82995659Y-21671212D01*
X82977484Y-21796918D01*
X82952040Y-21941405D01*
X82921446Y-22097706D01*
X82887823Y-22258853D01*
X82851474Y-22421212D01*
X82812702Y-22581147D01*
X82773021Y-22731692D01*
X82733946Y-22865880D01*
X82695174Y-22733510D01*
X82656402Y-22583570D01*
X82618841Y-22423635D01*
X82583704Y-22261276D01*
X82550990Y-22099826D01*
X82520699Y-21942617D01*
X82494043Y-21797221D01*
X82472234Y-21671212D01*
X82159633Y-21671212D01*
X81553817Y-21671212D01*
X81553817Y-21435347D01*
X82159633Y-21435347D01*
X86877726Y-21435347D01*
X86877928Y-21435347D01*
X87070025Y-21454267D01*
G37*
%TO.C,kibuzzard-670AB201*%
G36*
X85251717Y-24477771D02*
G01*
X85323203Y-24590452D01*
X85357129Y-24756446D01*
X85363490Y-24854588D01*
X85365610Y-24960000D01*
X85363490Y-25065715D01*
X85357129Y-25164766D01*
X85323203Y-25330759D01*
X85251717Y-25442229D01*
X85128131Y-25483425D01*
X85005756Y-25442229D01*
X84933058Y-25329548D01*
X84899132Y-25163554D01*
X84892771Y-25065412D01*
X84890651Y-24960000D01*
X84892771Y-24854285D01*
X84899132Y-24755234D01*
X84933058Y-24589241D01*
X85004544Y-24477771D01*
X85128131Y-24436575D01*
X85251717Y-24477771D01*
G37*
G36*
X85860816Y-23994267D02*
G01*
X86045530Y-24050300D01*
X86215764Y-24141291D01*
X86364975Y-24263745D01*
X86487429Y-24412956D01*
X86578421Y-24583190D01*
X86634453Y-24767904D01*
X86653373Y-24960000D01*
X86634453Y-25152096D01*
X86578421Y-25336810D01*
X86487429Y-25507044D01*
X86364975Y-25656255D01*
X86215764Y-25778709D01*
X86045530Y-25869700D01*
X85860816Y-25925733D01*
X85668720Y-25944653D01*
X85668518Y-25944653D01*
X85125707Y-25944653D01*
X83921345Y-25944653D01*
X82554625Y-25944653D01*
X82159633Y-25944653D01*
X81553817Y-25944653D01*
X81553817Y-24458384D01*
X82159633Y-24458384D01*
X82554625Y-24458384D01*
X82554625Y-25711212D01*
X82855110Y-25711212D01*
X82855110Y-25168401D01*
X83405190Y-25168401D01*
X83411248Y-25293199D01*
X83429423Y-25405880D01*
X83462743Y-25504628D01*
X83514237Y-25587625D01*
X83584512Y-25653962D01*
X83674173Y-25702730D01*
X83785643Y-25732718D01*
X83921345Y-25742714D01*
X84054928Y-25732718D01*
X84164883Y-25702730D01*
X84321184Y-25587625D01*
X84370861Y-25504628D01*
X84403575Y-25405880D01*
X84421749Y-25293199D01*
X84427807Y-25168401D01*
X84427807Y-24960000D01*
X84587743Y-24960000D01*
X84596527Y-25141972D01*
X84622880Y-25300166D01*
X84666802Y-25434581D01*
X84728292Y-25545218D01*
X84834916Y-25654938D01*
X84967387Y-25720770D01*
X85125707Y-25742714D01*
X85287931Y-25720770D01*
X85422422Y-25654938D01*
X85529181Y-25545218D01*
X85590141Y-25434581D01*
X85633684Y-25300166D01*
X85659810Y-25141972D01*
X85668518Y-24960000D01*
X85659582Y-24778028D01*
X85632775Y-24619834D01*
X85588096Y-24485419D01*
X85525546Y-24374782D01*
X85417845Y-24265062D01*
X85285373Y-24199230D01*
X85128131Y-24177286D01*
X84966041Y-24199230D01*
X84831954Y-24265062D01*
X84725869Y-24374782D01*
X84665439Y-24485419D01*
X84622274Y-24619834D01*
X84596376Y-24778028D01*
X84587743Y-24960000D01*
X84427807Y-24960000D01*
X84427807Y-24211212D01*
X84127323Y-24211212D01*
X84127323Y-25149015D01*
X84117630Y-25307738D01*
X84084916Y-25410727D01*
X84020699Y-25466462D01*
X83916499Y-25483425D01*
X83812299Y-25466462D01*
X83746870Y-25409515D01*
X83712945Y-25305315D01*
X83703252Y-25146591D01*
X83703252Y-24211212D01*
X83405190Y-24211212D01*
X83405190Y-25168401D01*
X82855110Y-25168401D01*
X82855110Y-24458384D01*
X83250101Y-24458384D01*
X83250101Y-24211212D01*
X82159633Y-24211212D01*
X82159633Y-24458384D01*
X81553817Y-24458384D01*
X81553817Y-23975347D01*
X82159633Y-23975347D01*
X85668518Y-23975347D01*
X85668720Y-23975347D01*
X85860816Y-23994267D01*
G37*
%TO.C,kibuzzard-670AB20C*%
G36*
X120070025Y-43954267D02*
G01*
X120254739Y-44010300D01*
X120424972Y-44101291D01*
X120574183Y-44223745D01*
X120696637Y-44372956D01*
X120787629Y-44543190D01*
X120843661Y-44727904D01*
X120862581Y-44920000D01*
X120843661Y-45112096D01*
X120787629Y-45296810D01*
X120696637Y-45467044D01*
X120574183Y-45616255D01*
X120424972Y-45738709D01*
X120254739Y-45829700D01*
X120070025Y-45885733D01*
X119877928Y-45904653D01*
X119877726Y-45904653D01*
X119460925Y-45904653D01*
X118157210Y-45904653D01*
X117037662Y-45904653D01*
X115891458Y-45904653D01*
X115159633Y-45904653D01*
X114553817Y-45904653D01*
X114553817Y-44171212D01*
X115159633Y-44171212D01*
X115192044Y-44325089D01*
X115231119Y-44495929D01*
X115276555Y-44679794D01*
X115328050Y-44872746D01*
X115365610Y-45005218D01*
X115405594Y-45139305D01*
X115448001Y-45275008D01*
X115492158Y-45410038D01*
X115537393Y-45542106D01*
X115583704Y-45671212D01*
X115891458Y-45671212D01*
X115951434Y-45493102D01*
X116015045Y-45293183D01*
X116035732Y-45225331D01*
X116460925Y-45225331D01*
X116494851Y-45416769D01*
X116599051Y-45568223D01*
X116679019Y-45625170D01*
X116778373Y-45667577D01*
X116897718Y-45693930D01*
X117037662Y-45702714D01*
X117155190Y-45694233D01*
X117273930Y-45673635D01*
X117379342Y-45646979D01*
X117454463Y-45620323D01*
X117421714Y-45479774D01*
X117941539Y-45479774D01*
X118006967Y-45642132D01*
X118157210Y-45697868D01*
X118239600Y-45683328D01*
X118308663Y-45640921D01*
X118357129Y-45573069D01*
X118375303Y-45479774D01*
X118357129Y-45388901D01*
X118308663Y-45322262D01*
X118239600Y-45281066D01*
X118157210Y-45266527D01*
X118006967Y-45322262D01*
X117941539Y-45479774D01*
X117421714Y-45479774D01*
X117396305Y-45370727D01*
X117252121Y-45421616D01*
X117154887Y-45441607D01*
X117040085Y-45448271D01*
X116910138Y-45431914D01*
X116825626Y-45382843D01*
X116765677Y-45225331D01*
X118884188Y-45225331D01*
X118918114Y-45416769D01*
X119022315Y-45568223D01*
X119102282Y-45625170D01*
X119201636Y-45667577D01*
X119320982Y-45693930D01*
X119460925Y-45702714D01*
X119578453Y-45694233D01*
X119697193Y-45673635D01*
X119802605Y-45646979D01*
X119877726Y-45620323D01*
X119819568Y-45370727D01*
X119675384Y-45421616D01*
X119578151Y-45441607D01*
X119463348Y-45448271D01*
X119333401Y-45431914D01*
X119248890Y-45382843D01*
X119187096Y-45220485D01*
X119210723Y-45119616D01*
X119281604Y-45054491D01*
X119388833Y-45019051D01*
X119521507Y-45007237D01*
X119613591Y-45007237D01*
X119613591Y-44760065D01*
X119502121Y-44760065D01*
X119410037Y-44750372D01*
X119327646Y-44718869D01*
X119268276Y-44660711D01*
X119245255Y-44568627D01*
X119294932Y-44438982D01*
X119431846Y-44391729D01*
X119600263Y-44419596D01*
X119744447Y-44488659D01*
X119851071Y-44270565D01*
X119677807Y-44182116D01*
X119563005Y-44148494D01*
X119434269Y-44137286D01*
X119316438Y-44145162D01*
X119214964Y-44168788D01*
X119061087Y-44257237D01*
X118971426Y-44391729D01*
X118942347Y-44558934D01*
X118993235Y-44730985D01*
X119128938Y-44856995D01*
X119025646Y-44916971D01*
X118948405Y-44999968D01*
X118900243Y-45103562D01*
X118884188Y-45225331D01*
X116765677Y-45225331D01*
X116763833Y-45220485D01*
X116787460Y-45119616D01*
X116858340Y-45054491D01*
X116965570Y-45019051D01*
X117098243Y-45007237D01*
X117190327Y-45007237D01*
X117190327Y-44760065D01*
X117078857Y-44760065D01*
X116986773Y-44750372D01*
X116904382Y-44718869D01*
X116845012Y-44660711D01*
X116821991Y-44568627D01*
X116871668Y-44438982D01*
X117008583Y-44391729D01*
X117176999Y-44419596D01*
X117321184Y-44488659D01*
X117427807Y-44270565D01*
X117254544Y-44182116D01*
X117139742Y-44148494D01*
X117011006Y-44137286D01*
X116893175Y-44145162D01*
X116791701Y-44168788D01*
X116637823Y-44257237D01*
X116548163Y-44391729D01*
X116519083Y-44558934D01*
X116569972Y-44730985D01*
X116705675Y-44856995D01*
X116602383Y-44916971D01*
X116525142Y-44999968D01*
X116476979Y-45103562D01*
X116460925Y-45225331D01*
X116035732Y-45225331D01*
X116057856Y-45152768D01*
X116099051Y-45012623D01*
X116138631Y-44872746D01*
X116176057Y-44735563D01*
X116210791Y-44603495D01*
X116242831Y-44476543D01*
X116282815Y-44306914D01*
X116310683Y-44171212D01*
X115995659Y-44171212D01*
X115977484Y-44296918D01*
X115952040Y-44441405D01*
X115921446Y-44597706D01*
X115887823Y-44758853D01*
X115851474Y-44921212D01*
X115812702Y-45081147D01*
X115773021Y-45231692D01*
X115733946Y-45365880D01*
X115695174Y-45233510D01*
X115656402Y-45083570D01*
X115618841Y-44923635D01*
X115583704Y-44761276D01*
X115550990Y-44599826D01*
X115520699Y-44442617D01*
X115494043Y-44297221D01*
X115472234Y-44171212D01*
X115159633Y-44171212D01*
X114553817Y-44171212D01*
X114553817Y-43935347D01*
X115159633Y-43935347D01*
X119877726Y-43935347D01*
X119877928Y-43935347D01*
X120070025Y-43954267D01*
G37*
%TO.C,kibuzzard-670AB201*%
G36*
X118251717Y-46977771D02*
G01*
X118323203Y-47090452D01*
X118357129Y-47256446D01*
X118363490Y-47354588D01*
X118365610Y-47460000D01*
X118363490Y-47565715D01*
X118357129Y-47664766D01*
X118323203Y-47830759D01*
X118251717Y-47942229D01*
X118128131Y-47983425D01*
X118005756Y-47942229D01*
X117933058Y-47829548D01*
X117899132Y-47663554D01*
X117892771Y-47565412D01*
X117890651Y-47460000D01*
X117892771Y-47354285D01*
X117899132Y-47255234D01*
X117933058Y-47089241D01*
X118004544Y-46977771D01*
X118128131Y-46936575D01*
X118251717Y-46977771D01*
G37*
G36*
X118860816Y-46494267D02*
G01*
X119045530Y-46550300D01*
X119215764Y-46641291D01*
X119364975Y-46763745D01*
X119487429Y-46912956D01*
X119578421Y-47083190D01*
X119634453Y-47267904D01*
X119653373Y-47460000D01*
X119634453Y-47652096D01*
X119578421Y-47836810D01*
X119487429Y-48007044D01*
X119364975Y-48156255D01*
X119215764Y-48278709D01*
X119045530Y-48369700D01*
X118860816Y-48425733D01*
X118668720Y-48444653D01*
X118668518Y-48444653D01*
X118125707Y-48444653D01*
X116921345Y-48444653D01*
X115554625Y-48444653D01*
X115159633Y-48444653D01*
X114553817Y-48444653D01*
X114553817Y-46958384D01*
X115159633Y-46958384D01*
X115554625Y-46958384D01*
X115554625Y-48211212D01*
X115855110Y-48211212D01*
X115855110Y-47668401D01*
X116405190Y-47668401D01*
X116411248Y-47793199D01*
X116429423Y-47905880D01*
X116462743Y-48004628D01*
X116514237Y-48087625D01*
X116584512Y-48153962D01*
X116674173Y-48202730D01*
X116785643Y-48232718D01*
X116921345Y-48242714D01*
X117054928Y-48232718D01*
X117164883Y-48202730D01*
X117321184Y-48087625D01*
X117370861Y-48004628D01*
X117403575Y-47905880D01*
X117421749Y-47793199D01*
X117427807Y-47668401D01*
X117427807Y-47460000D01*
X117587743Y-47460000D01*
X117596527Y-47641972D01*
X117622880Y-47800166D01*
X117666802Y-47934581D01*
X117728292Y-48045218D01*
X117834916Y-48154938D01*
X117967387Y-48220770D01*
X118125707Y-48242714D01*
X118287931Y-48220770D01*
X118422422Y-48154938D01*
X118529181Y-48045218D01*
X118590141Y-47934581D01*
X118633684Y-47800166D01*
X118659810Y-47641972D01*
X118668518Y-47460000D01*
X118659582Y-47278028D01*
X118632775Y-47119834D01*
X118588096Y-46985419D01*
X118525546Y-46874782D01*
X118417845Y-46765062D01*
X118285373Y-46699230D01*
X118128131Y-46677286D01*
X117966041Y-46699230D01*
X117831954Y-46765062D01*
X117725869Y-46874782D01*
X117665439Y-46985419D01*
X117622274Y-47119834D01*
X117596376Y-47278028D01*
X117587743Y-47460000D01*
X117427807Y-47460000D01*
X117427807Y-46711212D01*
X117127323Y-46711212D01*
X117127323Y-47649015D01*
X117117630Y-47807738D01*
X117084916Y-47910727D01*
X117020699Y-47966462D01*
X116916499Y-47983425D01*
X116812299Y-47966462D01*
X116746870Y-47909515D01*
X116712945Y-47805315D01*
X116703252Y-47646591D01*
X116703252Y-46711212D01*
X116405190Y-46711212D01*
X116405190Y-47668401D01*
X115855110Y-47668401D01*
X115855110Y-46958384D01*
X116250101Y-46958384D01*
X116250101Y-46711212D01*
X115159633Y-46711212D01*
X115159633Y-46958384D01*
X114553817Y-46958384D01*
X114553817Y-46475347D01*
X115159633Y-46475347D01*
X118668518Y-46475347D01*
X118668720Y-46475347D01*
X118860816Y-46494267D01*
G37*
%TO.C,kibuzzard-670AB1E7*%
G36*
X115833300Y-29534750D02*
G01*
X115876919Y-29540808D01*
X115876919Y-30548885D01*
X115850263Y-30551309D01*
X115823607Y-30551309D01*
X115652767Y-30512536D01*
X115541297Y-30405913D01*
X115480716Y-30244766D01*
X115467085Y-30146926D01*
X115462541Y-30040000D01*
X115477081Y-29850985D01*
X115527969Y-29688627D01*
X115627323Y-29575945D01*
X115789682Y-29533538D01*
X115833300Y-29534750D01*
G37*
G36*
X118855970Y-29074267D02*
G01*
X119040684Y-29130300D01*
X119210918Y-29221291D01*
X119360129Y-29343745D01*
X119482583Y-29492956D01*
X119573574Y-29663190D01*
X119629607Y-29847904D01*
X119648527Y-30040000D01*
X119629607Y-30232096D01*
X119573574Y-30416810D01*
X119482583Y-30587044D01*
X119360129Y-30736255D01*
X119210918Y-30858709D01*
X119040684Y-30949700D01*
X118855970Y-31005733D01*
X118663874Y-31024653D01*
X118663672Y-31024653D01*
X118050586Y-31024653D01*
X116657210Y-31024653D01*
X115855110Y-31024653D01*
X115159633Y-31024653D01*
X114553817Y-31024653D01*
X114553817Y-30040000D01*
X115159633Y-30040000D01*
X115172658Y-30232952D01*
X115211733Y-30395008D01*
X115273830Y-30527985D01*
X115355918Y-30633700D01*
X115456786Y-30713364D01*
X115575223Y-30768191D01*
X115708805Y-30799996D01*
X115855110Y-30810598D01*
X116011410Y-30802116D01*
X116075413Y-30791212D01*
X116417307Y-30791212D01*
X116657210Y-30791212D01*
X116727081Y-30624949D01*
X116800990Y-30458955D01*
X116878939Y-30293231D01*
X116960926Y-30127507D01*
X117046951Y-29961513D01*
X117137016Y-29795250D01*
X117137016Y-30791212D01*
X117405998Y-30791212D01*
X117405998Y-29366333D01*
X117604706Y-29366333D01*
X117682250Y-29603813D01*
X117813107Y-29543231D01*
X117973042Y-29516575D01*
X118152363Y-29555347D01*
X118272315Y-29663183D01*
X118340166Y-29827964D01*
X118355615Y-29928833D01*
X118360764Y-30040000D01*
X118351340Y-30203570D01*
X118323069Y-30335638D01*
X118275950Y-30436204D01*
X118171144Y-30531620D01*
X118026354Y-30563425D01*
X117968195Y-30561002D01*
X117910037Y-30553732D01*
X117910037Y-30006074D01*
X117611976Y-30006074D01*
X117611976Y-30754863D01*
X117777969Y-30798481D01*
X117902464Y-30816656D01*
X118050586Y-30822714D01*
X118184169Y-30810295D01*
X118303817Y-30773037D01*
X118408321Y-30711244D01*
X118496467Y-30625218D01*
X118567347Y-30514960D01*
X118620053Y-30380468D01*
X118652767Y-30222048D01*
X118663672Y-30040000D01*
X118650950Y-29859770D01*
X118612783Y-29701955D01*
X118552808Y-29567161D01*
X118474657Y-29455994D01*
X118379544Y-29369059D01*
X118268680Y-29306963D01*
X118145699Y-29269705D01*
X118014237Y-29257286D01*
X117857937Y-29270614D01*
X117737985Y-29300905D01*
X117654383Y-29337254D01*
X117604706Y-29366333D01*
X117405998Y-29366333D01*
X117405998Y-29291212D01*
X117166095Y-29291212D01*
X117098244Y-29402379D01*
X117030393Y-29522633D01*
X116963450Y-29647128D01*
X116898325Y-29771018D01*
X116836531Y-29892787D01*
X116779585Y-30010921D01*
X116728999Y-30119968D01*
X116686289Y-30214475D01*
X116686289Y-29291212D01*
X116417307Y-29291212D01*
X116417307Y-30791212D01*
X116075413Y-30791212D01*
X116174981Y-30774249D01*
X116174981Y-29310598D01*
X115983543Y-29281519D01*
X115816338Y-29274249D01*
X115674880Y-29285153D01*
X115546144Y-29317868D01*
X115433159Y-29373905D01*
X115338955Y-29454782D01*
X115263531Y-29560800D01*
X115206887Y-29692262D01*
X115171447Y-29851288D01*
X115159633Y-30040000D01*
X114553817Y-30040000D01*
X114553817Y-29055347D01*
X115159633Y-29055347D01*
X118663672Y-29055347D01*
X118663874Y-29055347D01*
X118855970Y-29074267D01*
G37*
%TO.C,G\u002A\u002A\u002A*%
G36*
X126831958Y-26852647D02*
G01*
X126929897Y-26878020D01*
X127025876Y-26918098D01*
X127119896Y-26972883D01*
X127183471Y-27023830D01*
X127238079Y-27086244D01*
X127281942Y-27158699D01*
X127293414Y-27182313D01*
X127304291Y-27207691D01*
X127310360Y-27228768D01*
X127312958Y-27250629D01*
X127313423Y-27278360D01*
X127311998Y-27312380D01*
X127307028Y-27340253D01*
X127297534Y-27363670D01*
X127285776Y-27383439D01*
X127251799Y-27421694D01*
X127207974Y-27449418D01*
X127153447Y-27467226D01*
X127135050Y-27470649D01*
X127083860Y-27476232D01*
X127026392Y-27478265D01*
X126967830Y-27476810D01*
X126913362Y-27471933D01*
X126868174Y-27463698D01*
X126797471Y-27441108D01*
X126710957Y-27399791D01*
X126628823Y-27344449D01*
X126550822Y-27274935D01*
X126550635Y-27274747D01*
X126500874Y-27217923D01*
X126463964Y-27161194D01*
X126440286Y-27105454D01*
X126430221Y-27051599D01*
X126434150Y-27000523D01*
X126440800Y-26978638D01*
X126464794Y-26936556D01*
X126501831Y-26899758D01*
X126551039Y-26869223D01*
X126551407Y-26869042D01*
X126574633Y-26858271D01*
X126594887Y-26851112D01*
X126616622Y-26846647D01*
X126644288Y-26843957D01*
X126682340Y-26842123D01*
X126732057Y-26841980D01*
X126831958Y-26852647D01*
G37*
G36*
X127408301Y-25839232D02*
G01*
X127461711Y-25845640D01*
X127531999Y-25856947D01*
X127590817Y-25870788D01*
X127640159Y-25887902D01*
X127682022Y-25909029D01*
X127718401Y-25934907D01*
X127751293Y-25966278D01*
X127779506Y-26002051D01*
X127808365Y-26057477D01*
X127824784Y-26117120D01*
X127828886Y-26178920D01*
X127820798Y-26240814D01*
X127800644Y-26300744D01*
X127768548Y-26356647D01*
X127724636Y-26406464D01*
X127689127Y-26435202D01*
X127629658Y-26471840D01*
X127560168Y-26504311D01*
X127483334Y-26531563D01*
X127401833Y-26552542D01*
X127318342Y-26566196D01*
X127283205Y-26569178D01*
X127227973Y-26570834D01*
X127169544Y-26569763D01*
X127112394Y-26566175D01*
X127061004Y-26560279D01*
X127019851Y-26552283D01*
X126973274Y-26537988D01*
X126905068Y-26507146D01*
X126848527Y-26467897D01*
X126804029Y-26420792D01*
X126771950Y-26366381D01*
X126752670Y-26305215D01*
X126746565Y-26237843D01*
X126754013Y-26164817D01*
X126760146Y-26138480D01*
X126785255Y-26075165D01*
X126823613Y-26017808D01*
X126874783Y-25966876D01*
X126938330Y-25922836D01*
X127013817Y-25886157D01*
X127049091Y-25873696D01*
X127114570Y-25856993D01*
X127187504Y-25844686D01*
X127263619Y-25837285D01*
X127338643Y-25835298D01*
X127408301Y-25839232D01*
G37*
G36*
X125729389Y-25043934D02*
G01*
X125776926Y-25049969D01*
X125813839Y-25059815D01*
X125824671Y-25064189D01*
X125874586Y-25090979D01*
X125912845Y-25124845D01*
X125941341Y-25167383D01*
X125952052Y-25189876D01*
X125959217Y-25211671D01*
X125962228Y-25235381D01*
X125962441Y-25267430D01*
X125961335Y-25288805D01*
X125948688Y-25353199D01*
X125922174Y-25412396D01*
X125881831Y-25466352D01*
X125827697Y-25515022D01*
X125759813Y-25558360D01*
X125678217Y-25596322D01*
X125609446Y-25621463D01*
X125541413Y-25641497D01*
X125481634Y-25653816D01*
X125425948Y-25658956D01*
X125356187Y-25656198D01*
X125291726Y-25643185D01*
X125234788Y-25620411D01*
X125187594Y-25588371D01*
X125176305Y-25577537D01*
X125146632Y-25538248D01*
X125124691Y-25492206D01*
X125111615Y-25443187D01*
X125108534Y-25394970D01*
X125116582Y-25351332D01*
X125118190Y-25346843D01*
X125145166Y-25290233D01*
X125182851Y-25234883D01*
X125228250Y-25184174D01*
X125278368Y-25141485D01*
X125330211Y-25110198D01*
X125349345Y-25101331D01*
X125368819Y-25093107D01*
X125388444Y-25086171D01*
X125411103Y-25079712D01*
X125439683Y-25072919D01*
X125477068Y-25064980D01*
X125526143Y-25055083D01*
X125560334Y-25049321D01*
X125617362Y-25043549D01*
X125674957Y-25041774D01*
X125729389Y-25043934D01*
G37*
G36*
X127071833Y-24885274D02*
G01*
X127107801Y-24894350D01*
X127169999Y-24919615D01*
X127221287Y-24954903D01*
X127261830Y-25000379D01*
X127291790Y-25056203D01*
X127311333Y-25122540D01*
X127314899Y-25148771D01*
X127313344Y-25205982D01*
X127301032Y-25266617D01*
X127279005Y-25327447D01*
X127248305Y-25385240D01*
X127209974Y-25436763D01*
X127204732Y-25442579D01*
X127166608Y-25480356D01*
X127119722Y-25520916D01*
X127067975Y-25561038D01*
X127015268Y-25597501D01*
X127012244Y-25599453D01*
X126973476Y-25623261D01*
X126940494Y-25640401D01*
X126907918Y-25653365D01*
X126870372Y-25664643D01*
X126850305Y-25669198D01*
X126792482Y-25675121D01*
X126732699Y-25672446D01*
X126678069Y-25661297D01*
X126644389Y-25648918D01*
X126583738Y-25616471D01*
X126528762Y-25574042D01*
X126482444Y-25524120D01*
X126447765Y-25469191D01*
X126447197Y-25468035D01*
X126435326Y-25441495D01*
X126427942Y-25417431D01*
X126423728Y-25390075D01*
X126421366Y-25353659D01*
X126420698Y-25321960D01*
X126424761Y-25261966D01*
X126436989Y-25208451D01*
X126458228Y-25156896D01*
X126476211Y-25125916D01*
X126515079Y-25075769D01*
X126563433Y-25027871D01*
X126618116Y-24985211D01*
X126675968Y-24950780D01*
X126678752Y-24949393D01*
X126740596Y-24923486D01*
X126808899Y-24902841D01*
X126879917Y-24888078D01*
X126949907Y-24879816D01*
X127015127Y-24878675D01*
X127071833Y-24885274D01*
G37*
G36*
X125984659Y-25777031D02*
G01*
X126061700Y-25780667D01*
X126128628Y-25788470D01*
X126188261Y-25801286D01*
X126243413Y-25819963D01*
X126296900Y-25845347D01*
X126351539Y-25878285D01*
X126410145Y-25919624D01*
X126434147Y-25938081D01*
X126504924Y-26001360D01*
X126561711Y-26067966D01*
X126605053Y-26138924D01*
X126635497Y-26215261D01*
X126653591Y-26298002D01*
X126659881Y-26388173D01*
X126658721Y-26441258D01*
X126653129Y-26493639D01*
X126641889Y-26543000D01*
X126623845Y-26594251D01*
X126597846Y-26652302D01*
X126548156Y-26744182D01*
X126489563Y-26831359D01*
X126424661Y-26909811D01*
X126354704Y-26978317D01*
X126280943Y-27035654D01*
X126204631Y-27080599D01*
X126127019Y-27111931D01*
X126124300Y-27112766D01*
X126088939Y-27122600D01*
X126052750Y-27131158D01*
X126023164Y-27136670D01*
X126006330Y-27138908D01*
X125917011Y-27144585D01*
X125836766Y-27138537D01*
X125765601Y-27120763D01*
X125703521Y-27091266D01*
X125650532Y-27050047D01*
X125649749Y-27049283D01*
X125623128Y-27018993D01*
X125602233Y-26984843D01*
X125586393Y-26944676D01*
X125574938Y-26896334D01*
X125567200Y-26837662D01*
X125562509Y-26766503D01*
X125560387Y-26731512D01*
X125556766Y-26694004D01*
X125552346Y-26663203D01*
X125547617Y-26643174D01*
X125537064Y-26622659D01*
X125512138Y-26591106D01*
X125475420Y-26554895D01*
X125427848Y-26514933D01*
X125370361Y-26472125D01*
X125311825Y-26427704D01*
X125259730Y-26379937D01*
X125220283Y-26332434D01*
X125192495Y-26283753D01*
X125175378Y-26232453D01*
X125167940Y-26177091D01*
X125167531Y-26166737D01*
X125170313Y-26113372D01*
X125182922Y-26067599D01*
X125206852Y-26025588D01*
X125243602Y-25983509D01*
X125259053Y-25968914D01*
X125303689Y-25933901D01*
X125356018Y-25902523D01*
X125417468Y-25874172D01*
X125489464Y-25848239D01*
X125573432Y-25824116D01*
X125670799Y-25801193D01*
X125677573Y-25799736D01*
X125716918Y-25791500D01*
X125749314Y-25785471D01*
X125778393Y-25781307D01*
X125807785Y-25778669D01*
X125841121Y-25777214D01*
X125882031Y-25776604D01*
X125934146Y-25776497D01*
X125984659Y-25777031D01*
G37*
G36*
X126113697Y-21436192D02*
G01*
X126120369Y-21447146D01*
X126133947Y-21470101D01*
X126154049Y-21504396D01*
X126180292Y-21549373D01*
X126212295Y-21604372D01*
X126249675Y-21668732D01*
X126292049Y-21741793D01*
X126339035Y-21822897D01*
X126390252Y-21911383D01*
X126445316Y-22006591D01*
X126503845Y-22107861D01*
X126565457Y-22214534D01*
X126629769Y-22325950D01*
X126696400Y-22441448D01*
X126764967Y-22560369D01*
X126780432Y-22587198D01*
X126849161Y-22706415D01*
X126916143Y-22822576D01*
X126980975Y-22934982D01*
X127043251Y-23042934D01*
X127102568Y-23145730D01*
X127158522Y-23242672D01*
X127210708Y-23333058D01*
X127258722Y-23416189D01*
X127302159Y-23491365D01*
X127340615Y-23557885D01*
X127373687Y-23615050D01*
X127400968Y-23662160D01*
X127422057Y-23698515D01*
X127436547Y-23723414D01*
X127444035Y-23736158D01*
X127451704Y-23749033D01*
X127471025Y-23781838D01*
X127494685Y-23822369D01*
X127521844Y-23869158D01*
X127551661Y-23920735D01*
X127583296Y-23975632D01*
X127615908Y-24032379D01*
X127648656Y-24089507D01*
X127680699Y-24145546D01*
X127711197Y-24199028D01*
X127739310Y-24248483D01*
X127764196Y-24292441D01*
X127785016Y-24329435D01*
X127800927Y-24357994D01*
X127811091Y-24376649D01*
X127814666Y-24383931D01*
X127809559Y-24388329D01*
X127793145Y-24399228D01*
X127767069Y-24415469D01*
X127733029Y-24436013D01*
X127692724Y-24459823D01*
X127647853Y-24485860D01*
X127606814Y-24509584D01*
X127566048Y-24533399D01*
X127531383Y-24553917D01*
X127504516Y-24570122D01*
X127487142Y-24581002D01*
X127480959Y-24585545D01*
X127480959Y-24585565D01*
X127485915Y-24592131D01*
X127499241Y-24607045D01*
X127518921Y-24628109D01*
X127542942Y-24653127D01*
X127574326Y-24687458D01*
X127614077Y-24740624D01*
X127642931Y-24795246D01*
X127662042Y-24854321D01*
X127672564Y-24920844D01*
X127675651Y-24997811D01*
X127675420Y-25015452D01*
X127668175Y-25103642D01*
X127650836Y-25181349D01*
X127623454Y-25248332D01*
X127614666Y-25265089D01*
X127605467Y-25282796D01*
X127600959Y-25291702D01*
X127600951Y-25291724D01*
X127606875Y-25289046D01*
X127623971Y-25279855D01*
X127650623Y-25265077D01*
X127685218Y-25245639D01*
X127726139Y-25222467D01*
X127771770Y-25196489D01*
X127820497Y-25168632D01*
X127870705Y-25139822D01*
X127920777Y-25110987D01*
X127969100Y-25083052D01*
X128014056Y-25056946D01*
X128054031Y-25033594D01*
X128087410Y-25013925D01*
X128112578Y-24998863D01*
X128127918Y-24989337D01*
X128155569Y-24971303D01*
X128165988Y-24987989D01*
X128167099Y-24989859D01*
X128174827Y-25003135D01*
X128189485Y-25028432D01*
X128210736Y-25065169D01*
X128238244Y-25112763D01*
X128271675Y-25170634D01*
X128310692Y-25238200D01*
X128354960Y-25314879D01*
X128404143Y-25400089D01*
X128457905Y-25493250D01*
X128515911Y-25593778D01*
X128577825Y-25701094D01*
X128643312Y-25814614D01*
X128712036Y-25933758D01*
X128783661Y-26057944D01*
X128857851Y-26186590D01*
X128934271Y-26319115D01*
X129012585Y-26454937D01*
X129045830Y-26512595D01*
X129123464Y-26647232D01*
X129199095Y-26778385D01*
X129272386Y-26905467D01*
X129342999Y-27027893D01*
X129410595Y-27145078D01*
X129474836Y-27256435D01*
X129535385Y-27361380D01*
X129591904Y-27459326D01*
X129644054Y-27549689D01*
X129691499Y-27631883D01*
X129733899Y-27705321D01*
X129770918Y-27769419D01*
X129802216Y-27823592D01*
X129827457Y-27867252D01*
X129846302Y-27899816D01*
X129858413Y-27920697D01*
X129863453Y-27929309D01*
X129878142Y-27953419D01*
X126441415Y-27953419D01*
X126195061Y-27953405D01*
X125952775Y-27953363D01*
X125717415Y-27953294D01*
X125489342Y-27953199D01*
X125268915Y-27953077D01*
X125056494Y-27952931D01*
X124852438Y-27952761D01*
X124657107Y-27952566D01*
X124470861Y-27952349D01*
X124294058Y-27952109D01*
X124127058Y-27951848D01*
X123970221Y-27951566D01*
X123823906Y-27951263D01*
X123688473Y-27950941D01*
X123564281Y-27950600D01*
X123451691Y-27950241D01*
X123351060Y-27949865D01*
X123262750Y-27949472D01*
X123187119Y-27949063D01*
X123124526Y-27948638D01*
X123075332Y-27948199D01*
X123039896Y-27947745D01*
X123018578Y-27947279D01*
X123011736Y-27946800D01*
X123018872Y-27942387D01*
X123038141Y-27930983D01*
X123068824Y-27913007D01*
X123110199Y-27888877D01*
X123161547Y-27859009D01*
X123222145Y-27823822D01*
X123291274Y-27783734D01*
X123368212Y-27739162D01*
X123452239Y-27690524D01*
X123542634Y-27638237D01*
X123638676Y-27582720D01*
X123739645Y-27524391D01*
X123844820Y-27463666D01*
X123953480Y-27400964D01*
X123953855Y-27400748D01*
X124062464Y-27338079D01*
X124167562Y-27277409D01*
X124268431Y-27219154D01*
X124364352Y-27163731D01*
X124454606Y-27111556D01*
X124538475Y-27063044D01*
X124615239Y-27018611D01*
X124684181Y-26978675D01*
X124744581Y-26943651D01*
X124795721Y-26913956D01*
X124836882Y-26890005D01*
X124867345Y-26872214D01*
X124886392Y-26861001D01*
X124893303Y-26856780D01*
X124891836Y-26851118D01*
X124882604Y-26836135D01*
X124866901Y-26814516D01*
X124846447Y-26788757D01*
X124822735Y-26759521D01*
X124788513Y-26716296D01*
X124749922Y-26666716D01*
X124708909Y-26613343D01*
X124667421Y-26558742D01*
X124627405Y-26505478D01*
X124590806Y-26456115D01*
X124559572Y-26413216D01*
X124535649Y-26379347D01*
X124514772Y-26349550D01*
X124499318Y-26329203D01*
X124488722Y-26318150D01*
X124481396Y-26314748D01*
X124475753Y-26317353D01*
X124472709Y-26319390D01*
X124457791Y-26328460D01*
X124431213Y-26344247D01*
X124393721Y-26366316D01*
X124346060Y-26394235D01*
X124288977Y-26427568D01*
X124223216Y-26465883D01*
X124149524Y-26508745D01*
X124068646Y-26555719D01*
X123981328Y-26606374D01*
X123888316Y-26660273D01*
X123790354Y-26716984D01*
X123688190Y-26776073D01*
X123582569Y-26837105D01*
X123517852Y-26874484D01*
X123414387Y-26934244D01*
X123314881Y-26991717D01*
X123220076Y-27046476D01*
X123130712Y-27098092D01*
X123047530Y-27146139D01*
X122971271Y-27190187D01*
X122902674Y-27229810D01*
X122842482Y-27264580D01*
X122791433Y-27294068D01*
X122750270Y-27317847D01*
X122719732Y-27335490D01*
X122700561Y-27346567D01*
X122693496Y-27350652D01*
X122692501Y-27351320D01*
X122691322Y-27352150D01*
X122690529Y-27352427D01*
X122690456Y-27351566D01*
X122691437Y-27348982D01*
X122693806Y-27344088D01*
X122697900Y-27336299D01*
X122704052Y-27325028D01*
X122712596Y-27309691D01*
X122723868Y-27289702D01*
X122738201Y-27264474D01*
X122755931Y-27233422D01*
X122777392Y-27195961D01*
X122802919Y-27151504D01*
X122832846Y-27099466D01*
X122867507Y-27039262D01*
X122907238Y-26970304D01*
X122952373Y-26892009D01*
X123003246Y-26803789D01*
X123060192Y-26705059D01*
X123123546Y-26595234D01*
X123193642Y-26473728D01*
X123270815Y-26339955D01*
X123288962Y-26308490D01*
X123352975Y-26197397D01*
X123415014Y-26089563D01*
X123474661Y-25985725D01*
X123531496Y-25886621D01*
X123585098Y-25792988D01*
X123635048Y-25705563D01*
X123680927Y-25625082D01*
X123722313Y-25552284D01*
X123758788Y-25487905D01*
X123789932Y-25432682D01*
X123815325Y-25387352D01*
X123834547Y-25352653D01*
X123847178Y-25329321D01*
X123852798Y-25318094D01*
X123861317Y-25298214D01*
X123869610Y-25281807D01*
X123874595Y-25275550D01*
X123879498Y-25280081D01*
X123891688Y-25295187D01*
X123909614Y-25319055D01*
X123931932Y-25349779D01*
X123957302Y-25385453D01*
X123984379Y-25424171D01*
X124011823Y-25464027D01*
X124038291Y-25503116D01*
X124062440Y-25539531D01*
X124082929Y-25571366D01*
X124105305Y-25606079D01*
X124131988Y-25645946D01*
X124157705Y-25683002D01*
X124179089Y-25712312D01*
X124183526Y-25718185D01*
X124215655Y-25762485D01*
X124254341Y-25818435D01*
X124298876Y-25884982D01*
X124348551Y-25961069D01*
X124402660Y-26045642D01*
X124415051Y-26065151D01*
X124476025Y-26160006D01*
X124533417Y-26247049D01*
X124589151Y-26328975D01*
X124645153Y-26408478D01*
X124703350Y-26488253D01*
X124765666Y-26570997D01*
X124834028Y-26659403D01*
X124910361Y-26756167D01*
X124937703Y-26790636D01*
X124967046Y-26827789D01*
X124993472Y-26861409D01*
X125014868Y-26888806D01*
X125029122Y-26907293D01*
X125038308Y-26918855D01*
X125074351Y-26958083D01*
X125117669Y-26998425D01*
X125164302Y-27036574D01*
X125210289Y-27069224D01*
X125251669Y-27093067D01*
X125273185Y-27103333D01*
X125305545Y-27117869D01*
X125337835Y-27130972D01*
X125371400Y-27142941D01*
X125407584Y-27154075D01*
X125447732Y-27164673D01*
X125493188Y-27175034D01*
X125545297Y-27185456D01*
X125605403Y-27196240D01*
X125674851Y-27207683D01*
X125754985Y-27220085D01*
X125847151Y-27233745D01*
X125952691Y-27248962D01*
X126004220Y-27256722D01*
X126078301Y-27269696D01*
X126148853Y-27284687D01*
X126220137Y-27302716D01*
X126296416Y-27324808D01*
X126381953Y-27351985D01*
X126400923Y-27358226D01*
X126477839Y-27383913D01*
X126544151Y-27406830D01*
X126602840Y-27428079D01*
X126656886Y-27448761D01*
X126709271Y-27469979D01*
X126762977Y-27492834D01*
X126824612Y-27519094D01*
X126895341Y-27547485D01*
X126956288Y-27569523D01*
X127009233Y-27585737D01*
X127055958Y-27596661D01*
X127098243Y-27602825D01*
X127137868Y-27604762D01*
X127206835Y-27599029D01*
X127277057Y-27581317D01*
X127342743Y-27552851D01*
X127401975Y-27514871D01*
X127452836Y-27468617D01*
X127493410Y-27415330D01*
X127521780Y-27356251D01*
X127522115Y-27355282D01*
X127529345Y-27325467D01*
X127534943Y-27284889D01*
X127538369Y-27237419D01*
X127539214Y-27204864D01*
X127536857Y-27151532D01*
X127528406Y-27103282D01*
X127512710Y-27054635D01*
X127488622Y-27000107D01*
X127485356Y-26993461D01*
X127449329Y-26932811D01*
X127405752Y-26881966D01*
X127351132Y-26836775D01*
X127346426Y-26833475D01*
X127308445Y-26809650D01*
X127262840Y-26784708D01*
X127213599Y-26760524D01*
X127164713Y-26738973D01*
X127120174Y-26721929D01*
X127083970Y-26711267D01*
X127055610Y-26704626D01*
X127015034Y-26693183D01*
X126987113Y-26681765D01*
X126970480Y-26669544D01*
X126963766Y-26655687D01*
X126965605Y-26639365D01*
X126967339Y-26635195D01*
X126981676Y-26623506D01*
X127007269Y-26621226D01*
X127043923Y-26628383D01*
X127092292Y-26639976D01*
X127143905Y-26647991D01*
X127201591Y-26652654D01*
X127268191Y-26654194D01*
X127346545Y-26652841D01*
X127388667Y-26651186D01*
X127458461Y-26646418D01*
X127519164Y-26638786D01*
X127574470Y-26627455D01*
X127628072Y-26611591D01*
X127683666Y-26590361D01*
X127744945Y-26562932D01*
X127838655Y-26512558D01*
X127931950Y-26447459D01*
X128018917Y-26369792D01*
X128060398Y-26326089D01*
X128092683Y-26285890D01*
X128117569Y-26245860D01*
X128137562Y-26201961D01*
X128155168Y-26150154D01*
X128164529Y-26117598D01*
X128175831Y-26069642D01*
X128182890Y-26023235D01*
X128186438Y-25972961D01*
X128187208Y-25913407D01*
X128186844Y-25889364D01*
X128182328Y-25818910D01*
X128172171Y-25758111D01*
X128155662Y-25703589D01*
X128132089Y-25651964D01*
X128126796Y-25642598D01*
X128097452Y-25601199D01*
X128059548Y-25559334D01*
X128017227Y-25521236D01*
X127974634Y-25491137D01*
X127958300Y-25481947D01*
X127900015Y-25455464D01*
X127831616Y-25432012D01*
X127756578Y-25412536D01*
X127678376Y-25397983D01*
X127600487Y-25389298D01*
X127533776Y-25384562D01*
X127433925Y-25478895D01*
X127424951Y-25487351D01*
X127344694Y-25560699D01*
X127270929Y-25623543D01*
X127201737Y-25677307D01*
X127135193Y-25723412D01*
X127069378Y-25763281D01*
X127002370Y-25798335D01*
X126993180Y-25802751D01*
X126948167Y-25823260D01*
X126902776Y-25842320D01*
X126859748Y-25858914D01*
X126821822Y-25872025D01*
X126791737Y-25880637D01*
X126772235Y-25883734D01*
X126768295Y-25883441D01*
X126750519Y-25874789D01*
X126738616Y-25858169D01*
X126736917Y-25839059D01*
X126739334Y-25833145D01*
X126744813Y-25827534D01*
X126755500Y-25821467D01*
X126773616Y-25813897D01*
X126801384Y-25803781D01*
X126841024Y-25790073D01*
X126849789Y-25787032D01*
X126937482Y-25751804D01*
X127023645Y-25708031D01*
X127109781Y-25654706D01*
X127197393Y-25590823D01*
X127287983Y-25515377D01*
X127383057Y-25427362D01*
X127415616Y-25395428D01*
X127464846Y-25344579D01*
X127504259Y-25299416D01*
X127535167Y-25257881D01*
X127558883Y-25217913D01*
X127576716Y-25177455D01*
X127589980Y-25134447D01*
X127599985Y-25086831D01*
X127603922Y-25056471D01*
X127606137Y-25001506D01*
X127603490Y-24944283D01*
X127596325Y-24890331D01*
X127584985Y-24845183D01*
X127570566Y-24810227D01*
X127533857Y-24750164D01*
X127483098Y-24692424D01*
X127418734Y-24637481D01*
X127341214Y-24585812D01*
X127297135Y-24562350D01*
X127212113Y-24529732D01*
X127118006Y-24508189D01*
X127015404Y-24497801D01*
X126904897Y-24498647D01*
X126787076Y-24510807D01*
X126772774Y-24512967D01*
X126626287Y-24542008D01*
X126486825Y-24582998D01*
X126351634Y-24636876D01*
X126217959Y-24704579D01*
X126198265Y-24715777D01*
X126167772Y-24733756D01*
X126142153Y-24749611D01*
X126125488Y-24760857D01*
X126101701Y-24778681D01*
X126130607Y-24819946D01*
X126142467Y-24837984D01*
X126173397Y-24896542D01*
X126197924Y-24960339D01*
X126213217Y-25022439D01*
X126214140Y-25028423D01*
X126217467Y-25091101D01*
X126211396Y-25160790D01*
X126196865Y-25234285D01*
X126174811Y-25308381D01*
X126146171Y-25379874D01*
X126111883Y-25445558D01*
X126072885Y-25502229D01*
X126036053Y-25541980D01*
X125978154Y-25589922D01*
X125909383Y-25634549D01*
X125831915Y-25674757D01*
X125747925Y-25709444D01*
X125659586Y-25737506D01*
X125569075Y-25757839D01*
X125556881Y-25759860D01*
X125525877Y-25762705D01*
X125506167Y-25759403D01*
X125495785Y-25749280D01*
X125492761Y-25731660D01*
X125492774Y-25730288D01*
X125494925Y-25718054D01*
X125502383Y-25708574D01*
X125517483Y-25700567D01*
X125542559Y-25692752D01*
X125579946Y-25683850D01*
X125684380Y-25656204D01*
X125781490Y-25620863D01*
X125866614Y-25579017D01*
X125939174Y-25530950D01*
X125998592Y-25476949D01*
X126013227Y-25460124D01*
X126051887Y-25404866D01*
X126085121Y-25341397D01*
X126112021Y-25272768D01*
X126131680Y-25202030D01*
X126143190Y-25132234D01*
X126145644Y-25066433D01*
X126138135Y-25007677D01*
X126135865Y-24999067D01*
X126123472Y-24963733D01*
X126105846Y-24923406D01*
X126085541Y-24883608D01*
X126065113Y-24849863D01*
X126063617Y-24847693D01*
X126035829Y-24813603D01*
X126000482Y-24778346D01*
X125962617Y-24746565D01*
X125927275Y-24722905D01*
X125868346Y-24694791D01*
X125788662Y-24667294D01*
X125699869Y-24645942D01*
X125604461Y-24631015D01*
X125504930Y-24622798D01*
X125403772Y-24621572D01*
X125303478Y-24627620D01*
X125206544Y-24641224D01*
X125152424Y-24652051D01*
X125039230Y-24680914D01*
X124938209Y-24716174D01*
X124848309Y-24758293D01*
X124768482Y-24807732D01*
X124697679Y-24864953D01*
X124683709Y-24877369D01*
X124658974Y-24895783D01*
X124640206Y-24902969D01*
X124625448Y-24899403D01*
X124612741Y-24885558D01*
X124605098Y-24871952D01*
X124605550Y-24861260D01*
X124614962Y-24846612D01*
X124617570Y-24843257D01*
X124637192Y-24822856D01*
X124665911Y-24797658D01*
X124700699Y-24769995D01*
X124738528Y-24742197D01*
X124776371Y-24716595D01*
X124811201Y-24695521D01*
X124821989Y-24689682D01*
X124877748Y-24663557D01*
X124943810Y-24637983D01*
X125016509Y-24614286D01*
X125092177Y-24593796D01*
X125119625Y-24587400D01*
X125165597Y-24577680D01*
X125211291Y-24569055D01*
X125253174Y-24562139D01*
X125287715Y-24557540D01*
X125311380Y-24555872D01*
X125318987Y-24555903D01*
X125330393Y-24555762D01*
X125339066Y-24554668D01*
X125344388Y-24551798D01*
X125345740Y-24546331D01*
X125342504Y-24537444D01*
X125334062Y-24524316D01*
X125319795Y-24506123D01*
X125299085Y-24482045D01*
X125271313Y-24451259D01*
X125235862Y-24412943D01*
X125192113Y-24366276D01*
X125139448Y-24310433D01*
X125077247Y-24244595D01*
X125058630Y-24224866D01*
X125022772Y-24186716D01*
X124989226Y-24150760D01*
X124956256Y-24115098D01*
X124922126Y-24077831D01*
X124885101Y-24037058D01*
X124843445Y-23990880D01*
X124795421Y-23937396D01*
X124739294Y-23874708D01*
X124709104Y-23840956D01*
X124731876Y-23806272D01*
X124734893Y-23801356D01*
X124745446Y-23783527D01*
X124762769Y-23753922D01*
X124786480Y-23713205D01*
X124816194Y-23662039D01*
X124851529Y-23601088D01*
X124892102Y-23531012D01*
X124937529Y-23452477D01*
X124987427Y-23366144D01*
X125041413Y-23272677D01*
X125099103Y-23172739D01*
X125160114Y-23066992D01*
X125224063Y-22956099D01*
X125290567Y-22840724D01*
X125359243Y-22721529D01*
X125429706Y-22599177D01*
X125468701Y-22531465D01*
X125553963Y-22383511D01*
X125632194Y-22247908D01*
X125703616Y-22124279D01*
X125768450Y-22012247D01*
X125826917Y-21911435D01*
X125879239Y-21821468D01*
X125925636Y-21741967D01*
X125966330Y-21672558D01*
X126001541Y-21612862D01*
X126031492Y-21562504D01*
X126056403Y-21521107D01*
X126076495Y-21488293D01*
X126091990Y-21463687D01*
X126103108Y-21446912D01*
X126110072Y-21437591D01*
X126113101Y-21435347D01*
X126113697Y-21436192D01*
G37*
G36*
X126831958Y-49352647D02*
G01*
X126929897Y-49378020D01*
X127025876Y-49418098D01*
X127119896Y-49472883D01*
X127183471Y-49523830D01*
X127238079Y-49586244D01*
X127281942Y-49658699D01*
X127293414Y-49682313D01*
X127304291Y-49707691D01*
X127310360Y-49728768D01*
X127312958Y-49750629D01*
X127313423Y-49778360D01*
X127311998Y-49812380D01*
X127307028Y-49840253D01*
X127297534Y-49863670D01*
X127285776Y-49883439D01*
X127251799Y-49921694D01*
X127207974Y-49949418D01*
X127153447Y-49967226D01*
X127135050Y-49970649D01*
X127083860Y-49976232D01*
X127026392Y-49978265D01*
X126967830Y-49976810D01*
X126913362Y-49971933D01*
X126868174Y-49963698D01*
X126797471Y-49941108D01*
X126710957Y-49899791D01*
X126628823Y-49844449D01*
X126550822Y-49774935D01*
X126550635Y-49774747D01*
X126500874Y-49717923D01*
X126463964Y-49661194D01*
X126440286Y-49605454D01*
X126430221Y-49551599D01*
X126434150Y-49500523D01*
X126440800Y-49478638D01*
X126464794Y-49436556D01*
X126501831Y-49399758D01*
X126551039Y-49369223D01*
X126551407Y-49369042D01*
X126574633Y-49358271D01*
X126594887Y-49351112D01*
X126616622Y-49346647D01*
X126644288Y-49343957D01*
X126682340Y-49342123D01*
X126732057Y-49341980D01*
X126831958Y-49352647D01*
G37*
G36*
X127408301Y-48339232D02*
G01*
X127461711Y-48345640D01*
X127531999Y-48356947D01*
X127590817Y-48370788D01*
X127640159Y-48387902D01*
X127682022Y-48409029D01*
X127718401Y-48434907D01*
X127751293Y-48466278D01*
X127779506Y-48502051D01*
X127808365Y-48557477D01*
X127824784Y-48617120D01*
X127828886Y-48678920D01*
X127820798Y-48740814D01*
X127800644Y-48800744D01*
X127768548Y-48856647D01*
X127724636Y-48906464D01*
X127689127Y-48935202D01*
X127629658Y-48971840D01*
X127560168Y-49004311D01*
X127483334Y-49031563D01*
X127401833Y-49052542D01*
X127318342Y-49066196D01*
X127283205Y-49069178D01*
X127227973Y-49070834D01*
X127169544Y-49069763D01*
X127112394Y-49066175D01*
X127061004Y-49060279D01*
X127019851Y-49052283D01*
X126973274Y-49037988D01*
X126905068Y-49007146D01*
X126848527Y-48967897D01*
X126804029Y-48920792D01*
X126771950Y-48866381D01*
X126752670Y-48805215D01*
X126746565Y-48737843D01*
X126754013Y-48664817D01*
X126760146Y-48638480D01*
X126785255Y-48575165D01*
X126823613Y-48517808D01*
X126874783Y-48466876D01*
X126938330Y-48422836D01*
X127013817Y-48386157D01*
X127049091Y-48373696D01*
X127114570Y-48356993D01*
X127187504Y-48344686D01*
X127263619Y-48337285D01*
X127338643Y-48335298D01*
X127408301Y-48339232D01*
G37*
G36*
X125729389Y-47543934D02*
G01*
X125776926Y-47549969D01*
X125813839Y-47559815D01*
X125824671Y-47564189D01*
X125874586Y-47590979D01*
X125912845Y-47624845D01*
X125941341Y-47667383D01*
X125952052Y-47689876D01*
X125959217Y-47711671D01*
X125962228Y-47735381D01*
X125962441Y-47767430D01*
X125961335Y-47788805D01*
X125948688Y-47853199D01*
X125922174Y-47912396D01*
X125881831Y-47966352D01*
X125827697Y-48015022D01*
X125759813Y-48058360D01*
X125678217Y-48096322D01*
X125609446Y-48121463D01*
X125541413Y-48141497D01*
X125481634Y-48153816D01*
X125425948Y-48158956D01*
X125356187Y-48156198D01*
X125291726Y-48143185D01*
X125234788Y-48120411D01*
X125187594Y-48088371D01*
X125176305Y-48077537D01*
X125146632Y-48038248D01*
X125124691Y-47992206D01*
X125111615Y-47943187D01*
X125108534Y-47894970D01*
X125116582Y-47851332D01*
X125118190Y-47846843D01*
X125145166Y-47790233D01*
X125182851Y-47734883D01*
X125228250Y-47684174D01*
X125278368Y-47641485D01*
X125330211Y-47610198D01*
X125349345Y-47601331D01*
X125368819Y-47593107D01*
X125388444Y-47586171D01*
X125411103Y-47579712D01*
X125439683Y-47572919D01*
X125477068Y-47564980D01*
X125526143Y-47555083D01*
X125560334Y-47549321D01*
X125617362Y-47543549D01*
X125674957Y-47541774D01*
X125729389Y-47543934D01*
G37*
G36*
X127071833Y-47385274D02*
G01*
X127107801Y-47394350D01*
X127169999Y-47419615D01*
X127221287Y-47454903D01*
X127261830Y-47500379D01*
X127291790Y-47556203D01*
X127311333Y-47622540D01*
X127314899Y-47648771D01*
X127313344Y-47705982D01*
X127301032Y-47766617D01*
X127279005Y-47827447D01*
X127248305Y-47885240D01*
X127209974Y-47936763D01*
X127204732Y-47942579D01*
X127166608Y-47980356D01*
X127119722Y-48020916D01*
X127067975Y-48061038D01*
X127015268Y-48097501D01*
X127012244Y-48099453D01*
X126973476Y-48123261D01*
X126940494Y-48140401D01*
X126907918Y-48153365D01*
X126870372Y-48164643D01*
X126850305Y-48169198D01*
X126792482Y-48175121D01*
X126732699Y-48172446D01*
X126678069Y-48161297D01*
X126644389Y-48148918D01*
X126583738Y-48116471D01*
X126528762Y-48074042D01*
X126482444Y-48024120D01*
X126447765Y-47969191D01*
X126447197Y-47968035D01*
X126435326Y-47941495D01*
X126427942Y-47917431D01*
X126423728Y-47890075D01*
X126421366Y-47853659D01*
X126420698Y-47821960D01*
X126424761Y-47761966D01*
X126436989Y-47708451D01*
X126458228Y-47656896D01*
X126476211Y-47625916D01*
X126515079Y-47575769D01*
X126563433Y-47527871D01*
X126618116Y-47485211D01*
X126675968Y-47450780D01*
X126678752Y-47449393D01*
X126740596Y-47423486D01*
X126808899Y-47402841D01*
X126879917Y-47388078D01*
X126949907Y-47379816D01*
X127015127Y-47378675D01*
X127071833Y-47385274D01*
G37*
G36*
X125984659Y-48277031D02*
G01*
X126061700Y-48280667D01*
X126128628Y-48288470D01*
X126188261Y-48301286D01*
X126243413Y-48319963D01*
X126296900Y-48345347D01*
X126351539Y-48378285D01*
X126410145Y-48419624D01*
X126434147Y-48438081D01*
X126504924Y-48501360D01*
X126561711Y-48567966D01*
X126605053Y-48638924D01*
X126635497Y-48715261D01*
X126653591Y-48798002D01*
X126659881Y-48888173D01*
X126658721Y-48941258D01*
X126653129Y-48993639D01*
X126641889Y-49043000D01*
X126623845Y-49094251D01*
X126597846Y-49152302D01*
X126548156Y-49244182D01*
X126489563Y-49331359D01*
X126424661Y-49409811D01*
X126354704Y-49478317D01*
X126280943Y-49535654D01*
X126204631Y-49580599D01*
X126127019Y-49611931D01*
X126124300Y-49612766D01*
X126088939Y-49622600D01*
X126052750Y-49631158D01*
X126023164Y-49636670D01*
X126006330Y-49638908D01*
X125917011Y-49644585D01*
X125836766Y-49638537D01*
X125765601Y-49620763D01*
X125703521Y-49591266D01*
X125650532Y-49550047D01*
X125649749Y-49549283D01*
X125623128Y-49518993D01*
X125602233Y-49484843D01*
X125586393Y-49444676D01*
X125574938Y-49396334D01*
X125567200Y-49337662D01*
X125562509Y-49266503D01*
X125560387Y-49231512D01*
X125556766Y-49194004D01*
X125552346Y-49163203D01*
X125547617Y-49143174D01*
X125537064Y-49122659D01*
X125512138Y-49091106D01*
X125475420Y-49054895D01*
X125427848Y-49014933D01*
X125370361Y-48972125D01*
X125311825Y-48927704D01*
X125259730Y-48879937D01*
X125220283Y-48832434D01*
X125192495Y-48783753D01*
X125175378Y-48732453D01*
X125167940Y-48677091D01*
X125167531Y-48666737D01*
X125170313Y-48613372D01*
X125182922Y-48567599D01*
X125206852Y-48525588D01*
X125243602Y-48483509D01*
X125259053Y-48468914D01*
X125303689Y-48433901D01*
X125356018Y-48402523D01*
X125417468Y-48374172D01*
X125489464Y-48348239D01*
X125573432Y-48324116D01*
X125670799Y-48301193D01*
X125677573Y-48299736D01*
X125716918Y-48291500D01*
X125749314Y-48285471D01*
X125778393Y-48281307D01*
X125807785Y-48278669D01*
X125841121Y-48277214D01*
X125882031Y-48276604D01*
X125934146Y-48276497D01*
X125984659Y-48277031D01*
G37*
G36*
X126113697Y-43936192D02*
G01*
X126120369Y-43947146D01*
X126133947Y-43970101D01*
X126154049Y-44004396D01*
X126180292Y-44049373D01*
X126212295Y-44104372D01*
X126249675Y-44168732D01*
X126292049Y-44241793D01*
X126339035Y-44322897D01*
X126390252Y-44411383D01*
X126445316Y-44506591D01*
X126503845Y-44607861D01*
X126565457Y-44714534D01*
X126629769Y-44825950D01*
X126696400Y-44941448D01*
X126764967Y-45060369D01*
X126780432Y-45087198D01*
X126849161Y-45206415D01*
X126916143Y-45322576D01*
X126980975Y-45434982D01*
X127043251Y-45542934D01*
X127102568Y-45645730D01*
X127158522Y-45742672D01*
X127210708Y-45833058D01*
X127258722Y-45916189D01*
X127302159Y-45991365D01*
X127340615Y-46057885D01*
X127373687Y-46115050D01*
X127400968Y-46162160D01*
X127422057Y-46198515D01*
X127436547Y-46223414D01*
X127444035Y-46236158D01*
X127451704Y-46249033D01*
X127471025Y-46281838D01*
X127494685Y-46322369D01*
X127521844Y-46369158D01*
X127551661Y-46420735D01*
X127583296Y-46475632D01*
X127615908Y-46532379D01*
X127648656Y-46589507D01*
X127680699Y-46645546D01*
X127711197Y-46699028D01*
X127739310Y-46748483D01*
X127764196Y-46792441D01*
X127785016Y-46829435D01*
X127800927Y-46857994D01*
X127811091Y-46876649D01*
X127814666Y-46883931D01*
X127809559Y-46888329D01*
X127793145Y-46899228D01*
X127767069Y-46915469D01*
X127733029Y-46936013D01*
X127692724Y-46959823D01*
X127647853Y-46985860D01*
X127606814Y-47009584D01*
X127566048Y-47033399D01*
X127531383Y-47053917D01*
X127504516Y-47070122D01*
X127487142Y-47081002D01*
X127480959Y-47085545D01*
X127480959Y-47085565D01*
X127485915Y-47092131D01*
X127499241Y-47107045D01*
X127518921Y-47128109D01*
X127542942Y-47153127D01*
X127574326Y-47187458D01*
X127614077Y-47240624D01*
X127642931Y-47295246D01*
X127662042Y-47354321D01*
X127672564Y-47420844D01*
X127675651Y-47497811D01*
X127675420Y-47515452D01*
X127668175Y-47603642D01*
X127650836Y-47681349D01*
X127623454Y-47748332D01*
X127614666Y-47765089D01*
X127605467Y-47782796D01*
X127600959Y-47791702D01*
X127600951Y-47791724D01*
X127606875Y-47789046D01*
X127623971Y-47779855D01*
X127650623Y-47765077D01*
X127685218Y-47745639D01*
X127726139Y-47722467D01*
X127771770Y-47696489D01*
X127820497Y-47668632D01*
X127870705Y-47639822D01*
X127920777Y-47610987D01*
X127969100Y-47583052D01*
X128014056Y-47556946D01*
X128054031Y-47533594D01*
X128087410Y-47513925D01*
X128112578Y-47498863D01*
X128127918Y-47489337D01*
X128155569Y-47471303D01*
X128165988Y-47487989D01*
X128167099Y-47489859D01*
X128174827Y-47503135D01*
X128189485Y-47528432D01*
X128210736Y-47565169D01*
X128238244Y-47612763D01*
X128271675Y-47670634D01*
X128310692Y-47738200D01*
X128354960Y-47814879D01*
X128404143Y-47900089D01*
X128457905Y-47993250D01*
X128515911Y-48093778D01*
X128577825Y-48201094D01*
X128643312Y-48314614D01*
X128712036Y-48433758D01*
X128783661Y-48557944D01*
X128857851Y-48686590D01*
X128934271Y-48819115D01*
X129012585Y-48954937D01*
X129045830Y-49012595D01*
X129123464Y-49147232D01*
X129199095Y-49278385D01*
X129272386Y-49405467D01*
X129342999Y-49527893D01*
X129410595Y-49645078D01*
X129474836Y-49756435D01*
X129535385Y-49861380D01*
X129591904Y-49959326D01*
X129644054Y-50049689D01*
X129691499Y-50131883D01*
X129733899Y-50205321D01*
X129770918Y-50269419D01*
X129802216Y-50323592D01*
X129827457Y-50367252D01*
X129846302Y-50399816D01*
X129858413Y-50420697D01*
X129863453Y-50429309D01*
X129878142Y-50453419D01*
X126441415Y-50453419D01*
X126195061Y-50453405D01*
X125952775Y-50453363D01*
X125717415Y-50453294D01*
X125489342Y-50453199D01*
X125268915Y-50453077D01*
X125056494Y-50452931D01*
X124852438Y-50452761D01*
X124657107Y-50452566D01*
X124470861Y-50452349D01*
X124294058Y-50452109D01*
X124127058Y-50451848D01*
X123970221Y-50451566D01*
X123823906Y-50451263D01*
X123688473Y-50450941D01*
X123564281Y-50450600D01*
X123451691Y-50450241D01*
X123351060Y-50449865D01*
X123262750Y-50449472D01*
X123187119Y-50449063D01*
X123124526Y-50448638D01*
X123075332Y-50448199D01*
X123039896Y-50447745D01*
X123018578Y-50447279D01*
X123011736Y-50446800D01*
X123018872Y-50442387D01*
X123038141Y-50430983D01*
X123068824Y-50413007D01*
X123110199Y-50388877D01*
X123161547Y-50359009D01*
X123222145Y-50323822D01*
X123291274Y-50283734D01*
X123368212Y-50239162D01*
X123452239Y-50190524D01*
X123542634Y-50138237D01*
X123638676Y-50082720D01*
X123739645Y-50024391D01*
X123844820Y-49963666D01*
X123953480Y-49900964D01*
X123953855Y-49900748D01*
X124062464Y-49838079D01*
X124167562Y-49777409D01*
X124268431Y-49719154D01*
X124364352Y-49663731D01*
X124454606Y-49611556D01*
X124538475Y-49563044D01*
X124615239Y-49518611D01*
X124684181Y-49478675D01*
X124744581Y-49443651D01*
X124795721Y-49413956D01*
X124836882Y-49390005D01*
X124867345Y-49372214D01*
X124886392Y-49361001D01*
X124893303Y-49356780D01*
X124891836Y-49351118D01*
X124882604Y-49336135D01*
X124866901Y-49314516D01*
X124846447Y-49288757D01*
X124822735Y-49259521D01*
X124788513Y-49216296D01*
X124749922Y-49166716D01*
X124708909Y-49113343D01*
X124667421Y-49058742D01*
X124627405Y-49005478D01*
X124590806Y-48956115D01*
X124559572Y-48913216D01*
X124535649Y-48879347D01*
X124514772Y-48849550D01*
X124499318Y-48829203D01*
X124488722Y-48818150D01*
X124481396Y-48814748D01*
X124475753Y-48817353D01*
X124472709Y-48819390D01*
X124457791Y-48828460D01*
X124431213Y-48844247D01*
X124393721Y-48866316D01*
X124346060Y-48894235D01*
X124288977Y-48927568D01*
X124223216Y-48965883D01*
X124149524Y-49008745D01*
X124068646Y-49055719D01*
X123981328Y-49106374D01*
X123888316Y-49160273D01*
X123790354Y-49216984D01*
X123688190Y-49276073D01*
X123582569Y-49337105D01*
X123517852Y-49374484D01*
X123414387Y-49434244D01*
X123314881Y-49491717D01*
X123220076Y-49546476D01*
X123130712Y-49598092D01*
X123047530Y-49646139D01*
X122971271Y-49690187D01*
X122902674Y-49729810D01*
X122842482Y-49764580D01*
X122791433Y-49794068D01*
X122750270Y-49817847D01*
X122719732Y-49835490D01*
X122700561Y-49846567D01*
X122693496Y-49850652D01*
X122692501Y-49851320D01*
X122691322Y-49852150D01*
X122690529Y-49852427D01*
X122690456Y-49851566D01*
X122691437Y-49848982D01*
X122693806Y-49844088D01*
X122697900Y-49836299D01*
X122704052Y-49825028D01*
X122712596Y-49809691D01*
X122723868Y-49789702D01*
X122738201Y-49764474D01*
X122755931Y-49733422D01*
X122777392Y-49695961D01*
X122802919Y-49651504D01*
X122832846Y-49599466D01*
X122867507Y-49539262D01*
X122907238Y-49470304D01*
X122952373Y-49392009D01*
X123003246Y-49303789D01*
X123060192Y-49205059D01*
X123123546Y-49095234D01*
X123193642Y-48973728D01*
X123270815Y-48839955D01*
X123288962Y-48808490D01*
X123352975Y-48697397D01*
X123415014Y-48589563D01*
X123474661Y-48485725D01*
X123531496Y-48386621D01*
X123585098Y-48292988D01*
X123635048Y-48205563D01*
X123680927Y-48125082D01*
X123722313Y-48052284D01*
X123758788Y-47987905D01*
X123789932Y-47932682D01*
X123815325Y-47887352D01*
X123834547Y-47852653D01*
X123847178Y-47829321D01*
X123852798Y-47818094D01*
X123861317Y-47798214D01*
X123869610Y-47781807D01*
X123874595Y-47775550D01*
X123879498Y-47780081D01*
X123891688Y-47795187D01*
X123909614Y-47819055D01*
X123931932Y-47849779D01*
X123957302Y-47885453D01*
X123984379Y-47924171D01*
X124011823Y-47964027D01*
X124038291Y-48003116D01*
X124062440Y-48039531D01*
X124082929Y-48071366D01*
X124105305Y-48106079D01*
X124131988Y-48145946D01*
X124157705Y-48183002D01*
X124179089Y-48212312D01*
X124183526Y-48218185D01*
X124215655Y-48262485D01*
X124254341Y-48318435D01*
X124298876Y-48384982D01*
X124348551Y-48461069D01*
X124402660Y-48545642D01*
X124415051Y-48565151D01*
X124476025Y-48660006D01*
X124533417Y-48747049D01*
X124589151Y-48828975D01*
X124645153Y-48908478D01*
X124703350Y-48988253D01*
X124765666Y-49070997D01*
X124834028Y-49159403D01*
X124910361Y-49256167D01*
X124937703Y-49290636D01*
X124967046Y-49327789D01*
X124993472Y-49361409D01*
X125014868Y-49388806D01*
X125029122Y-49407293D01*
X125038308Y-49418855D01*
X125074351Y-49458083D01*
X125117669Y-49498425D01*
X125164302Y-49536574D01*
X125210289Y-49569224D01*
X125251669Y-49593067D01*
X125273185Y-49603333D01*
X125305545Y-49617869D01*
X125337835Y-49630972D01*
X125371400Y-49642941D01*
X125407584Y-49654075D01*
X125447732Y-49664673D01*
X125493188Y-49675034D01*
X125545297Y-49685456D01*
X125605403Y-49696240D01*
X125674851Y-49707683D01*
X125754985Y-49720085D01*
X125847151Y-49733745D01*
X125952691Y-49748962D01*
X126004220Y-49756722D01*
X126078301Y-49769696D01*
X126148853Y-49784687D01*
X126220137Y-49802716D01*
X126296416Y-49824808D01*
X126381953Y-49851985D01*
X126400923Y-49858226D01*
X126477839Y-49883913D01*
X126544151Y-49906830D01*
X126602840Y-49928079D01*
X126656886Y-49948761D01*
X126709271Y-49969979D01*
X126762977Y-49992834D01*
X126824612Y-50019094D01*
X126895341Y-50047485D01*
X126956288Y-50069523D01*
X127009233Y-50085737D01*
X127055958Y-50096661D01*
X127098243Y-50102825D01*
X127137868Y-50104762D01*
X127206835Y-50099029D01*
X127277057Y-50081317D01*
X127342743Y-50052851D01*
X127401975Y-50014871D01*
X127452836Y-49968617D01*
X127493410Y-49915330D01*
X127521780Y-49856251D01*
X127522115Y-49855282D01*
X127529345Y-49825467D01*
X127534943Y-49784889D01*
X127538369Y-49737419D01*
X127539214Y-49704864D01*
X127536857Y-49651532D01*
X127528406Y-49603282D01*
X127512710Y-49554635D01*
X127488622Y-49500107D01*
X127485356Y-49493461D01*
X127449329Y-49432811D01*
X127405752Y-49381966D01*
X127351132Y-49336775D01*
X127346426Y-49333475D01*
X127308445Y-49309650D01*
X127262840Y-49284708D01*
X127213599Y-49260524D01*
X127164713Y-49238973D01*
X127120174Y-49221929D01*
X127083970Y-49211267D01*
X127055610Y-49204626D01*
X127015034Y-49193183D01*
X126987113Y-49181765D01*
X126970480Y-49169544D01*
X126963766Y-49155687D01*
X126965605Y-49139365D01*
X126967339Y-49135195D01*
X126981676Y-49123506D01*
X127007269Y-49121226D01*
X127043923Y-49128383D01*
X127092292Y-49139976D01*
X127143905Y-49147991D01*
X127201591Y-49152654D01*
X127268191Y-49154194D01*
X127346545Y-49152841D01*
X127388667Y-49151186D01*
X127458461Y-49146418D01*
X127519164Y-49138786D01*
X127574470Y-49127455D01*
X127628072Y-49111591D01*
X127683666Y-49090361D01*
X127744945Y-49062932D01*
X127838655Y-49012558D01*
X127931950Y-48947459D01*
X128018917Y-48869792D01*
X128060398Y-48826089D01*
X128092683Y-48785890D01*
X128117569Y-48745860D01*
X128137562Y-48701961D01*
X128155168Y-48650154D01*
X128164529Y-48617598D01*
X128175831Y-48569642D01*
X128182890Y-48523235D01*
X128186438Y-48472961D01*
X128187208Y-48413407D01*
X128186844Y-48389364D01*
X128182328Y-48318910D01*
X128172171Y-48258111D01*
X128155662Y-48203589D01*
X128132089Y-48151964D01*
X128126796Y-48142598D01*
X128097452Y-48101199D01*
X128059548Y-48059334D01*
X128017227Y-48021236D01*
X127974634Y-47991137D01*
X127958300Y-47981947D01*
X127900015Y-47955464D01*
X127831616Y-47932012D01*
X127756578Y-47912536D01*
X127678376Y-47897983D01*
X127600487Y-47889298D01*
X127533776Y-47884562D01*
X127433925Y-47978895D01*
X127424951Y-47987351D01*
X127344694Y-48060699D01*
X127270929Y-48123543D01*
X127201737Y-48177307D01*
X127135193Y-48223412D01*
X127069378Y-48263281D01*
X127002370Y-48298335D01*
X126993180Y-48302751D01*
X126948167Y-48323260D01*
X126902776Y-48342320D01*
X126859748Y-48358914D01*
X126821822Y-48372025D01*
X126791737Y-48380637D01*
X126772235Y-48383734D01*
X126768295Y-48383441D01*
X126750519Y-48374789D01*
X126738616Y-48358169D01*
X126736917Y-48339059D01*
X126739334Y-48333145D01*
X126744813Y-48327534D01*
X126755500Y-48321467D01*
X126773616Y-48313897D01*
X126801384Y-48303781D01*
X126841024Y-48290073D01*
X126849789Y-48287032D01*
X126937482Y-48251804D01*
X127023645Y-48208031D01*
X127109781Y-48154706D01*
X127197393Y-48090823D01*
X127287983Y-48015377D01*
X127383057Y-47927362D01*
X127415616Y-47895428D01*
X127464846Y-47844579D01*
X127504259Y-47799416D01*
X127535167Y-47757881D01*
X127558883Y-47717913D01*
X127576716Y-47677455D01*
X127589980Y-47634447D01*
X127599985Y-47586831D01*
X127603922Y-47556471D01*
X127606137Y-47501506D01*
X127603490Y-47444283D01*
X127596325Y-47390331D01*
X127584985Y-47345183D01*
X127570566Y-47310227D01*
X127533857Y-47250164D01*
X127483098Y-47192424D01*
X127418734Y-47137481D01*
X127341214Y-47085812D01*
X127297135Y-47062350D01*
X127212113Y-47029732D01*
X127118006Y-47008189D01*
X127015404Y-46997801D01*
X126904897Y-46998647D01*
X126787076Y-47010807D01*
X126772774Y-47012967D01*
X126626287Y-47042008D01*
X126486825Y-47082998D01*
X126351634Y-47136876D01*
X126217959Y-47204579D01*
X126198265Y-47215777D01*
X126167772Y-47233756D01*
X126142153Y-47249611D01*
X126125488Y-47260857D01*
X126101701Y-47278681D01*
X126130607Y-47319946D01*
X126142467Y-47337984D01*
X126173397Y-47396542D01*
X126197924Y-47460339D01*
X126213217Y-47522439D01*
X126214140Y-47528423D01*
X126217467Y-47591101D01*
X126211396Y-47660790D01*
X126196865Y-47734285D01*
X126174811Y-47808381D01*
X126146171Y-47879874D01*
X126111883Y-47945558D01*
X126072885Y-48002229D01*
X126036053Y-48041980D01*
X125978154Y-48089922D01*
X125909383Y-48134549D01*
X125831915Y-48174757D01*
X125747925Y-48209444D01*
X125659586Y-48237506D01*
X125569075Y-48257839D01*
X125556881Y-48259860D01*
X125525877Y-48262705D01*
X125506167Y-48259403D01*
X125495785Y-48249280D01*
X125492761Y-48231660D01*
X125492774Y-48230288D01*
X125494925Y-48218054D01*
X125502383Y-48208574D01*
X125517483Y-48200567D01*
X125542559Y-48192752D01*
X125579946Y-48183850D01*
X125684380Y-48156204D01*
X125781490Y-48120863D01*
X125866614Y-48079017D01*
X125939174Y-48030950D01*
X125998592Y-47976949D01*
X126013227Y-47960124D01*
X126051887Y-47904866D01*
X126085121Y-47841397D01*
X126112021Y-47772768D01*
X126131680Y-47702030D01*
X126143190Y-47632234D01*
X126145644Y-47566433D01*
X126138135Y-47507677D01*
X126135865Y-47499067D01*
X126123472Y-47463733D01*
X126105846Y-47423406D01*
X126085541Y-47383608D01*
X126065113Y-47349863D01*
X126063617Y-47347693D01*
X126035829Y-47313603D01*
X126000482Y-47278346D01*
X125962617Y-47246565D01*
X125927275Y-47222905D01*
X125868346Y-47194791D01*
X125788662Y-47167294D01*
X125699869Y-47145942D01*
X125604461Y-47131015D01*
X125504930Y-47122798D01*
X125403772Y-47121572D01*
X125303478Y-47127620D01*
X125206544Y-47141224D01*
X125152424Y-47152051D01*
X125039230Y-47180914D01*
X124938209Y-47216174D01*
X124848309Y-47258293D01*
X124768482Y-47307732D01*
X124697679Y-47364953D01*
X124683709Y-47377369D01*
X124658974Y-47395783D01*
X124640206Y-47402969D01*
X124625448Y-47399403D01*
X124612741Y-47385558D01*
X124605098Y-47371952D01*
X124605550Y-47361260D01*
X124614962Y-47346612D01*
X124617570Y-47343257D01*
X124637192Y-47322856D01*
X124665911Y-47297658D01*
X124700699Y-47269995D01*
X124738528Y-47242197D01*
X124776371Y-47216595D01*
X124811201Y-47195521D01*
X124821989Y-47189682D01*
X124877748Y-47163557D01*
X124943810Y-47137983D01*
X125016509Y-47114286D01*
X125092177Y-47093796D01*
X125119625Y-47087400D01*
X125165597Y-47077680D01*
X125211291Y-47069055D01*
X125253174Y-47062139D01*
X125287715Y-47057540D01*
X125311380Y-47055872D01*
X125318987Y-47055903D01*
X125330393Y-47055762D01*
X125339066Y-47054668D01*
X125344388Y-47051798D01*
X125345740Y-47046331D01*
X125342504Y-47037444D01*
X125334062Y-47024316D01*
X125319795Y-47006123D01*
X125299085Y-46982045D01*
X125271313Y-46951259D01*
X125235862Y-46912943D01*
X125192113Y-46866276D01*
X125139448Y-46810433D01*
X125077247Y-46744595D01*
X125058630Y-46724866D01*
X125022772Y-46686716D01*
X124989226Y-46650760D01*
X124956256Y-46615098D01*
X124922126Y-46577831D01*
X124885101Y-46537058D01*
X124843445Y-46490880D01*
X124795421Y-46437396D01*
X124739294Y-46374708D01*
X124709104Y-46340956D01*
X124731876Y-46306272D01*
X124734893Y-46301356D01*
X124745446Y-46283527D01*
X124762769Y-46253922D01*
X124786480Y-46213205D01*
X124816194Y-46162039D01*
X124851529Y-46101088D01*
X124892102Y-46031012D01*
X124937529Y-45952477D01*
X124987427Y-45866144D01*
X125041413Y-45772677D01*
X125099103Y-45672739D01*
X125160114Y-45566992D01*
X125224063Y-45456099D01*
X125290567Y-45340724D01*
X125359243Y-45221529D01*
X125429706Y-45099177D01*
X125468701Y-45031465D01*
X125553963Y-44883511D01*
X125632194Y-44747908D01*
X125703616Y-44624279D01*
X125768450Y-44512247D01*
X125826917Y-44411435D01*
X125879239Y-44321468D01*
X125925636Y-44241967D01*
X125966330Y-44172558D01*
X126001541Y-44112862D01*
X126031492Y-44062504D01*
X126056403Y-44021107D01*
X126076495Y-43988293D01*
X126091990Y-43963687D01*
X126103108Y-43946912D01*
X126110072Y-43937591D01*
X126113101Y-43935347D01*
X126113697Y-43936192D01*
G37*
G36*
X93831958Y-26852647D02*
G01*
X93929897Y-26878020D01*
X94025876Y-26918098D01*
X94119896Y-26972883D01*
X94183471Y-27023830D01*
X94238079Y-27086244D01*
X94281942Y-27158699D01*
X94293414Y-27182313D01*
X94304291Y-27207691D01*
X94310360Y-27228768D01*
X94312958Y-27250629D01*
X94313423Y-27278360D01*
X94311998Y-27312380D01*
X94307028Y-27340253D01*
X94297534Y-27363670D01*
X94285776Y-27383439D01*
X94251799Y-27421694D01*
X94207974Y-27449418D01*
X94153447Y-27467226D01*
X94135050Y-27470649D01*
X94083860Y-27476232D01*
X94026392Y-27478265D01*
X93967830Y-27476810D01*
X93913362Y-27471933D01*
X93868174Y-27463698D01*
X93797471Y-27441108D01*
X93710957Y-27399791D01*
X93628823Y-27344449D01*
X93550822Y-27274935D01*
X93550635Y-27274747D01*
X93500874Y-27217923D01*
X93463964Y-27161194D01*
X93440286Y-27105454D01*
X93430221Y-27051599D01*
X93434150Y-27000523D01*
X93440800Y-26978638D01*
X93464794Y-26936556D01*
X93501831Y-26899758D01*
X93551039Y-26869223D01*
X93551407Y-26869042D01*
X93574633Y-26858271D01*
X93594887Y-26851112D01*
X93616622Y-26846647D01*
X93644288Y-26843957D01*
X93682340Y-26842123D01*
X93732057Y-26841980D01*
X93831958Y-26852647D01*
G37*
G36*
X94408301Y-25839232D02*
G01*
X94461711Y-25845640D01*
X94531999Y-25856947D01*
X94590817Y-25870788D01*
X94640159Y-25887902D01*
X94682022Y-25909029D01*
X94718401Y-25934907D01*
X94751293Y-25966278D01*
X94779506Y-26002051D01*
X94808365Y-26057477D01*
X94824784Y-26117120D01*
X94828886Y-26178920D01*
X94820798Y-26240814D01*
X94800644Y-26300744D01*
X94768548Y-26356647D01*
X94724636Y-26406464D01*
X94689127Y-26435202D01*
X94629658Y-26471840D01*
X94560168Y-26504311D01*
X94483334Y-26531563D01*
X94401833Y-26552542D01*
X94318342Y-26566196D01*
X94283205Y-26569178D01*
X94227973Y-26570834D01*
X94169544Y-26569763D01*
X94112394Y-26566175D01*
X94061004Y-26560279D01*
X94019851Y-26552283D01*
X93973274Y-26537988D01*
X93905068Y-26507146D01*
X93848527Y-26467897D01*
X93804029Y-26420792D01*
X93771950Y-26366381D01*
X93752670Y-26305215D01*
X93746565Y-26237843D01*
X93754013Y-26164817D01*
X93760146Y-26138480D01*
X93785255Y-26075165D01*
X93823613Y-26017808D01*
X93874783Y-25966876D01*
X93938330Y-25922836D01*
X94013817Y-25886157D01*
X94049091Y-25873696D01*
X94114570Y-25856993D01*
X94187504Y-25844686D01*
X94263619Y-25837285D01*
X94338643Y-25835298D01*
X94408301Y-25839232D01*
G37*
G36*
X92729389Y-25043934D02*
G01*
X92776926Y-25049969D01*
X92813839Y-25059815D01*
X92824671Y-25064189D01*
X92874586Y-25090979D01*
X92912845Y-25124845D01*
X92941341Y-25167383D01*
X92952052Y-25189876D01*
X92959217Y-25211671D01*
X92962228Y-25235381D01*
X92962441Y-25267430D01*
X92961335Y-25288805D01*
X92948688Y-25353199D01*
X92922174Y-25412396D01*
X92881831Y-25466352D01*
X92827697Y-25515022D01*
X92759813Y-25558360D01*
X92678217Y-25596322D01*
X92609446Y-25621463D01*
X92541413Y-25641497D01*
X92481634Y-25653816D01*
X92425948Y-25658956D01*
X92356187Y-25656198D01*
X92291726Y-25643185D01*
X92234788Y-25620411D01*
X92187594Y-25588371D01*
X92176305Y-25577537D01*
X92146632Y-25538248D01*
X92124691Y-25492206D01*
X92111615Y-25443187D01*
X92108534Y-25394970D01*
X92116582Y-25351332D01*
X92118190Y-25346843D01*
X92145166Y-25290233D01*
X92182851Y-25234883D01*
X92228250Y-25184174D01*
X92278368Y-25141485D01*
X92330211Y-25110198D01*
X92349345Y-25101331D01*
X92368819Y-25093107D01*
X92388444Y-25086171D01*
X92411103Y-25079712D01*
X92439683Y-25072919D01*
X92477068Y-25064980D01*
X92526143Y-25055083D01*
X92560334Y-25049321D01*
X92617362Y-25043549D01*
X92674957Y-25041774D01*
X92729389Y-25043934D01*
G37*
G36*
X94071833Y-24885274D02*
G01*
X94107801Y-24894350D01*
X94169999Y-24919615D01*
X94221287Y-24954903D01*
X94261830Y-25000379D01*
X94291790Y-25056203D01*
X94311333Y-25122540D01*
X94314899Y-25148771D01*
X94313344Y-25205982D01*
X94301032Y-25266617D01*
X94279005Y-25327447D01*
X94248305Y-25385240D01*
X94209974Y-25436763D01*
X94204732Y-25442579D01*
X94166608Y-25480356D01*
X94119722Y-25520916D01*
X94067975Y-25561038D01*
X94015268Y-25597501D01*
X94012244Y-25599453D01*
X93973476Y-25623261D01*
X93940494Y-25640401D01*
X93907918Y-25653365D01*
X93870372Y-25664643D01*
X93850305Y-25669198D01*
X93792482Y-25675121D01*
X93732699Y-25672446D01*
X93678069Y-25661297D01*
X93644389Y-25648918D01*
X93583738Y-25616471D01*
X93528762Y-25574042D01*
X93482444Y-25524120D01*
X93447765Y-25469191D01*
X93447197Y-25468035D01*
X93435326Y-25441495D01*
X93427942Y-25417431D01*
X93423728Y-25390075D01*
X93421366Y-25353659D01*
X93420698Y-25321960D01*
X93424761Y-25261966D01*
X93436989Y-25208451D01*
X93458228Y-25156896D01*
X93476211Y-25125916D01*
X93515079Y-25075769D01*
X93563433Y-25027871D01*
X93618116Y-24985211D01*
X93675968Y-24950780D01*
X93678752Y-24949393D01*
X93740596Y-24923486D01*
X93808899Y-24902841D01*
X93879917Y-24888078D01*
X93949907Y-24879816D01*
X94015127Y-24878675D01*
X94071833Y-24885274D01*
G37*
G36*
X92984659Y-25777031D02*
G01*
X93061700Y-25780667D01*
X93128628Y-25788470D01*
X93188261Y-25801286D01*
X93243413Y-25819963D01*
X93296900Y-25845347D01*
X93351539Y-25878285D01*
X93410145Y-25919624D01*
X93434147Y-25938081D01*
X93504924Y-26001360D01*
X93561711Y-26067966D01*
X93605053Y-26138924D01*
X93635497Y-26215261D01*
X93653591Y-26298002D01*
X93659881Y-26388173D01*
X93658721Y-26441258D01*
X93653129Y-26493639D01*
X93641889Y-26543000D01*
X93623845Y-26594251D01*
X93597846Y-26652302D01*
X93548156Y-26744182D01*
X93489563Y-26831359D01*
X93424661Y-26909811D01*
X93354704Y-26978317D01*
X93280943Y-27035654D01*
X93204631Y-27080599D01*
X93127019Y-27111931D01*
X93124300Y-27112766D01*
X93088939Y-27122600D01*
X93052750Y-27131158D01*
X93023164Y-27136670D01*
X93006330Y-27138908D01*
X92917011Y-27144585D01*
X92836766Y-27138537D01*
X92765601Y-27120763D01*
X92703521Y-27091266D01*
X92650532Y-27050047D01*
X92649749Y-27049283D01*
X92623128Y-27018993D01*
X92602233Y-26984843D01*
X92586393Y-26944676D01*
X92574938Y-26896334D01*
X92567200Y-26837662D01*
X92562509Y-26766503D01*
X92560387Y-26731512D01*
X92556766Y-26694004D01*
X92552346Y-26663203D01*
X92547617Y-26643174D01*
X92537064Y-26622659D01*
X92512138Y-26591106D01*
X92475420Y-26554895D01*
X92427848Y-26514933D01*
X92370361Y-26472125D01*
X92311825Y-26427704D01*
X92259730Y-26379937D01*
X92220283Y-26332434D01*
X92192495Y-26283753D01*
X92175378Y-26232453D01*
X92167940Y-26177091D01*
X92167531Y-26166737D01*
X92170313Y-26113372D01*
X92182922Y-26067599D01*
X92206852Y-26025588D01*
X92243602Y-25983509D01*
X92259053Y-25968914D01*
X92303689Y-25933901D01*
X92356018Y-25902523D01*
X92417468Y-25874172D01*
X92489464Y-25848239D01*
X92573432Y-25824116D01*
X92670799Y-25801193D01*
X92677573Y-25799736D01*
X92716918Y-25791500D01*
X92749314Y-25785471D01*
X92778393Y-25781307D01*
X92807785Y-25778669D01*
X92841121Y-25777214D01*
X92882031Y-25776604D01*
X92934146Y-25776497D01*
X92984659Y-25777031D01*
G37*
G36*
X93113697Y-21436192D02*
G01*
X93120369Y-21447146D01*
X93133947Y-21470101D01*
X93154049Y-21504396D01*
X93180292Y-21549373D01*
X93212295Y-21604372D01*
X93249675Y-21668732D01*
X93292049Y-21741793D01*
X93339035Y-21822897D01*
X93390252Y-21911383D01*
X93445316Y-22006591D01*
X93503845Y-22107861D01*
X93565457Y-22214534D01*
X93629769Y-22325950D01*
X93696400Y-22441448D01*
X93764967Y-22560369D01*
X93780432Y-22587198D01*
X93849161Y-22706415D01*
X93916143Y-22822576D01*
X93980975Y-22934982D01*
X94043251Y-23042934D01*
X94102568Y-23145730D01*
X94158522Y-23242672D01*
X94210708Y-23333058D01*
X94258722Y-23416189D01*
X94302159Y-23491365D01*
X94340615Y-23557885D01*
X94373687Y-23615050D01*
X94400968Y-23662160D01*
X94422057Y-23698515D01*
X94436547Y-23723414D01*
X94444035Y-23736158D01*
X94451704Y-23749033D01*
X94471025Y-23781838D01*
X94494685Y-23822369D01*
X94521844Y-23869158D01*
X94551661Y-23920735D01*
X94583296Y-23975632D01*
X94615908Y-24032379D01*
X94648656Y-24089507D01*
X94680699Y-24145546D01*
X94711197Y-24199028D01*
X94739310Y-24248483D01*
X94764196Y-24292441D01*
X94785016Y-24329435D01*
X94800927Y-24357994D01*
X94811091Y-24376649D01*
X94814666Y-24383931D01*
X94809559Y-24388329D01*
X94793145Y-24399228D01*
X94767069Y-24415469D01*
X94733029Y-24436013D01*
X94692724Y-24459823D01*
X94647853Y-24485860D01*
X94606814Y-24509584D01*
X94566048Y-24533399D01*
X94531383Y-24553917D01*
X94504516Y-24570122D01*
X94487142Y-24581002D01*
X94480959Y-24585545D01*
X94480959Y-24585565D01*
X94485915Y-24592131D01*
X94499241Y-24607045D01*
X94518921Y-24628109D01*
X94542942Y-24653127D01*
X94574326Y-24687458D01*
X94614077Y-24740624D01*
X94642931Y-24795246D01*
X94662042Y-24854321D01*
X94672564Y-24920844D01*
X94675651Y-24997811D01*
X94675420Y-25015452D01*
X94668175Y-25103642D01*
X94650836Y-25181349D01*
X94623454Y-25248332D01*
X94614666Y-25265089D01*
X94605467Y-25282796D01*
X94600959Y-25291702D01*
X94600951Y-25291724D01*
X94606875Y-25289046D01*
X94623971Y-25279855D01*
X94650623Y-25265077D01*
X94685218Y-25245639D01*
X94726139Y-25222467D01*
X94771770Y-25196489D01*
X94820497Y-25168632D01*
X94870705Y-25139822D01*
X94920777Y-25110987D01*
X94969100Y-25083052D01*
X95014056Y-25056946D01*
X95054031Y-25033594D01*
X95087410Y-25013925D01*
X95112578Y-24998863D01*
X95127918Y-24989337D01*
X95155569Y-24971303D01*
X95165988Y-24987989D01*
X95167099Y-24989859D01*
X95174827Y-25003135D01*
X95189485Y-25028432D01*
X95210736Y-25065169D01*
X95238244Y-25112763D01*
X95271675Y-25170634D01*
X95310692Y-25238200D01*
X95354960Y-25314879D01*
X95404143Y-25400089D01*
X95457905Y-25493250D01*
X95515911Y-25593778D01*
X95577825Y-25701094D01*
X95643312Y-25814614D01*
X95712036Y-25933758D01*
X95783661Y-26057944D01*
X95857851Y-26186590D01*
X95934271Y-26319115D01*
X96012585Y-26454937D01*
X96045830Y-26512595D01*
X96123464Y-26647232D01*
X96199095Y-26778385D01*
X96272386Y-26905467D01*
X96342999Y-27027893D01*
X96410595Y-27145078D01*
X96474836Y-27256435D01*
X96535385Y-27361380D01*
X96591904Y-27459326D01*
X96644054Y-27549689D01*
X96691499Y-27631883D01*
X96733899Y-27705321D01*
X96770918Y-27769419D01*
X96802216Y-27823592D01*
X96827457Y-27867252D01*
X96846302Y-27899816D01*
X96858413Y-27920697D01*
X96863453Y-27929309D01*
X96878142Y-27953419D01*
X93441415Y-27953419D01*
X93195061Y-27953405D01*
X92952775Y-27953363D01*
X92717415Y-27953294D01*
X92489342Y-27953199D01*
X92268915Y-27953077D01*
X92056494Y-27952931D01*
X91852438Y-27952761D01*
X91657107Y-27952566D01*
X91470861Y-27952349D01*
X91294058Y-27952109D01*
X91127058Y-27951848D01*
X90970221Y-27951566D01*
X90823906Y-27951263D01*
X90688473Y-27950941D01*
X90564281Y-27950600D01*
X90451691Y-27950241D01*
X90351060Y-27949865D01*
X90262750Y-27949472D01*
X90187119Y-27949063D01*
X90124526Y-27948638D01*
X90075332Y-27948199D01*
X90039896Y-27947745D01*
X90018578Y-27947279D01*
X90011736Y-27946800D01*
X90018872Y-27942387D01*
X90038141Y-27930983D01*
X90068824Y-27913007D01*
X90110199Y-27888877D01*
X90161547Y-27859009D01*
X90222145Y-27823822D01*
X90291274Y-27783734D01*
X90368212Y-27739162D01*
X90452239Y-27690524D01*
X90542634Y-27638237D01*
X90638676Y-27582720D01*
X90739645Y-27524391D01*
X90844820Y-27463666D01*
X90953480Y-27400964D01*
X90953855Y-27400748D01*
X91062464Y-27338079D01*
X91167562Y-27277409D01*
X91268431Y-27219154D01*
X91364352Y-27163731D01*
X91454606Y-27111556D01*
X91538475Y-27063044D01*
X91615239Y-27018611D01*
X91684181Y-26978675D01*
X91744581Y-26943651D01*
X91795721Y-26913956D01*
X91836882Y-26890005D01*
X91867345Y-26872214D01*
X91886392Y-26861001D01*
X91893303Y-26856780D01*
X91891836Y-26851118D01*
X91882604Y-26836135D01*
X91866901Y-26814516D01*
X91846447Y-26788757D01*
X91822735Y-26759521D01*
X91788513Y-26716296D01*
X91749922Y-26666716D01*
X91708909Y-26613343D01*
X91667421Y-26558742D01*
X91627405Y-26505478D01*
X91590806Y-26456115D01*
X91559572Y-26413216D01*
X91535649Y-26379347D01*
X91514772Y-26349550D01*
X91499318Y-26329203D01*
X91488722Y-26318150D01*
X91481396Y-26314748D01*
X91475753Y-26317353D01*
X91472709Y-26319390D01*
X91457791Y-26328460D01*
X91431213Y-26344247D01*
X91393721Y-26366316D01*
X91346060Y-26394235D01*
X91288977Y-26427568D01*
X91223216Y-26465883D01*
X91149524Y-26508745D01*
X91068646Y-26555719D01*
X90981328Y-26606374D01*
X90888316Y-26660273D01*
X90790354Y-26716984D01*
X90688190Y-26776073D01*
X90582569Y-26837105D01*
X90517852Y-26874484D01*
X90414387Y-26934244D01*
X90314881Y-26991717D01*
X90220076Y-27046476D01*
X90130712Y-27098092D01*
X90047530Y-27146139D01*
X89971271Y-27190187D01*
X89902674Y-27229810D01*
X89842482Y-27264580D01*
X89791433Y-27294068D01*
X89750270Y-27317847D01*
X89719732Y-27335490D01*
X89700561Y-27346567D01*
X89693496Y-27350652D01*
X89692501Y-27351320D01*
X89691322Y-27352150D01*
X89690529Y-27352427D01*
X89690456Y-27351566D01*
X89691437Y-27348982D01*
X89693806Y-27344088D01*
X89697900Y-27336299D01*
X89704052Y-27325028D01*
X89712596Y-27309691D01*
X89723868Y-27289702D01*
X89738201Y-27264474D01*
X89755931Y-27233422D01*
X89777392Y-27195961D01*
X89802919Y-27151504D01*
X89832846Y-27099466D01*
X89867507Y-27039262D01*
X89907238Y-26970304D01*
X89952373Y-26892009D01*
X90003246Y-26803789D01*
X90060192Y-26705059D01*
X90123546Y-26595234D01*
X90193642Y-26473728D01*
X90270815Y-26339955D01*
X90288962Y-26308490D01*
X90352975Y-26197397D01*
X90415014Y-26089563D01*
X90474661Y-25985725D01*
X90531496Y-25886621D01*
X90585098Y-25792988D01*
X90635048Y-25705563D01*
X90680927Y-25625082D01*
X90722313Y-25552284D01*
X90758788Y-25487905D01*
X90789932Y-25432682D01*
X90815325Y-25387352D01*
X90834547Y-25352653D01*
X90847178Y-25329321D01*
X90852798Y-25318094D01*
X90861317Y-25298214D01*
X90869610Y-25281807D01*
X90874595Y-25275550D01*
X90879498Y-25280081D01*
X90891688Y-25295187D01*
X90909614Y-25319055D01*
X90931932Y-25349779D01*
X90957302Y-25385453D01*
X90984379Y-25424171D01*
X91011823Y-25464027D01*
X91038291Y-25503116D01*
X91062440Y-25539531D01*
X91082929Y-25571366D01*
X91105305Y-25606079D01*
X91131988Y-25645946D01*
X91157705Y-25683002D01*
X91179089Y-25712312D01*
X91183526Y-25718185D01*
X91215655Y-25762485D01*
X91254341Y-25818435D01*
X91298876Y-25884982D01*
X91348551Y-25961069D01*
X91402660Y-26045642D01*
X91415051Y-26065151D01*
X91476025Y-26160006D01*
X91533417Y-26247049D01*
X91589151Y-26328975D01*
X91645153Y-26408478D01*
X91703350Y-26488253D01*
X91765666Y-26570997D01*
X91834028Y-26659403D01*
X91910361Y-26756167D01*
X91937703Y-26790636D01*
X91967046Y-26827789D01*
X91993472Y-26861409D01*
X92014868Y-26888806D01*
X92029122Y-26907293D01*
X92038308Y-26918855D01*
X92074351Y-26958083D01*
X92117669Y-26998425D01*
X92164302Y-27036574D01*
X92210289Y-27069224D01*
X92251669Y-27093067D01*
X92273185Y-27103333D01*
X92305545Y-27117869D01*
X92337835Y-27130972D01*
X92371400Y-27142941D01*
X92407584Y-27154075D01*
X92447732Y-27164673D01*
X92493188Y-27175034D01*
X92545297Y-27185456D01*
X92605403Y-27196240D01*
X92674851Y-27207683D01*
X92754985Y-27220085D01*
X92847151Y-27233745D01*
X92952691Y-27248962D01*
X93004220Y-27256722D01*
X93078301Y-27269696D01*
X93148853Y-27284687D01*
X93220137Y-27302716D01*
X93296416Y-27324808D01*
X93381953Y-27351985D01*
X93400923Y-27358226D01*
X93477839Y-27383913D01*
X93544151Y-27406830D01*
X93602840Y-27428079D01*
X93656886Y-27448761D01*
X93709271Y-27469979D01*
X93762977Y-27492834D01*
X93824612Y-27519094D01*
X93895341Y-27547485D01*
X93956288Y-27569523D01*
X94009233Y-27585737D01*
X94055958Y-27596661D01*
X94098243Y-27602825D01*
X94137868Y-27604762D01*
X94206835Y-27599029D01*
X94277057Y-27581317D01*
X94342743Y-27552851D01*
X94401975Y-27514871D01*
X94452836Y-27468617D01*
X94493410Y-27415330D01*
X94521780Y-27356251D01*
X94522115Y-27355282D01*
X94529345Y-27325467D01*
X94534943Y-27284889D01*
X94538369Y-27237419D01*
X94539214Y-27204864D01*
X94536857Y-27151532D01*
X94528406Y-27103282D01*
X94512710Y-27054635D01*
X94488622Y-27000107D01*
X94485356Y-26993461D01*
X94449329Y-26932811D01*
X94405752Y-26881966D01*
X94351132Y-26836775D01*
X94346426Y-26833475D01*
X94308445Y-26809650D01*
X94262840Y-26784708D01*
X94213599Y-26760524D01*
X94164713Y-26738973D01*
X94120174Y-26721929D01*
X94083970Y-26711267D01*
X94055610Y-26704626D01*
X94015034Y-26693183D01*
X93987113Y-26681765D01*
X93970480Y-26669544D01*
X93963766Y-26655687D01*
X93965605Y-26639365D01*
X93967339Y-26635195D01*
X93981676Y-26623506D01*
X94007269Y-26621226D01*
X94043923Y-26628383D01*
X94092292Y-26639976D01*
X94143905Y-26647991D01*
X94201591Y-26652654D01*
X94268191Y-26654194D01*
X94346545Y-26652841D01*
X94388667Y-26651186D01*
X94458461Y-26646418D01*
X94519164Y-26638786D01*
X94574470Y-26627455D01*
X94628072Y-26611591D01*
X94683666Y-26590361D01*
X94744945Y-26562932D01*
X94838655Y-26512558D01*
X94931950Y-26447459D01*
X95018917Y-26369792D01*
X95060398Y-26326089D01*
X95092683Y-26285890D01*
X95117569Y-26245860D01*
X95137562Y-26201961D01*
X95155168Y-26150154D01*
X95164529Y-26117598D01*
X95175831Y-26069642D01*
X95182890Y-26023235D01*
X95186438Y-25972961D01*
X95187208Y-25913407D01*
X95186844Y-25889364D01*
X95182328Y-25818910D01*
X95172171Y-25758111D01*
X95155662Y-25703589D01*
X95132089Y-25651964D01*
X95126796Y-25642598D01*
X95097452Y-25601199D01*
X95059548Y-25559334D01*
X95017227Y-25521236D01*
X94974634Y-25491137D01*
X94958300Y-25481947D01*
X94900015Y-25455464D01*
X94831616Y-25432012D01*
X94756578Y-25412536D01*
X94678376Y-25397983D01*
X94600487Y-25389298D01*
X94533776Y-25384562D01*
X94433925Y-25478895D01*
X94424951Y-25487351D01*
X94344694Y-25560699D01*
X94270929Y-25623543D01*
X94201737Y-25677307D01*
X94135193Y-25723412D01*
X94069378Y-25763281D01*
X94002370Y-25798335D01*
X93993180Y-25802751D01*
X93948167Y-25823260D01*
X93902776Y-25842320D01*
X93859748Y-25858914D01*
X93821822Y-25872025D01*
X93791737Y-25880637D01*
X93772235Y-25883734D01*
X93768295Y-25883441D01*
X93750519Y-25874789D01*
X93738616Y-25858169D01*
X93736917Y-25839059D01*
X93739334Y-25833145D01*
X93744813Y-25827534D01*
X93755500Y-25821467D01*
X93773616Y-25813897D01*
X93801384Y-25803781D01*
X93841024Y-25790073D01*
X93849789Y-25787032D01*
X93937482Y-25751804D01*
X94023645Y-25708031D01*
X94109781Y-25654706D01*
X94197393Y-25590823D01*
X94287983Y-25515377D01*
X94383057Y-25427362D01*
X94415616Y-25395428D01*
X94464846Y-25344579D01*
X94504259Y-25299416D01*
X94535167Y-25257881D01*
X94558883Y-25217913D01*
X94576716Y-25177455D01*
X94589980Y-25134447D01*
X94599985Y-25086831D01*
X94603922Y-25056471D01*
X94606137Y-25001506D01*
X94603490Y-24944283D01*
X94596325Y-24890331D01*
X94584985Y-24845183D01*
X94570566Y-24810227D01*
X94533857Y-24750164D01*
X94483098Y-24692424D01*
X94418734Y-24637481D01*
X94341214Y-24585812D01*
X94297135Y-24562350D01*
X94212113Y-24529732D01*
X94118006Y-24508189D01*
X94015404Y-24497801D01*
X93904897Y-24498647D01*
X93787076Y-24510807D01*
X93772774Y-24512967D01*
X93626287Y-24542008D01*
X93486825Y-24582998D01*
X93351634Y-24636876D01*
X93217959Y-24704579D01*
X93198265Y-24715777D01*
X93167772Y-24733756D01*
X93142153Y-24749611D01*
X93125488Y-24760857D01*
X93101701Y-24778681D01*
X93130607Y-24819946D01*
X93142467Y-24837984D01*
X93173397Y-24896542D01*
X93197924Y-24960339D01*
X93213217Y-25022439D01*
X93214140Y-25028423D01*
X93217467Y-25091101D01*
X93211396Y-25160790D01*
X93196865Y-25234285D01*
X93174811Y-25308381D01*
X93146171Y-25379874D01*
X93111883Y-25445558D01*
X93072885Y-25502229D01*
X93036053Y-25541980D01*
X92978154Y-25589922D01*
X92909383Y-25634549D01*
X92831915Y-25674757D01*
X92747925Y-25709444D01*
X92659586Y-25737506D01*
X92569075Y-25757839D01*
X92556881Y-25759860D01*
X92525877Y-25762705D01*
X92506167Y-25759403D01*
X92495785Y-25749280D01*
X92492761Y-25731660D01*
X92492774Y-25730288D01*
X92494925Y-25718054D01*
X92502383Y-25708574D01*
X92517483Y-25700567D01*
X92542559Y-25692752D01*
X92579946Y-25683850D01*
X92684380Y-25656204D01*
X92781490Y-25620863D01*
X92866614Y-25579017D01*
X92939174Y-25530950D01*
X92998592Y-25476949D01*
X93013227Y-25460124D01*
X93051887Y-25404866D01*
X93085121Y-25341397D01*
X93112021Y-25272768D01*
X93131680Y-25202030D01*
X93143190Y-25132234D01*
X93145644Y-25066433D01*
X93138135Y-25007677D01*
X93135865Y-24999067D01*
X93123472Y-24963733D01*
X93105846Y-24923406D01*
X93085541Y-24883608D01*
X93065113Y-24849863D01*
X93063617Y-24847693D01*
X93035829Y-24813603D01*
X93000482Y-24778346D01*
X92962617Y-24746565D01*
X92927275Y-24722905D01*
X92868346Y-24694791D01*
X92788662Y-24667294D01*
X92699869Y-24645942D01*
X92604461Y-24631015D01*
X92504930Y-24622798D01*
X92403772Y-24621572D01*
X92303478Y-24627620D01*
X92206544Y-24641224D01*
X92152424Y-24652051D01*
X92039230Y-24680914D01*
X91938209Y-24716174D01*
X91848309Y-24758293D01*
X91768482Y-24807732D01*
X91697679Y-24864953D01*
X91683709Y-24877369D01*
X91658974Y-24895783D01*
X91640206Y-24902969D01*
X91625448Y-24899403D01*
X91612741Y-24885558D01*
X91605098Y-24871952D01*
X91605550Y-24861260D01*
X91614962Y-24846612D01*
X91617570Y-24843257D01*
X91637192Y-24822856D01*
X91665911Y-24797658D01*
X91700699Y-24769995D01*
X91738528Y-24742197D01*
X91776371Y-24716595D01*
X91811201Y-24695521D01*
X91821989Y-24689682D01*
X91877748Y-24663557D01*
X91943810Y-24637983D01*
X92016509Y-24614286D01*
X92092177Y-24593796D01*
X92119625Y-24587400D01*
X92165597Y-24577680D01*
X92211291Y-24569055D01*
X92253174Y-24562139D01*
X92287715Y-24557540D01*
X92311380Y-24555872D01*
X92318987Y-24555903D01*
X92330393Y-24555762D01*
X92339066Y-24554668D01*
X92344388Y-24551798D01*
X92345740Y-24546331D01*
X92342504Y-24537444D01*
X92334062Y-24524316D01*
X92319795Y-24506123D01*
X92299085Y-24482045D01*
X92271313Y-24451259D01*
X92235862Y-24412943D01*
X92192113Y-24366276D01*
X92139448Y-24310433D01*
X92077247Y-24244595D01*
X92058630Y-24224866D01*
X92022772Y-24186716D01*
X91989226Y-24150760D01*
X91956256Y-24115098D01*
X91922126Y-24077831D01*
X91885101Y-24037058D01*
X91843445Y-23990880D01*
X91795421Y-23937396D01*
X91739294Y-23874708D01*
X91709104Y-23840956D01*
X91731876Y-23806272D01*
X91734893Y-23801356D01*
X91745446Y-23783527D01*
X91762769Y-23753922D01*
X91786480Y-23713205D01*
X91816194Y-23662039D01*
X91851529Y-23601088D01*
X91892102Y-23531012D01*
X91937529Y-23452477D01*
X91987427Y-23366144D01*
X92041413Y-23272677D01*
X92099103Y-23172739D01*
X92160114Y-23066992D01*
X92224063Y-22956099D01*
X92290567Y-22840724D01*
X92359243Y-22721529D01*
X92429706Y-22599177D01*
X92468701Y-22531465D01*
X92553963Y-22383511D01*
X92632194Y-22247908D01*
X92703616Y-22124279D01*
X92768450Y-22012247D01*
X92826917Y-21911435D01*
X92879239Y-21821468D01*
X92925636Y-21741967D01*
X92966330Y-21672558D01*
X93001541Y-21612862D01*
X93031492Y-21562504D01*
X93056403Y-21521107D01*
X93076495Y-21488293D01*
X93091990Y-21463687D01*
X93103108Y-21446912D01*
X93110072Y-21437591D01*
X93113101Y-21435347D01*
X93113697Y-21436192D01*
G37*
G36*
X93831958Y-49352647D02*
G01*
X93929897Y-49378020D01*
X94025876Y-49418098D01*
X94119896Y-49472883D01*
X94183471Y-49523830D01*
X94238079Y-49586244D01*
X94281942Y-49658699D01*
X94293414Y-49682313D01*
X94304291Y-49707691D01*
X94310360Y-49728768D01*
X94312958Y-49750629D01*
X94313423Y-49778360D01*
X94311998Y-49812380D01*
X94307028Y-49840253D01*
X94297534Y-49863670D01*
X94285776Y-49883439D01*
X94251799Y-49921694D01*
X94207974Y-49949418D01*
X94153447Y-49967226D01*
X94135050Y-49970649D01*
X94083860Y-49976232D01*
X94026392Y-49978265D01*
X93967830Y-49976810D01*
X93913362Y-49971933D01*
X93868174Y-49963698D01*
X93797471Y-49941108D01*
X93710957Y-49899791D01*
X93628823Y-49844449D01*
X93550822Y-49774935D01*
X93550635Y-49774747D01*
X93500874Y-49717923D01*
X93463964Y-49661194D01*
X93440286Y-49605454D01*
X93430221Y-49551599D01*
X93434150Y-49500523D01*
X93440800Y-49478638D01*
X93464794Y-49436556D01*
X93501831Y-49399758D01*
X93551039Y-49369223D01*
X93551407Y-49369042D01*
X93574633Y-49358271D01*
X93594887Y-49351112D01*
X93616622Y-49346647D01*
X93644288Y-49343957D01*
X93682340Y-49342123D01*
X93732057Y-49341980D01*
X93831958Y-49352647D01*
G37*
G36*
X94408301Y-48339232D02*
G01*
X94461711Y-48345640D01*
X94531999Y-48356947D01*
X94590817Y-48370788D01*
X94640159Y-48387902D01*
X94682022Y-48409029D01*
X94718401Y-48434907D01*
X94751293Y-48466278D01*
X94779506Y-48502051D01*
X94808365Y-48557477D01*
X94824784Y-48617120D01*
X94828886Y-48678920D01*
X94820798Y-48740814D01*
X94800644Y-48800744D01*
X94768548Y-48856647D01*
X94724636Y-48906464D01*
X94689127Y-48935202D01*
X94629658Y-48971840D01*
X94560168Y-49004311D01*
X94483334Y-49031563D01*
X94401833Y-49052542D01*
X94318342Y-49066196D01*
X94283205Y-49069178D01*
X94227973Y-49070834D01*
X94169544Y-49069763D01*
X94112394Y-49066175D01*
X94061004Y-49060279D01*
X94019851Y-49052283D01*
X93973274Y-49037988D01*
X93905068Y-49007146D01*
X93848527Y-48967897D01*
X93804029Y-48920792D01*
X93771950Y-48866381D01*
X93752670Y-48805215D01*
X93746565Y-48737843D01*
X93754013Y-48664817D01*
X93760146Y-48638480D01*
X93785255Y-48575165D01*
X93823613Y-48517808D01*
X93874783Y-48466876D01*
X93938330Y-48422836D01*
X94013817Y-48386157D01*
X94049091Y-48373696D01*
X94114570Y-48356993D01*
X94187504Y-48344686D01*
X94263619Y-48337285D01*
X94338643Y-48335298D01*
X94408301Y-48339232D01*
G37*
G36*
X92729389Y-47543934D02*
G01*
X92776926Y-47549969D01*
X92813839Y-47559815D01*
X92824671Y-47564189D01*
X92874586Y-47590979D01*
X92912845Y-47624845D01*
X92941341Y-47667383D01*
X92952052Y-47689876D01*
X92959217Y-47711671D01*
X92962228Y-47735381D01*
X92962441Y-47767430D01*
X92961335Y-47788805D01*
X92948688Y-47853199D01*
X92922174Y-47912396D01*
X92881831Y-47966352D01*
X92827697Y-48015022D01*
X92759813Y-48058360D01*
X92678217Y-48096322D01*
X92609446Y-48121463D01*
X92541413Y-48141497D01*
X92481634Y-48153816D01*
X92425948Y-48158956D01*
X92356187Y-48156198D01*
X92291726Y-48143185D01*
X92234788Y-48120411D01*
X92187594Y-48088371D01*
X92176305Y-48077537D01*
X92146632Y-48038248D01*
X92124691Y-47992206D01*
X92111615Y-47943187D01*
X92108534Y-47894970D01*
X92116582Y-47851332D01*
X92118190Y-47846843D01*
X92145166Y-47790233D01*
X92182851Y-47734883D01*
X92228250Y-47684174D01*
X92278368Y-47641485D01*
X92330211Y-47610198D01*
X92349345Y-47601331D01*
X92368819Y-47593107D01*
X92388444Y-47586171D01*
X92411103Y-47579712D01*
X92439683Y-47572919D01*
X92477068Y-47564980D01*
X92526143Y-47555083D01*
X92560334Y-47549321D01*
X92617362Y-47543549D01*
X92674957Y-47541774D01*
X92729389Y-47543934D01*
G37*
G36*
X94071833Y-47385274D02*
G01*
X94107801Y-47394350D01*
X94169999Y-47419615D01*
X94221287Y-47454903D01*
X94261830Y-47500379D01*
X94291790Y-47556203D01*
X94311333Y-47622540D01*
X94314899Y-47648771D01*
X94313344Y-47705982D01*
X94301032Y-47766617D01*
X94279005Y-47827447D01*
X94248305Y-47885240D01*
X94209974Y-47936763D01*
X94204732Y-47942579D01*
X94166608Y-47980356D01*
X94119722Y-48020916D01*
X94067975Y-48061038D01*
X94015268Y-48097501D01*
X94012244Y-48099453D01*
X93973476Y-48123261D01*
X93940494Y-48140401D01*
X93907918Y-48153365D01*
X93870372Y-48164643D01*
X93850305Y-48169198D01*
X93792482Y-48175121D01*
X93732699Y-48172446D01*
X93678069Y-48161297D01*
X93644389Y-48148918D01*
X93583738Y-48116471D01*
X93528762Y-48074042D01*
X93482444Y-48024120D01*
X93447765Y-47969191D01*
X93447197Y-47968035D01*
X93435326Y-47941495D01*
X93427942Y-47917431D01*
X93423728Y-47890075D01*
X93421366Y-47853659D01*
X93420698Y-47821960D01*
X93424761Y-47761966D01*
X93436989Y-47708451D01*
X93458228Y-47656896D01*
X93476211Y-47625916D01*
X93515079Y-47575769D01*
X93563433Y-47527871D01*
X93618116Y-47485211D01*
X93675968Y-47450780D01*
X93678752Y-47449393D01*
X93740596Y-47423486D01*
X93808899Y-47402841D01*
X93879917Y-47388078D01*
X93949907Y-47379816D01*
X94015127Y-47378675D01*
X94071833Y-47385274D01*
G37*
G36*
X92984659Y-48277031D02*
G01*
X93061700Y-48280667D01*
X93128628Y-48288470D01*
X93188261Y-48301286D01*
X93243413Y-48319963D01*
X93296900Y-48345347D01*
X93351539Y-48378285D01*
X93410145Y-48419624D01*
X93434147Y-48438081D01*
X93504924Y-48501360D01*
X93561711Y-48567966D01*
X93605053Y-48638924D01*
X93635497Y-48715261D01*
X93653591Y-48798002D01*
X93659881Y-48888173D01*
X93658721Y-48941258D01*
X93653129Y-48993639D01*
X93641889Y-49043000D01*
X93623845Y-49094251D01*
X93597846Y-49152302D01*
X93548156Y-49244182D01*
X93489563Y-49331359D01*
X93424661Y-49409811D01*
X93354704Y-49478317D01*
X93280943Y-49535654D01*
X93204631Y-49580599D01*
X93127019Y-49611931D01*
X93124300Y-49612766D01*
X93088939Y-49622600D01*
X93052750Y-49631158D01*
X93023164Y-49636670D01*
X93006330Y-49638908D01*
X92917011Y-49644585D01*
X92836766Y-49638537D01*
X92765601Y-49620763D01*
X92703521Y-49591266D01*
X92650532Y-49550047D01*
X92649749Y-49549283D01*
X92623128Y-49518993D01*
X92602233Y-49484843D01*
X92586393Y-49444676D01*
X92574938Y-49396334D01*
X92567200Y-49337662D01*
X92562509Y-49266503D01*
X92560387Y-49231512D01*
X92556766Y-49194004D01*
X92552346Y-49163203D01*
X92547617Y-49143174D01*
X92537064Y-49122659D01*
X92512138Y-49091106D01*
X92475420Y-49054895D01*
X92427848Y-49014933D01*
X92370361Y-48972125D01*
X92311825Y-48927704D01*
X92259730Y-48879937D01*
X92220283Y-48832434D01*
X92192495Y-48783753D01*
X92175378Y-48732453D01*
X92167940Y-48677091D01*
X92167531Y-48666737D01*
X92170313Y-48613372D01*
X92182922Y-48567599D01*
X92206852Y-48525588D01*
X92243602Y-48483509D01*
X92259053Y-48468914D01*
X92303689Y-48433901D01*
X92356018Y-48402523D01*
X92417468Y-48374172D01*
X92489464Y-48348239D01*
X92573432Y-48324116D01*
X92670799Y-48301193D01*
X92677573Y-48299736D01*
X92716918Y-48291500D01*
X92749314Y-48285471D01*
X92778393Y-48281307D01*
X92807785Y-48278669D01*
X92841121Y-48277214D01*
X92882031Y-48276604D01*
X92934146Y-48276497D01*
X92984659Y-48277031D01*
G37*
G36*
X93113697Y-43936192D02*
G01*
X93120369Y-43947146D01*
X93133947Y-43970101D01*
X93154049Y-44004396D01*
X93180292Y-44049373D01*
X93212295Y-44104372D01*
X93249675Y-44168732D01*
X93292049Y-44241793D01*
X93339035Y-44322897D01*
X93390252Y-44411383D01*
X93445316Y-44506591D01*
X93503845Y-44607861D01*
X93565457Y-44714534D01*
X93629769Y-44825950D01*
X93696400Y-44941448D01*
X93764967Y-45060369D01*
X93780432Y-45087198D01*
X93849161Y-45206415D01*
X93916143Y-45322576D01*
X93980975Y-45434982D01*
X94043251Y-45542934D01*
X94102568Y-45645730D01*
X94158522Y-45742672D01*
X94210708Y-45833058D01*
X94258722Y-45916189D01*
X94302159Y-45991365D01*
X94340615Y-46057885D01*
X94373687Y-46115050D01*
X94400968Y-46162160D01*
X94422057Y-46198515D01*
X94436547Y-46223414D01*
X94444035Y-46236158D01*
X94451704Y-46249033D01*
X94471025Y-46281838D01*
X94494685Y-46322369D01*
X94521844Y-46369158D01*
X94551661Y-46420735D01*
X94583296Y-46475632D01*
X94615908Y-46532379D01*
X94648656Y-46589507D01*
X94680699Y-46645546D01*
X94711197Y-46699028D01*
X94739310Y-46748483D01*
X94764196Y-46792441D01*
X94785016Y-46829435D01*
X94800927Y-46857994D01*
X94811091Y-46876649D01*
X94814666Y-46883931D01*
X94809559Y-46888329D01*
X94793145Y-46899228D01*
X94767069Y-46915469D01*
X94733029Y-46936013D01*
X94692724Y-46959823D01*
X94647853Y-46985860D01*
X94606814Y-47009584D01*
X94566048Y-47033399D01*
X94531383Y-47053917D01*
X94504516Y-47070122D01*
X94487142Y-47081002D01*
X94480959Y-47085545D01*
X94480959Y-47085565D01*
X94485915Y-47092131D01*
X94499241Y-47107045D01*
X94518921Y-47128109D01*
X94542942Y-47153127D01*
X94574326Y-47187458D01*
X94614077Y-47240624D01*
X94642931Y-47295246D01*
X94662042Y-47354321D01*
X94672564Y-47420844D01*
X94675651Y-47497811D01*
X94675420Y-47515452D01*
X94668175Y-47603642D01*
X94650836Y-47681349D01*
X94623454Y-47748332D01*
X94614666Y-47765089D01*
X94605467Y-47782796D01*
X94600959Y-47791702D01*
X94600951Y-47791724D01*
X94606875Y-47789046D01*
X94623971Y-47779855D01*
X94650623Y-47765077D01*
X94685218Y-47745639D01*
X94726139Y-47722467D01*
X94771770Y-47696489D01*
X94820497Y-47668632D01*
X94870705Y-47639822D01*
X94920777Y-47610987D01*
X94969100Y-47583052D01*
X95014056Y-47556946D01*
X95054031Y-47533594D01*
X95087410Y-47513925D01*
X95112578Y-47498863D01*
X95127918Y-47489337D01*
X95155569Y-47471303D01*
X95165988Y-47487989D01*
X95167099Y-47489859D01*
X95174827Y-47503135D01*
X95189485Y-47528432D01*
X95210736Y-47565169D01*
X95238244Y-47612763D01*
X95271675Y-47670634D01*
X95310692Y-47738200D01*
X95354960Y-47814879D01*
X95404143Y-47900089D01*
X95457905Y-47993250D01*
X95515911Y-48093778D01*
X95577825Y-48201094D01*
X95643312Y-48314614D01*
X95712036Y-48433758D01*
X95783661Y-48557944D01*
X95857851Y-48686590D01*
X95934271Y-48819115D01*
X96012585Y-48954937D01*
X96045830Y-49012595D01*
X96123464Y-49147232D01*
X96199095Y-49278385D01*
X96272386Y-49405467D01*
X96342999Y-49527893D01*
X96410595Y-49645078D01*
X96474836Y-49756435D01*
X96535385Y-49861380D01*
X96591904Y-49959326D01*
X96644054Y-50049689D01*
X96691499Y-50131883D01*
X96733899Y-50205321D01*
X96770918Y-50269419D01*
X96802216Y-50323592D01*
X96827457Y-50367252D01*
X96846302Y-50399816D01*
X96858413Y-50420697D01*
X96863453Y-50429309D01*
X96878142Y-50453419D01*
X93441415Y-50453419D01*
X93195061Y-50453405D01*
X92952775Y-50453363D01*
X92717415Y-50453294D01*
X92489342Y-50453199D01*
X92268915Y-50453077D01*
X92056494Y-50452931D01*
X91852438Y-50452761D01*
X91657107Y-50452566D01*
X91470861Y-50452349D01*
X91294058Y-50452109D01*
X91127058Y-50451848D01*
X90970221Y-50451566D01*
X90823906Y-50451263D01*
X90688473Y-50450941D01*
X90564281Y-50450600D01*
X90451691Y-50450241D01*
X90351060Y-50449865D01*
X90262750Y-50449472D01*
X90187119Y-50449063D01*
X90124526Y-50448638D01*
X90075332Y-50448199D01*
X90039896Y-50447745D01*
X90018578Y-50447279D01*
X90011736Y-50446800D01*
X90018872Y-50442387D01*
X90038141Y-50430983D01*
X90068824Y-50413007D01*
X90110199Y-50388877D01*
X90161547Y-50359009D01*
X90222145Y-50323822D01*
X90291274Y-50283734D01*
X90368212Y-50239162D01*
X90452239Y-50190524D01*
X90542634Y-50138237D01*
X90638676Y-50082720D01*
X90739645Y-50024391D01*
X90844820Y-49963666D01*
X90953480Y-49900964D01*
X90953855Y-49900748D01*
X91062464Y-49838079D01*
X91167562Y-49777409D01*
X91268431Y-49719154D01*
X91364352Y-49663731D01*
X91454606Y-49611556D01*
X91538475Y-49563044D01*
X91615239Y-49518611D01*
X91684181Y-49478675D01*
X91744581Y-49443651D01*
X91795721Y-49413956D01*
X91836882Y-49390005D01*
X91867345Y-49372214D01*
X91886392Y-49361001D01*
X91893303Y-49356780D01*
X91891836Y-49351118D01*
X91882604Y-49336135D01*
X91866901Y-49314516D01*
X91846447Y-49288757D01*
X91822735Y-49259521D01*
X91788513Y-49216296D01*
X91749922Y-49166716D01*
X91708909Y-49113343D01*
X91667421Y-49058742D01*
X91627405Y-49005478D01*
X91590806Y-48956115D01*
X91559572Y-48913216D01*
X91535649Y-48879347D01*
X91514772Y-48849550D01*
X91499318Y-48829203D01*
X91488722Y-48818150D01*
X91481396Y-48814748D01*
X91475753Y-48817353D01*
X91472709Y-48819390D01*
X91457791Y-48828460D01*
X91431213Y-48844247D01*
X91393721Y-48866316D01*
X91346060Y-48894235D01*
X91288977Y-48927568D01*
X91223216Y-48965883D01*
X91149524Y-49008745D01*
X91068646Y-49055719D01*
X90981328Y-49106374D01*
X90888316Y-49160273D01*
X90790354Y-49216984D01*
X90688190Y-49276073D01*
X90582569Y-49337105D01*
X90517852Y-49374484D01*
X90414387Y-49434244D01*
X90314881Y-49491717D01*
X90220076Y-49546476D01*
X90130712Y-49598092D01*
X90047530Y-49646139D01*
X89971271Y-49690187D01*
X89902674Y-49729810D01*
X89842482Y-49764580D01*
X89791433Y-49794068D01*
X89750270Y-49817847D01*
X89719732Y-49835490D01*
X89700561Y-49846567D01*
X89693496Y-49850652D01*
X89692501Y-49851320D01*
X89691322Y-49852150D01*
X89690529Y-49852427D01*
X89690456Y-49851566D01*
X89691437Y-49848982D01*
X89693806Y-49844088D01*
X89697900Y-49836299D01*
X89704052Y-49825028D01*
X89712596Y-49809691D01*
X89723868Y-49789702D01*
X89738201Y-49764474D01*
X89755931Y-49733422D01*
X89777392Y-49695961D01*
X89802919Y-49651504D01*
X89832846Y-49599466D01*
X89867507Y-49539262D01*
X89907238Y-49470304D01*
X89952373Y-49392009D01*
X90003246Y-49303789D01*
X90060192Y-49205059D01*
X90123546Y-49095234D01*
X90193642Y-48973728D01*
X90270815Y-48839955D01*
X90288962Y-48808490D01*
X90352975Y-48697397D01*
X90415014Y-48589563D01*
X90474661Y-48485725D01*
X90531496Y-48386621D01*
X90585098Y-48292988D01*
X90635048Y-48205563D01*
X90680927Y-48125082D01*
X90722313Y-48052284D01*
X90758788Y-47987905D01*
X90789932Y-47932682D01*
X90815325Y-47887352D01*
X90834547Y-47852653D01*
X90847178Y-47829321D01*
X90852798Y-47818094D01*
X90861317Y-47798214D01*
X90869610Y-47781807D01*
X90874595Y-47775550D01*
X90879498Y-47780081D01*
X90891688Y-47795187D01*
X90909614Y-47819055D01*
X90931932Y-47849779D01*
X90957302Y-47885453D01*
X90984379Y-47924171D01*
X91011823Y-47964027D01*
X91038291Y-48003116D01*
X91062440Y-48039531D01*
X91082929Y-48071366D01*
X91105305Y-48106079D01*
X91131988Y-48145946D01*
X91157705Y-48183002D01*
X91179089Y-48212312D01*
X91183526Y-48218185D01*
X91215655Y-48262485D01*
X91254341Y-48318435D01*
X91298876Y-48384982D01*
X91348551Y-48461069D01*
X91402660Y-48545642D01*
X91415051Y-48565151D01*
X91476025Y-48660006D01*
X91533417Y-48747049D01*
X91589151Y-48828975D01*
X91645153Y-48908478D01*
X91703350Y-48988253D01*
X91765666Y-49070997D01*
X91834028Y-49159403D01*
X91910361Y-49256167D01*
X91937703Y-49290636D01*
X91967046Y-49327789D01*
X91993472Y-49361409D01*
X92014868Y-49388806D01*
X92029122Y-49407293D01*
X92038308Y-49418855D01*
X92074351Y-49458083D01*
X92117669Y-49498425D01*
X92164302Y-49536574D01*
X92210289Y-49569224D01*
X92251669Y-49593067D01*
X92273185Y-49603333D01*
X92305545Y-49617869D01*
X92337835Y-49630972D01*
X92371400Y-49642941D01*
X92407584Y-49654075D01*
X92447732Y-49664673D01*
X92493188Y-49675034D01*
X92545297Y-49685456D01*
X92605403Y-49696240D01*
X92674851Y-49707683D01*
X92754985Y-49720085D01*
X92847151Y-49733745D01*
X92952691Y-49748962D01*
X93004220Y-49756722D01*
X93078301Y-49769696D01*
X93148853Y-49784687D01*
X93220137Y-49802716D01*
X93296416Y-49824808D01*
X93381953Y-49851985D01*
X93400923Y-49858226D01*
X93477839Y-49883913D01*
X93544151Y-49906830D01*
X93602840Y-49928079D01*
X93656886Y-49948761D01*
X93709271Y-49969979D01*
X93762977Y-49992834D01*
X93824612Y-50019094D01*
X93895341Y-50047485D01*
X93956288Y-50069523D01*
X94009233Y-50085737D01*
X94055958Y-50096661D01*
X94098243Y-50102825D01*
X94137868Y-50104762D01*
X94206835Y-50099029D01*
X94277057Y-50081317D01*
X94342743Y-50052851D01*
X94401975Y-50014871D01*
X94452836Y-49968617D01*
X94493410Y-49915330D01*
X94521780Y-49856251D01*
X94522115Y-49855282D01*
X94529345Y-49825467D01*
X94534943Y-49784889D01*
X94538369Y-49737419D01*
X94539214Y-49704864D01*
X94536857Y-49651532D01*
X94528406Y-49603282D01*
X94512710Y-49554635D01*
X94488622Y-49500107D01*
X94485356Y-49493461D01*
X94449329Y-49432811D01*
X94405752Y-49381966D01*
X94351132Y-49336775D01*
X94346426Y-49333475D01*
X94308445Y-49309650D01*
X94262840Y-49284708D01*
X94213599Y-49260524D01*
X94164713Y-49238973D01*
X94120174Y-49221929D01*
X94083970Y-49211267D01*
X94055610Y-49204626D01*
X94015034Y-49193183D01*
X93987113Y-49181765D01*
X93970480Y-49169544D01*
X93963766Y-49155687D01*
X93965605Y-49139365D01*
X93967339Y-49135195D01*
X93981676Y-49123506D01*
X94007269Y-49121226D01*
X94043923Y-49128383D01*
X94092292Y-49139976D01*
X94143905Y-49147991D01*
X94201591Y-49152654D01*
X94268191Y-49154194D01*
X94346545Y-49152841D01*
X94388667Y-49151186D01*
X94458461Y-49146418D01*
X94519164Y-49138786D01*
X94574470Y-49127455D01*
X94628072Y-49111591D01*
X94683666Y-49090361D01*
X94744945Y-49062932D01*
X94838655Y-49012558D01*
X94931950Y-48947459D01*
X95018917Y-48869792D01*
X95060398Y-48826089D01*
X95092683Y-48785890D01*
X95117569Y-48745860D01*
X95137562Y-48701961D01*
X95155168Y-48650154D01*
X95164529Y-48617598D01*
X95175831Y-48569642D01*
X95182890Y-48523235D01*
X95186438Y-48472961D01*
X95187208Y-48413407D01*
X95186844Y-48389364D01*
X95182328Y-48318910D01*
X95172171Y-48258111D01*
X95155662Y-48203589D01*
X95132089Y-48151964D01*
X95126796Y-48142598D01*
X95097452Y-48101199D01*
X95059548Y-48059334D01*
X95017227Y-48021236D01*
X94974634Y-47991137D01*
X94958300Y-47981947D01*
X94900015Y-47955464D01*
X94831616Y-47932012D01*
X94756578Y-47912536D01*
X94678376Y-47897983D01*
X94600487Y-47889298D01*
X94533776Y-47884562D01*
X94433925Y-47978895D01*
X94424951Y-47987351D01*
X94344694Y-48060699D01*
X94270929Y-48123543D01*
X94201737Y-48177307D01*
X94135193Y-48223412D01*
X94069378Y-48263281D01*
X94002370Y-48298335D01*
X93993180Y-48302751D01*
X93948167Y-48323260D01*
X93902776Y-48342320D01*
X93859748Y-48358914D01*
X93821822Y-48372025D01*
X93791737Y-48380637D01*
X93772235Y-48383734D01*
X93768295Y-48383441D01*
X93750519Y-48374789D01*
X93738616Y-48358169D01*
X93736917Y-48339059D01*
X93739334Y-48333145D01*
X93744813Y-48327534D01*
X93755500Y-48321467D01*
X93773616Y-48313897D01*
X93801384Y-48303781D01*
X93841024Y-48290073D01*
X93849789Y-48287032D01*
X93937482Y-48251804D01*
X94023645Y-48208031D01*
X94109781Y-48154706D01*
X94197393Y-48090823D01*
X94287983Y-48015377D01*
X94383057Y-47927362D01*
X94415616Y-47895428D01*
X94464846Y-47844579D01*
X94504259Y-47799416D01*
X94535167Y-47757881D01*
X94558883Y-47717913D01*
X94576716Y-47677455D01*
X94589980Y-47634447D01*
X94599985Y-47586831D01*
X94603922Y-47556471D01*
X94606137Y-47501506D01*
X94603490Y-47444283D01*
X94596325Y-47390331D01*
X94584985Y-47345183D01*
X94570566Y-47310227D01*
X94533857Y-47250164D01*
X94483098Y-47192424D01*
X94418734Y-47137481D01*
X94341214Y-47085812D01*
X94297135Y-47062350D01*
X94212113Y-47029732D01*
X94118006Y-47008189D01*
X94015404Y-46997801D01*
X93904897Y-46998647D01*
X93787076Y-47010807D01*
X93772774Y-47012967D01*
X93626287Y-47042008D01*
X93486825Y-47082998D01*
X93351634Y-47136876D01*
X93217959Y-47204579D01*
X93198265Y-47215777D01*
X93167772Y-47233756D01*
X93142153Y-47249611D01*
X93125488Y-47260857D01*
X93101701Y-47278681D01*
X93130607Y-47319946D01*
X93142467Y-47337984D01*
X93173397Y-47396542D01*
X93197924Y-47460339D01*
X93213217Y-47522439D01*
X93214140Y-47528423D01*
X93217467Y-47591101D01*
X93211396Y-47660790D01*
X93196865Y-47734285D01*
X93174811Y-47808381D01*
X93146171Y-47879874D01*
X93111883Y-47945558D01*
X93072885Y-48002229D01*
X93036053Y-48041980D01*
X92978154Y-48089922D01*
X92909383Y-48134549D01*
X92831915Y-48174757D01*
X92747925Y-48209444D01*
X92659586Y-48237506D01*
X92569075Y-48257839D01*
X92556881Y-48259860D01*
X92525877Y-48262705D01*
X92506167Y-48259403D01*
X92495785Y-48249280D01*
X92492761Y-48231660D01*
X92492774Y-48230288D01*
X92494925Y-48218054D01*
X92502383Y-48208574D01*
X92517483Y-48200567D01*
X92542559Y-48192752D01*
X92579946Y-48183850D01*
X92684380Y-48156204D01*
X92781490Y-48120863D01*
X92866614Y-48079017D01*
X92939174Y-48030950D01*
X92998592Y-47976949D01*
X93013227Y-47960124D01*
X93051887Y-47904866D01*
X93085121Y-47841397D01*
X93112021Y-47772768D01*
X93131680Y-47702030D01*
X93143190Y-47632234D01*
X93145644Y-47566433D01*
X93138135Y-47507677D01*
X93135865Y-47499067D01*
X93123472Y-47463733D01*
X93105846Y-47423406D01*
X93085541Y-47383608D01*
X93065113Y-47349863D01*
X93063617Y-47347693D01*
X93035829Y-47313603D01*
X93000482Y-47278346D01*
X92962617Y-47246565D01*
X92927275Y-47222905D01*
X92868346Y-47194791D01*
X92788662Y-47167294D01*
X92699869Y-47145942D01*
X92604461Y-47131015D01*
X92504930Y-47122798D01*
X92403772Y-47121572D01*
X92303478Y-47127620D01*
X92206544Y-47141224D01*
X92152424Y-47152051D01*
X92039230Y-47180914D01*
X91938209Y-47216174D01*
X91848309Y-47258293D01*
X91768482Y-47307732D01*
X91697679Y-47364953D01*
X91683709Y-47377369D01*
X91658974Y-47395783D01*
X91640206Y-47402969D01*
X91625448Y-47399403D01*
X91612741Y-47385558D01*
X91605098Y-47371952D01*
X91605550Y-47361260D01*
X91614962Y-47346612D01*
X91617570Y-47343257D01*
X91637192Y-47322856D01*
X91665911Y-47297658D01*
X91700699Y-47269995D01*
X91738528Y-47242197D01*
X91776371Y-47216595D01*
X91811201Y-47195521D01*
X91821989Y-47189682D01*
X91877748Y-47163557D01*
X91943810Y-47137983D01*
X92016509Y-47114286D01*
X92092177Y-47093796D01*
X92119625Y-47087400D01*
X92165597Y-47077680D01*
X92211291Y-47069055D01*
X92253174Y-47062139D01*
X92287715Y-47057540D01*
X92311380Y-47055872D01*
X92318987Y-47055903D01*
X92330393Y-47055762D01*
X92339066Y-47054668D01*
X92344388Y-47051798D01*
X92345740Y-47046331D01*
X92342504Y-47037444D01*
X92334062Y-47024316D01*
X92319795Y-47006123D01*
X92299085Y-46982045D01*
X92271313Y-46951259D01*
X92235862Y-46912943D01*
X92192113Y-46866276D01*
X92139448Y-46810433D01*
X92077247Y-46744595D01*
X92058630Y-46724866D01*
X92022772Y-46686716D01*
X91989226Y-46650760D01*
X91956256Y-46615098D01*
X91922126Y-46577831D01*
X91885101Y-46537058D01*
X91843445Y-46490880D01*
X91795421Y-46437396D01*
X91739294Y-46374708D01*
X91709104Y-46340956D01*
X91731876Y-46306272D01*
X91734893Y-46301356D01*
X91745446Y-46283527D01*
X91762769Y-46253922D01*
X91786480Y-46213205D01*
X91816194Y-46162039D01*
X91851529Y-46101088D01*
X91892102Y-46031012D01*
X91937529Y-45952477D01*
X91987427Y-45866144D01*
X92041413Y-45772677D01*
X92099103Y-45672739D01*
X92160114Y-45566992D01*
X92224063Y-45456099D01*
X92290567Y-45340724D01*
X92359243Y-45221529D01*
X92429706Y-45099177D01*
X92468701Y-45031465D01*
X92553963Y-44883511D01*
X92632194Y-44747908D01*
X92703616Y-44624279D01*
X92768450Y-44512247D01*
X92826917Y-44411435D01*
X92879239Y-44321468D01*
X92925636Y-44241967D01*
X92966330Y-44172558D01*
X93001541Y-44112862D01*
X93031492Y-44062504D01*
X93056403Y-44021107D01*
X93076495Y-43988293D01*
X93091990Y-43963687D01*
X93103108Y-43946912D01*
X93110072Y-43937591D01*
X93113101Y-43935347D01*
X93113697Y-43936192D01*
G37*
%TD*%
M02*
