M48
; DRILL file {KiCad 8.0.8-8.0.8-0~ubuntu24.04.1} date 2025-02-18T11:40:42+0100
; FORMAT={-:-/ absolute / inch / decimal}
; #@! TF.CreationDate,2025-02-18T11:40:42+01:00
; #@! TF.GenerationSoftware,Kicad,Pcbnew,8.0.8-8.0.8-0~ubuntu24.04.1
; #@! TF.FileFunction,NonPlated,1,2,NPTH
FMAT,2
INCH
; #@! TA.AperFunction,NonPlated,NPTH,ComponentDrill
T1C0.0177
; #@! TA.AperFunction,NonPlated,NPTH,ComponentDrill
T2C0.0197
%
G90
G05
T1
X3.8307Y-0.9018
X3.8307Y-1.7876
X5.1693Y-0.9018
X5.1693Y-1.7876
T2
X3.0118Y-1.3977
X3.0118Y-1.4292
X3.0118Y-1.4606
X3.0118Y-1.4921
X3.0118Y-1.5236
X3.0118Y-1.5551
X3.0118Y-0.9744
X3.0118Y-1.0138
X3.0118Y-1.8602
X3.0118Y-1.8996
X3.0118Y-1.0531
X3.0118Y-1.0925
X3.0118Y-1.939
X3.0118Y-1.9783
X3.2546Y-1.2795
X3.2546Y-1.6732
X3.294Y-1.2795
X3.294Y-1.6732
X3.3333Y-1.2795
X3.3333Y-1.6732
X3.3727Y-1.2795
X3.3727Y-1.6732
X3.5564Y-1.2795
X3.5564Y-1.6732
X3.5958Y-1.2795
X3.5958Y-1.6732
X3.6352Y-1.2795
X3.6352Y-1.6732
X3.6745Y-1.2795
X3.6745Y-1.6732
X3.9173Y-1.0531
X3.9173Y-1.0925
X3.9173Y-1.939
X3.9173Y-1.9783
X3.9173Y-0.9744
X3.9173Y-1.0138
X3.9173Y-1.8602
X3.9173Y-1.8996
X4.0354Y-1.3977
X4.0354Y-1.3977
X4.0354Y-1.4292
X4.0354Y-1.4606
X4.0354Y-1.4921
X4.0354Y-1.5236
X4.0354Y-1.5551
X4.0354Y-1.5551
X4.0682Y-1.3977
X4.0682Y-1.5551
X4.101Y-1.3977
X4.101Y-1.5551
X4.1339Y-1.3977
X4.1339Y-1.5551
X4.1667Y-1.3977
X4.1667Y-1.5551
X4.1995Y-1.3977
X4.1995Y-1.5551
X4.2323Y-1.3977
X4.2323Y-1.3977
X4.2323Y-1.4292
X4.2323Y-1.4606
X4.2323Y-1.4921
X4.2323Y-1.5236
X4.2323Y-1.5551
X4.2323Y-1.5551
X4.3504Y-0.9744
X4.3504Y-1.0138
X4.3504Y-1.8602
X4.3504Y-1.8996
X4.3504Y-1.0531
X4.3504Y-1.0925
X4.3504Y-1.939
X4.3504Y-1.9783
X4.5932Y-1.2795
X4.5932Y-1.6732
X4.6325Y-1.2795
X4.6325Y-1.6732
X4.6719Y-1.2795
X4.6719Y-1.6732
X4.7113Y-1.2795
X4.7113Y-1.6732
X4.895Y-1.2795
X4.895Y-1.6732
X4.9344Y-1.2795
X4.9344Y-1.6732
X4.9738Y-1.2795
X4.9738Y-1.6732
X5.0131Y-1.2795
X5.0131Y-1.6732
X5.2559Y-1.0531
X5.2559Y-1.0925
X5.2559Y-1.939
X5.2559Y-1.9783
X5.2559Y-0.9744
X5.2559Y-1.0138
X5.2559Y-1.3977
X5.2559Y-1.4292
X5.2559Y-1.4606
X5.2559Y-1.4921
X5.2559Y-1.5236
X5.2559Y-1.5551
X5.2559Y-1.8602
X5.2559Y-1.8996
M30
