M48
; DRILL file {KiCad 8.0.8-8.0.8-0~ubuntu24.04.1} date 2025-02-18T02:43:11+0100
; FORMAT={-:-/ absolute / inch / decimal}
; #@! TF.CreationDate,2025-02-18T02:43:11+01:00
; #@! TF.GenerationSoftware,Kicad,Pcbnew,8.0.8-8.0.8-0~ubuntu24.04.1
; #@! TF.FileFunction,Plated,1,2,PTH
FMAT,2
INCH
; #@! TA.AperFunction,Plated,PTH,ViaDrill
T1C0.0118
; #@! TA.AperFunction,Plated,PTH,ComponentDrill
T2C0.0394
%
G90
G05
T1
X3.1988Y-1.1811
X3.1988Y-2.0669
X3.2283Y-1.2205
X3.2283Y-2.1063
X3.2677Y-1.1811
X3.2677Y-2.0669
X3.2972Y-1.2205
X3.2972Y-2.1063
X3.3366Y-0.8766
X3.3366Y-1.1811
X3.3366Y-1.7624
X3.3366Y-2.0669
X3.3661Y-1.2205
X3.3661Y-2.1063
X3.4055Y-0.8766
X3.4055Y-1.1811
X3.4055Y-1.7624
X3.4055Y-2.0669
X3.435Y-1.2205
X3.435Y-2.1063
X3.4744Y-0.8766
X3.4744Y-1.1811
X3.4744Y-1.7624
X3.4744Y-2.0669
X3.5138Y-0.9843
X3.5138Y-1.8701
X3.5433Y-1.0236
X3.5433Y-1.9094
X3.5945Y-0.9258
X3.5945Y-1.8116
X3.6909Y-0.8661
X3.6909Y-1.752
X3.7008Y-1.2205
X3.7008Y-2.1063
X3.7303Y-0.8268
X3.7303Y-1.7126
X3.7402Y-1.1811
X3.7402Y-2.0669
X3.7598Y-0.8661
X3.7598Y-1.752
X3.7697Y-1.2205
X3.7697Y-2.1063
X3.7992Y-0.8268
X3.7992Y-1.7126
X3.8012Y-0.9455
X3.8012Y-1.8313
X3.8504Y-0.9492
X3.8504Y-1.0236
X3.8504Y-1.8351
X3.8504Y-1.9094
X4.498Y-1.1811
X4.498Y-2.0669
X4.5276Y-1.2205
X4.5276Y-2.1063
X4.5669Y-1.1811
X4.5669Y-2.0669
X4.5965Y-1.2205
X4.5965Y-2.1063
X4.6358Y-0.8766
X4.6358Y-1.1811
X4.6358Y-1.7624
X4.6358Y-2.0669
X4.6654Y-1.2205
X4.6654Y-2.1063
X4.7047Y-0.8766
X4.7047Y-1.1811
X4.7047Y-1.7624
X4.7047Y-2.0669
X4.7343Y-1.2205
X4.7343Y-2.1063
X4.7736Y-0.8766
X4.7736Y-1.1811
X4.7736Y-1.7624
X4.7736Y-2.0669
X4.813Y-0.9843
X4.813Y-1.8701
X4.8425Y-1.0236
X4.8425Y-1.9094
X4.8937Y-0.9258
X4.8937Y-1.8116
X4.9902Y-0.8661
X4.9902Y-1.752
X5.0Y-1.2205
X5.0Y-2.1063
X5.0295Y-0.8268
X5.0295Y-1.7126
X5.0394Y-1.1811
X5.0394Y-2.0669
X5.0591Y-0.8661
X5.0591Y-1.752
X5.0689Y-1.2205
X5.0689Y-2.1063
X5.0984Y-0.8268
X5.0984Y-1.7126
X5.1004Y-0.9455
X5.1004Y-1.8313
X5.1496Y-0.9492
X5.1496Y-1.0236
X5.1496Y-1.8351
X5.1496Y-1.9094
T2
X3.122Y-0.8839
X3.122Y-0.9839
X3.122Y-1.0839
X3.122Y-1.1839
X3.122Y-1.7697
X3.122Y-1.8697
X3.122Y-1.9697
X3.122Y-2.0697
X4.4213Y-0.8839
X4.4213Y-0.9839
X4.4213Y-1.0839
X4.4213Y-1.1839
X4.4213Y-1.7697
X4.4213Y-1.8697
X4.4213Y-1.9697
X4.4213Y-2.0697
M30
