M48
; DRILL file {KiCad 8.0.8-8.0.8-0~ubuntu24.04.1} date 2025-02-18T11:40:42+0100
; FORMAT={-:-/ absolute / inch / decimal}
; #@! TF.CreationDate,2025-02-18T11:40:42+01:00
; #@! TF.GenerationSoftware,Kicad,Pcbnew,8.0.8-8.0.8-0~ubuntu24.04.1
; #@! TF.FileFunction,Plated,1,2,PTH
FMAT,2
INCH
; #@! TA.AperFunction,Plated,PTH,ViaDrill
T1C0.0118
; #@! TA.AperFunction,Plated,PTH,ComponentDrill
T2C0.0394
%
G90
G05
T1
X3.1791Y-1.1811
X3.1791Y-2.0669
X3.2087Y-1.2205
X3.2087Y-2.1063
X3.248Y-1.1811
X3.248Y-2.0669
X3.2776Y-1.2205
X3.2776Y-2.1063
X3.3169Y-0.8766
X3.3169Y-1.1811
X3.3169Y-1.7624
X3.3169Y-2.0669
X3.3465Y-1.2205
X3.3465Y-2.1063
X3.3858Y-0.8766
X3.3858Y-1.1811
X3.3858Y-1.7624
X3.3858Y-2.0669
X3.4154Y-1.2205
X3.4154Y-2.1063
X3.4547Y-0.8766
X3.4547Y-1.1811
X3.4547Y-1.7624
X3.4547Y-2.0669
X3.4941Y-0.9843
X3.4941Y-1.8701
X3.5236Y-1.0236
X3.5236Y-1.9094
X3.5748Y-0.9258
X3.5748Y-1.8116
X3.6713Y-0.8661
X3.6713Y-1.752
X3.6811Y-1.2205
X3.6811Y-2.1063
X3.7106Y-0.8268
X3.7106Y-1.7126
X3.7205Y-1.1811
X3.7205Y-2.0669
X3.7402Y-0.8661
X3.7402Y-1.752
X3.75Y-1.2205
X3.75Y-2.1063
X3.7795Y-0.8268
X3.7795Y-1.7126
X3.7815Y-0.9455
X3.7815Y-1.8313
X3.8307Y-0.9492
X3.8307Y-1.0236
X3.8307Y-1.8351
X3.8307Y-1.9094
X4.5177Y-1.1811
X4.5177Y-2.0669
X4.5472Y-1.2205
X4.5472Y-2.1063
X4.5866Y-1.1811
X4.5866Y-2.0669
X4.6161Y-1.2205
X4.6161Y-2.1063
X4.6555Y-0.8766
X4.6555Y-1.1811
X4.6555Y-1.7624
X4.6555Y-2.0669
X4.685Y-1.2205
X4.685Y-2.1063
X4.7244Y-0.8766
X4.7244Y-1.1811
X4.7244Y-1.7624
X4.7244Y-2.0669
X4.7539Y-1.2205
X4.7539Y-2.1063
X4.7933Y-0.8766
X4.7933Y-1.1811
X4.7933Y-1.7624
X4.7933Y-2.0669
X4.8327Y-0.9843
X4.8327Y-1.8701
X4.8622Y-1.0236
X4.8622Y-1.9094
X4.9134Y-0.9258
X4.9134Y-1.8116
X5.0098Y-0.8661
X5.0098Y-1.752
X5.0197Y-1.2205
X5.0197Y-2.1063
X5.0492Y-0.8268
X5.0492Y-1.7126
X5.0591Y-1.1811
X5.0591Y-2.0669
X5.0787Y-0.8661
X5.0787Y-1.752
X5.0886Y-1.2205
X5.0886Y-2.1063
X5.1181Y-0.8268
X5.1181Y-1.7126
X5.1201Y-0.9455
X5.1201Y-1.8313
X5.1693Y-0.9492
X5.1693Y-1.0236
X5.1693Y-1.8351
X5.1693Y-1.9094
T2
X3.1024Y-0.8839
X3.1024Y-0.9839
X3.1024Y-1.0839
X3.1024Y-1.1839
X3.1024Y-1.7697
X3.1024Y-1.8697
X3.1024Y-1.9697
X3.1024Y-2.0697
X4.4409Y-0.8839
X4.4409Y-0.9839
X4.4409Y-1.0839
X4.4409Y-1.1839
X4.4409Y-1.7697
X4.4409Y-1.8697
X4.4409Y-1.9697
X4.4409Y-2.0697
M30
