%TF.GenerationSoftware,KiCad,Pcbnew,8.0.8-8.0.8-0~ubuntu24.04.1*%
%TF.CreationDate,2025-02-18T02:43:12+01:00*%
%TF.ProjectId,SPU0410LR5H_panel,53505530-3431-4304-9c52-35485f70616e,rev?*%
%TF.SameCoordinates,Original*%
%TF.FileFunction,Drillmap*%
%TF.FilePolarity,Positive*%
%FSLAX45Y45*%
G04 Gerber Fmt 4.5, Leading zero omitted, Abs format (unit mm)*
G04 Created by KiCad (PCBNEW 8.0.8-8.0.8-0~ubuntu24.04.1) date 2025-02-18 02:43:12*
%MOMM*%
%LPD*%
G01*
G04 APERTURE LIST*
%ADD10C,0.100000*%
%ADD11C,0.200000*%
G04 APERTURE END LIST*
D10*
X13295414Y-3179936D02*
X13296808Y-3175065D01*
X11059326Y-5491355D02*
X11064163Y-5493358D01*
X7759326Y-2008645D02*
X7754601Y-2010899D01*
X11059326Y-4258645D02*
X11054601Y-4260899D01*
X9920130Y-5497953D02*
X9925065Y-5496808D01*
X7750000Y-3236602D02*
X7754601Y-3239101D01*
X7500000Y-3550050D02*
X7500000Y-3950050D01*
X7701231Y-4334357D02*
X7700548Y-4339547D01*
X13293775Y-5434731D02*
X13295414Y-5429936D01*
X13265137Y-5475876D02*
X13268897Y-5472479D01*
X9972479Y-3218897D02*
X9975876Y-3215137D01*
X9944039Y-5489780D02*
X9948530Y-5487435D01*
X13293775Y-3184730D02*
X13295414Y-3179936D01*
X9997953Y-3170130D02*
X9998847Y-3165143D01*
X11045536Y-4266133D02*
X11041221Y-4269098D01*
X13289780Y-3194039D02*
X13291896Y-3189436D01*
X7700548Y-4339547D02*
X7700137Y-4344766D01*
X8316667Y-3550050D02*
X7700000Y-3550050D01*
X7708645Y-2059326D02*
X7706642Y-2064163D01*
X9989780Y-5444039D02*
X9991896Y-5439436D01*
X7733087Y-5474314D02*
X7737068Y-5477715D01*
X9977715Y-4287068D02*
X9974315Y-4283087D01*
X11022285Y-4287068D02*
X11019098Y-4291221D01*
X11004894Y-2069098D02*
X11003407Y-2074118D01*
X9968897Y-3222479D02*
X9972479Y-3218897D01*
X13295414Y-5429936D02*
X13296808Y-5425065D01*
X9958779Y-2019098D02*
X9954464Y-2016133D01*
X13235837Y-4256642D02*
X13230902Y-4254894D01*
X9925882Y-2003407D02*
X9920791Y-2002185D01*
X7741221Y-5480902D02*
X7745536Y-5483867D01*
X13244039Y-3239780D02*
X13248530Y-3237435D01*
X13234730Y-5493775D02*
X13239436Y-5491896D01*
X13270711Y-2029289D02*
X13266913Y-2025685D01*
X7499900Y-5025000D02*
X7700000Y-5025000D01*
X9957127Y-3232076D02*
X9961211Y-3229078D01*
X7745536Y-5483867D02*
X7750000Y-5486603D01*
X13291896Y-3189436D02*
X13293775Y-3184730D01*
X14000100Y-5500000D02*
X14000100Y-2000000D01*
X13297953Y-5420130D02*
X13298847Y-5415143D01*
X13275876Y-5465137D02*
X13279078Y-5461211D01*
X9998769Y-4334357D02*
X9997815Y-4329209D01*
X13254464Y-2016133D02*
X13250000Y-2013397D01*
X7713397Y-4300000D02*
X7710899Y-4304601D01*
X13299872Y-5405065D02*
X13300000Y-5400000D01*
X9975876Y-3215137D02*
X9979078Y-3211211D01*
X9958779Y-4269098D02*
X9954464Y-4266133D01*
X7704894Y-3180902D02*
X7706642Y-3185837D01*
X8316667Y-3950050D02*
X8316667Y-4250000D01*
X9983867Y-4295536D02*
X9980902Y-4291221D01*
X13295106Y-4319098D02*
X13293358Y-4314163D01*
X13210453Y-4250548D02*
X13205234Y-4250137D01*
X13220791Y-4252185D02*
X13215643Y-4251231D01*
X11003407Y-4324118D02*
X11002185Y-4329209D01*
X9997815Y-2079209D02*
X9996593Y-2074118D01*
X11037068Y-2022285D02*
X11033087Y-2025685D01*
X7794766Y-5499863D02*
X7800000Y-5500000D01*
X10300000Y-2775000D02*
X10300000Y-3550050D01*
X7789547Y-3249452D02*
X7794766Y-3249863D01*
X10700000Y-3550050D02*
X10700000Y-2775000D01*
X9083333Y-3950050D02*
X9083333Y-4250000D01*
X8616667Y-4250000D02*
X8616667Y-3950050D01*
X8316667Y-4250000D02*
X7800000Y-4250000D01*
X11079209Y-5497815D02*
X11084357Y-5498769D01*
X9966913Y-4275685D02*
X9962932Y-4272285D01*
X11079209Y-2002185D02*
X11074118Y-2003407D01*
X11002185Y-2079209D02*
X11001231Y-2084356D01*
X13258779Y-4269098D02*
X13254464Y-4266133D01*
X13298769Y-4334357D02*
X13297815Y-4329209D01*
X9996593Y-4324118D02*
X9995106Y-4319098D01*
X7800000Y-2000000D02*
X7794766Y-2000137D01*
X13229936Y-5495414D02*
X13234730Y-5493775D01*
X13215143Y-3248847D02*
X13220130Y-3247953D01*
X7713397Y-2050000D02*
X7710899Y-2054601D01*
X8616667Y-3950050D02*
X9083333Y-3950050D01*
X7701231Y-3165643D02*
X7702185Y-3170791D01*
X11001231Y-4334357D02*
X11000548Y-4339547D01*
X9929936Y-3245414D02*
X9934731Y-3243775D01*
X10300000Y-5025000D02*
X10300000Y-5499900D01*
X13275876Y-3215137D02*
X13279078Y-3211211D01*
X11001231Y-5415643D02*
X11002185Y-5420791D01*
X11074118Y-5496593D02*
X11079209Y-5497815D01*
X11003408Y-3175882D02*
X11004895Y-3180902D01*
X7764163Y-2006642D02*
X7759326Y-2008645D01*
X11000137Y-4344766D02*
X11000000Y-4350000D01*
X13297953Y-3170130D02*
X13298847Y-3165143D01*
X7745536Y-2016133D02*
X7741221Y-2019098D01*
X9986603Y-4300000D02*
X9983867Y-4295536D01*
X9083333Y-4250000D02*
X8616667Y-4250000D01*
X13270711Y-4279289D02*
X13266913Y-4275685D01*
X9910453Y-2000548D02*
X9905234Y-2000137D01*
X11041222Y-3230902D02*
X11045536Y-3233867D01*
X7754601Y-3239101D02*
X7759326Y-3241354D01*
X7702185Y-2079209D02*
X7701231Y-2084356D01*
X13277715Y-2037068D02*
X13274314Y-2033087D01*
X11000548Y-4339547D02*
X11000137Y-4344766D01*
X9999872Y-5405065D02*
X10000000Y-5400000D01*
X13299863Y-4344766D02*
X13299452Y-4339547D01*
X9900000Y-4250000D02*
X9383333Y-4250000D01*
X7708646Y-3190674D02*
X7710899Y-3195399D01*
X11022285Y-2037068D02*
X11019098Y-2041221D01*
X13500000Y-3950050D02*
X13500000Y-3550050D01*
X11069098Y-5495106D02*
X11074118Y-5496593D01*
X9900000Y-2000000D02*
X7800000Y-2000000D01*
X9999863Y-2094766D02*
X9999452Y-2089547D01*
X12683333Y-3950050D02*
X13300000Y-3950050D01*
X13265137Y-3225876D02*
X13268897Y-3222479D01*
X11064163Y-2006642D02*
X11059326Y-2008645D01*
X11004895Y-5430902D02*
X11006642Y-5435837D01*
X7499900Y-2475000D02*
X7499900Y-2000000D01*
X9083333Y-3250000D02*
X9083333Y-3550050D01*
X9984864Y-5452896D02*
X9987435Y-5448530D01*
X13297815Y-4329209D02*
X13296593Y-4324118D01*
X7706642Y-4314163D02*
X7704894Y-4319098D01*
X13293358Y-4314163D02*
X13291355Y-4309326D01*
X11000548Y-2089547D02*
X11000137Y-2094766D01*
X7779209Y-4252185D02*
X7774118Y-4253407D01*
X11010899Y-4304601D02*
X11008645Y-4309326D01*
X11010899Y-3195399D02*
X11013398Y-3200000D01*
X9979078Y-3211211D02*
X9982076Y-3207127D01*
X7774118Y-2003407D02*
X7769098Y-2004894D01*
X9986603Y-2050000D02*
X9983867Y-2045536D01*
X11000548Y-5410453D02*
X11001231Y-5415643D01*
X9920130Y-3247953D02*
X9925065Y-3246808D01*
X9939436Y-3241896D02*
X9944039Y-3239780D01*
X7708646Y-5440674D02*
X7710899Y-5445399D01*
X11000000Y-2475000D02*
X10700000Y-2475000D01*
X11037068Y-4272285D02*
X11033087Y-4275686D01*
X7700000Y-5025000D02*
X7700000Y-5400000D01*
X11050000Y-4263397D02*
X11045536Y-4266133D01*
X13287435Y-3198530D02*
X13289780Y-3194039D01*
X13205234Y-2000137D02*
X13200000Y-2000000D01*
X13283867Y-4295536D02*
X13280902Y-4291221D01*
X9961211Y-5479078D02*
X9965137Y-5475876D01*
X11001231Y-3165643D02*
X11002185Y-3170791D01*
X7750000Y-4263397D02*
X7745536Y-4266133D01*
X13289101Y-4304601D02*
X13286603Y-4300000D01*
X7713397Y-3200000D02*
X7716133Y-3204464D01*
X11074118Y-2003407D02*
X11069098Y-2004894D01*
X13284864Y-3202896D02*
X13287435Y-3198530D01*
X7700000Y-3150000D02*
X7700137Y-3155233D01*
X9991896Y-3189436D02*
X9993775Y-3184730D01*
X11000000Y-4725000D02*
X10700000Y-4725000D01*
X7745536Y-3233867D02*
X7750000Y-3236602D01*
X7784356Y-3248769D02*
X7789547Y-3249452D01*
X7702185Y-3170791D02*
X7703407Y-3175882D01*
X7716133Y-3204464D02*
X7719098Y-3208778D01*
X13200000Y-5500000D02*
X13205065Y-5499872D01*
X9970711Y-2029289D02*
X9966913Y-2025685D01*
X11022286Y-3212932D02*
X11025686Y-3216913D01*
X7737068Y-3227714D02*
X7741221Y-3230902D01*
X7733087Y-3224314D02*
X7737068Y-3227714D01*
X13262932Y-2022285D02*
X13258779Y-2019098D01*
X12383333Y-3250000D02*
X12383333Y-3550050D01*
X9915143Y-5498847D02*
X9920130Y-5497953D01*
X9979078Y-5461211D02*
X9982076Y-5457127D01*
X13210453Y-2000548D02*
X13205234Y-2000137D01*
X7700000Y-4350000D02*
X7700000Y-4725000D01*
X11059326Y-2008645D02*
X11054601Y-2010899D01*
X13284864Y-5452896D02*
X13287435Y-5448530D01*
X11025686Y-2033087D02*
X11022285Y-2037068D01*
X13296808Y-5425065D02*
X13297953Y-5420130D01*
X9948530Y-3237435D02*
X9952896Y-3234864D01*
X7789547Y-4250548D02*
X7784356Y-4251231D01*
X11000548Y-3160453D02*
X11001231Y-3165643D01*
X11029289Y-3220711D02*
X11033087Y-3224314D01*
X13297815Y-2079209D02*
X13296593Y-2074118D01*
X7779209Y-5497815D02*
X7784356Y-5498769D01*
X9980902Y-2041221D02*
X9977715Y-2037068D01*
X13225065Y-3246808D02*
X13229936Y-3245414D01*
X11000137Y-5405234D02*
X11000548Y-5410453D01*
X11000137Y-3155233D02*
X11000548Y-3160453D01*
X12383333Y-3950050D02*
X12383333Y-4250000D01*
X7759326Y-5491355D02*
X7764163Y-5493358D01*
X13215643Y-2001231D02*
X13210453Y-2000548D01*
X7729289Y-2029289D02*
X7725685Y-2033087D01*
X9982076Y-3207127D02*
X9984864Y-3202896D01*
X11916667Y-3550050D02*
X11916667Y-3250000D01*
X11000137Y-2094766D02*
X11000000Y-2100000D01*
X13500100Y-5025000D02*
X13500100Y-5500000D01*
X9962932Y-4272285D02*
X9958779Y-4269098D01*
X9989780Y-3194039D02*
X9991896Y-3189436D01*
X10300000Y-2475000D02*
X10000000Y-2475000D01*
X13300000Y-3150000D02*
X13300000Y-2775000D01*
X13200000Y-3250000D02*
X13205065Y-3249872D01*
X11089547Y-3249452D02*
X11094766Y-3249863D01*
X11054601Y-5489101D02*
X11059326Y-5491355D01*
X9997815Y-4329209D02*
X9996593Y-4324118D01*
X9993775Y-5434731D02*
X9995414Y-5429936D01*
X13240674Y-4258645D02*
X13235837Y-4256642D01*
X7700000Y-2100000D02*
X7700000Y-2475000D01*
X13283867Y-2045536D02*
X13280902Y-2041221D01*
X9944039Y-3239780D02*
X9948530Y-3237435D01*
X11000000Y-2100000D02*
X11000000Y-2475000D01*
X13200000Y-2000000D02*
X11100000Y-2000000D01*
X13274314Y-2033087D02*
X13270711Y-2029289D01*
X11016133Y-5454464D02*
X11019098Y-5458778D01*
X13299863Y-2094766D02*
X13299452Y-2089547D01*
X9996808Y-5425065D02*
X9997953Y-5420130D01*
X9950000Y-2013397D02*
X9945399Y-2010899D01*
X9984864Y-3202896D02*
X9987435Y-3198530D01*
X11016133Y-4295536D02*
X11013397Y-4300000D01*
X13240674Y-2008645D02*
X13235837Y-2006642D01*
X11006642Y-4314163D02*
X11004894Y-4319098D01*
X13300000Y-2775000D02*
X13500100Y-2775000D01*
X10000000Y-2475000D02*
X10000000Y-2100000D01*
X7774118Y-4253407D02*
X7769098Y-4254894D01*
X9999872Y-3155065D02*
X10000000Y-3150000D01*
X12683333Y-3550050D02*
X12683333Y-3250000D01*
X11054601Y-3239101D02*
X11059326Y-3241354D01*
X11074118Y-3246592D02*
X11079209Y-3247815D01*
X13257127Y-5482076D02*
X13261211Y-5479078D01*
X11069098Y-4254894D02*
X11064163Y-4256642D01*
X7737068Y-4272285D02*
X7733087Y-4275686D01*
X13230902Y-4254894D02*
X13225882Y-4253407D01*
X7710899Y-5445399D02*
X7713397Y-5450000D01*
X11010899Y-2054601D02*
X11008645Y-2059326D01*
X13266913Y-4275685D02*
X13262932Y-4272285D01*
X7794766Y-2000137D02*
X7789547Y-2000548D01*
X11000000Y-4350000D02*
X11000000Y-4725000D01*
X11019098Y-2041221D02*
X11016133Y-2045536D01*
X11100000Y-4250000D02*
X11094766Y-4250137D01*
X10000000Y-5400000D02*
X10000000Y-5025000D01*
X11050000Y-2013397D02*
X11045536Y-2016133D01*
X7733087Y-2025685D02*
X7729289Y-2029289D01*
X9900000Y-3250000D02*
X9905065Y-3249872D01*
X7706642Y-2064163D02*
X7704894Y-2069098D01*
X13268897Y-3222479D02*
X13272479Y-3218897D01*
X7729289Y-5470711D02*
X7733087Y-5474314D01*
X11033087Y-4275686D02*
X11029289Y-4279289D01*
X7789547Y-2000548D02*
X7784356Y-2001231D01*
X13296593Y-2074118D02*
X13295106Y-2069098D01*
X10000000Y-2775000D02*
X10300000Y-2775000D01*
X9998769Y-2084356D02*
X9997815Y-2079209D01*
X7722285Y-3212932D02*
X7725686Y-3216913D01*
X9929936Y-5495414D02*
X9934731Y-5493775D01*
X9925065Y-5496808D02*
X9929936Y-5495414D01*
X7708645Y-4309326D02*
X7706642Y-4314163D01*
X9999863Y-4344766D02*
X9999452Y-4339547D01*
X9905234Y-4250137D02*
X9900000Y-4250000D01*
X8616667Y-3550050D02*
X8616667Y-3250000D01*
X11025686Y-5466913D02*
X11029289Y-5470711D01*
X9957127Y-5482076D02*
X9961211Y-5479078D01*
X7703407Y-4324118D02*
X7702185Y-4329209D01*
X13225882Y-4253407D02*
X13220791Y-4252185D01*
X13215643Y-4251231D02*
X13210453Y-4250548D01*
X9995106Y-2069098D02*
X9993358Y-2064163D01*
X11025686Y-4283087D02*
X11022285Y-4287068D01*
X9934731Y-3243775D02*
X9939436Y-3241896D01*
X11089547Y-2000548D02*
X11084357Y-2001231D01*
X9991355Y-4309326D02*
X9989101Y-4304601D01*
X9915643Y-4251231D02*
X9910453Y-4250548D01*
X13200000Y-4250000D02*
X12683333Y-4250000D01*
X13258779Y-2019098D02*
X13254464Y-2016133D01*
X7725686Y-3216913D02*
X7729289Y-3220711D01*
X13244039Y-5489780D02*
X13248530Y-5487435D01*
X7706642Y-3185837D02*
X7708646Y-3190674D01*
X11045536Y-5483867D02*
X11050000Y-5486603D01*
X9999452Y-2089547D02*
X9998769Y-2084356D01*
X7789547Y-5499452D02*
X7794766Y-5499863D01*
X14000100Y-2000000D02*
X13500100Y-2000000D01*
X9905065Y-5499872D02*
X9910117Y-5499487D01*
X11616667Y-4250000D02*
X11100000Y-4250000D01*
X11084357Y-4251231D02*
X11079209Y-4252185D01*
X10700000Y-2000000D02*
X10300000Y-2000000D01*
X9920791Y-2002185D02*
X9915643Y-2001231D01*
X7722285Y-5462932D02*
X7725686Y-5466913D01*
X11074118Y-4253407D02*
X11069098Y-4254894D01*
X7704894Y-2069098D02*
X7703407Y-2074118D01*
X11059326Y-3241354D02*
X11064163Y-3243358D01*
X11001231Y-2084356D02*
X11000548Y-2089547D01*
X7701231Y-2084356D02*
X7700548Y-2089547D01*
X9910117Y-5499487D02*
X9915143Y-5498847D01*
X7725685Y-4283087D02*
X7722285Y-4287068D01*
X13282076Y-3207127D02*
X13284864Y-3202896D01*
X11069098Y-3245106D02*
X11074118Y-3246592D01*
X11084357Y-5498769D02*
X11089547Y-5499452D01*
X11016133Y-3204464D02*
X11019098Y-3208778D01*
X11000000Y-5400000D02*
X11000137Y-5405234D01*
X10700000Y-5499900D02*
X10700000Y-5025000D01*
X7741221Y-2019098D02*
X7737068Y-2022285D01*
X11094766Y-5499863D02*
X11100000Y-5500000D01*
X7703407Y-3175882D02*
X7704894Y-3180902D01*
X11616667Y-3950050D02*
X11616667Y-4250000D01*
X13295106Y-2069098D02*
X13293358Y-2064163D01*
X7499900Y-2775000D02*
X7700000Y-2775000D01*
X13287435Y-5448530D02*
X13289780Y-5444039D01*
X11013397Y-2050000D02*
X11010899Y-2054601D01*
X9965137Y-3225876D02*
X9968897Y-3222479D01*
X11916667Y-3950050D02*
X12383333Y-3950050D01*
X10700000Y-3950050D02*
X11616667Y-3950050D01*
X9940674Y-4258645D02*
X9935837Y-4256642D01*
X11616667Y-3550050D02*
X10700000Y-3550050D01*
X10300000Y-4725000D02*
X10000000Y-4725000D01*
X10000000Y-4350000D02*
X9999863Y-4344766D01*
X13299872Y-3155065D02*
X13300000Y-3150000D01*
X7729289Y-4279289D02*
X7725685Y-4283087D01*
X9977715Y-2037068D02*
X9974315Y-2033087D01*
X11019098Y-3208778D02*
X11022286Y-3212932D01*
X13300000Y-5025000D02*
X13500100Y-5025000D01*
X9935837Y-4256642D02*
X9930902Y-4254894D01*
X13500000Y-3550050D02*
X13300000Y-3550050D01*
X9999487Y-5410117D02*
X9999872Y-5405065D01*
X7769098Y-2004894D02*
X7764163Y-2006642D01*
X9930902Y-4254894D02*
X9925882Y-4253407D01*
X11019098Y-4291221D02*
X11016133Y-4295536D01*
X11008645Y-4309326D02*
X11006642Y-4314163D01*
X9905234Y-2000137D02*
X9900000Y-2000000D01*
X9925065Y-3246808D02*
X9929936Y-3245414D01*
X9968897Y-5472479D02*
X9972479Y-5468897D01*
X9940674Y-2008645D02*
X9935837Y-2006642D01*
X11008646Y-5440674D02*
X11010899Y-5445399D01*
X9383333Y-3950050D02*
X10300000Y-3950050D01*
X7716133Y-2045536D02*
X7713397Y-2050000D01*
X13239436Y-3241896D02*
X13244039Y-3239780D01*
X11069098Y-2004894D02*
X11064163Y-2006642D01*
X13252896Y-3234864D02*
X13257127Y-3232076D01*
X9954464Y-4266133D02*
X9950000Y-4263397D01*
X13225065Y-5496808D02*
X13229936Y-5495414D01*
X11013398Y-3200000D02*
X11016133Y-3204464D01*
X7737068Y-2022285D02*
X7733087Y-2025685D01*
X10000000Y-4725000D02*
X10000000Y-4350000D01*
X7710899Y-3195399D02*
X7713397Y-3200000D01*
X9939436Y-5491896D02*
X9944039Y-5489780D01*
X7784356Y-5498769D02*
X7789547Y-5499452D01*
X11094766Y-4250137D02*
X11089547Y-4250548D01*
X13300000Y-5400000D02*
X13300000Y-5025000D01*
X13210117Y-5499487D02*
X13215143Y-5498847D01*
X12383333Y-3550050D02*
X11916667Y-3550050D01*
X7725686Y-5466913D02*
X7729289Y-5470711D01*
X11079209Y-4252185D02*
X11074118Y-4253407D01*
X11045536Y-3233867D02*
X11050000Y-3236602D01*
X6999900Y-5500000D02*
X7499900Y-5500000D01*
X7710899Y-4304601D02*
X7708645Y-4309326D01*
X7769098Y-4254894D02*
X7764163Y-4256642D01*
X9083333Y-3550050D02*
X8616667Y-3550050D01*
X11006642Y-5435837D02*
X11008646Y-5440674D01*
X11037068Y-3227714D02*
X11041222Y-3230902D01*
X12683333Y-3250000D02*
X13200000Y-3250000D01*
X11013397Y-4300000D02*
X11010899Y-4304601D01*
X9910117Y-3249487D02*
X9915143Y-3248847D01*
X10300000Y-2000000D02*
X10300000Y-2475000D01*
X9952896Y-5484864D02*
X9957127Y-5482076D01*
X7729289Y-3220711D02*
X7733087Y-3224314D01*
X9983867Y-2045536D02*
X9980902Y-2041221D01*
X7769098Y-5495106D02*
X7774118Y-5496593D01*
X13277715Y-4287068D02*
X13274314Y-4283087D01*
X11002185Y-5420791D02*
X11003408Y-5425882D01*
X9995106Y-4319098D02*
X9993358Y-4314163D01*
X11008646Y-3190674D02*
X11010899Y-3195399D01*
X13250000Y-2013397D02*
X13245399Y-2010899D01*
X13262932Y-4272285D02*
X13258779Y-4269098D01*
X9910453Y-4250548D02*
X9905234Y-4250137D01*
X10300000Y-5499900D02*
X10700000Y-5499900D01*
X9948530Y-5487435D02*
X9952896Y-5484864D01*
X7764163Y-3243358D02*
X7769098Y-3245106D01*
X9934731Y-5493775D02*
X9939436Y-5491896D01*
X7701231Y-5415643D02*
X7702185Y-5420791D01*
X9970711Y-4279289D02*
X9966913Y-4275685D01*
X10000000Y-5025000D02*
X10300000Y-5025000D01*
X13272479Y-5468897D02*
X13275876Y-5465137D01*
X7733087Y-4275686D02*
X7729289Y-4279289D01*
X13296593Y-4324118D02*
X13295106Y-4319098D01*
X13300000Y-4350000D02*
X13299863Y-4344766D01*
X9974315Y-4283087D02*
X9970711Y-4279289D01*
X7706642Y-5435837D02*
X7708646Y-5440674D01*
X9383333Y-4250000D02*
X9383333Y-3950050D01*
X9993775Y-3184730D02*
X9995414Y-3179936D01*
X9995414Y-5429936D02*
X9996808Y-5425065D01*
X11041222Y-5480902D02*
X11045536Y-5483867D01*
X11000000Y-2775000D02*
X11000000Y-3150000D01*
X7769098Y-3245106D02*
X7774118Y-3246592D01*
X9962932Y-2022285D02*
X9958779Y-2019098D01*
X11054601Y-4260899D02*
X11050000Y-4263397D01*
X13261211Y-5479078D02*
X13265137Y-5475876D01*
X10300000Y-3550050D02*
X9383333Y-3550050D01*
X9993358Y-2064163D02*
X9991355Y-2059326D01*
X7700000Y-2775000D02*
X7700000Y-3150000D01*
X13299452Y-2089547D02*
X13298769Y-2084356D01*
X7741221Y-3230902D02*
X7745536Y-3233867D01*
X11003407Y-2074118D02*
X11002185Y-2079209D01*
X7700137Y-4344766D02*
X7700000Y-4350000D01*
X7700000Y-3950050D02*
X8316667Y-3950050D01*
X7754601Y-2010899D02*
X7750000Y-2013397D01*
X13268897Y-5472479D02*
X13272479Y-5468897D01*
X7704894Y-5430902D02*
X7706642Y-5435837D01*
X13210117Y-3249487D02*
X13215143Y-3248847D01*
X13250000Y-4263397D02*
X13245399Y-4260899D01*
X13280902Y-2041221D02*
X13277715Y-2037068D01*
X13215143Y-5498847D02*
X13220130Y-5497953D01*
X13293358Y-2064163D02*
X13291355Y-2059326D01*
X7719098Y-3208778D02*
X7722285Y-3212932D01*
X11029289Y-5470711D02*
X11033087Y-5474314D01*
X9999452Y-4339547D02*
X9998769Y-4334357D01*
X13286603Y-4300000D02*
X13283867Y-4295536D01*
X7725685Y-2033087D02*
X7722285Y-2037068D01*
X7784356Y-2001231D02*
X7779209Y-2002185D01*
X9915143Y-3248847D02*
X9920130Y-3247953D01*
X7774118Y-3246592D02*
X7779209Y-3247815D01*
X9972479Y-5468897D02*
X9975876Y-5465137D01*
X7716133Y-4295536D02*
X7713397Y-4300000D01*
X13279078Y-3211211D02*
X13282076Y-3207127D01*
X9996808Y-3175065D02*
X9997953Y-3170130D01*
X7784356Y-4251231D02*
X7779209Y-4252185D01*
X9383333Y-3250000D02*
X9900000Y-3250000D01*
X9987435Y-5448530D02*
X9989780Y-5444039D01*
X8316667Y-3250000D02*
X8316667Y-3550050D01*
X6999900Y-2000000D02*
X6999900Y-5500000D01*
X13245399Y-4260899D02*
X13240674Y-4258645D01*
X7700137Y-2094766D02*
X7700000Y-2100000D01*
X13500100Y-5500000D02*
X14000100Y-5500000D01*
X7759326Y-4258645D02*
X7754601Y-4260899D01*
X11100000Y-5500000D02*
X13200000Y-5500000D01*
X13235837Y-2006642D02*
X13230902Y-2004894D01*
X7750000Y-2013397D02*
X7745536Y-2016133D01*
X7759326Y-3241354D02*
X7764163Y-3243358D01*
X13279078Y-5461211D02*
X13282076Y-5457127D01*
X11029289Y-2029289D02*
X11025686Y-2033087D01*
X7741221Y-4269098D02*
X7737068Y-4272285D01*
X13500100Y-2475000D02*
X13300000Y-2475000D01*
X13245399Y-2010899D02*
X13240674Y-2008645D01*
X11064163Y-3243358D02*
X11069098Y-3245106D01*
X7800000Y-3250000D02*
X8316667Y-3250000D01*
X13291355Y-4309326D02*
X13289101Y-4304601D01*
X11029289Y-4279289D02*
X11025686Y-4283087D01*
X10000000Y-2100000D02*
X9999863Y-2094766D01*
X9915643Y-2001231D02*
X9910453Y-2000548D01*
X13300000Y-3550050D02*
X12683333Y-3550050D01*
X13266913Y-2025685D02*
X13262932Y-2022285D01*
X11916667Y-3250000D02*
X12383333Y-3250000D01*
X13239436Y-5491896D02*
X13244039Y-5489780D01*
X13205234Y-4250137D02*
X13200000Y-4250000D01*
X9954464Y-2016133D02*
X9950000Y-2013397D01*
X13289780Y-5444039D02*
X13291896Y-5439436D01*
X9974315Y-2033087D02*
X9970711Y-2029289D01*
X10700000Y-2775000D02*
X11000000Y-2775000D01*
X13299487Y-3160117D02*
X13299872Y-3155065D01*
X13261211Y-3229078D02*
X13265137Y-3225876D01*
X9997953Y-5420130D02*
X9998847Y-5415143D01*
X7774118Y-5496593D02*
X7779209Y-5497815D01*
X9996593Y-2074118D02*
X9995106Y-2069098D01*
X9383333Y-3550050D02*
X9383333Y-3250000D01*
X13300000Y-4725000D02*
X13300000Y-4350000D01*
X7800000Y-4250000D02*
X7794766Y-4250137D01*
X13291355Y-2059326D02*
X13289101Y-2054601D01*
X13225882Y-2003407D02*
X13220791Y-2002185D01*
X11094766Y-3249863D02*
X11100000Y-3250000D01*
X13234730Y-3243775D02*
X13239436Y-3241896D01*
X11054601Y-2010899D02*
X11050000Y-2013397D01*
X13230902Y-2004894D02*
X13225882Y-2003407D01*
X7722285Y-2037068D02*
X7719098Y-2041221D01*
X11064163Y-4256642D02*
X11059326Y-4258645D01*
X11016133Y-2045536D02*
X11013397Y-2050000D01*
X7703407Y-2074118D02*
X7702185Y-2079209D01*
X11064163Y-5493358D02*
X11069098Y-5495106D01*
X11006642Y-2064163D02*
X11004894Y-2069098D01*
X11013398Y-5450000D02*
X11016133Y-5454464D01*
X11033087Y-5474314D02*
X11037068Y-5477715D01*
X9991355Y-2059326D02*
X9989101Y-2054601D01*
X13280902Y-4291221D02*
X13277715Y-4287068D01*
X7700000Y-4725000D02*
X7499900Y-4725000D01*
X7702185Y-4329209D02*
X7701231Y-4334357D01*
X13298769Y-2084356D02*
X13297815Y-2079209D01*
X11000000Y-5025000D02*
X11000000Y-5400000D01*
X11100000Y-3250000D02*
X11616667Y-3250000D01*
X11050000Y-3236602D02*
X11054601Y-3239101D01*
X9961211Y-3229078D02*
X9965137Y-3225876D01*
X11100000Y-2000000D02*
X11094766Y-2000137D01*
X7754601Y-5489101D02*
X7759326Y-5491355D01*
X13286603Y-2050000D02*
X13283867Y-2045536D01*
X13300000Y-2475000D02*
X13300000Y-2100000D01*
X11022286Y-5462932D02*
X11025686Y-5466913D01*
X7700137Y-3155233D02*
X7700548Y-3160453D01*
X11916667Y-4250000D02*
X11916667Y-3950050D01*
X13500100Y-4725000D02*
X13300000Y-4725000D01*
X11041221Y-2019098D02*
X11037068Y-2022285D01*
X7700548Y-3160453D02*
X7701231Y-3165643D01*
X9952896Y-3234864D02*
X9957127Y-3232076D01*
X11004894Y-4319098D02*
X11003407Y-4324118D01*
X13220791Y-2002185D02*
X13215643Y-2001231D01*
X13300000Y-3950050D02*
X13500000Y-3950050D01*
X7779209Y-3247815D02*
X7784356Y-3248769D01*
X7719098Y-2041221D02*
X7716133Y-2045536D01*
X13274314Y-4283087D02*
X13270711Y-4279289D01*
X13299487Y-5410117D02*
X13299872Y-5405065D01*
X11094766Y-2000137D02*
X11089547Y-2000548D01*
X13252896Y-5484864D02*
X13257127Y-5482076D01*
X9966913Y-2025685D02*
X9962932Y-2022285D01*
X13248530Y-5487435D02*
X13252896Y-5484864D01*
X9980902Y-4291221D02*
X9977715Y-4287068D01*
X7779209Y-2002185D02*
X7774118Y-2003407D01*
X9999487Y-3160117D02*
X9999872Y-3155065D01*
X10000000Y-3150000D02*
X10000000Y-2775000D01*
X13298847Y-3165143D02*
X13299487Y-3160117D01*
X11089547Y-5499452D02*
X11094766Y-5499863D01*
X13300000Y-2100000D02*
X13299863Y-2094766D01*
X13272479Y-3218897D02*
X13275876Y-3215137D01*
X11041221Y-4269098D02*
X11037068Y-4272285D01*
X9900000Y-5500000D02*
X9905065Y-5499872D01*
X12683333Y-4250000D02*
X12683333Y-3950050D01*
X9991896Y-5439436D02*
X9993775Y-5434731D01*
X11025686Y-3216913D02*
X11029289Y-3220711D01*
X9975876Y-5465137D02*
X9979078Y-5461211D01*
X11019098Y-5458778D02*
X11022286Y-5462932D01*
X7713397Y-5450000D02*
X7716133Y-5454464D01*
X13289101Y-2054601D02*
X13286603Y-2050000D01*
X9945399Y-4260899D02*
X9940674Y-4258645D01*
X10700000Y-5025000D02*
X11000000Y-5025000D01*
X7700137Y-5405234D02*
X7700548Y-5410453D01*
X9935837Y-2006642D02*
X9930902Y-2004894D01*
X9920791Y-4252185D02*
X9915643Y-4251231D01*
X11084357Y-2001231D02*
X11079209Y-2002185D01*
X11045536Y-2016133D02*
X11041221Y-2019098D01*
X7764163Y-5493358D02*
X7769098Y-5495106D01*
X13299452Y-4339547D02*
X13298769Y-4334357D01*
X7700000Y-3550050D02*
X7500000Y-3550050D01*
X9905065Y-3249872D02*
X9910117Y-3249487D01*
X9945399Y-2010899D02*
X9940674Y-2008645D01*
X11002185Y-4329209D02*
X11001231Y-4334357D01*
X7700000Y-5400000D02*
X7700137Y-5405234D01*
X13298847Y-5415143D02*
X13299487Y-5410117D01*
X13205065Y-3249872D02*
X13210117Y-3249487D01*
X13229936Y-3245414D02*
X13234730Y-3243775D01*
X7764163Y-4256642D02*
X7759326Y-4258645D01*
X12383333Y-4250000D02*
X11916667Y-4250000D01*
X13220130Y-5497953D02*
X13225065Y-5496808D01*
X7704894Y-4319098D02*
X7703407Y-4324118D01*
X9987435Y-3198530D02*
X9989780Y-3194039D01*
X9925882Y-4253407D02*
X9920791Y-4252185D01*
X7499900Y-2000000D02*
X6999900Y-2000000D01*
X7703407Y-5425882D02*
X7704894Y-5430902D01*
X13220130Y-3247953D02*
X13225065Y-3246808D01*
X13291896Y-5439436D02*
X13293775Y-5434731D01*
X9993358Y-4314163D02*
X9991355Y-4309326D01*
X9965137Y-5475876D02*
X9968897Y-5472479D01*
X9989101Y-4304601D02*
X9986603Y-4300000D01*
X10700000Y-2475000D02*
X10700000Y-2000000D01*
X7745536Y-4266133D02*
X7741221Y-4269098D01*
X7499900Y-5500000D02*
X7499900Y-5025000D01*
X8616667Y-3250000D02*
X9083333Y-3250000D01*
X11003408Y-5425882D02*
X11004895Y-5430902D01*
X13205065Y-5499872D02*
X13210117Y-5499487D01*
X7719098Y-4291221D02*
X7716133Y-4295536D01*
X7722285Y-4287068D02*
X7719098Y-4291221D01*
X10300000Y-3950050D02*
X10300000Y-4725000D01*
X13500100Y-2775000D02*
X13500100Y-4725000D01*
X7700548Y-2089547D02*
X7700137Y-2094766D01*
X11616667Y-3250000D02*
X11616667Y-3550050D01*
X11010899Y-5445399D02*
X11013398Y-5450000D01*
X13282076Y-5457127D02*
X13284864Y-5452896D01*
X7700548Y-5410453D02*
X7701231Y-5415643D01*
X9995414Y-3179936D02*
X9996808Y-3175065D01*
X7794766Y-3249863D02*
X7800000Y-3250000D01*
X11089547Y-4250548D02*
X11084357Y-4251231D01*
X11050000Y-5486603D02*
X11054601Y-5489101D01*
X13296808Y-3175065D02*
X13297953Y-3170130D01*
X13500100Y-2000000D02*
X13500100Y-2475000D01*
X9930902Y-2004894D02*
X9925882Y-2003407D01*
X7700000Y-2475000D02*
X7499900Y-2475000D01*
X7702185Y-5420791D02*
X7703407Y-5425882D01*
X7750000Y-5486603D02*
X7754601Y-5489101D01*
X11000000Y-3150000D02*
X11000137Y-3155233D01*
X9989101Y-2054601D02*
X9986603Y-2050000D01*
X7719098Y-5458778D02*
X7722285Y-5462932D01*
X7500000Y-3950050D02*
X7700000Y-3950050D01*
X7794766Y-4250137D02*
X7789547Y-4250548D01*
X13257127Y-3232076D02*
X13261211Y-3229078D01*
X13254464Y-4266133D02*
X13250000Y-4263397D01*
X9998847Y-3165143D02*
X9999487Y-3160117D01*
X11033087Y-3224314D02*
X11037068Y-3227714D01*
X10700000Y-4725000D02*
X10700000Y-3950050D01*
X9998847Y-5415143D02*
X9999487Y-5410117D01*
X7800000Y-5500000D02*
X9900000Y-5500000D01*
X13248530Y-3237435D02*
X13252896Y-3234864D01*
X11033087Y-2025685D02*
X11029289Y-2029289D01*
X11006642Y-3185837D02*
X11008646Y-3190674D01*
X11008645Y-2059326D02*
X11006642Y-2064163D01*
X7737068Y-5477715D02*
X7741221Y-5480902D01*
X11079209Y-3247815D02*
X11084357Y-3248769D01*
X11037068Y-5477715D02*
X11041222Y-5480902D01*
X7499900Y-4725000D02*
X7499900Y-2775000D01*
X7754601Y-4260899D02*
X7750000Y-4263397D01*
X9950000Y-4263397D02*
X9945399Y-4260899D01*
X7716133Y-5454464D02*
X7719098Y-5458778D01*
X7710899Y-2054601D02*
X7708645Y-2059326D01*
X11002185Y-3170791D02*
X11003408Y-3175882D01*
X9982076Y-5457127D02*
X9984864Y-5452896D01*
X11004895Y-3180902D02*
X11006642Y-3185837D01*
X11084357Y-3248769D02*
X11089547Y-3249452D01*
D11*
D10*
X8110000Y-2985000D02*
X8140000Y-3015000D01*
X8140000Y-2985000D02*
X8110000Y-3015000D01*
X8110000Y-5235000D02*
X8140000Y-5265000D01*
X8140000Y-5235000D02*
X8110000Y-5265000D01*
X8185000Y-3085000D02*
X8215000Y-3115000D01*
X8215000Y-3085000D02*
X8185000Y-3115000D01*
X8185000Y-5335000D02*
X8215000Y-5365000D01*
X8215000Y-5335000D02*
X8185000Y-5365000D01*
X8285000Y-2985000D02*
X8315000Y-3015000D01*
X8315000Y-2985000D02*
X8285000Y-3015000D01*
X8285000Y-5235000D02*
X8315000Y-5265000D01*
X8315000Y-5235000D02*
X8285000Y-5265000D01*
X8360000Y-3085000D02*
X8390000Y-3115000D01*
X8390000Y-3085000D02*
X8360000Y-3115000D01*
X8360000Y-5335000D02*
X8390000Y-5365000D01*
X8390000Y-5335000D02*
X8360000Y-5365000D01*
X8460000Y-2211500D02*
X8490000Y-2241500D01*
X8490000Y-2211500D02*
X8460000Y-2241500D01*
X8460000Y-2985000D02*
X8490000Y-3015000D01*
X8490000Y-2985000D02*
X8460000Y-3015000D01*
X8460000Y-4461500D02*
X8490000Y-4491500D01*
X8490000Y-4461500D02*
X8460000Y-4491500D01*
X8460000Y-5235000D02*
X8490000Y-5265000D01*
X8490000Y-5235000D02*
X8460000Y-5265000D01*
X8535000Y-3085000D02*
X8565000Y-3115000D01*
X8565000Y-3085000D02*
X8535000Y-3115000D01*
X8535000Y-5335000D02*
X8565000Y-5365000D01*
X8565000Y-5335000D02*
X8535000Y-5365000D01*
X8635000Y-2211500D02*
X8665000Y-2241500D01*
X8665000Y-2211500D02*
X8635000Y-2241500D01*
X8635000Y-2985000D02*
X8665000Y-3015000D01*
X8665000Y-2985000D02*
X8635000Y-3015000D01*
X8635000Y-4461500D02*
X8665000Y-4491500D01*
X8665000Y-4461500D02*
X8635000Y-4491500D01*
X8635000Y-5235000D02*
X8665000Y-5265000D01*
X8665000Y-5235000D02*
X8635000Y-5265000D01*
X8710000Y-3085000D02*
X8740000Y-3115000D01*
X8740000Y-3085000D02*
X8710000Y-3115000D01*
X8710000Y-5335000D02*
X8740000Y-5365000D01*
X8740000Y-5335000D02*
X8710000Y-5365000D01*
X8810000Y-2211500D02*
X8840000Y-2241500D01*
X8840000Y-2211500D02*
X8810000Y-2241500D01*
X8810000Y-2985000D02*
X8840000Y-3015000D01*
X8840000Y-2985000D02*
X8810000Y-3015000D01*
X8810000Y-4461500D02*
X8840000Y-4491500D01*
X8840000Y-4461500D02*
X8810000Y-4491500D01*
X8810000Y-5235000D02*
X8840000Y-5265000D01*
X8840000Y-5235000D02*
X8810000Y-5265000D01*
X8910000Y-2485000D02*
X8940000Y-2515000D01*
X8940000Y-2485000D02*
X8910000Y-2515000D01*
X8910000Y-4735000D02*
X8940000Y-4765000D01*
X8940000Y-4735000D02*
X8910000Y-4765000D01*
X8985000Y-2585000D02*
X9015000Y-2615000D01*
X9015000Y-2585000D02*
X8985000Y-2615000D01*
X8985000Y-4835000D02*
X9015000Y-4865000D01*
X9015000Y-4835000D02*
X8985000Y-4865000D01*
X9115000Y-2336500D02*
X9145000Y-2366500D01*
X9145000Y-2336500D02*
X9115000Y-2366500D01*
X9115000Y-4586500D02*
X9145000Y-4616500D01*
X9145000Y-4586500D02*
X9115000Y-4616500D01*
X9360000Y-2185000D02*
X9390000Y-2215000D01*
X9390000Y-2185000D02*
X9360000Y-2215000D01*
X9360000Y-4435000D02*
X9390000Y-4465000D01*
X9390000Y-4435000D02*
X9360000Y-4465000D01*
X9385000Y-3085000D02*
X9415000Y-3115000D01*
X9415000Y-3085000D02*
X9385000Y-3115000D01*
X9385000Y-5335000D02*
X9415000Y-5365000D01*
X9415000Y-5335000D02*
X9385000Y-5365000D01*
X9460000Y-2085000D02*
X9490000Y-2115000D01*
X9490000Y-2085000D02*
X9460000Y-2115000D01*
X9460000Y-4335000D02*
X9490000Y-4365000D01*
X9490000Y-4335000D02*
X9460000Y-4365000D01*
X9485000Y-2985000D02*
X9515000Y-3015000D01*
X9515000Y-2985000D02*
X9485000Y-3015000D01*
X9485000Y-5235000D02*
X9515000Y-5265000D01*
X9515000Y-5235000D02*
X9485000Y-5265000D01*
X9535000Y-2185000D02*
X9565000Y-2215000D01*
X9565000Y-2185000D02*
X9535000Y-2215000D01*
X9535000Y-4435000D02*
X9565000Y-4465000D01*
X9565000Y-4435000D02*
X9535000Y-4465000D01*
X9560000Y-3085000D02*
X9590000Y-3115000D01*
X9590000Y-3085000D02*
X9560000Y-3115000D01*
X9560000Y-5335000D02*
X9590000Y-5365000D01*
X9590000Y-5335000D02*
X9560000Y-5365000D01*
X9635000Y-2085000D02*
X9665000Y-2115000D01*
X9665000Y-2085000D02*
X9635000Y-2115000D01*
X9635000Y-4335000D02*
X9665000Y-4365000D01*
X9665000Y-4335000D02*
X9635000Y-4365000D01*
X9640000Y-2386500D02*
X9670000Y-2416500D01*
X9670000Y-2386500D02*
X9640000Y-2416500D01*
X9640000Y-4636500D02*
X9670000Y-4666500D01*
X9670000Y-4636500D02*
X9640000Y-4666500D01*
X9765000Y-2396050D02*
X9795000Y-2426050D01*
X9795000Y-2396050D02*
X9765000Y-2426050D01*
X9765000Y-2585000D02*
X9795000Y-2615000D01*
X9795000Y-2585000D02*
X9765000Y-2615000D01*
X9765000Y-4646050D02*
X9795000Y-4676050D01*
X9795000Y-4646050D02*
X9765000Y-4676050D01*
X9765000Y-4835000D02*
X9795000Y-4865000D01*
X9795000Y-4835000D02*
X9765000Y-4865000D01*
X11410000Y-2985000D02*
X11440000Y-3015000D01*
X11440000Y-2985000D02*
X11410000Y-3015000D01*
X11410000Y-5235000D02*
X11440000Y-5265000D01*
X11440000Y-5235000D02*
X11410000Y-5265000D01*
X11485000Y-3085000D02*
X11515000Y-3115000D01*
X11515000Y-3085000D02*
X11485000Y-3115000D01*
X11485000Y-5335000D02*
X11515000Y-5365000D01*
X11515000Y-5335000D02*
X11485000Y-5365000D01*
X11585000Y-2985000D02*
X11615000Y-3015000D01*
X11615000Y-2985000D02*
X11585000Y-3015000D01*
X11585000Y-5235000D02*
X11615000Y-5265000D01*
X11615000Y-5235000D02*
X11585000Y-5265000D01*
X11660000Y-3085000D02*
X11690000Y-3115000D01*
X11690000Y-3085000D02*
X11660000Y-3115000D01*
X11660000Y-5335000D02*
X11690000Y-5365000D01*
X11690000Y-5335000D02*
X11660000Y-5365000D01*
X11760000Y-2211500D02*
X11790000Y-2241500D01*
X11790000Y-2211500D02*
X11760000Y-2241500D01*
X11760000Y-2985000D02*
X11790000Y-3015000D01*
X11790000Y-2985000D02*
X11760000Y-3015000D01*
X11760000Y-4461500D02*
X11790000Y-4491500D01*
X11790000Y-4461500D02*
X11760000Y-4491500D01*
X11760000Y-5235000D02*
X11790000Y-5265000D01*
X11790000Y-5235000D02*
X11760000Y-5265000D01*
X11835000Y-3085000D02*
X11865000Y-3115000D01*
X11865000Y-3085000D02*
X11835000Y-3115000D01*
X11835000Y-5335000D02*
X11865000Y-5365000D01*
X11865000Y-5335000D02*
X11835000Y-5365000D01*
X11935000Y-2211500D02*
X11965000Y-2241500D01*
X11965000Y-2211500D02*
X11935000Y-2241500D01*
X11935000Y-2985000D02*
X11965000Y-3015000D01*
X11965000Y-2985000D02*
X11935000Y-3015000D01*
X11935000Y-4461500D02*
X11965000Y-4491500D01*
X11965000Y-4461500D02*
X11935000Y-4491500D01*
X11935000Y-5235000D02*
X11965000Y-5265000D01*
X11965000Y-5235000D02*
X11935000Y-5265000D01*
X12010000Y-3085000D02*
X12040000Y-3115000D01*
X12040000Y-3085000D02*
X12010000Y-3115000D01*
X12010000Y-5335000D02*
X12040000Y-5365000D01*
X12040000Y-5335000D02*
X12010000Y-5365000D01*
X12110000Y-2211500D02*
X12140000Y-2241500D01*
X12140000Y-2211500D02*
X12110000Y-2241500D01*
X12110000Y-2985000D02*
X12140000Y-3015000D01*
X12140000Y-2985000D02*
X12110000Y-3015000D01*
X12110000Y-4461500D02*
X12140000Y-4491500D01*
X12140000Y-4461500D02*
X12110000Y-4491500D01*
X12110000Y-5235000D02*
X12140000Y-5265000D01*
X12140000Y-5235000D02*
X12110000Y-5265000D01*
X12210000Y-2485000D02*
X12240000Y-2515000D01*
X12240000Y-2485000D02*
X12210000Y-2515000D01*
X12210000Y-4735000D02*
X12240000Y-4765000D01*
X12240000Y-4735000D02*
X12210000Y-4765000D01*
X12285000Y-2585000D02*
X12315000Y-2615000D01*
X12315000Y-2585000D02*
X12285000Y-2615000D01*
X12285000Y-4835000D02*
X12315000Y-4865000D01*
X12315000Y-4835000D02*
X12285000Y-4865000D01*
X12415000Y-2336500D02*
X12445000Y-2366500D01*
X12445000Y-2336500D02*
X12415000Y-2366500D01*
X12415000Y-4586500D02*
X12445000Y-4616500D01*
X12445000Y-4586500D02*
X12415000Y-4616500D01*
X12660000Y-2185000D02*
X12690000Y-2215000D01*
X12690000Y-2185000D02*
X12660000Y-2215000D01*
X12660000Y-4435000D02*
X12690000Y-4465000D01*
X12690000Y-4435000D02*
X12660000Y-4465000D01*
X12685000Y-3085000D02*
X12715000Y-3115000D01*
X12715000Y-3085000D02*
X12685000Y-3115000D01*
X12685000Y-5335000D02*
X12715000Y-5365000D01*
X12715000Y-5335000D02*
X12685000Y-5365000D01*
X12760000Y-2085000D02*
X12790000Y-2115000D01*
X12790000Y-2085000D02*
X12760000Y-2115000D01*
X12760000Y-4335000D02*
X12790000Y-4365000D01*
X12790000Y-4335000D02*
X12760000Y-4365000D01*
X12785000Y-2985000D02*
X12815000Y-3015000D01*
X12815000Y-2985000D02*
X12785000Y-3015000D01*
X12785000Y-5235000D02*
X12815000Y-5265000D01*
X12815000Y-5235000D02*
X12785000Y-5265000D01*
X12835000Y-2185000D02*
X12865000Y-2215000D01*
X12865000Y-2185000D02*
X12835000Y-2215000D01*
X12835000Y-4435000D02*
X12865000Y-4465000D01*
X12865000Y-4435000D02*
X12835000Y-4465000D01*
X12860000Y-3085000D02*
X12890000Y-3115000D01*
X12890000Y-3085000D02*
X12860000Y-3115000D01*
X12860000Y-5335000D02*
X12890000Y-5365000D01*
X12890000Y-5335000D02*
X12860000Y-5365000D01*
X12935000Y-2085000D02*
X12965000Y-2115000D01*
X12965000Y-2085000D02*
X12935000Y-2115000D01*
X12935000Y-4335000D02*
X12965000Y-4365000D01*
X12965000Y-4335000D02*
X12935000Y-4365000D01*
X12940000Y-2386500D02*
X12970000Y-2416500D01*
X12970000Y-2386500D02*
X12940000Y-2416500D01*
X12940000Y-4636500D02*
X12970000Y-4666500D01*
X12970000Y-4636500D02*
X12940000Y-4666500D01*
X13065000Y-2396050D02*
X13095000Y-2426050D01*
X13095000Y-2396050D02*
X13065000Y-2426050D01*
X13065000Y-2585000D02*
X13095000Y-2615000D01*
X13095000Y-2585000D02*
X13065000Y-2615000D01*
X13065000Y-4646050D02*
X13095000Y-4676050D01*
X13095000Y-4646050D02*
X13065000Y-4676050D01*
X13065000Y-4835000D02*
X13095000Y-4865000D01*
X13095000Y-4835000D02*
X13065000Y-4865000D01*
X7980000Y-2245000D02*
G75*
G02*
X7880000Y-2245000I-50000J0D01*
G01*
X7880000Y-2245000D02*
G75*
G02*
X7980000Y-2245000I50000J0D01*
G01*
X7980000Y-2499000D02*
G75*
G02*
X7880000Y-2499000I-50000J0D01*
G01*
X7880000Y-2499000D02*
G75*
G02*
X7980000Y-2499000I50000J0D01*
G01*
X7980000Y-2753000D02*
G75*
G02*
X7880000Y-2753000I-50000J0D01*
G01*
X7880000Y-2753000D02*
G75*
G02*
X7980000Y-2753000I50000J0D01*
G01*
X7980000Y-3007000D02*
G75*
G02*
X7880000Y-3007000I-50000J0D01*
G01*
X7880000Y-3007000D02*
G75*
G02*
X7980000Y-3007000I50000J0D01*
G01*
X7980000Y-4495000D02*
G75*
G02*
X7880000Y-4495000I-50000J0D01*
G01*
X7880000Y-4495000D02*
G75*
G02*
X7980000Y-4495000I50000J0D01*
G01*
X7980000Y-4749000D02*
G75*
G02*
X7880000Y-4749000I-50000J0D01*
G01*
X7880000Y-4749000D02*
G75*
G02*
X7980000Y-4749000I50000J0D01*
G01*
X7980000Y-5003000D02*
G75*
G02*
X7880000Y-5003000I-50000J0D01*
G01*
X7880000Y-5003000D02*
G75*
G02*
X7980000Y-5003000I50000J0D01*
G01*
X7980000Y-5257000D02*
G75*
G02*
X7880000Y-5257000I-50000J0D01*
G01*
X7880000Y-5257000D02*
G75*
G02*
X7980000Y-5257000I50000J0D01*
G01*
X11280000Y-2245000D02*
G75*
G02*
X11180000Y-2245000I-50000J0D01*
G01*
X11180000Y-2245000D02*
G75*
G02*
X11280000Y-2245000I50000J0D01*
G01*
X11280000Y-2499000D02*
G75*
G02*
X11180000Y-2499000I-50000J0D01*
G01*
X11180000Y-2499000D02*
G75*
G02*
X11280000Y-2499000I50000J0D01*
G01*
X11280000Y-2753000D02*
G75*
G02*
X11180000Y-2753000I-50000J0D01*
G01*
X11180000Y-2753000D02*
G75*
G02*
X11280000Y-2753000I50000J0D01*
G01*
X11280000Y-3007000D02*
G75*
G02*
X11180000Y-3007000I-50000J0D01*
G01*
X11180000Y-3007000D02*
G75*
G02*
X11280000Y-3007000I50000J0D01*
G01*
X11280000Y-4495000D02*
G75*
G02*
X11180000Y-4495000I-50000J0D01*
G01*
X11180000Y-4495000D02*
G75*
G02*
X11280000Y-4495000I50000J0D01*
G01*
X11280000Y-4749000D02*
G75*
G02*
X11180000Y-4749000I-50000J0D01*
G01*
X11180000Y-4749000D02*
G75*
G02*
X11280000Y-4749000I50000J0D01*
G01*
X11280000Y-5003000D02*
G75*
G02*
X11180000Y-5003000I-50000J0D01*
G01*
X11180000Y-5003000D02*
G75*
G02*
X11280000Y-5003000I50000J0D01*
G01*
X11280000Y-5257000D02*
G75*
G02*
X11180000Y-5257000I-50000J0D01*
G01*
X11180000Y-5257000D02*
G75*
G02*
X11280000Y-5257000I50000J0D01*
G01*
D11*
X7255677Y-5816484D02*
X7255677Y-5616484D01*
X7255677Y-5616484D02*
X7303296Y-5616484D01*
X7303296Y-5616484D02*
X7331867Y-5626008D01*
X7331867Y-5626008D02*
X7350915Y-5645055D01*
X7350915Y-5645055D02*
X7360439Y-5664103D01*
X7360439Y-5664103D02*
X7369962Y-5702198D01*
X7369962Y-5702198D02*
X7369962Y-5730769D01*
X7369962Y-5730769D02*
X7360439Y-5768865D01*
X7360439Y-5768865D02*
X7350915Y-5787912D01*
X7350915Y-5787912D02*
X7331867Y-5806960D01*
X7331867Y-5806960D02*
X7303296Y-5816484D01*
X7303296Y-5816484D02*
X7255677Y-5816484D01*
X7455677Y-5816484D02*
X7455677Y-5683150D01*
X7455677Y-5721246D02*
X7465201Y-5702198D01*
X7465201Y-5702198D02*
X7474724Y-5692674D01*
X7474724Y-5692674D02*
X7493772Y-5683150D01*
X7493772Y-5683150D02*
X7512820Y-5683150D01*
X7579486Y-5816484D02*
X7579486Y-5683150D01*
X7579486Y-5616484D02*
X7569962Y-5626008D01*
X7569962Y-5626008D02*
X7579486Y-5635531D01*
X7579486Y-5635531D02*
X7589010Y-5626008D01*
X7589010Y-5626008D02*
X7579486Y-5616484D01*
X7579486Y-5616484D02*
X7579486Y-5635531D01*
X7703296Y-5816484D02*
X7684248Y-5806960D01*
X7684248Y-5806960D02*
X7674724Y-5787912D01*
X7674724Y-5787912D02*
X7674724Y-5616484D01*
X7808058Y-5816484D02*
X7789010Y-5806960D01*
X7789010Y-5806960D02*
X7779486Y-5787912D01*
X7779486Y-5787912D02*
X7779486Y-5616484D01*
X8036629Y-5816484D02*
X8036629Y-5616484D01*
X8036629Y-5616484D02*
X8103296Y-5759341D01*
X8103296Y-5759341D02*
X8169962Y-5616484D01*
X8169962Y-5616484D02*
X8169962Y-5816484D01*
X8350915Y-5816484D02*
X8350915Y-5711722D01*
X8350915Y-5711722D02*
X8341391Y-5692674D01*
X8341391Y-5692674D02*
X8322343Y-5683150D01*
X8322343Y-5683150D02*
X8284248Y-5683150D01*
X8284248Y-5683150D02*
X8265201Y-5692674D01*
X8350915Y-5806960D02*
X8331867Y-5816484D01*
X8331867Y-5816484D02*
X8284248Y-5816484D01*
X8284248Y-5816484D02*
X8265201Y-5806960D01*
X8265201Y-5806960D02*
X8255677Y-5787912D01*
X8255677Y-5787912D02*
X8255677Y-5768865D01*
X8255677Y-5768865D02*
X8265201Y-5749817D01*
X8265201Y-5749817D02*
X8284248Y-5740293D01*
X8284248Y-5740293D02*
X8331867Y-5740293D01*
X8331867Y-5740293D02*
X8350915Y-5730769D01*
X8446153Y-5683150D02*
X8446153Y-5883150D01*
X8446153Y-5692674D02*
X8465201Y-5683150D01*
X8465201Y-5683150D02*
X8503296Y-5683150D01*
X8503296Y-5683150D02*
X8522344Y-5692674D01*
X8522344Y-5692674D02*
X8531867Y-5702198D01*
X8531867Y-5702198D02*
X8541391Y-5721246D01*
X8541391Y-5721246D02*
X8541391Y-5778388D01*
X8541391Y-5778388D02*
X8531867Y-5797436D01*
X8531867Y-5797436D02*
X8522344Y-5806960D01*
X8522344Y-5806960D02*
X8503296Y-5816484D01*
X8503296Y-5816484D02*
X8465201Y-5816484D01*
X8465201Y-5816484D02*
X8446153Y-5806960D01*
X8627105Y-5797436D02*
X8636629Y-5806960D01*
X8636629Y-5806960D02*
X8627105Y-5816484D01*
X8627105Y-5816484D02*
X8617582Y-5806960D01*
X8617582Y-5806960D02*
X8627105Y-5797436D01*
X8627105Y-5797436D02*
X8627105Y-5816484D01*
X8627105Y-5692674D02*
X8636629Y-5702198D01*
X8636629Y-5702198D02*
X8627105Y-5711722D01*
X8627105Y-5711722D02*
X8617582Y-5702198D01*
X8617582Y-5702198D02*
X8627105Y-5692674D01*
X8627105Y-5692674D02*
X8627105Y-5711722D01*
D10*
X6964900Y-6130000D02*
X6994900Y-6160000D01*
X6994900Y-6130000D02*
X6964900Y-6160000D01*
D11*
X7293772Y-6036484D02*
X7312820Y-6036484D01*
X7312820Y-6036484D02*
X7331867Y-6046008D01*
X7331867Y-6046008D02*
X7341391Y-6055531D01*
X7341391Y-6055531D02*
X7350915Y-6074579D01*
X7350915Y-6074579D02*
X7360439Y-6112674D01*
X7360439Y-6112674D02*
X7360439Y-6160293D01*
X7360439Y-6160293D02*
X7350915Y-6198388D01*
X7350915Y-6198388D02*
X7341391Y-6217436D01*
X7341391Y-6217436D02*
X7331867Y-6226960D01*
X7331867Y-6226960D02*
X7312820Y-6236484D01*
X7312820Y-6236484D02*
X7293772Y-6236484D01*
X7293772Y-6236484D02*
X7274724Y-6226960D01*
X7274724Y-6226960D02*
X7265201Y-6217436D01*
X7265201Y-6217436D02*
X7255677Y-6198388D01*
X7255677Y-6198388D02*
X7246153Y-6160293D01*
X7246153Y-6160293D02*
X7246153Y-6112674D01*
X7246153Y-6112674D02*
X7255677Y-6074579D01*
X7255677Y-6074579D02*
X7265201Y-6055531D01*
X7265201Y-6055531D02*
X7274724Y-6046008D01*
X7274724Y-6046008D02*
X7293772Y-6036484D01*
X7446153Y-6217436D02*
X7455677Y-6226960D01*
X7455677Y-6226960D02*
X7446153Y-6236484D01*
X7446153Y-6236484D02*
X7436629Y-6226960D01*
X7436629Y-6226960D02*
X7446153Y-6217436D01*
X7446153Y-6217436D02*
X7446153Y-6236484D01*
X7522343Y-6036484D02*
X7646153Y-6036484D01*
X7646153Y-6036484D02*
X7579486Y-6112674D01*
X7579486Y-6112674D02*
X7608058Y-6112674D01*
X7608058Y-6112674D02*
X7627105Y-6122198D01*
X7627105Y-6122198D02*
X7636629Y-6131722D01*
X7636629Y-6131722D02*
X7646153Y-6150769D01*
X7646153Y-6150769D02*
X7646153Y-6198388D01*
X7646153Y-6198388D02*
X7636629Y-6217436D01*
X7636629Y-6217436D02*
X7627105Y-6226960D01*
X7627105Y-6226960D02*
X7608058Y-6236484D01*
X7608058Y-6236484D02*
X7550915Y-6236484D01*
X7550915Y-6236484D02*
X7531867Y-6226960D01*
X7531867Y-6226960D02*
X7522343Y-6217436D01*
X7769962Y-6036484D02*
X7789010Y-6036484D01*
X7789010Y-6036484D02*
X7808058Y-6046008D01*
X7808058Y-6046008D02*
X7817582Y-6055531D01*
X7817582Y-6055531D02*
X7827105Y-6074579D01*
X7827105Y-6074579D02*
X7836629Y-6112674D01*
X7836629Y-6112674D02*
X7836629Y-6160293D01*
X7836629Y-6160293D02*
X7827105Y-6198388D01*
X7827105Y-6198388D02*
X7817582Y-6217436D01*
X7817582Y-6217436D02*
X7808058Y-6226960D01*
X7808058Y-6226960D02*
X7789010Y-6236484D01*
X7789010Y-6236484D02*
X7769962Y-6236484D01*
X7769962Y-6236484D02*
X7750915Y-6226960D01*
X7750915Y-6226960D02*
X7741391Y-6217436D01*
X7741391Y-6217436D02*
X7731867Y-6198388D01*
X7731867Y-6198388D02*
X7722343Y-6160293D01*
X7722343Y-6160293D02*
X7722343Y-6112674D01*
X7722343Y-6112674D02*
X7731867Y-6074579D01*
X7731867Y-6074579D02*
X7741391Y-6055531D01*
X7741391Y-6055531D02*
X7750915Y-6046008D01*
X7750915Y-6046008D02*
X7769962Y-6036484D01*
X7960439Y-6036484D02*
X7979486Y-6036484D01*
X7979486Y-6036484D02*
X7998534Y-6046008D01*
X7998534Y-6046008D02*
X8008058Y-6055531D01*
X8008058Y-6055531D02*
X8017582Y-6074579D01*
X8017582Y-6074579D02*
X8027105Y-6112674D01*
X8027105Y-6112674D02*
X8027105Y-6160293D01*
X8027105Y-6160293D02*
X8017582Y-6198388D01*
X8017582Y-6198388D02*
X8008058Y-6217436D01*
X8008058Y-6217436D02*
X7998534Y-6226960D01*
X7998534Y-6226960D02*
X7979486Y-6236484D01*
X7979486Y-6236484D02*
X7960439Y-6236484D01*
X7960439Y-6236484D02*
X7941391Y-6226960D01*
X7941391Y-6226960D02*
X7931867Y-6217436D01*
X7931867Y-6217436D02*
X7922343Y-6198388D01*
X7922343Y-6198388D02*
X7912820Y-6160293D01*
X7912820Y-6160293D02*
X7912820Y-6112674D01*
X7912820Y-6112674D02*
X7922343Y-6074579D01*
X7922343Y-6074579D02*
X7931867Y-6055531D01*
X7931867Y-6055531D02*
X7941391Y-6046008D01*
X7941391Y-6046008D02*
X7960439Y-6036484D01*
X8112820Y-6236484D02*
X8112820Y-6103150D01*
X8112820Y-6122198D02*
X8122343Y-6112674D01*
X8122343Y-6112674D02*
X8141391Y-6103150D01*
X8141391Y-6103150D02*
X8169963Y-6103150D01*
X8169963Y-6103150D02*
X8189010Y-6112674D01*
X8189010Y-6112674D02*
X8198534Y-6131722D01*
X8198534Y-6131722D02*
X8198534Y-6236484D01*
X8198534Y-6131722D02*
X8208058Y-6112674D01*
X8208058Y-6112674D02*
X8227105Y-6103150D01*
X8227105Y-6103150D02*
X8255677Y-6103150D01*
X8255677Y-6103150D02*
X8274724Y-6112674D01*
X8274724Y-6112674D02*
X8284248Y-6131722D01*
X8284248Y-6131722D02*
X8284248Y-6236484D01*
X8379486Y-6236484D02*
X8379486Y-6103150D01*
X8379486Y-6122198D02*
X8389010Y-6112674D01*
X8389010Y-6112674D02*
X8408058Y-6103150D01*
X8408058Y-6103150D02*
X8436629Y-6103150D01*
X8436629Y-6103150D02*
X8455677Y-6112674D01*
X8455677Y-6112674D02*
X8465201Y-6131722D01*
X8465201Y-6131722D02*
X8465201Y-6236484D01*
X8465201Y-6131722D02*
X8474725Y-6112674D01*
X8474725Y-6112674D02*
X8493772Y-6103150D01*
X8493772Y-6103150D02*
X8522344Y-6103150D01*
X8522344Y-6103150D02*
X8541391Y-6112674D01*
X8541391Y-6112674D02*
X8550915Y-6131722D01*
X8550915Y-6131722D02*
X8550915Y-6236484D01*
X8941391Y-6026960D02*
X8769963Y-6284103D01*
X9198534Y-6036484D02*
X9217582Y-6036484D01*
X9217582Y-6036484D02*
X9236629Y-6046008D01*
X9236629Y-6046008D02*
X9246153Y-6055531D01*
X9246153Y-6055531D02*
X9255677Y-6074579D01*
X9255677Y-6074579D02*
X9265201Y-6112674D01*
X9265201Y-6112674D02*
X9265201Y-6160293D01*
X9265201Y-6160293D02*
X9255677Y-6198388D01*
X9255677Y-6198388D02*
X9246153Y-6217436D01*
X9246153Y-6217436D02*
X9236629Y-6226960D01*
X9236629Y-6226960D02*
X9217582Y-6236484D01*
X9217582Y-6236484D02*
X9198534Y-6236484D01*
X9198534Y-6236484D02*
X9179487Y-6226960D01*
X9179487Y-6226960D02*
X9169963Y-6217436D01*
X9169963Y-6217436D02*
X9160439Y-6198388D01*
X9160439Y-6198388D02*
X9150915Y-6160293D01*
X9150915Y-6160293D02*
X9150915Y-6112674D01*
X9150915Y-6112674D02*
X9160439Y-6074579D01*
X9160439Y-6074579D02*
X9169963Y-6055531D01*
X9169963Y-6055531D02*
X9179487Y-6046008D01*
X9179487Y-6046008D02*
X9198534Y-6036484D01*
X9350915Y-6217436D02*
X9360439Y-6226960D01*
X9360439Y-6226960D02*
X9350915Y-6236484D01*
X9350915Y-6236484D02*
X9341391Y-6226960D01*
X9341391Y-6226960D02*
X9350915Y-6217436D01*
X9350915Y-6217436D02*
X9350915Y-6236484D01*
X9484248Y-6036484D02*
X9503296Y-6036484D01*
X9503296Y-6036484D02*
X9522344Y-6046008D01*
X9522344Y-6046008D02*
X9531868Y-6055531D01*
X9531868Y-6055531D02*
X9541391Y-6074579D01*
X9541391Y-6074579D02*
X9550915Y-6112674D01*
X9550915Y-6112674D02*
X9550915Y-6160293D01*
X9550915Y-6160293D02*
X9541391Y-6198388D01*
X9541391Y-6198388D02*
X9531868Y-6217436D01*
X9531868Y-6217436D02*
X9522344Y-6226960D01*
X9522344Y-6226960D02*
X9503296Y-6236484D01*
X9503296Y-6236484D02*
X9484248Y-6236484D01*
X9484248Y-6236484D02*
X9465201Y-6226960D01*
X9465201Y-6226960D02*
X9455677Y-6217436D01*
X9455677Y-6217436D02*
X9446153Y-6198388D01*
X9446153Y-6198388D02*
X9436629Y-6160293D01*
X9436629Y-6160293D02*
X9436629Y-6112674D01*
X9436629Y-6112674D02*
X9446153Y-6074579D01*
X9446153Y-6074579D02*
X9455677Y-6055531D01*
X9455677Y-6055531D02*
X9465201Y-6046008D01*
X9465201Y-6046008D02*
X9484248Y-6036484D01*
X9741391Y-6236484D02*
X9627106Y-6236484D01*
X9684248Y-6236484D02*
X9684248Y-6036484D01*
X9684248Y-6036484D02*
X9665201Y-6065055D01*
X9665201Y-6065055D02*
X9646153Y-6084103D01*
X9646153Y-6084103D02*
X9627106Y-6093627D01*
X9931868Y-6236484D02*
X9817582Y-6236484D01*
X9874725Y-6236484D02*
X9874725Y-6036484D01*
X9874725Y-6036484D02*
X9855677Y-6065055D01*
X9855677Y-6065055D02*
X9836629Y-6084103D01*
X9836629Y-6084103D02*
X9817582Y-6093627D01*
X10046153Y-6122198D02*
X10027106Y-6112674D01*
X10027106Y-6112674D02*
X10017582Y-6103150D01*
X10017582Y-6103150D02*
X10008058Y-6084103D01*
X10008058Y-6084103D02*
X10008058Y-6074579D01*
X10008058Y-6074579D02*
X10017582Y-6055531D01*
X10017582Y-6055531D02*
X10027106Y-6046008D01*
X10027106Y-6046008D02*
X10046153Y-6036484D01*
X10046153Y-6036484D02*
X10084249Y-6036484D01*
X10084249Y-6036484D02*
X10103296Y-6046008D01*
X10103296Y-6046008D02*
X10112820Y-6055531D01*
X10112820Y-6055531D02*
X10122344Y-6074579D01*
X10122344Y-6074579D02*
X10122344Y-6084103D01*
X10122344Y-6084103D02*
X10112820Y-6103150D01*
X10112820Y-6103150D02*
X10103296Y-6112674D01*
X10103296Y-6112674D02*
X10084249Y-6122198D01*
X10084249Y-6122198D02*
X10046153Y-6122198D01*
X10046153Y-6122198D02*
X10027106Y-6131722D01*
X10027106Y-6131722D02*
X10017582Y-6141246D01*
X10017582Y-6141246D02*
X10008058Y-6160293D01*
X10008058Y-6160293D02*
X10008058Y-6198388D01*
X10008058Y-6198388D02*
X10017582Y-6217436D01*
X10017582Y-6217436D02*
X10027106Y-6226960D01*
X10027106Y-6226960D02*
X10046153Y-6236484D01*
X10046153Y-6236484D02*
X10084249Y-6236484D01*
X10084249Y-6236484D02*
X10103296Y-6226960D01*
X10103296Y-6226960D02*
X10112820Y-6217436D01*
X10112820Y-6217436D02*
X10122344Y-6198388D01*
X10122344Y-6198388D02*
X10122344Y-6160293D01*
X10122344Y-6160293D02*
X10112820Y-6141246D01*
X10112820Y-6141246D02*
X10103296Y-6131722D01*
X10103296Y-6131722D02*
X10084249Y-6122198D01*
X10198534Y-6036484D02*
X10198534Y-6074579D01*
X10274725Y-6036484D02*
X10274725Y-6074579D01*
X10569963Y-6312674D02*
X10560439Y-6303150D01*
X10560439Y-6303150D02*
X10541391Y-6274579D01*
X10541391Y-6274579D02*
X10531868Y-6255531D01*
X10531868Y-6255531D02*
X10522344Y-6226960D01*
X10522344Y-6226960D02*
X10512820Y-6179341D01*
X10512820Y-6179341D02*
X10512820Y-6141246D01*
X10512820Y-6141246D02*
X10522344Y-6093627D01*
X10522344Y-6093627D02*
X10531868Y-6065055D01*
X10531868Y-6065055D02*
X10541391Y-6046008D01*
X10541391Y-6046008D02*
X10560439Y-6017436D01*
X10560439Y-6017436D02*
X10569963Y-6007912D01*
X10750915Y-6236484D02*
X10636630Y-6236484D01*
X10693772Y-6236484D02*
X10693772Y-6036484D01*
X10693772Y-6036484D02*
X10674725Y-6065055D01*
X10674725Y-6065055D02*
X10655677Y-6084103D01*
X10655677Y-6084103D02*
X10636630Y-6093627D01*
X10874725Y-6036484D02*
X10893772Y-6036484D01*
X10893772Y-6036484D02*
X10912820Y-6046008D01*
X10912820Y-6046008D02*
X10922344Y-6055531D01*
X10922344Y-6055531D02*
X10931868Y-6074579D01*
X10931868Y-6074579D02*
X10941391Y-6112674D01*
X10941391Y-6112674D02*
X10941391Y-6160293D01*
X10941391Y-6160293D02*
X10931868Y-6198388D01*
X10931868Y-6198388D02*
X10922344Y-6217436D01*
X10922344Y-6217436D02*
X10912820Y-6226960D01*
X10912820Y-6226960D02*
X10893772Y-6236484D01*
X10893772Y-6236484D02*
X10874725Y-6236484D01*
X10874725Y-6236484D02*
X10855677Y-6226960D01*
X10855677Y-6226960D02*
X10846153Y-6217436D01*
X10846153Y-6217436D02*
X10836630Y-6198388D01*
X10836630Y-6198388D02*
X10827106Y-6160293D01*
X10827106Y-6160293D02*
X10827106Y-6112674D01*
X10827106Y-6112674D02*
X10836630Y-6074579D01*
X10836630Y-6074579D02*
X10846153Y-6055531D01*
X10846153Y-6055531D02*
X10855677Y-6046008D01*
X10855677Y-6046008D02*
X10874725Y-6036484D01*
X11065201Y-6036484D02*
X11084249Y-6036484D01*
X11084249Y-6036484D02*
X11103296Y-6046008D01*
X11103296Y-6046008D02*
X11112820Y-6055531D01*
X11112820Y-6055531D02*
X11122344Y-6074579D01*
X11122344Y-6074579D02*
X11131868Y-6112674D01*
X11131868Y-6112674D02*
X11131868Y-6160293D01*
X11131868Y-6160293D02*
X11122344Y-6198388D01*
X11122344Y-6198388D02*
X11112820Y-6217436D01*
X11112820Y-6217436D02*
X11103296Y-6226960D01*
X11103296Y-6226960D02*
X11084249Y-6236484D01*
X11084249Y-6236484D02*
X11065201Y-6236484D01*
X11065201Y-6236484D02*
X11046153Y-6226960D01*
X11046153Y-6226960D02*
X11036630Y-6217436D01*
X11036630Y-6217436D02*
X11027106Y-6198388D01*
X11027106Y-6198388D02*
X11017582Y-6160293D01*
X11017582Y-6160293D02*
X11017582Y-6112674D01*
X11017582Y-6112674D02*
X11027106Y-6074579D01*
X11027106Y-6074579D02*
X11036630Y-6055531D01*
X11036630Y-6055531D02*
X11046153Y-6046008D01*
X11046153Y-6046008D02*
X11065201Y-6036484D01*
X11369963Y-6236484D02*
X11369963Y-6036484D01*
X11455677Y-6236484D02*
X11455677Y-6131722D01*
X11455677Y-6131722D02*
X11446153Y-6112674D01*
X11446153Y-6112674D02*
X11427106Y-6103150D01*
X11427106Y-6103150D02*
X11398534Y-6103150D01*
X11398534Y-6103150D02*
X11379487Y-6112674D01*
X11379487Y-6112674D02*
X11369963Y-6122198D01*
X11579487Y-6236484D02*
X11560439Y-6226960D01*
X11560439Y-6226960D02*
X11550915Y-6217436D01*
X11550915Y-6217436D02*
X11541391Y-6198388D01*
X11541391Y-6198388D02*
X11541391Y-6141246D01*
X11541391Y-6141246D02*
X11550915Y-6122198D01*
X11550915Y-6122198D02*
X11560439Y-6112674D01*
X11560439Y-6112674D02*
X11579487Y-6103150D01*
X11579487Y-6103150D02*
X11608058Y-6103150D01*
X11608058Y-6103150D02*
X11627106Y-6112674D01*
X11627106Y-6112674D02*
X11636630Y-6122198D01*
X11636630Y-6122198D02*
X11646153Y-6141246D01*
X11646153Y-6141246D02*
X11646153Y-6198388D01*
X11646153Y-6198388D02*
X11636630Y-6217436D01*
X11636630Y-6217436D02*
X11627106Y-6226960D01*
X11627106Y-6226960D02*
X11608058Y-6236484D01*
X11608058Y-6236484D02*
X11579487Y-6236484D01*
X11760439Y-6236484D02*
X11741391Y-6226960D01*
X11741391Y-6226960D02*
X11731868Y-6207912D01*
X11731868Y-6207912D02*
X11731868Y-6036484D01*
X11912820Y-6226960D02*
X11893772Y-6236484D01*
X11893772Y-6236484D02*
X11855677Y-6236484D01*
X11855677Y-6236484D02*
X11836630Y-6226960D01*
X11836630Y-6226960D02*
X11827106Y-6207912D01*
X11827106Y-6207912D02*
X11827106Y-6131722D01*
X11827106Y-6131722D02*
X11836630Y-6112674D01*
X11836630Y-6112674D02*
X11855677Y-6103150D01*
X11855677Y-6103150D02*
X11893772Y-6103150D01*
X11893772Y-6103150D02*
X11912820Y-6112674D01*
X11912820Y-6112674D02*
X11922344Y-6131722D01*
X11922344Y-6131722D02*
X11922344Y-6150769D01*
X11922344Y-6150769D02*
X11827106Y-6169817D01*
X11998534Y-6226960D02*
X12017582Y-6236484D01*
X12017582Y-6236484D02*
X12055677Y-6236484D01*
X12055677Y-6236484D02*
X12074725Y-6226960D01*
X12074725Y-6226960D02*
X12084249Y-6207912D01*
X12084249Y-6207912D02*
X12084249Y-6198388D01*
X12084249Y-6198388D02*
X12074725Y-6179341D01*
X12074725Y-6179341D02*
X12055677Y-6169817D01*
X12055677Y-6169817D02*
X12027106Y-6169817D01*
X12027106Y-6169817D02*
X12008058Y-6160293D01*
X12008058Y-6160293D02*
X11998534Y-6141246D01*
X11998534Y-6141246D02*
X11998534Y-6131722D01*
X11998534Y-6131722D02*
X12008058Y-6112674D01*
X12008058Y-6112674D02*
X12027106Y-6103150D01*
X12027106Y-6103150D02*
X12055677Y-6103150D01*
X12055677Y-6103150D02*
X12074725Y-6112674D01*
X12150915Y-6312674D02*
X12160439Y-6303150D01*
X12160439Y-6303150D02*
X12179487Y-6274579D01*
X12179487Y-6274579D02*
X12189011Y-6255531D01*
X12189011Y-6255531D02*
X12198534Y-6226960D01*
X12198534Y-6226960D02*
X12208058Y-6179341D01*
X12208058Y-6179341D02*
X12208058Y-6141246D01*
X12208058Y-6141246D02*
X12198534Y-6093627D01*
X12198534Y-6093627D02*
X12189011Y-6065055D01*
X12189011Y-6065055D02*
X12179487Y-6046008D01*
X12179487Y-6046008D02*
X12160439Y-6017436D01*
X12160439Y-6017436D02*
X12150915Y-6007912D01*
D10*
X6994900Y-6409000D02*
G75*
G02*
X6894900Y-6409000I-50000J0D01*
G01*
X6894900Y-6409000D02*
G75*
G02*
X6994900Y-6409000I50000J0D01*
G01*
D11*
X7360439Y-6500484D02*
X7246153Y-6500484D01*
X7303296Y-6500484D02*
X7303296Y-6300484D01*
X7303296Y-6300484D02*
X7284248Y-6329055D01*
X7284248Y-6329055D02*
X7265201Y-6348103D01*
X7265201Y-6348103D02*
X7246153Y-6357627D01*
X7446153Y-6481436D02*
X7455677Y-6490960D01*
X7455677Y-6490960D02*
X7446153Y-6500484D01*
X7446153Y-6500484D02*
X7436629Y-6490960D01*
X7436629Y-6490960D02*
X7446153Y-6481436D01*
X7446153Y-6481436D02*
X7446153Y-6500484D01*
X7579486Y-6300484D02*
X7598534Y-6300484D01*
X7598534Y-6300484D02*
X7617582Y-6310008D01*
X7617582Y-6310008D02*
X7627105Y-6319531D01*
X7627105Y-6319531D02*
X7636629Y-6338579D01*
X7636629Y-6338579D02*
X7646153Y-6376674D01*
X7646153Y-6376674D02*
X7646153Y-6424293D01*
X7646153Y-6424293D02*
X7636629Y-6462388D01*
X7636629Y-6462388D02*
X7627105Y-6481436D01*
X7627105Y-6481436D02*
X7617582Y-6490960D01*
X7617582Y-6490960D02*
X7598534Y-6500484D01*
X7598534Y-6500484D02*
X7579486Y-6500484D01*
X7579486Y-6500484D02*
X7560439Y-6490960D01*
X7560439Y-6490960D02*
X7550915Y-6481436D01*
X7550915Y-6481436D02*
X7541391Y-6462388D01*
X7541391Y-6462388D02*
X7531867Y-6424293D01*
X7531867Y-6424293D02*
X7531867Y-6376674D01*
X7531867Y-6376674D02*
X7541391Y-6338579D01*
X7541391Y-6338579D02*
X7550915Y-6319531D01*
X7550915Y-6319531D02*
X7560439Y-6310008D01*
X7560439Y-6310008D02*
X7579486Y-6300484D01*
X7769962Y-6300484D02*
X7789010Y-6300484D01*
X7789010Y-6300484D02*
X7808058Y-6310008D01*
X7808058Y-6310008D02*
X7817582Y-6319531D01*
X7817582Y-6319531D02*
X7827105Y-6338579D01*
X7827105Y-6338579D02*
X7836629Y-6376674D01*
X7836629Y-6376674D02*
X7836629Y-6424293D01*
X7836629Y-6424293D02*
X7827105Y-6462388D01*
X7827105Y-6462388D02*
X7817582Y-6481436D01*
X7817582Y-6481436D02*
X7808058Y-6490960D01*
X7808058Y-6490960D02*
X7789010Y-6500484D01*
X7789010Y-6500484D02*
X7769962Y-6500484D01*
X7769962Y-6500484D02*
X7750915Y-6490960D01*
X7750915Y-6490960D02*
X7741391Y-6481436D01*
X7741391Y-6481436D02*
X7731867Y-6462388D01*
X7731867Y-6462388D02*
X7722343Y-6424293D01*
X7722343Y-6424293D02*
X7722343Y-6376674D01*
X7722343Y-6376674D02*
X7731867Y-6338579D01*
X7731867Y-6338579D02*
X7741391Y-6319531D01*
X7741391Y-6319531D02*
X7750915Y-6310008D01*
X7750915Y-6310008D02*
X7769962Y-6300484D01*
X7960439Y-6300484D02*
X7979486Y-6300484D01*
X7979486Y-6300484D02*
X7998534Y-6310008D01*
X7998534Y-6310008D02*
X8008058Y-6319531D01*
X8008058Y-6319531D02*
X8017582Y-6338579D01*
X8017582Y-6338579D02*
X8027105Y-6376674D01*
X8027105Y-6376674D02*
X8027105Y-6424293D01*
X8027105Y-6424293D02*
X8017582Y-6462388D01*
X8017582Y-6462388D02*
X8008058Y-6481436D01*
X8008058Y-6481436D02*
X7998534Y-6490960D01*
X7998534Y-6490960D02*
X7979486Y-6500484D01*
X7979486Y-6500484D02*
X7960439Y-6500484D01*
X7960439Y-6500484D02*
X7941391Y-6490960D01*
X7941391Y-6490960D02*
X7931867Y-6481436D01*
X7931867Y-6481436D02*
X7922343Y-6462388D01*
X7922343Y-6462388D02*
X7912820Y-6424293D01*
X7912820Y-6424293D02*
X7912820Y-6376674D01*
X7912820Y-6376674D02*
X7922343Y-6338579D01*
X7922343Y-6338579D02*
X7931867Y-6319531D01*
X7931867Y-6319531D02*
X7941391Y-6310008D01*
X7941391Y-6310008D02*
X7960439Y-6300484D01*
X8112820Y-6500484D02*
X8112820Y-6367150D01*
X8112820Y-6386198D02*
X8122343Y-6376674D01*
X8122343Y-6376674D02*
X8141391Y-6367150D01*
X8141391Y-6367150D02*
X8169963Y-6367150D01*
X8169963Y-6367150D02*
X8189010Y-6376674D01*
X8189010Y-6376674D02*
X8198534Y-6395722D01*
X8198534Y-6395722D02*
X8198534Y-6500484D01*
X8198534Y-6395722D02*
X8208058Y-6376674D01*
X8208058Y-6376674D02*
X8227105Y-6367150D01*
X8227105Y-6367150D02*
X8255677Y-6367150D01*
X8255677Y-6367150D02*
X8274724Y-6376674D01*
X8274724Y-6376674D02*
X8284248Y-6395722D01*
X8284248Y-6395722D02*
X8284248Y-6500484D01*
X8379486Y-6500484D02*
X8379486Y-6367150D01*
X8379486Y-6386198D02*
X8389010Y-6376674D01*
X8389010Y-6376674D02*
X8408058Y-6367150D01*
X8408058Y-6367150D02*
X8436629Y-6367150D01*
X8436629Y-6367150D02*
X8455677Y-6376674D01*
X8455677Y-6376674D02*
X8465201Y-6395722D01*
X8465201Y-6395722D02*
X8465201Y-6500484D01*
X8465201Y-6395722D02*
X8474725Y-6376674D01*
X8474725Y-6376674D02*
X8493772Y-6367150D01*
X8493772Y-6367150D02*
X8522344Y-6367150D01*
X8522344Y-6367150D02*
X8541391Y-6376674D01*
X8541391Y-6376674D02*
X8550915Y-6395722D01*
X8550915Y-6395722D02*
X8550915Y-6500484D01*
X8941391Y-6290960D02*
X8769963Y-6548103D01*
X9198534Y-6300484D02*
X9217582Y-6300484D01*
X9217582Y-6300484D02*
X9236629Y-6310008D01*
X9236629Y-6310008D02*
X9246153Y-6319531D01*
X9246153Y-6319531D02*
X9255677Y-6338579D01*
X9255677Y-6338579D02*
X9265201Y-6376674D01*
X9265201Y-6376674D02*
X9265201Y-6424293D01*
X9265201Y-6424293D02*
X9255677Y-6462388D01*
X9255677Y-6462388D02*
X9246153Y-6481436D01*
X9246153Y-6481436D02*
X9236629Y-6490960D01*
X9236629Y-6490960D02*
X9217582Y-6500484D01*
X9217582Y-6500484D02*
X9198534Y-6500484D01*
X9198534Y-6500484D02*
X9179487Y-6490960D01*
X9179487Y-6490960D02*
X9169963Y-6481436D01*
X9169963Y-6481436D02*
X9160439Y-6462388D01*
X9160439Y-6462388D02*
X9150915Y-6424293D01*
X9150915Y-6424293D02*
X9150915Y-6376674D01*
X9150915Y-6376674D02*
X9160439Y-6338579D01*
X9160439Y-6338579D02*
X9169963Y-6319531D01*
X9169963Y-6319531D02*
X9179487Y-6310008D01*
X9179487Y-6310008D02*
X9198534Y-6300484D01*
X9350915Y-6481436D02*
X9360439Y-6490960D01*
X9360439Y-6490960D02*
X9350915Y-6500484D01*
X9350915Y-6500484D02*
X9341391Y-6490960D01*
X9341391Y-6490960D02*
X9350915Y-6481436D01*
X9350915Y-6481436D02*
X9350915Y-6500484D01*
X9484248Y-6300484D02*
X9503296Y-6300484D01*
X9503296Y-6300484D02*
X9522344Y-6310008D01*
X9522344Y-6310008D02*
X9531868Y-6319531D01*
X9531868Y-6319531D02*
X9541391Y-6338579D01*
X9541391Y-6338579D02*
X9550915Y-6376674D01*
X9550915Y-6376674D02*
X9550915Y-6424293D01*
X9550915Y-6424293D02*
X9541391Y-6462388D01*
X9541391Y-6462388D02*
X9531868Y-6481436D01*
X9531868Y-6481436D02*
X9522344Y-6490960D01*
X9522344Y-6490960D02*
X9503296Y-6500484D01*
X9503296Y-6500484D02*
X9484248Y-6500484D01*
X9484248Y-6500484D02*
X9465201Y-6490960D01*
X9465201Y-6490960D02*
X9455677Y-6481436D01*
X9455677Y-6481436D02*
X9446153Y-6462388D01*
X9446153Y-6462388D02*
X9436629Y-6424293D01*
X9436629Y-6424293D02*
X9436629Y-6376674D01*
X9436629Y-6376674D02*
X9446153Y-6338579D01*
X9446153Y-6338579D02*
X9455677Y-6319531D01*
X9455677Y-6319531D02*
X9465201Y-6310008D01*
X9465201Y-6310008D02*
X9484248Y-6300484D01*
X9617582Y-6300484D02*
X9741391Y-6300484D01*
X9741391Y-6300484D02*
X9674725Y-6376674D01*
X9674725Y-6376674D02*
X9703296Y-6376674D01*
X9703296Y-6376674D02*
X9722344Y-6386198D01*
X9722344Y-6386198D02*
X9731868Y-6395722D01*
X9731868Y-6395722D02*
X9741391Y-6414769D01*
X9741391Y-6414769D02*
X9741391Y-6462388D01*
X9741391Y-6462388D02*
X9731868Y-6481436D01*
X9731868Y-6481436D02*
X9722344Y-6490960D01*
X9722344Y-6490960D02*
X9703296Y-6500484D01*
X9703296Y-6500484D02*
X9646153Y-6500484D01*
X9646153Y-6500484D02*
X9627106Y-6490960D01*
X9627106Y-6490960D02*
X9617582Y-6481436D01*
X9836629Y-6500484D02*
X9874725Y-6500484D01*
X9874725Y-6500484D02*
X9893772Y-6490960D01*
X9893772Y-6490960D02*
X9903296Y-6481436D01*
X9903296Y-6481436D02*
X9922344Y-6452865D01*
X9922344Y-6452865D02*
X9931868Y-6414769D01*
X9931868Y-6414769D02*
X9931868Y-6338579D01*
X9931868Y-6338579D02*
X9922344Y-6319531D01*
X9922344Y-6319531D02*
X9912820Y-6310008D01*
X9912820Y-6310008D02*
X9893772Y-6300484D01*
X9893772Y-6300484D02*
X9855677Y-6300484D01*
X9855677Y-6300484D02*
X9836629Y-6310008D01*
X9836629Y-6310008D02*
X9827106Y-6319531D01*
X9827106Y-6319531D02*
X9817582Y-6338579D01*
X9817582Y-6338579D02*
X9817582Y-6386198D01*
X9817582Y-6386198D02*
X9827106Y-6405246D01*
X9827106Y-6405246D02*
X9836629Y-6414769D01*
X9836629Y-6414769D02*
X9855677Y-6424293D01*
X9855677Y-6424293D02*
X9893772Y-6424293D01*
X9893772Y-6424293D02*
X9912820Y-6414769D01*
X9912820Y-6414769D02*
X9922344Y-6405246D01*
X9922344Y-6405246D02*
X9931868Y-6386198D01*
X10103296Y-6367150D02*
X10103296Y-6500484D01*
X10055677Y-6290960D02*
X10008058Y-6433817D01*
X10008058Y-6433817D02*
X10131868Y-6433817D01*
X10198534Y-6300484D02*
X10198534Y-6338579D01*
X10274725Y-6300484D02*
X10274725Y-6338579D01*
X10569963Y-6576674D02*
X10560439Y-6567150D01*
X10560439Y-6567150D02*
X10541391Y-6538579D01*
X10541391Y-6538579D02*
X10531868Y-6519531D01*
X10531868Y-6519531D02*
X10522344Y-6490960D01*
X10522344Y-6490960D02*
X10512820Y-6443341D01*
X10512820Y-6443341D02*
X10512820Y-6405246D01*
X10512820Y-6405246D02*
X10522344Y-6357627D01*
X10522344Y-6357627D02*
X10531868Y-6329055D01*
X10531868Y-6329055D02*
X10541391Y-6310008D01*
X10541391Y-6310008D02*
X10560439Y-6281436D01*
X10560439Y-6281436D02*
X10569963Y-6271912D01*
X10750915Y-6500484D02*
X10636630Y-6500484D01*
X10693772Y-6500484D02*
X10693772Y-6300484D01*
X10693772Y-6300484D02*
X10674725Y-6329055D01*
X10674725Y-6329055D02*
X10655677Y-6348103D01*
X10655677Y-6348103D02*
X10636630Y-6357627D01*
X10922344Y-6300484D02*
X10884249Y-6300484D01*
X10884249Y-6300484D02*
X10865201Y-6310008D01*
X10865201Y-6310008D02*
X10855677Y-6319531D01*
X10855677Y-6319531D02*
X10836630Y-6348103D01*
X10836630Y-6348103D02*
X10827106Y-6386198D01*
X10827106Y-6386198D02*
X10827106Y-6462388D01*
X10827106Y-6462388D02*
X10836630Y-6481436D01*
X10836630Y-6481436D02*
X10846153Y-6490960D01*
X10846153Y-6490960D02*
X10865201Y-6500484D01*
X10865201Y-6500484D02*
X10903296Y-6500484D01*
X10903296Y-6500484D02*
X10922344Y-6490960D01*
X10922344Y-6490960D02*
X10931868Y-6481436D01*
X10931868Y-6481436D02*
X10941391Y-6462388D01*
X10941391Y-6462388D02*
X10941391Y-6414769D01*
X10941391Y-6414769D02*
X10931868Y-6395722D01*
X10931868Y-6395722D02*
X10922344Y-6386198D01*
X10922344Y-6386198D02*
X10903296Y-6376674D01*
X10903296Y-6376674D02*
X10865201Y-6376674D01*
X10865201Y-6376674D02*
X10846153Y-6386198D01*
X10846153Y-6386198D02*
X10836630Y-6395722D01*
X10836630Y-6395722D02*
X10827106Y-6414769D01*
X11179487Y-6500484D02*
X11179487Y-6300484D01*
X11265201Y-6500484D02*
X11265201Y-6395722D01*
X11265201Y-6395722D02*
X11255677Y-6376674D01*
X11255677Y-6376674D02*
X11236630Y-6367150D01*
X11236630Y-6367150D02*
X11208058Y-6367150D01*
X11208058Y-6367150D02*
X11189010Y-6376674D01*
X11189010Y-6376674D02*
X11179487Y-6386198D01*
X11389010Y-6500484D02*
X11369963Y-6490960D01*
X11369963Y-6490960D02*
X11360439Y-6481436D01*
X11360439Y-6481436D02*
X11350915Y-6462388D01*
X11350915Y-6462388D02*
X11350915Y-6405246D01*
X11350915Y-6405246D02*
X11360439Y-6386198D01*
X11360439Y-6386198D02*
X11369963Y-6376674D01*
X11369963Y-6376674D02*
X11389010Y-6367150D01*
X11389010Y-6367150D02*
X11417582Y-6367150D01*
X11417582Y-6367150D02*
X11436630Y-6376674D01*
X11436630Y-6376674D02*
X11446153Y-6386198D01*
X11446153Y-6386198D02*
X11455677Y-6405246D01*
X11455677Y-6405246D02*
X11455677Y-6462388D01*
X11455677Y-6462388D02*
X11446153Y-6481436D01*
X11446153Y-6481436D02*
X11436630Y-6490960D01*
X11436630Y-6490960D02*
X11417582Y-6500484D01*
X11417582Y-6500484D02*
X11389010Y-6500484D01*
X11569963Y-6500484D02*
X11550915Y-6490960D01*
X11550915Y-6490960D02*
X11541391Y-6471912D01*
X11541391Y-6471912D02*
X11541391Y-6300484D01*
X11722344Y-6490960D02*
X11703296Y-6500484D01*
X11703296Y-6500484D02*
X11665201Y-6500484D01*
X11665201Y-6500484D02*
X11646153Y-6490960D01*
X11646153Y-6490960D02*
X11636630Y-6471912D01*
X11636630Y-6471912D02*
X11636630Y-6395722D01*
X11636630Y-6395722D02*
X11646153Y-6376674D01*
X11646153Y-6376674D02*
X11665201Y-6367150D01*
X11665201Y-6367150D02*
X11703296Y-6367150D01*
X11703296Y-6367150D02*
X11722344Y-6376674D01*
X11722344Y-6376674D02*
X11731868Y-6395722D01*
X11731868Y-6395722D02*
X11731868Y-6414769D01*
X11731868Y-6414769D02*
X11636630Y-6433817D01*
X11808058Y-6490960D02*
X11827106Y-6500484D01*
X11827106Y-6500484D02*
X11865201Y-6500484D01*
X11865201Y-6500484D02*
X11884249Y-6490960D01*
X11884249Y-6490960D02*
X11893772Y-6471912D01*
X11893772Y-6471912D02*
X11893772Y-6462388D01*
X11893772Y-6462388D02*
X11884249Y-6443341D01*
X11884249Y-6443341D02*
X11865201Y-6433817D01*
X11865201Y-6433817D02*
X11836630Y-6433817D01*
X11836630Y-6433817D02*
X11817582Y-6424293D01*
X11817582Y-6424293D02*
X11808058Y-6405246D01*
X11808058Y-6405246D02*
X11808058Y-6395722D01*
X11808058Y-6395722D02*
X11817582Y-6376674D01*
X11817582Y-6376674D02*
X11836630Y-6367150D01*
X11836630Y-6367150D02*
X11865201Y-6367150D01*
X11865201Y-6367150D02*
X11884249Y-6376674D01*
X11960439Y-6576674D02*
X11969963Y-6567150D01*
X11969963Y-6567150D02*
X11989011Y-6538579D01*
X11989011Y-6538579D02*
X11998534Y-6519531D01*
X11998534Y-6519531D02*
X12008058Y-6490960D01*
X12008058Y-6490960D02*
X12017582Y-6443341D01*
X12017582Y-6443341D02*
X12017582Y-6405246D01*
X12017582Y-6405246D02*
X12008058Y-6357627D01*
X12008058Y-6357627D02*
X11998534Y-6329055D01*
X11998534Y-6329055D02*
X11989011Y-6310008D01*
X11989011Y-6310008D02*
X11969963Y-6281436D01*
X11969963Y-6281436D02*
X11960439Y-6271912D01*
M02*
