%TF.GenerationSoftware,KiCad,Pcbnew,8.0.8-8.0.8-0~ubuntu24.04.1*%
%TF.CreationDate,2025-02-18T11:40:41+01:00*%
%TF.ProjectId,SPU0410LR5H_panel,53505530-3431-4304-9c52-35485f70616e,rev?*%
%TF.SameCoordinates,Original*%
%TF.FileFunction,Legend,Top*%
%TF.FilePolarity,Positive*%
%FSLAX46Y46*%
G04 Gerber Fmt 4.6, Leading zero omitted, Abs format (unit mm)*
G04 Created by KiCad (PCBNEW 8.0.8-8.0.8-0~ubuntu24.04.1) date 2025-02-18 11:40:41*
%MOMM*%
%LPD*%
G01*
G04 APERTURE LIST*
%ADD10C,0.150000*%
%ADD11C,0.080000*%
%ADD12C,0.120000*%
%ADD13C,0.127000*%
G04 APERTURE END LIST*
D10*
X94166667Y-30662296D02*
X93900000Y-30281343D01*
X93709524Y-30662296D02*
X93709524Y-29862296D01*
X93709524Y-29862296D02*
X94014286Y-29862296D01*
X94014286Y-29862296D02*
X94090476Y-29900391D01*
X94090476Y-29900391D02*
X94128571Y-29938486D01*
X94128571Y-29938486D02*
X94166667Y-30014677D01*
X94166667Y-30014677D02*
X94166667Y-30128962D01*
X94166667Y-30128962D02*
X94128571Y-30205153D01*
X94128571Y-30205153D02*
X94090476Y-30243248D01*
X94090476Y-30243248D02*
X94014286Y-30281343D01*
X94014286Y-30281343D02*
X93709524Y-30281343D01*
X94433333Y-29862296D02*
X94928571Y-29862296D01*
X94928571Y-29862296D02*
X94661905Y-30167058D01*
X94661905Y-30167058D02*
X94776190Y-30167058D01*
X94776190Y-30167058D02*
X94852381Y-30205153D01*
X94852381Y-30205153D02*
X94890476Y-30243248D01*
X94890476Y-30243248D02*
X94928571Y-30319439D01*
X94928571Y-30319439D02*
X94928571Y-30509915D01*
X94928571Y-30509915D02*
X94890476Y-30586105D01*
X94890476Y-30586105D02*
X94852381Y-30624201D01*
X94852381Y-30624201D02*
X94776190Y-30662296D01*
X94776190Y-30662296D02*
X94547619Y-30662296D01*
X94547619Y-30662296D02*
X94471428Y-30624201D01*
X94471428Y-30624201D02*
X94433333Y-30586105D01*
X121266668Y-53087295D02*
X121000001Y-52706342D01*
X120809525Y-53087295D02*
X120809525Y-52287295D01*
X120809525Y-52287295D02*
X121114287Y-52287295D01*
X121114287Y-52287295D02*
X121190477Y-52325390D01*
X121190477Y-52325390D02*
X121228572Y-52363485D01*
X121228572Y-52363485D02*
X121266668Y-52439676D01*
X121266668Y-52439676D02*
X121266668Y-52553961D01*
X121266668Y-52553961D02*
X121228572Y-52630152D01*
X121228572Y-52630152D02*
X121190477Y-52668247D01*
X121190477Y-52668247D02*
X121114287Y-52706342D01*
X121114287Y-52706342D02*
X120809525Y-52706342D01*
X121952382Y-52553961D02*
X121952382Y-53087295D01*
X121761906Y-52249200D02*
X121571429Y-52820628D01*
X121571429Y-52820628D02*
X122066668Y-52820628D01*
X115916667Y-52562296D02*
X115650000Y-52181343D01*
X115459524Y-52562296D02*
X115459524Y-51762296D01*
X115459524Y-51762296D02*
X115764286Y-51762296D01*
X115764286Y-51762296D02*
X115840476Y-51800391D01*
X115840476Y-51800391D02*
X115878571Y-51838486D01*
X115878571Y-51838486D02*
X115916667Y-51914677D01*
X115916667Y-51914677D02*
X115916667Y-52028962D01*
X115916667Y-52028962D02*
X115878571Y-52105153D01*
X115878571Y-52105153D02*
X115840476Y-52143248D01*
X115840476Y-52143248D02*
X115764286Y-52181343D01*
X115764286Y-52181343D02*
X115459524Y-52181343D01*
X116221428Y-51838486D02*
X116259524Y-51800391D01*
X116259524Y-51800391D02*
X116335714Y-51762296D01*
X116335714Y-51762296D02*
X116526190Y-51762296D01*
X116526190Y-51762296D02*
X116602381Y-51800391D01*
X116602381Y-51800391D02*
X116640476Y-51838486D01*
X116640476Y-51838486D02*
X116678571Y-51914677D01*
X116678571Y-51914677D02*
X116678571Y-51990867D01*
X116678571Y-51990867D02*
X116640476Y-52105153D01*
X116640476Y-52105153D02*
X116183333Y-52562296D01*
X116183333Y-52562296D02*
X116678571Y-52562296D01*
X96633333Y-53502295D02*
X96633333Y-54073723D01*
X96633333Y-54073723D02*
X96595238Y-54188009D01*
X96595238Y-54188009D02*
X96519047Y-54264200D01*
X96519047Y-54264200D02*
X96404762Y-54302295D01*
X96404762Y-54302295D02*
X96328571Y-54302295D01*
X97014286Y-54302295D02*
X97014286Y-53502295D01*
X97014286Y-53502295D02*
X97319048Y-53502295D01*
X97319048Y-53502295D02*
X97395238Y-53540390D01*
X97395238Y-53540390D02*
X97433333Y-53578485D01*
X97433333Y-53578485D02*
X97471429Y-53654676D01*
X97471429Y-53654676D02*
X97471429Y-53768961D01*
X97471429Y-53768961D02*
X97433333Y-53845152D01*
X97433333Y-53845152D02*
X97395238Y-53883247D01*
X97395238Y-53883247D02*
X97319048Y-53921342D01*
X97319048Y-53921342D02*
X97014286Y-53921342D01*
X98233333Y-54302295D02*
X97776190Y-54302295D01*
X98004762Y-54302295D02*
X98004762Y-53502295D01*
X98004762Y-53502295D02*
X97928571Y-53616580D01*
X97928571Y-53616580D02*
X97852381Y-53692771D01*
X97852381Y-53692771D02*
X97776190Y-53730866D01*
X128166667Y-44562296D02*
X127900000Y-44181343D01*
X127709524Y-44562296D02*
X127709524Y-43762296D01*
X127709524Y-43762296D02*
X128014286Y-43762296D01*
X128014286Y-43762296D02*
X128090476Y-43800391D01*
X128090476Y-43800391D02*
X128128571Y-43838486D01*
X128128571Y-43838486D02*
X128166667Y-43914677D01*
X128166667Y-43914677D02*
X128166667Y-44028962D01*
X128166667Y-44028962D02*
X128128571Y-44105153D01*
X128128571Y-44105153D02*
X128090476Y-44143248D01*
X128090476Y-44143248D02*
X128014286Y-44181343D01*
X128014286Y-44181343D02*
X127709524Y-44181343D01*
X128890476Y-43762296D02*
X128509524Y-43762296D01*
X128509524Y-43762296D02*
X128471428Y-44143248D01*
X128471428Y-44143248D02*
X128509524Y-44105153D01*
X128509524Y-44105153D02*
X128585714Y-44067058D01*
X128585714Y-44067058D02*
X128776190Y-44067058D01*
X128776190Y-44067058D02*
X128852381Y-44105153D01*
X128852381Y-44105153D02*
X128890476Y-44143248D01*
X128890476Y-44143248D02*
X128928571Y-44219439D01*
X128928571Y-44219439D02*
X128928571Y-44409915D01*
X128928571Y-44409915D02*
X128890476Y-44486105D01*
X128890476Y-44486105D02*
X128852381Y-44524201D01*
X128852381Y-44524201D02*
X128776190Y-44562296D01*
X128776190Y-44562296D02*
X128585714Y-44562296D01*
X128585714Y-44562296D02*
X128509524Y-44524201D01*
X128509524Y-44524201D02*
X128471428Y-44486105D01*
X84162295Y-23733332D02*
X83781342Y-23999999D01*
X84162295Y-24190475D02*
X83362295Y-24190475D01*
X83362295Y-24190475D02*
X83362295Y-23885713D01*
X83362295Y-23885713D02*
X83400390Y-23809523D01*
X83400390Y-23809523D02*
X83438485Y-23771428D01*
X83438485Y-23771428D02*
X83514676Y-23733332D01*
X83514676Y-23733332D02*
X83628961Y-23733332D01*
X83628961Y-23733332D02*
X83705152Y-23771428D01*
X83705152Y-23771428D02*
X83743247Y-23809523D01*
X83743247Y-23809523D02*
X83781342Y-23885713D01*
X83781342Y-23885713D02*
X83781342Y-24190475D01*
X84162295Y-22971428D02*
X84162295Y-23428571D01*
X84162295Y-23199999D02*
X83362295Y-23199999D01*
X83362295Y-23199999D02*
X83476580Y-23276190D01*
X83476580Y-23276190D02*
X83552771Y-23352380D01*
X83552771Y-23352380D02*
X83590866Y-23428571D01*
X121266668Y-30587295D02*
X121000001Y-30206342D01*
X120809525Y-30587295D02*
X120809525Y-29787295D01*
X120809525Y-29787295D02*
X121114287Y-29787295D01*
X121114287Y-29787295D02*
X121190477Y-29825390D01*
X121190477Y-29825390D02*
X121228572Y-29863485D01*
X121228572Y-29863485D02*
X121266668Y-29939676D01*
X121266668Y-29939676D02*
X121266668Y-30053961D01*
X121266668Y-30053961D02*
X121228572Y-30130152D01*
X121228572Y-30130152D02*
X121190477Y-30168247D01*
X121190477Y-30168247D02*
X121114287Y-30206342D01*
X121114287Y-30206342D02*
X120809525Y-30206342D01*
X121952382Y-30053961D02*
X121952382Y-30587295D01*
X121761906Y-29749200D02*
X121571429Y-30320628D01*
X121571429Y-30320628D02*
X122066668Y-30320628D01*
X96633333Y-31002295D02*
X96633333Y-31573723D01*
X96633333Y-31573723D02*
X96595238Y-31688009D01*
X96595238Y-31688009D02*
X96519047Y-31764200D01*
X96519047Y-31764200D02*
X96404762Y-31802295D01*
X96404762Y-31802295D02*
X96328571Y-31802295D01*
X97014286Y-31802295D02*
X97014286Y-31002295D01*
X97014286Y-31002295D02*
X97319048Y-31002295D01*
X97319048Y-31002295D02*
X97395238Y-31040390D01*
X97395238Y-31040390D02*
X97433333Y-31078485D01*
X97433333Y-31078485D02*
X97471429Y-31154676D01*
X97471429Y-31154676D02*
X97471429Y-31268961D01*
X97471429Y-31268961D02*
X97433333Y-31345152D01*
X97433333Y-31345152D02*
X97395238Y-31383247D01*
X97395238Y-31383247D02*
X97319048Y-31421342D01*
X97319048Y-31421342D02*
X97014286Y-31421342D01*
X98233333Y-31802295D02*
X97776190Y-31802295D01*
X98004762Y-31802295D02*
X98004762Y-31002295D01*
X98004762Y-31002295D02*
X97928571Y-31116580D01*
X97928571Y-31116580D02*
X97852381Y-31192771D01*
X97852381Y-31192771D02*
X97776190Y-31230866D01*
X115916667Y-30062296D02*
X115650000Y-29681343D01*
X115459524Y-30062296D02*
X115459524Y-29262296D01*
X115459524Y-29262296D02*
X115764286Y-29262296D01*
X115764286Y-29262296D02*
X115840476Y-29300391D01*
X115840476Y-29300391D02*
X115878571Y-29338486D01*
X115878571Y-29338486D02*
X115916667Y-29414677D01*
X115916667Y-29414677D02*
X115916667Y-29528962D01*
X115916667Y-29528962D02*
X115878571Y-29605153D01*
X115878571Y-29605153D02*
X115840476Y-29643248D01*
X115840476Y-29643248D02*
X115764286Y-29681343D01*
X115764286Y-29681343D02*
X115459524Y-29681343D01*
X116221428Y-29338486D02*
X116259524Y-29300391D01*
X116259524Y-29300391D02*
X116335714Y-29262296D01*
X116335714Y-29262296D02*
X116526190Y-29262296D01*
X116526190Y-29262296D02*
X116602381Y-29300391D01*
X116602381Y-29300391D02*
X116640476Y-29338486D01*
X116640476Y-29338486D02*
X116678571Y-29414677D01*
X116678571Y-29414677D02*
X116678571Y-29490867D01*
X116678571Y-29490867D02*
X116640476Y-29605153D01*
X116640476Y-29605153D02*
X116183333Y-30062296D01*
X116183333Y-30062296D02*
X116678571Y-30062296D01*
X130633333Y-53502295D02*
X130633333Y-54073723D01*
X130633333Y-54073723D02*
X130595238Y-54188009D01*
X130595238Y-54188009D02*
X130519047Y-54264200D01*
X130519047Y-54264200D02*
X130404762Y-54302295D01*
X130404762Y-54302295D02*
X130328571Y-54302295D01*
X131014286Y-54302295D02*
X131014286Y-53502295D01*
X131014286Y-53502295D02*
X131319048Y-53502295D01*
X131319048Y-53502295D02*
X131395238Y-53540390D01*
X131395238Y-53540390D02*
X131433333Y-53578485D01*
X131433333Y-53578485D02*
X131471429Y-53654676D01*
X131471429Y-53654676D02*
X131471429Y-53768961D01*
X131471429Y-53768961D02*
X131433333Y-53845152D01*
X131433333Y-53845152D02*
X131395238Y-53883247D01*
X131395238Y-53883247D02*
X131319048Y-53921342D01*
X131319048Y-53921342D02*
X131014286Y-53921342D01*
X132233333Y-54302295D02*
X131776190Y-54302295D01*
X132004762Y-54302295D02*
X132004762Y-53502295D01*
X132004762Y-53502295D02*
X131928571Y-53616580D01*
X131928571Y-53616580D02*
X131852381Y-53692771D01*
X131852381Y-53692771D02*
X131776190Y-53730866D01*
X81916667Y-52562296D02*
X81650000Y-52181343D01*
X81459524Y-52562296D02*
X81459524Y-51762296D01*
X81459524Y-51762296D02*
X81764286Y-51762296D01*
X81764286Y-51762296D02*
X81840476Y-51800391D01*
X81840476Y-51800391D02*
X81878571Y-51838486D01*
X81878571Y-51838486D02*
X81916667Y-51914677D01*
X81916667Y-51914677D02*
X81916667Y-52028962D01*
X81916667Y-52028962D02*
X81878571Y-52105153D01*
X81878571Y-52105153D02*
X81840476Y-52143248D01*
X81840476Y-52143248D02*
X81764286Y-52181343D01*
X81764286Y-52181343D02*
X81459524Y-52181343D01*
X82221428Y-51838486D02*
X82259524Y-51800391D01*
X82259524Y-51800391D02*
X82335714Y-51762296D01*
X82335714Y-51762296D02*
X82526190Y-51762296D01*
X82526190Y-51762296D02*
X82602381Y-51800391D01*
X82602381Y-51800391D02*
X82640476Y-51838486D01*
X82640476Y-51838486D02*
X82678571Y-51914677D01*
X82678571Y-51914677D02*
X82678571Y-51990867D01*
X82678571Y-51990867D02*
X82640476Y-52105153D01*
X82640476Y-52105153D02*
X82183333Y-52562296D01*
X82183333Y-52562296D02*
X82678571Y-52562296D01*
X84166667Y-52486105D02*
X84128571Y-52524201D01*
X84128571Y-52524201D02*
X84014286Y-52562296D01*
X84014286Y-52562296D02*
X83938095Y-52562296D01*
X83938095Y-52562296D02*
X83823809Y-52524201D01*
X83823809Y-52524201D02*
X83747619Y-52448010D01*
X83747619Y-52448010D02*
X83709524Y-52371820D01*
X83709524Y-52371820D02*
X83671428Y-52219439D01*
X83671428Y-52219439D02*
X83671428Y-52105153D01*
X83671428Y-52105153D02*
X83709524Y-51952772D01*
X83709524Y-51952772D02*
X83747619Y-51876581D01*
X83747619Y-51876581D02*
X83823809Y-51800391D01*
X83823809Y-51800391D02*
X83938095Y-51762296D01*
X83938095Y-51762296D02*
X84014286Y-51762296D01*
X84014286Y-51762296D02*
X84128571Y-51800391D01*
X84128571Y-51800391D02*
X84166667Y-51838486D01*
X84471428Y-51838486D02*
X84509524Y-51800391D01*
X84509524Y-51800391D02*
X84585714Y-51762296D01*
X84585714Y-51762296D02*
X84776190Y-51762296D01*
X84776190Y-51762296D02*
X84852381Y-51800391D01*
X84852381Y-51800391D02*
X84890476Y-51838486D01*
X84890476Y-51838486D02*
X84928571Y-51914677D01*
X84928571Y-51914677D02*
X84928571Y-51990867D01*
X84928571Y-51990867D02*
X84890476Y-52105153D01*
X84890476Y-52105153D02*
X84433333Y-52562296D01*
X84433333Y-52562296D02*
X84928571Y-52562296D01*
X128166667Y-22062296D02*
X127900000Y-21681343D01*
X127709524Y-22062296D02*
X127709524Y-21262296D01*
X127709524Y-21262296D02*
X128014286Y-21262296D01*
X128014286Y-21262296D02*
X128090476Y-21300391D01*
X128090476Y-21300391D02*
X128128571Y-21338486D01*
X128128571Y-21338486D02*
X128166667Y-21414677D01*
X128166667Y-21414677D02*
X128166667Y-21528962D01*
X128166667Y-21528962D02*
X128128571Y-21605153D01*
X128128571Y-21605153D02*
X128090476Y-21643248D01*
X128090476Y-21643248D02*
X128014286Y-21681343D01*
X128014286Y-21681343D02*
X127709524Y-21681343D01*
X128890476Y-21262296D02*
X128509524Y-21262296D01*
X128509524Y-21262296D02*
X128471428Y-21643248D01*
X128471428Y-21643248D02*
X128509524Y-21605153D01*
X128509524Y-21605153D02*
X128585714Y-21567058D01*
X128585714Y-21567058D02*
X128776190Y-21567058D01*
X128776190Y-21567058D02*
X128852381Y-21605153D01*
X128852381Y-21605153D02*
X128890476Y-21643248D01*
X128890476Y-21643248D02*
X128928571Y-21719439D01*
X128928571Y-21719439D02*
X128928571Y-21909915D01*
X128928571Y-21909915D02*
X128890476Y-21986105D01*
X128890476Y-21986105D02*
X128852381Y-22024201D01*
X128852381Y-22024201D02*
X128776190Y-22062296D01*
X128776190Y-22062296D02*
X128585714Y-22062296D01*
X128585714Y-22062296D02*
X128509524Y-22024201D01*
X128509524Y-22024201D02*
X128471428Y-21986105D01*
X130633333Y-31002295D02*
X130633333Y-31573723D01*
X130633333Y-31573723D02*
X130595238Y-31688009D01*
X130595238Y-31688009D02*
X130519047Y-31764200D01*
X130519047Y-31764200D02*
X130404762Y-31802295D01*
X130404762Y-31802295D02*
X130328571Y-31802295D01*
X131014286Y-31802295D02*
X131014286Y-31002295D01*
X131014286Y-31002295D02*
X131319048Y-31002295D01*
X131319048Y-31002295D02*
X131395238Y-31040390D01*
X131395238Y-31040390D02*
X131433333Y-31078485D01*
X131433333Y-31078485D02*
X131471429Y-31154676D01*
X131471429Y-31154676D02*
X131471429Y-31268961D01*
X131471429Y-31268961D02*
X131433333Y-31345152D01*
X131433333Y-31345152D02*
X131395238Y-31383247D01*
X131395238Y-31383247D02*
X131319048Y-31421342D01*
X131319048Y-31421342D02*
X131014286Y-31421342D01*
X132233333Y-31802295D02*
X131776190Y-31802295D01*
X132004762Y-31802295D02*
X132004762Y-31002295D01*
X132004762Y-31002295D02*
X131928571Y-31116580D01*
X131928571Y-31116580D02*
X131852381Y-31192771D01*
X131852381Y-31192771D02*
X131776190Y-31230866D01*
X87833333Y-45124580D02*
X87785714Y-45172200D01*
X87785714Y-45172200D02*
X87642857Y-45219819D01*
X87642857Y-45219819D02*
X87547619Y-45219819D01*
X87547619Y-45219819D02*
X87404762Y-45172200D01*
X87404762Y-45172200D02*
X87309524Y-45076961D01*
X87309524Y-45076961D02*
X87261905Y-44981723D01*
X87261905Y-44981723D02*
X87214286Y-44791247D01*
X87214286Y-44791247D02*
X87214286Y-44648390D01*
X87214286Y-44648390D02*
X87261905Y-44457914D01*
X87261905Y-44457914D02*
X87309524Y-44362676D01*
X87309524Y-44362676D02*
X87404762Y-44267438D01*
X87404762Y-44267438D02*
X87547619Y-44219819D01*
X87547619Y-44219819D02*
X87642857Y-44219819D01*
X87642857Y-44219819D02*
X87785714Y-44267438D01*
X87785714Y-44267438D02*
X87833333Y-44315057D01*
X88785714Y-45219819D02*
X88214286Y-45219819D01*
X88500000Y-45219819D02*
X88500000Y-44219819D01*
X88500000Y-44219819D02*
X88404762Y-44362676D01*
X88404762Y-44362676D02*
X88309524Y-44457914D01*
X88309524Y-44457914D02*
X88214286Y-44505533D01*
D11*
X98156190Y-43523878D02*
X98156190Y-43782925D01*
X98156190Y-43782925D02*
X98171428Y-43813401D01*
X98171428Y-43813401D02*
X98186666Y-43828640D01*
X98186666Y-43828640D02*
X98217142Y-43843878D01*
X98217142Y-43843878D02*
X98278095Y-43843878D01*
X98278095Y-43843878D02*
X98308571Y-43828640D01*
X98308571Y-43828640D02*
X98323809Y-43813401D01*
X98323809Y-43813401D02*
X98339047Y-43782925D01*
X98339047Y-43782925D02*
X98339047Y-43523878D01*
X98476190Y-43554354D02*
X98491428Y-43539116D01*
X98491428Y-43539116D02*
X98521904Y-43523878D01*
X98521904Y-43523878D02*
X98598095Y-43523878D01*
X98598095Y-43523878D02*
X98628571Y-43539116D01*
X98628571Y-43539116D02*
X98643809Y-43554354D01*
X98643809Y-43554354D02*
X98659047Y-43584830D01*
X98659047Y-43584830D02*
X98659047Y-43615306D01*
X98659047Y-43615306D02*
X98643809Y-43661020D01*
X98643809Y-43661020D02*
X98460952Y-43843878D01*
X98460952Y-43843878D02*
X98659047Y-43843878D01*
D10*
X118162295Y-23733332D02*
X117781342Y-23999999D01*
X118162295Y-24190475D02*
X117362295Y-24190475D01*
X117362295Y-24190475D02*
X117362295Y-23885713D01*
X117362295Y-23885713D02*
X117400390Y-23809523D01*
X117400390Y-23809523D02*
X117438485Y-23771428D01*
X117438485Y-23771428D02*
X117514676Y-23733332D01*
X117514676Y-23733332D02*
X117628961Y-23733332D01*
X117628961Y-23733332D02*
X117705152Y-23771428D01*
X117705152Y-23771428D02*
X117743247Y-23809523D01*
X117743247Y-23809523D02*
X117781342Y-23885713D01*
X117781342Y-23885713D02*
X117781342Y-24190475D01*
X118162295Y-22971428D02*
X118162295Y-23428571D01*
X118162295Y-23199999D02*
X117362295Y-23199999D01*
X117362295Y-23199999D02*
X117476580Y-23276190D01*
X117476580Y-23276190D02*
X117552771Y-23352380D01*
X117552771Y-23352380D02*
X117590866Y-23428571D01*
D11*
X98156190Y-21023878D02*
X98156190Y-21282925D01*
X98156190Y-21282925D02*
X98171428Y-21313401D01*
X98171428Y-21313401D02*
X98186666Y-21328640D01*
X98186666Y-21328640D02*
X98217142Y-21343878D01*
X98217142Y-21343878D02*
X98278095Y-21343878D01*
X98278095Y-21343878D02*
X98308571Y-21328640D01*
X98308571Y-21328640D02*
X98323809Y-21313401D01*
X98323809Y-21313401D02*
X98339047Y-21282925D01*
X98339047Y-21282925D02*
X98339047Y-21023878D01*
X98476190Y-21054354D02*
X98491428Y-21039116D01*
X98491428Y-21039116D02*
X98521904Y-21023878D01*
X98521904Y-21023878D02*
X98598095Y-21023878D01*
X98598095Y-21023878D02*
X98628571Y-21039116D01*
X98628571Y-21039116D02*
X98643809Y-21054354D01*
X98643809Y-21054354D02*
X98659047Y-21084830D01*
X98659047Y-21084830D02*
X98659047Y-21115306D01*
X98659047Y-21115306D02*
X98643809Y-21161020D01*
X98643809Y-21161020D02*
X98460952Y-21343878D01*
X98460952Y-21343878D02*
X98659047Y-21343878D01*
D10*
X118166667Y-29986105D02*
X118128571Y-30024201D01*
X118128571Y-30024201D02*
X118014286Y-30062296D01*
X118014286Y-30062296D02*
X117938095Y-30062296D01*
X117938095Y-30062296D02*
X117823809Y-30024201D01*
X117823809Y-30024201D02*
X117747619Y-29948010D01*
X117747619Y-29948010D02*
X117709524Y-29871820D01*
X117709524Y-29871820D02*
X117671428Y-29719439D01*
X117671428Y-29719439D02*
X117671428Y-29605153D01*
X117671428Y-29605153D02*
X117709524Y-29452772D01*
X117709524Y-29452772D02*
X117747619Y-29376581D01*
X117747619Y-29376581D02*
X117823809Y-29300391D01*
X117823809Y-29300391D02*
X117938095Y-29262296D01*
X117938095Y-29262296D02*
X118014286Y-29262296D01*
X118014286Y-29262296D02*
X118128571Y-29300391D01*
X118128571Y-29300391D02*
X118166667Y-29338486D01*
X118471428Y-29338486D02*
X118509524Y-29300391D01*
X118509524Y-29300391D02*
X118585714Y-29262296D01*
X118585714Y-29262296D02*
X118776190Y-29262296D01*
X118776190Y-29262296D02*
X118852381Y-29300391D01*
X118852381Y-29300391D02*
X118890476Y-29338486D01*
X118890476Y-29338486D02*
X118928571Y-29414677D01*
X118928571Y-29414677D02*
X118928571Y-29490867D01*
X118928571Y-29490867D02*
X118890476Y-29605153D01*
X118890476Y-29605153D02*
X118433333Y-30062296D01*
X118433333Y-30062296D02*
X118928571Y-30062296D01*
D11*
X132156190Y-21023878D02*
X132156190Y-21282925D01*
X132156190Y-21282925D02*
X132171428Y-21313401D01*
X132171428Y-21313401D02*
X132186666Y-21328640D01*
X132186666Y-21328640D02*
X132217142Y-21343878D01*
X132217142Y-21343878D02*
X132278095Y-21343878D01*
X132278095Y-21343878D02*
X132308571Y-21328640D01*
X132308571Y-21328640D02*
X132323809Y-21313401D01*
X132323809Y-21313401D02*
X132339047Y-21282925D01*
X132339047Y-21282925D02*
X132339047Y-21023878D01*
X132476190Y-21054354D02*
X132491428Y-21039116D01*
X132491428Y-21039116D02*
X132521904Y-21023878D01*
X132521904Y-21023878D02*
X132598095Y-21023878D01*
X132598095Y-21023878D02*
X132628571Y-21039116D01*
X132628571Y-21039116D02*
X132643809Y-21054354D01*
X132643809Y-21054354D02*
X132659047Y-21084830D01*
X132659047Y-21084830D02*
X132659047Y-21115306D01*
X132659047Y-21115306D02*
X132643809Y-21161020D01*
X132643809Y-21161020D02*
X132460952Y-21343878D01*
X132460952Y-21343878D02*
X132659047Y-21343878D01*
D10*
X87266668Y-30587295D02*
X87000001Y-30206342D01*
X86809525Y-30587295D02*
X86809525Y-29787295D01*
X86809525Y-29787295D02*
X87114287Y-29787295D01*
X87114287Y-29787295D02*
X87190477Y-29825390D01*
X87190477Y-29825390D02*
X87228572Y-29863485D01*
X87228572Y-29863485D02*
X87266668Y-29939676D01*
X87266668Y-29939676D02*
X87266668Y-30053961D01*
X87266668Y-30053961D02*
X87228572Y-30130152D01*
X87228572Y-30130152D02*
X87190477Y-30168247D01*
X87190477Y-30168247D02*
X87114287Y-30206342D01*
X87114287Y-30206342D02*
X86809525Y-30206342D01*
X87952382Y-30053961D02*
X87952382Y-30587295D01*
X87761906Y-29749200D02*
X87571429Y-30320628D01*
X87571429Y-30320628D02*
X88066668Y-30320628D01*
X128166667Y-53162296D02*
X127900000Y-52781343D01*
X127709524Y-53162296D02*
X127709524Y-52362296D01*
X127709524Y-52362296D02*
X128014286Y-52362296D01*
X128014286Y-52362296D02*
X128090476Y-52400391D01*
X128090476Y-52400391D02*
X128128571Y-52438486D01*
X128128571Y-52438486D02*
X128166667Y-52514677D01*
X128166667Y-52514677D02*
X128166667Y-52628962D01*
X128166667Y-52628962D02*
X128128571Y-52705153D01*
X128128571Y-52705153D02*
X128090476Y-52743248D01*
X128090476Y-52743248D02*
X128014286Y-52781343D01*
X128014286Y-52781343D02*
X127709524Y-52781343D01*
X128433333Y-52362296D02*
X128928571Y-52362296D01*
X128928571Y-52362296D02*
X128661905Y-52667058D01*
X128661905Y-52667058D02*
X128776190Y-52667058D01*
X128776190Y-52667058D02*
X128852381Y-52705153D01*
X128852381Y-52705153D02*
X128890476Y-52743248D01*
X128890476Y-52743248D02*
X128928571Y-52819439D01*
X128928571Y-52819439D02*
X128928571Y-53009915D01*
X128928571Y-53009915D02*
X128890476Y-53086105D01*
X128890476Y-53086105D02*
X128852381Y-53124201D01*
X128852381Y-53124201D02*
X128776190Y-53162296D01*
X128776190Y-53162296D02*
X128547619Y-53162296D01*
X128547619Y-53162296D02*
X128471428Y-53124201D01*
X128471428Y-53124201D02*
X128433333Y-53086105D01*
X84162295Y-46233332D02*
X83781342Y-46499999D01*
X84162295Y-46690475D02*
X83362295Y-46690475D01*
X83362295Y-46690475D02*
X83362295Y-46385713D01*
X83362295Y-46385713D02*
X83400390Y-46309523D01*
X83400390Y-46309523D02*
X83438485Y-46271428D01*
X83438485Y-46271428D02*
X83514676Y-46233332D01*
X83514676Y-46233332D02*
X83628961Y-46233332D01*
X83628961Y-46233332D02*
X83705152Y-46271428D01*
X83705152Y-46271428D02*
X83743247Y-46309523D01*
X83743247Y-46309523D02*
X83781342Y-46385713D01*
X83781342Y-46385713D02*
X83781342Y-46690475D01*
X84162295Y-45471428D02*
X84162295Y-45928571D01*
X84162295Y-45699999D02*
X83362295Y-45699999D01*
X83362295Y-45699999D02*
X83476580Y-45776190D01*
X83476580Y-45776190D02*
X83552771Y-45852380D01*
X83552771Y-45852380D02*
X83590866Y-45928571D01*
X88790476Y-49762296D02*
X88790476Y-50409915D01*
X88790476Y-50409915D02*
X88828571Y-50486105D01*
X88828571Y-50486105D02*
X88866666Y-50524201D01*
X88866666Y-50524201D02*
X88942857Y-50562296D01*
X88942857Y-50562296D02*
X89095238Y-50562296D01*
X89095238Y-50562296D02*
X89171428Y-50524201D01*
X89171428Y-50524201D02*
X89209523Y-50486105D01*
X89209523Y-50486105D02*
X89247619Y-50409915D01*
X89247619Y-50409915D02*
X89247619Y-49762296D01*
X90047618Y-50562296D02*
X89590475Y-50562296D01*
X89819047Y-50562296D02*
X89819047Y-49762296D01*
X89819047Y-49762296D02*
X89742856Y-49876581D01*
X89742856Y-49876581D02*
X89666666Y-49952772D01*
X89666666Y-49952772D02*
X89590475Y-49990867D01*
X121833333Y-45124580D02*
X121785714Y-45172200D01*
X121785714Y-45172200D02*
X121642857Y-45219819D01*
X121642857Y-45219819D02*
X121547619Y-45219819D01*
X121547619Y-45219819D02*
X121404762Y-45172200D01*
X121404762Y-45172200D02*
X121309524Y-45076961D01*
X121309524Y-45076961D02*
X121261905Y-44981723D01*
X121261905Y-44981723D02*
X121214286Y-44791247D01*
X121214286Y-44791247D02*
X121214286Y-44648390D01*
X121214286Y-44648390D02*
X121261905Y-44457914D01*
X121261905Y-44457914D02*
X121309524Y-44362676D01*
X121309524Y-44362676D02*
X121404762Y-44267438D01*
X121404762Y-44267438D02*
X121547619Y-44219819D01*
X121547619Y-44219819D02*
X121642857Y-44219819D01*
X121642857Y-44219819D02*
X121785714Y-44267438D01*
X121785714Y-44267438D02*
X121833333Y-44315057D01*
X122785714Y-45219819D02*
X122214286Y-45219819D01*
X122500000Y-45219819D02*
X122500000Y-44219819D01*
X122500000Y-44219819D02*
X122404762Y-44362676D01*
X122404762Y-44362676D02*
X122309524Y-44457914D01*
X122309524Y-44457914D02*
X122214286Y-44505533D01*
X122790476Y-49762296D02*
X122790476Y-50409915D01*
X122790476Y-50409915D02*
X122828571Y-50486105D01*
X122828571Y-50486105D02*
X122866666Y-50524201D01*
X122866666Y-50524201D02*
X122942857Y-50562296D01*
X122942857Y-50562296D02*
X123095238Y-50562296D01*
X123095238Y-50562296D02*
X123171428Y-50524201D01*
X123171428Y-50524201D02*
X123209523Y-50486105D01*
X123209523Y-50486105D02*
X123247619Y-50409915D01*
X123247619Y-50409915D02*
X123247619Y-49762296D01*
X124047618Y-50562296D02*
X123590475Y-50562296D01*
X123819047Y-50562296D02*
X123819047Y-49762296D01*
X123819047Y-49762296D02*
X123742856Y-49876581D01*
X123742856Y-49876581D02*
X123666666Y-49952772D01*
X123666666Y-49952772D02*
X123590475Y-49990867D01*
X87266668Y-53087295D02*
X87000001Y-52706342D01*
X86809525Y-53087295D02*
X86809525Y-52287295D01*
X86809525Y-52287295D02*
X87114287Y-52287295D01*
X87114287Y-52287295D02*
X87190477Y-52325390D01*
X87190477Y-52325390D02*
X87228572Y-52363485D01*
X87228572Y-52363485D02*
X87266668Y-52439676D01*
X87266668Y-52439676D02*
X87266668Y-52553961D01*
X87266668Y-52553961D02*
X87228572Y-52630152D01*
X87228572Y-52630152D02*
X87190477Y-52668247D01*
X87190477Y-52668247D02*
X87114287Y-52706342D01*
X87114287Y-52706342D02*
X86809525Y-52706342D01*
X87952382Y-52553961D02*
X87952382Y-53087295D01*
X87761906Y-52249200D02*
X87571429Y-52820628D01*
X87571429Y-52820628D02*
X88066668Y-52820628D01*
X81916667Y-30062296D02*
X81650000Y-29681343D01*
X81459524Y-30062296D02*
X81459524Y-29262296D01*
X81459524Y-29262296D02*
X81764286Y-29262296D01*
X81764286Y-29262296D02*
X81840476Y-29300391D01*
X81840476Y-29300391D02*
X81878571Y-29338486D01*
X81878571Y-29338486D02*
X81916667Y-29414677D01*
X81916667Y-29414677D02*
X81916667Y-29528962D01*
X81916667Y-29528962D02*
X81878571Y-29605153D01*
X81878571Y-29605153D02*
X81840476Y-29643248D01*
X81840476Y-29643248D02*
X81764286Y-29681343D01*
X81764286Y-29681343D02*
X81459524Y-29681343D01*
X82221428Y-29338486D02*
X82259524Y-29300391D01*
X82259524Y-29300391D02*
X82335714Y-29262296D01*
X82335714Y-29262296D02*
X82526190Y-29262296D01*
X82526190Y-29262296D02*
X82602381Y-29300391D01*
X82602381Y-29300391D02*
X82640476Y-29338486D01*
X82640476Y-29338486D02*
X82678571Y-29414677D01*
X82678571Y-29414677D02*
X82678571Y-29490867D01*
X82678571Y-29490867D02*
X82640476Y-29605153D01*
X82640476Y-29605153D02*
X82183333Y-30062296D01*
X82183333Y-30062296D02*
X82678571Y-30062296D01*
X87833333Y-22624580D02*
X87785714Y-22672200D01*
X87785714Y-22672200D02*
X87642857Y-22719819D01*
X87642857Y-22719819D02*
X87547619Y-22719819D01*
X87547619Y-22719819D02*
X87404762Y-22672200D01*
X87404762Y-22672200D02*
X87309524Y-22576961D01*
X87309524Y-22576961D02*
X87261905Y-22481723D01*
X87261905Y-22481723D02*
X87214286Y-22291247D01*
X87214286Y-22291247D02*
X87214286Y-22148390D01*
X87214286Y-22148390D02*
X87261905Y-21957914D01*
X87261905Y-21957914D02*
X87309524Y-21862676D01*
X87309524Y-21862676D02*
X87404762Y-21767438D01*
X87404762Y-21767438D02*
X87547619Y-21719819D01*
X87547619Y-21719819D02*
X87642857Y-21719819D01*
X87642857Y-21719819D02*
X87785714Y-21767438D01*
X87785714Y-21767438D02*
X87833333Y-21815057D01*
X88785714Y-22719819D02*
X88214286Y-22719819D01*
X88500000Y-22719819D02*
X88500000Y-21719819D01*
X88500000Y-21719819D02*
X88404762Y-21862676D01*
X88404762Y-21862676D02*
X88309524Y-21957914D01*
X88309524Y-21957914D02*
X88214286Y-22005533D01*
X84166667Y-29986105D02*
X84128571Y-30024201D01*
X84128571Y-30024201D02*
X84014286Y-30062296D01*
X84014286Y-30062296D02*
X83938095Y-30062296D01*
X83938095Y-30062296D02*
X83823809Y-30024201D01*
X83823809Y-30024201D02*
X83747619Y-29948010D01*
X83747619Y-29948010D02*
X83709524Y-29871820D01*
X83709524Y-29871820D02*
X83671428Y-29719439D01*
X83671428Y-29719439D02*
X83671428Y-29605153D01*
X83671428Y-29605153D02*
X83709524Y-29452772D01*
X83709524Y-29452772D02*
X83747619Y-29376581D01*
X83747619Y-29376581D02*
X83823809Y-29300391D01*
X83823809Y-29300391D02*
X83938095Y-29262296D01*
X83938095Y-29262296D02*
X84014286Y-29262296D01*
X84014286Y-29262296D02*
X84128571Y-29300391D01*
X84128571Y-29300391D02*
X84166667Y-29338486D01*
X84471428Y-29338486D02*
X84509524Y-29300391D01*
X84509524Y-29300391D02*
X84585714Y-29262296D01*
X84585714Y-29262296D02*
X84776190Y-29262296D01*
X84776190Y-29262296D02*
X84852381Y-29300391D01*
X84852381Y-29300391D02*
X84890476Y-29338486D01*
X84890476Y-29338486D02*
X84928571Y-29414677D01*
X84928571Y-29414677D02*
X84928571Y-29490867D01*
X84928571Y-29490867D02*
X84890476Y-29605153D01*
X84890476Y-29605153D02*
X84433333Y-30062296D01*
X84433333Y-30062296D02*
X84928571Y-30062296D01*
X94166667Y-22062296D02*
X93900000Y-21681343D01*
X93709524Y-22062296D02*
X93709524Y-21262296D01*
X93709524Y-21262296D02*
X94014286Y-21262296D01*
X94014286Y-21262296D02*
X94090476Y-21300391D01*
X94090476Y-21300391D02*
X94128571Y-21338486D01*
X94128571Y-21338486D02*
X94166667Y-21414677D01*
X94166667Y-21414677D02*
X94166667Y-21528962D01*
X94166667Y-21528962D02*
X94128571Y-21605153D01*
X94128571Y-21605153D02*
X94090476Y-21643248D01*
X94090476Y-21643248D02*
X94014286Y-21681343D01*
X94014286Y-21681343D02*
X93709524Y-21681343D01*
X94890476Y-21262296D02*
X94509524Y-21262296D01*
X94509524Y-21262296D02*
X94471428Y-21643248D01*
X94471428Y-21643248D02*
X94509524Y-21605153D01*
X94509524Y-21605153D02*
X94585714Y-21567058D01*
X94585714Y-21567058D02*
X94776190Y-21567058D01*
X94776190Y-21567058D02*
X94852381Y-21605153D01*
X94852381Y-21605153D02*
X94890476Y-21643248D01*
X94890476Y-21643248D02*
X94928571Y-21719439D01*
X94928571Y-21719439D02*
X94928571Y-21909915D01*
X94928571Y-21909915D02*
X94890476Y-21986105D01*
X94890476Y-21986105D02*
X94852381Y-22024201D01*
X94852381Y-22024201D02*
X94776190Y-22062296D01*
X94776190Y-22062296D02*
X94585714Y-22062296D01*
X94585714Y-22062296D02*
X94509524Y-22024201D01*
X94509524Y-22024201D02*
X94471428Y-21986105D01*
X121833333Y-22624580D02*
X121785714Y-22672200D01*
X121785714Y-22672200D02*
X121642857Y-22719819D01*
X121642857Y-22719819D02*
X121547619Y-22719819D01*
X121547619Y-22719819D02*
X121404762Y-22672200D01*
X121404762Y-22672200D02*
X121309524Y-22576961D01*
X121309524Y-22576961D02*
X121261905Y-22481723D01*
X121261905Y-22481723D02*
X121214286Y-22291247D01*
X121214286Y-22291247D02*
X121214286Y-22148390D01*
X121214286Y-22148390D02*
X121261905Y-21957914D01*
X121261905Y-21957914D02*
X121309524Y-21862676D01*
X121309524Y-21862676D02*
X121404762Y-21767438D01*
X121404762Y-21767438D02*
X121547619Y-21719819D01*
X121547619Y-21719819D02*
X121642857Y-21719819D01*
X121642857Y-21719819D02*
X121785714Y-21767438D01*
X121785714Y-21767438D02*
X121833333Y-21815057D01*
X122785714Y-22719819D02*
X122214286Y-22719819D01*
X122500000Y-22719819D02*
X122500000Y-21719819D01*
X122500000Y-21719819D02*
X122404762Y-21862676D01*
X122404762Y-21862676D02*
X122309524Y-21957914D01*
X122309524Y-21957914D02*
X122214286Y-22005533D01*
X118166667Y-52486105D02*
X118128571Y-52524201D01*
X118128571Y-52524201D02*
X118014286Y-52562296D01*
X118014286Y-52562296D02*
X117938095Y-52562296D01*
X117938095Y-52562296D02*
X117823809Y-52524201D01*
X117823809Y-52524201D02*
X117747619Y-52448010D01*
X117747619Y-52448010D02*
X117709524Y-52371820D01*
X117709524Y-52371820D02*
X117671428Y-52219439D01*
X117671428Y-52219439D02*
X117671428Y-52105153D01*
X117671428Y-52105153D02*
X117709524Y-51952772D01*
X117709524Y-51952772D02*
X117747619Y-51876581D01*
X117747619Y-51876581D02*
X117823809Y-51800391D01*
X117823809Y-51800391D02*
X117938095Y-51762296D01*
X117938095Y-51762296D02*
X118014286Y-51762296D01*
X118014286Y-51762296D02*
X118128571Y-51800391D01*
X118128571Y-51800391D02*
X118166667Y-51838486D01*
X118471428Y-51838486D02*
X118509524Y-51800391D01*
X118509524Y-51800391D02*
X118585714Y-51762296D01*
X118585714Y-51762296D02*
X118776190Y-51762296D01*
X118776190Y-51762296D02*
X118852381Y-51800391D01*
X118852381Y-51800391D02*
X118890476Y-51838486D01*
X118890476Y-51838486D02*
X118928571Y-51914677D01*
X118928571Y-51914677D02*
X118928571Y-51990867D01*
X118928571Y-51990867D02*
X118890476Y-52105153D01*
X118890476Y-52105153D02*
X118433333Y-52562296D01*
X118433333Y-52562296D02*
X118928571Y-52562296D01*
X94166667Y-53162296D02*
X93900000Y-52781343D01*
X93709524Y-53162296D02*
X93709524Y-52362296D01*
X93709524Y-52362296D02*
X94014286Y-52362296D01*
X94014286Y-52362296D02*
X94090476Y-52400391D01*
X94090476Y-52400391D02*
X94128571Y-52438486D01*
X94128571Y-52438486D02*
X94166667Y-52514677D01*
X94166667Y-52514677D02*
X94166667Y-52628962D01*
X94166667Y-52628962D02*
X94128571Y-52705153D01*
X94128571Y-52705153D02*
X94090476Y-52743248D01*
X94090476Y-52743248D02*
X94014286Y-52781343D01*
X94014286Y-52781343D02*
X93709524Y-52781343D01*
X94433333Y-52362296D02*
X94928571Y-52362296D01*
X94928571Y-52362296D02*
X94661905Y-52667058D01*
X94661905Y-52667058D02*
X94776190Y-52667058D01*
X94776190Y-52667058D02*
X94852381Y-52705153D01*
X94852381Y-52705153D02*
X94890476Y-52743248D01*
X94890476Y-52743248D02*
X94928571Y-52819439D01*
X94928571Y-52819439D02*
X94928571Y-53009915D01*
X94928571Y-53009915D02*
X94890476Y-53086105D01*
X94890476Y-53086105D02*
X94852381Y-53124201D01*
X94852381Y-53124201D02*
X94776190Y-53162296D01*
X94776190Y-53162296D02*
X94547619Y-53162296D01*
X94547619Y-53162296D02*
X94471428Y-53124201D01*
X94471428Y-53124201D02*
X94433333Y-53086105D01*
D11*
X132156190Y-43523878D02*
X132156190Y-43782925D01*
X132156190Y-43782925D02*
X132171428Y-43813401D01*
X132171428Y-43813401D02*
X132186666Y-43828640D01*
X132186666Y-43828640D02*
X132217142Y-43843878D01*
X132217142Y-43843878D02*
X132278095Y-43843878D01*
X132278095Y-43843878D02*
X132308571Y-43828640D01*
X132308571Y-43828640D02*
X132323809Y-43813401D01*
X132323809Y-43813401D02*
X132339047Y-43782925D01*
X132339047Y-43782925D02*
X132339047Y-43523878D01*
X132476190Y-43554354D02*
X132491428Y-43539116D01*
X132491428Y-43539116D02*
X132521904Y-43523878D01*
X132521904Y-43523878D02*
X132598095Y-43523878D01*
X132598095Y-43523878D02*
X132628571Y-43539116D01*
X132628571Y-43539116D02*
X132643809Y-43554354D01*
X132643809Y-43554354D02*
X132659047Y-43584830D01*
X132659047Y-43584830D02*
X132659047Y-43615306D01*
X132659047Y-43615306D02*
X132643809Y-43661020D01*
X132643809Y-43661020D02*
X132460952Y-43843878D01*
X132460952Y-43843878D02*
X132659047Y-43843878D01*
D10*
X94166667Y-44562296D02*
X93900000Y-44181343D01*
X93709524Y-44562296D02*
X93709524Y-43762296D01*
X93709524Y-43762296D02*
X94014286Y-43762296D01*
X94014286Y-43762296D02*
X94090476Y-43800391D01*
X94090476Y-43800391D02*
X94128571Y-43838486D01*
X94128571Y-43838486D02*
X94166667Y-43914677D01*
X94166667Y-43914677D02*
X94166667Y-44028962D01*
X94166667Y-44028962D02*
X94128571Y-44105153D01*
X94128571Y-44105153D02*
X94090476Y-44143248D01*
X94090476Y-44143248D02*
X94014286Y-44181343D01*
X94014286Y-44181343D02*
X93709524Y-44181343D01*
X94890476Y-43762296D02*
X94509524Y-43762296D01*
X94509524Y-43762296D02*
X94471428Y-44143248D01*
X94471428Y-44143248D02*
X94509524Y-44105153D01*
X94509524Y-44105153D02*
X94585714Y-44067058D01*
X94585714Y-44067058D02*
X94776190Y-44067058D01*
X94776190Y-44067058D02*
X94852381Y-44105153D01*
X94852381Y-44105153D02*
X94890476Y-44143248D01*
X94890476Y-44143248D02*
X94928571Y-44219439D01*
X94928571Y-44219439D02*
X94928571Y-44409915D01*
X94928571Y-44409915D02*
X94890476Y-44486105D01*
X94890476Y-44486105D02*
X94852381Y-44524201D01*
X94852381Y-44524201D02*
X94776190Y-44562296D01*
X94776190Y-44562296D02*
X94585714Y-44562296D01*
X94585714Y-44562296D02*
X94509524Y-44524201D01*
X94509524Y-44524201D02*
X94471428Y-44486105D01*
X128166667Y-30662296D02*
X127900000Y-30281343D01*
X127709524Y-30662296D02*
X127709524Y-29862296D01*
X127709524Y-29862296D02*
X128014286Y-29862296D01*
X128014286Y-29862296D02*
X128090476Y-29900391D01*
X128090476Y-29900391D02*
X128128571Y-29938486D01*
X128128571Y-29938486D02*
X128166667Y-30014677D01*
X128166667Y-30014677D02*
X128166667Y-30128962D01*
X128166667Y-30128962D02*
X128128571Y-30205153D01*
X128128571Y-30205153D02*
X128090476Y-30243248D01*
X128090476Y-30243248D02*
X128014286Y-30281343D01*
X128014286Y-30281343D02*
X127709524Y-30281343D01*
X128433333Y-29862296D02*
X128928571Y-29862296D01*
X128928571Y-29862296D02*
X128661905Y-30167058D01*
X128661905Y-30167058D02*
X128776190Y-30167058D01*
X128776190Y-30167058D02*
X128852381Y-30205153D01*
X128852381Y-30205153D02*
X128890476Y-30243248D01*
X128890476Y-30243248D02*
X128928571Y-30319439D01*
X128928571Y-30319439D02*
X128928571Y-30509915D01*
X128928571Y-30509915D02*
X128890476Y-30586105D01*
X128890476Y-30586105D02*
X128852381Y-30624201D01*
X128852381Y-30624201D02*
X128776190Y-30662296D01*
X128776190Y-30662296D02*
X128547619Y-30662296D01*
X128547619Y-30662296D02*
X128471428Y-30624201D01*
X128471428Y-30624201D02*
X128433333Y-30586105D01*
X118162295Y-46233332D02*
X117781342Y-46499999D01*
X118162295Y-46690475D02*
X117362295Y-46690475D01*
X117362295Y-46690475D02*
X117362295Y-46385713D01*
X117362295Y-46385713D02*
X117400390Y-46309523D01*
X117400390Y-46309523D02*
X117438485Y-46271428D01*
X117438485Y-46271428D02*
X117514676Y-46233332D01*
X117514676Y-46233332D02*
X117628961Y-46233332D01*
X117628961Y-46233332D02*
X117705152Y-46271428D01*
X117705152Y-46271428D02*
X117743247Y-46309523D01*
X117743247Y-46309523D02*
X117781342Y-46385713D01*
X117781342Y-46385713D02*
X117781342Y-46690475D01*
X118162295Y-45471428D02*
X118162295Y-45928571D01*
X118162295Y-45699999D02*
X117362295Y-45699999D01*
X117362295Y-45699999D02*
X117476580Y-45776190D01*
X117476580Y-45776190D02*
X117552771Y-45852380D01*
X117552771Y-45852380D02*
X117590866Y-45928571D01*
X88790476Y-27262296D02*
X88790476Y-27909915D01*
X88790476Y-27909915D02*
X88828571Y-27986105D01*
X88828571Y-27986105D02*
X88866666Y-28024201D01*
X88866666Y-28024201D02*
X88942857Y-28062296D01*
X88942857Y-28062296D02*
X89095238Y-28062296D01*
X89095238Y-28062296D02*
X89171428Y-28024201D01*
X89171428Y-28024201D02*
X89209523Y-27986105D01*
X89209523Y-27986105D02*
X89247619Y-27909915D01*
X89247619Y-27909915D02*
X89247619Y-27262296D01*
X90047618Y-28062296D02*
X89590475Y-28062296D01*
X89819047Y-28062296D02*
X89819047Y-27262296D01*
X89819047Y-27262296D02*
X89742856Y-27376581D01*
X89742856Y-27376581D02*
X89666666Y-27452772D01*
X89666666Y-27452772D02*
X89590475Y-27490867D01*
X122790476Y-27262296D02*
X122790476Y-27909915D01*
X122790476Y-27909915D02*
X122828571Y-27986105D01*
X122828571Y-27986105D02*
X122866666Y-28024201D01*
X122866666Y-28024201D02*
X122942857Y-28062296D01*
X122942857Y-28062296D02*
X123095238Y-28062296D01*
X123095238Y-28062296D02*
X123171428Y-28024201D01*
X123171428Y-28024201D02*
X123209523Y-27986105D01*
X123209523Y-27986105D02*
X123247619Y-27909915D01*
X123247619Y-27909915D02*
X123247619Y-27262296D01*
X124047618Y-28062296D02*
X123590475Y-28062296D01*
X123819047Y-28062296D02*
X123819047Y-27262296D01*
X123819047Y-27262296D02*
X123742856Y-27376581D01*
X123742856Y-27376581D02*
X123666666Y-27452772D01*
X123666666Y-27452772D02*
X123590475Y-27490867D01*
D12*
%TO.C,R3*%
X93565000Y-28117064D02*
X93565000Y-27662936D01*
X95035000Y-28117064D02*
X95035000Y-27662936D01*
%TO.C,R4*%
X123822936Y-52030000D02*
X124277064Y-52030000D01*
X123822936Y-53500000D02*
X124277064Y-53500000D01*
%TO.C,R2*%
X115315000Y-49575436D02*
X115315000Y-50029564D01*
X116785000Y-49575436D02*
X116785000Y-50029564D01*
%TO.C,JP1*%
X95900000Y-52440000D02*
X95900000Y-51840000D01*
X96600000Y-51140000D02*
X98000000Y-51140000D01*
X98000000Y-53140000D02*
X96600000Y-53140000D01*
X98700000Y-51840000D02*
X98700000Y-52440000D01*
X95900000Y-51840000D02*
G75*
G02*
X96600000Y-51140000I700000J0D01*
G01*
X96600000Y-53140000D02*
G75*
G02*
X95900000Y-52440000I0J700000D01*
G01*
X98000000Y-51140000D02*
G75*
G02*
X98700000Y-51840000I1J-699999D01*
G01*
X98700000Y-52440000D02*
G75*
G02*
X98000000Y-53140000I-699999J-1D01*
G01*
%TO.C,R5*%
X127565000Y-46867064D02*
X127565000Y-46412936D01*
X129035000Y-46867064D02*
X129035000Y-46412936D01*
%TO.C,R1*%
X81315000Y-23387936D02*
X81315000Y-23842064D01*
X82785000Y-23387936D02*
X82785000Y-23842064D01*
%TO.C,R4*%
X123822936Y-29530000D02*
X124277064Y-29530000D01*
X123822936Y-31000000D02*
X124277064Y-31000000D01*
%TO.C,JP1*%
X95900000Y-29940000D02*
X95900000Y-29340000D01*
X96600000Y-28640000D02*
X98000000Y-28640000D01*
X98000000Y-30640000D02*
X96600000Y-30640000D01*
X98700000Y-29340000D02*
X98700000Y-29940000D01*
X95900000Y-29340000D02*
G75*
G02*
X96600000Y-28640000I700000J0D01*
G01*
X96600000Y-30640000D02*
G75*
G02*
X95900000Y-29940000I0J700000D01*
G01*
X98000000Y-28640000D02*
G75*
G02*
X98700000Y-29340000I1J-699999D01*
G01*
X98700000Y-29940000D02*
G75*
G02*
X98000000Y-30640000I-699999J-1D01*
G01*
%TO.C,R2*%
X115315000Y-27075436D02*
X115315000Y-27529564D01*
X116785000Y-27075436D02*
X116785000Y-27529564D01*
%TO.C,JP1*%
X129900000Y-52440000D02*
X129900000Y-51840000D01*
X130600000Y-51140000D02*
X132000000Y-51140000D01*
X132000000Y-53140000D02*
X130600000Y-53140000D01*
X132700000Y-51840000D02*
X132700000Y-52440000D01*
X129900000Y-51840000D02*
G75*
G02*
X130600000Y-51140000I700000J0D01*
G01*
X130600000Y-53140000D02*
G75*
G02*
X129900000Y-52440000I0J700000D01*
G01*
X132000000Y-51140000D02*
G75*
G02*
X132700000Y-51840000I1J-699999D01*
G01*
X132700000Y-52440000D02*
G75*
G02*
X132000000Y-53140000I-699999J-1D01*
G01*
%TO.C,R2*%
X81315000Y-49575436D02*
X81315000Y-50029564D01*
X82785000Y-49575436D02*
X82785000Y-50029564D01*
%TO.C,C3*%
X131038748Y-26405000D02*
X131561252Y-26405000D01*
X131038748Y-27875000D02*
X131561252Y-27875000D01*
%TO.C,C2*%
X83565000Y-50026252D02*
X83565000Y-49503748D01*
X85035000Y-50026252D02*
X85035000Y-49503748D01*
%TO.C,R5*%
X127565000Y-24367064D02*
X127565000Y-23912936D01*
X129035000Y-24367064D02*
X129035000Y-23912936D01*
%TO.C,JP1*%
X129900000Y-29940000D02*
X129900000Y-29340000D01*
X130600000Y-28640000D02*
X132000000Y-28640000D01*
X132000000Y-30640000D02*
X130600000Y-30640000D01*
X132700000Y-29340000D02*
X132700000Y-29940000D01*
X129900000Y-29340000D02*
G75*
G02*
X130600000Y-28640000I700000J0D01*
G01*
X130600000Y-30640000D02*
G75*
G02*
X129900000Y-29940000I0J700000D01*
G01*
X132000000Y-28640000D02*
G75*
G02*
X132700000Y-29340000I1J-699999D01*
G01*
X132700000Y-29940000D02*
G75*
G02*
X132000000Y-30640000I-699999J-1D01*
G01*
%TO.C,C1*%
X91061252Y-44030000D02*
X90538748Y-44030000D01*
X91061252Y-45500000D02*
X90538748Y-45500000D01*
D13*
%TO.C,U2*%
X95750000Y-44210000D02*
X98850000Y-44210000D01*
X95750000Y-48070000D02*
X95750000Y-44210000D01*
X98850000Y-44210000D02*
X98850000Y-48070000D01*
X98850000Y-48070000D02*
X95750000Y-48070000D01*
D12*
%TO.C,R1*%
X115315000Y-23387936D02*
X115315000Y-23842064D01*
X116785000Y-23387936D02*
X116785000Y-23842064D01*
D13*
%TO.C,U2*%
X95750000Y-21710000D02*
X98850000Y-21710000D01*
X95750000Y-25570000D02*
X95750000Y-21710000D01*
X98850000Y-21710000D02*
X98850000Y-25570000D01*
X98850000Y-25570000D02*
X95750000Y-25570000D01*
D12*
%TO.C,C2*%
X117565000Y-27526252D02*
X117565000Y-27003748D01*
X119035000Y-27526252D02*
X119035000Y-27003748D01*
D13*
%TO.C,U2*%
X129750000Y-21710000D02*
X132850000Y-21710000D01*
X129750000Y-25570000D02*
X129750000Y-21710000D01*
X132850000Y-21710000D02*
X132850000Y-25570000D01*
X132850000Y-25570000D02*
X129750000Y-25570000D01*
D12*
%TO.C,R4*%
X89822936Y-29530000D02*
X90277064Y-29530000D01*
X89822936Y-31000000D02*
X90277064Y-31000000D01*
%TO.C,J1*%
X111470000Y-46220000D02*
X111470000Y-53900000D01*
X111470000Y-46220000D02*
X114130000Y-46220000D01*
X111470000Y-53900000D02*
X114130000Y-53900000D01*
X112800000Y-43620000D02*
X114130000Y-43620000D01*
X114130000Y-43620000D02*
X114130000Y-44950000D01*
X114130000Y-46220000D02*
X114130000Y-53900000D01*
%TO.C,R3*%
X127565000Y-50617064D02*
X127565000Y-50162936D01*
X129035000Y-50617064D02*
X129035000Y-50162936D01*
%TO.C,R1*%
X81315000Y-45887936D02*
X81315000Y-46342064D01*
X82785000Y-45887936D02*
X82785000Y-46342064D01*
%TO.C,U1*%
X89300000Y-46205000D02*
X87350000Y-46205000D01*
X89300000Y-46205000D02*
X91250000Y-46205000D01*
X89300000Y-51325000D02*
X87350000Y-51325000D01*
X89300000Y-51325000D02*
X91250000Y-51325000D01*
X86600000Y-46300000D02*
X86360000Y-45970000D01*
X86840000Y-45970000D01*
X86600000Y-46300000D01*
G36*
X86600000Y-46300000D02*
G01*
X86360000Y-45970000D01*
X86840000Y-45970000D01*
X86600000Y-46300000D01*
G37*
%TO.C,C1*%
X125061252Y-44030000D02*
X124538748Y-44030000D01*
X125061252Y-45500000D02*
X124538748Y-45500000D01*
%TO.C,U1*%
X123300000Y-46205000D02*
X121350000Y-46205000D01*
X123300000Y-46205000D02*
X125250000Y-46205000D01*
X123300000Y-51325000D02*
X121350000Y-51325000D01*
X123300000Y-51325000D02*
X125250000Y-51325000D01*
X120600000Y-46300000D02*
X120360000Y-45970000D01*
X120840000Y-45970000D01*
X120600000Y-46300000D01*
G36*
X120600000Y-46300000D02*
G01*
X120360000Y-45970000D01*
X120840000Y-45970000D01*
X120600000Y-46300000D01*
G37*
%TO.C,R4*%
X89822936Y-52030000D02*
X90277064Y-52030000D01*
X89822936Y-53500000D02*
X90277064Y-53500000D01*
%TO.C,R2*%
X81315000Y-27075436D02*
X81315000Y-27529564D01*
X82785000Y-27075436D02*
X82785000Y-27529564D01*
%TO.C,C3*%
X97038748Y-48905000D02*
X97561252Y-48905000D01*
X97038748Y-50375000D02*
X97561252Y-50375000D01*
%TO.C,C1*%
X91061252Y-21530000D02*
X90538748Y-21530000D01*
X91061252Y-23000000D02*
X90538748Y-23000000D01*
%TO.C,C2*%
X83565000Y-27526252D02*
X83565000Y-27003748D01*
X85035000Y-27526252D02*
X85035000Y-27003748D01*
%TO.C,R5*%
X93565000Y-24367064D02*
X93565000Y-23912936D01*
X95035000Y-24367064D02*
X95035000Y-23912936D01*
%TO.C,J1*%
X77470000Y-46220000D02*
X77470000Y-53900000D01*
X77470000Y-46220000D02*
X80130000Y-46220000D01*
X77470000Y-53900000D02*
X80130000Y-53900000D01*
X78800000Y-43620000D02*
X80130000Y-43620000D01*
X80130000Y-43620000D02*
X80130000Y-44950000D01*
X80130000Y-46220000D02*
X80130000Y-53900000D01*
%TO.C,C3*%
X97038748Y-26405000D02*
X97561252Y-26405000D01*
X97038748Y-27875000D02*
X97561252Y-27875000D01*
%TO.C,C1*%
X125061252Y-21530000D02*
X124538748Y-21530000D01*
X125061252Y-23000000D02*
X124538748Y-23000000D01*
%TO.C,C2*%
X117565000Y-50026252D02*
X117565000Y-49503748D01*
X119035000Y-50026252D02*
X119035000Y-49503748D01*
%TO.C,R3*%
X93565000Y-50617064D02*
X93565000Y-50162936D01*
X95035000Y-50617064D02*
X95035000Y-50162936D01*
D13*
%TO.C,U2*%
X129750000Y-44210000D02*
X132850000Y-44210000D01*
X129750000Y-48070000D02*
X129750000Y-44210000D01*
X132850000Y-44210000D02*
X132850000Y-48070000D01*
X132850000Y-48070000D02*
X129750000Y-48070000D01*
D12*
%TO.C,J1*%
X77470000Y-23720000D02*
X77470000Y-31400000D01*
X77470000Y-23720000D02*
X80130000Y-23720000D01*
X77470000Y-31400000D02*
X80130000Y-31400000D01*
X78800000Y-21120000D02*
X80130000Y-21120000D01*
X80130000Y-21120000D02*
X80130000Y-22450000D01*
X80130000Y-23720000D02*
X80130000Y-31400000D01*
%TO.C,R5*%
X93565000Y-46867064D02*
X93565000Y-46412936D01*
X95035000Y-46867064D02*
X95035000Y-46412936D01*
%TO.C,C3*%
X131038748Y-48905000D02*
X131561252Y-48905000D01*
X131038748Y-50375000D02*
X131561252Y-50375000D01*
%TO.C,R3*%
X127565000Y-28117064D02*
X127565000Y-27662936D01*
X129035000Y-28117064D02*
X129035000Y-27662936D01*
%TO.C,R1*%
X115315000Y-45887936D02*
X115315000Y-46342064D01*
X116785000Y-45887936D02*
X116785000Y-46342064D01*
%TO.C,J1*%
X111470000Y-23720000D02*
X111470000Y-31400000D01*
X111470000Y-23720000D02*
X114130000Y-23720000D01*
X111470000Y-31400000D02*
X114130000Y-31400000D01*
X112800000Y-21120000D02*
X114130000Y-21120000D01*
X114130000Y-21120000D02*
X114130000Y-22450000D01*
X114130000Y-23720000D02*
X114130000Y-31400000D01*
%TO.C,U1*%
X89300000Y-23705000D02*
X87350000Y-23705000D01*
X89300000Y-23705000D02*
X91250000Y-23705000D01*
X89300000Y-28825000D02*
X87350000Y-28825000D01*
X89300000Y-28825000D02*
X91250000Y-28825000D01*
X86600000Y-23800000D02*
X86360000Y-23470000D01*
X86840000Y-23470000D01*
X86600000Y-23800000D01*
G36*
X86600000Y-23800000D02*
G01*
X86360000Y-23470000D01*
X86840000Y-23470000D01*
X86600000Y-23800000D01*
G37*
X123300000Y-23705000D02*
X121350000Y-23705000D01*
X123300000Y-23705000D02*
X125250000Y-23705000D01*
X123300000Y-28825000D02*
X121350000Y-28825000D01*
X123300000Y-28825000D02*
X125250000Y-28825000D01*
X120600000Y-23800000D02*
X120360000Y-23470000D01*
X120840000Y-23470000D01*
X120600000Y-23800000D01*
G36*
X120600000Y-23800000D02*
G01*
X120360000Y-23470000D01*
X120840000Y-23470000D01*
X120600000Y-23800000D01*
G37*
%TD*%
M02*
