%TF.GenerationSoftware,KiCad,Pcbnew,8.0.8-8.0.8-0~ubuntu24.04.1*%
%TF.CreationDate,2025-02-18T11:20:38+01:00*%
%TF.ProjectId,SPU0410LR5H_panel,53505530-3431-4304-9c52-35485f70616e,rev?*%
%TF.SameCoordinates,Original*%
%TF.FileFunction,Copper,L2,Bot*%
%TF.FilePolarity,Positive*%
%FSLAX46Y46*%
G04 Gerber Fmt 4.6, Leading zero omitted, Abs format (unit mm)*
G04 Created by KiCad (PCBNEW 8.0.8-8.0.8-0~ubuntu24.04.1) date 2025-02-18 11:20:38*
%MOMM*%
%LPD*%
G01*
G04 APERTURE LIST*
%TA.AperFunction,ComponentPad*%
%ADD10R,1.700000X1.700000*%
%TD*%
%TA.AperFunction,ComponentPad*%
%ADD11O,1.700000X1.700000*%
%TD*%
%TA.AperFunction,ViaPad*%
%ADD12C,0.600000*%
%TD*%
%TA.AperFunction,Conductor*%
%ADD13C,0.500000*%
%TD*%
G04 APERTURE END LIST*
D10*
%TO.P,J1,1,Pin_1*%
%TO.N,Board_3-+3.3V*%
X112300000Y-44950000D03*
D11*
%TO.P,J1,2,Pin_2*%
%TO.N,Board_3-OUTPUT*%
X112300000Y-47490000D03*
%TO.P,J1,3,Pin_3*%
%TO.N,Board_3-VCC{slash}2*%
X112300000Y-50030000D03*
%TO.P,J1,4,Pin_4*%
%TO.N,Board_3-GND*%
X112300000Y-52570000D03*
%TD*%
D10*
%TO.P,J1,1,Pin_1*%
%TO.N,Board_0-+3.3V*%
X79300000Y-22450000D03*
D11*
%TO.P,J1,2,Pin_2*%
%TO.N,Board_0-OUTPUT*%
X79300000Y-24990000D03*
%TO.P,J1,3,Pin_3*%
%TO.N,Board_0-VCC{slash}2*%
X79300000Y-27530000D03*
%TO.P,J1,4,Pin_4*%
%TO.N,Board_0-GND*%
X79300000Y-30070000D03*
%TD*%
D10*
%TO.P,J1,1,Pin_1*%
%TO.N,Board_2-+3.3V*%
X79300000Y-44950000D03*
D11*
%TO.P,J1,2,Pin_2*%
%TO.N,Board_2-OUTPUT*%
X79300000Y-47490000D03*
%TO.P,J1,3,Pin_3*%
%TO.N,Board_2-VCC{slash}2*%
X79300000Y-50030000D03*
%TO.P,J1,4,Pin_4*%
%TO.N,Board_2-GND*%
X79300000Y-52570000D03*
%TD*%
D10*
%TO.P,J1,1,Pin_1*%
%TO.N,Board_1-+3.3V*%
X112300000Y-22450000D03*
D11*
%TO.P,J1,2,Pin_2*%
%TO.N,Board_1-OUTPUT*%
X112300000Y-24990000D03*
%TO.P,J1,3,Pin_3*%
%TO.N,Board_1-VCC{slash}2*%
X112300000Y-27530000D03*
%TO.P,J1,4,Pin_4*%
%TO.N,Board_1-GND*%
X112300000Y-30070000D03*
%TD*%
D12*
%TO.N,Board_0-+3.3V*%
X96550000Y-24015000D03*
X91300000Y-23515000D03*
%TO.N,Board_0-GND*%
X84750000Y-30000000D03*
X97800000Y-26000000D03*
X89250000Y-25000000D03*
X85500000Y-31000000D03*
X95000000Y-30000000D03*
X94000000Y-31000000D03*
X86500000Y-22265000D03*
X96500000Y-21000000D03*
X86500000Y-30000000D03*
X84750000Y-22265000D03*
X95750000Y-31000000D03*
X83750000Y-31000000D03*
X93750000Y-22000000D03*
X97800000Y-24110499D03*
X82000000Y-31000000D03*
X83000000Y-30000000D03*
X88250000Y-30000000D03*
X95500000Y-22000000D03*
X94750000Y-21000000D03*
X90000000Y-26000000D03*
X87250000Y-31000000D03*
X88250000Y-22265000D03*
X81250000Y-30000000D03*
%TO.N,Board_1-+3.3V*%
X129550000Y-24015000D03*
X124300000Y-23515000D03*
%TO.N,Board_1-GND*%
X120250000Y-31000000D03*
X121250000Y-30000000D03*
X130800000Y-24110499D03*
X117750000Y-22265000D03*
X114250000Y-30000000D03*
X116000000Y-30000000D03*
X127750000Y-21000000D03*
X115000000Y-31000000D03*
X117750000Y-30000000D03*
X129500000Y-21000000D03*
X127000000Y-31000000D03*
X128500000Y-22000000D03*
X121250000Y-22265000D03*
X130800000Y-26000000D03*
X126750000Y-22000000D03*
X118500000Y-31000000D03*
X128750000Y-31000000D03*
X116750000Y-31000000D03*
X123000000Y-26000000D03*
X119500000Y-22265000D03*
X122250000Y-25000000D03*
X119500000Y-30000000D03*
X128000000Y-30000000D03*
%TO.N,Board_2-+3.3V*%
X96550000Y-46515000D03*
X91300000Y-46015000D03*
%TO.N,Board_2-GND*%
X88250000Y-44765000D03*
X87250000Y-53500000D03*
X94750000Y-43500000D03*
X90000000Y-48500000D03*
X97800000Y-46610499D03*
X84750000Y-52500000D03*
X83750000Y-53500000D03*
X86500000Y-44765000D03*
X84750000Y-44765000D03*
X96500000Y-43500000D03*
X82000000Y-53500000D03*
X97800000Y-48500000D03*
X85500000Y-53500000D03*
X89250000Y-47500000D03*
X81250000Y-52500000D03*
X95750000Y-53500000D03*
X83000000Y-52500000D03*
X95500000Y-44500000D03*
X86500000Y-52500000D03*
X93750000Y-44500000D03*
X94000000Y-53500000D03*
X88250000Y-52500000D03*
X95000000Y-52500000D03*
%TO.N,Board_3-+3.3V*%
X124300000Y-46015000D03*
X129550000Y-46515000D03*
%TO.N,Board_3-GND*%
X117750000Y-52500000D03*
X114250000Y-52500000D03*
X116000000Y-52500000D03*
X119500000Y-52500000D03*
X127000000Y-53500000D03*
X130800000Y-48500000D03*
X123000000Y-48500000D03*
X116750000Y-53500000D03*
X117750000Y-44765000D03*
X121250000Y-52500000D03*
X119500000Y-44765000D03*
X121250000Y-44765000D03*
X120250000Y-53500000D03*
X126750000Y-44500000D03*
X127750000Y-43500000D03*
X128500000Y-44500000D03*
X129500000Y-43500000D03*
X115000000Y-53500000D03*
X122250000Y-47500000D03*
X128750000Y-53500000D03*
X128000000Y-52500000D03*
X130800000Y-46610499D03*
X118500000Y-53500000D03*
%TD*%
D13*
%TO.N,Board_0-+3.3V*%
X91550000Y-23765000D02*
X91300000Y-23515000D01*
X92153553Y-24015000D02*
X96550000Y-24015000D01*
X91550000Y-23765000D02*
G75*
G03*
X92153553Y-24015019I603600J603600D01*
G01*
%TO.N,Board_1-+3.3V*%
X125153553Y-24015000D02*
X129550000Y-24015000D01*
X124550000Y-23765000D02*
X124300000Y-23515000D01*
X124550000Y-23765000D02*
G75*
G03*
X125153553Y-24015019I603600J603600D01*
G01*
%TO.N,Board_2-+3.3V*%
X91550000Y-46265000D02*
X91300000Y-46015000D01*
X92153553Y-46515000D02*
X96550000Y-46515000D01*
X91550000Y-46265000D02*
G75*
G03*
X92153553Y-46515019I603600J603600D01*
G01*
%TO.N,Board_3-+3.3V*%
X125153553Y-46515000D02*
X129550000Y-46515000D01*
X124550000Y-46265000D02*
X124300000Y-46015000D01*
X124550000Y-46265000D02*
G75*
G03*
X125153553Y-46515019I603600J603600D01*
G01*
%TD*%
%TA.AperFunction,Conductor*%
%TO.N,Board_0-GND*%
G36*
X99006923Y-20501280D02*
G01*
X99023412Y-20503137D01*
X99097268Y-20511458D01*
X99124325Y-20517633D01*
X99203547Y-20545354D01*
X99228550Y-20557395D01*
X99299607Y-20602043D01*
X99321314Y-20619355D01*
X99380646Y-20678687D01*
X99397958Y-20700395D01*
X99442601Y-20771442D01*
X99454650Y-20796462D01*
X99482364Y-20875667D01*
X99488542Y-20902735D01*
X99498720Y-20993059D01*
X99499500Y-21006944D01*
X99499500Y-31493040D01*
X99498720Y-31506923D01*
X99488541Y-31597265D01*
X99482362Y-31624337D01*
X99454649Y-31703535D01*
X99442602Y-31728552D01*
X99397957Y-31799604D01*
X99380644Y-31821313D01*
X99321313Y-31880644D01*
X99299604Y-31897957D01*
X99228552Y-31942602D01*
X99203535Y-31954649D01*
X99124337Y-31982362D01*
X99097266Y-31988541D01*
X99032898Y-31995793D01*
X99006922Y-31998720D01*
X98993041Y-31999500D01*
X78006963Y-31999500D01*
X77993079Y-31998720D01*
X77980554Y-31997308D01*
X77902736Y-31988540D01*
X77875667Y-31982362D01*
X77796463Y-31954648D01*
X77771444Y-31942599D01*
X77700398Y-31897957D01*
X77678690Y-31880645D01*
X77619356Y-31821311D01*
X77602043Y-31799602D01*
X77557399Y-31728552D01*
X77545354Y-31703539D01*
X77517637Y-31624331D01*
X77511462Y-31597277D01*
X77501278Y-31506892D01*
X77500500Y-31493020D01*
X77500500Y-24989999D01*
X77944341Y-24989999D01*
X77944341Y-24990000D01*
X77964936Y-25225403D01*
X77964938Y-25225413D01*
X78026094Y-25453655D01*
X78026096Y-25453659D01*
X78026097Y-25453663D01*
X78125965Y-25667830D01*
X78125967Y-25667834D01*
X78261501Y-25861395D01*
X78261506Y-25861402D01*
X78428597Y-26028493D01*
X78428603Y-26028498D01*
X78614158Y-26158425D01*
X78657783Y-26213002D01*
X78664977Y-26282500D01*
X78633454Y-26344855D01*
X78614158Y-26361575D01*
X78428597Y-26491505D01*
X78261505Y-26658597D01*
X78125965Y-26852169D01*
X78125964Y-26852171D01*
X78026098Y-27066335D01*
X78026094Y-27066344D01*
X77964938Y-27294586D01*
X77964936Y-27294596D01*
X77944341Y-27529999D01*
X77944341Y-27530000D01*
X77964936Y-27765403D01*
X77964938Y-27765413D01*
X78026094Y-27993655D01*
X78026096Y-27993659D01*
X78026097Y-27993663D01*
X78125965Y-28207830D01*
X78125967Y-28207834D01*
X78261501Y-28401395D01*
X78261506Y-28401402D01*
X78428597Y-28568493D01*
X78428603Y-28568498D01*
X78614594Y-28698730D01*
X78658219Y-28753307D01*
X78665413Y-28822805D01*
X78633890Y-28885160D01*
X78614595Y-28901880D01*
X78428922Y-29031890D01*
X78428920Y-29031891D01*
X78261891Y-29198920D01*
X78261886Y-29198926D01*
X78126400Y-29392420D01*
X78126399Y-29392422D01*
X78026570Y-29606507D01*
X78026567Y-29606513D01*
X77969364Y-29819999D01*
X77969364Y-29820000D01*
X78866988Y-29820000D01*
X78834075Y-29877007D01*
X78800000Y-30004174D01*
X78800000Y-30135826D01*
X78834075Y-30262993D01*
X78866988Y-30320000D01*
X77969364Y-30320000D01*
X78026567Y-30533486D01*
X78026570Y-30533492D01*
X78126399Y-30747578D01*
X78261894Y-30941082D01*
X78428917Y-31108105D01*
X78622421Y-31243600D01*
X78836507Y-31343429D01*
X78836516Y-31343433D01*
X79050000Y-31400634D01*
X79050000Y-30503012D01*
X79107007Y-30535925D01*
X79234174Y-30570000D01*
X79365826Y-30570000D01*
X79492993Y-30535925D01*
X79550000Y-30503012D01*
X79550000Y-31400633D01*
X79763483Y-31343433D01*
X79763492Y-31343429D01*
X79977578Y-31243600D01*
X80171082Y-31108105D01*
X80338105Y-30941082D01*
X80473600Y-30747578D01*
X80573429Y-30533492D01*
X80573432Y-30533486D01*
X80630636Y-30320000D01*
X79733012Y-30320000D01*
X79765925Y-30262993D01*
X79800000Y-30135826D01*
X79800000Y-30004174D01*
X79765925Y-29877007D01*
X79733012Y-29820000D01*
X80630636Y-29820000D01*
X80630635Y-29819999D01*
X80573432Y-29606513D01*
X80573429Y-29606507D01*
X80473600Y-29392422D01*
X80473599Y-29392420D01*
X80338113Y-29198926D01*
X80338108Y-29198920D01*
X80171078Y-29031890D01*
X79985405Y-28901879D01*
X79941780Y-28847302D01*
X79934588Y-28777804D01*
X79966110Y-28715449D01*
X79985406Y-28698730D01*
X80171401Y-28568495D01*
X80338495Y-28401401D01*
X80474035Y-28207830D01*
X80573903Y-27993663D01*
X80635063Y-27765408D01*
X80655659Y-27530000D01*
X80635063Y-27294592D01*
X80573903Y-27066337D01*
X80474035Y-26852171D01*
X80338495Y-26658599D01*
X80338494Y-26658597D01*
X80171402Y-26491506D01*
X80171396Y-26491501D01*
X79985842Y-26361575D01*
X79942217Y-26306998D01*
X79935023Y-26237500D01*
X79966546Y-26175145D01*
X79985842Y-26158425D01*
X80008026Y-26142891D01*
X80171401Y-26028495D01*
X80338495Y-25861401D01*
X80474035Y-25667830D01*
X80573903Y-25453663D01*
X80635063Y-25225408D01*
X80655659Y-24990000D01*
X80635063Y-24754592D01*
X80573903Y-24526337D01*
X80474035Y-24312171D01*
X80462489Y-24295682D01*
X80338496Y-24118600D01*
X80338495Y-24118599D01*
X80216567Y-23996671D01*
X80183084Y-23935351D01*
X80188068Y-23865659D01*
X80229939Y-23809725D01*
X80260915Y-23792810D01*
X80392331Y-23743796D01*
X80507546Y-23657546D01*
X80593796Y-23542331D01*
X80603991Y-23514996D01*
X90494435Y-23514996D01*
X90494435Y-23515003D01*
X90514630Y-23694249D01*
X90514631Y-23694254D01*
X90574211Y-23864523D01*
X90574925Y-23865659D01*
X90670184Y-24017262D01*
X90797738Y-24144816D01*
X90950478Y-24240789D01*
X90950480Y-24240789D01*
X90950484Y-24240792D01*
X90956756Y-24243813D01*
X90955869Y-24245653D01*
X90991937Y-24268305D01*
X91019315Y-24295683D01*
X91019315Y-24295682D01*
X91077470Y-24353838D01*
X91077924Y-24354263D01*
X91093671Y-24370011D01*
X91260467Y-24498000D01*
X91260479Y-24498009D01*
X91442569Y-24603143D01*
X91636823Y-24683613D01*
X91839918Y-24738040D01*
X92048380Y-24765495D01*
X92072823Y-24765495D01*
X92072889Y-24765500D01*
X92153511Y-24765500D01*
X92232392Y-24765504D01*
X92232397Y-24765502D01*
X92238786Y-24765503D01*
X92238863Y-24765500D01*
X96250028Y-24765500D01*
X96290983Y-24772458D01*
X96370745Y-24800368D01*
X96370750Y-24800369D01*
X96549996Y-24820565D01*
X96550000Y-24820565D01*
X96550004Y-24820565D01*
X96729249Y-24800369D01*
X96729252Y-24800368D01*
X96729255Y-24800368D01*
X96899522Y-24740789D01*
X97052262Y-24644816D01*
X97179816Y-24517262D01*
X97275789Y-24364522D01*
X97335368Y-24194255D01*
X97335369Y-24194249D01*
X97355565Y-24015003D01*
X97355565Y-24014996D01*
X97335369Y-23835750D01*
X97335368Y-23835745D01*
X97303194Y-23743797D01*
X97275789Y-23665478D01*
X97179816Y-23512738D01*
X97052262Y-23385184D01*
X96994031Y-23348595D01*
X96899523Y-23289211D01*
X96729254Y-23229631D01*
X96729249Y-23229630D01*
X96550004Y-23209435D01*
X96549996Y-23209435D01*
X96370750Y-23229630D01*
X96370745Y-23229631D01*
X96290983Y-23257542D01*
X96250028Y-23264500D01*
X92162230Y-23264500D01*
X92095191Y-23244815D01*
X92074549Y-23228181D01*
X92053307Y-23206939D01*
X92030653Y-23170869D01*
X92028813Y-23171756D01*
X92025792Y-23165484D01*
X92025789Y-23165480D01*
X92025789Y-23165478D01*
X91929816Y-23012738D01*
X91802262Y-22885184D01*
X91734966Y-22842899D01*
X97324500Y-22842899D01*
X97324500Y-22968101D01*
X97356905Y-23089036D01*
X97419505Y-23197464D01*
X97508036Y-23285995D01*
X97616464Y-23348595D01*
X97737399Y-23381000D01*
X97737401Y-23381000D01*
X97862599Y-23381000D01*
X97862601Y-23381000D01*
X97983536Y-23348595D01*
X98091964Y-23285995D01*
X98180495Y-23197464D01*
X98243095Y-23089036D01*
X98275500Y-22968101D01*
X98275500Y-22842899D01*
X98243095Y-22721964D01*
X98180495Y-22613536D01*
X98091964Y-22525005D01*
X97983536Y-22462405D01*
X97983537Y-22462405D01*
X97943224Y-22451603D01*
X97862601Y-22430000D01*
X97737399Y-22430000D01*
X97656775Y-22451603D01*
X97616463Y-22462405D01*
X97508037Y-22525004D01*
X97508034Y-22525006D01*
X97419506Y-22613534D01*
X97419504Y-22613537D01*
X97356905Y-22721963D01*
X97354850Y-22729632D01*
X97324500Y-22842899D01*
X91734966Y-22842899D01*
X91649523Y-22789211D01*
X91479254Y-22729631D01*
X91479249Y-22729630D01*
X91300004Y-22709435D01*
X91299996Y-22709435D01*
X91120750Y-22729630D01*
X91120745Y-22729631D01*
X90950476Y-22789211D01*
X90797737Y-22885184D01*
X90670184Y-23012737D01*
X90574211Y-23165476D01*
X90514631Y-23335745D01*
X90514630Y-23335750D01*
X90494435Y-23514996D01*
X80603991Y-23514996D01*
X80644091Y-23407483D01*
X80650500Y-23347873D01*
X80650499Y-21552128D01*
X80644091Y-21492517D01*
X80593796Y-21357669D01*
X80593795Y-21357668D01*
X80593793Y-21357664D01*
X80507547Y-21242455D01*
X80507544Y-21242452D01*
X80392335Y-21156206D01*
X80392328Y-21156202D01*
X80257482Y-21105908D01*
X80257483Y-21105908D01*
X80197883Y-21099501D01*
X80197881Y-21099500D01*
X80197873Y-21099500D01*
X80197864Y-21099500D01*
X78402129Y-21099500D01*
X78402123Y-21099501D01*
X78342516Y-21105908D01*
X78207671Y-21156202D01*
X78207664Y-21156206D01*
X78092455Y-21242452D01*
X78092452Y-21242455D01*
X78006206Y-21357664D01*
X78006202Y-21357671D01*
X77955908Y-21492517D01*
X77949501Y-21552116D01*
X77949501Y-21552123D01*
X77949500Y-21552135D01*
X77949500Y-23347870D01*
X77949501Y-23347876D01*
X77955908Y-23407483D01*
X78006202Y-23542328D01*
X78006206Y-23542335D01*
X78092452Y-23657544D01*
X78092455Y-23657547D01*
X78207664Y-23743793D01*
X78207671Y-23743797D01*
X78339081Y-23792810D01*
X78395015Y-23834681D01*
X78419432Y-23900145D01*
X78404580Y-23968418D01*
X78383430Y-23996673D01*
X78261503Y-24118600D01*
X78125965Y-24312169D01*
X78125964Y-24312171D01*
X78026098Y-24526335D01*
X78026094Y-24526344D01*
X77964938Y-24754586D01*
X77964936Y-24754596D01*
X77944341Y-24989999D01*
X77500500Y-24989999D01*
X77500500Y-21006960D01*
X77501280Y-20993076D01*
X77501282Y-20993059D01*
X77511459Y-20902732D01*
X77517637Y-20875667D01*
X77545353Y-20796456D01*
X77557396Y-20771450D01*
X77602046Y-20700389D01*
X77619351Y-20678690D01*
X77678690Y-20619351D01*
X77700389Y-20602046D01*
X77771450Y-20557396D01*
X77796456Y-20545353D01*
X77875670Y-20517635D01*
X77902733Y-20511459D01*
X77965326Y-20504407D01*
X77993080Y-20501280D01*
X78006963Y-20500500D01*
X78065893Y-20500500D01*
X98934108Y-20500500D01*
X98993041Y-20500500D01*
X99006923Y-20501280D01*
G37*
%TD.AperFunction*%
%TD*%
%TA.AperFunction,Conductor*%
%TO.N,Board_3-GND*%
G36*
X132006923Y-43001280D02*
G01*
X132023412Y-43003137D01*
X132097268Y-43011458D01*
X132124325Y-43017633D01*
X132203547Y-43045354D01*
X132228550Y-43057395D01*
X132299607Y-43102043D01*
X132321314Y-43119355D01*
X132380646Y-43178687D01*
X132397958Y-43200395D01*
X132442601Y-43271442D01*
X132454650Y-43296462D01*
X132482364Y-43375667D01*
X132488542Y-43402735D01*
X132498720Y-43493059D01*
X132499500Y-43506944D01*
X132499500Y-53993040D01*
X132498720Y-54006923D01*
X132488541Y-54097265D01*
X132482362Y-54124337D01*
X132454649Y-54203535D01*
X132442602Y-54228552D01*
X132397957Y-54299604D01*
X132380644Y-54321313D01*
X132321313Y-54380644D01*
X132299604Y-54397957D01*
X132228552Y-54442602D01*
X132203535Y-54454649D01*
X132124337Y-54482362D01*
X132097266Y-54488541D01*
X132032898Y-54495793D01*
X132006922Y-54498720D01*
X131993041Y-54499500D01*
X111006963Y-54499500D01*
X110993079Y-54498720D01*
X110980554Y-54497308D01*
X110902736Y-54488540D01*
X110875667Y-54482362D01*
X110796463Y-54454648D01*
X110771444Y-54442599D01*
X110700398Y-54397957D01*
X110678690Y-54380645D01*
X110619356Y-54321311D01*
X110602043Y-54299602D01*
X110557399Y-54228552D01*
X110545354Y-54203539D01*
X110517637Y-54124331D01*
X110511462Y-54097277D01*
X110501278Y-54006892D01*
X110500500Y-53993020D01*
X110500500Y-47489999D01*
X110944341Y-47489999D01*
X110944341Y-47490000D01*
X110964936Y-47725403D01*
X110964938Y-47725413D01*
X111026094Y-47953655D01*
X111026096Y-47953659D01*
X111026097Y-47953663D01*
X111125965Y-48167830D01*
X111125967Y-48167834D01*
X111261501Y-48361395D01*
X111261506Y-48361402D01*
X111428597Y-48528493D01*
X111428603Y-48528498D01*
X111614158Y-48658425D01*
X111657783Y-48713002D01*
X111664977Y-48782500D01*
X111633454Y-48844855D01*
X111614158Y-48861575D01*
X111428597Y-48991505D01*
X111261505Y-49158597D01*
X111125965Y-49352169D01*
X111125964Y-49352171D01*
X111026098Y-49566335D01*
X111026094Y-49566344D01*
X110964938Y-49794586D01*
X110964936Y-49794596D01*
X110944341Y-50029999D01*
X110944341Y-50030000D01*
X110964936Y-50265403D01*
X110964938Y-50265413D01*
X111026094Y-50493655D01*
X111026096Y-50493659D01*
X111026097Y-50493663D01*
X111125965Y-50707830D01*
X111125967Y-50707834D01*
X111261501Y-50901395D01*
X111261506Y-50901402D01*
X111428597Y-51068493D01*
X111428603Y-51068498D01*
X111614594Y-51198730D01*
X111658219Y-51253307D01*
X111665413Y-51322805D01*
X111633890Y-51385160D01*
X111614595Y-51401880D01*
X111428922Y-51531890D01*
X111428920Y-51531891D01*
X111261891Y-51698920D01*
X111261886Y-51698926D01*
X111126400Y-51892420D01*
X111126399Y-51892422D01*
X111026570Y-52106507D01*
X111026567Y-52106513D01*
X110969364Y-52319999D01*
X110969364Y-52320000D01*
X111866988Y-52320000D01*
X111834075Y-52377007D01*
X111800000Y-52504174D01*
X111800000Y-52635826D01*
X111834075Y-52762993D01*
X111866988Y-52820000D01*
X110969364Y-52820000D01*
X111026567Y-53033486D01*
X111026570Y-53033492D01*
X111126399Y-53247578D01*
X111261894Y-53441082D01*
X111428917Y-53608105D01*
X111622421Y-53743600D01*
X111836507Y-53843429D01*
X111836516Y-53843433D01*
X112050000Y-53900634D01*
X112050000Y-53003012D01*
X112107007Y-53035925D01*
X112234174Y-53070000D01*
X112365826Y-53070000D01*
X112492993Y-53035925D01*
X112550000Y-53003012D01*
X112550000Y-53900633D01*
X112763483Y-53843433D01*
X112763492Y-53843429D01*
X112977578Y-53743600D01*
X113171082Y-53608105D01*
X113338105Y-53441082D01*
X113473600Y-53247578D01*
X113573429Y-53033492D01*
X113573432Y-53033486D01*
X113630636Y-52820000D01*
X112733012Y-52820000D01*
X112765925Y-52762993D01*
X112800000Y-52635826D01*
X112800000Y-52504174D01*
X112765925Y-52377007D01*
X112733012Y-52320000D01*
X113630636Y-52320000D01*
X113630635Y-52319999D01*
X113573432Y-52106513D01*
X113573429Y-52106507D01*
X113473600Y-51892422D01*
X113473599Y-51892420D01*
X113338113Y-51698926D01*
X113338108Y-51698920D01*
X113171078Y-51531890D01*
X112985405Y-51401879D01*
X112941780Y-51347302D01*
X112934588Y-51277804D01*
X112966110Y-51215449D01*
X112985406Y-51198730D01*
X113171401Y-51068495D01*
X113338495Y-50901401D01*
X113474035Y-50707830D01*
X113573903Y-50493663D01*
X113635063Y-50265408D01*
X113655659Y-50030000D01*
X113635063Y-49794592D01*
X113573903Y-49566337D01*
X113474035Y-49352171D01*
X113338495Y-49158599D01*
X113338494Y-49158597D01*
X113171402Y-48991506D01*
X113171396Y-48991501D01*
X112985842Y-48861575D01*
X112942217Y-48806998D01*
X112935023Y-48737500D01*
X112966546Y-48675145D01*
X112985842Y-48658425D01*
X113008026Y-48642891D01*
X113171401Y-48528495D01*
X113338495Y-48361401D01*
X113474035Y-48167830D01*
X113573903Y-47953663D01*
X113635063Y-47725408D01*
X113655659Y-47490000D01*
X113635063Y-47254592D01*
X113573903Y-47026337D01*
X113474035Y-46812171D01*
X113462489Y-46795682D01*
X113338496Y-46618600D01*
X113338495Y-46618599D01*
X113216567Y-46496671D01*
X113183084Y-46435351D01*
X113188068Y-46365659D01*
X113229939Y-46309725D01*
X113260915Y-46292810D01*
X113392331Y-46243796D01*
X113507546Y-46157546D01*
X113593796Y-46042331D01*
X113603991Y-46014996D01*
X123494435Y-46014996D01*
X123494435Y-46015003D01*
X123514630Y-46194249D01*
X123514631Y-46194254D01*
X123574211Y-46364523D01*
X123574925Y-46365659D01*
X123670184Y-46517262D01*
X123797738Y-46644816D01*
X123950478Y-46740789D01*
X123950480Y-46740789D01*
X123950484Y-46740792D01*
X123956756Y-46743813D01*
X123955869Y-46745653D01*
X123991937Y-46768305D01*
X124019315Y-46795683D01*
X124019315Y-46795682D01*
X124077470Y-46853838D01*
X124077924Y-46854263D01*
X124093671Y-46870011D01*
X124260467Y-46998000D01*
X124260479Y-46998009D01*
X124442569Y-47103143D01*
X124636823Y-47183613D01*
X124839918Y-47238040D01*
X125048380Y-47265495D01*
X125072823Y-47265495D01*
X125072889Y-47265500D01*
X125153511Y-47265500D01*
X125232392Y-47265504D01*
X125232397Y-47265502D01*
X125238786Y-47265503D01*
X125238863Y-47265500D01*
X129250028Y-47265500D01*
X129290983Y-47272458D01*
X129370745Y-47300368D01*
X129370750Y-47300369D01*
X129549996Y-47320565D01*
X129550000Y-47320565D01*
X129550004Y-47320565D01*
X129729249Y-47300369D01*
X129729252Y-47300368D01*
X129729255Y-47300368D01*
X129899522Y-47240789D01*
X130052262Y-47144816D01*
X130179816Y-47017262D01*
X130275789Y-46864522D01*
X130335368Y-46694255D01*
X130335369Y-46694249D01*
X130355565Y-46515003D01*
X130355565Y-46514996D01*
X130335369Y-46335750D01*
X130335368Y-46335745D01*
X130303194Y-46243797D01*
X130275789Y-46165478D01*
X130179816Y-46012738D01*
X130052262Y-45885184D01*
X129994031Y-45848595D01*
X129899523Y-45789211D01*
X129729254Y-45729631D01*
X129729249Y-45729630D01*
X129550004Y-45709435D01*
X129549996Y-45709435D01*
X129370750Y-45729630D01*
X129370745Y-45729631D01*
X129290983Y-45757542D01*
X129250028Y-45764500D01*
X125162230Y-45764500D01*
X125095191Y-45744815D01*
X125074549Y-45728181D01*
X125053307Y-45706939D01*
X125030653Y-45670869D01*
X125028813Y-45671756D01*
X125025792Y-45665484D01*
X125025789Y-45665480D01*
X125025789Y-45665478D01*
X124929816Y-45512738D01*
X124802262Y-45385184D01*
X124734966Y-45342899D01*
X130324500Y-45342899D01*
X130324500Y-45468101D01*
X130356905Y-45589036D01*
X130419505Y-45697464D01*
X130508036Y-45785995D01*
X130616464Y-45848595D01*
X130737399Y-45881000D01*
X130737401Y-45881000D01*
X130862599Y-45881000D01*
X130862601Y-45881000D01*
X130983536Y-45848595D01*
X131091964Y-45785995D01*
X131180495Y-45697464D01*
X131243095Y-45589036D01*
X131275500Y-45468101D01*
X131275500Y-45342899D01*
X131243095Y-45221964D01*
X131180495Y-45113536D01*
X131091964Y-45025005D01*
X130983536Y-44962405D01*
X130983537Y-44962405D01*
X130943224Y-44951603D01*
X130862601Y-44930000D01*
X130737399Y-44930000D01*
X130656775Y-44951603D01*
X130616463Y-44962405D01*
X130508037Y-45025004D01*
X130508034Y-45025006D01*
X130419506Y-45113534D01*
X130419504Y-45113537D01*
X130356905Y-45221963D01*
X130354850Y-45229632D01*
X130324500Y-45342899D01*
X124734966Y-45342899D01*
X124649523Y-45289211D01*
X124479254Y-45229631D01*
X124479249Y-45229630D01*
X124300004Y-45209435D01*
X124299996Y-45209435D01*
X124120750Y-45229630D01*
X124120745Y-45229631D01*
X123950476Y-45289211D01*
X123797737Y-45385184D01*
X123670184Y-45512737D01*
X123574211Y-45665476D01*
X123514631Y-45835745D01*
X123514630Y-45835750D01*
X123494435Y-46014996D01*
X113603991Y-46014996D01*
X113644091Y-45907483D01*
X113650500Y-45847873D01*
X113650499Y-44052128D01*
X113644091Y-43992517D01*
X113593796Y-43857669D01*
X113593795Y-43857668D01*
X113593793Y-43857664D01*
X113507547Y-43742455D01*
X113507544Y-43742452D01*
X113392335Y-43656206D01*
X113392328Y-43656202D01*
X113257482Y-43605908D01*
X113257483Y-43605908D01*
X113197883Y-43599501D01*
X113197881Y-43599500D01*
X113197873Y-43599500D01*
X113197864Y-43599500D01*
X111402129Y-43599500D01*
X111402123Y-43599501D01*
X111342516Y-43605908D01*
X111207671Y-43656202D01*
X111207664Y-43656206D01*
X111092455Y-43742452D01*
X111092452Y-43742455D01*
X111006206Y-43857664D01*
X111006202Y-43857671D01*
X110955908Y-43992517D01*
X110949501Y-44052116D01*
X110949501Y-44052123D01*
X110949500Y-44052135D01*
X110949500Y-45847870D01*
X110949501Y-45847876D01*
X110955908Y-45907483D01*
X111006202Y-46042328D01*
X111006206Y-46042335D01*
X111092452Y-46157544D01*
X111092455Y-46157547D01*
X111207664Y-46243793D01*
X111207671Y-46243797D01*
X111339081Y-46292810D01*
X111395015Y-46334681D01*
X111419432Y-46400145D01*
X111404580Y-46468418D01*
X111383430Y-46496673D01*
X111261503Y-46618600D01*
X111125965Y-46812169D01*
X111125964Y-46812171D01*
X111026098Y-47026335D01*
X111026094Y-47026344D01*
X110964938Y-47254586D01*
X110964936Y-47254596D01*
X110944341Y-47489999D01*
X110500500Y-47489999D01*
X110500500Y-43506960D01*
X110501280Y-43493076D01*
X110501282Y-43493059D01*
X110511459Y-43402732D01*
X110517637Y-43375667D01*
X110545353Y-43296456D01*
X110557396Y-43271450D01*
X110602046Y-43200389D01*
X110619351Y-43178690D01*
X110678690Y-43119351D01*
X110700389Y-43102046D01*
X110771450Y-43057396D01*
X110796456Y-43045353D01*
X110875670Y-43017635D01*
X110902733Y-43011459D01*
X110965326Y-43004407D01*
X110993080Y-43001280D01*
X111006963Y-43000500D01*
X111065893Y-43000500D01*
X131934108Y-43000500D01*
X131993041Y-43000500D01*
X132006923Y-43001280D01*
G37*
%TD.AperFunction*%
%TD*%
%TA.AperFunction,Conductor*%
%TO.N,Board_2-GND*%
G36*
X99006923Y-43001280D02*
G01*
X99023412Y-43003137D01*
X99097268Y-43011458D01*
X99124325Y-43017633D01*
X99203547Y-43045354D01*
X99228550Y-43057395D01*
X99299607Y-43102043D01*
X99321314Y-43119355D01*
X99380646Y-43178687D01*
X99397958Y-43200395D01*
X99442601Y-43271442D01*
X99454650Y-43296462D01*
X99482364Y-43375667D01*
X99488542Y-43402735D01*
X99498720Y-43493059D01*
X99499500Y-43506944D01*
X99499500Y-53993040D01*
X99498720Y-54006923D01*
X99488541Y-54097265D01*
X99482362Y-54124337D01*
X99454649Y-54203535D01*
X99442602Y-54228552D01*
X99397957Y-54299604D01*
X99380644Y-54321313D01*
X99321313Y-54380644D01*
X99299604Y-54397957D01*
X99228552Y-54442602D01*
X99203535Y-54454649D01*
X99124337Y-54482362D01*
X99097266Y-54488541D01*
X99032898Y-54495793D01*
X99006922Y-54498720D01*
X98993041Y-54499500D01*
X78006963Y-54499500D01*
X77993079Y-54498720D01*
X77980554Y-54497308D01*
X77902736Y-54488540D01*
X77875667Y-54482362D01*
X77796463Y-54454648D01*
X77771444Y-54442599D01*
X77700398Y-54397957D01*
X77678690Y-54380645D01*
X77619356Y-54321311D01*
X77602043Y-54299602D01*
X77557399Y-54228552D01*
X77545354Y-54203539D01*
X77517637Y-54124331D01*
X77511462Y-54097277D01*
X77501278Y-54006892D01*
X77500500Y-53993020D01*
X77500500Y-47489999D01*
X77944341Y-47489999D01*
X77944341Y-47490000D01*
X77964936Y-47725403D01*
X77964938Y-47725413D01*
X78026094Y-47953655D01*
X78026096Y-47953659D01*
X78026097Y-47953663D01*
X78125965Y-48167830D01*
X78125967Y-48167834D01*
X78261501Y-48361395D01*
X78261506Y-48361402D01*
X78428597Y-48528493D01*
X78428603Y-48528498D01*
X78614158Y-48658425D01*
X78657783Y-48713002D01*
X78664977Y-48782500D01*
X78633454Y-48844855D01*
X78614158Y-48861575D01*
X78428597Y-48991505D01*
X78261505Y-49158597D01*
X78125965Y-49352169D01*
X78125964Y-49352171D01*
X78026098Y-49566335D01*
X78026094Y-49566344D01*
X77964938Y-49794586D01*
X77964936Y-49794596D01*
X77944341Y-50029999D01*
X77944341Y-50030000D01*
X77964936Y-50265403D01*
X77964938Y-50265413D01*
X78026094Y-50493655D01*
X78026096Y-50493659D01*
X78026097Y-50493663D01*
X78125965Y-50707830D01*
X78125967Y-50707834D01*
X78261501Y-50901395D01*
X78261506Y-50901402D01*
X78428597Y-51068493D01*
X78428603Y-51068498D01*
X78614594Y-51198730D01*
X78658219Y-51253307D01*
X78665413Y-51322805D01*
X78633890Y-51385160D01*
X78614595Y-51401880D01*
X78428922Y-51531890D01*
X78428920Y-51531891D01*
X78261891Y-51698920D01*
X78261886Y-51698926D01*
X78126400Y-51892420D01*
X78126399Y-51892422D01*
X78026570Y-52106507D01*
X78026567Y-52106513D01*
X77969364Y-52319999D01*
X77969364Y-52320000D01*
X78866988Y-52320000D01*
X78834075Y-52377007D01*
X78800000Y-52504174D01*
X78800000Y-52635826D01*
X78834075Y-52762993D01*
X78866988Y-52820000D01*
X77969364Y-52820000D01*
X78026567Y-53033486D01*
X78026570Y-53033492D01*
X78126399Y-53247578D01*
X78261894Y-53441082D01*
X78428917Y-53608105D01*
X78622421Y-53743600D01*
X78836507Y-53843429D01*
X78836516Y-53843433D01*
X79050000Y-53900634D01*
X79050000Y-53003012D01*
X79107007Y-53035925D01*
X79234174Y-53070000D01*
X79365826Y-53070000D01*
X79492993Y-53035925D01*
X79550000Y-53003012D01*
X79550000Y-53900633D01*
X79763483Y-53843433D01*
X79763492Y-53843429D01*
X79977578Y-53743600D01*
X80171082Y-53608105D01*
X80338105Y-53441082D01*
X80473600Y-53247578D01*
X80573429Y-53033492D01*
X80573432Y-53033486D01*
X80630636Y-52820000D01*
X79733012Y-52820000D01*
X79765925Y-52762993D01*
X79800000Y-52635826D01*
X79800000Y-52504174D01*
X79765925Y-52377007D01*
X79733012Y-52320000D01*
X80630636Y-52320000D01*
X80630635Y-52319999D01*
X80573432Y-52106513D01*
X80573429Y-52106507D01*
X80473600Y-51892422D01*
X80473599Y-51892420D01*
X80338113Y-51698926D01*
X80338108Y-51698920D01*
X80171078Y-51531890D01*
X79985405Y-51401879D01*
X79941780Y-51347302D01*
X79934588Y-51277804D01*
X79966110Y-51215449D01*
X79985406Y-51198730D01*
X80171401Y-51068495D01*
X80338495Y-50901401D01*
X80474035Y-50707830D01*
X80573903Y-50493663D01*
X80635063Y-50265408D01*
X80655659Y-50030000D01*
X80635063Y-49794592D01*
X80573903Y-49566337D01*
X80474035Y-49352171D01*
X80338495Y-49158599D01*
X80338494Y-49158597D01*
X80171402Y-48991506D01*
X80171396Y-48991501D01*
X79985842Y-48861575D01*
X79942217Y-48806998D01*
X79935023Y-48737500D01*
X79966546Y-48675145D01*
X79985842Y-48658425D01*
X80008026Y-48642891D01*
X80171401Y-48528495D01*
X80338495Y-48361401D01*
X80474035Y-48167830D01*
X80573903Y-47953663D01*
X80635063Y-47725408D01*
X80655659Y-47490000D01*
X80635063Y-47254592D01*
X80573903Y-47026337D01*
X80474035Y-46812171D01*
X80462489Y-46795682D01*
X80338496Y-46618600D01*
X80338495Y-46618599D01*
X80216567Y-46496671D01*
X80183084Y-46435351D01*
X80188068Y-46365659D01*
X80229939Y-46309725D01*
X80260915Y-46292810D01*
X80392331Y-46243796D01*
X80507546Y-46157546D01*
X80593796Y-46042331D01*
X80603991Y-46014996D01*
X90494435Y-46014996D01*
X90494435Y-46015003D01*
X90514630Y-46194249D01*
X90514631Y-46194254D01*
X90574211Y-46364523D01*
X90574925Y-46365659D01*
X90670184Y-46517262D01*
X90797738Y-46644816D01*
X90950478Y-46740789D01*
X90950480Y-46740789D01*
X90950484Y-46740792D01*
X90956756Y-46743813D01*
X90955869Y-46745653D01*
X90991937Y-46768305D01*
X91019315Y-46795683D01*
X91019315Y-46795682D01*
X91077470Y-46853838D01*
X91077924Y-46854263D01*
X91093671Y-46870011D01*
X91260467Y-46998000D01*
X91260479Y-46998009D01*
X91442569Y-47103143D01*
X91636823Y-47183613D01*
X91839918Y-47238040D01*
X92048380Y-47265495D01*
X92072823Y-47265495D01*
X92072889Y-47265500D01*
X92153511Y-47265500D01*
X92232392Y-47265504D01*
X92232397Y-47265502D01*
X92238786Y-47265503D01*
X92238863Y-47265500D01*
X96250028Y-47265500D01*
X96290983Y-47272458D01*
X96370745Y-47300368D01*
X96370750Y-47300369D01*
X96549996Y-47320565D01*
X96550000Y-47320565D01*
X96550004Y-47320565D01*
X96729249Y-47300369D01*
X96729252Y-47300368D01*
X96729255Y-47300368D01*
X96899522Y-47240789D01*
X97052262Y-47144816D01*
X97179816Y-47017262D01*
X97275789Y-46864522D01*
X97335368Y-46694255D01*
X97335369Y-46694249D01*
X97355565Y-46515003D01*
X97355565Y-46514996D01*
X97335369Y-46335750D01*
X97335368Y-46335745D01*
X97303194Y-46243797D01*
X97275789Y-46165478D01*
X97179816Y-46012738D01*
X97052262Y-45885184D01*
X96994031Y-45848595D01*
X96899523Y-45789211D01*
X96729254Y-45729631D01*
X96729249Y-45729630D01*
X96550004Y-45709435D01*
X96549996Y-45709435D01*
X96370750Y-45729630D01*
X96370745Y-45729631D01*
X96290983Y-45757542D01*
X96250028Y-45764500D01*
X92162230Y-45764500D01*
X92095191Y-45744815D01*
X92074549Y-45728181D01*
X92053307Y-45706939D01*
X92030653Y-45670869D01*
X92028813Y-45671756D01*
X92025792Y-45665484D01*
X92025789Y-45665480D01*
X92025789Y-45665478D01*
X91929816Y-45512738D01*
X91802262Y-45385184D01*
X91734966Y-45342899D01*
X97324500Y-45342899D01*
X97324500Y-45468101D01*
X97356905Y-45589036D01*
X97419505Y-45697464D01*
X97508036Y-45785995D01*
X97616464Y-45848595D01*
X97737399Y-45881000D01*
X97737401Y-45881000D01*
X97862599Y-45881000D01*
X97862601Y-45881000D01*
X97983536Y-45848595D01*
X98091964Y-45785995D01*
X98180495Y-45697464D01*
X98243095Y-45589036D01*
X98275500Y-45468101D01*
X98275500Y-45342899D01*
X98243095Y-45221964D01*
X98180495Y-45113536D01*
X98091964Y-45025005D01*
X97983536Y-44962405D01*
X97983537Y-44962405D01*
X97943224Y-44951603D01*
X97862601Y-44930000D01*
X97737399Y-44930000D01*
X97656775Y-44951603D01*
X97616463Y-44962405D01*
X97508037Y-45025004D01*
X97508034Y-45025006D01*
X97419506Y-45113534D01*
X97419504Y-45113537D01*
X97356905Y-45221963D01*
X97354850Y-45229632D01*
X97324500Y-45342899D01*
X91734966Y-45342899D01*
X91649523Y-45289211D01*
X91479254Y-45229631D01*
X91479249Y-45229630D01*
X91300004Y-45209435D01*
X91299996Y-45209435D01*
X91120750Y-45229630D01*
X91120745Y-45229631D01*
X90950476Y-45289211D01*
X90797737Y-45385184D01*
X90670184Y-45512737D01*
X90574211Y-45665476D01*
X90514631Y-45835745D01*
X90514630Y-45835750D01*
X90494435Y-46014996D01*
X80603991Y-46014996D01*
X80644091Y-45907483D01*
X80650500Y-45847873D01*
X80650499Y-44052128D01*
X80644091Y-43992517D01*
X80593796Y-43857669D01*
X80593795Y-43857668D01*
X80593793Y-43857664D01*
X80507547Y-43742455D01*
X80507544Y-43742452D01*
X80392335Y-43656206D01*
X80392328Y-43656202D01*
X80257482Y-43605908D01*
X80257483Y-43605908D01*
X80197883Y-43599501D01*
X80197881Y-43599500D01*
X80197873Y-43599500D01*
X80197864Y-43599500D01*
X78402129Y-43599500D01*
X78402123Y-43599501D01*
X78342516Y-43605908D01*
X78207671Y-43656202D01*
X78207664Y-43656206D01*
X78092455Y-43742452D01*
X78092452Y-43742455D01*
X78006206Y-43857664D01*
X78006202Y-43857671D01*
X77955908Y-43992517D01*
X77949501Y-44052116D01*
X77949501Y-44052123D01*
X77949500Y-44052135D01*
X77949500Y-45847870D01*
X77949501Y-45847876D01*
X77955908Y-45907483D01*
X78006202Y-46042328D01*
X78006206Y-46042335D01*
X78092452Y-46157544D01*
X78092455Y-46157547D01*
X78207664Y-46243793D01*
X78207671Y-46243797D01*
X78339081Y-46292810D01*
X78395015Y-46334681D01*
X78419432Y-46400145D01*
X78404580Y-46468418D01*
X78383430Y-46496673D01*
X78261503Y-46618600D01*
X78125965Y-46812169D01*
X78125964Y-46812171D01*
X78026098Y-47026335D01*
X78026094Y-47026344D01*
X77964938Y-47254586D01*
X77964936Y-47254596D01*
X77944341Y-47489999D01*
X77500500Y-47489999D01*
X77500500Y-43506960D01*
X77501280Y-43493076D01*
X77501282Y-43493059D01*
X77511459Y-43402732D01*
X77517637Y-43375667D01*
X77545353Y-43296456D01*
X77557396Y-43271450D01*
X77602046Y-43200389D01*
X77619351Y-43178690D01*
X77678690Y-43119351D01*
X77700389Y-43102046D01*
X77771450Y-43057396D01*
X77796456Y-43045353D01*
X77875670Y-43017635D01*
X77902733Y-43011459D01*
X77965326Y-43004407D01*
X77993080Y-43001280D01*
X78006963Y-43000500D01*
X78065893Y-43000500D01*
X98934108Y-43000500D01*
X98993041Y-43000500D01*
X99006923Y-43001280D01*
G37*
%TD.AperFunction*%
%TD*%
%TA.AperFunction,Conductor*%
%TO.N,Board_1-GND*%
G36*
X132006923Y-20501280D02*
G01*
X132023412Y-20503137D01*
X132097268Y-20511458D01*
X132124325Y-20517633D01*
X132203547Y-20545354D01*
X132228550Y-20557395D01*
X132299607Y-20602043D01*
X132321314Y-20619355D01*
X132380646Y-20678687D01*
X132397958Y-20700395D01*
X132442601Y-20771442D01*
X132454650Y-20796462D01*
X132482364Y-20875667D01*
X132488542Y-20902735D01*
X132498720Y-20993059D01*
X132499500Y-21006944D01*
X132499500Y-31493040D01*
X132498720Y-31506923D01*
X132488541Y-31597265D01*
X132482362Y-31624337D01*
X132454649Y-31703535D01*
X132442602Y-31728552D01*
X132397957Y-31799604D01*
X132380644Y-31821313D01*
X132321313Y-31880644D01*
X132299604Y-31897957D01*
X132228552Y-31942602D01*
X132203535Y-31954649D01*
X132124337Y-31982362D01*
X132097266Y-31988541D01*
X132032898Y-31995793D01*
X132006922Y-31998720D01*
X131993041Y-31999500D01*
X111006963Y-31999500D01*
X110993079Y-31998720D01*
X110980554Y-31997308D01*
X110902736Y-31988540D01*
X110875667Y-31982362D01*
X110796463Y-31954648D01*
X110771444Y-31942599D01*
X110700398Y-31897957D01*
X110678690Y-31880645D01*
X110619356Y-31821311D01*
X110602043Y-31799602D01*
X110557399Y-31728552D01*
X110545354Y-31703539D01*
X110517637Y-31624331D01*
X110511462Y-31597277D01*
X110501278Y-31506892D01*
X110500500Y-31493020D01*
X110500500Y-24989999D01*
X110944341Y-24989999D01*
X110944341Y-24990000D01*
X110964936Y-25225403D01*
X110964938Y-25225413D01*
X111026094Y-25453655D01*
X111026096Y-25453659D01*
X111026097Y-25453663D01*
X111125965Y-25667830D01*
X111125967Y-25667834D01*
X111261501Y-25861395D01*
X111261506Y-25861402D01*
X111428597Y-26028493D01*
X111428603Y-26028498D01*
X111614158Y-26158425D01*
X111657783Y-26213002D01*
X111664977Y-26282500D01*
X111633454Y-26344855D01*
X111614158Y-26361575D01*
X111428597Y-26491505D01*
X111261505Y-26658597D01*
X111125965Y-26852169D01*
X111125964Y-26852171D01*
X111026098Y-27066335D01*
X111026094Y-27066344D01*
X110964938Y-27294586D01*
X110964936Y-27294596D01*
X110944341Y-27529999D01*
X110944341Y-27530000D01*
X110964936Y-27765403D01*
X110964938Y-27765413D01*
X111026094Y-27993655D01*
X111026096Y-27993659D01*
X111026097Y-27993663D01*
X111125965Y-28207830D01*
X111125967Y-28207834D01*
X111261501Y-28401395D01*
X111261506Y-28401402D01*
X111428597Y-28568493D01*
X111428603Y-28568498D01*
X111614594Y-28698730D01*
X111658219Y-28753307D01*
X111665413Y-28822805D01*
X111633890Y-28885160D01*
X111614595Y-28901880D01*
X111428922Y-29031890D01*
X111428920Y-29031891D01*
X111261891Y-29198920D01*
X111261886Y-29198926D01*
X111126400Y-29392420D01*
X111126399Y-29392422D01*
X111026570Y-29606507D01*
X111026567Y-29606513D01*
X110969364Y-29819999D01*
X110969364Y-29820000D01*
X111866988Y-29820000D01*
X111834075Y-29877007D01*
X111800000Y-30004174D01*
X111800000Y-30135826D01*
X111834075Y-30262993D01*
X111866988Y-30320000D01*
X110969364Y-30320000D01*
X111026567Y-30533486D01*
X111026570Y-30533492D01*
X111126399Y-30747578D01*
X111261894Y-30941082D01*
X111428917Y-31108105D01*
X111622421Y-31243600D01*
X111836507Y-31343429D01*
X111836516Y-31343433D01*
X112050000Y-31400634D01*
X112050000Y-30503012D01*
X112107007Y-30535925D01*
X112234174Y-30570000D01*
X112365826Y-30570000D01*
X112492993Y-30535925D01*
X112550000Y-30503012D01*
X112550000Y-31400633D01*
X112763483Y-31343433D01*
X112763492Y-31343429D01*
X112977578Y-31243600D01*
X113171082Y-31108105D01*
X113338105Y-30941082D01*
X113473600Y-30747578D01*
X113573429Y-30533492D01*
X113573432Y-30533486D01*
X113630636Y-30320000D01*
X112733012Y-30320000D01*
X112765925Y-30262993D01*
X112800000Y-30135826D01*
X112800000Y-30004174D01*
X112765925Y-29877007D01*
X112733012Y-29820000D01*
X113630636Y-29820000D01*
X113630635Y-29819999D01*
X113573432Y-29606513D01*
X113573429Y-29606507D01*
X113473600Y-29392422D01*
X113473599Y-29392420D01*
X113338113Y-29198926D01*
X113338108Y-29198920D01*
X113171078Y-29031890D01*
X112985405Y-28901879D01*
X112941780Y-28847302D01*
X112934588Y-28777804D01*
X112966110Y-28715449D01*
X112985406Y-28698730D01*
X113171401Y-28568495D01*
X113338495Y-28401401D01*
X113474035Y-28207830D01*
X113573903Y-27993663D01*
X113635063Y-27765408D01*
X113655659Y-27530000D01*
X113635063Y-27294592D01*
X113573903Y-27066337D01*
X113474035Y-26852171D01*
X113338495Y-26658599D01*
X113338494Y-26658597D01*
X113171402Y-26491506D01*
X113171396Y-26491501D01*
X112985842Y-26361575D01*
X112942217Y-26306998D01*
X112935023Y-26237500D01*
X112966546Y-26175145D01*
X112985842Y-26158425D01*
X113008026Y-26142891D01*
X113171401Y-26028495D01*
X113338495Y-25861401D01*
X113474035Y-25667830D01*
X113573903Y-25453663D01*
X113635063Y-25225408D01*
X113655659Y-24990000D01*
X113635063Y-24754592D01*
X113573903Y-24526337D01*
X113474035Y-24312171D01*
X113462489Y-24295682D01*
X113338496Y-24118600D01*
X113338495Y-24118599D01*
X113216567Y-23996671D01*
X113183084Y-23935351D01*
X113188068Y-23865659D01*
X113229939Y-23809725D01*
X113260915Y-23792810D01*
X113392331Y-23743796D01*
X113507546Y-23657546D01*
X113593796Y-23542331D01*
X113603991Y-23514996D01*
X123494435Y-23514996D01*
X123494435Y-23515003D01*
X123514630Y-23694249D01*
X123514631Y-23694254D01*
X123574211Y-23864523D01*
X123574925Y-23865659D01*
X123670184Y-24017262D01*
X123797738Y-24144816D01*
X123950478Y-24240789D01*
X123950480Y-24240789D01*
X123950484Y-24240792D01*
X123956756Y-24243813D01*
X123955869Y-24245653D01*
X123991937Y-24268305D01*
X124019315Y-24295683D01*
X124019315Y-24295682D01*
X124077470Y-24353838D01*
X124077924Y-24354263D01*
X124093671Y-24370011D01*
X124260467Y-24498000D01*
X124260479Y-24498009D01*
X124442569Y-24603143D01*
X124636823Y-24683613D01*
X124839918Y-24738040D01*
X125048380Y-24765495D01*
X125072823Y-24765495D01*
X125072889Y-24765500D01*
X125153511Y-24765500D01*
X125232392Y-24765504D01*
X125232397Y-24765502D01*
X125238786Y-24765503D01*
X125238863Y-24765500D01*
X129250028Y-24765500D01*
X129290983Y-24772458D01*
X129370745Y-24800368D01*
X129370750Y-24800369D01*
X129549996Y-24820565D01*
X129550000Y-24820565D01*
X129550004Y-24820565D01*
X129729249Y-24800369D01*
X129729252Y-24800368D01*
X129729255Y-24800368D01*
X129899522Y-24740789D01*
X130052262Y-24644816D01*
X130179816Y-24517262D01*
X130275789Y-24364522D01*
X130335368Y-24194255D01*
X130335369Y-24194249D01*
X130355565Y-24015003D01*
X130355565Y-24014996D01*
X130335369Y-23835750D01*
X130335368Y-23835745D01*
X130303194Y-23743797D01*
X130275789Y-23665478D01*
X130179816Y-23512738D01*
X130052262Y-23385184D01*
X129994031Y-23348595D01*
X129899523Y-23289211D01*
X129729254Y-23229631D01*
X129729249Y-23229630D01*
X129550004Y-23209435D01*
X129549996Y-23209435D01*
X129370750Y-23229630D01*
X129370745Y-23229631D01*
X129290983Y-23257542D01*
X129250028Y-23264500D01*
X125162230Y-23264500D01*
X125095191Y-23244815D01*
X125074549Y-23228181D01*
X125053307Y-23206939D01*
X125030653Y-23170869D01*
X125028813Y-23171756D01*
X125025792Y-23165484D01*
X125025789Y-23165480D01*
X125025789Y-23165478D01*
X124929816Y-23012738D01*
X124802262Y-22885184D01*
X124734966Y-22842899D01*
X130324500Y-22842899D01*
X130324500Y-22968101D01*
X130356905Y-23089036D01*
X130419505Y-23197464D01*
X130508036Y-23285995D01*
X130616464Y-23348595D01*
X130737399Y-23381000D01*
X130737401Y-23381000D01*
X130862599Y-23381000D01*
X130862601Y-23381000D01*
X130983536Y-23348595D01*
X131091964Y-23285995D01*
X131180495Y-23197464D01*
X131243095Y-23089036D01*
X131275500Y-22968101D01*
X131275500Y-22842899D01*
X131243095Y-22721964D01*
X131180495Y-22613536D01*
X131091964Y-22525005D01*
X130983536Y-22462405D01*
X130983537Y-22462405D01*
X130943224Y-22451603D01*
X130862601Y-22430000D01*
X130737399Y-22430000D01*
X130656775Y-22451603D01*
X130616463Y-22462405D01*
X130508037Y-22525004D01*
X130508034Y-22525006D01*
X130419506Y-22613534D01*
X130419504Y-22613537D01*
X130356905Y-22721963D01*
X130354850Y-22729632D01*
X130324500Y-22842899D01*
X124734966Y-22842899D01*
X124649523Y-22789211D01*
X124479254Y-22729631D01*
X124479249Y-22729630D01*
X124300004Y-22709435D01*
X124299996Y-22709435D01*
X124120750Y-22729630D01*
X124120745Y-22729631D01*
X123950476Y-22789211D01*
X123797737Y-22885184D01*
X123670184Y-23012737D01*
X123574211Y-23165476D01*
X123514631Y-23335745D01*
X123514630Y-23335750D01*
X123494435Y-23514996D01*
X113603991Y-23514996D01*
X113644091Y-23407483D01*
X113650500Y-23347873D01*
X113650499Y-21552128D01*
X113644091Y-21492517D01*
X113593796Y-21357669D01*
X113593795Y-21357668D01*
X113593793Y-21357664D01*
X113507547Y-21242455D01*
X113507544Y-21242452D01*
X113392335Y-21156206D01*
X113392328Y-21156202D01*
X113257482Y-21105908D01*
X113257483Y-21105908D01*
X113197883Y-21099501D01*
X113197881Y-21099500D01*
X113197873Y-21099500D01*
X113197864Y-21099500D01*
X111402129Y-21099500D01*
X111402123Y-21099501D01*
X111342516Y-21105908D01*
X111207671Y-21156202D01*
X111207664Y-21156206D01*
X111092455Y-21242452D01*
X111092452Y-21242455D01*
X111006206Y-21357664D01*
X111006202Y-21357671D01*
X110955908Y-21492517D01*
X110949501Y-21552116D01*
X110949501Y-21552123D01*
X110949500Y-21552135D01*
X110949500Y-23347870D01*
X110949501Y-23347876D01*
X110955908Y-23407483D01*
X111006202Y-23542328D01*
X111006206Y-23542335D01*
X111092452Y-23657544D01*
X111092455Y-23657547D01*
X111207664Y-23743793D01*
X111207671Y-23743797D01*
X111339081Y-23792810D01*
X111395015Y-23834681D01*
X111419432Y-23900145D01*
X111404580Y-23968418D01*
X111383430Y-23996673D01*
X111261503Y-24118600D01*
X111125965Y-24312169D01*
X111125964Y-24312171D01*
X111026098Y-24526335D01*
X111026094Y-24526344D01*
X110964938Y-24754586D01*
X110964936Y-24754596D01*
X110944341Y-24989999D01*
X110500500Y-24989999D01*
X110500500Y-21006960D01*
X110501280Y-20993076D01*
X110501282Y-20993059D01*
X110511459Y-20902732D01*
X110517637Y-20875667D01*
X110545353Y-20796456D01*
X110557396Y-20771450D01*
X110602046Y-20700389D01*
X110619351Y-20678690D01*
X110678690Y-20619351D01*
X110700389Y-20602046D01*
X110771450Y-20557396D01*
X110796456Y-20545353D01*
X110875670Y-20517635D01*
X110902733Y-20511459D01*
X110965326Y-20504407D01*
X110993080Y-20501280D01*
X111006963Y-20500500D01*
X111065893Y-20500500D01*
X131934108Y-20500500D01*
X131993041Y-20500500D01*
X132006923Y-20501280D01*
G37*
%TD.AperFunction*%
%TD*%
M02*
