%TF.GenerationSoftware,KiCad,Pcbnew,8.0.8-8.0.8-0~ubuntu24.04.1*%
%TF.CreationDate,2025-02-18T02:43:16+01:00*%
%TF.ProjectId,SPU0410LR5H_panel,53505530-3431-4304-9c52-35485f70616e,rev?*%
%TF.SameCoordinates,Original*%
%TF.FileFunction,Legend,Top*%
%TF.FilePolarity,Positive*%
%FSLAX46Y46*%
G04 Gerber Fmt 4.6, Leading zero omitted, Abs format (unit mm)*
G04 Created by KiCad (PCBNEW 8.0.8-8.0.8-0~ubuntu24.04.1) date 2025-02-18 02:43:16*
%MOMM*%
%LPD*%
G01*
G04 APERTURE LIST*
%ADD10C,0.150000*%
%ADD11C,0.080000*%
%ADD12C,0.120000*%
%ADD13C,0.127000*%
G04 APERTURE END LIST*
D10*
X117754819Y-23766666D02*
X117278628Y-24099999D01*
X117754819Y-24338094D02*
X116754819Y-24338094D01*
X116754819Y-24338094D02*
X116754819Y-23957142D01*
X116754819Y-23957142D02*
X116802438Y-23861904D01*
X116802438Y-23861904D02*
X116850057Y-23814285D01*
X116850057Y-23814285D02*
X116945295Y-23766666D01*
X116945295Y-23766666D02*
X117088152Y-23766666D01*
X117088152Y-23766666D02*
X117183390Y-23814285D01*
X117183390Y-23814285D02*
X117231009Y-23861904D01*
X117231009Y-23861904D02*
X117278628Y-23957142D01*
X117278628Y-23957142D02*
X117278628Y-24338094D01*
X117754819Y-22814285D02*
X117754819Y-23385713D01*
X117754819Y-23099999D02*
X116754819Y-23099999D01*
X116754819Y-23099999D02*
X116897676Y-23195237D01*
X116897676Y-23195237D02*
X116992914Y-23290475D01*
X116992914Y-23290475D02*
X117040533Y-23385713D01*
X127633333Y-30854819D02*
X127300000Y-30378628D01*
X127061905Y-30854819D02*
X127061905Y-29854819D01*
X127061905Y-29854819D02*
X127442857Y-29854819D01*
X127442857Y-29854819D02*
X127538095Y-29902438D01*
X127538095Y-29902438D02*
X127585714Y-29950057D01*
X127585714Y-29950057D02*
X127633333Y-30045295D01*
X127633333Y-30045295D02*
X127633333Y-30188152D01*
X127633333Y-30188152D02*
X127585714Y-30283390D01*
X127585714Y-30283390D02*
X127538095Y-30331009D01*
X127538095Y-30331009D02*
X127442857Y-30378628D01*
X127442857Y-30378628D02*
X127061905Y-30378628D01*
X127966667Y-29854819D02*
X128585714Y-29854819D01*
X128585714Y-29854819D02*
X128252381Y-30235771D01*
X128252381Y-30235771D02*
X128395238Y-30235771D01*
X128395238Y-30235771D02*
X128490476Y-30283390D01*
X128490476Y-30283390D02*
X128538095Y-30331009D01*
X128538095Y-30331009D02*
X128585714Y-30426247D01*
X128585714Y-30426247D02*
X128585714Y-30664342D01*
X128585714Y-30664342D02*
X128538095Y-30759580D01*
X128538095Y-30759580D02*
X128490476Y-30807200D01*
X128490476Y-30807200D02*
X128395238Y-30854819D01*
X128395238Y-30854819D02*
X128109524Y-30854819D01*
X128109524Y-30854819D02*
X128014286Y-30807200D01*
X128014286Y-30807200D02*
X127966667Y-30759580D01*
X117633333Y-52659580D02*
X117585714Y-52707200D01*
X117585714Y-52707200D02*
X117442857Y-52754819D01*
X117442857Y-52754819D02*
X117347619Y-52754819D01*
X117347619Y-52754819D02*
X117204762Y-52707200D01*
X117204762Y-52707200D02*
X117109524Y-52611961D01*
X117109524Y-52611961D02*
X117061905Y-52516723D01*
X117061905Y-52516723D02*
X117014286Y-52326247D01*
X117014286Y-52326247D02*
X117014286Y-52183390D01*
X117014286Y-52183390D02*
X117061905Y-51992914D01*
X117061905Y-51992914D02*
X117109524Y-51897676D01*
X117109524Y-51897676D02*
X117204762Y-51802438D01*
X117204762Y-51802438D02*
X117347619Y-51754819D01*
X117347619Y-51754819D02*
X117442857Y-51754819D01*
X117442857Y-51754819D02*
X117585714Y-51802438D01*
X117585714Y-51802438D02*
X117633333Y-51850057D01*
X118014286Y-51850057D02*
X118061905Y-51802438D01*
X118061905Y-51802438D02*
X118157143Y-51754819D01*
X118157143Y-51754819D02*
X118395238Y-51754819D01*
X118395238Y-51754819D02*
X118490476Y-51802438D01*
X118490476Y-51802438D02*
X118538095Y-51850057D01*
X118538095Y-51850057D02*
X118585714Y-51945295D01*
X118585714Y-51945295D02*
X118585714Y-52040533D01*
X118585714Y-52040533D02*
X118538095Y-52183390D01*
X118538095Y-52183390D02*
X117966667Y-52754819D01*
X117966667Y-52754819D02*
X118585714Y-52754819D01*
X96966666Y-53394819D02*
X96966666Y-54109104D01*
X96966666Y-54109104D02*
X96919047Y-54251961D01*
X96919047Y-54251961D02*
X96823809Y-54347200D01*
X96823809Y-54347200D02*
X96680952Y-54394819D01*
X96680952Y-54394819D02*
X96585714Y-54394819D01*
X97442857Y-54394819D02*
X97442857Y-53394819D01*
X97442857Y-53394819D02*
X97823809Y-53394819D01*
X97823809Y-53394819D02*
X97919047Y-53442438D01*
X97919047Y-53442438D02*
X97966666Y-53490057D01*
X97966666Y-53490057D02*
X98014285Y-53585295D01*
X98014285Y-53585295D02*
X98014285Y-53728152D01*
X98014285Y-53728152D02*
X97966666Y-53823390D01*
X97966666Y-53823390D02*
X97919047Y-53871009D01*
X97919047Y-53871009D02*
X97823809Y-53918628D01*
X97823809Y-53918628D02*
X97442857Y-53918628D01*
X98966666Y-54394819D02*
X98395238Y-54394819D01*
X98680952Y-54394819D02*
X98680952Y-53394819D01*
X98680952Y-53394819D02*
X98585714Y-53537676D01*
X98585714Y-53537676D02*
X98490476Y-53632914D01*
X98490476Y-53632914D02*
X98395238Y-53680533D01*
X84633333Y-52659580D02*
X84585714Y-52707200D01*
X84585714Y-52707200D02*
X84442857Y-52754819D01*
X84442857Y-52754819D02*
X84347619Y-52754819D01*
X84347619Y-52754819D02*
X84204762Y-52707200D01*
X84204762Y-52707200D02*
X84109524Y-52611961D01*
X84109524Y-52611961D02*
X84061905Y-52516723D01*
X84061905Y-52516723D02*
X84014286Y-52326247D01*
X84014286Y-52326247D02*
X84014286Y-52183390D01*
X84014286Y-52183390D02*
X84061905Y-51992914D01*
X84061905Y-51992914D02*
X84109524Y-51897676D01*
X84109524Y-51897676D02*
X84204762Y-51802438D01*
X84204762Y-51802438D02*
X84347619Y-51754819D01*
X84347619Y-51754819D02*
X84442857Y-51754819D01*
X84442857Y-51754819D02*
X84585714Y-51802438D01*
X84585714Y-51802438D02*
X84633333Y-51850057D01*
X85014286Y-51850057D02*
X85061905Y-51802438D01*
X85061905Y-51802438D02*
X85157143Y-51754819D01*
X85157143Y-51754819D02*
X85395238Y-51754819D01*
X85395238Y-51754819D02*
X85490476Y-51802438D01*
X85490476Y-51802438D02*
X85538095Y-51850057D01*
X85538095Y-51850057D02*
X85585714Y-51945295D01*
X85585714Y-51945295D02*
X85585714Y-52040533D01*
X85585714Y-52040533D02*
X85538095Y-52183390D01*
X85538095Y-52183390D02*
X84966667Y-52754819D01*
X84966667Y-52754819D02*
X85585714Y-52754819D01*
D11*
X131656190Y-43523878D02*
X131656190Y-43782925D01*
X131656190Y-43782925D02*
X131671428Y-43813401D01*
X131671428Y-43813401D02*
X131686666Y-43828640D01*
X131686666Y-43828640D02*
X131717142Y-43843878D01*
X131717142Y-43843878D02*
X131778095Y-43843878D01*
X131778095Y-43843878D02*
X131808571Y-43828640D01*
X131808571Y-43828640D02*
X131823809Y-43813401D01*
X131823809Y-43813401D02*
X131839047Y-43782925D01*
X131839047Y-43782925D02*
X131839047Y-43523878D01*
X131976190Y-43554354D02*
X131991428Y-43539116D01*
X131991428Y-43539116D02*
X132021904Y-43523878D01*
X132021904Y-43523878D02*
X132098095Y-43523878D01*
X132098095Y-43523878D02*
X132128571Y-43539116D01*
X132128571Y-43539116D02*
X132143809Y-43554354D01*
X132143809Y-43554354D02*
X132159047Y-43584830D01*
X132159047Y-43584830D02*
X132159047Y-43615306D01*
X132159047Y-43615306D02*
X132143809Y-43661020D01*
X132143809Y-43661020D02*
X131960952Y-43843878D01*
X131960952Y-43843878D02*
X132159047Y-43843878D01*
D10*
X94633333Y-53354819D02*
X94300000Y-52878628D01*
X94061905Y-53354819D02*
X94061905Y-52354819D01*
X94061905Y-52354819D02*
X94442857Y-52354819D01*
X94442857Y-52354819D02*
X94538095Y-52402438D01*
X94538095Y-52402438D02*
X94585714Y-52450057D01*
X94585714Y-52450057D02*
X94633333Y-52545295D01*
X94633333Y-52545295D02*
X94633333Y-52688152D01*
X94633333Y-52688152D02*
X94585714Y-52783390D01*
X94585714Y-52783390D02*
X94538095Y-52831009D01*
X94538095Y-52831009D02*
X94442857Y-52878628D01*
X94442857Y-52878628D02*
X94061905Y-52878628D01*
X94966667Y-52354819D02*
X95585714Y-52354819D01*
X95585714Y-52354819D02*
X95252381Y-52735771D01*
X95252381Y-52735771D02*
X95395238Y-52735771D01*
X95395238Y-52735771D02*
X95490476Y-52783390D01*
X95490476Y-52783390D02*
X95538095Y-52831009D01*
X95538095Y-52831009D02*
X95585714Y-52926247D01*
X95585714Y-52926247D02*
X95585714Y-53164342D01*
X95585714Y-53164342D02*
X95538095Y-53259580D01*
X95538095Y-53259580D02*
X95490476Y-53307200D01*
X95490476Y-53307200D02*
X95395238Y-53354819D01*
X95395238Y-53354819D02*
X95109524Y-53354819D01*
X95109524Y-53354819D02*
X95014286Y-53307200D01*
X95014286Y-53307200D02*
X94966667Y-53259580D01*
X120533333Y-30679819D02*
X120200000Y-30203628D01*
X119961905Y-30679819D02*
X119961905Y-29679819D01*
X119961905Y-29679819D02*
X120342857Y-29679819D01*
X120342857Y-29679819D02*
X120438095Y-29727438D01*
X120438095Y-29727438D02*
X120485714Y-29775057D01*
X120485714Y-29775057D02*
X120533333Y-29870295D01*
X120533333Y-29870295D02*
X120533333Y-30013152D01*
X120533333Y-30013152D02*
X120485714Y-30108390D01*
X120485714Y-30108390D02*
X120438095Y-30156009D01*
X120438095Y-30156009D02*
X120342857Y-30203628D01*
X120342857Y-30203628D02*
X119961905Y-30203628D01*
X121390476Y-30013152D02*
X121390476Y-30679819D01*
X121152381Y-29632200D02*
X120914286Y-30346485D01*
X120914286Y-30346485D02*
X121533333Y-30346485D01*
D11*
X98656190Y-43523878D02*
X98656190Y-43782925D01*
X98656190Y-43782925D02*
X98671428Y-43813401D01*
X98671428Y-43813401D02*
X98686666Y-43828640D01*
X98686666Y-43828640D02*
X98717142Y-43843878D01*
X98717142Y-43843878D02*
X98778095Y-43843878D01*
X98778095Y-43843878D02*
X98808571Y-43828640D01*
X98808571Y-43828640D02*
X98823809Y-43813401D01*
X98823809Y-43813401D02*
X98839047Y-43782925D01*
X98839047Y-43782925D02*
X98839047Y-43523878D01*
X98976190Y-43554354D02*
X98991428Y-43539116D01*
X98991428Y-43539116D02*
X99021904Y-43523878D01*
X99021904Y-43523878D02*
X99098095Y-43523878D01*
X99098095Y-43523878D02*
X99128571Y-43539116D01*
X99128571Y-43539116D02*
X99143809Y-43554354D01*
X99143809Y-43554354D02*
X99159047Y-43584830D01*
X99159047Y-43584830D02*
X99159047Y-43615306D01*
X99159047Y-43615306D02*
X99143809Y-43661020D01*
X99143809Y-43661020D02*
X98960952Y-43843878D01*
X98960952Y-43843878D02*
X99159047Y-43843878D01*
D10*
X129966666Y-30894819D02*
X129966666Y-31609104D01*
X129966666Y-31609104D02*
X129919047Y-31751961D01*
X129919047Y-31751961D02*
X129823809Y-31847200D01*
X129823809Y-31847200D02*
X129680952Y-31894819D01*
X129680952Y-31894819D02*
X129585714Y-31894819D01*
X130442857Y-31894819D02*
X130442857Y-30894819D01*
X130442857Y-30894819D02*
X130823809Y-30894819D01*
X130823809Y-30894819D02*
X130919047Y-30942438D01*
X130919047Y-30942438D02*
X130966666Y-30990057D01*
X130966666Y-30990057D02*
X131014285Y-31085295D01*
X131014285Y-31085295D02*
X131014285Y-31228152D01*
X131014285Y-31228152D02*
X130966666Y-31323390D01*
X130966666Y-31323390D02*
X130919047Y-31371009D01*
X130919047Y-31371009D02*
X130823809Y-31418628D01*
X130823809Y-31418628D02*
X130442857Y-31418628D01*
X131966666Y-31894819D02*
X131395238Y-31894819D01*
X131680952Y-31894819D02*
X131680952Y-30894819D01*
X131680952Y-30894819D02*
X131585714Y-31037676D01*
X131585714Y-31037676D02*
X131490476Y-31132914D01*
X131490476Y-31132914D02*
X131395238Y-31180533D01*
X115383333Y-30237319D02*
X115050000Y-29761128D01*
X114811905Y-30237319D02*
X114811905Y-29237319D01*
X114811905Y-29237319D02*
X115192857Y-29237319D01*
X115192857Y-29237319D02*
X115288095Y-29284938D01*
X115288095Y-29284938D02*
X115335714Y-29332557D01*
X115335714Y-29332557D02*
X115383333Y-29427795D01*
X115383333Y-29427795D02*
X115383333Y-29570652D01*
X115383333Y-29570652D02*
X115335714Y-29665890D01*
X115335714Y-29665890D02*
X115288095Y-29713509D01*
X115288095Y-29713509D02*
X115192857Y-29761128D01*
X115192857Y-29761128D02*
X114811905Y-29761128D01*
X115764286Y-29332557D02*
X115811905Y-29284938D01*
X115811905Y-29284938D02*
X115907143Y-29237319D01*
X115907143Y-29237319D02*
X116145238Y-29237319D01*
X116145238Y-29237319D02*
X116240476Y-29284938D01*
X116240476Y-29284938D02*
X116288095Y-29332557D01*
X116288095Y-29332557D02*
X116335714Y-29427795D01*
X116335714Y-29427795D02*
X116335714Y-29523033D01*
X116335714Y-29523033D02*
X116288095Y-29665890D01*
X116288095Y-29665890D02*
X115716667Y-30237319D01*
X115716667Y-30237319D02*
X116335714Y-30237319D01*
X127533333Y-44554819D02*
X127200000Y-44078628D01*
X126961905Y-44554819D02*
X126961905Y-43554819D01*
X126961905Y-43554819D02*
X127342857Y-43554819D01*
X127342857Y-43554819D02*
X127438095Y-43602438D01*
X127438095Y-43602438D02*
X127485714Y-43650057D01*
X127485714Y-43650057D02*
X127533333Y-43745295D01*
X127533333Y-43745295D02*
X127533333Y-43888152D01*
X127533333Y-43888152D02*
X127485714Y-43983390D01*
X127485714Y-43983390D02*
X127438095Y-44031009D01*
X127438095Y-44031009D02*
X127342857Y-44078628D01*
X127342857Y-44078628D02*
X126961905Y-44078628D01*
X128438095Y-43554819D02*
X127961905Y-43554819D01*
X127961905Y-43554819D02*
X127914286Y-44031009D01*
X127914286Y-44031009D02*
X127961905Y-43983390D01*
X127961905Y-43983390D02*
X128057143Y-43935771D01*
X128057143Y-43935771D02*
X128295238Y-43935771D01*
X128295238Y-43935771D02*
X128390476Y-43983390D01*
X128390476Y-43983390D02*
X128438095Y-44031009D01*
X128438095Y-44031009D02*
X128485714Y-44126247D01*
X128485714Y-44126247D02*
X128485714Y-44364342D01*
X128485714Y-44364342D02*
X128438095Y-44459580D01*
X128438095Y-44459580D02*
X128390476Y-44507200D01*
X128390476Y-44507200D02*
X128295238Y-44554819D01*
X128295238Y-44554819D02*
X128057143Y-44554819D01*
X128057143Y-44554819D02*
X127961905Y-44507200D01*
X127961905Y-44507200D02*
X127914286Y-44459580D01*
X87533333Y-53179819D02*
X87200000Y-52703628D01*
X86961905Y-53179819D02*
X86961905Y-52179819D01*
X86961905Y-52179819D02*
X87342857Y-52179819D01*
X87342857Y-52179819D02*
X87438095Y-52227438D01*
X87438095Y-52227438D02*
X87485714Y-52275057D01*
X87485714Y-52275057D02*
X87533333Y-52370295D01*
X87533333Y-52370295D02*
X87533333Y-52513152D01*
X87533333Y-52513152D02*
X87485714Y-52608390D01*
X87485714Y-52608390D02*
X87438095Y-52656009D01*
X87438095Y-52656009D02*
X87342857Y-52703628D01*
X87342857Y-52703628D02*
X86961905Y-52703628D01*
X88390476Y-52513152D02*
X88390476Y-53179819D01*
X88152381Y-52132200D02*
X87914286Y-52846485D01*
X87914286Y-52846485D02*
X88533333Y-52846485D01*
X115383333Y-52737319D02*
X115050000Y-52261128D01*
X114811905Y-52737319D02*
X114811905Y-51737319D01*
X114811905Y-51737319D02*
X115192857Y-51737319D01*
X115192857Y-51737319D02*
X115288095Y-51784938D01*
X115288095Y-51784938D02*
X115335714Y-51832557D01*
X115335714Y-51832557D02*
X115383333Y-51927795D01*
X115383333Y-51927795D02*
X115383333Y-52070652D01*
X115383333Y-52070652D02*
X115335714Y-52165890D01*
X115335714Y-52165890D02*
X115288095Y-52213509D01*
X115288095Y-52213509D02*
X115192857Y-52261128D01*
X115192857Y-52261128D02*
X114811905Y-52261128D01*
X115764286Y-51832557D02*
X115811905Y-51784938D01*
X115811905Y-51784938D02*
X115907143Y-51737319D01*
X115907143Y-51737319D02*
X116145238Y-51737319D01*
X116145238Y-51737319D02*
X116240476Y-51784938D01*
X116240476Y-51784938D02*
X116288095Y-51832557D01*
X116288095Y-51832557D02*
X116335714Y-51927795D01*
X116335714Y-51927795D02*
X116335714Y-52023033D01*
X116335714Y-52023033D02*
X116288095Y-52165890D01*
X116288095Y-52165890D02*
X115716667Y-52737319D01*
X115716667Y-52737319D02*
X116335714Y-52737319D01*
X122138095Y-25654819D02*
X122138095Y-26464342D01*
X122138095Y-26464342D02*
X122185714Y-26559580D01*
X122185714Y-26559580D02*
X122233333Y-26607200D01*
X122233333Y-26607200D02*
X122328571Y-26654819D01*
X122328571Y-26654819D02*
X122519047Y-26654819D01*
X122519047Y-26654819D02*
X122614285Y-26607200D01*
X122614285Y-26607200D02*
X122661904Y-26559580D01*
X122661904Y-26559580D02*
X122709523Y-26464342D01*
X122709523Y-26464342D02*
X122709523Y-25654819D01*
X123709523Y-26654819D02*
X123138095Y-26654819D01*
X123423809Y-26654819D02*
X123423809Y-25654819D01*
X123423809Y-25654819D02*
X123328571Y-25797676D01*
X123328571Y-25797676D02*
X123233333Y-25892914D01*
X123233333Y-25892914D02*
X123138095Y-25940533D01*
X94533333Y-22054819D02*
X94200000Y-21578628D01*
X93961905Y-22054819D02*
X93961905Y-21054819D01*
X93961905Y-21054819D02*
X94342857Y-21054819D01*
X94342857Y-21054819D02*
X94438095Y-21102438D01*
X94438095Y-21102438D02*
X94485714Y-21150057D01*
X94485714Y-21150057D02*
X94533333Y-21245295D01*
X94533333Y-21245295D02*
X94533333Y-21388152D01*
X94533333Y-21388152D02*
X94485714Y-21483390D01*
X94485714Y-21483390D02*
X94438095Y-21531009D01*
X94438095Y-21531009D02*
X94342857Y-21578628D01*
X94342857Y-21578628D02*
X93961905Y-21578628D01*
X95438095Y-21054819D02*
X94961905Y-21054819D01*
X94961905Y-21054819D02*
X94914286Y-21531009D01*
X94914286Y-21531009D02*
X94961905Y-21483390D01*
X94961905Y-21483390D02*
X95057143Y-21435771D01*
X95057143Y-21435771D02*
X95295238Y-21435771D01*
X95295238Y-21435771D02*
X95390476Y-21483390D01*
X95390476Y-21483390D02*
X95438095Y-21531009D01*
X95438095Y-21531009D02*
X95485714Y-21626247D01*
X95485714Y-21626247D02*
X95485714Y-21864342D01*
X95485714Y-21864342D02*
X95438095Y-21959580D01*
X95438095Y-21959580D02*
X95390476Y-22007200D01*
X95390476Y-22007200D02*
X95295238Y-22054819D01*
X95295238Y-22054819D02*
X95057143Y-22054819D01*
X95057143Y-22054819D02*
X94961905Y-22007200D01*
X94961905Y-22007200D02*
X94914286Y-21959580D01*
X88333333Y-45124580D02*
X88285714Y-45172200D01*
X88285714Y-45172200D02*
X88142857Y-45219819D01*
X88142857Y-45219819D02*
X88047619Y-45219819D01*
X88047619Y-45219819D02*
X87904762Y-45172200D01*
X87904762Y-45172200D02*
X87809524Y-45076961D01*
X87809524Y-45076961D02*
X87761905Y-44981723D01*
X87761905Y-44981723D02*
X87714286Y-44791247D01*
X87714286Y-44791247D02*
X87714286Y-44648390D01*
X87714286Y-44648390D02*
X87761905Y-44457914D01*
X87761905Y-44457914D02*
X87809524Y-44362676D01*
X87809524Y-44362676D02*
X87904762Y-44267438D01*
X87904762Y-44267438D02*
X88047619Y-44219819D01*
X88047619Y-44219819D02*
X88142857Y-44219819D01*
X88142857Y-44219819D02*
X88285714Y-44267438D01*
X88285714Y-44267438D02*
X88333333Y-44315057D01*
X89285714Y-45219819D02*
X88714286Y-45219819D01*
X89000000Y-45219819D02*
X89000000Y-44219819D01*
X89000000Y-44219819D02*
X88904762Y-44362676D01*
X88904762Y-44362676D02*
X88809524Y-44457914D01*
X88809524Y-44457914D02*
X88714286Y-44505533D01*
X82383333Y-30237319D02*
X82050000Y-29761128D01*
X81811905Y-30237319D02*
X81811905Y-29237319D01*
X81811905Y-29237319D02*
X82192857Y-29237319D01*
X82192857Y-29237319D02*
X82288095Y-29284938D01*
X82288095Y-29284938D02*
X82335714Y-29332557D01*
X82335714Y-29332557D02*
X82383333Y-29427795D01*
X82383333Y-29427795D02*
X82383333Y-29570652D01*
X82383333Y-29570652D02*
X82335714Y-29665890D01*
X82335714Y-29665890D02*
X82288095Y-29713509D01*
X82288095Y-29713509D02*
X82192857Y-29761128D01*
X82192857Y-29761128D02*
X81811905Y-29761128D01*
X82764286Y-29332557D02*
X82811905Y-29284938D01*
X82811905Y-29284938D02*
X82907143Y-29237319D01*
X82907143Y-29237319D02*
X83145238Y-29237319D01*
X83145238Y-29237319D02*
X83240476Y-29284938D01*
X83240476Y-29284938D02*
X83288095Y-29332557D01*
X83288095Y-29332557D02*
X83335714Y-29427795D01*
X83335714Y-29427795D02*
X83335714Y-29523033D01*
X83335714Y-29523033D02*
X83288095Y-29665890D01*
X83288095Y-29665890D02*
X82716667Y-30237319D01*
X82716667Y-30237319D02*
X83335714Y-30237319D01*
X84633333Y-30159580D02*
X84585714Y-30207200D01*
X84585714Y-30207200D02*
X84442857Y-30254819D01*
X84442857Y-30254819D02*
X84347619Y-30254819D01*
X84347619Y-30254819D02*
X84204762Y-30207200D01*
X84204762Y-30207200D02*
X84109524Y-30111961D01*
X84109524Y-30111961D02*
X84061905Y-30016723D01*
X84061905Y-30016723D02*
X84014286Y-29826247D01*
X84014286Y-29826247D02*
X84014286Y-29683390D01*
X84014286Y-29683390D02*
X84061905Y-29492914D01*
X84061905Y-29492914D02*
X84109524Y-29397676D01*
X84109524Y-29397676D02*
X84204762Y-29302438D01*
X84204762Y-29302438D02*
X84347619Y-29254819D01*
X84347619Y-29254819D02*
X84442857Y-29254819D01*
X84442857Y-29254819D02*
X84585714Y-29302438D01*
X84585714Y-29302438D02*
X84633333Y-29350057D01*
X85014286Y-29350057D02*
X85061905Y-29302438D01*
X85061905Y-29302438D02*
X85157143Y-29254819D01*
X85157143Y-29254819D02*
X85395238Y-29254819D01*
X85395238Y-29254819D02*
X85490476Y-29302438D01*
X85490476Y-29302438D02*
X85538095Y-29350057D01*
X85538095Y-29350057D02*
X85585714Y-29445295D01*
X85585714Y-29445295D02*
X85585714Y-29540533D01*
X85585714Y-29540533D02*
X85538095Y-29683390D01*
X85538095Y-29683390D02*
X84966667Y-30254819D01*
X84966667Y-30254819D02*
X85585714Y-30254819D01*
X84754819Y-23766666D02*
X84278628Y-24099999D01*
X84754819Y-24338094D02*
X83754819Y-24338094D01*
X83754819Y-24338094D02*
X83754819Y-23957142D01*
X83754819Y-23957142D02*
X83802438Y-23861904D01*
X83802438Y-23861904D02*
X83850057Y-23814285D01*
X83850057Y-23814285D02*
X83945295Y-23766666D01*
X83945295Y-23766666D02*
X84088152Y-23766666D01*
X84088152Y-23766666D02*
X84183390Y-23814285D01*
X84183390Y-23814285D02*
X84231009Y-23861904D01*
X84231009Y-23861904D02*
X84278628Y-23957142D01*
X84278628Y-23957142D02*
X84278628Y-24338094D01*
X84754819Y-22814285D02*
X84754819Y-23385713D01*
X84754819Y-23099999D02*
X83754819Y-23099999D01*
X83754819Y-23099999D02*
X83897676Y-23195237D01*
X83897676Y-23195237D02*
X83992914Y-23290475D01*
X83992914Y-23290475D02*
X84040533Y-23385713D01*
X127633333Y-53354819D02*
X127300000Y-52878628D01*
X127061905Y-53354819D02*
X127061905Y-52354819D01*
X127061905Y-52354819D02*
X127442857Y-52354819D01*
X127442857Y-52354819D02*
X127538095Y-52402438D01*
X127538095Y-52402438D02*
X127585714Y-52450057D01*
X127585714Y-52450057D02*
X127633333Y-52545295D01*
X127633333Y-52545295D02*
X127633333Y-52688152D01*
X127633333Y-52688152D02*
X127585714Y-52783390D01*
X127585714Y-52783390D02*
X127538095Y-52831009D01*
X127538095Y-52831009D02*
X127442857Y-52878628D01*
X127442857Y-52878628D02*
X127061905Y-52878628D01*
X127966667Y-52354819D02*
X128585714Y-52354819D01*
X128585714Y-52354819D02*
X128252381Y-52735771D01*
X128252381Y-52735771D02*
X128395238Y-52735771D01*
X128395238Y-52735771D02*
X128490476Y-52783390D01*
X128490476Y-52783390D02*
X128538095Y-52831009D01*
X128538095Y-52831009D02*
X128585714Y-52926247D01*
X128585714Y-52926247D02*
X128585714Y-53164342D01*
X128585714Y-53164342D02*
X128538095Y-53259580D01*
X128538095Y-53259580D02*
X128490476Y-53307200D01*
X128490476Y-53307200D02*
X128395238Y-53354819D01*
X128395238Y-53354819D02*
X128109524Y-53354819D01*
X128109524Y-53354819D02*
X128014286Y-53307200D01*
X128014286Y-53307200D02*
X127966667Y-53259580D01*
X94633333Y-30854819D02*
X94300000Y-30378628D01*
X94061905Y-30854819D02*
X94061905Y-29854819D01*
X94061905Y-29854819D02*
X94442857Y-29854819D01*
X94442857Y-29854819D02*
X94538095Y-29902438D01*
X94538095Y-29902438D02*
X94585714Y-29950057D01*
X94585714Y-29950057D02*
X94633333Y-30045295D01*
X94633333Y-30045295D02*
X94633333Y-30188152D01*
X94633333Y-30188152D02*
X94585714Y-30283390D01*
X94585714Y-30283390D02*
X94538095Y-30331009D01*
X94538095Y-30331009D02*
X94442857Y-30378628D01*
X94442857Y-30378628D02*
X94061905Y-30378628D01*
X94966667Y-29854819D02*
X95585714Y-29854819D01*
X95585714Y-29854819D02*
X95252381Y-30235771D01*
X95252381Y-30235771D02*
X95395238Y-30235771D01*
X95395238Y-30235771D02*
X95490476Y-30283390D01*
X95490476Y-30283390D02*
X95538095Y-30331009D01*
X95538095Y-30331009D02*
X95585714Y-30426247D01*
X95585714Y-30426247D02*
X95585714Y-30664342D01*
X95585714Y-30664342D02*
X95538095Y-30759580D01*
X95538095Y-30759580D02*
X95490476Y-30807200D01*
X95490476Y-30807200D02*
X95395238Y-30854819D01*
X95395238Y-30854819D02*
X95109524Y-30854819D01*
X95109524Y-30854819D02*
X95014286Y-30807200D01*
X95014286Y-30807200D02*
X94966667Y-30759580D01*
D11*
X131656190Y-21023878D02*
X131656190Y-21282925D01*
X131656190Y-21282925D02*
X131671428Y-21313401D01*
X131671428Y-21313401D02*
X131686666Y-21328640D01*
X131686666Y-21328640D02*
X131717142Y-21343878D01*
X131717142Y-21343878D02*
X131778095Y-21343878D01*
X131778095Y-21343878D02*
X131808571Y-21328640D01*
X131808571Y-21328640D02*
X131823809Y-21313401D01*
X131823809Y-21313401D02*
X131839047Y-21282925D01*
X131839047Y-21282925D02*
X131839047Y-21023878D01*
X131976190Y-21054354D02*
X131991428Y-21039116D01*
X131991428Y-21039116D02*
X132021904Y-21023878D01*
X132021904Y-21023878D02*
X132098095Y-21023878D01*
X132098095Y-21023878D02*
X132128571Y-21039116D01*
X132128571Y-21039116D02*
X132143809Y-21054354D01*
X132143809Y-21054354D02*
X132159047Y-21084830D01*
X132159047Y-21084830D02*
X132159047Y-21115306D01*
X132159047Y-21115306D02*
X132143809Y-21161020D01*
X132143809Y-21161020D02*
X131960952Y-21343878D01*
X131960952Y-21343878D02*
X132159047Y-21343878D01*
D10*
X121333333Y-22624580D02*
X121285714Y-22672200D01*
X121285714Y-22672200D02*
X121142857Y-22719819D01*
X121142857Y-22719819D02*
X121047619Y-22719819D01*
X121047619Y-22719819D02*
X120904762Y-22672200D01*
X120904762Y-22672200D02*
X120809524Y-22576961D01*
X120809524Y-22576961D02*
X120761905Y-22481723D01*
X120761905Y-22481723D02*
X120714286Y-22291247D01*
X120714286Y-22291247D02*
X120714286Y-22148390D01*
X120714286Y-22148390D02*
X120761905Y-21957914D01*
X120761905Y-21957914D02*
X120809524Y-21862676D01*
X120809524Y-21862676D02*
X120904762Y-21767438D01*
X120904762Y-21767438D02*
X121047619Y-21719819D01*
X121047619Y-21719819D02*
X121142857Y-21719819D01*
X121142857Y-21719819D02*
X121285714Y-21767438D01*
X121285714Y-21767438D02*
X121333333Y-21815057D01*
X122285714Y-22719819D02*
X121714286Y-22719819D01*
X122000000Y-22719819D02*
X122000000Y-21719819D01*
X122000000Y-21719819D02*
X121904762Y-21862676D01*
X121904762Y-21862676D02*
X121809524Y-21957914D01*
X121809524Y-21957914D02*
X121714286Y-22005533D01*
X121333333Y-45124580D02*
X121285714Y-45172200D01*
X121285714Y-45172200D02*
X121142857Y-45219819D01*
X121142857Y-45219819D02*
X121047619Y-45219819D01*
X121047619Y-45219819D02*
X120904762Y-45172200D01*
X120904762Y-45172200D02*
X120809524Y-45076961D01*
X120809524Y-45076961D02*
X120761905Y-44981723D01*
X120761905Y-44981723D02*
X120714286Y-44791247D01*
X120714286Y-44791247D02*
X120714286Y-44648390D01*
X120714286Y-44648390D02*
X120761905Y-44457914D01*
X120761905Y-44457914D02*
X120809524Y-44362676D01*
X120809524Y-44362676D02*
X120904762Y-44267438D01*
X120904762Y-44267438D02*
X121047619Y-44219819D01*
X121047619Y-44219819D02*
X121142857Y-44219819D01*
X121142857Y-44219819D02*
X121285714Y-44267438D01*
X121285714Y-44267438D02*
X121333333Y-44315057D01*
X122285714Y-45219819D02*
X121714286Y-45219819D01*
X122000000Y-45219819D02*
X122000000Y-44219819D01*
X122000000Y-44219819D02*
X121904762Y-44362676D01*
X121904762Y-44362676D02*
X121809524Y-44457914D01*
X121809524Y-44457914D02*
X121714286Y-44505533D01*
D11*
X98656190Y-21023878D02*
X98656190Y-21282925D01*
X98656190Y-21282925D02*
X98671428Y-21313401D01*
X98671428Y-21313401D02*
X98686666Y-21328640D01*
X98686666Y-21328640D02*
X98717142Y-21343878D01*
X98717142Y-21343878D02*
X98778095Y-21343878D01*
X98778095Y-21343878D02*
X98808571Y-21328640D01*
X98808571Y-21328640D02*
X98823809Y-21313401D01*
X98823809Y-21313401D02*
X98839047Y-21282925D01*
X98839047Y-21282925D02*
X98839047Y-21023878D01*
X98976190Y-21054354D02*
X98991428Y-21039116D01*
X98991428Y-21039116D02*
X99021904Y-21023878D01*
X99021904Y-21023878D02*
X99098095Y-21023878D01*
X99098095Y-21023878D02*
X99128571Y-21039116D01*
X99128571Y-21039116D02*
X99143809Y-21054354D01*
X99143809Y-21054354D02*
X99159047Y-21084830D01*
X99159047Y-21084830D02*
X99159047Y-21115306D01*
X99159047Y-21115306D02*
X99143809Y-21161020D01*
X99143809Y-21161020D02*
X98960952Y-21343878D01*
X98960952Y-21343878D02*
X99159047Y-21343878D01*
D10*
X89138095Y-48154819D02*
X89138095Y-48964342D01*
X89138095Y-48964342D02*
X89185714Y-49059580D01*
X89185714Y-49059580D02*
X89233333Y-49107200D01*
X89233333Y-49107200D02*
X89328571Y-49154819D01*
X89328571Y-49154819D02*
X89519047Y-49154819D01*
X89519047Y-49154819D02*
X89614285Y-49107200D01*
X89614285Y-49107200D02*
X89661904Y-49059580D01*
X89661904Y-49059580D02*
X89709523Y-48964342D01*
X89709523Y-48964342D02*
X89709523Y-48154819D01*
X90709523Y-49154819D02*
X90138095Y-49154819D01*
X90423809Y-49154819D02*
X90423809Y-48154819D01*
X90423809Y-48154819D02*
X90328571Y-48297676D01*
X90328571Y-48297676D02*
X90233333Y-48392914D01*
X90233333Y-48392914D02*
X90138095Y-48440533D01*
X117754819Y-46266666D02*
X117278628Y-46599999D01*
X117754819Y-46838094D02*
X116754819Y-46838094D01*
X116754819Y-46838094D02*
X116754819Y-46457142D01*
X116754819Y-46457142D02*
X116802438Y-46361904D01*
X116802438Y-46361904D02*
X116850057Y-46314285D01*
X116850057Y-46314285D02*
X116945295Y-46266666D01*
X116945295Y-46266666D02*
X117088152Y-46266666D01*
X117088152Y-46266666D02*
X117183390Y-46314285D01*
X117183390Y-46314285D02*
X117231009Y-46361904D01*
X117231009Y-46361904D02*
X117278628Y-46457142D01*
X117278628Y-46457142D02*
X117278628Y-46838094D01*
X117754819Y-45314285D02*
X117754819Y-45885713D01*
X117754819Y-45599999D02*
X116754819Y-45599999D01*
X116754819Y-45599999D02*
X116897676Y-45695237D01*
X116897676Y-45695237D02*
X116992914Y-45790475D01*
X116992914Y-45790475D02*
X117040533Y-45885713D01*
X96966666Y-30894819D02*
X96966666Y-31609104D01*
X96966666Y-31609104D02*
X96919047Y-31751961D01*
X96919047Y-31751961D02*
X96823809Y-31847200D01*
X96823809Y-31847200D02*
X96680952Y-31894819D01*
X96680952Y-31894819D02*
X96585714Y-31894819D01*
X97442857Y-31894819D02*
X97442857Y-30894819D01*
X97442857Y-30894819D02*
X97823809Y-30894819D01*
X97823809Y-30894819D02*
X97919047Y-30942438D01*
X97919047Y-30942438D02*
X97966666Y-30990057D01*
X97966666Y-30990057D02*
X98014285Y-31085295D01*
X98014285Y-31085295D02*
X98014285Y-31228152D01*
X98014285Y-31228152D02*
X97966666Y-31323390D01*
X97966666Y-31323390D02*
X97919047Y-31371009D01*
X97919047Y-31371009D02*
X97823809Y-31418628D01*
X97823809Y-31418628D02*
X97442857Y-31418628D01*
X98966666Y-31894819D02*
X98395238Y-31894819D01*
X98680952Y-31894819D02*
X98680952Y-30894819D01*
X98680952Y-30894819D02*
X98585714Y-31037676D01*
X98585714Y-31037676D02*
X98490476Y-31132914D01*
X98490476Y-31132914D02*
X98395238Y-31180533D01*
X117633333Y-30159580D02*
X117585714Y-30207200D01*
X117585714Y-30207200D02*
X117442857Y-30254819D01*
X117442857Y-30254819D02*
X117347619Y-30254819D01*
X117347619Y-30254819D02*
X117204762Y-30207200D01*
X117204762Y-30207200D02*
X117109524Y-30111961D01*
X117109524Y-30111961D02*
X117061905Y-30016723D01*
X117061905Y-30016723D02*
X117014286Y-29826247D01*
X117014286Y-29826247D02*
X117014286Y-29683390D01*
X117014286Y-29683390D02*
X117061905Y-29492914D01*
X117061905Y-29492914D02*
X117109524Y-29397676D01*
X117109524Y-29397676D02*
X117204762Y-29302438D01*
X117204762Y-29302438D02*
X117347619Y-29254819D01*
X117347619Y-29254819D02*
X117442857Y-29254819D01*
X117442857Y-29254819D02*
X117585714Y-29302438D01*
X117585714Y-29302438D02*
X117633333Y-29350057D01*
X118014286Y-29350057D02*
X118061905Y-29302438D01*
X118061905Y-29302438D02*
X118157143Y-29254819D01*
X118157143Y-29254819D02*
X118395238Y-29254819D01*
X118395238Y-29254819D02*
X118490476Y-29302438D01*
X118490476Y-29302438D02*
X118538095Y-29350057D01*
X118538095Y-29350057D02*
X118585714Y-29445295D01*
X118585714Y-29445295D02*
X118585714Y-29540533D01*
X118585714Y-29540533D02*
X118538095Y-29683390D01*
X118538095Y-29683390D02*
X117966667Y-30254819D01*
X117966667Y-30254819D02*
X118585714Y-30254819D01*
X89138095Y-25654819D02*
X89138095Y-26464342D01*
X89138095Y-26464342D02*
X89185714Y-26559580D01*
X89185714Y-26559580D02*
X89233333Y-26607200D01*
X89233333Y-26607200D02*
X89328571Y-26654819D01*
X89328571Y-26654819D02*
X89519047Y-26654819D01*
X89519047Y-26654819D02*
X89614285Y-26607200D01*
X89614285Y-26607200D02*
X89661904Y-26559580D01*
X89661904Y-26559580D02*
X89709523Y-26464342D01*
X89709523Y-26464342D02*
X89709523Y-25654819D01*
X90709523Y-26654819D02*
X90138095Y-26654819D01*
X90423809Y-26654819D02*
X90423809Y-25654819D01*
X90423809Y-25654819D02*
X90328571Y-25797676D01*
X90328571Y-25797676D02*
X90233333Y-25892914D01*
X90233333Y-25892914D02*
X90138095Y-25940533D01*
X87533333Y-30679819D02*
X87200000Y-30203628D01*
X86961905Y-30679819D02*
X86961905Y-29679819D01*
X86961905Y-29679819D02*
X87342857Y-29679819D01*
X87342857Y-29679819D02*
X87438095Y-29727438D01*
X87438095Y-29727438D02*
X87485714Y-29775057D01*
X87485714Y-29775057D02*
X87533333Y-29870295D01*
X87533333Y-29870295D02*
X87533333Y-30013152D01*
X87533333Y-30013152D02*
X87485714Y-30108390D01*
X87485714Y-30108390D02*
X87438095Y-30156009D01*
X87438095Y-30156009D02*
X87342857Y-30203628D01*
X87342857Y-30203628D02*
X86961905Y-30203628D01*
X88390476Y-30013152D02*
X88390476Y-30679819D01*
X88152381Y-29632200D02*
X87914286Y-30346485D01*
X87914286Y-30346485D02*
X88533333Y-30346485D01*
X122138095Y-48154819D02*
X122138095Y-48964342D01*
X122138095Y-48964342D02*
X122185714Y-49059580D01*
X122185714Y-49059580D02*
X122233333Y-49107200D01*
X122233333Y-49107200D02*
X122328571Y-49154819D01*
X122328571Y-49154819D02*
X122519047Y-49154819D01*
X122519047Y-49154819D02*
X122614285Y-49107200D01*
X122614285Y-49107200D02*
X122661904Y-49059580D01*
X122661904Y-49059580D02*
X122709523Y-48964342D01*
X122709523Y-48964342D02*
X122709523Y-48154819D01*
X123709523Y-49154819D02*
X123138095Y-49154819D01*
X123423809Y-49154819D02*
X123423809Y-48154819D01*
X123423809Y-48154819D02*
X123328571Y-48297676D01*
X123328571Y-48297676D02*
X123233333Y-48392914D01*
X123233333Y-48392914D02*
X123138095Y-48440533D01*
X120533333Y-53179819D02*
X120200000Y-52703628D01*
X119961905Y-53179819D02*
X119961905Y-52179819D01*
X119961905Y-52179819D02*
X120342857Y-52179819D01*
X120342857Y-52179819D02*
X120438095Y-52227438D01*
X120438095Y-52227438D02*
X120485714Y-52275057D01*
X120485714Y-52275057D02*
X120533333Y-52370295D01*
X120533333Y-52370295D02*
X120533333Y-52513152D01*
X120533333Y-52513152D02*
X120485714Y-52608390D01*
X120485714Y-52608390D02*
X120438095Y-52656009D01*
X120438095Y-52656009D02*
X120342857Y-52703628D01*
X120342857Y-52703628D02*
X119961905Y-52703628D01*
X121390476Y-52513152D02*
X121390476Y-53179819D01*
X121152381Y-52132200D02*
X120914286Y-52846485D01*
X120914286Y-52846485D02*
X121533333Y-52846485D01*
X82383333Y-52737319D02*
X82050000Y-52261128D01*
X81811905Y-52737319D02*
X81811905Y-51737319D01*
X81811905Y-51737319D02*
X82192857Y-51737319D01*
X82192857Y-51737319D02*
X82288095Y-51784938D01*
X82288095Y-51784938D02*
X82335714Y-51832557D01*
X82335714Y-51832557D02*
X82383333Y-51927795D01*
X82383333Y-51927795D02*
X82383333Y-52070652D01*
X82383333Y-52070652D02*
X82335714Y-52165890D01*
X82335714Y-52165890D02*
X82288095Y-52213509D01*
X82288095Y-52213509D02*
X82192857Y-52261128D01*
X82192857Y-52261128D02*
X81811905Y-52261128D01*
X82764286Y-51832557D02*
X82811905Y-51784938D01*
X82811905Y-51784938D02*
X82907143Y-51737319D01*
X82907143Y-51737319D02*
X83145238Y-51737319D01*
X83145238Y-51737319D02*
X83240476Y-51784938D01*
X83240476Y-51784938D02*
X83288095Y-51832557D01*
X83288095Y-51832557D02*
X83335714Y-51927795D01*
X83335714Y-51927795D02*
X83335714Y-52023033D01*
X83335714Y-52023033D02*
X83288095Y-52165890D01*
X83288095Y-52165890D02*
X82716667Y-52737319D01*
X82716667Y-52737319D02*
X83335714Y-52737319D01*
X94533333Y-44554819D02*
X94200000Y-44078628D01*
X93961905Y-44554819D02*
X93961905Y-43554819D01*
X93961905Y-43554819D02*
X94342857Y-43554819D01*
X94342857Y-43554819D02*
X94438095Y-43602438D01*
X94438095Y-43602438D02*
X94485714Y-43650057D01*
X94485714Y-43650057D02*
X94533333Y-43745295D01*
X94533333Y-43745295D02*
X94533333Y-43888152D01*
X94533333Y-43888152D02*
X94485714Y-43983390D01*
X94485714Y-43983390D02*
X94438095Y-44031009D01*
X94438095Y-44031009D02*
X94342857Y-44078628D01*
X94342857Y-44078628D02*
X93961905Y-44078628D01*
X95438095Y-43554819D02*
X94961905Y-43554819D01*
X94961905Y-43554819D02*
X94914286Y-44031009D01*
X94914286Y-44031009D02*
X94961905Y-43983390D01*
X94961905Y-43983390D02*
X95057143Y-43935771D01*
X95057143Y-43935771D02*
X95295238Y-43935771D01*
X95295238Y-43935771D02*
X95390476Y-43983390D01*
X95390476Y-43983390D02*
X95438095Y-44031009D01*
X95438095Y-44031009D02*
X95485714Y-44126247D01*
X95485714Y-44126247D02*
X95485714Y-44364342D01*
X95485714Y-44364342D02*
X95438095Y-44459580D01*
X95438095Y-44459580D02*
X95390476Y-44507200D01*
X95390476Y-44507200D02*
X95295238Y-44554819D01*
X95295238Y-44554819D02*
X95057143Y-44554819D01*
X95057143Y-44554819D02*
X94961905Y-44507200D01*
X94961905Y-44507200D02*
X94914286Y-44459580D01*
X88333333Y-22624580D02*
X88285714Y-22672200D01*
X88285714Y-22672200D02*
X88142857Y-22719819D01*
X88142857Y-22719819D02*
X88047619Y-22719819D01*
X88047619Y-22719819D02*
X87904762Y-22672200D01*
X87904762Y-22672200D02*
X87809524Y-22576961D01*
X87809524Y-22576961D02*
X87761905Y-22481723D01*
X87761905Y-22481723D02*
X87714286Y-22291247D01*
X87714286Y-22291247D02*
X87714286Y-22148390D01*
X87714286Y-22148390D02*
X87761905Y-21957914D01*
X87761905Y-21957914D02*
X87809524Y-21862676D01*
X87809524Y-21862676D02*
X87904762Y-21767438D01*
X87904762Y-21767438D02*
X88047619Y-21719819D01*
X88047619Y-21719819D02*
X88142857Y-21719819D01*
X88142857Y-21719819D02*
X88285714Y-21767438D01*
X88285714Y-21767438D02*
X88333333Y-21815057D01*
X89285714Y-22719819D02*
X88714286Y-22719819D01*
X89000000Y-22719819D02*
X89000000Y-21719819D01*
X89000000Y-21719819D02*
X88904762Y-21862676D01*
X88904762Y-21862676D02*
X88809524Y-21957914D01*
X88809524Y-21957914D02*
X88714286Y-22005533D01*
X127533333Y-22054819D02*
X127200000Y-21578628D01*
X126961905Y-22054819D02*
X126961905Y-21054819D01*
X126961905Y-21054819D02*
X127342857Y-21054819D01*
X127342857Y-21054819D02*
X127438095Y-21102438D01*
X127438095Y-21102438D02*
X127485714Y-21150057D01*
X127485714Y-21150057D02*
X127533333Y-21245295D01*
X127533333Y-21245295D02*
X127533333Y-21388152D01*
X127533333Y-21388152D02*
X127485714Y-21483390D01*
X127485714Y-21483390D02*
X127438095Y-21531009D01*
X127438095Y-21531009D02*
X127342857Y-21578628D01*
X127342857Y-21578628D02*
X126961905Y-21578628D01*
X128438095Y-21054819D02*
X127961905Y-21054819D01*
X127961905Y-21054819D02*
X127914286Y-21531009D01*
X127914286Y-21531009D02*
X127961905Y-21483390D01*
X127961905Y-21483390D02*
X128057143Y-21435771D01*
X128057143Y-21435771D02*
X128295238Y-21435771D01*
X128295238Y-21435771D02*
X128390476Y-21483390D01*
X128390476Y-21483390D02*
X128438095Y-21531009D01*
X128438095Y-21531009D02*
X128485714Y-21626247D01*
X128485714Y-21626247D02*
X128485714Y-21864342D01*
X128485714Y-21864342D02*
X128438095Y-21959580D01*
X128438095Y-21959580D02*
X128390476Y-22007200D01*
X128390476Y-22007200D02*
X128295238Y-22054819D01*
X128295238Y-22054819D02*
X128057143Y-22054819D01*
X128057143Y-22054819D02*
X127961905Y-22007200D01*
X127961905Y-22007200D02*
X127914286Y-21959580D01*
X129966666Y-53394819D02*
X129966666Y-54109104D01*
X129966666Y-54109104D02*
X129919047Y-54251961D01*
X129919047Y-54251961D02*
X129823809Y-54347200D01*
X129823809Y-54347200D02*
X129680952Y-54394819D01*
X129680952Y-54394819D02*
X129585714Y-54394819D01*
X130442857Y-54394819D02*
X130442857Y-53394819D01*
X130442857Y-53394819D02*
X130823809Y-53394819D01*
X130823809Y-53394819D02*
X130919047Y-53442438D01*
X130919047Y-53442438D02*
X130966666Y-53490057D01*
X130966666Y-53490057D02*
X131014285Y-53585295D01*
X131014285Y-53585295D02*
X131014285Y-53728152D01*
X131014285Y-53728152D02*
X130966666Y-53823390D01*
X130966666Y-53823390D02*
X130919047Y-53871009D01*
X130919047Y-53871009D02*
X130823809Y-53918628D01*
X130823809Y-53918628D02*
X130442857Y-53918628D01*
X131966666Y-54394819D02*
X131395238Y-54394819D01*
X131680952Y-54394819D02*
X131680952Y-53394819D01*
X131680952Y-53394819D02*
X131585714Y-53537676D01*
X131585714Y-53537676D02*
X131490476Y-53632914D01*
X131490476Y-53632914D02*
X131395238Y-53680533D01*
X84754819Y-46266666D02*
X84278628Y-46599999D01*
X84754819Y-46838094D02*
X83754819Y-46838094D01*
X83754819Y-46838094D02*
X83754819Y-46457142D01*
X83754819Y-46457142D02*
X83802438Y-46361904D01*
X83802438Y-46361904D02*
X83850057Y-46314285D01*
X83850057Y-46314285D02*
X83945295Y-46266666D01*
X83945295Y-46266666D02*
X84088152Y-46266666D01*
X84088152Y-46266666D02*
X84183390Y-46314285D01*
X84183390Y-46314285D02*
X84231009Y-46361904D01*
X84231009Y-46361904D02*
X84278628Y-46457142D01*
X84278628Y-46457142D02*
X84278628Y-46838094D01*
X84754819Y-45314285D02*
X84754819Y-45885713D01*
X84754819Y-45599999D02*
X83754819Y-45599999D01*
X83754819Y-45599999D02*
X83897676Y-45695237D01*
X83897676Y-45695237D02*
X83992914Y-45790475D01*
X83992914Y-45790475D02*
X84040533Y-45885713D01*
D12*
%TO.C,R1*%
X114815000Y-23387936D02*
X114815000Y-23842064D01*
X116285000Y-23387936D02*
X116285000Y-23842064D01*
%TO.C,C3*%
X130538748Y-48905000D02*
X131061252Y-48905000D01*
X130538748Y-50375000D02*
X131061252Y-50375000D01*
%TO.C,R3*%
X127065000Y-28117064D02*
X127065000Y-27662936D01*
X128535000Y-28117064D02*
X128535000Y-27662936D01*
%TO.C,C2*%
X117065000Y-50026252D02*
X117065000Y-49503748D01*
X118535000Y-50026252D02*
X118535000Y-49503748D01*
%TO.C,JP1*%
X96400000Y-52440000D02*
X96400000Y-51840000D01*
X97100000Y-51140000D02*
X98500000Y-51140000D01*
X98500000Y-53140000D02*
X97100000Y-53140000D01*
X99200000Y-51840000D02*
X99200000Y-52440000D01*
X96400000Y-51840000D02*
G75*
G02*
X97100000Y-51140000I700000J0D01*
G01*
X97100000Y-53140000D02*
G75*
G02*
X96400000Y-52440000I0J700000D01*
G01*
X98500000Y-51140000D02*
G75*
G02*
X99200000Y-51840000I1J-699999D01*
G01*
X99200000Y-52440000D02*
G75*
G02*
X98500000Y-53140000I-699999J-1D01*
G01*
%TO.C,J1*%
X77970000Y-46220000D02*
X77970000Y-53900000D01*
X77970000Y-46220000D02*
X80630000Y-46220000D01*
X77970000Y-53900000D02*
X80630000Y-53900000D01*
X79300000Y-43620000D02*
X80630000Y-43620000D01*
X80630000Y-43620000D02*
X80630000Y-44950000D01*
X80630000Y-46220000D02*
X80630000Y-53900000D01*
%TO.C,C2*%
X84065000Y-50026252D02*
X84065000Y-49503748D01*
X85535000Y-50026252D02*
X85535000Y-49503748D01*
D13*
%TO.C,U2*%
X129250000Y-44210000D02*
X132350000Y-44210000D01*
X129250000Y-48070000D02*
X129250000Y-44210000D01*
X132350000Y-44210000D02*
X132350000Y-48070000D01*
X132350000Y-48070000D02*
X129250000Y-48070000D01*
D12*
%TO.C,C3*%
X97538748Y-48905000D02*
X98061252Y-48905000D01*
X97538748Y-50375000D02*
X98061252Y-50375000D01*
%TO.C,R3*%
X94065000Y-50617064D02*
X94065000Y-50162936D01*
X95535000Y-50617064D02*
X95535000Y-50162936D01*
%TO.C,R4*%
X123322936Y-29530000D02*
X123777064Y-29530000D01*
X123322936Y-31000000D02*
X123777064Y-31000000D01*
D13*
%TO.C,U2*%
X96250000Y-44210000D02*
X99350000Y-44210000D01*
X96250000Y-48070000D02*
X96250000Y-44210000D01*
X99350000Y-44210000D02*
X99350000Y-48070000D01*
X99350000Y-48070000D02*
X96250000Y-48070000D01*
D12*
%TO.C,JP1*%
X129400000Y-29940000D02*
X129400000Y-29340000D01*
X130100000Y-28640000D02*
X131500000Y-28640000D01*
X131500000Y-30640000D02*
X130100000Y-30640000D01*
X132200000Y-29340000D02*
X132200000Y-29940000D01*
X129400000Y-29340000D02*
G75*
G02*
X130100000Y-28640000I700000J0D01*
G01*
X130100000Y-30640000D02*
G75*
G02*
X129400000Y-29940000I0J700000D01*
G01*
X131500000Y-28640000D02*
G75*
G02*
X132200000Y-29340000I1J-699999D01*
G01*
X132200000Y-29940000D02*
G75*
G02*
X131500000Y-30640000I-699999J-1D01*
G01*
%TO.C,R2*%
X114815000Y-27075436D02*
X114815000Y-27529564D01*
X116285000Y-27075436D02*
X116285000Y-27529564D01*
%TO.C,R5*%
X127065000Y-46867064D02*
X127065000Y-46412936D01*
X128535000Y-46867064D02*
X128535000Y-46412936D01*
%TO.C,R4*%
X90322936Y-52030000D02*
X90777064Y-52030000D01*
X90322936Y-53500000D02*
X90777064Y-53500000D01*
%TO.C,R2*%
X114815000Y-49575436D02*
X114815000Y-50029564D01*
X116285000Y-49575436D02*
X116285000Y-50029564D01*
%TO.C,C3*%
X130538748Y-26405000D02*
X131061252Y-26405000D01*
X130538748Y-27875000D02*
X131061252Y-27875000D01*
X97538748Y-26405000D02*
X98061252Y-26405000D01*
X97538748Y-27875000D02*
X98061252Y-27875000D01*
%TO.C,U1*%
X122800000Y-23705000D02*
X120850000Y-23705000D01*
X122800000Y-23705000D02*
X124750000Y-23705000D01*
X122800000Y-28825000D02*
X120850000Y-28825000D01*
X122800000Y-28825000D02*
X124750000Y-28825000D01*
X120100000Y-23800000D02*
X119860000Y-23470000D01*
X120340000Y-23470000D01*
X120100000Y-23800000D01*
G36*
X120100000Y-23800000D02*
G01*
X119860000Y-23470000D01*
X120340000Y-23470000D01*
X120100000Y-23800000D01*
G37*
%TO.C,R5*%
X94065000Y-24367064D02*
X94065000Y-23912936D01*
X95535000Y-24367064D02*
X95535000Y-23912936D01*
%TO.C,C1*%
X91561252Y-44030000D02*
X91038748Y-44030000D01*
X91561252Y-45500000D02*
X91038748Y-45500000D01*
%TO.C,J1*%
X110970000Y-46220000D02*
X110970000Y-53900000D01*
X110970000Y-46220000D02*
X113630000Y-46220000D01*
X110970000Y-53900000D02*
X113630000Y-53900000D01*
X112300000Y-43620000D02*
X113630000Y-43620000D01*
X113630000Y-43620000D02*
X113630000Y-44950000D01*
X113630000Y-46220000D02*
X113630000Y-53900000D01*
%TO.C,R2*%
X81815000Y-27075436D02*
X81815000Y-27529564D01*
X83285000Y-27075436D02*
X83285000Y-27529564D01*
%TO.C,C2*%
X84065000Y-27526252D02*
X84065000Y-27003748D01*
X85535000Y-27526252D02*
X85535000Y-27003748D01*
%TO.C,R1*%
X81815000Y-23387936D02*
X81815000Y-23842064D01*
X83285000Y-23387936D02*
X83285000Y-23842064D01*
%TO.C,R3*%
X127065000Y-50617064D02*
X127065000Y-50162936D01*
X128535000Y-50617064D02*
X128535000Y-50162936D01*
X94065000Y-28117064D02*
X94065000Y-27662936D01*
X95535000Y-28117064D02*
X95535000Y-27662936D01*
D13*
%TO.C,U2*%
X129250000Y-21710000D02*
X132350000Y-21710000D01*
X129250000Y-25570000D02*
X129250000Y-21710000D01*
X132350000Y-21710000D02*
X132350000Y-25570000D01*
X132350000Y-25570000D02*
X129250000Y-25570000D01*
D12*
%TO.C,C1*%
X124561252Y-21530000D02*
X124038748Y-21530000D01*
X124561252Y-23000000D02*
X124038748Y-23000000D01*
X124561252Y-44030000D02*
X124038748Y-44030000D01*
X124561252Y-45500000D02*
X124038748Y-45500000D01*
D13*
%TO.C,U2*%
X96250000Y-21710000D02*
X99350000Y-21710000D01*
X96250000Y-25570000D02*
X96250000Y-21710000D01*
X99350000Y-21710000D02*
X99350000Y-25570000D01*
X99350000Y-25570000D02*
X96250000Y-25570000D01*
D12*
%TO.C,U1*%
X89800000Y-46205000D02*
X87850000Y-46205000D01*
X89800000Y-46205000D02*
X91750000Y-46205000D01*
X89800000Y-51325000D02*
X87850000Y-51325000D01*
X89800000Y-51325000D02*
X91750000Y-51325000D01*
X87100000Y-46300000D02*
X86860000Y-45970000D01*
X87340000Y-45970000D01*
X87100000Y-46300000D01*
G36*
X87100000Y-46300000D02*
G01*
X86860000Y-45970000D01*
X87340000Y-45970000D01*
X87100000Y-46300000D01*
G37*
%TO.C,R1*%
X114815000Y-45887936D02*
X114815000Y-46342064D01*
X116285000Y-45887936D02*
X116285000Y-46342064D01*
%TO.C,JP1*%
X96400000Y-29940000D02*
X96400000Y-29340000D01*
X97100000Y-28640000D02*
X98500000Y-28640000D01*
X98500000Y-30640000D02*
X97100000Y-30640000D01*
X99200000Y-29340000D02*
X99200000Y-29940000D01*
X96400000Y-29340000D02*
G75*
G02*
X97100000Y-28640000I700000J0D01*
G01*
X97100000Y-30640000D02*
G75*
G02*
X96400000Y-29940000I0J700000D01*
G01*
X98500000Y-28640000D02*
G75*
G02*
X99200000Y-29340000I1J-699999D01*
G01*
X99200000Y-29940000D02*
G75*
G02*
X98500000Y-30640000I-699999J-1D01*
G01*
%TO.C,C2*%
X117065000Y-27526252D02*
X117065000Y-27003748D01*
X118535000Y-27526252D02*
X118535000Y-27003748D01*
%TO.C,U1*%
X89800000Y-23705000D02*
X87850000Y-23705000D01*
X89800000Y-23705000D02*
X91750000Y-23705000D01*
X89800000Y-28825000D02*
X87850000Y-28825000D01*
X89800000Y-28825000D02*
X91750000Y-28825000D01*
X87100000Y-23800000D02*
X86860000Y-23470000D01*
X87340000Y-23470000D01*
X87100000Y-23800000D01*
G36*
X87100000Y-23800000D02*
G01*
X86860000Y-23470000D01*
X87340000Y-23470000D01*
X87100000Y-23800000D01*
G37*
%TO.C,R4*%
X90322936Y-29530000D02*
X90777064Y-29530000D01*
X90322936Y-31000000D02*
X90777064Y-31000000D01*
%TO.C,U1*%
X122800000Y-46205000D02*
X120850000Y-46205000D01*
X122800000Y-46205000D02*
X124750000Y-46205000D01*
X122800000Y-51325000D02*
X120850000Y-51325000D01*
X122800000Y-51325000D02*
X124750000Y-51325000D01*
X120100000Y-46300000D02*
X119860000Y-45970000D01*
X120340000Y-45970000D01*
X120100000Y-46300000D01*
G36*
X120100000Y-46300000D02*
G01*
X119860000Y-45970000D01*
X120340000Y-45970000D01*
X120100000Y-46300000D01*
G37*
%TO.C,J1*%
X77970000Y-23720000D02*
X77970000Y-31400000D01*
X77970000Y-23720000D02*
X80630000Y-23720000D01*
X77970000Y-31400000D02*
X80630000Y-31400000D01*
X79300000Y-21120000D02*
X80630000Y-21120000D01*
X80630000Y-21120000D02*
X80630000Y-22450000D01*
X80630000Y-23720000D02*
X80630000Y-31400000D01*
%TO.C,R4*%
X123322936Y-52030000D02*
X123777064Y-52030000D01*
X123322936Y-53500000D02*
X123777064Y-53500000D01*
%TO.C,R2*%
X81815000Y-49575436D02*
X81815000Y-50029564D01*
X83285000Y-49575436D02*
X83285000Y-50029564D01*
%TO.C,J1*%
X110970000Y-23720000D02*
X110970000Y-31400000D01*
X110970000Y-23720000D02*
X113630000Y-23720000D01*
X110970000Y-31400000D02*
X113630000Y-31400000D01*
X112300000Y-21120000D02*
X113630000Y-21120000D01*
X113630000Y-21120000D02*
X113630000Y-22450000D01*
X113630000Y-23720000D02*
X113630000Y-31400000D01*
%TO.C,R5*%
X94065000Y-46867064D02*
X94065000Y-46412936D01*
X95535000Y-46867064D02*
X95535000Y-46412936D01*
%TO.C,C1*%
X91561252Y-21530000D02*
X91038748Y-21530000D01*
X91561252Y-23000000D02*
X91038748Y-23000000D01*
%TO.C,R5*%
X127065000Y-24367064D02*
X127065000Y-23912936D01*
X128535000Y-24367064D02*
X128535000Y-23912936D01*
%TO.C,JP1*%
X129400000Y-52440000D02*
X129400000Y-51840000D01*
X130100000Y-51140000D02*
X131500000Y-51140000D01*
X131500000Y-53140000D02*
X130100000Y-53140000D01*
X132200000Y-51840000D02*
X132200000Y-52440000D01*
X129400000Y-51840000D02*
G75*
G02*
X130100000Y-51140000I700000J0D01*
G01*
X130100000Y-53140000D02*
G75*
G02*
X129400000Y-52440000I0J700000D01*
G01*
X131500000Y-51140000D02*
G75*
G02*
X132200000Y-51840000I1J-699999D01*
G01*
X132200000Y-52440000D02*
G75*
G02*
X131500000Y-53140000I-699999J-1D01*
G01*
%TO.C,R1*%
X81815000Y-45887936D02*
X81815000Y-46342064D01*
X83285000Y-45887936D02*
X83285000Y-46342064D01*
%TD*%
M02*
