%TF.GenerationSoftware,KiCad,Pcbnew,8.0.8-8.0.8-0~ubuntu24.04.1*%
%TF.CreationDate,2025-02-18T11:40:40+01:00*%
%TF.ProjectId,SPU0410LR5H_panel,53505530-3431-4304-9c52-35485f70616e,rev?*%
%TF.SameCoordinates,Original*%
%TF.FileFunction,Copper,L2,Bot*%
%TF.FilePolarity,Positive*%
%FSLAX46Y46*%
G04 Gerber Fmt 4.6, Leading zero omitted, Abs format (unit mm)*
G04 Created by KiCad (PCBNEW 8.0.8-8.0.8-0~ubuntu24.04.1) date 2025-02-18 11:40:40*
%MOMM*%
%LPD*%
G01*
G04 APERTURE LIST*
%TA.AperFunction,ComponentPad*%
%ADD10R,1.700000X1.700000*%
%TD*%
%TA.AperFunction,ComponentPad*%
%ADD11O,1.700000X1.700000*%
%TD*%
%TA.AperFunction,ViaPad*%
%ADD12C,0.600000*%
%TD*%
%TA.AperFunction,Conductor*%
%ADD13C,0.500000*%
%TD*%
G04 APERTURE END LIST*
D10*
%TO.P,J1,1,Pin_1*%
%TO.N,Board_3-+3.3V*%
X112800000Y-44950000D03*
D11*
%TO.P,J1,2,Pin_2*%
%TO.N,Board_3-OUTPUT*%
X112800000Y-47490000D03*
%TO.P,J1,3,Pin_3*%
%TO.N,Board_3-VCC{slash}2*%
X112800000Y-50030000D03*
%TO.P,J1,4,Pin_4*%
%TO.N,Board_3-GND*%
X112800000Y-52570000D03*
%TD*%
D10*
%TO.P,J1,1,Pin_1*%
%TO.N,Board_2-+3.3V*%
X78800000Y-44950000D03*
D11*
%TO.P,J1,2,Pin_2*%
%TO.N,Board_2-OUTPUT*%
X78800000Y-47490000D03*
%TO.P,J1,3,Pin_3*%
%TO.N,Board_2-VCC{slash}2*%
X78800000Y-50030000D03*
%TO.P,J1,4,Pin_4*%
%TO.N,Board_2-GND*%
X78800000Y-52570000D03*
%TD*%
D10*
%TO.P,J1,1,Pin_1*%
%TO.N,Board_0-+3.3V*%
X78800000Y-22450000D03*
D11*
%TO.P,J1,2,Pin_2*%
%TO.N,Board_0-OUTPUT*%
X78800000Y-24990000D03*
%TO.P,J1,3,Pin_3*%
%TO.N,Board_0-VCC{slash}2*%
X78800000Y-27530000D03*
%TO.P,J1,4,Pin_4*%
%TO.N,Board_0-GND*%
X78800000Y-30070000D03*
%TD*%
D10*
%TO.P,J1,1,Pin_1*%
%TO.N,Board_1-+3.3V*%
X112800000Y-22450000D03*
D11*
%TO.P,J1,2,Pin_2*%
%TO.N,Board_1-OUTPUT*%
X112800000Y-24990000D03*
%TO.P,J1,3,Pin_3*%
%TO.N,Board_1-VCC{slash}2*%
X112800000Y-27530000D03*
%TO.P,J1,4,Pin_4*%
%TO.N,Board_1-GND*%
X112800000Y-30070000D03*
%TD*%
D12*
%TO.N,Board_0-+3.3V*%
X96050000Y-24015000D03*
X90800000Y-23515000D03*
%TO.N,Board_0-GND*%
X86000000Y-30000000D03*
X89500000Y-26000000D03*
X84250000Y-30000000D03*
X93250000Y-22000000D03*
X97300000Y-24110499D03*
X87750000Y-30000000D03*
X81500000Y-31000000D03*
X83250000Y-31000000D03*
X87750000Y-22265000D03*
X82500000Y-30000000D03*
X86750000Y-31000000D03*
X94500000Y-30000000D03*
X93500000Y-31000000D03*
X85000000Y-31000000D03*
X80750000Y-30000000D03*
X88750000Y-25000000D03*
X86000000Y-22265000D03*
X97300000Y-26000000D03*
X96000000Y-21000000D03*
X95000000Y-22000000D03*
X94250000Y-21000000D03*
X84250000Y-22265000D03*
X95250000Y-31000000D03*
%TO.N,Board_1-+3.3V*%
X130050000Y-24015000D03*
X124800000Y-23515000D03*
%TO.N,Board_1-GND*%
X130000000Y-21000000D03*
X122750000Y-25000000D03*
X116500000Y-30000000D03*
X121750000Y-30000000D03*
X115500000Y-31000000D03*
X128500000Y-30000000D03*
X118250000Y-30000000D03*
X131300000Y-26000000D03*
X128250000Y-21000000D03*
X127250000Y-22000000D03*
X123500000Y-26000000D03*
X120000000Y-30000000D03*
X129250000Y-31000000D03*
X120750000Y-31000000D03*
X114750000Y-30000000D03*
X127500000Y-31000000D03*
X120000000Y-22265000D03*
X129000000Y-22000000D03*
X117250000Y-31000000D03*
X121750000Y-22265000D03*
X119000000Y-31000000D03*
X118250000Y-22265000D03*
X131300000Y-24110499D03*
%TO.N,Board_2-+3.3V*%
X90800000Y-46015000D03*
X96050000Y-46515000D03*
%TO.N,Board_2-GND*%
X94500000Y-52500000D03*
X87750000Y-44765000D03*
X86000000Y-52500000D03*
X89500000Y-48500000D03*
X83250000Y-53500000D03*
X93500000Y-53500000D03*
X97300000Y-48500000D03*
X93250000Y-44500000D03*
X86750000Y-53500000D03*
X88750000Y-47500000D03*
X84250000Y-44765000D03*
X80750000Y-52500000D03*
X95250000Y-53500000D03*
X84250000Y-52500000D03*
X97300000Y-46610499D03*
X87750000Y-52500000D03*
X94250000Y-43500000D03*
X96000000Y-43500000D03*
X82500000Y-52500000D03*
X95000000Y-44500000D03*
X85000000Y-53500000D03*
X86000000Y-44765000D03*
X81500000Y-53500000D03*
%TO.N,Board_3-+3.3V*%
X124800000Y-46015000D03*
X130050000Y-46515000D03*
%TO.N,Board_3-GND*%
X117250000Y-53500000D03*
X121750000Y-52500000D03*
X129000000Y-44500000D03*
X128500000Y-52500000D03*
X130000000Y-43500000D03*
X129250000Y-53500000D03*
X127250000Y-44500000D03*
X114750000Y-52500000D03*
X119000000Y-53500000D03*
X115500000Y-53500000D03*
X121750000Y-44765000D03*
X123500000Y-48500000D03*
X122750000Y-47500000D03*
X127500000Y-53500000D03*
X131300000Y-48500000D03*
X120750000Y-53500000D03*
X131300000Y-46610499D03*
X120000000Y-52500000D03*
X118250000Y-52500000D03*
X116500000Y-52500000D03*
X128250000Y-43500000D03*
X120000000Y-44765000D03*
X118250000Y-44765000D03*
%TD*%
D13*
%TO.N,Board_0-+3.3V*%
X91653553Y-24015000D02*
X96050000Y-24015000D01*
X91050000Y-23765000D02*
X90800000Y-23515000D01*
X91050000Y-23765000D02*
G75*
G03*
X91653553Y-24015019I603600J603600D01*
G01*
%TO.N,Board_1-+3.3V*%
X125653553Y-24015000D02*
X130050000Y-24015000D01*
X125050000Y-23765000D02*
X124800000Y-23515000D01*
X125050000Y-23765000D02*
G75*
G03*
X125653553Y-24015019I603600J603600D01*
G01*
%TO.N,Board_2-+3.3V*%
X91653553Y-46515000D02*
X96050000Y-46515000D01*
X91050000Y-46265000D02*
X90800000Y-46015000D01*
X91050000Y-46265000D02*
G75*
G03*
X91653553Y-46515019I603600J603600D01*
G01*
%TO.N,Board_3-+3.3V*%
X125050000Y-46265000D02*
X124800000Y-46015000D01*
X125653553Y-46515000D02*
X130050000Y-46515000D01*
X125050000Y-46265000D02*
G75*
G03*
X125653553Y-46515019I603600J603600D01*
G01*
%TD*%
%TA.AperFunction,Conductor*%
%TO.N,Board_0-GND*%
G36*
X98506923Y-20501280D02*
G01*
X98523412Y-20503137D01*
X98597268Y-20511458D01*
X98624325Y-20517633D01*
X98703547Y-20545354D01*
X98728550Y-20557395D01*
X98799607Y-20602043D01*
X98821314Y-20619355D01*
X98880646Y-20678687D01*
X98897958Y-20700395D01*
X98942601Y-20771442D01*
X98954650Y-20796462D01*
X98982364Y-20875667D01*
X98988542Y-20902735D01*
X98998720Y-20993059D01*
X98999500Y-21006944D01*
X98999500Y-31493040D01*
X98998720Y-31506923D01*
X98988541Y-31597265D01*
X98982362Y-31624337D01*
X98954649Y-31703535D01*
X98942602Y-31728552D01*
X98897957Y-31799604D01*
X98880644Y-31821313D01*
X98821313Y-31880644D01*
X98799604Y-31897957D01*
X98728552Y-31942602D01*
X98703535Y-31954649D01*
X98624337Y-31982362D01*
X98597266Y-31988541D01*
X98532898Y-31995793D01*
X98506922Y-31998720D01*
X98493041Y-31999500D01*
X77506963Y-31999500D01*
X77493079Y-31998720D01*
X77480554Y-31997308D01*
X77402736Y-31988540D01*
X77375667Y-31982362D01*
X77296463Y-31954648D01*
X77271444Y-31942599D01*
X77200398Y-31897957D01*
X77178690Y-31880645D01*
X77119356Y-31821311D01*
X77102043Y-31799602D01*
X77057399Y-31728552D01*
X77045354Y-31703539D01*
X77017637Y-31624331D01*
X77011462Y-31597277D01*
X77001278Y-31506892D01*
X77000500Y-31493020D01*
X77000500Y-24989999D01*
X77444341Y-24989999D01*
X77444341Y-24990000D01*
X77464936Y-25225403D01*
X77464938Y-25225413D01*
X77526094Y-25453655D01*
X77526096Y-25453659D01*
X77526097Y-25453663D01*
X77625965Y-25667830D01*
X77625967Y-25667834D01*
X77761501Y-25861395D01*
X77761506Y-25861402D01*
X77928597Y-26028493D01*
X77928603Y-26028498D01*
X78114158Y-26158425D01*
X78157783Y-26213002D01*
X78164977Y-26282500D01*
X78133454Y-26344855D01*
X78114158Y-26361575D01*
X77928597Y-26491505D01*
X77761505Y-26658597D01*
X77625965Y-26852169D01*
X77625964Y-26852171D01*
X77526098Y-27066335D01*
X77526094Y-27066344D01*
X77464938Y-27294586D01*
X77464936Y-27294596D01*
X77444341Y-27529999D01*
X77444341Y-27530000D01*
X77464936Y-27765403D01*
X77464938Y-27765413D01*
X77526094Y-27993655D01*
X77526096Y-27993659D01*
X77526097Y-27993663D01*
X77625965Y-28207830D01*
X77625967Y-28207834D01*
X77761501Y-28401395D01*
X77761506Y-28401402D01*
X77928597Y-28568493D01*
X77928603Y-28568498D01*
X78114594Y-28698730D01*
X78158219Y-28753307D01*
X78165413Y-28822805D01*
X78133890Y-28885160D01*
X78114595Y-28901880D01*
X77928922Y-29031890D01*
X77928920Y-29031891D01*
X77761891Y-29198920D01*
X77761886Y-29198926D01*
X77626400Y-29392420D01*
X77626399Y-29392422D01*
X77526570Y-29606507D01*
X77526567Y-29606513D01*
X77469364Y-29819999D01*
X77469364Y-29820000D01*
X78366988Y-29820000D01*
X78334075Y-29877007D01*
X78300000Y-30004174D01*
X78300000Y-30135826D01*
X78334075Y-30262993D01*
X78366988Y-30320000D01*
X77469364Y-30320000D01*
X77526567Y-30533486D01*
X77526570Y-30533492D01*
X77626399Y-30747578D01*
X77761894Y-30941082D01*
X77928917Y-31108105D01*
X78122421Y-31243600D01*
X78336507Y-31343429D01*
X78336516Y-31343433D01*
X78550000Y-31400634D01*
X78550000Y-30503012D01*
X78607007Y-30535925D01*
X78734174Y-30570000D01*
X78865826Y-30570000D01*
X78992993Y-30535925D01*
X79050000Y-30503012D01*
X79050000Y-31400633D01*
X79263483Y-31343433D01*
X79263492Y-31343429D01*
X79477578Y-31243600D01*
X79671082Y-31108105D01*
X79838105Y-30941082D01*
X79973600Y-30747578D01*
X80073429Y-30533492D01*
X80073432Y-30533486D01*
X80130636Y-30320000D01*
X79233012Y-30320000D01*
X79265925Y-30262993D01*
X79300000Y-30135826D01*
X79300000Y-30004174D01*
X79265925Y-29877007D01*
X79233012Y-29820000D01*
X80130636Y-29820000D01*
X80130635Y-29819999D01*
X80073432Y-29606513D01*
X80073429Y-29606507D01*
X79973600Y-29392422D01*
X79973599Y-29392420D01*
X79838113Y-29198926D01*
X79838108Y-29198920D01*
X79671078Y-29031890D01*
X79485405Y-28901879D01*
X79441780Y-28847302D01*
X79434588Y-28777804D01*
X79466110Y-28715449D01*
X79485406Y-28698730D01*
X79671401Y-28568495D01*
X79838495Y-28401401D01*
X79974035Y-28207830D01*
X80073903Y-27993663D01*
X80135063Y-27765408D01*
X80155659Y-27530000D01*
X80135063Y-27294592D01*
X80073903Y-27066337D01*
X79974035Y-26852171D01*
X79838495Y-26658599D01*
X79838494Y-26658597D01*
X79671402Y-26491506D01*
X79671396Y-26491501D01*
X79485842Y-26361575D01*
X79442217Y-26306998D01*
X79435023Y-26237500D01*
X79466546Y-26175145D01*
X79485842Y-26158425D01*
X79508026Y-26142891D01*
X79671401Y-26028495D01*
X79838495Y-25861401D01*
X79974035Y-25667830D01*
X80073903Y-25453663D01*
X80135063Y-25225408D01*
X80155659Y-24990000D01*
X80135063Y-24754592D01*
X80073903Y-24526337D01*
X79974035Y-24312171D01*
X79962489Y-24295682D01*
X79838496Y-24118600D01*
X79838495Y-24118599D01*
X79716567Y-23996671D01*
X79683084Y-23935351D01*
X79688068Y-23865659D01*
X79729939Y-23809725D01*
X79760915Y-23792810D01*
X79892331Y-23743796D01*
X80007546Y-23657546D01*
X80093796Y-23542331D01*
X80103991Y-23514996D01*
X89994435Y-23514996D01*
X89994435Y-23515003D01*
X90014630Y-23694249D01*
X90014631Y-23694254D01*
X90074211Y-23864523D01*
X90074925Y-23865659D01*
X90170184Y-24017262D01*
X90297738Y-24144816D01*
X90450478Y-24240789D01*
X90450480Y-24240789D01*
X90450484Y-24240792D01*
X90456756Y-24243813D01*
X90455869Y-24245653D01*
X90491937Y-24268305D01*
X90519315Y-24295683D01*
X90519315Y-24295682D01*
X90577470Y-24353838D01*
X90577924Y-24354263D01*
X90593671Y-24370011D01*
X90760467Y-24498000D01*
X90760479Y-24498009D01*
X90942569Y-24603143D01*
X91136823Y-24683613D01*
X91339918Y-24738040D01*
X91548380Y-24765495D01*
X91572823Y-24765495D01*
X91572889Y-24765500D01*
X91653511Y-24765500D01*
X91732392Y-24765504D01*
X91732397Y-24765502D01*
X91738786Y-24765503D01*
X91738863Y-24765500D01*
X95750028Y-24765500D01*
X95790983Y-24772458D01*
X95870745Y-24800368D01*
X95870750Y-24800369D01*
X96049996Y-24820565D01*
X96050000Y-24820565D01*
X96050004Y-24820565D01*
X96229249Y-24800369D01*
X96229252Y-24800368D01*
X96229255Y-24800368D01*
X96399522Y-24740789D01*
X96552262Y-24644816D01*
X96679816Y-24517262D01*
X96775789Y-24364522D01*
X96835368Y-24194255D01*
X96835369Y-24194249D01*
X96855565Y-24015003D01*
X96855565Y-24014996D01*
X96835369Y-23835750D01*
X96835368Y-23835745D01*
X96803194Y-23743797D01*
X96775789Y-23665478D01*
X96679816Y-23512738D01*
X96552262Y-23385184D01*
X96494031Y-23348595D01*
X96399523Y-23289211D01*
X96229254Y-23229631D01*
X96229249Y-23229630D01*
X96050004Y-23209435D01*
X96049996Y-23209435D01*
X95870750Y-23229630D01*
X95870745Y-23229631D01*
X95790983Y-23257542D01*
X95750028Y-23264500D01*
X91662230Y-23264500D01*
X91595191Y-23244815D01*
X91574549Y-23228181D01*
X91553307Y-23206939D01*
X91530653Y-23170869D01*
X91528813Y-23171756D01*
X91525792Y-23165484D01*
X91525789Y-23165480D01*
X91525789Y-23165478D01*
X91429816Y-23012738D01*
X91302262Y-22885184D01*
X91234966Y-22842899D01*
X96824500Y-22842899D01*
X96824500Y-22968101D01*
X96856905Y-23089036D01*
X96919505Y-23197464D01*
X97008036Y-23285995D01*
X97116464Y-23348595D01*
X97237399Y-23381000D01*
X97237401Y-23381000D01*
X97362599Y-23381000D01*
X97362601Y-23381000D01*
X97483536Y-23348595D01*
X97591964Y-23285995D01*
X97680495Y-23197464D01*
X97743095Y-23089036D01*
X97775500Y-22968101D01*
X97775500Y-22842899D01*
X97743095Y-22721964D01*
X97680495Y-22613536D01*
X97591964Y-22525005D01*
X97483536Y-22462405D01*
X97483537Y-22462405D01*
X97443224Y-22451603D01*
X97362601Y-22430000D01*
X97237399Y-22430000D01*
X97156775Y-22451603D01*
X97116463Y-22462405D01*
X97008037Y-22525004D01*
X97008034Y-22525006D01*
X96919506Y-22613534D01*
X96919504Y-22613537D01*
X96856905Y-22721963D01*
X96854850Y-22729632D01*
X96824500Y-22842899D01*
X91234966Y-22842899D01*
X91149523Y-22789211D01*
X90979254Y-22729631D01*
X90979249Y-22729630D01*
X90800004Y-22709435D01*
X90799996Y-22709435D01*
X90620750Y-22729630D01*
X90620745Y-22729631D01*
X90450476Y-22789211D01*
X90297737Y-22885184D01*
X90170184Y-23012737D01*
X90074211Y-23165476D01*
X90014631Y-23335745D01*
X90014630Y-23335750D01*
X89994435Y-23514996D01*
X80103991Y-23514996D01*
X80144091Y-23407483D01*
X80150500Y-23347873D01*
X80150499Y-21552128D01*
X80144091Y-21492517D01*
X80093796Y-21357669D01*
X80093795Y-21357668D01*
X80093793Y-21357664D01*
X80007547Y-21242455D01*
X80007544Y-21242452D01*
X79892335Y-21156206D01*
X79892328Y-21156202D01*
X79757482Y-21105908D01*
X79757483Y-21105908D01*
X79697883Y-21099501D01*
X79697881Y-21099500D01*
X79697873Y-21099500D01*
X79697864Y-21099500D01*
X77902129Y-21099500D01*
X77902123Y-21099501D01*
X77842516Y-21105908D01*
X77707671Y-21156202D01*
X77707664Y-21156206D01*
X77592455Y-21242452D01*
X77592452Y-21242455D01*
X77506206Y-21357664D01*
X77506202Y-21357671D01*
X77455908Y-21492517D01*
X77449501Y-21552116D01*
X77449501Y-21552123D01*
X77449500Y-21552135D01*
X77449500Y-23347870D01*
X77449501Y-23347876D01*
X77455908Y-23407483D01*
X77506202Y-23542328D01*
X77506206Y-23542335D01*
X77592452Y-23657544D01*
X77592455Y-23657547D01*
X77707664Y-23743793D01*
X77707671Y-23743797D01*
X77839081Y-23792810D01*
X77895015Y-23834681D01*
X77919432Y-23900145D01*
X77904580Y-23968418D01*
X77883430Y-23996673D01*
X77761503Y-24118600D01*
X77625965Y-24312169D01*
X77625964Y-24312171D01*
X77526098Y-24526335D01*
X77526094Y-24526344D01*
X77464938Y-24754586D01*
X77464936Y-24754596D01*
X77444341Y-24989999D01*
X77000500Y-24989999D01*
X77000500Y-21006960D01*
X77001280Y-20993076D01*
X77001282Y-20993059D01*
X77011459Y-20902732D01*
X77017637Y-20875667D01*
X77045353Y-20796456D01*
X77057396Y-20771450D01*
X77102046Y-20700389D01*
X77119351Y-20678690D01*
X77178690Y-20619351D01*
X77200389Y-20602046D01*
X77271450Y-20557396D01*
X77296456Y-20545353D01*
X77375670Y-20517635D01*
X77402733Y-20511459D01*
X77465326Y-20504407D01*
X77493080Y-20501280D01*
X77506963Y-20500500D01*
X77565893Y-20500500D01*
X98434108Y-20500500D01*
X98493041Y-20500500D01*
X98506923Y-20501280D01*
G37*
%TD.AperFunction*%
%TD*%
%TA.AperFunction,Conductor*%
%TO.N,Board_3-GND*%
G36*
X132506923Y-43001280D02*
G01*
X132523412Y-43003137D01*
X132597268Y-43011458D01*
X132624325Y-43017633D01*
X132703547Y-43045354D01*
X132728550Y-43057395D01*
X132799607Y-43102043D01*
X132821314Y-43119355D01*
X132880646Y-43178687D01*
X132897958Y-43200395D01*
X132942601Y-43271442D01*
X132954650Y-43296462D01*
X132982364Y-43375667D01*
X132988542Y-43402735D01*
X132998720Y-43493059D01*
X132999500Y-43506944D01*
X132999500Y-53993040D01*
X132998720Y-54006923D01*
X132988541Y-54097265D01*
X132982362Y-54124337D01*
X132954649Y-54203535D01*
X132942602Y-54228552D01*
X132897957Y-54299604D01*
X132880644Y-54321313D01*
X132821313Y-54380644D01*
X132799604Y-54397957D01*
X132728552Y-54442602D01*
X132703535Y-54454649D01*
X132624337Y-54482362D01*
X132597266Y-54488541D01*
X132532898Y-54495793D01*
X132506922Y-54498720D01*
X132493041Y-54499500D01*
X111506963Y-54499500D01*
X111493079Y-54498720D01*
X111480554Y-54497308D01*
X111402736Y-54488540D01*
X111375667Y-54482362D01*
X111296463Y-54454648D01*
X111271444Y-54442599D01*
X111200398Y-54397957D01*
X111178690Y-54380645D01*
X111119356Y-54321311D01*
X111102043Y-54299602D01*
X111057399Y-54228552D01*
X111045354Y-54203539D01*
X111017637Y-54124331D01*
X111011462Y-54097277D01*
X111001278Y-54006892D01*
X111000500Y-53993020D01*
X111000500Y-47489999D01*
X111444341Y-47489999D01*
X111444341Y-47490000D01*
X111464936Y-47725403D01*
X111464938Y-47725413D01*
X111526094Y-47953655D01*
X111526096Y-47953659D01*
X111526097Y-47953663D01*
X111625965Y-48167830D01*
X111625967Y-48167834D01*
X111761501Y-48361395D01*
X111761506Y-48361402D01*
X111928597Y-48528493D01*
X111928603Y-48528498D01*
X112114158Y-48658425D01*
X112157783Y-48713002D01*
X112164977Y-48782500D01*
X112133454Y-48844855D01*
X112114158Y-48861575D01*
X111928597Y-48991505D01*
X111761505Y-49158597D01*
X111625965Y-49352169D01*
X111625964Y-49352171D01*
X111526098Y-49566335D01*
X111526094Y-49566344D01*
X111464938Y-49794586D01*
X111464936Y-49794596D01*
X111444341Y-50029999D01*
X111444341Y-50030000D01*
X111464936Y-50265403D01*
X111464938Y-50265413D01*
X111526094Y-50493655D01*
X111526096Y-50493659D01*
X111526097Y-50493663D01*
X111625965Y-50707830D01*
X111625967Y-50707834D01*
X111761501Y-50901395D01*
X111761506Y-50901402D01*
X111928597Y-51068493D01*
X111928603Y-51068498D01*
X112114594Y-51198730D01*
X112158219Y-51253307D01*
X112165413Y-51322805D01*
X112133890Y-51385160D01*
X112114595Y-51401880D01*
X111928922Y-51531890D01*
X111928920Y-51531891D01*
X111761891Y-51698920D01*
X111761886Y-51698926D01*
X111626400Y-51892420D01*
X111626399Y-51892422D01*
X111526570Y-52106507D01*
X111526567Y-52106513D01*
X111469364Y-52319999D01*
X111469364Y-52320000D01*
X112366988Y-52320000D01*
X112334075Y-52377007D01*
X112300000Y-52504174D01*
X112300000Y-52635826D01*
X112334075Y-52762993D01*
X112366988Y-52820000D01*
X111469364Y-52820000D01*
X111526567Y-53033486D01*
X111526570Y-53033492D01*
X111626399Y-53247578D01*
X111761894Y-53441082D01*
X111928917Y-53608105D01*
X112122421Y-53743600D01*
X112336507Y-53843429D01*
X112336516Y-53843433D01*
X112550000Y-53900634D01*
X112550000Y-53003012D01*
X112607007Y-53035925D01*
X112734174Y-53070000D01*
X112865826Y-53070000D01*
X112992993Y-53035925D01*
X113050000Y-53003012D01*
X113050000Y-53900633D01*
X113263483Y-53843433D01*
X113263492Y-53843429D01*
X113477578Y-53743600D01*
X113671082Y-53608105D01*
X113838105Y-53441082D01*
X113973600Y-53247578D01*
X114073429Y-53033492D01*
X114073432Y-53033486D01*
X114130636Y-52820000D01*
X113233012Y-52820000D01*
X113265925Y-52762993D01*
X113300000Y-52635826D01*
X113300000Y-52504174D01*
X113265925Y-52377007D01*
X113233012Y-52320000D01*
X114130636Y-52320000D01*
X114130635Y-52319999D01*
X114073432Y-52106513D01*
X114073429Y-52106507D01*
X113973600Y-51892422D01*
X113973599Y-51892420D01*
X113838113Y-51698926D01*
X113838108Y-51698920D01*
X113671078Y-51531890D01*
X113485405Y-51401879D01*
X113441780Y-51347302D01*
X113434588Y-51277804D01*
X113466110Y-51215449D01*
X113485406Y-51198730D01*
X113671401Y-51068495D01*
X113838495Y-50901401D01*
X113974035Y-50707830D01*
X114073903Y-50493663D01*
X114135063Y-50265408D01*
X114155659Y-50030000D01*
X114135063Y-49794592D01*
X114073903Y-49566337D01*
X113974035Y-49352171D01*
X113838495Y-49158599D01*
X113838494Y-49158597D01*
X113671402Y-48991506D01*
X113671396Y-48991501D01*
X113485842Y-48861575D01*
X113442217Y-48806998D01*
X113435023Y-48737500D01*
X113466546Y-48675145D01*
X113485842Y-48658425D01*
X113508026Y-48642891D01*
X113671401Y-48528495D01*
X113838495Y-48361401D01*
X113974035Y-48167830D01*
X114073903Y-47953663D01*
X114135063Y-47725408D01*
X114155659Y-47490000D01*
X114135063Y-47254592D01*
X114073903Y-47026337D01*
X113974035Y-46812171D01*
X113962489Y-46795682D01*
X113838496Y-46618600D01*
X113838495Y-46618599D01*
X113716567Y-46496671D01*
X113683084Y-46435351D01*
X113688068Y-46365659D01*
X113729939Y-46309725D01*
X113760915Y-46292810D01*
X113892331Y-46243796D01*
X114007546Y-46157546D01*
X114093796Y-46042331D01*
X114103991Y-46014996D01*
X123994435Y-46014996D01*
X123994435Y-46015003D01*
X124014630Y-46194249D01*
X124014631Y-46194254D01*
X124074211Y-46364523D01*
X124074925Y-46365659D01*
X124170184Y-46517262D01*
X124297738Y-46644816D01*
X124450478Y-46740789D01*
X124450480Y-46740789D01*
X124450484Y-46740792D01*
X124456756Y-46743813D01*
X124455869Y-46745653D01*
X124491937Y-46768305D01*
X124519315Y-46795683D01*
X124519315Y-46795682D01*
X124577470Y-46853838D01*
X124577924Y-46854263D01*
X124593671Y-46870011D01*
X124760467Y-46998000D01*
X124760479Y-46998009D01*
X124942569Y-47103143D01*
X125136823Y-47183613D01*
X125339918Y-47238040D01*
X125548380Y-47265495D01*
X125572823Y-47265495D01*
X125572889Y-47265500D01*
X125653511Y-47265500D01*
X125732392Y-47265504D01*
X125732397Y-47265502D01*
X125738786Y-47265503D01*
X125738863Y-47265500D01*
X129750028Y-47265500D01*
X129790983Y-47272458D01*
X129870745Y-47300368D01*
X129870750Y-47300369D01*
X130049996Y-47320565D01*
X130050000Y-47320565D01*
X130050004Y-47320565D01*
X130229249Y-47300369D01*
X130229252Y-47300368D01*
X130229255Y-47300368D01*
X130399522Y-47240789D01*
X130552262Y-47144816D01*
X130679816Y-47017262D01*
X130775789Y-46864522D01*
X130835368Y-46694255D01*
X130835369Y-46694249D01*
X130855565Y-46515003D01*
X130855565Y-46514996D01*
X130835369Y-46335750D01*
X130835368Y-46335745D01*
X130803194Y-46243797D01*
X130775789Y-46165478D01*
X130679816Y-46012738D01*
X130552262Y-45885184D01*
X130494031Y-45848595D01*
X130399523Y-45789211D01*
X130229254Y-45729631D01*
X130229249Y-45729630D01*
X130050004Y-45709435D01*
X130049996Y-45709435D01*
X129870750Y-45729630D01*
X129870745Y-45729631D01*
X129790983Y-45757542D01*
X129750028Y-45764500D01*
X125662230Y-45764500D01*
X125595191Y-45744815D01*
X125574549Y-45728181D01*
X125553307Y-45706939D01*
X125530653Y-45670869D01*
X125528813Y-45671756D01*
X125525792Y-45665484D01*
X125525789Y-45665480D01*
X125525789Y-45665478D01*
X125429816Y-45512738D01*
X125302262Y-45385184D01*
X125234966Y-45342899D01*
X130824500Y-45342899D01*
X130824500Y-45468101D01*
X130856905Y-45589036D01*
X130919505Y-45697464D01*
X131008036Y-45785995D01*
X131116464Y-45848595D01*
X131237399Y-45881000D01*
X131237401Y-45881000D01*
X131362599Y-45881000D01*
X131362601Y-45881000D01*
X131483536Y-45848595D01*
X131591964Y-45785995D01*
X131680495Y-45697464D01*
X131743095Y-45589036D01*
X131775500Y-45468101D01*
X131775500Y-45342899D01*
X131743095Y-45221964D01*
X131680495Y-45113536D01*
X131591964Y-45025005D01*
X131483536Y-44962405D01*
X131483537Y-44962405D01*
X131443224Y-44951603D01*
X131362601Y-44930000D01*
X131237399Y-44930000D01*
X131156775Y-44951603D01*
X131116463Y-44962405D01*
X131008037Y-45025004D01*
X131008034Y-45025006D01*
X130919506Y-45113534D01*
X130919504Y-45113537D01*
X130856905Y-45221963D01*
X130854850Y-45229632D01*
X130824500Y-45342899D01*
X125234966Y-45342899D01*
X125149523Y-45289211D01*
X124979254Y-45229631D01*
X124979249Y-45229630D01*
X124800004Y-45209435D01*
X124799996Y-45209435D01*
X124620750Y-45229630D01*
X124620745Y-45229631D01*
X124450476Y-45289211D01*
X124297737Y-45385184D01*
X124170184Y-45512737D01*
X124074211Y-45665476D01*
X124014631Y-45835745D01*
X124014630Y-45835750D01*
X123994435Y-46014996D01*
X114103991Y-46014996D01*
X114144091Y-45907483D01*
X114150500Y-45847873D01*
X114150499Y-44052128D01*
X114144091Y-43992517D01*
X114093796Y-43857669D01*
X114093795Y-43857668D01*
X114093793Y-43857664D01*
X114007547Y-43742455D01*
X114007544Y-43742452D01*
X113892335Y-43656206D01*
X113892328Y-43656202D01*
X113757482Y-43605908D01*
X113757483Y-43605908D01*
X113697883Y-43599501D01*
X113697881Y-43599500D01*
X113697873Y-43599500D01*
X113697864Y-43599500D01*
X111902129Y-43599500D01*
X111902123Y-43599501D01*
X111842516Y-43605908D01*
X111707671Y-43656202D01*
X111707664Y-43656206D01*
X111592455Y-43742452D01*
X111592452Y-43742455D01*
X111506206Y-43857664D01*
X111506202Y-43857671D01*
X111455908Y-43992517D01*
X111449501Y-44052116D01*
X111449501Y-44052123D01*
X111449500Y-44052135D01*
X111449500Y-45847870D01*
X111449501Y-45847876D01*
X111455908Y-45907483D01*
X111506202Y-46042328D01*
X111506206Y-46042335D01*
X111592452Y-46157544D01*
X111592455Y-46157547D01*
X111707664Y-46243793D01*
X111707671Y-46243797D01*
X111839081Y-46292810D01*
X111895015Y-46334681D01*
X111919432Y-46400145D01*
X111904580Y-46468418D01*
X111883430Y-46496673D01*
X111761503Y-46618600D01*
X111625965Y-46812169D01*
X111625964Y-46812171D01*
X111526098Y-47026335D01*
X111526094Y-47026344D01*
X111464938Y-47254586D01*
X111464936Y-47254596D01*
X111444341Y-47489999D01*
X111000500Y-47489999D01*
X111000500Y-43506960D01*
X111001280Y-43493076D01*
X111001282Y-43493059D01*
X111011459Y-43402732D01*
X111017637Y-43375667D01*
X111045353Y-43296456D01*
X111057396Y-43271450D01*
X111102046Y-43200389D01*
X111119351Y-43178690D01*
X111178690Y-43119351D01*
X111200389Y-43102046D01*
X111271450Y-43057396D01*
X111296456Y-43045353D01*
X111375670Y-43017635D01*
X111402733Y-43011459D01*
X111465326Y-43004407D01*
X111493080Y-43001280D01*
X111506963Y-43000500D01*
X111565893Y-43000500D01*
X132434108Y-43000500D01*
X132493041Y-43000500D01*
X132506923Y-43001280D01*
G37*
%TD.AperFunction*%
%TD*%
%TA.AperFunction,Conductor*%
%TO.N,Board_2-GND*%
G36*
X98506923Y-43001280D02*
G01*
X98523412Y-43003137D01*
X98597268Y-43011458D01*
X98624325Y-43017633D01*
X98703547Y-43045354D01*
X98728550Y-43057395D01*
X98799607Y-43102043D01*
X98821314Y-43119355D01*
X98880646Y-43178687D01*
X98897958Y-43200395D01*
X98942601Y-43271442D01*
X98954650Y-43296462D01*
X98982364Y-43375667D01*
X98988542Y-43402735D01*
X98998720Y-43493059D01*
X98999500Y-43506944D01*
X98999500Y-53993040D01*
X98998720Y-54006923D01*
X98988541Y-54097265D01*
X98982362Y-54124337D01*
X98954649Y-54203535D01*
X98942602Y-54228552D01*
X98897957Y-54299604D01*
X98880644Y-54321313D01*
X98821313Y-54380644D01*
X98799604Y-54397957D01*
X98728552Y-54442602D01*
X98703535Y-54454649D01*
X98624337Y-54482362D01*
X98597266Y-54488541D01*
X98532898Y-54495793D01*
X98506922Y-54498720D01*
X98493041Y-54499500D01*
X77506963Y-54499500D01*
X77493079Y-54498720D01*
X77480554Y-54497308D01*
X77402736Y-54488540D01*
X77375667Y-54482362D01*
X77296463Y-54454648D01*
X77271444Y-54442599D01*
X77200398Y-54397957D01*
X77178690Y-54380645D01*
X77119356Y-54321311D01*
X77102043Y-54299602D01*
X77057399Y-54228552D01*
X77045354Y-54203539D01*
X77017637Y-54124331D01*
X77011462Y-54097277D01*
X77001278Y-54006892D01*
X77000500Y-53993020D01*
X77000500Y-47489999D01*
X77444341Y-47489999D01*
X77444341Y-47490000D01*
X77464936Y-47725403D01*
X77464938Y-47725413D01*
X77526094Y-47953655D01*
X77526096Y-47953659D01*
X77526097Y-47953663D01*
X77625965Y-48167830D01*
X77625967Y-48167834D01*
X77761501Y-48361395D01*
X77761506Y-48361402D01*
X77928597Y-48528493D01*
X77928603Y-48528498D01*
X78114158Y-48658425D01*
X78157783Y-48713002D01*
X78164977Y-48782500D01*
X78133454Y-48844855D01*
X78114158Y-48861575D01*
X77928597Y-48991505D01*
X77761505Y-49158597D01*
X77625965Y-49352169D01*
X77625964Y-49352171D01*
X77526098Y-49566335D01*
X77526094Y-49566344D01*
X77464938Y-49794586D01*
X77464936Y-49794596D01*
X77444341Y-50029999D01*
X77444341Y-50030000D01*
X77464936Y-50265403D01*
X77464938Y-50265413D01*
X77526094Y-50493655D01*
X77526096Y-50493659D01*
X77526097Y-50493663D01*
X77625965Y-50707830D01*
X77625967Y-50707834D01*
X77761501Y-50901395D01*
X77761506Y-50901402D01*
X77928597Y-51068493D01*
X77928603Y-51068498D01*
X78114594Y-51198730D01*
X78158219Y-51253307D01*
X78165413Y-51322805D01*
X78133890Y-51385160D01*
X78114595Y-51401880D01*
X77928922Y-51531890D01*
X77928920Y-51531891D01*
X77761891Y-51698920D01*
X77761886Y-51698926D01*
X77626400Y-51892420D01*
X77626399Y-51892422D01*
X77526570Y-52106507D01*
X77526567Y-52106513D01*
X77469364Y-52319999D01*
X77469364Y-52320000D01*
X78366988Y-52320000D01*
X78334075Y-52377007D01*
X78300000Y-52504174D01*
X78300000Y-52635826D01*
X78334075Y-52762993D01*
X78366988Y-52820000D01*
X77469364Y-52820000D01*
X77526567Y-53033486D01*
X77526570Y-53033492D01*
X77626399Y-53247578D01*
X77761894Y-53441082D01*
X77928917Y-53608105D01*
X78122421Y-53743600D01*
X78336507Y-53843429D01*
X78336516Y-53843433D01*
X78550000Y-53900634D01*
X78550000Y-53003012D01*
X78607007Y-53035925D01*
X78734174Y-53070000D01*
X78865826Y-53070000D01*
X78992993Y-53035925D01*
X79050000Y-53003012D01*
X79050000Y-53900633D01*
X79263483Y-53843433D01*
X79263492Y-53843429D01*
X79477578Y-53743600D01*
X79671082Y-53608105D01*
X79838105Y-53441082D01*
X79973600Y-53247578D01*
X80073429Y-53033492D01*
X80073432Y-53033486D01*
X80130636Y-52820000D01*
X79233012Y-52820000D01*
X79265925Y-52762993D01*
X79300000Y-52635826D01*
X79300000Y-52504174D01*
X79265925Y-52377007D01*
X79233012Y-52320000D01*
X80130636Y-52320000D01*
X80130635Y-52319999D01*
X80073432Y-52106513D01*
X80073429Y-52106507D01*
X79973600Y-51892422D01*
X79973599Y-51892420D01*
X79838113Y-51698926D01*
X79838108Y-51698920D01*
X79671078Y-51531890D01*
X79485405Y-51401879D01*
X79441780Y-51347302D01*
X79434588Y-51277804D01*
X79466110Y-51215449D01*
X79485406Y-51198730D01*
X79671401Y-51068495D01*
X79838495Y-50901401D01*
X79974035Y-50707830D01*
X80073903Y-50493663D01*
X80135063Y-50265408D01*
X80155659Y-50030000D01*
X80135063Y-49794592D01*
X80073903Y-49566337D01*
X79974035Y-49352171D01*
X79838495Y-49158599D01*
X79838494Y-49158597D01*
X79671402Y-48991506D01*
X79671396Y-48991501D01*
X79485842Y-48861575D01*
X79442217Y-48806998D01*
X79435023Y-48737500D01*
X79466546Y-48675145D01*
X79485842Y-48658425D01*
X79508026Y-48642891D01*
X79671401Y-48528495D01*
X79838495Y-48361401D01*
X79974035Y-48167830D01*
X80073903Y-47953663D01*
X80135063Y-47725408D01*
X80155659Y-47490000D01*
X80135063Y-47254592D01*
X80073903Y-47026337D01*
X79974035Y-46812171D01*
X79962489Y-46795682D01*
X79838496Y-46618600D01*
X79838495Y-46618599D01*
X79716567Y-46496671D01*
X79683084Y-46435351D01*
X79688068Y-46365659D01*
X79729939Y-46309725D01*
X79760915Y-46292810D01*
X79892331Y-46243796D01*
X80007546Y-46157546D01*
X80093796Y-46042331D01*
X80103991Y-46014996D01*
X89994435Y-46014996D01*
X89994435Y-46015003D01*
X90014630Y-46194249D01*
X90014631Y-46194254D01*
X90074211Y-46364523D01*
X90074925Y-46365659D01*
X90170184Y-46517262D01*
X90297738Y-46644816D01*
X90450478Y-46740789D01*
X90450480Y-46740789D01*
X90450484Y-46740792D01*
X90456756Y-46743813D01*
X90455869Y-46745653D01*
X90491937Y-46768305D01*
X90519315Y-46795683D01*
X90519315Y-46795682D01*
X90577470Y-46853838D01*
X90577924Y-46854263D01*
X90593671Y-46870011D01*
X90760467Y-46998000D01*
X90760479Y-46998009D01*
X90942569Y-47103143D01*
X91136823Y-47183613D01*
X91339918Y-47238040D01*
X91548380Y-47265495D01*
X91572823Y-47265495D01*
X91572889Y-47265500D01*
X91653511Y-47265500D01*
X91732392Y-47265504D01*
X91732397Y-47265502D01*
X91738786Y-47265503D01*
X91738863Y-47265500D01*
X95750028Y-47265500D01*
X95790983Y-47272458D01*
X95870745Y-47300368D01*
X95870750Y-47300369D01*
X96049996Y-47320565D01*
X96050000Y-47320565D01*
X96050004Y-47320565D01*
X96229249Y-47300369D01*
X96229252Y-47300368D01*
X96229255Y-47300368D01*
X96399522Y-47240789D01*
X96552262Y-47144816D01*
X96679816Y-47017262D01*
X96775789Y-46864522D01*
X96835368Y-46694255D01*
X96835369Y-46694249D01*
X96855565Y-46515003D01*
X96855565Y-46514996D01*
X96835369Y-46335750D01*
X96835368Y-46335745D01*
X96803194Y-46243797D01*
X96775789Y-46165478D01*
X96679816Y-46012738D01*
X96552262Y-45885184D01*
X96494031Y-45848595D01*
X96399523Y-45789211D01*
X96229254Y-45729631D01*
X96229249Y-45729630D01*
X96050004Y-45709435D01*
X96049996Y-45709435D01*
X95870750Y-45729630D01*
X95870745Y-45729631D01*
X95790983Y-45757542D01*
X95750028Y-45764500D01*
X91662230Y-45764500D01*
X91595191Y-45744815D01*
X91574549Y-45728181D01*
X91553307Y-45706939D01*
X91530653Y-45670869D01*
X91528813Y-45671756D01*
X91525792Y-45665484D01*
X91525789Y-45665480D01*
X91525789Y-45665478D01*
X91429816Y-45512738D01*
X91302262Y-45385184D01*
X91234966Y-45342899D01*
X96824500Y-45342899D01*
X96824500Y-45468101D01*
X96856905Y-45589036D01*
X96919505Y-45697464D01*
X97008036Y-45785995D01*
X97116464Y-45848595D01*
X97237399Y-45881000D01*
X97237401Y-45881000D01*
X97362599Y-45881000D01*
X97362601Y-45881000D01*
X97483536Y-45848595D01*
X97591964Y-45785995D01*
X97680495Y-45697464D01*
X97743095Y-45589036D01*
X97775500Y-45468101D01*
X97775500Y-45342899D01*
X97743095Y-45221964D01*
X97680495Y-45113536D01*
X97591964Y-45025005D01*
X97483536Y-44962405D01*
X97483537Y-44962405D01*
X97443224Y-44951603D01*
X97362601Y-44930000D01*
X97237399Y-44930000D01*
X97156775Y-44951603D01*
X97116463Y-44962405D01*
X97008037Y-45025004D01*
X97008034Y-45025006D01*
X96919506Y-45113534D01*
X96919504Y-45113537D01*
X96856905Y-45221963D01*
X96854850Y-45229632D01*
X96824500Y-45342899D01*
X91234966Y-45342899D01*
X91149523Y-45289211D01*
X90979254Y-45229631D01*
X90979249Y-45229630D01*
X90800004Y-45209435D01*
X90799996Y-45209435D01*
X90620750Y-45229630D01*
X90620745Y-45229631D01*
X90450476Y-45289211D01*
X90297737Y-45385184D01*
X90170184Y-45512737D01*
X90074211Y-45665476D01*
X90014631Y-45835745D01*
X90014630Y-45835750D01*
X89994435Y-46014996D01*
X80103991Y-46014996D01*
X80144091Y-45907483D01*
X80150500Y-45847873D01*
X80150499Y-44052128D01*
X80144091Y-43992517D01*
X80093796Y-43857669D01*
X80093795Y-43857668D01*
X80093793Y-43857664D01*
X80007547Y-43742455D01*
X80007544Y-43742452D01*
X79892335Y-43656206D01*
X79892328Y-43656202D01*
X79757482Y-43605908D01*
X79757483Y-43605908D01*
X79697883Y-43599501D01*
X79697881Y-43599500D01*
X79697873Y-43599500D01*
X79697864Y-43599500D01*
X77902129Y-43599500D01*
X77902123Y-43599501D01*
X77842516Y-43605908D01*
X77707671Y-43656202D01*
X77707664Y-43656206D01*
X77592455Y-43742452D01*
X77592452Y-43742455D01*
X77506206Y-43857664D01*
X77506202Y-43857671D01*
X77455908Y-43992517D01*
X77449501Y-44052116D01*
X77449501Y-44052123D01*
X77449500Y-44052135D01*
X77449500Y-45847870D01*
X77449501Y-45847876D01*
X77455908Y-45907483D01*
X77506202Y-46042328D01*
X77506206Y-46042335D01*
X77592452Y-46157544D01*
X77592455Y-46157547D01*
X77707664Y-46243793D01*
X77707671Y-46243797D01*
X77839081Y-46292810D01*
X77895015Y-46334681D01*
X77919432Y-46400145D01*
X77904580Y-46468418D01*
X77883430Y-46496673D01*
X77761503Y-46618600D01*
X77625965Y-46812169D01*
X77625964Y-46812171D01*
X77526098Y-47026335D01*
X77526094Y-47026344D01*
X77464938Y-47254586D01*
X77464936Y-47254596D01*
X77444341Y-47489999D01*
X77000500Y-47489999D01*
X77000500Y-43506960D01*
X77001280Y-43493076D01*
X77001282Y-43493059D01*
X77011459Y-43402732D01*
X77017637Y-43375667D01*
X77045353Y-43296456D01*
X77057396Y-43271450D01*
X77102046Y-43200389D01*
X77119351Y-43178690D01*
X77178690Y-43119351D01*
X77200389Y-43102046D01*
X77271450Y-43057396D01*
X77296456Y-43045353D01*
X77375670Y-43017635D01*
X77402733Y-43011459D01*
X77465326Y-43004407D01*
X77493080Y-43001280D01*
X77506963Y-43000500D01*
X77565893Y-43000500D01*
X98434108Y-43000500D01*
X98493041Y-43000500D01*
X98506923Y-43001280D01*
G37*
%TD.AperFunction*%
%TD*%
%TA.AperFunction,Conductor*%
%TO.N,Board_1-GND*%
G36*
X132506923Y-20501280D02*
G01*
X132523412Y-20503137D01*
X132597268Y-20511458D01*
X132624325Y-20517633D01*
X132703547Y-20545354D01*
X132728550Y-20557395D01*
X132799607Y-20602043D01*
X132821314Y-20619355D01*
X132880646Y-20678687D01*
X132897958Y-20700395D01*
X132942601Y-20771442D01*
X132954650Y-20796462D01*
X132982364Y-20875667D01*
X132988542Y-20902735D01*
X132998720Y-20993059D01*
X132999500Y-21006944D01*
X132999500Y-31493040D01*
X132998720Y-31506923D01*
X132988541Y-31597265D01*
X132982362Y-31624337D01*
X132954649Y-31703535D01*
X132942602Y-31728552D01*
X132897957Y-31799604D01*
X132880644Y-31821313D01*
X132821313Y-31880644D01*
X132799604Y-31897957D01*
X132728552Y-31942602D01*
X132703535Y-31954649D01*
X132624337Y-31982362D01*
X132597266Y-31988541D01*
X132532898Y-31995793D01*
X132506922Y-31998720D01*
X132493041Y-31999500D01*
X111506963Y-31999500D01*
X111493079Y-31998720D01*
X111480554Y-31997308D01*
X111402736Y-31988540D01*
X111375667Y-31982362D01*
X111296463Y-31954648D01*
X111271444Y-31942599D01*
X111200398Y-31897957D01*
X111178690Y-31880645D01*
X111119356Y-31821311D01*
X111102043Y-31799602D01*
X111057399Y-31728552D01*
X111045354Y-31703539D01*
X111017637Y-31624331D01*
X111011462Y-31597277D01*
X111001278Y-31506892D01*
X111000500Y-31493020D01*
X111000500Y-24989999D01*
X111444341Y-24989999D01*
X111444341Y-24990000D01*
X111464936Y-25225403D01*
X111464938Y-25225413D01*
X111526094Y-25453655D01*
X111526096Y-25453659D01*
X111526097Y-25453663D01*
X111625965Y-25667830D01*
X111625967Y-25667834D01*
X111761501Y-25861395D01*
X111761506Y-25861402D01*
X111928597Y-26028493D01*
X111928603Y-26028498D01*
X112114158Y-26158425D01*
X112157783Y-26213002D01*
X112164977Y-26282500D01*
X112133454Y-26344855D01*
X112114158Y-26361575D01*
X111928597Y-26491505D01*
X111761505Y-26658597D01*
X111625965Y-26852169D01*
X111625964Y-26852171D01*
X111526098Y-27066335D01*
X111526094Y-27066344D01*
X111464938Y-27294586D01*
X111464936Y-27294596D01*
X111444341Y-27529999D01*
X111444341Y-27530000D01*
X111464936Y-27765403D01*
X111464938Y-27765413D01*
X111526094Y-27993655D01*
X111526096Y-27993659D01*
X111526097Y-27993663D01*
X111625965Y-28207830D01*
X111625967Y-28207834D01*
X111761501Y-28401395D01*
X111761506Y-28401402D01*
X111928597Y-28568493D01*
X111928603Y-28568498D01*
X112114594Y-28698730D01*
X112158219Y-28753307D01*
X112165413Y-28822805D01*
X112133890Y-28885160D01*
X112114595Y-28901880D01*
X111928922Y-29031890D01*
X111928920Y-29031891D01*
X111761891Y-29198920D01*
X111761886Y-29198926D01*
X111626400Y-29392420D01*
X111626399Y-29392422D01*
X111526570Y-29606507D01*
X111526567Y-29606513D01*
X111469364Y-29819999D01*
X111469364Y-29820000D01*
X112366988Y-29820000D01*
X112334075Y-29877007D01*
X112300000Y-30004174D01*
X112300000Y-30135826D01*
X112334075Y-30262993D01*
X112366988Y-30320000D01*
X111469364Y-30320000D01*
X111526567Y-30533486D01*
X111526570Y-30533492D01*
X111626399Y-30747578D01*
X111761894Y-30941082D01*
X111928917Y-31108105D01*
X112122421Y-31243600D01*
X112336507Y-31343429D01*
X112336516Y-31343433D01*
X112550000Y-31400634D01*
X112550000Y-30503012D01*
X112607007Y-30535925D01*
X112734174Y-30570000D01*
X112865826Y-30570000D01*
X112992993Y-30535925D01*
X113050000Y-30503012D01*
X113050000Y-31400633D01*
X113263483Y-31343433D01*
X113263492Y-31343429D01*
X113477578Y-31243600D01*
X113671082Y-31108105D01*
X113838105Y-30941082D01*
X113973600Y-30747578D01*
X114073429Y-30533492D01*
X114073432Y-30533486D01*
X114130636Y-30320000D01*
X113233012Y-30320000D01*
X113265925Y-30262993D01*
X113300000Y-30135826D01*
X113300000Y-30004174D01*
X113265925Y-29877007D01*
X113233012Y-29820000D01*
X114130636Y-29820000D01*
X114130635Y-29819999D01*
X114073432Y-29606513D01*
X114073429Y-29606507D01*
X113973600Y-29392422D01*
X113973599Y-29392420D01*
X113838113Y-29198926D01*
X113838108Y-29198920D01*
X113671078Y-29031890D01*
X113485405Y-28901879D01*
X113441780Y-28847302D01*
X113434588Y-28777804D01*
X113466110Y-28715449D01*
X113485406Y-28698730D01*
X113671401Y-28568495D01*
X113838495Y-28401401D01*
X113974035Y-28207830D01*
X114073903Y-27993663D01*
X114135063Y-27765408D01*
X114155659Y-27530000D01*
X114135063Y-27294592D01*
X114073903Y-27066337D01*
X113974035Y-26852171D01*
X113838495Y-26658599D01*
X113838494Y-26658597D01*
X113671402Y-26491506D01*
X113671396Y-26491501D01*
X113485842Y-26361575D01*
X113442217Y-26306998D01*
X113435023Y-26237500D01*
X113466546Y-26175145D01*
X113485842Y-26158425D01*
X113508026Y-26142891D01*
X113671401Y-26028495D01*
X113838495Y-25861401D01*
X113974035Y-25667830D01*
X114073903Y-25453663D01*
X114135063Y-25225408D01*
X114155659Y-24990000D01*
X114135063Y-24754592D01*
X114073903Y-24526337D01*
X113974035Y-24312171D01*
X113962489Y-24295682D01*
X113838496Y-24118600D01*
X113838495Y-24118599D01*
X113716567Y-23996671D01*
X113683084Y-23935351D01*
X113688068Y-23865659D01*
X113729939Y-23809725D01*
X113760915Y-23792810D01*
X113892331Y-23743796D01*
X114007546Y-23657546D01*
X114093796Y-23542331D01*
X114103991Y-23514996D01*
X123994435Y-23514996D01*
X123994435Y-23515003D01*
X124014630Y-23694249D01*
X124014631Y-23694254D01*
X124074211Y-23864523D01*
X124074925Y-23865659D01*
X124170184Y-24017262D01*
X124297738Y-24144816D01*
X124450478Y-24240789D01*
X124450480Y-24240789D01*
X124450484Y-24240792D01*
X124456756Y-24243813D01*
X124455869Y-24245653D01*
X124491937Y-24268305D01*
X124519315Y-24295683D01*
X124519315Y-24295682D01*
X124577470Y-24353838D01*
X124577924Y-24354263D01*
X124593671Y-24370011D01*
X124760467Y-24498000D01*
X124760479Y-24498009D01*
X124942569Y-24603143D01*
X125136823Y-24683613D01*
X125339918Y-24738040D01*
X125548380Y-24765495D01*
X125572823Y-24765495D01*
X125572889Y-24765500D01*
X125653511Y-24765500D01*
X125732392Y-24765504D01*
X125732397Y-24765502D01*
X125738786Y-24765503D01*
X125738863Y-24765500D01*
X129750028Y-24765500D01*
X129790983Y-24772458D01*
X129870745Y-24800368D01*
X129870750Y-24800369D01*
X130049996Y-24820565D01*
X130050000Y-24820565D01*
X130050004Y-24820565D01*
X130229249Y-24800369D01*
X130229252Y-24800368D01*
X130229255Y-24800368D01*
X130399522Y-24740789D01*
X130552262Y-24644816D01*
X130679816Y-24517262D01*
X130775789Y-24364522D01*
X130835368Y-24194255D01*
X130835369Y-24194249D01*
X130855565Y-24015003D01*
X130855565Y-24014996D01*
X130835369Y-23835750D01*
X130835368Y-23835745D01*
X130803194Y-23743797D01*
X130775789Y-23665478D01*
X130679816Y-23512738D01*
X130552262Y-23385184D01*
X130494031Y-23348595D01*
X130399523Y-23289211D01*
X130229254Y-23229631D01*
X130229249Y-23229630D01*
X130050004Y-23209435D01*
X130049996Y-23209435D01*
X129870750Y-23229630D01*
X129870745Y-23229631D01*
X129790983Y-23257542D01*
X129750028Y-23264500D01*
X125662230Y-23264500D01*
X125595191Y-23244815D01*
X125574549Y-23228181D01*
X125553307Y-23206939D01*
X125530653Y-23170869D01*
X125528813Y-23171756D01*
X125525792Y-23165484D01*
X125525789Y-23165480D01*
X125525789Y-23165478D01*
X125429816Y-23012738D01*
X125302262Y-22885184D01*
X125234966Y-22842899D01*
X130824500Y-22842899D01*
X130824500Y-22968101D01*
X130856905Y-23089036D01*
X130919505Y-23197464D01*
X131008036Y-23285995D01*
X131116464Y-23348595D01*
X131237399Y-23381000D01*
X131237401Y-23381000D01*
X131362599Y-23381000D01*
X131362601Y-23381000D01*
X131483536Y-23348595D01*
X131591964Y-23285995D01*
X131680495Y-23197464D01*
X131743095Y-23089036D01*
X131775500Y-22968101D01*
X131775500Y-22842899D01*
X131743095Y-22721964D01*
X131680495Y-22613536D01*
X131591964Y-22525005D01*
X131483536Y-22462405D01*
X131483537Y-22462405D01*
X131443224Y-22451603D01*
X131362601Y-22430000D01*
X131237399Y-22430000D01*
X131156775Y-22451603D01*
X131116463Y-22462405D01*
X131008037Y-22525004D01*
X131008034Y-22525006D01*
X130919506Y-22613534D01*
X130919504Y-22613537D01*
X130856905Y-22721963D01*
X130854850Y-22729632D01*
X130824500Y-22842899D01*
X125234966Y-22842899D01*
X125149523Y-22789211D01*
X124979254Y-22729631D01*
X124979249Y-22729630D01*
X124800004Y-22709435D01*
X124799996Y-22709435D01*
X124620750Y-22729630D01*
X124620745Y-22729631D01*
X124450476Y-22789211D01*
X124297737Y-22885184D01*
X124170184Y-23012737D01*
X124074211Y-23165476D01*
X124014631Y-23335745D01*
X124014630Y-23335750D01*
X123994435Y-23514996D01*
X114103991Y-23514996D01*
X114144091Y-23407483D01*
X114150500Y-23347873D01*
X114150499Y-21552128D01*
X114144091Y-21492517D01*
X114093796Y-21357669D01*
X114093795Y-21357668D01*
X114093793Y-21357664D01*
X114007547Y-21242455D01*
X114007544Y-21242452D01*
X113892335Y-21156206D01*
X113892328Y-21156202D01*
X113757482Y-21105908D01*
X113757483Y-21105908D01*
X113697883Y-21099501D01*
X113697881Y-21099500D01*
X113697873Y-21099500D01*
X113697864Y-21099500D01*
X111902129Y-21099500D01*
X111902123Y-21099501D01*
X111842516Y-21105908D01*
X111707671Y-21156202D01*
X111707664Y-21156206D01*
X111592455Y-21242452D01*
X111592452Y-21242455D01*
X111506206Y-21357664D01*
X111506202Y-21357671D01*
X111455908Y-21492517D01*
X111449501Y-21552116D01*
X111449501Y-21552123D01*
X111449500Y-21552135D01*
X111449500Y-23347870D01*
X111449501Y-23347876D01*
X111455908Y-23407483D01*
X111506202Y-23542328D01*
X111506206Y-23542335D01*
X111592452Y-23657544D01*
X111592455Y-23657547D01*
X111707664Y-23743793D01*
X111707671Y-23743797D01*
X111839081Y-23792810D01*
X111895015Y-23834681D01*
X111919432Y-23900145D01*
X111904580Y-23968418D01*
X111883430Y-23996673D01*
X111761503Y-24118600D01*
X111625965Y-24312169D01*
X111625964Y-24312171D01*
X111526098Y-24526335D01*
X111526094Y-24526344D01*
X111464938Y-24754586D01*
X111464936Y-24754596D01*
X111444341Y-24989999D01*
X111000500Y-24989999D01*
X111000500Y-21006960D01*
X111001280Y-20993076D01*
X111001282Y-20993059D01*
X111011459Y-20902732D01*
X111017637Y-20875667D01*
X111045353Y-20796456D01*
X111057396Y-20771450D01*
X111102046Y-20700389D01*
X111119351Y-20678690D01*
X111178690Y-20619351D01*
X111200389Y-20602046D01*
X111271450Y-20557396D01*
X111296456Y-20545353D01*
X111375670Y-20517635D01*
X111402733Y-20511459D01*
X111465326Y-20504407D01*
X111493080Y-20501280D01*
X111506963Y-20500500D01*
X111565893Y-20500500D01*
X132434108Y-20500500D01*
X132493041Y-20500500D01*
X132506923Y-20501280D01*
G37*
%TD.AperFunction*%
%TD*%
M02*
