%TF.GenerationSoftware,KiCad,Pcbnew,8.0.8-8.0.8-0~ubuntu24.04.1*%
%TF.CreationDate,2025-02-18T11:40:43+01:00*%
%TF.ProjectId,SPU0410LR5H_panel,53505530-3431-4304-9c52-35485f70616e,rev?*%
%TF.SameCoordinates,Original*%
%TF.FileFunction,Drillmap*%
%TF.FilePolarity,Positive*%
%FSLAX45Y45*%
G04 Gerber Fmt 4.5, Leading zero omitted, Abs format (unit mm)*
G04 Created by KiCad (PCBNEW 8.0.8-8.0.8-0~ubuntu24.04.1) date 2025-02-18 11:40:43*
%MOMM*%
%LPD*%
G01*
G04 APERTURE LIST*
%ADD10C,0.100000*%
%ADD11C,0.200000*%
G04 APERTURE END LIST*
D10*
X9902896Y-5484864D02*
X9907127Y-5482076D01*
X11104601Y-4260899D02*
X11100000Y-4263397D01*
X13322479Y-3218897D02*
X13325876Y-3215137D01*
X11124118Y-4253407D02*
X11119098Y-4254894D01*
X9894039Y-5489780D02*
X9898530Y-5487435D01*
X13316913Y-4275685D02*
X13312932Y-4272285D01*
X7650548Y-2089547D02*
X7650137Y-2094766D01*
X9948847Y-3165143D02*
X9949487Y-3160117D01*
X7450000Y-3550050D02*
X7449900Y-2775000D01*
X9904464Y-4266133D02*
X9900000Y-4263397D01*
X13339101Y-4304601D02*
X13336603Y-4300000D01*
X7653407Y-2074118D02*
X7652185Y-2079209D01*
X11091222Y-5480902D02*
X11095536Y-5483867D01*
X7700000Y-5486603D02*
X7704601Y-5489101D01*
X13265143Y-5498847D02*
X13270130Y-5497953D01*
X10250000Y-3550050D02*
X9333333Y-3550050D01*
X7650000Y-2475000D02*
X7449900Y-2475000D01*
X7672285Y-2037068D02*
X7669098Y-2041221D01*
X13324314Y-4283087D02*
X13320711Y-4279289D01*
X11050137Y-3155233D02*
X11050548Y-3160453D01*
X7744766Y-2000137D02*
X7739547Y-2000548D01*
X7700000Y-4263397D02*
X7695536Y-4266133D01*
X7656642Y-2064163D02*
X7654894Y-2069098D01*
X9870130Y-3247953D02*
X9875065Y-3246808D01*
X9949872Y-5405065D02*
X9950000Y-5400000D01*
X9941355Y-2059326D02*
X9939101Y-2054601D01*
X11119098Y-3245106D02*
X11124118Y-3246592D01*
X13350000Y-2475000D02*
X13350000Y-2100000D01*
X9870791Y-2002185D02*
X9865643Y-2001231D01*
X9855065Y-5499872D02*
X9860117Y-5499487D01*
X13550100Y-2000000D02*
X13550100Y-2475000D01*
X11066133Y-4295536D02*
X11063397Y-4300000D01*
X9939101Y-4304601D02*
X9936603Y-4300000D01*
X13308779Y-2019098D02*
X13304464Y-2016133D01*
X11060899Y-4304601D02*
X11058645Y-4309326D01*
X11052185Y-5420791D02*
X11053408Y-5425882D01*
X13279936Y-5495414D02*
X13284730Y-5493775D01*
X11114163Y-5493358D02*
X11119098Y-5495106D01*
X13330902Y-4291221D02*
X13327715Y-4287068D01*
X7650000Y-5400000D02*
X7650137Y-5405234D01*
X7714163Y-3243358D02*
X7719098Y-3245106D01*
X11052185Y-4329209D02*
X11051231Y-4334357D01*
X7449900Y-5025000D02*
X7650000Y-5025000D01*
X10750000Y-3550050D02*
X10750000Y-2775000D01*
X13260453Y-2000548D02*
X13255234Y-2000137D01*
X13280902Y-4254894D02*
X13275882Y-4253407D01*
X7658646Y-5440674D02*
X7660899Y-5445399D01*
X11072285Y-4287068D02*
X11069098Y-4291221D01*
X7709326Y-4258645D02*
X7704601Y-4260899D01*
X12433333Y-3550050D02*
X11966667Y-3550050D01*
X9907127Y-3232076D02*
X9911211Y-3229078D01*
X7709326Y-5491355D02*
X7714163Y-5493358D01*
X9946808Y-3175065D02*
X9947953Y-3170130D01*
X9930902Y-2041221D02*
X9927715Y-2037068D01*
X13265643Y-2001231D02*
X13260453Y-2000548D01*
X9930902Y-4291221D02*
X9927715Y-4287068D01*
X7724118Y-2003407D02*
X7719098Y-2004894D01*
X13341355Y-2059326D02*
X13339101Y-2054601D01*
X7695536Y-2016133D02*
X7691221Y-2019098D01*
X13345414Y-5429936D02*
X13346808Y-5425065D01*
X11966667Y-3550050D02*
X11966667Y-3250000D01*
X13260117Y-5499487D02*
X13265143Y-5498847D01*
X11058645Y-2059326D02*
X11056642Y-2064163D01*
X9911211Y-3229078D02*
X9915137Y-3225876D01*
X11114163Y-3243358D02*
X11119098Y-3245106D01*
X7654894Y-4319098D02*
X7653407Y-4324118D01*
X7654894Y-3180902D02*
X7656642Y-3185837D01*
X7750000Y-5500000D02*
X9850000Y-5500000D01*
X9950000Y-2100000D02*
X9949863Y-2094766D01*
X13260117Y-3249487D02*
X13265143Y-3248847D01*
X11139547Y-3249452D02*
X11144766Y-3249863D01*
X9912932Y-2022285D02*
X9908779Y-2019098D01*
X13308779Y-4269098D02*
X13304464Y-4266133D01*
X11966667Y-3250000D02*
X12433333Y-3250000D01*
X7650000Y-2775000D02*
X7650000Y-3150000D01*
X11129209Y-4252185D02*
X11124118Y-4253407D01*
X7666133Y-5454464D02*
X7669098Y-5458778D01*
X12433333Y-3250000D02*
X12433333Y-3550050D01*
X11051231Y-5415643D02*
X11052185Y-5420791D01*
X13349487Y-3160117D02*
X13349872Y-3155065D01*
X11666667Y-3950050D02*
X11666667Y-4250000D01*
X7652185Y-3170791D02*
X7653407Y-3175882D01*
X9333333Y-4250000D02*
X9333333Y-3950050D01*
X13345414Y-3179936D02*
X13346808Y-3175065D01*
X13349872Y-3155065D02*
X13350000Y-3150000D01*
X13550100Y-4725000D02*
X13550000Y-3950050D01*
X13339780Y-3194039D02*
X13341896Y-3189436D01*
X7739547Y-4250548D02*
X7734356Y-4251231D01*
X11119098Y-4254894D02*
X11114163Y-4256642D01*
X9855065Y-3249872D02*
X9860117Y-3249487D01*
X9860453Y-2000548D02*
X9855234Y-2000137D01*
X7450000Y-3950050D02*
X7650000Y-3950050D01*
X7666133Y-2045536D02*
X7663397Y-2050000D01*
X9924315Y-2033087D02*
X9920711Y-2029289D01*
X11066133Y-5454464D02*
X11069098Y-5458778D01*
X7734356Y-3248769D02*
X7739547Y-3249452D01*
X7700000Y-3236602D02*
X7704601Y-3239101D01*
X11050137Y-5405234D02*
X11050548Y-5410453D01*
X13312932Y-2022285D02*
X13308779Y-2019098D01*
X7663397Y-5450000D02*
X7666133Y-5454464D01*
X7679289Y-2029289D02*
X7675685Y-2033087D01*
X7675686Y-3216913D02*
X7679289Y-3220711D01*
X7709326Y-3241354D02*
X7714163Y-3243358D01*
X13330902Y-2041221D02*
X13327715Y-2037068D01*
X11053408Y-3175882D02*
X11054895Y-3180902D01*
X8266667Y-3250000D02*
X8266667Y-3550050D01*
X13350000Y-4725000D02*
X13350000Y-4350000D01*
X13550100Y-5500000D02*
X14050100Y-5500000D01*
X13250000Y-3250000D02*
X13255065Y-3249872D01*
X7744766Y-3249863D02*
X7750000Y-3250000D01*
X11119098Y-2004894D02*
X11114163Y-2006642D01*
X11051231Y-3165643D02*
X11052185Y-3170791D01*
X7683087Y-2025685D02*
X7679289Y-2029289D01*
X13332076Y-5457127D02*
X13334864Y-5452896D01*
X11104601Y-2010899D02*
X11100000Y-2013397D01*
X13250000Y-4250000D02*
X12733333Y-4250000D01*
X11139547Y-5499452D02*
X11144766Y-5499863D01*
X11109326Y-2008645D02*
X11104601Y-2010899D01*
X13550100Y-2475000D02*
X13350000Y-2475000D01*
X7691221Y-2019098D02*
X7687068Y-2022285D01*
X13550100Y-4725000D02*
X13350000Y-4725000D01*
X12733333Y-3250000D02*
X13250000Y-3250000D01*
X7672285Y-5462932D02*
X7675686Y-5466913D01*
X9922479Y-5468897D02*
X9925876Y-5465137D01*
X11051231Y-4334357D02*
X11050548Y-4339547D01*
X10250000Y-4725000D02*
X9950000Y-4725000D01*
X13337435Y-5448530D02*
X13339780Y-5444039D01*
X7734356Y-2001231D02*
X7729209Y-2002185D01*
X7729209Y-3247815D02*
X7734356Y-3248769D01*
X9895399Y-2010899D02*
X9890674Y-2008645D01*
X11054895Y-5430902D02*
X11056642Y-5435837D01*
X13250000Y-2000000D02*
X11150000Y-2000000D01*
X7679289Y-5470711D02*
X7683087Y-5474314D01*
X11060899Y-2054601D02*
X11058645Y-2059326D01*
X9941896Y-5439436D02*
X9943775Y-5434731D01*
X7714163Y-5493358D02*
X7719098Y-5495106D01*
X9033333Y-3950050D02*
X9033333Y-4250000D01*
X7750000Y-3250000D02*
X8266667Y-3250000D01*
X11054894Y-4319098D02*
X11053407Y-4324118D01*
X14050100Y-5500000D02*
X14050100Y-2000000D01*
X13265143Y-3248847D02*
X13270130Y-3247953D01*
X11052185Y-3170791D02*
X11053408Y-3175882D01*
X11066133Y-2045536D02*
X11063397Y-2050000D01*
X13350000Y-3550050D02*
X12733333Y-3550050D01*
X9945414Y-5429936D02*
X9946808Y-5425065D01*
X13260453Y-4250548D02*
X13255234Y-4250137D01*
X7650548Y-5410453D02*
X7651231Y-5415643D01*
X11072285Y-2037068D02*
X11069098Y-2041221D01*
X7650000Y-4350000D02*
X7650000Y-4725000D01*
X7739547Y-5499452D02*
X7744766Y-5499863D01*
X9932076Y-5457127D02*
X9934864Y-5452896D01*
X9922479Y-3218897D02*
X9925876Y-3215137D01*
X13343775Y-5434731D02*
X13345414Y-5429936D01*
X11091222Y-3230902D02*
X11095536Y-3233867D01*
X13316913Y-2025685D02*
X13312932Y-2022285D01*
X7658645Y-4309326D02*
X7656642Y-4314163D01*
X11087068Y-4272285D02*
X11083087Y-4275686D01*
X7652185Y-2079209D02*
X7651231Y-2084356D01*
X7651231Y-4334357D02*
X7650548Y-4339547D01*
X9875065Y-5496808D02*
X9879936Y-5495414D01*
X7669098Y-2041221D02*
X7666133Y-2045536D01*
X9916913Y-2025685D02*
X9912932Y-2022285D01*
X13349487Y-5410117D02*
X13349872Y-5405065D01*
X7719098Y-2004894D02*
X7714163Y-2006642D01*
X12733333Y-3550050D02*
X12733333Y-3250000D01*
X13307127Y-5482076D02*
X13311211Y-5479078D01*
X9865143Y-3248847D02*
X9870130Y-3247953D01*
X11144766Y-5499863D02*
X11150000Y-5500000D01*
X7669098Y-3208778D02*
X7672285Y-3212932D01*
X8266667Y-3550050D02*
X7650000Y-3550050D01*
X13348847Y-3165143D02*
X13349487Y-3160117D01*
X10750000Y-5499900D02*
X10750000Y-5025000D01*
X11129209Y-2002185D02*
X11124118Y-2003407D01*
X9884731Y-5493775D02*
X9889436Y-5491896D01*
X9929078Y-5461211D02*
X9932076Y-5457127D01*
X7663397Y-3200000D02*
X7666133Y-3204464D01*
X9911211Y-5479078D02*
X9915137Y-5475876D01*
X13347953Y-3170130D02*
X13348847Y-3165143D01*
X7650000Y-2100000D02*
X7650000Y-2475000D01*
X8266667Y-3950050D02*
X8266667Y-4250000D01*
X11091221Y-2019098D02*
X11087068Y-2022285D01*
X13318897Y-5472479D02*
X13322479Y-5468897D01*
X9949452Y-4339547D02*
X9948769Y-4334357D01*
X9870130Y-5497953D02*
X9875065Y-5496808D01*
X13348769Y-4334357D02*
X13347815Y-4329209D01*
X9933867Y-2045536D02*
X9930902Y-2041221D01*
X13284730Y-3243775D02*
X13289436Y-3241896D01*
X7449900Y-5500000D02*
X7449900Y-5025000D01*
X10750000Y-2475000D02*
X10750000Y-2000000D01*
X7734356Y-5498769D02*
X7739547Y-5499452D01*
X9920711Y-2029289D02*
X9916913Y-2025685D01*
X13348769Y-2084356D02*
X13347815Y-2079209D01*
X9936603Y-4300000D02*
X9933867Y-4295536D01*
X7672285Y-3212932D02*
X7675686Y-3216913D01*
X13343358Y-4314163D02*
X13341355Y-4309326D01*
X13329078Y-5461211D02*
X13332076Y-5457127D01*
X13550000Y-3550050D02*
X13350000Y-3550050D01*
X13350000Y-3150000D02*
X13350000Y-2775000D01*
X7650000Y-5025000D02*
X7650000Y-5400000D01*
X11050000Y-3150000D02*
X11050137Y-3155233D01*
X9033333Y-3550050D02*
X8566667Y-3550050D01*
X7660899Y-4304601D02*
X7658645Y-4309326D01*
X9889436Y-3241896D02*
X9894039Y-3239780D01*
X13341896Y-5439436D02*
X13343775Y-5434731D01*
X9894039Y-3239780D02*
X9898530Y-3237435D01*
X7652185Y-4329209D02*
X7651231Y-4334357D01*
X13250000Y-5500000D02*
X13255065Y-5499872D01*
X13343358Y-2064163D02*
X13341355Y-2059326D01*
X11134357Y-4251231D02*
X11129209Y-4252185D01*
X9946593Y-4324118D02*
X9945106Y-4319098D01*
X11050548Y-5410453D02*
X11051231Y-5415643D01*
X11666667Y-3250000D02*
X11666667Y-3550050D01*
X11144766Y-3249863D02*
X11150000Y-3250000D01*
X9949452Y-2089547D02*
X9948769Y-2084356D01*
X13312932Y-4272285D02*
X13308779Y-4269098D01*
X7724118Y-5496593D02*
X7729209Y-5497815D01*
X7666133Y-4295536D02*
X7663397Y-4300000D01*
X13329078Y-3211211D02*
X13332076Y-3207127D01*
X9939780Y-3194039D02*
X9941896Y-3189436D01*
X13285837Y-4256642D02*
X13280902Y-4254894D01*
X11060899Y-5445399D02*
X11063398Y-5450000D01*
X13270791Y-2002185D02*
X13265643Y-2001231D01*
X13285837Y-2006642D02*
X13280902Y-2004894D01*
X11050000Y-2775000D02*
X11050000Y-3150000D01*
X13255065Y-5499872D02*
X13260117Y-5499487D01*
X9943358Y-2064163D02*
X9941355Y-2059326D01*
X11100000Y-2013397D02*
X11095536Y-2016133D01*
X9918897Y-5472479D02*
X9922479Y-5468897D01*
X11075686Y-3216913D02*
X11079289Y-3220711D01*
X13327715Y-2037068D02*
X13324314Y-2033087D01*
X9033333Y-4250000D02*
X8566667Y-4250000D01*
X11104601Y-5489101D02*
X11109326Y-5491355D01*
X9950000Y-4725000D02*
X9950000Y-4350000D01*
X13279936Y-3245414D02*
X13284730Y-3243775D01*
X7660899Y-3195399D02*
X7663397Y-3200000D01*
X13270130Y-3247953D02*
X13275065Y-3246808D01*
X7691221Y-4269098D02*
X7687068Y-4272285D01*
X13315137Y-5475876D02*
X13318897Y-5472479D01*
X11072286Y-5462932D02*
X11075686Y-5466913D01*
X7654894Y-5430902D02*
X7656642Y-5435837D01*
X7691221Y-3230902D02*
X7695536Y-3233867D01*
X13270130Y-5497953D02*
X13275065Y-5496808D01*
X7663397Y-4300000D02*
X7660899Y-4304601D01*
X9860453Y-4250548D02*
X9855234Y-4250137D01*
X7652185Y-5420791D02*
X7653407Y-5425882D01*
X13302896Y-5484864D02*
X13307127Y-5482076D01*
X7704601Y-3239101D02*
X7709326Y-3241354D01*
X10250000Y-2475000D02*
X9950000Y-2475000D01*
X7750000Y-4250000D02*
X7744766Y-4250137D01*
X10750000Y-3950050D02*
X11666667Y-3950050D01*
X9950000Y-5025000D02*
X10250000Y-5025000D01*
X9850000Y-3250000D02*
X9855065Y-3249872D01*
X9907127Y-5482076D02*
X9911211Y-5479078D01*
X13289436Y-3241896D02*
X13294039Y-3239780D01*
X13325876Y-3215137D02*
X13329078Y-3211211D01*
X9949487Y-3160117D02*
X9949872Y-3155065D01*
X11072286Y-3212932D02*
X11075686Y-3216913D01*
X12433333Y-3950050D02*
X12433333Y-4250000D01*
X11100000Y-4263397D02*
X11095536Y-4266133D01*
X10250000Y-5499900D02*
X10750000Y-5499900D01*
X7656642Y-5435837D02*
X7658646Y-5440674D01*
X9884731Y-3243775D02*
X9889436Y-3241896D01*
X13300000Y-2013397D02*
X13295399Y-2010899D01*
X11060899Y-3195399D02*
X11063398Y-3200000D01*
X11075686Y-2033087D02*
X11072285Y-2037068D01*
X13307127Y-3232076D02*
X13311211Y-3229078D01*
X11150000Y-4250000D02*
X11144766Y-4250137D01*
X11050000Y-4350000D02*
X11050000Y-4725000D01*
X8566667Y-3550050D02*
X8566667Y-3250000D01*
X13348847Y-5415143D02*
X13349487Y-5410117D01*
X7704601Y-2010899D02*
X7700000Y-2013397D01*
X13346808Y-3175065D02*
X13347953Y-3170130D01*
X9865143Y-5498847D02*
X9870130Y-5497953D01*
X9879936Y-5495414D02*
X9884731Y-5493775D01*
X10750000Y-5025000D02*
X11050000Y-5025000D01*
X11058645Y-4309326D02*
X11056642Y-4314163D01*
X11069098Y-5458778D02*
X11072286Y-5462932D01*
X11056642Y-5435837D02*
X11058646Y-5440674D01*
X13255065Y-3249872D02*
X13260117Y-3249487D01*
X11053408Y-5425882D02*
X11054895Y-5430902D01*
X9932076Y-3207127D02*
X9934864Y-3202896D01*
X7679289Y-3220711D02*
X7683087Y-3224314D01*
X13265643Y-4251231D02*
X13260453Y-4250548D01*
X7449900Y-2775000D02*
X7650000Y-2775000D01*
X10750000Y-2775000D02*
X11050000Y-2775000D01*
X11150000Y-3250000D02*
X11666667Y-3250000D01*
X11056642Y-3185837D02*
X11058646Y-3190674D01*
X11063397Y-2050000D02*
X11060899Y-2054601D01*
X7683087Y-4275686D02*
X7679289Y-4279289D01*
X8266667Y-4250000D02*
X7750000Y-4250000D01*
X7744766Y-5499863D02*
X7750000Y-5500000D01*
X13255234Y-2000137D02*
X13250000Y-2000000D01*
X9900000Y-2013397D02*
X9895399Y-2010899D01*
X7650137Y-4344766D02*
X7650000Y-4350000D01*
X11095536Y-3233867D02*
X11100000Y-3236602D01*
X11100000Y-5486603D02*
X11104601Y-5489101D01*
X7724118Y-3246592D02*
X7729209Y-3247815D01*
X13350000Y-4350000D02*
X13349863Y-4344766D01*
X13345106Y-4319098D02*
X13343358Y-4314163D01*
X9948769Y-4334357D02*
X9947815Y-4329209D01*
X13333867Y-2045536D02*
X13330902Y-2041221D01*
X9850000Y-5500000D02*
X9855065Y-5499872D01*
X9889436Y-5491896D02*
X9894039Y-5489780D01*
X11058646Y-3190674D02*
X11060899Y-3195399D01*
X9850000Y-2000000D02*
X7750000Y-2000000D01*
X11063398Y-3200000D02*
X11066133Y-3204464D01*
X9898530Y-5487435D02*
X9902896Y-5484864D01*
X13347953Y-5420130D02*
X13348847Y-5415143D01*
X9947953Y-5420130D02*
X9948847Y-5415143D01*
X7687068Y-2022285D02*
X7683087Y-2025685D01*
X9879936Y-3245414D02*
X9884731Y-3243775D01*
X11083087Y-3224314D02*
X11087068Y-3227714D01*
X9949872Y-3155065D02*
X9950000Y-3150000D01*
X9950000Y-2475000D02*
X9950000Y-2100000D01*
X13350000Y-2100000D02*
X13349863Y-2094766D01*
X9855234Y-4250137D02*
X9850000Y-4250000D01*
X7656642Y-4314163D02*
X7654894Y-4319098D01*
X13346593Y-2074118D02*
X13345106Y-2069098D01*
X13290674Y-2008645D02*
X13285837Y-2006642D01*
X9945106Y-2069098D02*
X9943358Y-2064163D01*
X11079289Y-5470711D02*
X11083087Y-5474314D01*
X11063397Y-4300000D02*
X11060899Y-4304601D01*
X9880902Y-4254894D02*
X9875882Y-4253407D01*
X7687068Y-4272285D02*
X7683087Y-4275686D01*
X7654894Y-2069098D02*
X7653407Y-2074118D01*
X9949487Y-5410117D02*
X9949872Y-5405065D01*
X13284730Y-5493775D02*
X13289436Y-5491896D01*
X8566667Y-3950050D02*
X9033333Y-3950050D01*
X11050000Y-2100000D02*
X11050000Y-2475000D01*
X7675685Y-2033087D02*
X7672285Y-2037068D01*
X13275882Y-4253407D02*
X13270791Y-4252185D01*
X11100000Y-3236602D02*
X11104601Y-3239101D01*
X13339780Y-5444039D02*
X13341896Y-5439436D01*
X13332076Y-3207127D02*
X13334864Y-3202896D01*
X9941355Y-4309326D02*
X9939101Y-4304601D01*
X13304464Y-4266133D02*
X13300000Y-4263397D01*
X9912932Y-4272285D02*
X9908779Y-4269098D01*
X11139547Y-4250548D02*
X11134357Y-4251231D01*
X11083087Y-5474314D02*
X11087068Y-5477715D01*
X11114163Y-4256642D02*
X11109326Y-4258645D01*
X9950000Y-3150000D02*
X9950000Y-2775000D01*
X7695536Y-5483867D02*
X7700000Y-5486603D01*
X9855234Y-2000137D02*
X9850000Y-2000000D01*
X10750000Y-4725000D02*
X10750000Y-3950050D01*
X11083087Y-2025685D02*
X11079289Y-2029289D01*
X13334864Y-5452896D02*
X13337435Y-5448530D01*
X9915137Y-5475876D02*
X9918897Y-5472479D01*
X11079289Y-2029289D02*
X11075686Y-2033087D01*
X9865643Y-4251231D02*
X9860453Y-4250548D01*
X7719098Y-5495106D02*
X7724118Y-5496593D01*
X13350000Y-2775000D02*
X13550100Y-2775000D01*
X11966667Y-3950050D02*
X12433333Y-3950050D01*
X7719098Y-4254894D02*
X7714163Y-4256642D01*
X7650548Y-3160453D02*
X7651231Y-3165643D01*
X13346593Y-4324118D02*
X13345106Y-4319098D01*
X11053407Y-2074118D02*
X11052185Y-2079209D01*
X11050000Y-5400000D02*
X11050137Y-5405234D01*
X9948847Y-5415143D02*
X9949487Y-5410117D01*
X11095536Y-4266133D02*
X11091221Y-4269098D01*
X13322479Y-5468897D02*
X13325876Y-5465137D01*
X13341896Y-3189436D02*
X13343775Y-3184730D01*
X13275065Y-5496808D02*
X13279936Y-5495414D01*
X9947815Y-4329209D02*
X9946593Y-4324118D01*
X13346808Y-5425065D02*
X13347953Y-5420130D01*
X9904464Y-2016133D02*
X9900000Y-2013397D01*
X11087068Y-3227714D02*
X11091222Y-3230902D01*
X7739547Y-2000548D02*
X7734356Y-2001231D01*
X7650000Y-4725000D02*
X7449900Y-4725000D01*
X9950000Y-4350000D02*
X9949863Y-4344766D01*
X9333333Y-3950050D02*
X10250000Y-3950050D01*
X13270791Y-4252185D02*
X13265643Y-4251231D01*
X11114163Y-2006642D02*
X11109326Y-2008645D01*
X14050100Y-2000000D02*
X13550100Y-2000000D01*
X9943775Y-5434731D02*
X9945414Y-5429936D01*
X7683087Y-5474314D02*
X7687068Y-5477715D01*
X13550100Y-5025000D02*
X13550100Y-5500000D01*
X13294039Y-3239780D02*
X13298530Y-3237435D01*
X7714163Y-2006642D02*
X7709326Y-2008645D01*
X6949900Y-2000000D02*
X6949900Y-5500000D01*
X11069098Y-4291221D02*
X11066133Y-4295536D01*
X11087068Y-5477715D02*
X11091222Y-5480902D01*
X9925876Y-5465137D02*
X9929078Y-5461211D01*
X9890674Y-2008645D02*
X9885837Y-2006642D01*
X7750000Y-2000000D02*
X7744766Y-2000137D01*
X11095536Y-2016133D02*
X11091221Y-2019098D01*
X8566667Y-4250000D02*
X8566667Y-3950050D01*
X13336603Y-2050000D02*
X13333867Y-2045536D01*
X13350000Y-5400000D02*
X13350000Y-5025000D01*
X11150000Y-5500000D02*
X13250000Y-5500000D01*
X9885837Y-4256642D02*
X9880902Y-4254894D01*
X9865643Y-2001231D02*
X9860453Y-2000548D01*
X7729209Y-4252185D02*
X7724118Y-4253407D01*
X7719098Y-3245106D02*
X7724118Y-3246592D01*
X11966667Y-4250000D02*
X11966667Y-3950050D01*
X11150000Y-2000000D02*
X11144766Y-2000137D01*
X13341355Y-4309326D02*
X13339101Y-4304601D01*
X11124118Y-2003407D02*
X11119098Y-2004894D01*
X7729209Y-5497815D02*
X7734356Y-5498769D01*
X11666667Y-3550050D02*
X10750000Y-3550050D01*
X12433333Y-4250000D02*
X11966667Y-4250000D01*
X7650137Y-5405234D02*
X7650548Y-5410453D01*
X11124118Y-3246592D02*
X11129209Y-3247815D01*
X7653407Y-5425882D02*
X7654894Y-5430902D01*
X13255234Y-4250137D02*
X13250000Y-4250000D01*
X11058646Y-5440674D02*
X11060899Y-5445399D01*
X11104601Y-3239101D02*
X11109326Y-3241354D01*
X9924315Y-4283087D02*
X9920711Y-4279289D01*
X11134357Y-5498769D02*
X11139547Y-5499452D01*
X9890674Y-4258645D02*
X9885837Y-4256642D01*
X10250000Y-5025000D02*
X10250000Y-5499900D01*
X7724118Y-4253407D02*
X7719098Y-4254894D01*
X7744766Y-4250137D02*
X7739547Y-4250548D01*
X9885837Y-2006642D02*
X9880902Y-2004894D01*
X11666667Y-4250000D02*
X11150000Y-4250000D01*
X9333333Y-3550050D02*
X9333333Y-3250000D01*
X9915137Y-3225876D02*
X9918897Y-3222479D01*
X9927715Y-4287068D02*
X9924315Y-4283087D01*
X13311211Y-3229078D02*
X13315137Y-3225876D01*
X13350000Y-5025000D02*
X13550100Y-5025000D01*
X7734356Y-4251231D02*
X7729209Y-4252185D01*
X13349872Y-5405065D02*
X13350000Y-5400000D01*
X7658646Y-3190674D02*
X7660899Y-3195399D01*
X12733333Y-3950050D02*
X13350000Y-3950050D01*
X9929078Y-3211211D02*
X9932076Y-3207127D01*
X13298530Y-5487435D02*
X13302896Y-5484864D01*
X13334864Y-3202896D02*
X13337435Y-3198530D01*
X13337435Y-3198530D02*
X13339780Y-3194039D01*
X13300000Y-4263397D02*
X13295399Y-4260899D01*
X9946593Y-2074118D02*
X9945106Y-2069098D01*
X7651231Y-3165643D02*
X7652185Y-3170791D01*
X9850000Y-4250000D02*
X9333333Y-4250000D01*
X11051231Y-2084356D02*
X11050548Y-2089547D01*
X9895399Y-4260899D02*
X9890674Y-4258645D01*
X13327715Y-4287068D02*
X13324314Y-4283087D01*
X7691221Y-5480902D02*
X7695536Y-5483867D01*
X9945414Y-3179936D02*
X9946808Y-3175065D01*
X7669098Y-5458778D02*
X7672285Y-5462932D01*
X7650137Y-2094766D02*
X7650000Y-2100000D01*
X9908779Y-4269098D02*
X9904464Y-4266133D01*
X7714163Y-4256642D02*
X7709326Y-4258645D01*
X9948769Y-2084356D02*
X9947815Y-2079209D01*
X13290674Y-4258645D02*
X13285837Y-4256642D01*
X11144766Y-2000137D02*
X11139547Y-2000548D01*
X7675685Y-4283087D02*
X7672285Y-4287068D01*
X11050000Y-2475000D02*
X10750000Y-2475000D01*
X7650000Y-3950050D02*
X8266667Y-3950050D01*
X11069098Y-2041221D02*
X11066133Y-2045536D01*
X7709326Y-2008645D02*
X7704601Y-2010899D01*
X13349863Y-4344766D02*
X13349452Y-4339547D01*
X7653407Y-3175882D02*
X7654894Y-3180902D01*
X9934864Y-3202896D02*
X9937435Y-3198530D01*
X13349863Y-2094766D02*
X13349452Y-2089547D01*
X7658645Y-2059326D02*
X7656642Y-2064163D01*
X13343775Y-3184730D02*
X13345414Y-3179936D01*
X13347815Y-4329209D02*
X13346593Y-4324118D01*
X13339101Y-2054601D02*
X13336603Y-2050000D01*
X7704601Y-5489101D02*
X7709326Y-5491355D01*
X9937435Y-3198530D02*
X9939780Y-3194039D01*
X13318897Y-3222479D02*
X13322479Y-3218897D01*
X13275882Y-2003407D02*
X13270791Y-2002185D01*
X7650000Y-3550050D02*
X7450000Y-3550050D01*
X8566667Y-3250000D02*
X9033333Y-3250000D01*
X7672285Y-4287068D02*
X7669098Y-4291221D01*
X9925876Y-3215137D02*
X9929078Y-3211211D01*
X11134357Y-3248769D02*
X11139547Y-3249452D01*
X9916913Y-4275685D02*
X9912932Y-4272285D01*
X11139547Y-2000548D02*
X11134357Y-2001231D01*
X7650137Y-3155233D02*
X7650548Y-3160453D01*
X11087068Y-2022285D02*
X11083087Y-2025685D01*
X11050548Y-4339547D02*
X11050137Y-4344766D01*
X13324314Y-2033087D02*
X13320711Y-2029289D01*
X13315137Y-3225876D02*
X13318897Y-3222479D01*
X13294039Y-5489780D02*
X13298530Y-5487435D01*
X13336603Y-4300000D02*
X13333867Y-4295536D01*
X11129209Y-5497815D02*
X11134357Y-5498769D01*
X9943775Y-3184730D02*
X9945414Y-3179936D01*
X11091221Y-4269098D02*
X11087068Y-4272285D01*
X11144766Y-4250137D02*
X11139547Y-4250548D01*
X7669098Y-4291221D02*
X7666133Y-4295536D01*
X9947815Y-2079209D02*
X9946593Y-2074118D01*
X9920711Y-4279289D02*
X9916913Y-4275685D01*
X11109326Y-5491355D02*
X11114163Y-5493358D01*
X9880902Y-2004894D02*
X9875882Y-2003407D01*
X11083087Y-4275686D02*
X11079289Y-4279289D01*
X11095536Y-5483867D02*
X11100000Y-5486603D01*
X13325876Y-5465137D02*
X13329078Y-5461211D01*
X7449900Y-2475000D02*
X7449900Y-2000000D01*
X9033333Y-3250000D02*
X9033333Y-3550050D01*
X11050000Y-4725000D02*
X10750000Y-4725000D01*
X13280902Y-2004894D02*
X13275882Y-2003407D01*
X7729209Y-2002185D02*
X7724118Y-2003407D01*
X13302896Y-3234864D02*
X13307127Y-3232076D01*
X13349452Y-4339547D02*
X13348769Y-4334357D01*
X9918897Y-3222479D02*
X9922479Y-3218897D01*
X9900000Y-4263397D02*
X9895399Y-4260899D01*
X11050137Y-2094766D02*
X11050000Y-2100000D01*
X13304464Y-2016133D02*
X13300000Y-2013397D01*
X9949863Y-4344766D02*
X9949452Y-4339547D01*
X9939101Y-2054601D02*
X9936603Y-2050000D01*
X7651231Y-5415643D02*
X7652185Y-5420791D01*
X9898530Y-3237435D02*
X9902896Y-3234864D01*
X13295399Y-4260899D02*
X13290674Y-4258645D01*
X13320711Y-2029289D02*
X13316913Y-2025685D01*
X11109326Y-3241354D02*
X11114163Y-3243358D01*
X11054894Y-2069098D02*
X11053407Y-2074118D01*
X11079289Y-4279289D02*
X11075686Y-4283087D01*
X9947953Y-3170130D02*
X9948847Y-3165143D01*
X7700000Y-2013397D02*
X7695536Y-2016133D01*
X9950000Y-2775000D02*
X10250000Y-2775000D01*
X7651231Y-2084356D02*
X7650548Y-2089547D01*
X11052185Y-2079209D02*
X11051231Y-2084356D01*
X7449900Y-4725000D02*
X7450000Y-3950050D01*
X9333333Y-3250000D02*
X9850000Y-3250000D01*
X9875065Y-3246808D02*
X9879936Y-3245414D01*
X13295399Y-2010899D02*
X13290674Y-2008645D01*
X9875882Y-2003407D02*
X9870791Y-2002185D01*
X7660899Y-5445399D02*
X7663397Y-5450000D01*
X7683087Y-3224314D02*
X7687068Y-3227714D01*
X13349452Y-2089547D02*
X13348769Y-2084356D01*
X9943358Y-4314163D02*
X9941355Y-4309326D01*
X7663397Y-2050000D02*
X7660899Y-2054601D01*
X11050548Y-3160453D02*
X11051231Y-3165643D01*
X11050548Y-2089547D02*
X11050137Y-2094766D01*
X11075686Y-5466913D02*
X11079289Y-5470711D01*
X7687068Y-5477715D02*
X7691221Y-5480902D01*
X10250000Y-2775000D02*
X10250000Y-3550050D01*
X11124118Y-5496593D02*
X11129209Y-5497815D01*
X13333867Y-4295536D02*
X13330902Y-4291221D01*
X9933867Y-4295536D02*
X9930902Y-4291221D01*
X11079289Y-3220711D02*
X11083087Y-3224314D01*
X7656642Y-3185837D02*
X7658646Y-3190674D01*
X9927715Y-2037068D02*
X9924315Y-2033087D01*
X9950000Y-5400000D02*
X9950000Y-5025000D01*
X9860117Y-5499487D02*
X9865143Y-5498847D01*
X7675686Y-5466913D02*
X7679289Y-5470711D01*
X11069098Y-3208778D02*
X11072286Y-3212932D01*
X7650548Y-4339547D02*
X7650137Y-4344766D01*
X10750000Y-2000000D02*
X10250000Y-2000000D01*
X9939780Y-5444039D02*
X9941896Y-5439436D01*
X9860117Y-3249487D02*
X9865143Y-3248847D01*
X11054895Y-3180902D02*
X11056642Y-3185837D01*
X9934864Y-5452896D02*
X9937435Y-5448530D01*
X13350000Y-3950050D02*
X13550000Y-3950050D01*
X9949863Y-2094766D02*
X9949452Y-2089547D01*
X12733333Y-4250000D02*
X12733333Y-3950050D01*
X11134357Y-2001231D02*
X11129209Y-2002185D01*
X7666133Y-3204464D02*
X7669098Y-3208778D01*
X13311211Y-5479078D02*
X13315137Y-5475876D01*
X9945106Y-4319098D02*
X9943358Y-4314163D01*
X7687068Y-3227714D02*
X7691221Y-3230902D01*
X11056642Y-2064163D02*
X11054894Y-2069098D01*
X7695536Y-4266133D02*
X7691221Y-4269098D01*
X13347815Y-2079209D02*
X13346593Y-2074118D01*
X7653407Y-4324118D02*
X7652185Y-4329209D01*
X11109326Y-4258645D02*
X11104601Y-4260899D01*
X13289436Y-5491896D02*
X13294039Y-5489780D01*
X13320711Y-4279289D02*
X13316913Y-4275685D01*
X11066133Y-3204464D02*
X11069098Y-3208778D01*
X9875882Y-4253407D02*
X9870791Y-4252185D01*
X11119098Y-5495106D02*
X11124118Y-5496593D01*
X11129209Y-3247815D02*
X11134357Y-3248769D01*
X9946808Y-5425065D02*
X9947953Y-5420130D01*
X9902896Y-3234864D02*
X9907127Y-3232076D01*
X7739547Y-3249452D02*
X7744766Y-3249863D01*
X13275065Y-3246808D02*
X13279936Y-3245414D01*
X10250000Y-3950050D02*
X10250000Y-4725000D01*
X7695536Y-3233867D02*
X7700000Y-3236602D01*
X9870791Y-4252185D02*
X9865643Y-4251231D01*
X11056642Y-4314163D02*
X11054894Y-4319098D01*
X7660899Y-2054601D02*
X7658645Y-2059326D01*
X6949900Y-5500000D02*
X7449900Y-5500000D01*
X9936603Y-2050000D02*
X9933867Y-2045536D01*
X13550000Y-3550050D02*
X13550100Y-2775000D01*
X11053407Y-4324118D02*
X11052185Y-4329209D01*
X11075686Y-4283087D02*
X11072285Y-4287068D01*
X13345106Y-2069098D02*
X13343358Y-2064163D01*
X13298530Y-3237435D02*
X13302896Y-3234864D01*
X11050137Y-4344766D02*
X11050000Y-4350000D01*
X9941896Y-3189436D02*
X9943775Y-3184730D01*
X9937435Y-5448530D02*
X9939780Y-5444039D01*
X7704601Y-4260899D02*
X7700000Y-4263397D01*
X9908779Y-2019098D02*
X9904464Y-2016133D01*
X11063398Y-5450000D02*
X11066133Y-5454464D01*
X7679289Y-4279289D02*
X7675685Y-4283087D01*
X7449900Y-2000000D02*
X6949900Y-2000000D01*
X10250000Y-2000000D02*
X10250000Y-2475000D01*
X11050000Y-5025000D02*
X11050000Y-5400000D01*
X7650000Y-3150000D02*
X7650137Y-3155233D01*
D11*
D10*
X8060000Y-2985000D02*
X8090000Y-3015000D01*
X8090000Y-2985000D02*
X8060000Y-3015000D01*
X8060000Y-5235000D02*
X8090000Y-5265000D01*
X8090000Y-5235000D02*
X8060000Y-5265000D01*
X8135000Y-3085000D02*
X8165000Y-3115000D01*
X8165000Y-3085000D02*
X8135000Y-3115000D01*
X8135000Y-5335000D02*
X8165000Y-5365000D01*
X8165000Y-5335000D02*
X8135000Y-5365000D01*
X8235000Y-2985000D02*
X8265000Y-3015000D01*
X8265000Y-2985000D02*
X8235000Y-3015000D01*
X8235000Y-5235000D02*
X8265000Y-5265000D01*
X8265000Y-5235000D02*
X8235000Y-5265000D01*
X8310000Y-3085000D02*
X8340000Y-3115000D01*
X8340000Y-3085000D02*
X8310000Y-3115000D01*
X8310000Y-5335000D02*
X8340000Y-5365000D01*
X8340000Y-5335000D02*
X8310000Y-5365000D01*
X8410000Y-2211500D02*
X8440000Y-2241500D01*
X8440000Y-2211500D02*
X8410000Y-2241500D01*
X8410000Y-2985000D02*
X8440000Y-3015000D01*
X8440000Y-2985000D02*
X8410000Y-3015000D01*
X8410000Y-4461500D02*
X8440000Y-4491500D01*
X8440000Y-4461500D02*
X8410000Y-4491500D01*
X8410000Y-5235000D02*
X8440000Y-5265000D01*
X8440000Y-5235000D02*
X8410000Y-5265000D01*
X8485000Y-3085000D02*
X8515000Y-3115000D01*
X8515000Y-3085000D02*
X8485000Y-3115000D01*
X8485000Y-5335000D02*
X8515000Y-5365000D01*
X8515000Y-5335000D02*
X8485000Y-5365000D01*
X8585000Y-2211500D02*
X8615000Y-2241500D01*
X8615000Y-2211500D02*
X8585000Y-2241500D01*
X8585000Y-2985000D02*
X8615000Y-3015000D01*
X8615000Y-2985000D02*
X8585000Y-3015000D01*
X8585000Y-4461500D02*
X8615000Y-4491500D01*
X8615000Y-4461500D02*
X8585000Y-4491500D01*
X8585000Y-5235000D02*
X8615000Y-5265000D01*
X8615000Y-5235000D02*
X8585000Y-5265000D01*
X8660000Y-3085000D02*
X8690000Y-3115000D01*
X8690000Y-3085000D02*
X8660000Y-3115000D01*
X8660000Y-5335000D02*
X8690000Y-5365000D01*
X8690000Y-5335000D02*
X8660000Y-5365000D01*
X8760000Y-2211500D02*
X8790000Y-2241500D01*
X8790000Y-2211500D02*
X8760000Y-2241500D01*
X8760000Y-2985000D02*
X8790000Y-3015000D01*
X8790000Y-2985000D02*
X8760000Y-3015000D01*
X8760000Y-4461500D02*
X8790000Y-4491500D01*
X8790000Y-4461500D02*
X8760000Y-4491500D01*
X8760000Y-5235000D02*
X8790000Y-5265000D01*
X8790000Y-5235000D02*
X8760000Y-5265000D01*
X8860000Y-2485000D02*
X8890000Y-2515000D01*
X8890000Y-2485000D02*
X8860000Y-2515000D01*
X8860000Y-4735000D02*
X8890000Y-4765000D01*
X8890000Y-4735000D02*
X8860000Y-4765000D01*
X8935000Y-2585000D02*
X8965000Y-2615000D01*
X8965000Y-2585000D02*
X8935000Y-2615000D01*
X8935000Y-4835000D02*
X8965000Y-4865000D01*
X8965000Y-4835000D02*
X8935000Y-4865000D01*
X9065000Y-2336500D02*
X9095000Y-2366500D01*
X9095000Y-2336500D02*
X9065000Y-2366500D01*
X9065000Y-4586500D02*
X9095000Y-4616500D01*
X9095000Y-4586500D02*
X9065000Y-4616500D01*
X9310000Y-2185000D02*
X9340000Y-2215000D01*
X9340000Y-2185000D02*
X9310000Y-2215000D01*
X9310000Y-4435000D02*
X9340000Y-4465000D01*
X9340000Y-4435000D02*
X9310000Y-4465000D01*
X9335000Y-3085000D02*
X9365000Y-3115000D01*
X9365000Y-3085000D02*
X9335000Y-3115000D01*
X9335000Y-5335000D02*
X9365000Y-5365000D01*
X9365000Y-5335000D02*
X9335000Y-5365000D01*
X9410000Y-2085000D02*
X9440000Y-2115000D01*
X9440000Y-2085000D02*
X9410000Y-2115000D01*
X9410000Y-4335000D02*
X9440000Y-4365000D01*
X9440000Y-4335000D02*
X9410000Y-4365000D01*
X9435000Y-2985000D02*
X9465000Y-3015000D01*
X9465000Y-2985000D02*
X9435000Y-3015000D01*
X9435000Y-5235000D02*
X9465000Y-5265000D01*
X9465000Y-5235000D02*
X9435000Y-5265000D01*
X9485000Y-2185000D02*
X9515000Y-2215000D01*
X9515000Y-2185000D02*
X9485000Y-2215000D01*
X9485000Y-4435000D02*
X9515000Y-4465000D01*
X9515000Y-4435000D02*
X9485000Y-4465000D01*
X9510000Y-3085000D02*
X9540000Y-3115000D01*
X9540000Y-3085000D02*
X9510000Y-3115000D01*
X9510000Y-5335000D02*
X9540000Y-5365000D01*
X9540000Y-5335000D02*
X9510000Y-5365000D01*
X9585000Y-2085000D02*
X9615000Y-2115000D01*
X9615000Y-2085000D02*
X9585000Y-2115000D01*
X9585000Y-4335000D02*
X9615000Y-4365000D01*
X9615000Y-4335000D02*
X9585000Y-4365000D01*
X9590000Y-2386500D02*
X9620000Y-2416500D01*
X9620000Y-2386500D02*
X9590000Y-2416500D01*
X9590000Y-4636500D02*
X9620000Y-4666500D01*
X9620000Y-4636500D02*
X9590000Y-4666500D01*
X9715000Y-2396050D02*
X9745000Y-2426050D01*
X9745000Y-2396050D02*
X9715000Y-2426050D01*
X9715000Y-2585000D02*
X9745000Y-2615000D01*
X9745000Y-2585000D02*
X9715000Y-2615000D01*
X9715000Y-4646050D02*
X9745000Y-4676050D01*
X9745000Y-4646050D02*
X9715000Y-4676050D01*
X9715000Y-4835000D02*
X9745000Y-4865000D01*
X9745000Y-4835000D02*
X9715000Y-4865000D01*
X11460000Y-2985000D02*
X11490000Y-3015000D01*
X11490000Y-2985000D02*
X11460000Y-3015000D01*
X11460000Y-5235000D02*
X11490000Y-5265000D01*
X11490000Y-5235000D02*
X11460000Y-5265000D01*
X11535000Y-3085000D02*
X11565000Y-3115000D01*
X11565000Y-3085000D02*
X11535000Y-3115000D01*
X11535000Y-5335000D02*
X11565000Y-5365000D01*
X11565000Y-5335000D02*
X11535000Y-5365000D01*
X11635000Y-2985000D02*
X11665000Y-3015000D01*
X11665000Y-2985000D02*
X11635000Y-3015000D01*
X11635000Y-5235000D02*
X11665000Y-5265000D01*
X11665000Y-5235000D02*
X11635000Y-5265000D01*
X11710000Y-3085000D02*
X11740000Y-3115000D01*
X11740000Y-3085000D02*
X11710000Y-3115000D01*
X11710000Y-5335000D02*
X11740000Y-5365000D01*
X11740000Y-5335000D02*
X11710000Y-5365000D01*
X11810000Y-2211500D02*
X11840000Y-2241500D01*
X11840000Y-2211500D02*
X11810000Y-2241500D01*
X11810000Y-2985000D02*
X11840000Y-3015000D01*
X11840000Y-2985000D02*
X11810000Y-3015000D01*
X11810000Y-4461500D02*
X11840000Y-4491500D01*
X11840000Y-4461500D02*
X11810000Y-4491500D01*
X11810000Y-5235000D02*
X11840000Y-5265000D01*
X11840000Y-5235000D02*
X11810000Y-5265000D01*
X11885000Y-3085000D02*
X11915000Y-3115000D01*
X11915000Y-3085000D02*
X11885000Y-3115000D01*
X11885000Y-5335000D02*
X11915000Y-5365000D01*
X11915000Y-5335000D02*
X11885000Y-5365000D01*
X11985000Y-2211500D02*
X12015000Y-2241500D01*
X12015000Y-2211500D02*
X11985000Y-2241500D01*
X11985000Y-2985000D02*
X12015000Y-3015000D01*
X12015000Y-2985000D02*
X11985000Y-3015000D01*
X11985000Y-4461500D02*
X12015000Y-4491500D01*
X12015000Y-4461500D02*
X11985000Y-4491500D01*
X11985000Y-5235000D02*
X12015000Y-5265000D01*
X12015000Y-5235000D02*
X11985000Y-5265000D01*
X12060000Y-3085000D02*
X12090000Y-3115000D01*
X12090000Y-3085000D02*
X12060000Y-3115000D01*
X12060000Y-5335000D02*
X12090000Y-5365000D01*
X12090000Y-5335000D02*
X12060000Y-5365000D01*
X12160000Y-2211500D02*
X12190000Y-2241500D01*
X12190000Y-2211500D02*
X12160000Y-2241500D01*
X12160000Y-2985000D02*
X12190000Y-3015000D01*
X12190000Y-2985000D02*
X12160000Y-3015000D01*
X12160000Y-4461500D02*
X12190000Y-4491500D01*
X12190000Y-4461500D02*
X12160000Y-4491500D01*
X12160000Y-5235000D02*
X12190000Y-5265000D01*
X12190000Y-5235000D02*
X12160000Y-5265000D01*
X12260000Y-2485000D02*
X12290000Y-2515000D01*
X12290000Y-2485000D02*
X12260000Y-2515000D01*
X12260000Y-4735000D02*
X12290000Y-4765000D01*
X12290000Y-4735000D02*
X12260000Y-4765000D01*
X12335000Y-2585000D02*
X12365000Y-2615000D01*
X12365000Y-2585000D02*
X12335000Y-2615000D01*
X12335000Y-4835000D02*
X12365000Y-4865000D01*
X12365000Y-4835000D02*
X12335000Y-4865000D01*
X12465000Y-2336500D02*
X12495000Y-2366500D01*
X12495000Y-2336500D02*
X12465000Y-2366500D01*
X12465000Y-4586500D02*
X12495000Y-4616500D01*
X12495000Y-4586500D02*
X12465000Y-4616500D01*
X12710000Y-2185000D02*
X12740000Y-2215000D01*
X12740000Y-2185000D02*
X12710000Y-2215000D01*
X12710000Y-4435000D02*
X12740000Y-4465000D01*
X12740000Y-4435000D02*
X12710000Y-4465000D01*
X12735000Y-3085000D02*
X12765000Y-3115000D01*
X12765000Y-3085000D02*
X12735000Y-3115000D01*
X12735000Y-5335000D02*
X12765000Y-5365000D01*
X12765000Y-5335000D02*
X12735000Y-5365000D01*
X12810000Y-2085000D02*
X12840000Y-2115000D01*
X12840000Y-2085000D02*
X12810000Y-2115000D01*
X12810000Y-4335000D02*
X12840000Y-4365000D01*
X12840000Y-4335000D02*
X12810000Y-4365000D01*
X12835000Y-2985000D02*
X12865000Y-3015000D01*
X12865000Y-2985000D02*
X12835000Y-3015000D01*
X12835000Y-5235000D02*
X12865000Y-5265000D01*
X12865000Y-5235000D02*
X12835000Y-5265000D01*
X12885000Y-2185000D02*
X12915000Y-2215000D01*
X12915000Y-2185000D02*
X12885000Y-2215000D01*
X12885000Y-4435000D02*
X12915000Y-4465000D01*
X12915000Y-4435000D02*
X12885000Y-4465000D01*
X12910000Y-3085000D02*
X12940000Y-3115000D01*
X12940000Y-3085000D02*
X12910000Y-3115000D01*
X12910000Y-5335000D02*
X12940000Y-5365000D01*
X12940000Y-5335000D02*
X12910000Y-5365000D01*
X12985000Y-2085000D02*
X13015000Y-2115000D01*
X13015000Y-2085000D02*
X12985000Y-2115000D01*
X12985000Y-4335000D02*
X13015000Y-4365000D01*
X13015000Y-4335000D02*
X12985000Y-4365000D01*
X12990000Y-2386500D02*
X13020000Y-2416500D01*
X13020000Y-2386500D02*
X12990000Y-2416500D01*
X12990000Y-4636500D02*
X13020000Y-4666500D01*
X13020000Y-4636500D02*
X12990000Y-4666500D01*
X13115000Y-2396050D02*
X13145000Y-2426050D01*
X13145000Y-2396050D02*
X13115000Y-2426050D01*
X13115000Y-2585000D02*
X13145000Y-2615000D01*
X13145000Y-2585000D02*
X13115000Y-2615000D01*
X13115000Y-4646050D02*
X13145000Y-4676050D01*
X13145000Y-4646050D02*
X13115000Y-4676050D01*
X13115000Y-4835000D02*
X13145000Y-4865000D01*
X13145000Y-4835000D02*
X13115000Y-4865000D01*
X7930000Y-2245000D02*
G75*
G02*
X7830000Y-2245000I-50000J0D01*
G01*
X7830000Y-2245000D02*
G75*
G02*
X7930000Y-2245000I50000J0D01*
G01*
X7930000Y-2499000D02*
G75*
G02*
X7830000Y-2499000I-50000J0D01*
G01*
X7830000Y-2499000D02*
G75*
G02*
X7930000Y-2499000I50000J0D01*
G01*
X7930000Y-2753000D02*
G75*
G02*
X7830000Y-2753000I-50000J0D01*
G01*
X7830000Y-2753000D02*
G75*
G02*
X7930000Y-2753000I50000J0D01*
G01*
X7930000Y-3007000D02*
G75*
G02*
X7830000Y-3007000I-50000J0D01*
G01*
X7830000Y-3007000D02*
G75*
G02*
X7930000Y-3007000I50000J0D01*
G01*
X7930000Y-4495000D02*
G75*
G02*
X7830000Y-4495000I-50000J0D01*
G01*
X7830000Y-4495000D02*
G75*
G02*
X7930000Y-4495000I50000J0D01*
G01*
X7930000Y-4749000D02*
G75*
G02*
X7830000Y-4749000I-50000J0D01*
G01*
X7830000Y-4749000D02*
G75*
G02*
X7930000Y-4749000I50000J0D01*
G01*
X7930000Y-5003000D02*
G75*
G02*
X7830000Y-5003000I-50000J0D01*
G01*
X7830000Y-5003000D02*
G75*
G02*
X7930000Y-5003000I50000J0D01*
G01*
X7930000Y-5257000D02*
G75*
G02*
X7830000Y-5257000I-50000J0D01*
G01*
X7830000Y-5257000D02*
G75*
G02*
X7930000Y-5257000I50000J0D01*
G01*
X11330000Y-2245000D02*
G75*
G02*
X11230000Y-2245000I-50000J0D01*
G01*
X11230000Y-2245000D02*
G75*
G02*
X11330000Y-2245000I50000J0D01*
G01*
X11330000Y-2499000D02*
G75*
G02*
X11230000Y-2499000I-50000J0D01*
G01*
X11230000Y-2499000D02*
G75*
G02*
X11330000Y-2499000I50000J0D01*
G01*
X11330000Y-2753000D02*
G75*
G02*
X11230000Y-2753000I-50000J0D01*
G01*
X11230000Y-2753000D02*
G75*
G02*
X11330000Y-2753000I50000J0D01*
G01*
X11330000Y-3007000D02*
G75*
G02*
X11230000Y-3007000I-50000J0D01*
G01*
X11230000Y-3007000D02*
G75*
G02*
X11330000Y-3007000I50000J0D01*
G01*
X11330000Y-4495000D02*
G75*
G02*
X11230000Y-4495000I-50000J0D01*
G01*
X11230000Y-4495000D02*
G75*
G02*
X11330000Y-4495000I50000J0D01*
G01*
X11330000Y-4749000D02*
G75*
G02*
X11230000Y-4749000I-50000J0D01*
G01*
X11230000Y-4749000D02*
G75*
G02*
X11330000Y-4749000I50000J0D01*
G01*
X11330000Y-5003000D02*
G75*
G02*
X11230000Y-5003000I-50000J0D01*
G01*
X11230000Y-5003000D02*
G75*
G02*
X11330000Y-5003000I50000J0D01*
G01*
X11330000Y-5257000D02*
G75*
G02*
X11230000Y-5257000I-50000J0D01*
G01*
X11230000Y-5257000D02*
G75*
G02*
X11330000Y-5257000I50000J0D01*
G01*
D11*
X7205677Y-5816484D02*
X7205677Y-5616484D01*
X7205677Y-5616484D02*
X7253296Y-5616484D01*
X7253296Y-5616484D02*
X7281867Y-5626008D01*
X7281867Y-5626008D02*
X7300915Y-5645055D01*
X7300915Y-5645055D02*
X7310439Y-5664103D01*
X7310439Y-5664103D02*
X7319962Y-5702198D01*
X7319962Y-5702198D02*
X7319962Y-5730769D01*
X7319962Y-5730769D02*
X7310439Y-5768865D01*
X7310439Y-5768865D02*
X7300915Y-5787912D01*
X7300915Y-5787912D02*
X7281867Y-5806960D01*
X7281867Y-5806960D02*
X7253296Y-5816484D01*
X7253296Y-5816484D02*
X7205677Y-5816484D01*
X7405677Y-5816484D02*
X7405677Y-5683150D01*
X7405677Y-5721246D02*
X7415201Y-5702198D01*
X7415201Y-5702198D02*
X7424724Y-5692674D01*
X7424724Y-5692674D02*
X7443772Y-5683150D01*
X7443772Y-5683150D02*
X7462820Y-5683150D01*
X7529486Y-5816484D02*
X7529486Y-5683150D01*
X7529486Y-5616484D02*
X7519962Y-5626008D01*
X7519962Y-5626008D02*
X7529486Y-5635531D01*
X7529486Y-5635531D02*
X7539010Y-5626008D01*
X7539010Y-5626008D02*
X7529486Y-5616484D01*
X7529486Y-5616484D02*
X7529486Y-5635531D01*
X7653296Y-5816484D02*
X7634248Y-5806960D01*
X7634248Y-5806960D02*
X7624724Y-5787912D01*
X7624724Y-5787912D02*
X7624724Y-5616484D01*
X7758058Y-5816484D02*
X7739010Y-5806960D01*
X7739010Y-5806960D02*
X7729486Y-5787912D01*
X7729486Y-5787912D02*
X7729486Y-5616484D01*
X7986629Y-5816484D02*
X7986629Y-5616484D01*
X7986629Y-5616484D02*
X8053296Y-5759341D01*
X8053296Y-5759341D02*
X8119962Y-5616484D01*
X8119962Y-5616484D02*
X8119962Y-5816484D01*
X8300915Y-5816484D02*
X8300915Y-5711722D01*
X8300915Y-5711722D02*
X8291391Y-5692674D01*
X8291391Y-5692674D02*
X8272343Y-5683150D01*
X8272343Y-5683150D02*
X8234248Y-5683150D01*
X8234248Y-5683150D02*
X8215201Y-5692674D01*
X8300915Y-5806960D02*
X8281867Y-5816484D01*
X8281867Y-5816484D02*
X8234248Y-5816484D01*
X8234248Y-5816484D02*
X8215201Y-5806960D01*
X8215201Y-5806960D02*
X8205677Y-5787912D01*
X8205677Y-5787912D02*
X8205677Y-5768865D01*
X8205677Y-5768865D02*
X8215201Y-5749817D01*
X8215201Y-5749817D02*
X8234248Y-5740293D01*
X8234248Y-5740293D02*
X8281867Y-5740293D01*
X8281867Y-5740293D02*
X8300915Y-5730769D01*
X8396153Y-5683150D02*
X8396153Y-5883150D01*
X8396153Y-5692674D02*
X8415201Y-5683150D01*
X8415201Y-5683150D02*
X8453296Y-5683150D01*
X8453296Y-5683150D02*
X8472344Y-5692674D01*
X8472344Y-5692674D02*
X8481867Y-5702198D01*
X8481867Y-5702198D02*
X8491391Y-5721246D01*
X8491391Y-5721246D02*
X8491391Y-5778388D01*
X8491391Y-5778388D02*
X8481867Y-5797436D01*
X8481867Y-5797436D02*
X8472344Y-5806960D01*
X8472344Y-5806960D02*
X8453296Y-5816484D01*
X8453296Y-5816484D02*
X8415201Y-5816484D01*
X8415201Y-5816484D02*
X8396153Y-5806960D01*
X8577105Y-5797436D02*
X8586629Y-5806960D01*
X8586629Y-5806960D02*
X8577105Y-5816484D01*
X8577105Y-5816484D02*
X8567582Y-5806960D01*
X8567582Y-5806960D02*
X8577105Y-5797436D01*
X8577105Y-5797436D02*
X8577105Y-5816484D01*
X8577105Y-5692674D02*
X8586629Y-5702198D01*
X8586629Y-5702198D02*
X8577105Y-5711722D01*
X8577105Y-5711722D02*
X8567582Y-5702198D01*
X8567582Y-5702198D02*
X8577105Y-5692674D01*
X8577105Y-5692674D02*
X8577105Y-5711722D01*
D10*
X6914900Y-6130000D02*
X6944900Y-6160000D01*
X6944900Y-6130000D02*
X6914900Y-6160000D01*
D11*
X7243772Y-6036484D02*
X7262820Y-6036484D01*
X7262820Y-6036484D02*
X7281867Y-6046008D01*
X7281867Y-6046008D02*
X7291391Y-6055531D01*
X7291391Y-6055531D02*
X7300915Y-6074579D01*
X7300915Y-6074579D02*
X7310439Y-6112674D01*
X7310439Y-6112674D02*
X7310439Y-6160293D01*
X7310439Y-6160293D02*
X7300915Y-6198388D01*
X7300915Y-6198388D02*
X7291391Y-6217436D01*
X7291391Y-6217436D02*
X7281867Y-6226960D01*
X7281867Y-6226960D02*
X7262820Y-6236484D01*
X7262820Y-6236484D02*
X7243772Y-6236484D01*
X7243772Y-6236484D02*
X7224724Y-6226960D01*
X7224724Y-6226960D02*
X7215201Y-6217436D01*
X7215201Y-6217436D02*
X7205677Y-6198388D01*
X7205677Y-6198388D02*
X7196153Y-6160293D01*
X7196153Y-6160293D02*
X7196153Y-6112674D01*
X7196153Y-6112674D02*
X7205677Y-6074579D01*
X7205677Y-6074579D02*
X7215201Y-6055531D01*
X7215201Y-6055531D02*
X7224724Y-6046008D01*
X7224724Y-6046008D02*
X7243772Y-6036484D01*
X7396153Y-6217436D02*
X7405677Y-6226960D01*
X7405677Y-6226960D02*
X7396153Y-6236484D01*
X7396153Y-6236484D02*
X7386629Y-6226960D01*
X7386629Y-6226960D02*
X7396153Y-6217436D01*
X7396153Y-6217436D02*
X7396153Y-6236484D01*
X7472343Y-6036484D02*
X7596153Y-6036484D01*
X7596153Y-6036484D02*
X7529486Y-6112674D01*
X7529486Y-6112674D02*
X7558058Y-6112674D01*
X7558058Y-6112674D02*
X7577105Y-6122198D01*
X7577105Y-6122198D02*
X7586629Y-6131722D01*
X7586629Y-6131722D02*
X7596153Y-6150769D01*
X7596153Y-6150769D02*
X7596153Y-6198388D01*
X7596153Y-6198388D02*
X7586629Y-6217436D01*
X7586629Y-6217436D02*
X7577105Y-6226960D01*
X7577105Y-6226960D02*
X7558058Y-6236484D01*
X7558058Y-6236484D02*
X7500915Y-6236484D01*
X7500915Y-6236484D02*
X7481867Y-6226960D01*
X7481867Y-6226960D02*
X7472343Y-6217436D01*
X7719962Y-6036484D02*
X7739010Y-6036484D01*
X7739010Y-6036484D02*
X7758058Y-6046008D01*
X7758058Y-6046008D02*
X7767582Y-6055531D01*
X7767582Y-6055531D02*
X7777105Y-6074579D01*
X7777105Y-6074579D02*
X7786629Y-6112674D01*
X7786629Y-6112674D02*
X7786629Y-6160293D01*
X7786629Y-6160293D02*
X7777105Y-6198388D01*
X7777105Y-6198388D02*
X7767582Y-6217436D01*
X7767582Y-6217436D02*
X7758058Y-6226960D01*
X7758058Y-6226960D02*
X7739010Y-6236484D01*
X7739010Y-6236484D02*
X7719962Y-6236484D01*
X7719962Y-6236484D02*
X7700915Y-6226960D01*
X7700915Y-6226960D02*
X7691391Y-6217436D01*
X7691391Y-6217436D02*
X7681867Y-6198388D01*
X7681867Y-6198388D02*
X7672343Y-6160293D01*
X7672343Y-6160293D02*
X7672343Y-6112674D01*
X7672343Y-6112674D02*
X7681867Y-6074579D01*
X7681867Y-6074579D02*
X7691391Y-6055531D01*
X7691391Y-6055531D02*
X7700915Y-6046008D01*
X7700915Y-6046008D02*
X7719962Y-6036484D01*
X7910439Y-6036484D02*
X7929486Y-6036484D01*
X7929486Y-6036484D02*
X7948534Y-6046008D01*
X7948534Y-6046008D02*
X7958058Y-6055531D01*
X7958058Y-6055531D02*
X7967582Y-6074579D01*
X7967582Y-6074579D02*
X7977105Y-6112674D01*
X7977105Y-6112674D02*
X7977105Y-6160293D01*
X7977105Y-6160293D02*
X7967582Y-6198388D01*
X7967582Y-6198388D02*
X7958058Y-6217436D01*
X7958058Y-6217436D02*
X7948534Y-6226960D01*
X7948534Y-6226960D02*
X7929486Y-6236484D01*
X7929486Y-6236484D02*
X7910439Y-6236484D01*
X7910439Y-6236484D02*
X7891391Y-6226960D01*
X7891391Y-6226960D02*
X7881867Y-6217436D01*
X7881867Y-6217436D02*
X7872343Y-6198388D01*
X7872343Y-6198388D02*
X7862820Y-6160293D01*
X7862820Y-6160293D02*
X7862820Y-6112674D01*
X7862820Y-6112674D02*
X7872343Y-6074579D01*
X7872343Y-6074579D02*
X7881867Y-6055531D01*
X7881867Y-6055531D02*
X7891391Y-6046008D01*
X7891391Y-6046008D02*
X7910439Y-6036484D01*
X8062820Y-6236484D02*
X8062820Y-6103150D01*
X8062820Y-6122198D02*
X8072343Y-6112674D01*
X8072343Y-6112674D02*
X8091391Y-6103150D01*
X8091391Y-6103150D02*
X8119963Y-6103150D01*
X8119963Y-6103150D02*
X8139010Y-6112674D01*
X8139010Y-6112674D02*
X8148534Y-6131722D01*
X8148534Y-6131722D02*
X8148534Y-6236484D01*
X8148534Y-6131722D02*
X8158058Y-6112674D01*
X8158058Y-6112674D02*
X8177105Y-6103150D01*
X8177105Y-6103150D02*
X8205677Y-6103150D01*
X8205677Y-6103150D02*
X8224724Y-6112674D01*
X8224724Y-6112674D02*
X8234248Y-6131722D01*
X8234248Y-6131722D02*
X8234248Y-6236484D01*
X8329486Y-6236484D02*
X8329486Y-6103150D01*
X8329486Y-6122198D02*
X8339010Y-6112674D01*
X8339010Y-6112674D02*
X8358058Y-6103150D01*
X8358058Y-6103150D02*
X8386629Y-6103150D01*
X8386629Y-6103150D02*
X8405677Y-6112674D01*
X8405677Y-6112674D02*
X8415201Y-6131722D01*
X8415201Y-6131722D02*
X8415201Y-6236484D01*
X8415201Y-6131722D02*
X8424725Y-6112674D01*
X8424725Y-6112674D02*
X8443772Y-6103150D01*
X8443772Y-6103150D02*
X8472344Y-6103150D01*
X8472344Y-6103150D02*
X8491391Y-6112674D01*
X8491391Y-6112674D02*
X8500915Y-6131722D01*
X8500915Y-6131722D02*
X8500915Y-6236484D01*
X8891391Y-6026960D02*
X8719963Y-6284103D01*
X9148534Y-6036484D02*
X9167582Y-6036484D01*
X9167582Y-6036484D02*
X9186629Y-6046008D01*
X9186629Y-6046008D02*
X9196153Y-6055531D01*
X9196153Y-6055531D02*
X9205677Y-6074579D01*
X9205677Y-6074579D02*
X9215201Y-6112674D01*
X9215201Y-6112674D02*
X9215201Y-6160293D01*
X9215201Y-6160293D02*
X9205677Y-6198388D01*
X9205677Y-6198388D02*
X9196153Y-6217436D01*
X9196153Y-6217436D02*
X9186629Y-6226960D01*
X9186629Y-6226960D02*
X9167582Y-6236484D01*
X9167582Y-6236484D02*
X9148534Y-6236484D01*
X9148534Y-6236484D02*
X9129487Y-6226960D01*
X9129487Y-6226960D02*
X9119963Y-6217436D01*
X9119963Y-6217436D02*
X9110439Y-6198388D01*
X9110439Y-6198388D02*
X9100915Y-6160293D01*
X9100915Y-6160293D02*
X9100915Y-6112674D01*
X9100915Y-6112674D02*
X9110439Y-6074579D01*
X9110439Y-6074579D02*
X9119963Y-6055531D01*
X9119963Y-6055531D02*
X9129487Y-6046008D01*
X9129487Y-6046008D02*
X9148534Y-6036484D01*
X9300915Y-6217436D02*
X9310439Y-6226960D01*
X9310439Y-6226960D02*
X9300915Y-6236484D01*
X9300915Y-6236484D02*
X9291391Y-6226960D01*
X9291391Y-6226960D02*
X9300915Y-6217436D01*
X9300915Y-6217436D02*
X9300915Y-6236484D01*
X9434248Y-6036484D02*
X9453296Y-6036484D01*
X9453296Y-6036484D02*
X9472344Y-6046008D01*
X9472344Y-6046008D02*
X9481868Y-6055531D01*
X9481868Y-6055531D02*
X9491391Y-6074579D01*
X9491391Y-6074579D02*
X9500915Y-6112674D01*
X9500915Y-6112674D02*
X9500915Y-6160293D01*
X9500915Y-6160293D02*
X9491391Y-6198388D01*
X9491391Y-6198388D02*
X9481868Y-6217436D01*
X9481868Y-6217436D02*
X9472344Y-6226960D01*
X9472344Y-6226960D02*
X9453296Y-6236484D01*
X9453296Y-6236484D02*
X9434248Y-6236484D01*
X9434248Y-6236484D02*
X9415201Y-6226960D01*
X9415201Y-6226960D02*
X9405677Y-6217436D01*
X9405677Y-6217436D02*
X9396153Y-6198388D01*
X9396153Y-6198388D02*
X9386629Y-6160293D01*
X9386629Y-6160293D02*
X9386629Y-6112674D01*
X9386629Y-6112674D02*
X9396153Y-6074579D01*
X9396153Y-6074579D02*
X9405677Y-6055531D01*
X9405677Y-6055531D02*
X9415201Y-6046008D01*
X9415201Y-6046008D02*
X9434248Y-6036484D01*
X9691391Y-6236484D02*
X9577106Y-6236484D01*
X9634248Y-6236484D02*
X9634248Y-6036484D01*
X9634248Y-6036484D02*
X9615201Y-6065055D01*
X9615201Y-6065055D02*
X9596153Y-6084103D01*
X9596153Y-6084103D02*
X9577106Y-6093627D01*
X9881868Y-6236484D02*
X9767582Y-6236484D01*
X9824725Y-6236484D02*
X9824725Y-6036484D01*
X9824725Y-6036484D02*
X9805677Y-6065055D01*
X9805677Y-6065055D02*
X9786629Y-6084103D01*
X9786629Y-6084103D02*
X9767582Y-6093627D01*
X9996153Y-6122198D02*
X9977106Y-6112674D01*
X9977106Y-6112674D02*
X9967582Y-6103150D01*
X9967582Y-6103150D02*
X9958058Y-6084103D01*
X9958058Y-6084103D02*
X9958058Y-6074579D01*
X9958058Y-6074579D02*
X9967582Y-6055531D01*
X9967582Y-6055531D02*
X9977106Y-6046008D01*
X9977106Y-6046008D02*
X9996153Y-6036484D01*
X9996153Y-6036484D02*
X10034249Y-6036484D01*
X10034249Y-6036484D02*
X10053296Y-6046008D01*
X10053296Y-6046008D02*
X10062820Y-6055531D01*
X10062820Y-6055531D02*
X10072344Y-6074579D01*
X10072344Y-6074579D02*
X10072344Y-6084103D01*
X10072344Y-6084103D02*
X10062820Y-6103150D01*
X10062820Y-6103150D02*
X10053296Y-6112674D01*
X10053296Y-6112674D02*
X10034249Y-6122198D01*
X10034249Y-6122198D02*
X9996153Y-6122198D01*
X9996153Y-6122198D02*
X9977106Y-6131722D01*
X9977106Y-6131722D02*
X9967582Y-6141246D01*
X9967582Y-6141246D02*
X9958058Y-6160293D01*
X9958058Y-6160293D02*
X9958058Y-6198388D01*
X9958058Y-6198388D02*
X9967582Y-6217436D01*
X9967582Y-6217436D02*
X9977106Y-6226960D01*
X9977106Y-6226960D02*
X9996153Y-6236484D01*
X9996153Y-6236484D02*
X10034249Y-6236484D01*
X10034249Y-6236484D02*
X10053296Y-6226960D01*
X10053296Y-6226960D02*
X10062820Y-6217436D01*
X10062820Y-6217436D02*
X10072344Y-6198388D01*
X10072344Y-6198388D02*
X10072344Y-6160293D01*
X10072344Y-6160293D02*
X10062820Y-6141246D01*
X10062820Y-6141246D02*
X10053296Y-6131722D01*
X10053296Y-6131722D02*
X10034249Y-6122198D01*
X10148534Y-6036484D02*
X10148534Y-6074579D01*
X10224725Y-6036484D02*
X10224725Y-6074579D01*
X10519963Y-6312674D02*
X10510439Y-6303150D01*
X10510439Y-6303150D02*
X10491391Y-6274579D01*
X10491391Y-6274579D02*
X10481868Y-6255531D01*
X10481868Y-6255531D02*
X10472344Y-6226960D01*
X10472344Y-6226960D02*
X10462820Y-6179341D01*
X10462820Y-6179341D02*
X10462820Y-6141246D01*
X10462820Y-6141246D02*
X10472344Y-6093627D01*
X10472344Y-6093627D02*
X10481868Y-6065055D01*
X10481868Y-6065055D02*
X10491391Y-6046008D01*
X10491391Y-6046008D02*
X10510439Y-6017436D01*
X10510439Y-6017436D02*
X10519963Y-6007912D01*
X10700915Y-6236484D02*
X10586630Y-6236484D01*
X10643772Y-6236484D02*
X10643772Y-6036484D01*
X10643772Y-6036484D02*
X10624725Y-6065055D01*
X10624725Y-6065055D02*
X10605677Y-6084103D01*
X10605677Y-6084103D02*
X10586630Y-6093627D01*
X10824725Y-6036484D02*
X10843772Y-6036484D01*
X10843772Y-6036484D02*
X10862820Y-6046008D01*
X10862820Y-6046008D02*
X10872344Y-6055531D01*
X10872344Y-6055531D02*
X10881868Y-6074579D01*
X10881868Y-6074579D02*
X10891391Y-6112674D01*
X10891391Y-6112674D02*
X10891391Y-6160293D01*
X10891391Y-6160293D02*
X10881868Y-6198388D01*
X10881868Y-6198388D02*
X10872344Y-6217436D01*
X10872344Y-6217436D02*
X10862820Y-6226960D01*
X10862820Y-6226960D02*
X10843772Y-6236484D01*
X10843772Y-6236484D02*
X10824725Y-6236484D01*
X10824725Y-6236484D02*
X10805677Y-6226960D01*
X10805677Y-6226960D02*
X10796153Y-6217436D01*
X10796153Y-6217436D02*
X10786630Y-6198388D01*
X10786630Y-6198388D02*
X10777106Y-6160293D01*
X10777106Y-6160293D02*
X10777106Y-6112674D01*
X10777106Y-6112674D02*
X10786630Y-6074579D01*
X10786630Y-6074579D02*
X10796153Y-6055531D01*
X10796153Y-6055531D02*
X10805677Y-6046008D01*
X10805677Y-6046008D02*
X10824725Y-6036484D01*
X11015201Y-6036484D02*
X11034249Y-6036484D01*
X11034249Y-6036484D02*
X11053296Y-6046008D01*
X11053296Y-6046008D02*
X11062820Y-6055531D01*
X11062820Y-6055531D02*
X11072344Y-6074579D01*
X11072344Y-6074579D02*
X11081868Y-6112674D01*
X11081868Y-6112674D02*
X11081868Y-6160293D01*
X11081868Y-6160293D02*
X11072344Y-6198388D01*
X11072344Y-6198388D02*
X11062820Y-6217436D01*
X11062820Y-6217436D02*
X11053296Y-6226960D01*
X11053296Y-6226960D02*
X11034249Y-6236484D01*
X11034249Y-6236484D02*
X11015201Y-6236484D01*
X11015201Y-6236484D02*
X10996153Y-6226960D01*
X10996153Y-6226960D02*
X10986630Y-6217436D01*
X10986630Y-6217436D02*
X10977106Y-6198388D01*
X10977106Y-6198388D02*
X10967582Y-6160293D01*
X10967582Y-6160293D02*
X10967582Y-6112674D01*
X10967582Y-6112674D02*
X10977106Y-6074579D01*
X10977106Y-6074579D02*
X10986630Y-6055531D01*
X10986630Y-6055531D02*
X10996153Y-6046008D01*
X10996153Y-6046008D02*
X11015201Y-6036484D01*
X11319963Y-6236484D02*
X11319963Y-6036484D01*
X11405677Y-6236484D02*
X11405677Y-6131722D01*
X11405677Y-6131722D02*
X11396153Y-6112674D01*
X11396153Y-6112674D02*
X11377106Y-6103150D01*
X11377106Y-6103150D02*
X11348534Y-6103150D01*
X11348534Y-6103150D02*
X11329487Y-6112674D01*
X11329487Y-6112674D02*
X11319963Y-6122198D01*
X11529487Y-6236484D02*
X11510439Y-6226960D01*
X11510439Y-6226960D02*
X11500915Y-6217436D01*
X11500915Y-6217436D02*
X11491391Y-6198388D01*
X11491391Y-6198388D02*
X11491391Y-6141246D01*
X11491391Y-6141246D02*
X11500915Y-6122198D01*
X11500915Y-6122198D02*
X11510439Y-6112674D01*
X11510439Y-6112674D02*
X11529487Y-6103150D01*
X11529487Y-6103150D02*
X11558058Y-6103150D01*
X11558058Y-6103150D02*
X11577106Y-6112674D01*
X11577106Y-6112674D02*
X11586630Y-6122198D01*
X11586630Y-6122198D02*
X11596153Y-6141246D01*
X11596153Y-6141246D02*
X11596153Y-6198388D01*
X11596153Y-6198388D02*
X11586630Y-6217436D01*
X11586630Y-6217436D02*
X11577106Y-6226960D01*
X11577106Y-6226960D02*
X11558058Y-6236484D01*
X11558058Y-6236484D02*
X11529487Y-6236484D01*
X11710439Y-6236484D02*
X11691391Y-6226960D01*
X11691391Y-6226960D02*
X11681868Y-6207912D01*
X11681868Y-6207912D02*
X11681868Y-6036484D01*
X11862820Y-6226960D02*
X11843772Y-6236484D01*
X11843772Y-6236484D02*
X11805677Y-6236484D01*
X11805677Y-6236484D02*
X11786630Y-6226960D01*
X11786630Y-6226960D02*
X11777106Y-6207912D01*
X11777106Y-6207912D02*
X11777106Y-6131722D01*
X11777106Y-6131722D02*
X11786630Y-6112674D01*
X11786630Y-6112674D02*
X11805677Y-6103150D01*
X11805677Y-6103150D02*
X11843772Y-6103150D01*
X11843772Y-6103150D02*
X11862820Y-6112674D01*
X11862820Y-6112674D02*
X11872344Y-6131722D01*
X11872344Y-6131722D02*
X11872344Y-6150769D01*
X11872344Y-6150769D02*
X11777106Y-6169817D01*
X11948534Y-6226960D02*
X11967582Y-6236484D01*
X11967582Y-6236484D02*
X12005677Y-6236484D01*
X12005677Y-6236484D02*
X12024725Y-6226960D01*
X12024725Y-6226960D02*
X12034249Y-6207912D01*
X12034249Y-6207912D02*
X12034249Y-6198388D01*
X12034249Y-6198388D02*
X12024725Y-6179341D01*
X12024725Y-6179341D02*
X12005677Y-6169817D01*
X12005677Y-6169817D02*
X11977106Y-6169817D01*
X11977106Y-6169817D02*
X11958058Y-6160293D01*
X11958058Y-6160293D02*
X11948534Y-6141246D01*
X11948534Y-6141246D02*
X11948534Y-6131722D01*
X11948534Y-6131722D02*
X11958058Y-6112674D01*
X11958058Y-6112674D02*
X11977106Y-6103150D01*
X11977106Y-6103150D02*
X12005677Y-6103150D01*
X12005677Y-6103150D02*
X12024725Y-6112674D01*
X12100915Y-6312674D02*
X12110439Y-6303150D01*
X12110439Y-6303150D02*
X12129487Y-6274579D01*
X12129487Y-6274579D02*
X12139011Y-6255531D01*
X12139011Y-6255531D02*
X12148534Y-6226960D01*
X12148534Y-6226960D02*
X12158058Y-6179341D01*
X12158058Y-6179341D02*
X12158058Y-6141246D01*
X12158058Y-6141246D02*
X12148534Y-6093627D01*
X12148534Y-6093627D02*
X12139011Y-6065055D01*
X12139011Y-6065055D02*
X12129487Y-6046008D01*
X12129487Y-6046008D02*
X12110439Y-6017436D01*
X12110439Y-6017436D02*
X12100915Y-6007912D01*
D10*
X6944900Y-6409000D02*
G75*
G02*
X6844900Y-6409000I-50000J0D01*
G01*
X6844900Y-6409000D02*
G75*
G02*
X6944900Y-6409000I50000J0D01*
G01*
D11*
X7310439Y-6500484D02*
X7196153Y-6500484D01*
X7253296Y-6500484D02*
X7253296Y-6300484D01*
X7253296Y-6300484D02*
X7234248Y-6329055D01*
X7234248Y-6329055D02*
X7215201Y-6348103D01*
X7215201Y-6348103D02*
X7196153Y-6357627D01*
X7396153Y-6481436D02*
X7405677Y-6490960D01*
X7405677Y-6490960D02*
X7396153Y-6500484D01*
X7396153Y-6500484D02*
X7386629Y-6490960D01*
X7386629Y-6490960D02*
X7396153Y-6481436D01*
X7396153Y-6481436D02*
X7396153Y-6500484D01*
X7529486Y-6300484D02*
X7548534Y-6300484D01*
X7548534Y-6300484D02*
X7567582Y-6310008D01*
X7567582Y-6310008D02*
X7577105Y-6319531D01*
X7577105Y-6319531D02*
X7586629Y-6338579D01*
X7586629Y-6338579D02*
X7596153Y-6376674D01*
X7596153Y-6376674D02*
X7596153Y-6424293D01*
X7596153Y-6424293D02*
X7586629Y-6462388D01*
X7586629Y-6462388D02*
X7577105Y-6481436D01*
X7577105Y-6481436D02*
X7567582Y-6490960D01*
X7567582Y-6490960D02*
X7548534Y-6500484D01*
X7548534Y-6500484D02*
X7529486Y-6500484D01*
X7529486Y-6500484D02*
X7510439Y-6490960D01*
X7510439Y-6490960D02*
X7500915Y-6481436D01*
X7500915Y-6481436D02*
X7491391Y-6462388D01*
X7491391Y-6462388D02*
X7481867Y-6424293D01*
X7481867Y-6424293D02*
X7481867Y-6376674D01*
X7481867Y-6376674D02*
X7491391Y-6338579D01*
X7491391Y-6338579D02*
X7500915Y-6319531D01*
X7500915Y-6319531D02*
X7510439Y-6310008D01*
X7510439Y-6310008D02*
X7529486Y-6300484D01*
X7719962Y-6300484D02*
X7739010Y-6300484D01*
X7739010Y-6300484D02*
X7758058Y-6310008D01*
X7758058Y-6310008D02*
X7767582Y-6319531D01*
X7767582Y-6319531D02*
X7777105Y-6338579D01*
X7777105Y-6338579D02*
X7786629Y-6376674D01*
X7786629Y-6376674D02*
X7786629Y-6424293D01*
X7786629Y-6424293D02*
X7777105Y-6462388D01*
X7777105Y-6462388D02*
X7767582Y-6481436D01*
X7767582Y-6481436D02*
X7758058Y-6490960D01*
X7758058Y-6490960D02*
X7739010Y-6500484D01*
X7739010Y-6500484D02*
X7719962Y-6500484D01*
X7719962Y-6500484D02*
X7700915Y-6490960D01*
X7700915Y-6490960D02*
X7691391Y-6481436D01*
X7691391Y-6481436D02*
X7681867Y-6462388D01*
X7681867Y-6462388D02*
X7672343Y-6424293D01*
X7672343Y-6424293D02*
X7672343Y-6376674D01*
X7672343Y-6376674D02*
X7681867Y-6338579D01*
X7681867Y-6338579D02*
X7691391Y-6319531D01*
X7691391Y-6319531D02*
X7700915Y-6310008D01*
X7700915Y-6310008D02*
X7719962Y-6300484D01*
X7910439Y-6300484D02*
X7929486Y-6300484D01*
X7929486Y-6300484D02*
X7948534Y-6310008D01*
X7948534Y-6310008D02*
X7958058Y-6319531D01*
X7958058Y-6319531D02*
X7967582Y-6338579D01*
X7967582Y-6338579D02*
X7977105Y-6376674D01*
X7977105Y-6376674D02*
X7977105Y-6424293D01*
X7977105Y-6424293D02*
X7967582Y-6462388D01*
X7967582Y-6462388D02*
X7958058Y-6481436D01*
X7958058Y-6481436D02*
X7948534Y-6490960D01*
X7948534Y-6490960D02*
X7929486Y-6500484D01*
X7929486Y-6500484D02*
X7910439Y-6500484D01*
X7910439Y-6500484D02*
X7891391Y-6490960D01*
X7891391Y-6490960D02*
X7881867Y-6481436D01*
X7881867Y-6481436D02*
X7872343Y-6462388D01*
X7872343Y-6462388D02*
X7862820Y-6424293D01*
X7862820Y-6424293D02*
X7862820Y-6376674D01*
X7862820Y-6376674D02*
X7872343Y-6338579D01*
X7872343Y-6338579D02*
X7881867Y-6319531D01*
X7881867Y-6319531D02*
X7891391Y-6310008D01*
X7891391Y-6310008D02*
X7910439Y-6300484D01*
X8062820Y-6500484D02*
X8062820Y-6367150D01*
X8062820Y-6386198D02*
X8072343Y-6376674D01*
X8072343Y-6376674D02*
X8091391Y-6367150D01*
X8091391Y-6367150D02*
X8119963Y-6367150D01*
X8119963Y-6367150D02*
X8139010Y-6376674D01*
X8139010Y-6376674D02*
X8148534Y-6395722D01*
X8148534Y-6395722D02*
X8148534Y-6500484D01*
X8148534Y-6395722D02*
X8158058Y-6376674D01*
X8158058Y-6376674D02*
X8177105Y-6367150D01*
X8177105Y-6367150D02*
X8205677Y-6367150D01*
X8205677Y-6367150D02*
X8224724Y-6376674D01*
X8224724Y-6376674D02*
X8234248Y-6395722D01*
X8234248Y-6395722D02*
X8234248Y-6500484D01*
X8329486Y-6500484D02*
X8329486Y-6367150D01*
X8329486Y-6386198D02*
X8339010Y-6376674D01*
X8339010Y-6376674D02*
X8358058Y-6367150D01*
X8358058Y-6367150D02*
X8386629Y-6367150D01*
X8386629Y-6367150D02*
X8405677Y-6376674D01*
X8405677Y-6376674D02*
X8415201Y-6395722D01*
X8415201Y-6395722D02*
X8415201Y-6500484D01*
X8415201Y-6395722D02*
X8424725Y-6376674D01*
X8424725Y-6376674D02*
X8443772Y-6367150D01*
X8443772Y-6367150D02*
X8472344Y-6367150D01*
X8472344Y-6367150D02*
X8491391Y-6376674D01*
X8491391Y-6376674D02*
X8500915Y-6395722D01*
X8500915Y-6395722D02*
X8500915Y-6500484D01*
X8891391Y-6290960D02*
X8719963Y-6548103D01*
X9148534Y-6300484D02*
X9167582Y-6300484D01*
X9167582Y-6300484D02*
X9186629Y-6310008D01*
X9186629Y-6310008D02*
X9196153Y-6319531D01*
X9196153Y-6319531D02*
X9205677Y-6338579D01*
X9205677Y-6338579D02*
X9215201Y-6376674D01*
X9215201Y-6376674D02*
X9215201Y-6424293D01*
X9215201Y-6424293D02*
X9205677Y-6462388D01*
X9205677Y-6462388D02*
X9196153Y-6481436D01*
X9196153Y-6481436D02*
X9186629Y-6490960D01*
X9186629Y-6490960D02*
X9167582Y-6500484D01*
X9167582Y-6500484D02*
X9148534Y-6500484D01*
X9148534Y-6500484D02*
X9129487Y-6490960D01*
X9129487Y-6490960D02*
X9119963Y-6481436D01*
X9119963Y-6481436D02*
X9110439Y-6462388D01*
X9110439Y-6462388D02*
X9100915Y-6424293D01*
X9100915Y-6424293D02*
X9100915Y-6376674D01*
X9100915Y-6376674D02*
X9110439Y-6338579D01*
X9110439Y-6338579D02*
X9119963Y-6319531D01*
X9119963Y-6319531D02*
X9129487Y-6310008D01*
X9129487Y-6310008D02*
X9148534Y-6300484D01*
X9300915Y-6481436D02*
X9310439Y-6490960D01*
X9310439Y-6490960D02*
X9300915Y-6500484D01*
X9300915Y-6500484D02*
X9291391Y-6490960D01*
X9291391Y-6490960D02*
X9300915Y-6481436D01*
X9300915Y-6481436D02*
X9300915Y-6500484D01*
X9434248Y-6300484D02*
X9453296Y-6300484D01*
X9453296Y-6300484D02*
X9472344Y-6310008D01*
X9472344Y-6310008D02*
X9481868Y-6319531D01*
X9481868Y-6319531D02*
X9491391Y-6338579D01*
X9491391Y-6338579D02*
X9500915Y-6376674D01*
X9500915Y-6376674D02*
X9500915Y-6424293D01*
X9500915Y-6424293D02*
X9491391Y-6462388D01*
X9491391Y-6462388D02*
X9481868Y-6481436D01*
X9481868Y-6481436D02*
X9472344Y-6490960D01*
X9472344Y-6490960D02*
X9453296Y-6500484D01*
X9453296Y-6500484D02*
X9434248Y-6500484D01*
X9434248Y-6500484D02*
X9415201Y-6490960D01*
X9415201Y-6490960D02*
X9405677Y-6481436D01*
X9405677Y-6481436D02*
X9396153Y-6462388D01*
X9396153Y-6462388D02*
X9386629Y-6424293D01*
X9386629Y-6424293D02*
X9386629Y-6376674D01*
X9386629Y-6376674D02*
X9396153Y-6338579D01*
X9396153Y-6338579D02*
X9405677Y-6319531D01*
X9405677Y-6319531D02*
X9415201Y-6310008D01*
X9415201Y-6310008D02*
X9434248Y-6300484D01*
X9567582Y-6300484D02*
X9691391Y-6300484D01*
X9691391Y-6300484D02*
X9624725Y-6376674D01*
X9624725Y-6376674D02*
X9653296Y-6376674D01*
X9653296Y-6376674D02*
X9672344Y-6386198D01*
X9672344Y-6386198D02*
X9681868Y-6395722D01*
X9681868Y-6395722D02*
X9691391Y-6414769D01*
X9691391Y-6414769D02*
X9691391Y-6462388D01*
X9691391Y-6462388D02*
X9681868Y-6481436D01*
X9681868Y-6481436D02*
X9672344Y-6490960D01*
X9672344Y-6490960D02*
X9653296Y-6500484D01*
X9653296Y-6500484D02*
X9596153Y-6500484D01*
X9596153Y-6500484D02*
X9577106Y-6490960D01*
X9577106Y-6490960D02*
X9567582Y-6481436D01*
X9786629Y-6500484D02*
X9824725Y-6500484D01*
X9824725Y-6500484D02*
X9843772Y-6490960D01*
X9843772Y-6490960D02*
X9853296Y-6481436D01*
X9853296Y-6481436D02*
X9872344Y-6452865D01*
X9872344Y-6452865D02*
X9881868Y-6414769D01*
X9881868Y-6414769D02*
X9881868Y-6338579D01*
X9881868Y-6338579D02*
X9872344Y-6319531D01*
X9872344Y-6319531D02*
X9862820Y-6310008D01*
X9862820Y-6310008D02*
X9843772Y-6300484D01*
X9843772Y-6300484D02*
X9805677Y-6300484D01*
X9805677Y-6300484D02*
X9786629Y-6310008D01*
X9786629Y-6310008D02*
X9777106Y-6319531D01*
X9777106Y-6319531D02*
X9767582Y-6338579D01*
X9767582Y-6338579D02*
X9767582Y-6386198D01*
X9767582Y-6386198D02*
X9777106Y-6405246D01*
X9777106Y-6405246D02*
X9786629Y-6414769D01*
X9786629Y-6414769D02*
X9805677Y-6424293D01*
X9805677Y-6424293D02*
X9843772Y-6424293D01*
X9843772Y-6424293D02*
X9862820Y-6414769D01*
X9862820Y-6414769D02*
X9872344Y-6405246D01*
X9872344Y-6405246D02*
X9881868Y-6386198D01*
X10053296Y-6367150D02*
X10053296Y-6500484D01*
X10005677Y-6290960D02*
X9958058Y-6433817D01*
X9958058Y-6433817D02*
X10081868Y-6433817D01*
X10148534Y-6300484D02*
X10148534Y-6338579D01*
X10224725Y-6300484D02*
X10224725Y-6338579D01*
X10519963Y-6576674D02*
X10510439Y-6567150D01*
X10510439Y-6567150D02*
X10491391Y-6538579D01*
X10491391Y-6538579D02*
X10481868Y-6519531D01*
X10481868Y-6519531D02*
X10472344Y-6490960D01*
X10472344Y-6490960D02*
X10462820Y-6443341D01*
X10462820Y-6443341D02*
X10462820Y-6405246D01*
X10462820Y-6405246D02*
X10472344Y-6357627D01*
X10472344Y-6357627D02*
X10481868Y-6329055D01*
X10481868Y-6329055D02*
X10491391Y-6310008D01*
X10491391Y-6310008D02*
X10510439Y-6281436D01*
X10510439Y-6281436D02*
X10519963Y-6271912D01*
X10700915Y-6500484D02*
X10586630Y-6500484D01*
X10643772Y-6500484D02*
X10643772Y-6300484D01*
X10643772Y-6300484D02*
X10624725Y-6329055D01*
X10624725Y-6329055D02*
X10605677Y-6348103D01*
X10605677Y-6348103D02*
X10586630Y-6357627D01*
X10872344Y-6300484D02*
X10834249Y-6300484D01*
X10834249Y-6300484D02*
X10815201Y-6310008D01*
X10815201Y-6310008D02*
X10805677Y-6319531D01*
X10805677Y-6319531D02*
X10786630Y-6348103D01*
X10786630Y-6348103D02*
X10777106Y-6386198D01*
X10777106Y-6386198D02*
X10777106Y-6462388D01*
X10777106Y-6462388D02*
X10786630Y-6481436D01*
X10786630Y-6481436D02*
X10796153Y-6490960D01*
X10796153Y-6490960D02*
X10815201Y-6500484D01*
X10815201Y-6500484D02*
X10853296Y-6500484D01*
X10853296Y-6500484D02*
X10872344Y-6490960D01*
X10872344Y-6490960D02*
X10881868Y-6481436D01*
X10881868Y-6481436D02*
X10891391Y-6462388D01*
X10891391Y-6462388D02*
X10891391Y-6414769D01*
X10891391Y-6414769D02*
X10881868Y-6395722D01*
X10881868Y-6395722D02*
X10872344Y-6386198D01*
X10872344Y-6386198D02*
X10853296Y-6376674D01*
X10853296Y-6376674D02*
X10815201Y-6376674D01*
X10815201Y-6376674D02*
X10796153Y-6386198D01*
X10796153Y-6386198D02*
X10786630Y-6395722D01*
X10786630Y-6395722D02*
X10777106Y-6414769D01*
X11129487Y-6500484D02*
X11129487Y-6300484D01*
X11215201Y-6500484D02*
X11215201Y-6395722D01*
X11215201Y-6395722D02*
X11205677Y-6376674D01*
X11205677Y-6376674D02*
X11186630Y-6367150D01*
X11186630Y-6367150D02*
X11158058Y-6367150D01*
X11158058Y-6367150D02*
X11139011Y-6376674D01*
X11139011Y-6376674D02*
X11129487Y-6386198D01*
X11339010Y-6500484D02*
X11319963Y-6490960D01*
X11319963Y-6490960D02*
X11310439Y-6481436D01*
X11310439Y-6481436D02*
X11300915Y-6462388D01*
X11300915Y-6462388D02*
X11300915Y-6405246D01*
X11300915Y-6405246D02*
X11310439Y-6386198D01*
X11310439Y-6386198D02*
X11319963Y-6376674D01*
X11319963Y-6376674D02*
X11339010Y-6367150D01*
X11339010Y-6367150D02*
X11367582Y-6367150D01*
X11367582Y-6367150D02*
X11386630Y-6376674D01*
X11386630Y-6376674D02*
X11396153Y-6386198D01*
X11396153Y-6386198D02*
X11405677Y-6405246D01*
X11405677Y-6405246D02*
X11405677Y-6462388D01*
X11405677Y-6462388D02*
X11396153Y-6481436D01*
X11396153Y-6481436D02*
X11386630Y-6490960D01*
X11386630Y-6490960D02*
X11367582Y-6500484D01*
X11367582Y-6500484D02*
X11339010Y-6500484D01*
X11519963Y-6500484D02*
X11500915Y-6490960D01*
X11500915Y-6490960D02*
X11491391Y-6471912D01*
X11491391Y-6471912D02*
X11491391Y-6300484D01*
X11672344Y-6490960D02*
X11653296Y-6500484D01*
X11653296Y-6500484D02*
X11615201Y-6500484D01*
X11615201Y-6500484D02*
X11596153Y-6490960D01*
X11596153Y-6490960D02*
X11586630Y-6471912D01*
X11586630Y-6471912D02*
X11586630Y-6395722D01*
X11586630Y-6395722D02*
X11596153Y-6376674D01*
X11596153Y-6376674D02*
X11615201Y-6367150D01*
X11615201Y-6367150D02*
X11653296Y-6367150D01*
X11653296Y-6367150D02*
X11672344Y-6376674D01*
X11672344Y-6376674D02*
X11681868Y-6395722D01*
X11681868Y-6395722D02*
X11681868Y-6414769D01*
X11681868Y-6414769D02*
X11586630Y-6433817D01*
X11758058Y-6490960D02*
X11777106Y-6500484D01*
X11777106Y-6500484D02*
X11815201Y-6500484D01*
X11815201Y-6500484D02*
X11834249Y-6490960D01*
X11834249Y-6490960D02*
X11843772Y-6471912D01*
X11843772Y-6471912D02*
X11843772Y-6462388D01*
X11843772Y-6462388D02*
X11834249Y-6443341D01*
X11834249Y-6443341D02*
X11815201Y-6433817D01*
X11815201Y-6433817D02*
X11786630Y-6433817D01*
X11786630Y-6433817D02*
X11767582Y-6424293D01*
X11767582Y-6424293D02*
X11758058Y-6405246D01*
X11758058Y-6405246D02*
X11758058Y-6395722D01*
X11758058Y-6395722D02*
X11767582Y-6376674D01*
X11767582Y-6376674D02*
X11786630Y-6367150D01*
X11786630Y-6367150D02*
X11815201Y-6367150D01*
X11815201Y-6367150D02*
X11834249Y-6376674D01*
X11910439Y-6576674D02*
X11919963Y-6567150D01*
X11919963Y-6567150D02*
X11939011Y-6538579D01*
X11939011Y-6538579D02*
X11948534Y-6519531D01*
X11948534Y-6519531D02*
X11958058Y-6490960D01*
X11958058Y-6490960D02*
X11967582Y-6443341D01*
X11967582Y-6443341D02*
X11967582Y-6405246D01*
X11967582Y-6405246D02*
X11958058Y-6357627D01*
X11958058Y-6357627D02*
X11948534Y-6329055D01*
X11948534Y-6329055D02*
X11939011Y-6310008D01*
X11939011Y-6310008D02*
X11919963Y-6281436D01*
X11919963Y-6281436D02*
X11910439Y-6271912D01*
M02*
