%TF.GenerationSoftware,KiCad,Pcbnew,8.0.8-8.0.8-0~ubuntu24.04.1*%
%TF.CreationDate,2025-02-18T11:20:38+01:00*%
%TF.ProjectId,SPU0410LR5H_panel,53505530-3431-4304-9c52-35485f70616e,rev?*%
%TF.SameCoordinates,Original*%
%TF.FileFunction,Legend,Top*%
%TF.FilePolarity,Positive*%
%FSLAX46Y46*%
G04 Gerber Fmt 4.6, Leading zero omitted, Abs format (unit mm)*
G04 Created by KiCad (PCBNEW 8.0.8-8.0.8-0~ubuntu24.04.1) date 2025-02-18 11:20:38*
%MOMM*%
%LPD*%
G01*
G04 APERTURE LIST*
%ADD10C,0.150000*%
%ADD11C,0.080000*%
%ADD12C,0.120000*%
%ADD13C,0.127000*%
G04 APERTURE END LIST*
D10*
X97133333Y-31002295D02*
X97133333Y-31573723D01*
X97133333Y-31573723D02*
X97095238Y-31688009D01*
X97095238Y-31688009D02*
X97019047Y-31764200D01*
X97019047Y-31764200D02*
X96904762Y-31802295D01*
X96904762Y-31802295D02*
X96828571Y-31802295D01*
X97514286Y-31802295D02*
X97514286Y-31002295D01*
X97514286Y-31002295D02*
X97819048Y-31002295D01*
X97819048Y-31002295D02*
X97895238Y-31040390D01*
X97895238Y-31040390D02*
X97933333Y-31078485D01*
X97933333Y-31078485D02*
X97971429Y-31154676D01*
X97971429Y-31154676D02*
X97971429Y-31268961D01*
X97971429Y-31268961D02*
X97933333Y-31345152D01*
X97933333Y-31345152D02*
X97895238Y-31383247D01*
X97895238Y-31383247D02*
X97819048Y-31421342D01*
X97819048Y-31421342D02*
X97514286Y-31421342D01*
X98733333Y-31802295D02*
X98276190Y-31802295D01*
X98504762Y-31802295D02*
X98504762Y-31002295D01*
X98504762Y-31002295D02*
X98428571Y-31116580D01*
X98428571Y-31116580D02*
X98352381Y-31192771D01*
X98352381Y-31192771D02*
X98276190Y-31230866D01*
X82416667Y-52562296D02*
X82150000Y-52181343D01*
X81959524Y-52562296D02*
X81959524Y-51762296D01*
X81959524Y-51762296D02*
X82264286Y-51762296D01*
X82264286Y-51762296D02*
X82340476Y-51800391D01*
X82340476Y-51800391D02*
X82378571Y-51838486D01*
X82378571Y-51838486D02*
X82416667Y-51914677D01*
X82416667Y-51914677D02*
X82416667Y-52028962D01*
X82416667Y-52028962D02*
X82378571Y-52105153D01*
X82378571Y-52105153D02*
X82340476Y-52143248D01*
X82340476Y-52143248D02*
X82264286Y-52181343D01*
X82264286Y-52181343D02*
X81959524Y-52181343D01*
X82721428Y-51838486D02*
X82759524Y-51800391D01*
X82759524Y-51800391D02*
X82835714Y-51762296D01*
X82835714Y-51762296D02*
X83026190Y-51762296D01*
X83026190Y-51762296D02*
X83102381Y-51800391D01*
X83102381Y-51800391D02*
X83140476Y-51838486D01*
X83140476Y-51838486D02*
X83178571Y-51914677D01*
X83178571Y-51914677D02*
X83178571Y-51990867D01*
X83178571Y-51990867D02*
X83140476Y-52105153D01*
X83140476Y-52105153D02*
X82683333Y-52562296D01*
X82683333Y-52562296D02*
X83178571Y-52562296D01*
X127666667Y-30662296D02*
X127400000Y-30281343D01*
X127209524Y-30662296D02*
X127209524Y-29862296D01*
X127209524Y-29862296D02*
X127514286Y-29862296D01*
X127514286Y-29862296D02*
X127590476Y-29900391D01*
X127590476Y-29900391D02*
X127628571Y-29938486D01*
X127628571Y-29938486D02*
X127666667Y-30014677D01*
X127666667Y-30014677D02*
X127666667Y-30128962D01*
X127666667Y-30128962D02*
X127628571Y-30205153D01*
X127628571Y-30205153D02*
X127590476Y-30243248D01*
X127590476Y-30243248D02*
X127514286Y-30281343D01*
X127514286Y-30281343D02*
X127209524Y-30281343D01*
X127933333Y-29862296D02*
X128428571Y-29862296D01*
X128428571Y-29862296D02*
X128161905Y-30167058D01*
X128161905Y-30167058D02*
X128276190Y-30167058D01*
X128276190Y-30167058D02*
X128352381Y-30205153D01*
X128352381Y-30205153D02*
X128390476Y-30243248D01*
X128390476Y-30243248D02*
X128428571Y-30319439D01*
X128428571Y-30319439D02*
X128428571Y-30509915D01*
X128428571Y-30509915D02*
X128390476Y-30586105D01*
X128390476Y-30586105D02*
X128352381Y-30624201D01*
X128352381Y-30624201D02*
X128276190Y-30662296D01*
X128276190Y-30662296D02*
X128047619Y-30662296D01*
X128047619Y-30662296D02*
X127971428Y-30624201D01*
X127971428Y-30624201D02*
X127933333Y-30586105D01*
X84662295Y-23733332D02*
X84281342Y-23999999D01*
X84662295Y-24190475D02*
X83862295Y-24190475D01*
X83862295Y-24190475D02*
X83862295Y-23885713D01*
X83862295Y-23885713D02*
X83900390Y-23809523D01*
X83900390Y-23809523D02*
X83938485Y-23771428D01*
X83938485Y-23771428D02*
X84014676Y-23733332D01*
X84014676Y-23733332D02*
X84128961Y-23733332D01*
X84128961Y-23733332D02*
X84205152Y-23771428D01*
X84205152Y-23771428D02*
X84243247Y-23809523D01*
X84243247Y-23809523D02*
X84281342Y-23885713D01*
X84281342Y-23885713D02*
X84281342Y-24190475D01*
X84662295Y-22971428D02*
X84662295Y-23428571D01*
X84662295Y-23199999D02*
X83862295Y-23199999D01*
X83862295Y-23199999D02*
X83976580Y-23276190D01*
X83976580Y-23276190D02*
X84052771Y-23352380D01*
X84052771Y-23352380D02*
X84090866Y-23428571D01*
D11*
X98656190Y-21023878D02*
X98656190Y-21282925D01*
X98656190Y-21282925D02*
X98671428Y-21313401D01*
X98671428Y-21313401D02*
X98686666Y-21328640D01*
X98686666Y-21328640D02*
X98717142Y-21343878D01*
X98717142Y-21343878D02*
X98778095Y-21343878D01*
X98778095Y-21343878D02*
X98808571Y-21328640D01*
X98808571Y-21328640D02*
X98823809Y-21313401D01*
X98823809Y-21313401D02*
X98839047Y-21282925D01*
X98839047Y-21282925D02*
X98839047Y-21023878D01*
X98976190Y-21054354D02*
X98991428Y-21039116D01*
X98991428Y-21039116D02*
X99021904Y-21023878D01*
X99021904Y-21023878D02*
X99098095Y-21023878D01*
X99098095Y-21023878D02*
X99128571Y-21039116D01*
X99128571Y-21039116D02*
X99143809Y-21054354D01*
X99143809Y-21054354D02*
X99159047Y-21084830D01*
X99159047Y-21084830D02*
X99159047Y-21115306D01*
X99159047Y-21115306D02*
X99143809Y-21161020D01*
X99143809Y-21161020D02*
X98960952Y-21343878D01*
X98960952Y-21343878D02*
X99159047Y-21343878D01*
D10*
X120766668Y-53087295D02*
X120500001Y-52706342D01*
X120309525Y-53087295D02*
X120309525Y-52287295D01*
X120309525Y-52287295D02*
X120614287Y-52287295D01*
X120614287Y-52287295D02*
X120690477Y-52325390D01*
X120690477Y-52325390D02*
X120728572Y-52363485D01*
X120728572Y-52363485D02*
X120766668Y-52439676D01*
X120766668Y-52439676D02*
X120766668Y-52553961D01*
X120766668Y-52553961D02*
X120728572Y-52630152D01*
X120728572Y-52630152D02*
X120690477Y-52668247D01*
X120690477Y-52668247D02*
X120614287Y-52706342D01*
X120614287Y-52706342D02*
X120309525Y-52706342D01*
X121452382Y-52553961D02*
X121452382Y-53087295D01*
X121261906Y-52249200D02*
X121071429Y-52820628D01*
X121071429Y-52820628D02*
X121566668Y-52820628D01*
X121333333Y-22624580D02*
X121285714Y-22672200D01*
X121285714Y-22672200D02*
X121142857Y-22719819D01*
X121142857Y-22719819D02*
X121047619Y-22719819D01*
X121047619Y-22719819D02*
X120904762Y-22672200D01*
X120904762Y-22672200D02*
X120809524Y-22576961D01*
X120809524Y-22576961D02*
X120761905Y-22481723D01*
X120761905Y-22481723D02*
X120714286Y-22291247D01*
X120714286Y-22291247D02*
X120714286Y-22148390D01*
X120714286Y-22148390D02*
X120761905Y-21957914D01*
X120761905Y-21957914D02*
X120809524Y-21862676D01*
X120809524Y-21862676D02*
X120904762Y-21767438D01*
X120904762Y-21767438D02*
X121047619Y-21719819D01*
X121047619Y-21719819D02*
X121142857Y-21719819D01*
X121142857Y-21719819D02*
X121285714Y-21767438D01*
X121285714Y-21767438D02*
X121333333Y-21815057D01*
X122285714Y-22719819D02*
X121714286Y-22719819D01*
X122000000Y-22719819D02*
X122000000Y-21719819D01*
X122000000Y-21719819D02*
X121904762Y-21862676D01*
X121904762Y-21862676D02*
X121809524Y-21957914D01*
X121809524Y-21957914D02*
X121714286Y-22005533D01*
X94666667Y-53162296D02*
X94400000Y-52781343D01*
X94209524Y-53162296D02*
X94209524Y-52362296D01*
X94209524Y-52362296D02*
X94514286Y-52362296D01*
X94514286Y-52362296D02*
X94590476Y-52400391D01*
X94590476Y-52400391D02*
X94628571Y-52438486D01*
X94628571Y-52438486D02*
X94666667Y-52514677D01*
X94666667Y-52514677D02*
X94666667Y-52628962D01*
X94666667Y-52628962D02*
X94628571Y-52705153D01*
X94628571Y-52705153D02*
X94590476Y-52743248D01*
X94590476Y-52743248D02*
X94514286Y-52781343D01*
X94514286Y-52781343D02*
X94209524Y-52781343D01*
X94933333Y-52362296D02*
X95428571Y-52362296D01*
X95428571Y-52362296D02*
X95161905Y-52667058D01*
X95161905Y-52667058D02*
X95276190Y-52667058D01*
X95276190Y-52667058D02*
X95352381Y-52705153D01*
X95352381Y-52705153D02*
X95390476Y-52743248D01*
X95390476Y-52743248D02*
X95428571Y-52819439D01*
X95428571Y-52819439D02*
X95428571Y-53009915D01*
X95428571Y-53009915D02*
X95390476Y-53086105D01*
X95390476Y-53086105D02*
X95352381Y-53124201D01*
X95352381Y-53124201D02*
X95276190Y-53162296D01*
X95276190Y-53162296D02*
X95047619Y-53162296D01*
X95047619Y-53162296D02*
X94971428Y-53124201D01*
X94971428Y-53124201D02*
X94933333Y-53086105D01*
X84662295Y-46233332D02*
X84281342Y-46499999D01*
X84662295Y-46690475D02*
X83862295Y-46690475D01*
X83862295Y-46690475D02*
X83862295Y-46385713D01*
X83862295Y-46385713D02*
X83900390Y-46309523D01*
X83900390Y-46309523D02*
X83938485Y-46271428D01*
X83938485Y-46271428D02*
X84014676Y-46233332D01*
X84014676Y-46233332D02*
X84128961Y-46233332D01*
X84128961Y-46233332D02*
X84205152Y-46271428D01*
X84205152Y-46271428D02*
X84243247Y-46309523D01*
X84243247Y-46309523D02*
X84281342Y-46385713D01*
X84281342Y-46385713D02*
X84281342Y-46690475D01*
X84662295Y-45471428D02*
X84662295Y-45928571D01*
X84662295Y-45699999D02*
X83862295Y-45699999D01*
X83862295Y-45699999D02*
X83976580Y-45776190D01*
X83976580Y-45776190D02*
X84052771Y-45852380D01*
X84052771Y-45852380D02*
X84090866Y-45928571D01*
X127666667Y-53162296D02*
X127400000Y-52781343D01*
X127209524Y-53162296D02*
X127209524Y-52362296D01*
X127209524Y-52362296D02*
X127514286Y-52362296D01*
X127514286Y-52362296D02*
X127590476Y-52400391D01*
X127590476Y-52400391D02*
X127628571Y-52438486D01*
X127628571Y-52438486D02*
X127666667Y-52514677D01*
X127666667Y-52514677D02*
X127666667Y-52628962D01*
X127666667Y-52628962D02*
X127628571Y-52705153D01*
X127628571Y-52705153D02*
X127590476Y-52743248D01*
X127590476Y-52743248D02*
X127514286Y-52781343D01*
X127514286Y-52781343D02*
X127209524Y-52781343D01*
X127933333Y-52362296D02*
X128428571Y-52362296D01*
X128428571Y-52362296D02*
X128161905Y-52667058D01*
X128161905Y-52667058D02*
X128276190Y-52667058D01*
X128276190Y-52667058D02*
X128352381Y-52705153D01*
X128352381Y-52705153D02*
X128390476Y-52743248D01*
X128390476Y-52743248D02*
X128428571Y-52819439D01*
X128428571Y-52819439D02*
X128428571Y-53009915D01*
X128428571Y-53009915D02*
X128390476Y-53086105D01*
X128390476Y-53086105D02*
X128352381Y-53124201D01*
X128352381Y-53124201D02*
X128276190Y-53162296D01*
X128276190Y-53162296D02*
X128047619Y-53162296D01*
X128047619Y-53162296D02*
X127971428Y-53124201D01*
X127971428Y-53124201D02*
X127933333Y-53086105D01*
X88333333Y-45124580D02*
X88285714Y-45172200D01*
X88285714Y-45172200D02*
X88142857Y-45219819D01*
X88142857Y-45219819D02*
X88047619Y-45219819D01*
X88047619Y-45219819D02*
X87904762Y-45172200D01*
X87904762Y-45172200D02*
X87809524Y-45076961D01*
X87809524Y-45076961D02*
X87761905Y-44981723D01*
X87761905Y-44981723D02*
X87714286Y-44791247D01*
X87714286Y-44791247D02*
X87714286Y-44648390D01*
X87714286Y-44648390D02*
X87761905Y-44457914D01*
X87761905Y-44457914D02*
X87809524Y-44362676D01*
X87809524Y-44362676D02*
X87904762Y-44267438D01*
X87904762Y-44267438D02*
X88047619Y-44219819D01*
X88047619Y-44219819D02*
X88142857Y-44219819D01*
X88142857Y-44219819D02*
X88285714Y-44267438D01*
X88285714Y-44267438D02*
X88333333Y-44315057D01*
X89285714Y-45219819D02*
X88714286Y-45219819D01*
X89000000Y-45219819D02*
X89000000Y-44219819D01*
X89000000Y-44219819D02*
X88904762Y-44362676D01*
X88904762Y-44362676D02*
X88809524Y-44457914D01*
X88809524Y-44457914D02*
X88714286Y-44505533D01*
X130133333Y-53502295D02*
X130133333Y-54073723D01*
X130133333Y-54073723D02*
X130095238Y-54188009D01*
X130095238Y-54188009D02*
X130019047Y-54264200D01*
X130019047Y-54264200D02*
X129904762Y-54302295D01*
X129904762Y-54302295D02*
X129828571Y-54302295D01*
X130514286Y-54302295D02*
X130514286Y-53502295D01*
X130514286Y-53502295D02*
X130819048Y-53502295D01*
X130819048Y-53502295D02*
X130895238Y-53540390D01*
X130895238Y-53540390D02*
X130933333Y-53578485D01*
X130933333Y-53578485D02*
X130971429Y-53654676D01*
X130971429Y-53654676D02*
X130971429Y-53768961D01*
X130971429Y-53768961D02*
X130933333Y-53845152D01*
X130933333Y-53845152D02*
X130895238Y-53883247D01*
X130895238Y-53883247D02*
X130819048Y-53921342D01*
X130819048Y-53921342D02*
X130514286Y-53921342D01*
X131733333Y-54302295D02*
X131276190Y-54302295D01*
X131504762Y-54302295D02*
X131504762Y-53502295D01*
X131504762Y-53502295D02*
X131428571Y-53616580D01*
X131428571Y-53616580D02*
X131352381Y-53692771D01*
X131352381Y-53692771D02*
X131276190Y-53730866D01*
X127666667Y-44562296D02*
X127400000Y-44181343D01*
X127209524Y-44562296D02*
X127209524Y-43762296D01*
X127209524Y-43762296D02*
X127514286Y-43762296D01*
X127514286Y-43762296D02*
X127590476Y-43800391D01*
X127590476Y-43800391D02*
X127628571Y-43838486D01*
X127628571Y-43838486D02*
X127666667Y-43914677D01*
X127666667Y-43914677D02*
X127666667Y-44028962D01*
X127666667Y-44028962D02*
X127628571Y-44105153D01*
X127628571Y-44105153D02*
X127590476Y-44143248D01*
X127590476Y-44143248D02*
X127514286Y-44181343D01*
X127514286Y-44181343D02*
X127209524Y-44181343D01*
X128390476Y-43762296D02*
X128009524Y-43762296D01*
X128009524Y-43762296D02*
X127971428Y-44143248D01*
X127971428Y-44143248D02*
X128009524Y-44105153D01*
X128009524Y-44105153D02*
X128085714Y-44067058D01*
X128085714Y-44067058D02*
X128276190Y-44067058D01*
X128276190Y-44067058D02*
X128352381Y-44105153D01*
X128352381Y-44105153D02*
X128390476Y-44143248D01*
X128390476Y-44143248D02*
X128428571Y-44219439D01*
X128428571Y-44219439D02*
X128428571Y-44409915D01*
X128428571Y-44409915D02*
X128390476Y-44486105D01*
X128390476Y-44486105D02*
X128352381Y-44524201D01*
X128352381Y-44524201D02*
X128276190Y-44562296D01*
X128276190Y-44562296D02*
X128085714Y-44562296D01*
X128085714Y-44562296D02*
X128009524Y-44524201D01*
X128009524Y-44524201D02*
X127971428Y-44486105D01*
X122290476Y-27262296D02*
X122290476Y-27909915D01*
X122290476Y-27909915D02*
X122328571Y-27986105D01*
X122328571Y-27986105D02*
X122366666Y-28024201D01*
X122366666Y-28024201D02*
X122442857Y-28062296D01*
X122442857Y-28062296D02*
X122595238Y-28062296D01*
X122595238Y-28062296D02*
X122671428Y-28024201D01*
X122671428Y-28024201D02*
X122709523Y-27986105D01*
X122709523Y-27986105D02*
X122747619Y-27909915D01*
X122747619Y-27909915D02*
X122747619Y-27262296D01*
X123547618Y-28062296D02*
X123090475Y-28062296D01*
X123319047Y-28062296D02*
X123319047Y-27262296D01*
X123319047Y-27262296D02*
X123242856Y-27376581D01*
X123242856Y-27376581D02*
X123166666Y-27452772D01*
X123166666Y-27452772D02*
X123090475Y-27490867D01*
X94666667Y-22062296D02*
X94400000Y-21681343D01*
X94209524Y-22062296D02*
X94209524Y-21262296D01*
X94209524Y-21262296D02*
X94514286Y-21262296D01*
X94514286Y-21262296D02*
X94590476Y-21300391D01*
X94590476Y-21300391D02*
X94628571Y-21338486D01*
X94628571Y-21338486D02*
X94666667Y-21414677D01*
X94666667Y-21414677D02*
X94666667Y-21528962D01*
X94666667Y-21528962D02*
X94628571Y-21605153D01*
X94628571Y-21605153D02*
X94590476Y-21643248D01*
X94590476Y-21643248D02*
X94514286Y-21681343D01*
X94514286Y-21681343D02*
X94209524Y-21681343D01*
X95390476Y-21262296D02*
X95009524Y-21262296D01*
X95009524Y-21262296D02*
X94971428Y-21643248D01*
X94971428Y-21643248D02*
X95009524Y-21605153D01*
X95009524Y-21605153D02*
X95085714Y-21567058D01*
X95085714Y-21567058D02*
X95276190Y-21567058D01*
X95276190Y-21567058D02*
X95352381Y-21605153D01*
X95352381Y-21605153D02*
X95390476Y-21643248D01*
X95390476Y-21643248D02*
X95428571Y-21719439D01*
X95428571Y-21719439D02*
X95428571Y-21909915D01*
X95428571Y-21909915D02*
X95390476Y-21986105D01*
X95390476Y-21986105D02*
X95352381Y-22024201D01*
X95352381Y-22024201D02*
X95276190Y-22062296D01*
X95276190Y-22062296D02*
X95085714Y-22062296D01*
X95085714Y-22062296D02*
X95009524Y-22024201D01*
X95009524Y-22024201D02*
X94971428Y-21986105D01*
X84666667Y-29986105D02*
X84628571Y-30024201D01*
X84628571Y-30024201D02*
X84514286Y-30062296D01*
X84514286Y-30062296D02*
X84438095Y-30062296D01*
X84438095Y-30062296D02*
X84323809Y-30024201D01*
X84323809Y-30024201D02*
X84247619Y-29948010D01*
X84247619Y-29948010D02*
X84209524Y-29871820D01*
X84209524Y-29871820D02*
X84171428Y-29719439D01*
X84171428Y-29719439D02*
X84171428Y-29605153D01*
X84171428Y-29605153D02*
X84209524Y-29452772D01*
X84209524Y-29452772D02*
X84247619Y-29376581D01*
X84247619Y-29376581D02*
X84323809Y-29300391D01*
X84323809Y-29300391D02*
X84438095Y-29262296D01*
X84438095Y-29262296D02*
X84514286Y-29262296D01*
X84514286Y-29262296D02*
X84628571Y-29300391D01*
X84628571Y-29300391D02*
X84666667Y-29338486D01*
X84971428Y-29338486D02*
X85009524Y-29300391D01*
X85009524Y-29300391D02*
X85085714Y-29262296D01*
X85085714Y-29262296D02*
X85276190Y-29262296D01*
X85276190Y-29262296D02*
X85352381Y-29300391D01*
X85352381Y-29300391D02*
X85390476Y-29338486D01*
X85390476Y-29338486D02*
X85428571Y-29414677D01*
X85428571Y-29414677D02*
X85428571Y-29490867D01*
X85428571Y-29490867D02*
X85390476Y-29605153D01*
X85390476Y-29605153D02*
X84933333Y-30062296D01*
X84933333Y-30062296D02*
X85428571Y-30062296D01*
X122290476Y-49762296D02*
X122290476Y-50409915D01*
X122290476Y-50409915D02*
X122328571Y-50486105D01*
X122328571Y-50486105D02*
X122366666Y-50524201D01*
X122366666Y-50524201D02*
X122442857Y-50562296D01*
X122442857Y-50562296D02*
X122595238Y-50562296D01*
X122595238Y-50562296D02*
X122671428Y-50524201D01*
X122671428Y-50524201D02*
X122709523Y-50486105D01*
X122709523Y-50486105D02*
X122747619Y-50409915D01*
X122747619Y-50409915D02*
X122747619Y-49762296D01*
X123547618Y-50562296D02*
X123090475Y-50562296D01*
X123319047Y-50562296D02*
X123319047Y-49762296D01*
X123319047Y-49762296D02*
X123242856Y-49876581D01*
X123242856Y-49876581D02*
X123166666Y-49952772D01*
X123166666Y-49952772D02*
X123090475Y-49990867D01*
D11*
X98656190Y-43523878D02*
X98656190Y-43782925D01*
X98656190Y-43782925D02*
X98671428Y-43813401D01*
X98671428Y-43813401D02*
X98686666Y-43828640D01*
X98686666Y-43828640D02*
X98717142Y-43843878D01*
X98717142Y-43843878D02*
X98778095Y-43843878D01*
X98778095Y-43843878D02*
X98808571Y-43828640D01*
X98808571Y-43828640D02*
X98823809Y-43813401D01*
X98823809Y-43813401D02*
X98839047Y-43782925D01*
X98839047Y-43782925D02*
X98839047Y-43523878D01*
X98976190Y-43554354D02*
X98991428Y-43539116D01*
X98991428Y-43539116D02*
X99021904Y-43523878D01*
X99021904Y-43523878D02*
X99098095Y-43523878D01*
X99098095Y-43523878D02*
X99128571Y-43539116D01*
X99128571Y-43539116D02*
X99143809Y-43554354D01*
X99143809Y-43554354D02*
X99159047Y-43584830D01*
X99159047Y-43584830D02*
X99159047Y-43615306D01*
X99159047Y-43615306D02*
X99143809Y-43661020D01*
X99143809Y-43661020D02*
X98960952Y-43843878D01*
X98960952Y-43843878D02*
X99159047Y-43843878D01*
D10*
X84666667Y-52486105D02*
X84628571Y-52524201D01*
X84628571Y-52524201D02*
X84514286Y-52562296D01*
X84514286Y-52562296D02*
X84438095Y-52562296D01*
X84438095Y-52562296D02*
X84323809Y-52524201D01*
X84323809Y-52524201D02*
X84247619Y-52448010D01*
X84247619Y-52448010D02*
X84209524Y-52371820D01*
X84209524Y-52371820D02*
X84171428Y-52219439D01*
X84171428Y-52219439D02*
X84171428Y-52105153D01*
X84171428Y-52105153D02*
X84209524Y-51952772D01*
X84209524Y-51952772D02*
X84247619Y-51876581D01*
X84247619Y-51876581D02*
X84323809Y-51800391D01*
X84323809Y-51800391D02*
X84438095Y-51762296D01*
X84438095Y-51762296D02*
X84514286Y-51762296D01*
X84514286Y-51762296D02*
X84628571Y-51800391D01*
X84628571Y-51800391D02*
X84666667Y-51838486D01*
X84971428Y-51838486D02*
X85009524Y-51800391D01*
X85009524Y-51800391D02*
X85085714Y-51762296D01*
X85085714Y-51762296D02*
X85276190Y-51762296D01*
X85276190Y-51762296D02*
X85352381Y-51800391D01*
X85352381Y-51800391D02*
X85390476Y-51838486D01*
X85390476Y-51838486D02*
X85428571Y-51914677D01*
X85428571Y-51914677D02*
X85428571Y-51990867D01*
X85428571Y-51990867D02*
X85390476Y-52105153D01*
X85390476Y-52105153D02*
X84933333Y-52562296D01*
X84933333Y-52562296D02*
X85428571Y-52562296D01*
X88333333Y-22624580D02*
X88285714Y-22672200D01*
X88285714Y-22672200D02*
X88142857Y-22719819D01*
X88142857Y-22719819D02*
X88047619Y-22719819D01*
X88047619Y-22719819D02*
X87904762Y-22672200D01*
X87904762Y-22672200D02*
X87809524Y-22576961D01*
X87809524Y-22576961D02*
X87761905Y-22481723D01*
X87761905Y-22481723D02*
X87714286Y-22291247D01*
X87714286Y-22291247D02*
X87714286Y-22148390D01*
X87714286Y-22148390D02*
X87761905Y-21957914D01*
X87761905Y-21957914D02*
X87809524Y-21862676D01*
X87809524Y-21862676D02*
X87904762Y-21767438D01*
X87904762Y-21767438D02*
X88047619Y-21719819D01*
X88047619Y-21719819D02*
X88142857Y-21719819D01*
X88142857Y-21719819D02*
X88285714Y-21767438D01*
X88285714Y-21767438D02*
X88333333Y-21815057D01*
X89285714Y-22719819D02*
X88714286Y-22719819D01*
X89000000Y-22719819D02*
X89000000Y-21719819D01*
X89000000Y-21719819D02*
X88904762Y-21862676D01*
X88904762Y-21862676D02*
X88809524Y-21957914D01*
X88809524Y-21957914D02*
X88714286Y-22005533D01*
X87766668Y-30587295D02*
X87500001Y-30206342D01*
X87309525Y-30587295D02*
X87309525Y-29787295D01*
X87309525Y-29787295D02*
X87614287Y-29787295D01*
X87614287Y-29787295D02*
X87690477Y-29825390D01*
X87690477Y-29825390D02*
X87728572Y-29863485D01*
X87728572Y-29863485D02*
X87766668Y-29939676D01*
X87766668Y-29939676D02*
X87766668Y-30053961D01*
X87766668Y-30053961D02*
X87728572Y-30130152D01*
X87728572Y-30130152D02*
X87690477Y-30168247D01*
X87690477Y-30168247D02*
X87614287Y-30206342D01*
X87614287Y-30206342D02*
X87309525Y-30206342D01*
X88452382Y-30053961D02*
X88452382Y-30587295D01*
X88261906Y-29749200D02*
X88071429Y-30320628D01*
X88071429Y-30320628D02*
X88566668Y-30320628D01*
X115416667Y-52562296D02*
X115150000Y-52181343D01*
X114959524Y-52562296D02*
X114959524Y-51762296D01*
X114959524Y-51762296D02*
X115264286Y-51762296D01*
X115264286Y-51762296D02*
X115340476Y-51800391D01*
X115340476Y-51800391D02*
X115378571Y-51838486D01*
X115378571Y-51838486D02*
X115416667Y-51914677D01*
X115416667Y-51914677D02*
X115416667Y-52028962D01*
X115416667Y-52028962D02*
X115378571Y-52105153D01*
X115378571Y-52105153D02*
X115340476Y-52143248D01*
X115340476Y-52143248D02*
X115264286Y-52181343D01*
X115264286Y-52181343D02*
X114959524Y-52181343D01*
X115721428Y-51838486D02*
X115759524Y-51800391D01*
X115759524Y-51800391D02*
X115835714Y-51762296D01*
X115835714Y-51762296D02*
X116026190Y-51762296D01*
X116026190Y-51762296D02*
X116102381Y-51800391D01*
X116102381Y-51800391D02*
X116140476Y-51838486D01*
X116140476Y-51838486D02*
X116178571Y-51914677D01*
X116178571Y-51914677D02*
X116178571Y-51990867D01*
X116178571Y-51990867D02*
X116140476Y-52105153D01*
X116140476Y-52105153D02*
X115683333Y-52562296D01*
X115683333Y-52562296D02*
X116178571Y-52562296D01*
X121333333Y-45124580D02*
X121285714Y-45172200D01*
X121285714Y-45172200D02*
X121142857Y-45219819D01*
X121142857Y-45219819D02*
X121047619Y-45219819D01*
X121047619Y-45219819D02*
X120904762Y-45172200D01*
X120904762Y-45172200D02*
X120809524Y-45076961D01*
X120809524Y-45076961D02*
X120761905Y-44981723D01*
X120761905Y-44981723D02*
X120714286Y-44791247D01*
X120714286Y-44791247D02*
X120714286Y-44648390D01*
X120714286Y-44648390D02*
X120761905Y-44457914D01*
X120761905Y-44457914D02*
X120809524Y-44362676D01*
X120809524Y-44362676D02*
X120904762Y-44267438D01*
X120904762Y-44267438D02*
X121047619Y-44219819D01*
X121047619Y-44219819D02*
X121142857Y-44219819D01*
X121142857Y-44219819D02*
X121285714Y-44267438D01*
X121285714Y-44267438D02*
X121333333Y-44315057D01*
X122285714Y-45219819D02*
X121714286Y-45219819D01*
X122000000Y-45219819D02*
X122000000Y-44219819D01*
X122000000Y-44219819D02*
X121904762Y-44362676D01*
X121904762Y-44362676D02*
X121809524Y-44457914D01*
X121809524Y-44457914D02*
X121714286Y-44505533D01*
X117662295Y-23733332D02*
X117281342Y-23999999D01*
X117662295Y-24190475D02*
X116862295Y-24190475D01*
X116862295Y-24190475D02*
X116862295Y-23885713D01*
X116862295Y-23885713D02*
X116900390Y-23809523D01*
X116900390Y-23809523D02*
X116938485Y-23771428D01*
X116938485Y-23771428D02*
X117014676Y-23733332D01*
X117014676Y-23733332D02*
X117128961Y-23733332D01*
X117128961Y-23733332D02*
X117205152Y-23771428D01*
X117205152Y-23771428D02*
X117243247Y-23809523D01*
X117243247Y-23809523D02*
X117281342Y-23885713D01*
X117281342Y-23885713D02*
X117281342Y-24190475D01*
X117662295Y-22971428D02*
X117662295Y-23428571D01*
X117662295Y-23199999D02*
X116862295Y-23199999D01*
X116862295Y-23199999D02*
X116976580Y-23276190D01*
X116976580Y-23276190D02*
X117052771Y-23352380D01*
X117052771Y-23352380D02*
X117090866Y-23428571D01*
X94666667Y-44562296D02*
X94400000Y-44181343D01*
X94209524Y-44562296D02*
X94209524Y-43762296D01*
X94209524Y-43762296D02*
X94514286Y-43762296D01*
X94514286Y-43762296D02*
X94590476Y-43800391D01*
X94590476Y-43800391D02*
X94628571Y-43838486D01*
X94628571Y-43838486D02*
X94666667Y-43914677D01*
X94666667Y-43914677D02*
X94666667Y-44028962D01*
X94666667Y-44028962D02*
X94628571Y-44105153D01*
X94628571Y-44105153D02*
X94590476Y-44143248D01*
X94590476Y-44143248D02*
X94514286Y-44181343D01*
X94514286Y-44181343D02*
X94209524Y-44181343D01*
X95390476Y-43762296D02*
X95009524Y-43762296D01*
X95009524Y-43762296D02*
X94971428Y-44143248D01*
X94971428Y-44143248D02*
X95009524Y-44105153D01*
X95009524Y-44105153D02*
X95085714Y-44067058D01*
X95085714Y-44067058D02*
X95276190Y-44067058D01*
X95276190Y-44067058D02*
X95352381Y-44105153D01*
X95352381Y-44105153D02*
X95390476Y-44143248D01*
X95390476Y-44143248D02*
X95428571Y-44219439D01*
X95428571Y-44219439D02*
X95428571Y-44409915D01*
X95428571Y-44409915D02*
X95390476Y-44486105D01*
X95390476Y-44486105D02*
X95352381Y-44524201D01*
X95352381Y-44524201D02*
X95276190Y-44562296D01*
X95276190Y-44562296D02*
X95085714Y-44562296D01*
X95085714Y-44562296D02*
X95009524Y-44524201D01*
X95009524Y-44524201D02*
X94971428Y-44486105D01*
X89290476Y-49762296D02*
X89290476Y-50409915D01*
X89290476Y-50409915D02*
X89328571Y-50486105D01*
X89328571Y-50486105D02*
X89366666Y-50524201D01*
X89366666Y-50524201D02*
X89442857Y-50562296D01*
X89442857Y-50562296D02*
X89595238Y-50562296D01*
X89595238Y-50562296D02*
X89671428Y-50524201D01*
X89671428Y-50524201D02*
X89709523Y-50486105D01*
X89709523Y-50486105D02*
X89747619Y-50409915D01*
X89747619Y-50409915D02*
X89747619Y-49762296D01*
X90547618Y-50562296D02*
X90090475Y-50562296D01*
X90319047Y-50562296D02*
X90319047Y-49762296D01*
X90319047Y-49762296D02*
X90242856Y-49876581D01*
X90242856Y-49876581D02*
X90166666Y-49952772D01*
X90166666Y-49952772D02*
X90090475Y-49990867D01*
X94666667Y-30662296D02*
X94400000Y-30281343D01*
X94209524Y-30662296D02*
X94209524Y-29862296D01*
X94209524Y-29862296D02*
X94514286Y-29862296D01*
X94514286Y-29862296D02*
X94590476Y-29900391D01*
X94590476Y-29900391D02*
X94628571Y-29938486D01*
X94628571Y-29938486D02*
X94666667Y-30014677D01*
X94666667Y-30014677D02*
X94666667Y-30128962D01*
X94666667Y-30128962D02*
X94628571Y-30205153D01*
X94628571Y-30205153D02*
X94590476Y-30243248D01*
X94590476Y-30243248D02*
X94514286Y-30281343D01*
X94514286Y-30281343D02*
X94209524Y-30281343D01*
X94933333Y-29862296D02*
X95428571Y-29862296D01*
X95428571Y-29862296D02*
X95161905Y-30167058D01*
X95161905Y-30167058D02*
X95276190Y-30167058D01*
X95276190Y-30167058D02*
X95352381Y-30205153D01*
X95352381Y-30205153D02*
X95390476Y-30243248D01*
X95390476Y-30243248D02*
X95428571Y-30319439D01*
X95428571Y-30319439D02*
X95428571Y-30509915D01*
X95428571Y-30509915D02*
X95390476Y-30586105D01*
X95390476Y-30586105D02*
X95352381Y-30624201D01*
X95352381Y-30624201D02*
X95276190Y-30662296D01*
X95276190Y-30662296D02*
X95047619Y-30662296D01*
X95047619Y-30662296D02*
X94971428Y-30624201D01*
X94971428Y-30624201D02*
X94933333Y-30586105D01*
X82416667Y-30062296D02*
X82150000Y-29681343D01*
X81959524Y-30062296D02*
X81959524Y-29262296D01*
X81959524Y-29262296D02*
X82264286Y-29262296D01*
X82264286Y-29262296D02*
X82340476Y-29300391D01*
X82340476Y-29300391D02*
X82378571Y-29338486D01*
X82378571Y-29338486D02*
X82416667Y-29414677D01*
X82416667Y-29414677D02*
X82416667Y-29528962D01*
X82416667Y-29528962D02*
X82378571Y-29605153D01*
X82378571Y-29605153D02*
X82340476Y-29643248D01*
X82340476Y-29643248D02*
X82264286Y-29681343D01*
X82264286Y-29681343D02*
X81959524Y-29681343D01*
X82721428Y-29338486D02*
X82759524Y-29300391D01*
X82759524Y-29300391D02*
X82835714Y-29262296D01*
X82835714Y-29262296D02*
X83026190Y-29262296D01*
X83026190Y-29262296D02*
X83102381Y-29300391D01*
X83102381Y-29300391D02*
X83140476Y-29338486D01*
X83140476Y-29338486D02*
X83178571Y-29414677D01*
X83178571Y-29414677D02*
X83178571Y-29490867D01*
X83178571Y-29490867D02*
X83140476Y-29605153D01*
X83140476Y-29605153D02*
X82683333Y-30062296D01*
X82683333Y-30062296D02*
X83178571Y-30062296D01*
X127666667Y-22062296D02*
X127400000Y-21681343D01*
X127209524Y-22062296D02*
X127209524Y-21262296D01*
X127209524Y-21262296D02*
X127514286Y-21262296D01*
X127514286Y-21262296D02*
X127590476Y-21300391D01*
X127590476Y-21300391D02*
X127628571Y-21338486D01*
X127628571Y-21338486D02*
X127666667Y-21414677D01*
X127666667Y-21414677D02*
X127666667Y-21528962D01*
X127666667Y-21528962D02*
X127628571Y-21605153D01*
X127628571Y-21605153D02*
X127590476Y-21643248D01*
X127590476Y-21643248D02*
X127514286Y-21681343D01*
X127514286Y-21681343D02*
X127209524Y-21681343D01*
X128390476Y-21262296D02*
X128009524Y-21262296D01*
X128009524Y-21262296D02*
X127971428Y-21643248D01*
X127971428Y-21643248D02*
X128009524Y-21605153D01*
X128009524Y-21605153D02*
X128085714Y-21567058D01*
X128085714Y-21567058D02*
X128276190Y-21567058D01*
X128276190Y-21567058D02*
X128352381Y-21605153D01*
X128352381Y-21605153D02*
X128390476Y-21643248D01*
X128390476Y-21643248D02*
X128428571Y-21719439D01*
X128428571Y-21719439D02*
X128428571Y-21909915D01*
X128428571Y-21909915D02*
X128390476Y-21986105D01*
X128390476Y-21986105D02*
X128352381Y-22024201D01*
X128352381Y-22024201D02*
X128276190Y-22062296D01*
X128276190Y-22062296D02*
X128085714Y-22062296D01*
X128085714Y-22062296D02*
X128009524Y-22024201D01*
X128009524Y-22024201D02*
X127971428Y-21986105D01*
X120766668Y-30587295D02*
X120500001Y-30206342D01*
X120309525Y-30587295D02*
X120309525Y-29787295D01*
X120309525Y-29787295D02*
X120614287Y-29787295D01*
X120614287Y-29787295D02*
X120690477Y-29825390D01*
X120690477Y-29825390D02*
X120728572Y-29863485D01*
X120728572Y-29863485D02*
X120766668Y-29939676D01*
X120766668Y-29939676D02*
X120766668Y-30053961D01*
X120766668Y-30053961D02*
X120728572Y-30130152D01*
X120728572Y-30130152D02*
X120690477Y-30168247D01*
X120690477Y-30168247D02*
X120614287Y-30206342D01*
X120614287Y-30206342D02*
X120309525Y-30206342D01*
X121452382Y-30053961D02*
X121452382Y-30587295D01*
X121261906Y-29749200D02*
X121071429Y-30320628D01*
X121071429Y-30320628D02*
X121566668Y-30320628D01*
D11*
X131656190Y-21023878D02*
X131656190Y-21282925D01*
X131656190Y-21282925D02*
X131671428Y-21313401D01*
X131671428Y-21313401D02*
X131686666Y-21328640D01*
X131686666Y-21328640D02*
X131717142Y-21343878D01*
X131717142Y-21343878D02*
X131778095Y-21343878D01*
X131778095Y-21343878D02*
X131808571Y-21328640D01*
X131808571Y-21328640D02*
X131823809Y-21313401D01*
X131823809Y-21313401D02*
X131839047Y-21282925D01*
X131839047Y-21282925D02*
X131839047Y-21023878D01*
X131976190Y-21054354D02*
X131991428Y-21039116D01*
X131991428Y-21039116D02*
X132021904Y-21023878D01*
X132021904Y-21023878D02*
X132098095Y-21023878D01*
X132098095Y-21023878D02*
X132128571Y-21039116D01*
X132128571Y-21039116D02*
X132143809Y-21054354D01*
X132143809Y-21054354D02*
X132159047Y-21084830D01*
X132159047Y-21084830D02*
X132159047Y-21115306D01*
X132159047Y-21115306D02*
X132143809Y-21161020D01*
X132143809Y-21161020D02*
X131960952Y-21343878D01*
X131960952Y-21343878D02*
X132159047Y-21343878D01*
X131656190Y-43523878D02*
X131656190Y-43782925D01*
X131656190Y-43782925D02*
X131671428Y-43813401D01*
X131671428Y-43813401D02*
X131686666Y-43828640D01*
X131686666Y-43828640D02*
X131717142Y-43843878D01*
X131717142Y-43843878D02*
X131778095Y-43843878D01*
X131778095Y-43843878D02*
X131808571Y-43828640D01*
X131808571Y-43828640D02*
X131823809Y-43813401D01*
X131823809Y-43813401D02*
X131839047Y-43782925D01*
X131839047Y-43782925D02*
X131839047Y-43523878D01*
X131976190Y-43554354D02*
X131991428Y-43539116D01*
X131991428Y-43539116D02*
X132021904Y-43523878D01*
X132021904Y-43523878D02*
X132098095Y-43523878D01*
X132098095Y-43523878D02*
X132128571Y-43539116D01*
X132128571Y-43539116D02*
X132143809Y-43554354D01*
X132143809Y-43554354D02*
X132159047Y-43584830D01*
X132159047Y-43584830D02*
X132159047Y-43615306D01*
X132159047Y-43615306D02*
X132143809Y-43661020D01*
X132143809Y-43661020D02*
X131960952Y-43843878D01*
X131960952Y-43843878D02*
X132159047Y-43843878D01*
D10*
X97133333Y-53502295D02*
X97133333Y-54073723D01*
X97133333Y-54073723D02*
X97095238Y-54188009D01*
X97095238Y-54188009D02*
X97019047Y-54264200D01*
X97019047Y-54264200D02*
X96904762Y-54302295D01*
X96904762Y-54302295D02*
X96828571Y-54302295D01*
X97514286Y-54302295D02*
X97514286Y-53502295D01*
X97514286Y-53502295D02*
X97819048Y-53502295D01*
X97819048Y-53502295D02*
X97895238Y-53540390D01*
X97895238Y-53540390D02*
X97933333Y-53578485D01*
X97933333Y-53578485D02*
X97971429Y-53654676D01*
X97971429Y-53654676D02*
X97971429Y-53768961D01*
X97971429Y-53768961D02*
X97933333Y-53845152D01*
X97933333Y-53845152D02*
X97895238Y-53883247D01*
X97895238Y-53883247D02*
X97819048Y-53921342D01*
X97819048Y-53921342D02*
X97514286Y-53921342D01*
X98733333Y-54302295D02*
X98276190Y-54302295D01*
X98504762Y-54302295D02*
X98504762Y-53502295D01*
X98504762Y-53502295D02*
X98428571Y-53616580D01*
X98428571Y-53616580D02*
X98352381Y-53692771D01*
X98352381Y-53692771D02*
X98276190Y-53730866D01*
X87766668Y-53087295D02*
X87500001Y-52706342D01*
X87309525Y-53087295D02*
X87309525Y-52287295D01*
X87309525Y-52287295D02*
X87614287Y-52287295D01*
X87614287Y-52287295D02*
X87690477Y-52325390D01*
X87690477Y-52325390D02*
X87728572Y-52363485D01*
X87728572Y-52363485D02*
X87766668Y-52439676D01*
X87766668Y-52439676D02*
X87766668Y-52553961D01*
X87766668Y-52553961D02*
X87728572Y-52630152D01*
X87728572Y-52630152D02*
X87690477Y-52668247D01*
X87690477Y-52668247D02*
X87614287Y-52706342D01*
X87614287Y-52706342D02*
X87309525Y-52706342D01*
X88452382Y-52553961D02*
X88452382Y-53087295D01*
X88261906Y-52249200D02*
X88071429Y-52820628D01*
X88071429Y-52820628D02*
X88566668Y-52820628D01*
X115416667Y-30062296D02*
X115150000Y-29681343D01*
X114959524Y-30062296D02*
X114959524Y-29262296D01*
X114959524Y-29262296D02*
X115264286Y-29262296D01*
X115264286Y-29262296D02*
X115340476Y-29300391D01*
X115340476Y-29300391D02*
X115378571Y-29338486D01*
X115378571Y-29338486D02*
X115416667Y-29414677D01*
X115416667Y-29414677D02*
X115416667Y-29528962D01*
X115416667Y-29528962D02*
X115378571Y-29605153D01*
X115378571Y-29605153D02*
X115340476Y-29643248D01*
X115340476Y-29643248D02*
X115264286Y-29681343D01*
X115264286Y-29681343D02*
X114959524Y-29681343D01*
X115721428Y-29338486D02*
X115759524Y-29300391D01*
X115759524Y-29300391D02*
X115835714Y-29262296D01*
X115835714Y-29262296D02*
X116026190Y-29262296D01*
X116026190Y-29262296D02*
X116102381Y-29300391D01*
X116102381Y-29300391D02*
X116140476Y-29338486D01*
X116140476Y-29338486D02*
X116178571Y-29414677D01*
X116178571Y-29414677D02*
X116178571Y-29490867D01*
X116178571Y-29490867D02*
X116140476Y-29605153D01*
X116140476Y-29605153D02*
X115683333Y-30062296D01*
X115683333Y-30062296D02*
X116178571Y-30062296D01*
X89290476Y-27262296D02*
X89290476Y-27909915D01*
X89290476Y-27909915D02*
X89328571Y-27986105D01*
X89328571Y-27986105D02*
X89366666Y-28024201D01*
X89366666Y-28024201D02*
X89442857Y-28062296D01*
X89442857Y-28062296D02*
X89595238Y-28062296D01*
X89595238Y-28062296D02*
X89671428Y-28024201D01*
X89671428Y-28024201D02*
X89709523Y-27986105D01*
X89709523Y-27986105D02*
X89747619Y-27909915D01*
X89747619Y-27909915D02*
X89747619Y-27262296D01*
X90547618Y-28062296D02*
X90090475Y-28062296D01*
X90319047Y-28062296D02*
X90319047Y-27262296D01*
X90319047Y-27262296D02*
X90242856Y-27376581D01*
X90242856Y-27376581D02*
X90166666Y-27452772D01*
X90166666Y-27452772D02*
X90090475Y-27490867D01*
X117666667Y-52486105D02*
X117628571Y-52524201D01*
X117628571Y-52524201D02*
X117514286Y-52562296D01*
X117514286Y-52562296D02*
X117438095Y-52562296D01*
X117438095Y-52562296D02*
X117323809Y-52524201D01*
X117323809Y-52524201D02*
X117247619Y-52448010D01*
X117247619Y-52448010D02*
X117209524Y-52371820D01*
X117209524Y-52371820D02*
X117171428Y-52219439D01*
X117171428Y-52219439D02*
X117171428Y-52105153D01*
X117171428Y-52105153D02*
X117209524Y-51952772D01*
X117209524Y-51952772D02*
X117247619Y-51876581D01*
X117247619Y-51876581D02*
X117323809Y-51800391D01*
X117323809Y-51800391D02*
X117438095Y-51762296D01*
X117438095Y-51762296D02*
X117514286Y-51762296D01*
X117514286Y-51762296D02*
X117628571Y-51800391D01*
X117628571Y-51800391D02*
X117666667Y-51838486D01*
X117971428Y-51838486D02*
X118009524Y-51800391D01*
X118009524Y-51800391D02*
X118085714Y-51762296D01*
X118085714Y-51762296D02*
X118276190Y-51762296D01*
X118276190Y-51762296D02*
X118352381Y-51800391D01*
X118352381Y-51800391D02*
X118390476Y-51838486D01*
X118390476Y-51838486D02*
X118428571Y-51914677D01*
X118428571Y-51914677D02*
X118428571Y-51990867D01*
X118428571Y-51990867D02*
X118390476Y-52105153D01*
X118390476Y-52105153D02*
X117933333Y-52562296D01*
X117933333Y-52562296D02*
X118428571Y-52562296D01*
X117662295Y-46233332D02*
X117281342Y-46499999D01*
X117662295Y-46690475D02*
X116862295Y-46690475D01*
X116862295Y-46690475D02*
X116862295Y-46385713D01*
X116862295Y-46385713D02*
X116900390Y-46309523D01*
X116900390Y-46309523D02*
X116938485Y-46271428D01*
X116938485Y-46271428D02*
X117014676Y-46233332D01*
X117014676Y-46233332D02*
X117128961Y-46233332D01*
X117128961Y-46233332D02*
X117205152Y-46271428D01*
X117205152Y-46271428D02*
X117243247Y-46309523D01*
X117243247Y-46309523D02*
X117281342Y-46385713D01*
X117281342Y-46385713D02*
X117281342Y-46690475D01*
X117662295Y-45471428D02*
X117662295Y-45928571D01*
X117662295Y-45699999D02*
X116862295Y-45699999D01*
X116862295Y-45699999D02*
X116976580Y-45776190D01*
X116976580Y-45776190D02*
X117052771Y-45852380D01*
X117052771Y-45852380D02*
X117090866Y-45928571D01*
X130133333Y-31002295D02*
X130133333Y-31573723D01*
X130133333Y-31573723D02*
X130095238Y-31688009D01*
X130095238Y-31688009D02*
X130019047Y-31764200D01*
X130019047Y-31764200D02*
X129904762Y-31802295D01*
X129904762Y-31802295D02*
X129828571Y-31802295D01*
X130514286Y-31802295D02*
X130514286Y-31002295D01*
X130514286Y-31002295D02*
X130819048Y-31002295D01*
X130819048Y-31002295D02*
X130895238Y-31040390D01*
X130895238Y-31040390D02*
X130933333Y-31078485D01*
X130933333Y-31078485D02*
X130971429Y-31154676D01*
X130971429Y-31154676D02*
X130971429Y-31268961D01*
X130971429Y-31268961D02*
X130933333Y-31345152D01*
X130933333Y-31345152D02*
X130895238Y-31383247D01*
X130895238Y-31383247D02*
X130819048Y-31421342D01*
X130819048Y-31421342D02*
X130514286Y-31421342D01*
X131733333Y-31802295D02*
X131276190Y-31802295D01*
X131504762Y-31802295D02*
X131504762Y-31002295D01*
X131504762Y-31002295D02*
X131428571Y-31116580D01*
X131428571Y-31116580D02*
X131352381Y-31192771D01*
X131352381Y-31192771D02*
X131276190Y-31230866D01*
X117666667Y-29986105D02*
X117628571Y-30024201D01*
X117628571Y-30024201D02*
X117514286Y-30062296D01*
X117514286Y-30062296D02*
X117438095Y-30062296D01*
X117438095Y-30062296D02*
X117323809Y-30024201D01*
X117323809Y-30024201D02*
X117247619Y-29948010D01*
X117247619Y-29948010D02*
X117209524Y-29871820D01*
X117209524Y-29871820D02*
X117171428Y-29719439D01*
X117171428Y-29719439D02*
X117171428Y-29605153D01*
X117171428Y-29605153D02*
X117209524Y-29452772D01*
X117209524Y-29452772D02*
X117247619Y-29376581D01*
X117247619Y-29376581D02*
X117323809Y-29300391D01*
X117323809Y-29300391D02*
X117438095Y-29262296D01*
X117438095Y-29262296D02*
X117514286Y-29262296D01*
X117514286Y-29262296D02*
X117628571Y-29300391D01*
X117628571Y-29300391D02*
X117666667Y-29338486D01*
X117971428Y-29338486D02*
X118009524Y-29300391D01*
X118009524Y-29300391D02*
X118085714Y-29262296D01*
X118085714Y-29262296D02*
X118276190Y-29262296D01*
X118276190Y-29262296D02*
X118352381Y-29300391D01*
X118352381Y-29300391D02*
X118390476Y-29338486D01*
X118390476Y-29338486D02*
X118428571Y-29414677D01*
X118428571Y-29414677D02*
X118428571Y-29490867D01*
X118428571Y-29490867D02*
X118390476Y-29605153D01*
X118390476Y-29605153D02*
X117933333Y-30062296D01*
X117933333Y-30062296D02*
X118428571Y-30062296D01*
D12*
%TO.C,JP1*%
X96400000Y-29940000D02*
X96400000Y-29340000D01*
X97100000Y-28640000D02*
X98500000Y-28640000D01*
X98500000Y-30640000D02*
X97100000Y-30640000D01*
X99200000Y-29340000D02*
X99200000Y-29940000D01*
X96400000Y-29340000D02*
G75*
G02*
X97100000Y-28640000I700000J0D01*
G01*
X97100000Y-30640000D02*
G75*
G02*
X96400000Y-29940000I0J700000D01*
G01*
X98500000Y-28640000D02*
G75*
G02*
X99200000Y-29340000I1J-699999D01*
G01*
X99200000Y-29940000D02*
G75*
G02*
X98500000Y-30640000I-699999J-1D01*
G01*
%TO.C,R2*%
X81815000Y-49575436D02*
X81815000Y-50029564D01*
X83285000Y-49575436D02*
X83285000Y-50029564D01*
%TO.C,R3*%
X127065000Y-28117064D02*
X127065000Y-27662936D01*
X128535000Y-28117064D02*
X128535000Y-27662936D01*
%TO.C,R1*%
X81815000Y-23387936D02*
X81815000Y-23842064D01*
X83285000Y-23387936D02*
X83285000Y-23842064D01*
D13*
%TO.C,U2*%
X96250000Y-21710000D02*
X99350000Y-21710000D01*
X96250000Y-25570000D02*
X96250000Y-21710000D01*
X99350000Y-21710000D02*
X99350000Y-25570000D01*
X99350000Y-25570000D02*
X96250000Y-25570000D01*
D12*
%TO.C,J1*%
X110970000Y-46220000D02*
X110970000Y-53900000D01*
X110970000Y-46220000D02*
X113630000Y-46220000D01*
X110970000Y-53900000D02*
X113630000Y-53900000D01*
X112300000Y-43620000D02*
X113630000Y-43620000D01*
X113630000Y-43620000D02*
X113630000Y-44950000D01*
X113630000Y-46220000D02*
X113630000Y-53900000D01*
%TO.C,C3*%
X130538748Y-26405000D02*
X131061252Y-26405000D01*
X130538748Y-27875000D02*
X131061252Y-27875000D01*
%TO.C,R4*%
X123322936Y-52030000D02*
X123777064Y-52030000D01*
X123322936Y-53500000D02*
X123777064Y-53500000D01*
%TO.C,C1*%
X124561252Y-21530000D02*
X124038748Y-21530000D01*
X124561252Y-23000000D02*
X124038748Y-23000000D01*
%TO.C,R3*%
X94065000Y-50617064D02*
X94065000Y-50162936D01*
X95535000Y-50617064D02*
X95535000Y-50162936D01*
%TO.C,R1*%
X81815000Y-45887936D02*
X81815000Y-46342064D01*
X83285000Y-45887936D02*
X83285000Y-46342064D01*
%TO.C,R3*%
X127065000Y-50617064D02*
X127065000Y-50162936D01*
X128535000Y-50617064D02*
X128535000Y-50162936D01*
%TO.C,C1*%
X91561252Y-44030000D02*
X91038748Y-44030000D01*
X91561252Y-45500000D02*
X91038748Y-45500000D01*
%TO.C,JP1*%
X129400000Y-52440000D02*
X129400000Y-51840000D01*
X130100000Y-51140000D02*
X131500000Y-51140000D01*
X131500000Y-53140000D02*
X130100000Y-53140000D01*
X132200000Y-51840000D02*
X132200000Y-52440000D01*
X129400000Y-51840000D02*
G75*
G02*
X130100000Y-51140000I700000J0D01*
G01*
X130100000Y-53140000D02*
G75*
G02*
X129400000Y-52440000I0J700000D01*
G01*
X131500000Y-51140000D02*
G75*
G02*
X132200000Y-51840000I1J-699999D01*
G01*
X132200000Y-52440000D02*
G75*
G02*
X131500000Y-53140000I-699999J-1D01*
G01*
%TO.C,J1*%
X77970000Y-23720000D02*
X77970000Y-31400000D01*
X77970000Y-23720000D02*
X80630000Y-23720000D01*
X77970000Y-31400000D02*
X80630000Y-31400000D01*
X79300000Y-21120000D02*
X80630000Y-21120000D01*
X80630000Y-21120000D02*
X80630000Y-22450000D01*
X80630000Y-23720000D02*
X80630000Y-31400000D01*
%TO.C,R5*%
X127065000Y-46867064D02*
X127065000Y-46412936D01*
X128535000Y-46867064D02*
X128535000Y-46412936D01*
%TO.C,U1*%
X122800000Y-23705000D02*
X120850000Y-23705000D01*
X122800000Y-23705000D02*
X124750000Y-23705000D01*
X122800000Y-28825000D02*
X120850000Y-28825000D01*
X122800000Y-28825000D02*
X124750000Y-28825000D01*
X120100000Y-23800000D02*
X119860000Y-23470000D01*
X120340000Y-23470000D01*
X120100000Y-23800000D01*
G36*
X120100000Y-23800000D02*
G01*
X119860000Y-23470000D01*
X120340000Y-23470000D01*
X120100000Y-23800000D01*
G37*
%TO.C,J1*%
X77970000Y-46220000D02*
X77970000Y-53900000D01*
X77970000Y-46220000D02*
X80630000Y-46220000D01*
X77970000Y-53900000D02*
X80630000Y-53900000D01*
X79300000Y-43620000D02*
X80630000Y-43620000D01*
X80630000Y-43620000D02*
X80630000Y-44950000D01*
X80630000Y-46220000D02*
X80630000Y-53900000D01*
%TO.C,R5*%
X94065000Y-24367064D02*
X94065000Y-23912936D01*
X95535000Y-24367064D02*
X95535000Y-23912936D01*
%TO.C,C2*%
X84065000Y-27526252D02*
X84065000Y-27003748D01*
X85535000Y-27526252D02*
X85535000Y-27003748D01*
%TO.C,U1*%
X122800000Y-46205000D02*
X120850000Y-46205000D01*
X122800000Y-46205000D02*
X124750000Y-46205000D01*
X122800000Y-51325000D02*
X120850000Y-51325000D01*
X122800000Y-51325000D02*
X124750000Y-51325000D01*
X120100000Y-46300000D02*
X119860000Y-45970000D01*
X120340000Y-45970000D01*
X120100000Y-46300000D01*
G36*
X120100000Y-46300000D02*
G01*
X119860000Y-45970000D01*
X120340000Y-45970000D01*
X120100000Y-46300000D01*
G37*
D13*
%TO.C,U2*%
X96250000Y-44210000D02*
X99350000Y-44210000D01*
X96250000Y-48070000D02*
X96250000Y-44210000D01*
X99350000Y-44210000D02*
X99350000Y-48070000D01*
X99350000Y-48070000D02*
X96250000Y-48070000D01*
D12*
%TO.C,C2*%
X84065000Y-50026252D02*
X84065000Y-49503748D01*
X85535000Y-50026252D02*
X85535000Y-49503748D01*
%TO.C,C1*%
X91561252Y-21530000D02*
X91038748Y-21530000D01*
X91561252Y-23000000D02*
X91038748Y-23000000D01*
%TO.C,R4*%
X90322936Y-29530000D02*
X90777064Y-29530000D01*
X90322936Y-31000000D02*
X90777064Y-31000000D01*
%TO.C,C3*%
X97538748Y-48905000D02*
X98061252Y-48905000D01*
X97538748Y-50375000D02*
X98061252Y-50375000D01*
%TO.C,R2*%
X114815000Y-49575436D02*
X114815000Y-50029564D01*
X116285000Y-49575436D02*
X116285000Y-50029564D01*
%TO.C,C1*%
X124561252Y-44030000D02*
X124038748Y-44030000D01*
X124561252Y-45500000D02*
X124038748Y-45500000D01*
%TO.C,R1*%
X114815000Y-23387936D02*
X114815000Y-23842064D01*
X116285000Y-23387936D02*
X116285000Y-23842064D01*
%TO.C,J1*%
X110970000Y-23720000D02*
X110970000Y-31400000D01*
X110970000Y-23720000D02*
X113630000Y-23720000D01*
X110970000Y-31400000D02*
X113630000Y-31400000D01*
X112300000Y-21120000D02*
X113630000Y-21120000D01*
X113630000Y-21120000D02*
X113630000Y-22450000D01*
X113630000Y-23720000D02*
X113630000Y-31400000D01*
%TO.C,C3*%
X97538748Y-26405000D02*
X98061252Y-26405000D01*
X97538748Y-27875000D02*
X98061252Y-27875000D01*
%TO.C,R5*%
X94065000Y-46867064D02*
X94065000Y-46412936D01*
X95535000Y-46867064D02*
X95535000Y-46412936D01*
%TO.C,U1*%
X89800000Y-46205000D02*
X87850000Y-46205000D01*
X89800000Y-46205000D02*
X91750000Y-46205000D01*
X89800000Y-51325000D02*
X87850000Y-51325000D01*
X89800000Y-51325000D02*
X91750000Y-51325000D01*
X87100000Y-46300000D02*
X86860000Y-45970000D01*
X87340000Y-45970000D01*
X87100000Y-46300000D01*
G36*
X87100000Y-46300000D02*
G01*
X86860000Y-45970000D01*
X87340000Y-45970000D01*
X87100000Y-46300000D01*
G37*
%TO.C,C3*%
X130538748Y-48905000D02*
X131061252Y-48905000D01*
X130538748Y-50375000D02*
X131061252Y-50375000D01*
%TO.C,R3*%
X94065000Y-28117064D02*
X94065000Y-27662936D01*
X95535000Y-28117064D02*
X95535000Y-27662936D01*
%TO.C,R2*%
X81815000Y-27075436D02*
X81815000Y-27529564D01*
X83285000Y-27075436D02*
X83285000Y-27529564D01*
%TO.C,R5*%
X127065000Y-24367064D02*
X127065000Y-23912936D01*
X128535000Y-24367064D02*
X128535000Y-23912936D01*
%TO.C,R4*%
X123322936Y-29530000D02*
X123777064Y-29530000D01*
X123322936Y-31000000D02*
X123777064Y-31000000D01*
D13*
%TO.C,U2*%
X129250000Y-21710000D02*
X132350000Y-21710000D01*
X129250000Y-25570000D02*
X129250000Y-21710000D01*
X132350000Y-21710000D02*
X132350000Y-25570000D01*
X132350000Y-25570000D02*
X129250000Y-25570000D01*
X129250000Y-44210000D02*
X132350000Y-44210000D01*
X129250000Y-48070000D02*
X129250000Y-44210000D01*
X132350000Y-44210000D02*
X132350000Y-48070000D01*
X132350000Y-48070000D02*
X129250000Y-48070000D01*
D12*
%TO.C,JP1*%
X96400000Y-52440000D02*
X96400000Y-51840000D01*
X97100000Y-51140000D02*
X98500000Y-51140000D01*
X98500000Y-53140000D02*
X97100000Y-53140000D01*
X99200000Y-51840000D02*
X99200000Y-52440000D01*
X96400000Y-51840000D02*
G75*
G02*
X97100000Y-51140000I700000J0D01*
G01*
X97100000Y-53140000D02*
G75*
G02*
X96400000Y-52440000I0J700000D01*
G01*
X98500000Y-51140000D02*
G75*
G02*
X99200000Y-51840000I1J-699999D01*
G01*
X99200000Y-52440000D02*
G75*
G02*
X98500000Y-53140000I-699999J-1D01*
G01*
%TO.C,R4*%
X90322936Y-52030000D02*
X90777064Y-52030000D01*
X90322936Y-53500000D02*
X90777064Y-53500000D01*
%TO.C,R2*%
X114815000Y-27075436D02*
X114815000Y-27529564D01*
X116285000Y-27075436D02*
X116285000Y-27529564D01*
%TO.C,U1*%
X89800000Y-23705000D02*
X87850000Y-23705000D01*
X89800000Y-23705000D02*
X91750000Y-23705000D01*
X89800000Y-28825000D02*
X87850000Y-28825000D01*
X89800000Y-28825000D02*
X91750000Y-28825000D01*
X87100000Y-23800000D02*
X86860000Y-23470000D01*
X87340000Y-23470000D01*
X87100000Y-23800000D01*
G36*
X87100000Y-23800000D02*
G01*
X86860000Y-23470000D01*
X87340000Y-23470000D01*
X87100000Y-23800000D01*
G37*
%TO.C,C2*%
X117065000Y-50026252D02*
X117065000Y-49503748D01*
X118535000Y-50026252D02*
X118535000Y-49503748D01*
%TO.C,R1*%
X114815000Y-45887936D02*
X114815000Y-46342064D01*
X116285000Y-45887936D02*
X116285000Y-46342064D01*
%TO.C,JP1*%
X129400000Y-29940000D02*
X129400000Y-29340000D01*
X130100000Y-28640000D02*
X131500000Y-28640000D01*
X131500000Y-30640000D02*
X130100000Y-30640000D01*
X132200000Y-29340000D02*
X132200000Y-29940000D01*
X129400000Y-29340000D02*
G75*
G02*
X130100000Y-28640000I700000J0D01*
G01*
X130100000Y-30640000D02*
G75*
G02*
X129400000Y-29940000I0J700000D01*
G01*
X131500000Y-28640000D02*
G75*
G02*
X132200000Y-29340000I1J-699999D01*
G01*
X132200000Y-29940000D02*
G75*
G02*
X131500000Y-30640000I-699999J-1D01*
G01*
%TO.C,C2*%
X117065000Y-27526252D02*
X117065000Y-27003748D01*
X118535000Y-27526252D02*
X118535000Y-27003748D01*
%TD*%
M02*
