%TF.GenerationSoftware,KiCad,Pcbnew,8.0.8-8.0.8-0~ubuntu24.04.1*%
%TF.CreationDate,2025-02-18T11:05:32+01:00*%
%TF.ProjectId,SPU0410LR5H,53505530-3431-4304-9c52-35482e6b6963,rev?*%
%TF.SameCoordinates,Original*%
%TF.FileFunction,Legend,Bot*%
%TF.FilePolarity,Positive*%
%FSLAX46Y46*%
G04 Gerber Fmt 4.6, Leading zero omitted, Abs format (unit mm)*
G04 Created by KiCad (PCBNEW 8.0.8-8.0.8-0~ubuntu24.04.1) date 2025-02-18 11:05:32*
%MOMM*%
%LPD*%
G01*
G04 APERTURE LIST*
%ADD10C,0.150000*%
%ADD11C,0.000000*%
G04 APERTURE END LIST*
D10*
G36*
X34373795Y-23585630D02*
G01*
X34424200Y-23583325D01*
X34477038Y-23575221D01*
X34525781Y-23561283D01*
X34556000Y-23548749D01*
X34601285Y-23522574D01*
X34639748Y-23490150D01*
X34671390Y-23451477D01*
X34676900Y-23442992D01*
X34699569Y-23397392D01*
X34713842Y-23346688D01*
X34719509Y-23296690D01*
X34719887Y-23279105D01*
X34546719Y-23279105D01*
X34538939Y-23330788D01*
X34513160Y-23375989D01*
X34499580Y-23389503D01*
X34456080Y-23416070D01*
X34406695Y-23428572D01*
X34373795Y-23430536D01*
X34321290Y-23424869D01*
X34274488Y-23405939D01*
X34253627Y-23390236D01*
X34223240Y-23349524D01*
X34210260Y-23302343D01*
X34209175Y-23281792D01*
X34217309Y-23231001D01*
X34237996Y-23191911D01*
X34275580Y-23157420D01*
X34320306Y-23138666D01*
X34458059Y-23103250D01*
X34510723Y-23086092D01*
X34557587Y-23062706D01*
X34598651Y-23033092D01*
X34633913Y-22997249D01*
X34662230Y-22956430D01*
X34682457Y-22911886D01*
X34694592Y-22863618D01*
X34698638Y-22811624D01*
X34694535Y-22756565D01*
X34682229Y-22706578D01*
X34661717Y-22661663D01*
X34633001Y-22621821D01*
X34612908Y-22601331D01*
X34572632Y-22570687D01*
X34526816Y-22547569D01*
X34475460Y-22531978D01*
X34427031Y-22524605D01*
X34383564Y-22522685D01*
X34330954Y-22525506D01*
X34282207Y-22533968D01*
X34232577Y-22549987D01*
X34214060Y-22558345D01*
X34171966Y-22583365D01*
X34133156Y-22617555D01*
X34102197Y-22658728D01*
X34079809Y-22705824D01*
X34067520Y-22753146D01*
X34062912Y-22804761D01*
X34062874Y-22810159D01*
X34234332Y-22810159D01*
X34243348Y-22759684D01*
X34272840Y-22716728D01*
X34275365Y-22714416D01*
X34319454Y-22688119D01*
X34371159Y-22678101D01*
X34383564Y-22677779D01*
X34432829Y-22683745D01*
X34478453Y-22705455D01*
X34488589Y-22713927D01*
X34517532Y-22755388D01*
X34527142Y-22804349D01*
X34527179Y-22807961D01*
X34518524Y-22856682D01*
X34499824Y-22887095D01*
X34459386Y-22917989D01*
X34422888Y-22932280D01*
X34280982Y-22967696D01*
X34233406Y-22982791D01*
X34184730Y-23006654D01*
X34142128Y-23037570D01*
X34105602Y-23075538D01*
X34101464Y-23080780D01*
X34072826Y-23125202D01*
X34052371Y-23173714D01*
X34040098Y-23226318D01*
X34036071Y-23275703D01*
X34036007Y-23283013D01*
X34039291Y-23332777D01*
X34050645Y-23383629D01*
X34070108Y-23429806D01*
X34077528Y-23442748D01*
X34106842Y-23482228D01*
X34142882Y-23515792D01*
X34185649Y-23543441D01*
X34195009Y-23548261D01*
X34245107Y-23567967D01*
X34294682Y-23579463D01*
X34348508Y-23585046D01*
X34373795Y-23585630D01*
G37*
G36*
X33852336Y-23569999D02*
G01*
X33676481Y-23569999D01*
X33676481Y-23163578D01*
X33510641Y-23163578D01*
X33479145Y-23162630D01*
X33425670Y-23156145D01*
X33376329Y-23143516D01*
X33331122Y-23124744D01*
X33321671Y-23119738D01*
X33278480Y-23091073D01*
X33242063Y-23056349D01*
X33212420Y-23015567D01*
X33204869Y-23002209D01*
X33185062Y-22954582D01*
X33173508Y-22902184D01*
X33170166Y-22850948D01*
X33348708Y-22850948D01*
X33350245Y-22876232D01*
X33364120Y-22924771D01*
X33392427Y-22964765D01*
X33413027Y-22981800D01*
X33459098Y-23002336D01*
X33510641Y-23008484D01*
X33676481Y-23008484D01*
X33676481Y-22693411D01*
X33510641Y-22693411D01*
X33483787Y-22694957D01*
X33433028Y-22708910D01*
X33392427Y-22737375D01*
X33375392Y-22757752D01*
X33354856Y-22802233D01*
X33348708Y-22850948D01*
X33170166Y-22850948D01*
X33170537Y-22833439D01*
X33176108Y-22783491D01*
X33190138Y-22732524D01*
X33212420Y-22686328D01*
X33217807Y-22677688D01*
X33248805Y-22638151D01*
X33286576Y-22604720D01*
X33331122Y-22577396D01*
X33360800Y-22564115D01*
X33408763Y-22549346D01*
X33460861Y-22540759D01*
X33510641Y-22538317D01*
X33852336Y-22538317D01*
X33852336Y-23569999D01*
G37*
G36*
X32699510Y-23585630D02*
G01*
X32753637Y-23582719D01*
X32803180Y-23573987D01*
X32855184Y-23556440D01*
X32900946Y-23530970D01*
X32935204Y-23502832D01*
X32968323Y-23463732D01*
X32993307Y-23418883D01*
X33010157Y-23368283D01*
X33018873Y-23311933D01*
X33020201Y-23277151D01*
X33020201Y-22538317D01*
X32843125Y-22538317D01*
X32843125Y-23274953D01*
X32837973Y-23325523D01*
X32818939Y-23372974D01*
X32806488Y-23389503D01*
X32764736Y-23418955D01*
X32716569Y-23429895D01*
X32699510Y-23430536D01*
X32648748Y-23423764D01*
X32603099Y-23399120D01*
X32593264Y-23389503D01*
X32567719Y-23347382D01*
X32556808Y-23297134D01*
X32555895Y-23274953D01*
X32555895Y-22538317D01*
X32378819Y-22538317D01*
X32378819Y-23277151D01*
X32381790Y-23328620D01*
X32392766Y-23383327D01*
X32411830Y-23432284D01*
X32438982Y-23475490D01*
X32463327Y-23502832D01*
X32503430Y-23535094D01*
X32550008Y-23559432D01*
X32603060Y-23575846D01*
X32653687Y-23583609D01*
X32699510Y-23585630D01*
G37*
G36*
X31882726Y-22962069D02*
G01*
X31927947Y-22981862D01*
X31941213Y-22997251D01*
X31953104Y-23044876D01*
X31951532Y-23064584D01*
X31927947Y-23109601D01*
X31908492Y-23122533D01*
X31860292Y-23132315D01*
X31837876Y-23130519D01*
X31792881Y-23109601D01*
X31779485Y-23093415D01*
X31767479Y-23044876D01*
X31769067Y-23025367D01*
X31792881Y-22981862D01*
X31812196Y-22969625D01*
X31860292Y-22960368D01*
X31882726Y-22962069D01*
G37*
G36*
X31884849Y-22523284D02*
G01*
X31937063Y-22529014D01*
X31985064Y-22540810D01*
X32033460Y-22561031D01*
X32037992Y-22563443D01*
X32079771Y-22590949D01*
X32118289Y-22628314D01*
X32146544Y-22668742D01*
X32153703Y-22681961D01*
X32172479Y-22729092D01*
X32183432Y-22780946D01*
X32186600Y-22831652D01*
X32186600Y-23276663D01*
X32186248Y-23293992D01*
X32180967Y-23343456D01*
X32167667Y-23393974D01*
X32146544Y-23439817D01*
X32141408Y-23448367D01*
X32111866Y-23487479D01*
X32075883Y-23520533D01*
X32033460Y-23547528D01*
X32014726Y-23556458D01*
X31964250Y-23573574D01*
X31914377Y-23582616D01*
X31860292Y-23585630D01*
X31835738Y-23585035D01*
X31783561Y-23579342D01*
X31735634Y-23567621D01*
X31687368Y-23547528D01*
X31682821Y-23545101D01*
X31640918Y-23517500D01*
X31602318Y-23480141D01*
X31574039Y-23439817D01*
X31566881Y-23426555D01*
X31548104Y-23379309D01*
X31537152Y-23327389D01*
X31533983Y-23276663D01*
X31533983Y-22832874D01*
X31699824Y-22832874D01*
X31699824Y-23275442D01*
X31700891Y-23296808D01*
X31713657Y-23345887D01*
X31743544Y-23388282D01*
X31763990Y-23404746D01*
X31809527Y-23424594D01*
X31860292Y-23430536D01*
X31882468Y-23429504D01*
X31933373Y-23417166D01*
X31977284Y-23388282D01*
X31992059Y-23371441D01*
X32014645Y-23324397D01*
X32020759Y-23275442D01*
X32020759Y-22832874D01*
X32019710Y-22811507D01*
X32007158Y-22762429D01*
X31977772Y-22720033D01*
X31957458Y-22703569D01*
X31911731Y-22683721D01*
X31860292Y-22677779D01*
X31837781Y-22678811D01*
X31786455Y-22691149D01*
X31742811Y-22720033D01*
X31728202Y-22736875D01*
X31705869Y-22783918D01*
X31699824Y-22832874D01*
X31533983Y-22832874D01*
X31533983Y-22831652D01*
X31534335Y-22814325D01*
X31539616Y-22764894D01*
X31552916Y-22714457D01*
X31574039Y-22668742D01*
X31579176Y-22660164D01*
X31608752Y-22620966D01*
X31644816Y-22587922D01*
X31687368Y-22561031D01*
X31706045Y-22552044D01*
X31756410Y-22534818D01*
X31806226Y-22525718D01*
X31860292Y-22522685D01*
X31884849Y-22523284D01*
G37*
G36*
X30905791Y-23569999D02*
G01*
X30905791Y-23365567D01*
X31360082Y-23365567D01*
X31360082Y-23110822D01*
X30980285Y-22538317D01*
X30784646Y-22538317D01*
X31191310Y-23156984D01*
X31191310Y-23210473D01*
X30905791Y-23210473D01*
X30905791Y-22976000D01*
X30728470Y-22976000D01*
X30728470Y-23569999D01*
X30905791Y-23569999D01*
G37*
G36*
X30485693Y-23569999D02*
G01*
X30485693Y-23414904D01*
X30218491Y-23414904D01*
X30218491Y-22719545D01*
X30487158Y-22915916D01*
X30487158Y-22719545D01*
X30250731Y-22538317D01*
X30042636Y-22538317D01*
X30042636Y-23414904D01*
X29827214Y-23414904D01*
X29827214Y-23569999D01*
X30485693Y-23569999D01*
G37*
G36*
X29365071Y-22962069D02*
G01*
X29410292Y-22981862D01*
X29423558Y-22997251D01*
X29435449Y-23044876D01*
X29433876Y-23064584D01*
X29410292Y-23109601D01*
X29390837Y-23122533D01*
X29342636Y-23132315D01*
X29320221Y-23130519D01*
X29275225Y-23109601D01*
X29261830Y-23093415D01*
X29249824Y-23044876D01*
X29251412Y-23025367D01*
X29275225Y-22981862D01*
X29294541Y-22969625D01*
X29342636Y-22960368D01*
X29365071Y-22962069D01*
G37*
G36*
X29367194Y-22523284D02*
G01*
X29419408Y-22529014D01*
X29467409Y-22540810D01*
X29515805Y-22561031D01*
X29520337Y-22563443D01*
X29562115Y-22590949D01*
X29600634Y-22628314D01*
X29628889Y-22668742D01*
X29636047Y-22681961D01*
X29654824Y-22729092D01*
X29665776Y-22780946D01*
X29668945Y-22831652D01*
X29668945Y-23276663D01*
X29668593Y-23293992D01*
X29663312Y-23343456D01*
X29650012Y-23393974D01*
X29628889Y-23439817D01*
X29623753Y-23448367D01*
X29594210Y-23487479D01*
X29558227Y-23520533D01*
X29515805Y-23547528D01*
X29497070Y-23556458D01*
X29446595Y-23573574D01*
X29396722Y-23582616D01*
X29342636Y-23585630D01*
X29318082Y-23585035D01*
X29265905Y-23579342D01*
X29217979Y-23567621D01*
X29169712Y-23547528D01*
X29165165Y-23545101D01*
X29123262Y-23517500D01*
X29084662Y-23480141D01*
X29056384Y-23439817D01*
X29049225Y-23426555D01*
X29030449Y-23379309D01*
X29019496Y-23327389D01*
X29016328Y-23276663D01*
X29016328Y-22832874D01*
X29182169Y-22832874D01*
X29182169Y-23275442D01*
X29183236Y-23296808D01*
X29196002Y-23345887D01*
X29225888Y-23388282D01*
X29246335Y-23404746D01*
X29291872Y-23424594D01*
X29342636Y-23430536D01*
X29364813Y-23429504D01*
X29415717Y-23417166D01*
X29459629Y-23388282D01*
X29474403Y-23371441D01*
X29496990Y-23324397D01*
X29503104Y-23275442D01*
X29503104Y-22832874D01*
X29502054Y-22811507D01*
X29489503Y-22762429D01*
X29460117Y-22720033D01*
X29439803Y-22703569D01*
X29394076Y-22683721D01*
X29342636Y-22677779D01*
X29320126Y-22678811D01*
X29268800Y-22691149D01*
X29225156Y-22720033D01*
X29210547Y-22736875D01*
X29188214Y-22783918D01*
X29182169Y-22832874D01*
X29016328Y-22832874D01*
X29016328Y-22831652D01*
X29016680Y-22814325D01*
X29021961Y-22764894D01*
X29035261Y-22714457D01*
X29056384Y-22668742D01*
X29061520Y-22660164D01*
X29091097Y-22620966D01*
X29127161Y-22587922D01*
X29169712Y-22561031D01*
X29188389Y-22552044D01*
X29238755Y-22534818D01*
X29288570Y-22525718D01*
X29342636Y-22522685D01*
X29367194Y-22523284D01*
G37*
G36*
X28755232Y-23569999D02*
G01*
X28755232Y-22538317D01*
X28579377Y-22538317D01*
X28579377Y-23414904D01*
X28143160Y-23414904D01*
X28143160Y-23569999D01*
X28755232Y-23569999D01*
G37*
G36*
X27977807Y-23569999D02*
G01*
X27803418Y-23569999D01*
X27803418Y-23162357D01*
X27675435Y-23162357D01*
X27495428Y-23569999D01*
X27302720Y-23569999D01*
X27503732Y-23137200D01*
X27477800Y-23125887D01*
X27435451Y-23100054D01*
X27398666Y-23067189D01*
X27367444Y-23027291D01*
X27350180Y-22997338D01*
X27330980Y-22948963D01*
X27319817Y-22896453D01*
X27316982Y-22851680D01*
X27495428Y-22851680D01*
X27496459Y-22873662D01*
X27508797Y-22923671D01*
X27537682Y-22965986D01*
X27557627Y-22982069D01*
X27602978Y-23001458D01*
X27654430Y-23007263D01*
X27803418Y-23007263D01*
X27803418Y-22693411D01*
X27654430Y-22693411D01*
X27632277Y-22694454D01*
X27581658Y-22706935D01*
X27538414Y-22736153D01*
X27521665Y-22756291D01*
X27501473Y-22801317D01*
X27495428Y-22851680D01*
X27316982Y-22851680D01*
X27316642Y-22846307D01*
X27317013Y-22828943D01*
X27322584Y-22779503D01*
X27336614Y-22729237D01*
X27358896Y-22683885D01*
X27364306Y-22675395D01*
X27395223Y-22636521D01*
X27432580Y-22603611D01*
X27476377Y-22576663D01*
X27505557Y-22563631D01*
X27552966Y-22549139D01*
X27604742Y-22540713D01*
X27654430Y-22538317D01*
X27977807Y-22538317D01*
X27977807Y-23569999D01*
G37*
G36*
X26830599Y-23585630D02*
G01*
X26884872Y-23582814D01*
X26934852Y-23574364D01*
X26987736Y-23557388D01*
X27034776Y-23532744D01*
X27070445Y-23505518D01*
X27105277Y-23467711D01*
X27131554Y-23424388D01*
X27149275Y-23375548D01*
X27158441Y-23321191D01*
X27159838Y-23287654D01*
X26983983Y-23287654D01*
X26977131Y-23336168D01*
X26952193Y-23381527D01*
X26942462Y-23391701D01*
X26900334Y-23418248D01*
X26850834Y-23429588D01*
X26829133Y-23430536D01*
X26779892Y-23425075D01*
X26733643Y-23404899D01*
X26717514Y-23391701D01*
X26688588Y-23348585D01*
X26677844Y-23300366D01*
X26677214Y-23283502D01*
X26677214Y-23215602D01*
X26683744Y-23164282D01*
X26705383Y-23120284D01*
X26716781Y-23107403D01*
X26760785Y-23079528D01*
X26810468Y-23069175D01*
X26827912Y-23068568D01*
X27124667Y-23068568D01*
X27124667Y-22538317D01*
X26539461Y-22538317D01*
X26539461Y-22693411D01*
X26958582Y-22693411D01*
X26957116Y-22913474D01*
X26819363Y-22913474D01*
X26764815Y-22916264D01*
X26715110Y-22924636D01*
X26663241Y-22941458D01*
X26617964Y-22965876D01*
X26584402Y-22992853D01*
X26552044Y-23030595D01*
X26527634Y-23074578D01*
X26511172Y-23124802D01*
X26502657Y-23181267D01*
X26501359Y-23216335D01*
X26501359Y-23284234D01*
X26504450Y-23334712D01*
X26515871Y-23388308D01*
X26535706Y-23436199D01*
X26563956Y-23478387D01*
X26589287Y-23505030D01*
X26630887Y-23536436D01*
X26678752Y-23560128D01*
X26732881Y-23576106D01*
X26784264Y-23583662D01*
X26830599Y-23585630D01*
G37*
G36*
X26299370Y-23569999D02*
G01*
X26299370Y-22538317D01*
X26123516Y-22538317D01*
X26123516Y-22961590D01*
X25848010Y-22961590D01*
X25848010Y-22538317D01*
X25672155Y-22538317D01*
X25672155Y-23569999D01*
X25848010Y-23569999D01*
X25848010Y-23116684D01*
X26123516Y-23116684D01*
X26123516Y-23569999D01*
X26299370Y-23569999D01*
G37*
G36*
X34465142Y-25124946D02*
G01*
X34465142Y-24874841D01*
X34716956Y-24874841D01*
X34716956Y-24702895D01*
X34465142Y-24702895D01*
X34465142Y-24452790D01*
X34290752Y-24452790D01*
X34290752Y-24702895D01*
X34038938Y-24702895D01*
X34038938Y-24874841D01*
X34290752Y-24874841D01*
X34290752Y-25124946D01*
X34465142Y-25124946D01*
G37*
G36*
X33013118Y-25249999D02*
G01*
X33013118Y-24218317D01*
X32837263Y-24218317D01*
X32837263Y-24641590D01*
X32561757Y-24641590D01*
X32561757Y-24218317D01*
X32385902Y-24218317D01*
X32385902Y-25249999D01*
X32561757Y-25249999D01*
X32561757Y-24796684D01*
X32837263Y-24796684D01*
X32837263Y-25249999D01*
X33013118Y-25249999D01*
G37*
G36*
X32173899Y-25249999D02*
G01*
X31998045Y-25249999D01*
X31998045Y-24843578D01*
X31832204Y-24843578D01*
X31800709Y-24842630D01*
X31747233Y-24836145D01*
X31697892Y-24823516D01*
X31652685Y-24804744D01*
X31643234Y-24799738D01*
X31600043Y-24771073D01*
X31563626Y-24736349D01*
X31533983Y-24695567D01*
X31526432Y-24682209D01*
X31506625Y-24634582D01*
X31495071Y-24582184D01*
X31491729Y-24530948D01*
X31670271Y-24530948D01*
X31671808Y-24556232D01*
X31685683Y-24604771D01*
X31713990Y-24644765D01*
X31734590Y-24661800D01*
X31780661Y-24682336D01*
X31832204Y-24688484D01*
X31998045Y-24688484D01*
X31998045Y-24373411D01*
X31832204Y-24373411D01*
X31805350Y-24374957D01*
X31754591Y-24388910D01*
X31713990Y-24417375D01*
X31696955Y-24437752D01*
X31676419Y-24482233D01*
X31670271Y-24530948D01*
X31491729Y-24530948D01*
X31492101Y-24513439D01*
X31497671Y-24463491D01*
X31511701Y-24412524D01*
X31533983Y-24366328D01*
X31539370Y-24357688D01*
X31570368Y-24318151D01*
X31608139Y-24284720D01*
X31652685Y-24257396D01*
X31682364Y-24244115D01*
X31730326Y-24229346D01*
X31782424Y-24220759D01*
X31832204Y-24218317D01*
X32173899Y-24218317D01*
X32173899Y-25249999D01*
G37*
G36*
X31330529Y-25249999D02*
G01*
X31330529Y-24218317D01*
X30691834Y-24218317D01*
X30691834Y-24390264D01*
X31157605Y-24390264D01*
X31157605Y-24656000D01*
X30728470Y-24656000D01*
X30728470Y-24827947D01*
X31154674Y-24827947D01*
X31154674Y-25249999D01*
X31330529Y-25249999D01*
G37*
G36*
X28617479Y-25249999D02*
G01*
X28876132Y-24218317D01*
X28694660Y-24218317D01*
X28538589Y-24892183D01*
X28527165Y-24940207D01*
X28517374Y-24988226D01*
X28515386Y-24998917D01*
X28506613Y-25047575D01*
X28499266Y-25090264D01*
X28490873Y-25041682D01*
X28483146Y-24998917D01*
X28473368Y-24949957D01*
X28462063Y-24900301D01*
X28459698Y-24890717D01*
X28309245Y-24218317D01*
X28130703Y-24218317D01*
X28389356Y-25249999D01*
X28617479Y-25249999D01*
G37*
G36*
X27968038Y-25249999D02*
G01*
X27968038Y-25094904D01*
X27700836Y-25094904D01*
X27700836Y-24399545D01*
X27969503Y-24595916D01*
X27969503Y-24399545D01*
X27733076Y-24218317D01*
X27524981Y-24218317D01*
X27524981Y-25094904D01*
X27309559Y-25094904D01*
X27309559Y-25249999D01*
X27968038Y-25249999D01*
G37*
G36*
X26824981Y-25265630D02*
G01*
X26875295Y-25257580D01*
X26917725Y-25231248D01*
X26919992Y-25228994D01*
X26946919Y-25186801D01*
X26955860Y-25137152D01*
X26955895Y-25133495D01*
X26948006Y-25083034D01*
X26922200Y-25039620D01*
X26919992Y-25037263D01*
X26878287Y-25009236D01*
X26828653Y-24999930D01*
X26824981Y-24999894D01*
X26774667Y-25008105D01*
X26732237Y-25034964D01*
X26729971Y-25037263D01*
X26703043Y-25080005D01*
X26694102Y-25129837D01*
X26694067Y-25133495D01*
X26701956Y-25183795D01*
X26727762Y-25226682D01*
X26729971Y-25228994D01*
X26771675Y-25256471D01*
X26821310Y-25265594D01*
X26824981Y-25265630D01*
G37*
G36*
X26303767Y-25249999D02*
G01*
X26303767Y-25094904D01*
X25933739Y-24709978D01*
X25898622Y-24667854D01*
X25872130Y-24625474D01*
X25852415Y-24576725D01*
X25843965Y-24527640D01*
X25843613Y-24515316D01*
X25849280Y-24466338D01*
X25870218Y-24418747D01*
X25883913Y-24401499D01*
X25924198Y-24371612D01*
X25974955Y-24358462D01*
X25991380Y-24357779D01*
X26042828Y-24365237D01*
X26088135Y-24389947D01*
X26101778Y-24402964D01*
X26128661Y-24444356D01*
X26141840Y-24495503D01*
X26143299Y-24522399D01*
X26319154Y-24522399D01*
X26315831Y-24470437D01*
X26305862Y-24422261D01*
X26286990Y-24373174D01*
X26277144Y-24354848D01*
X26247587Y-24313070D01*
X26211733Y-24277492D01*
X26169582Y-24248116D01*
X26160396Y-24242985D01*
X26111371Y-24221733D01*
X26063292Y-24209336D01*
X26011465Y-24203315D01*
X25987228Y-24202685D01*
X25934461Y-24205738D01*
X25885519Y-24214895D01*
X25835626Y-24232231D01*
X25816991Y-24241276D01*
X25774439Y-24268247D01*
X25738375Y-24301230D01*
X25708799Y-24340223D01*
X25703662Y-24348742D01*
X25682539Y-24394080D01*
X25669239Y-24443997D01*
X25663958Y-24492838D01*
X25663606Y-24509943D01*
X25667256Y-24559836D01*
X25678204Y-24609682D01*
X25696450Y-24659479D01*
X25700975Y-24669433D01*
X25725722Y-24714685D01*
X25754207Y-24755687D01*
X25788798Y-24797422D01*
X25824074Y-24834541D01*
X26082727Y-25094904D01*
X25650906Y-25094904D01*
X25650906Y-25249999D01*
X26303767Y-25249999D01*
G37*
D11*
%TO.C,kibuzzard-670AB1E7*%
G36*
X19733299Y-23434749D02*
G01*
X19776918Y-23440807D01*
X19776918Y-24448884D01*
X19750262Y-24451308D01*
X19723606Y-24451308D01*
X19552766Y-24412535D01*
X19441296Y-24305912D01*
X19380715Y-24144765D01*
X19367084Y-24046925D01*
X19362540Y-23939999D01*
X19377080Y-23750984D01*
X19427968Y-23588626D01*
X19527322Y-23475944D01*
X19689681Y-23433537D01*
X19733299Y-23434749D01*
G37*
G36*
X22755969Y-22974266D02*
G01*
X22940683Y-23030299D01*
X23110917Y-23121290D01*
X23260128Y-23243744D01*
X23382582Y-23392955D01*
X23473573Y-23563189D01*
X23529606Y-23747903D01*
X23548526Y-23939999D01*
X23529606Y-24132095D01*
X23473573Y-24316809D01*
X23382582Y-24487043D01*
X23260128Y-24636254D01*
X23110917Y-24758708D01*
X22940683Y-24849699D01*
X22755969Y-24905732D01*
X22563873Y-24924652D01*
X22563671Y-24924652D01*
X21950585Y-24924652D01*
X20557209Y-24924652D01*
X19755109Y-24924652D01*
X19059632Y-24924652D01*
X18453816Y-24924652D01*
X18453816Y-23939999D01*
X19059632Y-23939999D01*
X19072657Y-24132951D01*
X19111732Y-24295007D01*
X19173829Y-24427984D01*
X19255917Y-24533699D01*
X19356785Y-24613363D01*
X19475222Y-24668190D01*
X19608804Y-24699995D01*
X19755109Y-24710597D01*
X19911409Y-24702115D01*
X19975412Y-24691211D01*
X20317306Y-24691211D01*
X20557209Y-24691211D01*
X20627080Y-24524948D01*
X20700989Y-24358954D01*
X20778938Y-24193230D01*
X20860925Y-24027506D01*
X20946950Y-23861512D01*
X21037015Y-23695249D01*
X21037015Y-24691211D01*
X21305997Y-24691211D01*
X21305997Y-23266332D01*
X21504705Y-23266332D01*
X21582249Y-23503812D01*
X21713106Y-23443230D01*
X21873041Y-23416574D01*
X22052362Y-23455346D01*
X22172314Y-23563182D01*
X22240165Y-23727963D01*
X22255614Y-23828832D01*
X22260763Y-23939999D01*
X22251339Y-24103569D01*
X22223068Y-24235637D01*
X22175949Y-24336203D01*
X22071143Y-24431619D01*
X21926353Y-24463424D01*
X21868194Y-24461001D01*
X21810036Y-24453731D01*
X21810036Y-23906073D01*
X21511975Y-23906073D01*
X21511975Y-24654862D01*
X21677968Y-24698480D01*
X21802463Y-24716655D01*
X21950585Y-24722713D01*
X22084168Y-24710294D01*
X22203816Y-24673036D01*
X22308320Y-24611243D01*
X22396466Y-24525217D01*
X22467346Y-24414959D01*
X22520052Y-24280467D01*
X22552766Y-24122047D01*
X22563671Y-23939999D01*
X22550949Y-23759769D01*
X22512782Y-23601954D01*
X22452807Y-23467160D01*
X22374656Y-23355993D01*
X22279543Y-23269058D01*
X22168679Y-23206962D01*
X22045698Y-23169704D01*
X21914236Y-23157285D01*
X21757936Y-23170613D01*
X21637984Y-23200904D01*
X21554382Y-23237253D01*
X21504705Y-23266332D01*
X21305997Y-23266332D01*
X21305997Y-23191211D01*
X21066094Y-23191211D01*
X20998243Y-23302378D01*
X20930392Y-23422632D01*
X20863449Y-23547127D01*
X20798324Y-23671017D01*
X20736530Y-23792786D01*
X20679584Y-23910920D01*
X20628998Y-24019967D01*
X20586288Y-24114474D01*
X20586288Y-23191211D01*
X20317306Y-23191211D01*
X20317306Y-24691211D01*
X19975412Y-24691211D01*
X20074980Y-24674248D01*
X20074980Y-23210597D01*
X19883542Y-23181518D01*
X19716337Y-23174248D01*
X19574879Y-23185152D01*
X19446143Y-23217867D01*
X19333158Y-23273904D01*
X19238954Y-23354781D01*
X19163530Y-23460799D01*
X19106886Y-23592261D01*
X19071446Y-23751287D01*
X19059632Y-23939999D01*
X18453816Y-23939999D01*
X18453816Y-22955346D01*
X19059632Y-22955346D01*
X22563671Y-22955346D01*
X22563873Y-22955346D01*
X22755969Y-22974266D01*
G37*
%TO.C,kibuzzard-670AB201*%
G36*
X22151716Y-18377770D02*
G01*
X22223202Y-18490451D01*
X22257128Y-18656445D01*
X22263489Y-18754587D01*
X22265609Y-18859999D01*
X22263489Y-18965714D01*
X22257128Y-19064765D01*
X22223202Y-19230758D01*
X22151716Y-19342228D01*
X22028130Y-19383424D01*
X21905755Y-19342228D01*
X21833057Y-19229547D01*
X21799131Y-19063553D01*
X21792770Y-18965411D01*
X21790650Y-18859999D01*
X21792770Y-18754284D01*
X21799131Y-18655233D01*
X21833057Y-18489240D01*
X21904543Y-18377770D01*
X22028130Y-18336574D01*
X22151716Y-18377770D01*
G37*
G36*
X22760815Y-17894266D02*
G01*
X22945529Y-17950299D01*
X23115763Y-18041290D01*
X23264974Y-18163744D01*
X23387428Y-18312955D01*
X23478420Y-18483189D01*
X23534452Y-18667903D01*
X23553372Y-18859999D01*
X23534452Y-19052095D01*
X23478420Y-19236809D01*
X23387428Y-19407043D01*
X23264974Y-19556254D01*
X23115763Y-19678708D01*
X22945529Y-19769699D01*
X22760815Y-19825732D01*
X22568719Y-19844652D01*
X22568517Y-19844652D01*
X22025706Y-19844652D01*
X20821344Y-19844652D01*
X19454624Y-19844652D01*
X19059632Y-19844652D01*
X18453816Y-19844652D01*
X18453816Y-18358383D01*
X19059632Y-18358383D01*
X19454624Y-18358383D01*
X19454624Y-19611211D01*
X19755109Y-19611211D01*
X19755109Y-19068400D01*
X20305189Y-19068400D01*
X20311247Y-19193198D01*
X20329422Y-19305879D01*
X20362742Y-19404627D01*
X20414236Y-19487624D01*
X20484511Y-19553961D01*
X20574172Y-19602729D01*
X20685642Y-19632717D01*
X20821344Y-19642713D01*
X20954927Y-19632717D01*
X21064882Y-19602729D01*
X21221183Y-19487624D01*
X21270860Y-19404627D01*
X21303574Y-19305879D01*
X21321748Y-19193198D01*
X21327806Y-19068400D01*
X21327806Y-18859999D01*
X21487742Y-18859999D01*
X21496526Y-19041971D01*
X21522879Y-19200165D01*
X21566801Y-19334580D01*
X21628291Y-19445217D01*
X21734915Y-19554937D01*
X21867386Y-19620769D01*
X22025706Y-19642713D01*
X22187930Y-19620769D01*
X22322421Y-19554937D01*
X22429180Y-19445217D01*
X22490140Y-19334580D01*
X22533683Y-19200165D01*
X22559809Y-19041971D01*
X22568517Y-18859999D01*
X22559581Y-18678027D01*
X22532774Y-18519833D01*
X22488095Y-18385418D01*
X22425545Y-18274781D01*
X22317844Y-18165061D01*
X22185372Y-18099229D01*
X22028130Y-18077285D01*
X21866040Y-18099229D01*
X21731953Y-18165061D01*
X21625868Y-18274781D01*
X21565438Y-18385418D01*
X21522273Y-18519833D01*
X21496375Y-18678027D01*
X21487742Y-18859999D01*
X21327806Y-18859999D01*
X21327806Y-18111211D01*
X21027322Y-18111211D01*
X21027322Y-19049014D01*
X21017629Y-19207737D01*
X20984915Y-19310726D01*
X20920698Y-19366461D01*
X20816498Y-19383424D01*
X20712298Y-19366461D01*
X20646869Y-19309514D01*
X20612944Y-19205314D01*
X20603251Y-19046590D01*
X20603251Y-18111211D01*
X20305189Y-18111211D01*
X20305189Y-19068400D01*
X19755109Y-19068400D01*
X19755109Y-18358383D01*
X20150100Y-18358383D01*
X20150100Y-18111211D01*
X19059632Y-18111211D01*
X19059632Y-18358383D01*
X18453816Y-18358383D01*
X18453816Y-17875346D01*
X19059632Y-17875346D01*
X22568517Y-17875346D01*
X22568719Y-17875346D01*
X22760815Y-17894266D01*
G37*
%TO.C,kibuzzard-670AB1F3*%
G36*
X19733299Y-20894749D02*
G01*
X19776917Y-20900807D01*
X19776917Y-21908884D01*
X19750262Y-21911308D01*
X19723606Y-21911308D01*
X19552766Y-21872535D01*
X19441296Y-21765912D01*
X19380714Y-21604765D01*
X19367083Y-21506925D01*
X19362539Y-21399999D01*
X19377079Y-21210984D01*
X19427968Y-21048626D01*
X19527321Y-20935944D01*
X19689680Y-20893537D01*
X19733299Y-20894749D01*
G37*
G36*
X24001526Y-20434266D02*
G01*
X24186240Y-20490299D01*
X24356473Y-20581290D01*
X24505684Y-20703744D01*
X24628138Y-20852955D01*
X24719130Y-21023189D01*
X24775162Y-21207903D01*
X24794082Y-21399999D01*
X24775162Y-21592095D01*
X24719130Y-21776809D01*
X24628138Y-21947043D01*
X24505684Y-22096254D01*
X24356473Y-22218708D01*
X24186240Y-22309699D01*
X24001526Y-22365732D01*
X23809430Y-22384652D01*
X23809228Y-22384652D01*
X23390003Y-22384652D01*
X21950585Y-22384652D01*
X20557208Y-22384652D01*
X19755108Y-22384652D01*
X19059632Y-22384652D01*
X18453816Y-22384652D01*
X18453816Y-21399999D01*
X19059632Y-21399999D01*
X19072657Y-21592951D01*
X19111732Y-21755007D01*
X19173828Y-21887984D01*
X19255916Y-21993699D01*
X19356784Y-22073363D01*
X19475221Y-22128190D01*
X19608804Y-22159995D01*
X19755108Y-22170597D01*
X19911409Y-22162115D01*
X19975412Y-22151211D01*
X20317305Y-22151211D01*
X20557208Y-22151211D01*
X20627079Y-21984948D01*
X20700989Y-21818954D01*
X20778937Y-21653230D01*
X20860924Y-21487506D01*
X20946950Y-21321512D01*
X21037014Y-21155249D01*
X21037014Y-22151211D01*
X21305997Y-22151211D01*
X21305997Y-20726332D01*
X21504704Y-20726332D01*
X21582249Y-20963812D01*
X21713105Y-20903230D01*
X21873040Y-20876574D01*
X22052362Y-20915346D01*
X22172313Y-21023182D01*
X22240165Y-21187963D01*
X22255613Y-21288832D01*
X22260762Y-21399999D01*
X22251339Y-21563569D01*
X22223067Y-21695637D01*
X22175948Y-21796203D01*
X22071142Y-21891619D01*
X21926352Y-21923424D01*
X21868194Y-21921001D01*
X21810035Y-21913731D01*
X21810035Y-21366073D01*
X21511974Y-21366073D01*
X21511974Y-22114862D01*
X21677968Y-22158480D01*
X21802463Y-22176655D01*
X21950585Y-22182713D01*
X22084167Y-22170294D01*
X22203816Y-22133036D01*
X22308319Y-22071243D01*
X22396465Y-21985217D01*
X22467346Y-21874959D01*
X22520052Y-21740467D01*
X22552766Y-21582047D01*
X22563670Y-21399999D01*
X22550948Y-21219769D01*
X22512782Y-21061954D01*
X22452806Y-20927160D01*
X22374656Y-20815993D01*
X22279543Y-20729058D01*
X22168678Y-20666962D01*
X22116688Y-20651211D01*
X22658178Y-20651211D01*
X22690589Y-20805088D01*
X22729664Y-20975928D01*
X22775100Y-21159793D01*
X22826594Y-21352745D01*
X22864155Y-21485217D01*
X22904139Y-21619304D01*
X22946546Y-21755007D01*
X22990703Y-21890037D01*
X23035937Y-22022105D01*
X23082249Y-22151211D01*
X23390003Y-22151211D01*
X23449979Y-21973101D01*
X23513590Y-21773182D01*
X23556401Y-21632767D01*
X23597596Y-21492622D01*
X23637176Y-21352745D01*
X23674602Y-21215562D01*
X23709335Y-21083494D01*
X23741376Y-20956542D01*
X23781360Y-20786913D01*
X23809228Y-20651211D01*
X23494203Y-20651211D01*
X23476029Y-20776917D01*
X23450585Y-20921404D01*
X23419991Y-21077705D01*
X23386368Y-21238852D01*
X23350019Y-21401211D01*
X23311247Y-21561146D01*
X23271566Y-21711691D01*
X23232491Y-21845879D01*
X23193719Y-21713509D01*
X23154947Y-21563569D01*
X23117386Y-21403634D01*
X23082249Y-21241275D01*
X23049535Y-21079825D01*
X23019244Y-20922616D01*
X22992588Y-20777220D01*
X22970779Y-20651211D01*
X22658178Y-20651211D01*
X22116688Y-20651211D01*
X22045698Y-20629704D01*
X21914236Y-20617285D01*
X21757935Y-20630613D01*
X21637984Y-20660904D01*
X21554381Y-20697253D01*
X21504704Y-20726332D01*
X21305997Y-20726332D01*
X21305997Y-20651211D01*
X21066094Y-20651211D01*
X20998242Y-20762378D01*
X20930391Y-20882632D01*
X20863448Y-21007127D01*
X20798323Y-21131017D01*
X20736530Y-21252786D01*
X20679583Y-21370920D01*
X20628997Y-21479967D01*
X20586287Y-21574474D01*
X20586287Y-20651211D01*
X20317305Y-20651211D01*
X20317305Y-22151211D01*
X19975412Y-22151211D01*
X20074979Y-22134248D01*
X20074979Y-20670597D01*
X19883541Y-20641518D01*
X19716336Y-20634248D01*
X19574878Y-20645152D01*
X19446142Y-20677867D01*
X19333157Y-20733904D01*
X19238953Y-20814781D01*
X19163529Y-20920799D01*
X19106885Y-21052261D01*
X19071445Y-21211287D01*
X19059632Y-21399999D01*
X18453816Y-21399999D01*
X18453816Y-20415346D01*
X19059632Y-20415346D01*
X23809228Y-20415346D01*
X23809430Y-20415346D01*
X24001526Y-20434266D01*
G37*
%TO.C,kibuzzard-670AB20C*%
G36*
X23970024Y-15354266D02*
G01*
X24154738Y-15410299D01*
X24324971Y-15501290D01*
X24474182Y-15623744D01*
X24596636Y-15772955D01*
X24687628Y-15943189D01*
X24743660Y-16127903D01*
X24762580Y-16319999D01*
X24743660Y-16512095D01*
X24687628Y-16696809D01*
X24596636Y-16867043D01*
X24474182Y-17016254D01*
X24324971Y-17138708D01*
X24154738Y-17229699D01*
X23970024Y-17285732D01*
X23777927Y-17304652D01*
X23777725Y-17304652D01*
X23360924Y-17304652D01*
X22057209Y-17304652D01*
X20937661Y-17304652D01*
X19791457Y-17304652D01*
X19059632Y-17304652D01*
X18453816Y-17304652D01*
X18453816Y-15571211D01*
X19059632Y-15571211D01*
X19092043Y-15725088D01*
X19131118Y-15895928D01*
X19176554Y-16079793D01*
X19228049Y-16272745D01*
X19265609Y-16405217D01*
X19305593Y-16539304D01*
X19348000Y-16675007D01*
X19392157Y-16810037D01*
X19437392Y-16942105D01*
X19483703Y-17071211D01*
X19791457Y-17071211D01*
X19851433Y-16893101D01*
X19915044Y-16693182D01*
X19935731Y-16625330D01*
X20360924Y-16625330D01*
X20394850Y-16816768D01*
X20499050Y-16968222D01*
X20579018Y-17025169D01*
X20678372Y-17067576D01*
X20797717Y-17093929D01*
X20937661Y-17102713D01*
X21055189Y-17094232D01*
X21173929Y-17073634D01*
X21279341Y-17046978D01*
X21354462Y-17020322D01*
X21321713Y-16879773D01*
X21841538Y-16879773D01*
X21906966Y-17042131D01*
X22057209Y-17097867D01*
X22139599Y-17083327D01*
X22208662Y-17040920D01*
X22257128Y-16973068D01*
X22275302Y-16879773D01*
X22257128Y-16788900D01*
X22208662Y-16722261D01*
X22139599Y-16681065D01*
X22057209Y-16666526D01*
X21906966Y-16722261D01*
X21841538Y-16879773D01*
X21321713Y-16879773D01*
X21296304Y-16770726D01*
X21152120Y-16821615D01*
X21054886Y-16841606D01*
X20940084Y-16848270D01*
X20810137Y-16831913D01*
X20725625Y-16782842D01*
X20665676Y-16625330D01*
X22784187Y-16625330D01*
X22818113Y-16816768D01*
X22922314Y-16968222D01*
X23002281Y-17025169D01*
X23101635Y-17067576D01*
X23220981Y-17093929D01*
X23360924Y-17102713D01*
X23478452Y-17094232D01*
X23597192Y-17073634D01*
X23702604Y-17046978D01*
X23777725Y-17020322D01*
X23719567Y-16770726D01*
X23575383Y-16821615D01*
X23478150Y-16841606D01*
X23363347Y-16848270D01*
X23233400Y-16831913D01*
X23148889Y-16782842D01*
X23087095Y-16620484D01*
X23110722Y-16519615D01*
X23181603Y-16454490D01*
X23288832Y-16419050D01*
X23421506Y-16407236D01*
X23513590Y-16407236D01*
X23513590Y-16160064D01*
X23402120Y-16160064D01*
X23310036Y-16150371D01*
X23227645Y-16118868D01*
X23168275Y-16060710D01*
X23145254Y-15968626D01*
X23194931Y-15838981D01*
X23331845Y-15791728D01*
X23500262Y-15819595D01*
X23644446Y-15888658D01*
X23751070Y-15670564D01*
X23577806Y-15582115D01*
X23463004Y-15548493D01*
X23334268Y-15537285D01*
X23216437Y-15545161D01*
X23114963Y-15568787D01*
X22961086Y-15657236D01*
X22871425Y-15791728D01*
X22842346Y-15958933D01*
X22893234Y-16130984D01*
X23028937Y-16256994D01*
X22925645Y-16316970D01*
X22848404Y-16399967D01*
X22800242Y-16503561D01*
X22784187Y-16625330D01*
X20665676Y-16625330D01*
X20663832Y-16620484D01*
X20687459Y-16519615D01*
X20758339Y-16454490D01*
X20865569Y-16419050D01*
X20998242Y-16407236D01*
X21090326Y-16407236D01*
X21090326Y-16160064D01*
X20978856Y-16160064D01*
X20886772Y-16150371D01*
X20804381Y-16118868D01*
X20745011Y-16060710D01*
X20721990Y-15968626D01*
X20771667Y-15838981D01*
X20908582Y-15791728D01*
X21076998Y-15819595D01*
X21221183Y-15888658D01*
X21327806Y-15670564D01*
X21154543Y-15582115D01*
X21039741Y-15548493D01*
X20911005Y-15537285D01*
X20793174Y-15545161D01*
X20691700Y-15568787D01*
X20537822Y-15657236D01*
X20448162Y-15791728D01*
X20419082Y-15958933D01*
X20469971Y-16130984D01*
X20605674Y-16256994D01*
X20502382Y-16316970D01*
X20425141Y-16399967D01*
X20376978Y-16503561D01*
X20360924Y-16625330D01*
X19935731Y-16625330D01*
X19957855Y-16552767D01*
X19999050Y-16412622D01*
X20038630Y-16272745D01*
X20076056Y-16135562D01*
X20110790Y-16003494D01*
X20142830Y-15876542D01*
X20182814Y-15706913D01*
X20210682Y-15571211D01*
X19895658Y-15571211D01*
X19877483Y-15696917D01*
X19852039Y-15841404D01*
X19821445Y-15997705D01*
X19787822Y-16158852D01*
X19751473Y-16321211D01*
X19712701Y-16481146D01*
X19673020Y-16631691D01*
X19633945Y-16765879D01*
X19595173Y-16633509D01*
X19556401Y-16483569D01*
X19518840Y-16323634D01*
X19483703Y-16161275D01*
X19450989Y-15999825D01*
X19420698Y-15842616D01*
X19394042Y-15697220D01*
X19372233Y-15571211D01*
X19059632Y-15571211D01*
X18453816Y-15571211D01*
X18453816Y-15335346D01*
X19059632Y-15335346D01*
X23777725Y-15335346D01*
X23777927Y-15335346D01*
X23970024Y-15354266D01*
G37*
%TO.C,G\u002A\u002A\u002A*%
G36*
X30731957Y-20752646D02*
G01*
X30829896Y-20778019D01*
X30925875Y-20818097D01*
X31019895Y-20872882D01*
X31083470Y-20923829D01*
X31138078Y-20986243D01*
X31181941Y-21058698D01*
X31193413Y-21082312D01*
X31204290Y-21107690D01*
X31210359Y-21128767D01*
X31212957Y-21150628D01*
X31213422Y-21178359D01*
X31211997Y-21212379D01*
X31207027Y-21240252D01*
X31197533Y-21263669D01*
X31185775Y-21283438D01*
X31151798Y-21321693D01*
X31107973Y-21349417D01*
X31053446Y-21367225D01*
X31035049Y-21370648D01*
X30983859Y-21376231D01*
X30926391Y-21378264D01*
X30867829Y-21376809D01*
X30813361Y-21371932D01*
X30768173Y-21363697D01*
X30697470Y-21341107D01*
X30610956Y-21299790D01*
X30528822Y-21244448D01*
X30450821Y-21174934D01*
X30450634Y-21174746D01*
X30400873Y-21117922D01*
X30363963Y-21061193D01*
X30340285Y-21005453D01*
X30330220Y-20951598D01*
X30334149Y-20900522D01*
X30340799Y-20878637D01*
X30364793Y-20836555D01*
X30401830Y-20799757D01*
X30451038Y-20769222D01*
X30451406Y-20769041D01*
X30474632Y-20758270D01*
X30494886Y-20751111D01*
X30516621Y-20746646D01*
X30544287Y-20743956D01*
X30582339Y-20742122D01*
X30632056Y-20741979D01*
X30731957Y-20752646D01*
G37*
G36*
X31308300Y-19739231D02*
G01*
X31361710Y-19745639D01*
X31431998Y-19756946D01*
X31490816Y-19770787D01*
X31540158Y-19787901D01*
X31582021Y-19809028D01*
X31618400Y-19834906D01*
X31651292Y-19866277D01*
X31679505Y-19902050D01*
X31708364Y-19957476D01*
X31724783Y-20017119D01*
X31728885Y-20078919D01*
X31720797Y-20140813D01*
X31700643Y-20200743D01*
X31668547Y-20256646D01*
X31624635Y-20306463D01*
X31589126Y-20335201D01*
X31529657Y-20371839D01*
X31460167Y-20404310D01*
X31383333Y-20431562D01*
X31301832Y-20452541D01*
X31218341Y-20466195D01*
X31183204Y-20469177D01*
X31127972Y-20470833D01*
X31069543Y-20469762D01*
X31012393Y-20466174D01*
X30961003Y-20460278D01*
X30919850Y-20452282D01*
X30873273Y-20437987D01*
X30805067Y-20407145D01*
X30748526Y-20367896D01*
X30704028Y-20320791D01*
X30671949Y-20266380D01*
X30652669Y-20205214D01*
X30646564Y-20137842D01*
X30654012Y-20064816D01*
X30660145Y-20038479D01*
X30685254Y-19975164D01*
X30723612Y-19917807D01*
X30774782Y-19866875D01*
X30838329Y-19822835D01*
X30913816Y-19786156D01*
X30949090Y-19773695D01*
X31014569Y-19756992D01*
X31087503Y-19744685D01*
X31163618Y-19737284D01*
X31238642Y-19735297D01*
X31308300Y-19739231D01*
G37*
G36*
X29629388Y-18943933D02*
G01*
X29676925Y-18949968D01*
X29713838Y-18959814D01*
X29724670Y-18964188D01*
X29774585Y-18990978D01*
X29812844Y-19024844D01*
X29841340Y-19067382D01*
X29852051Y-19089875D01*
X29859216Y-19111670D01*
X29862227Y-19135380D01*
X29862440Y-19167429D01*
X29861334Y-19188804D01*
X29848687Y-19253198D01*
X29822173Y-19312395D01*
X29781830Y-19366351D01*
X29727696Y-19415021D01*
X29659812Y-19458359D01*
X29578216Y-19496321D01*
X29509445Y-19521462D01*
X29441412Y-19541496D01*
X29381633Y-19553815D01*
X29325947Y-19558955D01*
X29256186Y-19556197D01*
X29191725Y-19543184D01*
X29134787Y-19520410D01*
X29087593Y-19488370D01*
X29076304Y-19477536D01*
X29046631Y-19438247D01*
X29024690Y-19392205D01*
X29011614Y-19343186D01*
X29008533Y-19294969D01*
X29016581Y-19251331D01*
X29018189Y-19246842D01*
X29045165Y-19190232D01*
X29082850Y-19134882D01*
X29128249Y-19084173D01*
X29178367Y-19041484D01*
X29230210Y-19010197D01*
X29249344Y-19001330D01*
X29268818Y-18993106D01*
X29288443Y-18986170D01*
X29311102Y-18979711D01*
X29339682Y-18972918D01*
X29377067Y-18964979D01*
X29426142Y-18955082D01*
X29460333Y-18949320D01*
X29517361Y-18943548D01*
X29574956Y-18941773D01*
X29629388Y-18943933D01*
G37*
G36*
X30971832Y-18785273D02*
G01*
X31007800Y-18794349D01*
X31069998Y-18819614D01*
X31121286Y-18854902D01*
X31161829Y-18900378D01*
X31191789Y-18956202D01*
X31211332Y-19022539D01*
X31214898Y-19048770D01*
X31213343Y-19105981D01*
X31201031Y-19166616D01*
X31179004Y-19227446D01*
X31148304Y-19285239D01*
X31109973Y-19336762D01*
X31104731Y-19342578D01*
X31066607Y-19380355D01*
X31019721Y-19420915D01*
X30967974Y-19461037D01*
X30915267Y-19497500D01*
X30912243Y-19499452D01*
X30873475Y-19523260D01*
X30840493Y-19540400D01*
X30807917Y-19553364D01*
X30770371Y-19564642D01*
X30750304Y-19569197D01*
X30692481Y-19575120D01*
X30632698Y-19572445D01*
X30578068Y-19561296D01*
X30544388Y-19548917D01*
X30483737Y-19516470D01*
X30428761Y-19474041D01*
X30382443Y-19424119D01*
X30347764Y-19369190D01*
X30347196Y-19368034D01*
X30335325Y-19341494D01*
X30327941Y-19317430D01*
X30323727Y-19290074D01*
X30321365Y-19253658D01*
X30320697Y-19221959D01*
X30324760Y-19161965D01*
X30336988Y-19108450D01*
X30358227Y-19056895D01*
X30376210Y-19025915D01*
X30415078Y-18975768D01*
X30463432Y-18927870D01*
X30518115Y-18885210D01*
X30575967Y-18850779D01*
X30578751Y-18849392D01*
X30640595Y-18823485D01*
X30708898Y-18802840D01*
X30779916Y-18788077D01*
X30849906Y-18779815D01*
X30915126Y-18778674D01*
X30971832Y-18785273D01*
G37*
G36*
X29884658Y-19677030D02*
G01*
X29961699Y-19680666D01*
X30028627Y-19688469D01*
X30088260Y-19701285D01*
X30143412Y-19719962D01*
X30196899Y-19745346D01*
X30251538Y-19778284D01*
X30310144Y-19819623D01*
X30334146Y-19838080D01*
X30404923Y-19901359D01*
X30461710Y-19967965D01*
X30505052Y-20038923D01*
X30535496Y-20115260D01*
X30553590Y-20198001D01*
X30559880Y-20288172D01*
X30558720Y-20341257D01*
X30553128Y-20393638D01*
X30541888Y-20442999D01*
X30523844Y-20494250D01*
X30497845Y-20552301D01*
X30448155Y-20644181D01*
X30389562Y-20731358D01*
X30324660Y-20809810D01*
X30254703Y-20878316D01*
X30180942Y-20935653D01*
X30104630Y-20980598D01*
X30027018Y-21011930D01*
X30024299Y-21012765D01*
X29988938Y-21022599D01*
X29952749Y-21031157D01*
X29923163Y-21036669D01*
X29906329Y-21038907D01*
X29817010Y-21044584D01*
X29736765Y-21038536D01*
X29665600Y-21020762D01*
X29603520Y-20991265D01*
X29550531Y-20950046D01*
X29549748Y-20949282D01*
X29523127Y-20918992D01*
X29502232Y-20884842D01*
X29486392Y-20844675D01*
X29474937Y-20796333D01*
X29467199Y-20737661D01*
X29462508Y-20666502D01*
X29460386Y-20631511D01*
X29456765Y-20594003D01*
X29452345Y-20563202D01*
X29447616Y-20543173D01*
X29437063Y-20522658D01*
X29412137Y-20491105D01*
X29375419Y-20454894D01*
X29327847Y-20414932D01*
X29270360Y-20372124D01*
X29211824Y-20327703D01*
X29159729Y-20279936D01*
X29120282Y-20232433D01*
X29092494Y-20183752D01*
X29075377Y-20132452D01*
X29067939Y-20077090D01*
X29067530Y-20066736D01*
X29070312Y-20013371D01*
X29082921Y-19967598D01*
X29106851Y-19925587D01*
X29143601Y-19883508D01*
X29159052Y-19868913D01*
X29203688Y-19833900D01*
X29256017Y-19802522D01*
X29317467Y-19774171D01*
X29389463Y-19748238D01*
X29473431Y-19724115D01*
X29570798Y-19701192D01*
X29577572Y-19699735D01*
X29616917Y-19691499D01*
X29649313Y-19685470D01*
X29678392Y-19681306D01*
X29707784Y-19678668D01*
X29741120Y-19677213D01*
X29782030Y-19676603D01*
X29834145Y-19676496D01*
X29884658Y-19677030D01*
G37*
G36*
X30013696Y-15336191D02*
G01*
X30020368Y-15347145D01*
X30033946Y-15370100D01*
X30054048Y-15404395D01*
X30080291Y-15449372D01*
X30112294Y-15504371D01*
X30149674Y-15568731D01*
X30192048Y-15641792D01*
X30239034Y-15722896D01*
X30290251Y-15811382D01*
X30345315Y-15906590D01*
X30403844Y-16007860D01*
X30465456Y-16114533D01*
X30529768Y-16225949D01*
X30596399Y-16341447D01*
X30664966Y-16460368D01*
X30680431Y-16487197D01*
X30749160Y-16606414D01*
X30816142Y-16722575D01*
X30880974Y-16834981D01*
X30943250Y-16942933D01*
X31002567Y-17045729D01*
X31058521Y-17142671D01*
X31110707Y-17233057D01*
X31158721Y-17316188D01*
X31202158Y-17391364D01*
X31240614Y-17457884D01*
X31273686Y-17515049D01*
X31300967Y-17562159D01*
X31322056Y-17598514D01*
X31336546Y-17623413D01*
X31344034Y-17636157D01*
X31351703Y-17649032D01*
X31371024Y-17681837D01*
X31394684Y-17722368D01*
X31421843Y-17769157D01*
X31451660Y-17820734D01*
X31483295Y-17875631D01*
X31515907Y-17932378D01*
X31548655Y-17989506D01*
X31580698Y-18045545D01*
X31611196Y-18099027D01*
X31639309Y-18148482D01*
X31664195Y-18192440D01*
X31685015Y-18229434D01*
X31700926Y-18257993D01*
X31711090Y-18276648D01*
X31714665Y-18283930D01*
X31709558Y-18288328D01*
X31693144Y-18299227D01*
X31667068Y-18315468D01*
X31633028Y-18336012D01*
X31592723Y-18359822D01*
X31547852Y-18385859D01*
X31506813Y-18409583D01*
X31466047Y-18433398D01*
X31431382Y-18453916D01*
X31404515Y-18470121D01*
X31387141Y-18481001D01*
X31380958Y-18485544D01*
X31380958Y-18485564D01*
X31385914Y-18492130D01*
X31399240Y-18507044D01*
X31418920Y-18528108D01*
X31442941Y-18553126D01*
X31474325Y-18587457D01*
X31514076Y-18640623D01*
X31542930Y-18695245D01*
X31562041Y-18754320D01*
X31572563Y-18820843D01*
X31575650Y-18897810D01*
X31575419Y-18915451D01*
X31568174Y-19003641D01*
X31550835Y-19081348D01*
X31523453Y-19148331D01*
X31514665Y-19165088D01*
X31505466Y-19182795D01*
X31500958Y-19191701D01*
X31500950Y-19191723D01*
X31506874Y-19189045D01*
X31523970Y-19179854D01*
X31550622Y-19165076D01*
X31585217Y-19145638D01*
X31626138Y-19122466D01*
X31671769Y-19096488D01*
X31720496Y-19068631D01*
X31770704Y-19039821D01*
X31820776Y-19010986D01*
X31869099Y-18983051D01*
X31914055Y-18956945D01*
X31954030Y-18933593D01*
X31987409Y-18913924D01*
X32012577Y-18898862D01*
X32027917Y-18889336D01*
X32055568Y-18871302D01*
X32065987Y-18887988D01*
X32067098Y-18889858D01*
X32074826Y-18903134D01*
X32089484Y-18928431D01*
X32110735Y-18965168D01*
X32138243Y-19012762D01*
X32171674Y-19070633D01*
X32210691Y-19138199D01*
X32254959Y-19214878D01*
X32304142Y-19300088D01*
X32357904Y-19393249D01*
X32415910Y-19493777D01*
X32477824Y-19601093D01*
X32543311Y-19714613D01*
X32612035Y-19833757D01*
X32683660Y-19957943D01*
X32757850Y-20086589D01*
X32834270Y-20219114D01*
X32912584Y-20354936D01*
X32945829Y-20412594D01*
X33023463Y-20547231D01*
X33099094Y-20678384D01*
X33172385Y-20805466D01*
X33242998Y-20927892D01*
X33310594Y-21045077D01*
X33374835Y-21156434D01*
X33435384Y-21261379D01*
X33491903Y-21359325D01*
X33544053Y-21449688D01*
X33591498Y-21531882D01*
X33633898Y-21605320D01*
X33670917Y-21669418D01*
X33702215Y-21723591D01*
X33727456Y-21767251D01*
X33746301Y-21799815D01*
X33758412Y-21820696D01*
X33763452Y-21829308D01*
X33778141Y-21853418D01*
X30341414Y-21853418D01*
X30095060Y-21853404D01*
X29852774Y-21853362D01*
X29617414Y-21853293D01*
X29389341Y-21853198D01*
X29168914Y-21853076D01*
X28956493Y-21852930D01*
X28752437Y-21852760D01*
X28557106Y-21852565D01*
X28370860Y-21852348D01*
X28194057Y-21852108D01*
X28027057Y-21851847D01*
X27870220Y-21851565D01*
X27723905Y-21851262D01*
X27588472Y-21850940D01*
X27464280Y-21850599D01*
X27351690Y-21850240D01*
X27251059Y-21849864D01*
X27162749Y-21849471D01*
X27087118Y-21849062D01*
X27024525Y-21848637D01*
X26975331Y-21848198D01*
X26939895Y-21847744D01*
X26918577Y-21847278D01*
X26911735Y-21846799D01*
X26918871Y-21842386D01*
X26938140Y-21830982D01*
X26968823Y-21813006D01*
X27010198Y-21788876D01*
X27061546Y-21759008D01*
X27122144Y-21723821D01*
X27191273Y-21683733D01*
X27268211Y-21639161D01*
X27352238Y-21590523D01*
X27442633Y-21538236D01*
X27538675Y-21482719D01*
X27639644Y-21424390D01*
X27744819Y-21363665D01*
X27853479Y-21300963D01*
X27853854Y-21300747D01*
X27962463Y-21238078D01*
X28067561Y-21177408D01*
X28168430Y-21119153D01*
X28264351Y-21063730D01*
X28354605Y-21011555D01*
X28438474Y-20963043D01*
X28515238Y-20918610D01*
X28584180Y-20878674D01*
X28644580Y-20843650D01*
X28695720Y-20813955D01*
X28736881Y-20790004D01*
X28767344Y-20772213D01*
X28786391Y-20761000D01*
X28793302Y-20756779D01*
X28791835Y-20751117D01*
X28782603Y-20736134D01*
X28766900Y-20714515D01*
X28746446Y-20688756D01*
X28722734Y-20659520D01*
X28688512Y-20616295D01*
X28649921Y-20566715D01*
X28608908Y-20513342D01*
X28567420Y-20458741D01*
X28527404Y-20405477D01*
X28490805Y-20356114D01*
X28459571Y-20313215D01*
X28435648Y-20279346D01*
X28414771Y-20249549D01*
X28399317Y-20229202D01*
X28388721Y-20218149D01*
X28381395Y-20214747D01*
X28375752Y-20217352D01*
X28372708Y-20219389D01*
X28357790Y-20228459D01*
X28331212Y-20244246D01*
X28293720Y-20266315D01*
X28246059Y-20294234D01*
X28188976Y-20327567D01*
X28123215Y-20365882D01*
X28049523Y-20408744D01*
X27968645Y-20455718D01*
X27881327Y-20506373D01*
X27788315Y-20560272D01*
X27690353Y-20616983D01*
X27588189Y-20676072D01*
X27482568Y-20737104D01*
X27417851Y-20774483D01*
X27314386Y-20834243D01*
X27214880Y-20891716D01*
X27120075Y-20946475D01*
X27030711Y-20998091D01*
X26947529Y-21046138D01*
X26871270Y-21090186D01*
X26802673Y-21129809D01*
X26742481Y-21164579D01*
X26691432Y-21194067D01*
X26650269Y-21217846D01*
X26619731Y-21235489D01*
X26600560Y-21246566D01*
X26593495Y-21250651D01*
X26592500Y-21251319D01*
X26591321Y-21252149D01*
X26590528Y-21252426D01*
X26590455Y-21251565D01*
X26591436Y-21248981D01*
X26593805Y-21244087D01*
X26597899Y-21236298D01*
X26604051Y-21225027D01*
X26612595Y-21209690D01*
X26623867Y-21189701D01*
X26638200Y-21164473D01*
X26655930Y-21133421D01*
X26677391Y-21095960D01*
X26702918Y-21051503D01*
X26732845Y-20999465D01*
X26767506Y-20939261D01*
X26807237Y-20870303D01*
X26852372Y-20792008D01*
X26903245Y-20703788D01*
X26960191Y-20605058D01*
X27023545Y-20495233D01*
X27093641Y-20373727D01*
X27170814Y-20239954D01*
X27188961Y-20208489D01*
X27252974Y-20097396D01*
X27315013Y-19989562D01*
X27374660Y-19885724D01*
X27431495Y-19786620D01*
X27485097Y-19692987D01*
X27535047Y-19605562D01*
X27580926Y-19525081D01*
X27622312Y-19452283D01*
X27658787Y-19387904D01*
X27689931Y-19332681D01*
X27715324Y-19287351D01*
X27734546Y-19252652D01*
X27747177Y-19229320D01*
X27752797Y-19218093D01*
X27761316Y-19198213D01*
X27769609Y-19181806D01*
X27774594Y-19175549D01*
X27779497Y-19180080D01*
X27791687Y-19195186D01*
X27809613Y-19219054D01*
X27831931Y-19249778D01*
X27857301Y-19285452D01*
X27884378Y-19324170D01*
X27911822Y-19364026D01*
X27938290Y-19403115D01*
X27962439Y-19439530D01*
X27982928Y-19471365D01*
X28005304Y-19506078D01*
X28031987Y-19545945D01*
X28057704Y-19583001D01*
X28079088Y-19612311D01*
X28083525Y-19618184D01*
X28115654Y-19662484D01*
X28154340Y-19718434D01*
X28198875Y-19784981D01*
X28248550Y-19861068D01*
X28302659Y-19945641D01*
X28315050Y-19965150D01*
X28376024Y-20060005D01*
X28433416Y-20147048D01*
X28489150Y-20228974D01*
X28545152Y-20308477D01*
X28603349Y-20388252D01*
X28665665Y-20470996D01*
X28734027Y-20559402D01*
X28810360Y-20656166D01*
X28837702Y-20690635D01*
X28867045Y-20727788D01*
X28893471Y-20761408D01*
X28914867Y-20788805D01*
X28929121Y-20807292D01*
X28938307Y-20818854D01*
X28974350Y-20858082D01*
X29017668Y-20898424D01*
X29064301Y-20936573D01*
X29110288Y-20969223D01*
X29151668Y-20993066D01*
X29173184Y-21003332D01*
X29205544Y-21017868D01*
X29237834Y-21030971D01*
X29271399Y-21042940D01*
X29307583Y-21054074D01*
X29347731Y-21064672D01*
X29393187Y-21075033D01*
X29445296Y-21085455D01*
X29505402Y-21096239D01*
X29574850Y-21107682D01*
X29654984Y-21120084D01*
X29747150Y-21133744D01*
X29852690Y-21148961D01*
X29904219Y-21156721D01*
X29978300Y-21169695D01*
X30048852Y-21184686D01*
X30120136Y-21202715D01*
X30196415Y-21224807D01*
X30281952Y-21251984D01*
X30300922Y-21258225D01*
X30377838Y-21283912D01*
X30444150Y-21306829D01*
X30502839Y-21328078D01*
X30556885Y-21348760D01*
X30609270Y-21369978D01*
X30662976Y-21392833D01*
X30724611Y-21419093D01*
X30795340Y-21447484D01*
X30856287Y-21469522D01*
X30909232Y-21485736D01*
X30955957Y-21496660D01*
X30998242Y-21502824D01*
X31037867Y-21504761D01*
X31106834Y-21499028D01*
X31177056Y-21481316D01*
X31242742Y-21452850D01*
X31301974Y-21414870D01*
X31352835Y-21368616D01*
X31393409Y-21315329D01*
X31421779Y-21256250D01*
X31422114Y-21255281D01*
X31429344Y-21225466D01*
X31434942Y-21184888D01*
X31438368Y-21137418D01*
X31439213Y-21104863D01*
X31436856Y-21051531D01*
X31428405Y-21003281D01*
X31412709Y-20954634D01*
X31388621Y-20900106D01*
X31385355Y-20893460D01*
X31349328Y-20832810D01*
X31305751Y-20781965D01*
X31251131Y-20736774D01*
X31246425Y-20733474D01*
X31208444Y-20709649D01*
X31162839Y-20684707D01*
X31113598Y-20660523D01*
X31064712Y-20638972D01*
X31020173Y-20621928D01*
X30983969Y-20611266D01*
X30955609Y-20604625D01*
X30915033Y-20593182D01*
X30887112Y-20581764D01*
X30870479Y-20569543D01*
X30863765Y-20555686D01*
X30865604Y-20539364D01*
X30867338Y-20535194D01*
X30881675Y-20523505D01*
X30907268Y-20521225D01*
X30943922Y-20528382D01*
X30992291Y-20539975D01*
X31043904Y-20547990D01*
X31101590Y-20552653D01*
X31168190Y-20554193D01*
X31246544Y-20552840D01*
X31288666Y-20551185D01*
X31358460Y-20546417D01*
X31419163Y-20538785D01*
X31474469Y-20527454D01*
X31528071Y-20511590D01*
X31583665Y-20490360D01*
X31644944Y-20462931D01*
X31738654Y-20412557D01*
X31831949Y-20347458D01*
X31918916Y-20269791D01*
X31960397Y-20226088D01*
X31992682Y-20185889D01*
X32017568Y-20145859D01*
X32037561Y-20101960D01*
X32055167Y-20050153D01*
X32064528Y-20017597D01*
X32075830Y-19969641D01*
X32082889Y-19923234D01*
X32086437Y-19872960D01*
X32087207Y-19813406D01*
X32086843Y-19789363D01*
X32082327Y-19718909D01*
X32072170Y-19658110D01*
X32055661Y-19603588D01*
X32032088Y-19551963D01*
X32026795Y-19542597D01*
X31997451Y-19501198D01*
X31959547Y-19459333D01*
X31917226Y-19421235D01*
X31874633Y-19391136D01*
X31858299Y-19381946D01*
X31800014Y-19355463D01*
X31731615Y-19332011D01*
X31656577Y-19312535D01*
X31578375Y-19297982D01*
X31500486Y-19289297D01*
X31433775Y-19284561D01*
X31333924Y-19378894D01*
X31324950Y-19387350D01*
X31244693Y-19460698D01*
X31170928Y-19523542D01*
X31101736Y-19577306D01*
X31035192Y-19623411D01*
X30969377Y-19663280D01*
X30902369Y-19698334D01*
X30893179Y-19702750D01*
X30848166Y-19723259D01*
X30802775Y-19742319D01*
X30759747Y-19758913D01*
X30721821Y-19772024D01*
X30691736Y-19780636D01*
X30672234Y-19783733D01*
X30668294Y-19783440D01*
X30650518Y-19774788D01*
X30638615Y-19758168D01*
X30636916Y-19739058D01*
X30639333Y-19733144D01*
X30644812Y-19727533D01*
X30655499Y-19721466D01*
X30673615Y-19713896D01*
X30701383Y-19703780D01*
X30741023Y-19690072D01*
X30749788Y-19687031D01*
X30837481Y-19651803D01*
X30923644Y-19608030D01*
X31009780Y-19554705D01*
X31097392Y-19490822D01*
X31187982Y-19415376D01*
X31283056Y-19327361D01*
X31315615Y-19295427D01*
X31364845Y-19244578D01*
X31404258Y-19199415D01*
X31435166Y-19157880D01*
X31458882Y-19117912D01*
X31476715Y-19077454D01*
X31489979Y-19034446D01*
X31499984Y-18986830D01*
X31503921Y-18956470D01*
X31506136Y-18901505D01*
X31503489Y-18844282D01*
X31496324Y-18790330D01*
X31484984Y-18745182D01*
X31470565Y-18710226D01*
X31433856Y-18650163D01*
X31383097Y-18592423D01*
X31318733Y-18537480D01*
X31241213Y-18485811D01*
X31197134Y-18462349D01*
X31112112Y-18429731D01*
X31018005Y-18408188D01*
X30915403Y-18397800D01*
X30804896Y-18398646D01*
X30687075Y-18410806D01*
X30672773Y-18412966D01*
X30526286Y-18442007D01*
X30386824Y-18482997D01*
X30251633Y-18536875D01*
X30117958Y-18604578D01*
X30098264Y-18615776D01*
X30067771Y-18633755D01*
X30042152Y-18649610D01*
X30025487Y-18660856D01*
X30001700Y-18678680D01*
X30030606Y-18719945D01*
X30042466Y-18737983D01*
X30073396Y-18796541D01*
X30097923Y-18860338D01*
X30113216Y-18922438D01*
X30114139Y-18928422D01*
X30117466Y-18991100D01*
X30111395Y-19060789D01*
X30096864Y-19134284D01*
X30074810Y-19208380D01*
X30046170Y-19279873D01*
X30011882Y-19345557D01*
X29972884Y-19402228D01*
X29936052Y-19441979D01*
X29878153Y-19489921D01*
X29809382Y-19534548D01*
X29731914Y-19574756D01*
X29647924Y-19609443D01*
X29559585Y-19637505D01*
X29469074Y-19657838D01*
X29456880Y-19659859D01*
X29425876Y-19662704D01*
X29406166Y-19659402D01*
X29395784Y-19649279D01*
X29392760Y-19631659D01*
X29392773Y-19630287D01*
X29394924Y-19618053D01*
X29402382Y-19608573D01*
X29417482Y-19600566D01*
X29442558Y-19592751D01*
X29479945Y-19583849D01*
X29584379Y-19556203D01*
X29681489Y-19520862D01*
X29766613Y-19479016D01*
X29839173Y-19430949D01*
X29898591Y-19376948D01*
X29913226Y-19360123D01*
X29951886Y-19304865D01*
X29985120Y-19241396D01*
X30012020Y-19172767D01*
X30031679Y-19102029D01*
X30043189Y-19032233D01*
X30045643Y-18966432D01*
X30038134Y-18907676D01*
X30035864Y-18899066D01*
X30023471Y-18863732D01*
X30005845Y-18823405D01*
X29985540Y-18783607D01*
X29965112Y-18749862D01*
X29963616Y-18747692D01*
X29935828Y-18713602D01*
X29900481Y-18678345D01*
X29862616Y-18646564D01*
X29827274Y-18622904D01*
X29768345Y-18594790D01*
X29688661Y-18567293D01*
X29599868Y-18545941D01*
X29504460Y-18531014D01*
X29404929Y-18522797D01*
X29303771Y-18521571D01*
X29203477Y-18527619D01*
X29106543Y-18541223D01*
X29052423Y-18552050D01*
X28939229Y-18580913D01*
X28838208Y-18616173D01*
X28748308Y-18658292D01*
X28668481Y-18707731D01*
X28597678Y-18764952D01*
X28583708Y-18777368D01*
X28558973Y-18795782D01*
X28540205Y-18802968D01*
X28525447Y-18799402D01*
X28512740Y-18785557D01*
X28505097Y-18771951D01*
X28505549Y-18761259D01*
X28514961Y-18746611D01*
X28517569Y-18743256D01*
X28537191Y-18722855D01*
X28565910Y-18697657D01*
X28600698Y-18669994D01*
X28638527Y-18642196D01*
X28676370Y-18616594D01*
X28711200Y-18595520D01*
X28721988Y-18589681D01*
X28777747Y-18563556D01*
X28843809Y-18537982D01*
X28916508Y-18514285D01*
X28992176Y-18493795D01*
X29019624Y-18487399D01*
X29065596Y-18477679D01*
X29111290Y-18469054D01*
X29153173Y-18462138D01*
X29187714Y-18457539D01*
X29211379Y-18455871D01*
X29218986Y-18455902D01*
X29230392Y-18455761D01*
X29239065Y-18454667D01*
X29244387Y-18451797D01*
X29245739Y-18446330D01*
X29242503Y-18437443D01*
X29234061Y-18424315D01*
X29219794Y-18406122D01*
X29199084Y-18382044D01*
X29171312Y-18351258D01*
X29135861Y-18312942D01*
X29092112Y-18266275D01*
X29039447Y-18210432D01*
X28977246Y-18144594D01*
X28958629Y-18124865D01*
X28922771Y-18086715D01*
X28889225Y-18050759D01*
X28856255Y-18015097D01*
X28822125Y-17977830D01*
X28785100Y-17937057D01*
X28743444Y-17890879D01*
X28695420Y-17837395D01*
X28639293Y-17774707D01*
X28609103Y-17740955D01*
X28631875Y-17706271D01*
X28634892Y-17701355D01*
X28645445Y-17683526D01*
X28662768Y-17653921D01*
X28686479Y-17613204D01*
X28716193Y-17562038D01*
X28751528Y-17501087D01*
X28792101Y-17431011D01*
X28837528Y-17352476D01*
X28887426Y-17266143D01*
X28941412Y-17172676D01*
X28999102Y-17072738D01*
X29060113Y-16966991D01*
X29124062Y-16856098D01*
X29190566Y-16740723D01*
X29259242Y-16621528D01*
X29329705Y-16499176D01*
X29368700Y-16431464D01*
X29453962Y-16283510D01*
X29532193Y-16147907D01*
X29603615Y-16024278D01*
X29668449Y-15912246D01*
X29726916Y-15811434D01*
X29779238Y-15721467D01*
X29825635Y-15641966D01*
X29866329Y-15572557D01*
X29901540Y-15512861D01*
X29931491Y-15462503D01*
X29956402Y-15421106D01*
X29976494Y-15388292D01*
X29991989Y-15363686D01*
X30003107Y-15346911D01*
X30010071Y-15337590D01*
X30013100Y-15335346D01*
X30013696Y-15336191D01*
G37*
%TD*%
M02*
