%TF.GenerationSoftware,KiCad,Pcbnew,8.0.8-8.0.8-0~ubuntu24.04.1*%
%TF.CreationDate,2025-02-18T11:05:35+01:00*%
%TF.ProjectId,SPU0410LR5H,53505530-3431-4304-9c52-35482e6b6963,rev?*%
%TF.SameCoordinates,Original*%
%TF.FileFunction,Drillmap*%
%TF.FilePolarity,Positive*%
%FSLAX45Y45*%
G04 Gerber Fmt 4.5, Leading zero omitted, Abs format (unit mm)*
G04 Created by KiCad (PCBNEW 8.0.8-8.0.8-0~ubuntu24.04.1) date 2025-02-18 11:05:35*
%MOMM*%
%LPD*%
G01*
G04 APERTURE LIST*
%ADD10C,0.050000*%
%ADD11C,0.200000*%
%ADD12C,0.100000*%
G04 APERTURE END LIST*
D10*
X1490000Y-1390000D02*
X3590000Y-1390000D01*
X1390000Y-2540000D02*
X1390000Y-1490000D01*
X3690000Y-1490000D02*
X3690000Y-2540000D01*
X3590000Y-2640000D02*
X1490000Y-2640000D01*
X1490000Y-2640000D02*
G75*
G02*
X1390000Y-2540000I0J100000D01*
G01*
X1390000Y-1490000D02*
G75*
G02*
X1490000Y-1390000I100000J0D01*
G01*
X3590000Y-1390000D02*
G75*
G02*
X3690000Y-1490000I0J-100000D01*
G01*
X3690000Y-2540000D02*
G75*
G02*
X3590000Y-2640000I-100000J0D01*
G01*
D11*
D12*
X1800000Y-2375000D02*
X1830000Y-2405000D01*
X1830000Y-2375000D02*
X1800000Y-2405000D01*
X1875000Y-2475000D02*
X1905000Y-2505000D01*
X1905000Y-2475000D02*
X1875000Y-2505000D01*
X1975000Y-2375000D02*
X2005000Y-2405000D01*
X2005000Y-2375000D02*
X1975000Y-2405000D01*
X2050000Y-2475000D02*
X2080000Y-2505000D01*
X2080000Y-2475000D02*
X2050000Y-2505000D01*
X2150000Y-1601500D02*
X2180000Y-1631500D01*
X2180000Y-1601500D02*
X2150000Y-1631500D01*
X2150000Y-2375000D02*
X2180000Y-2405000D01*
X2180000Y-2375000D02*
X2150000Y-2405000D01*
X2225000Y-2475000D02*
X2255000Y-2505000D01*
X2255000Y-2475000D02*
X2225000Y-2505000D01*
X2325000Y-1601500D02*
X2355000Y-1631500D01*
X2355000Y-1601500D02*
X2325000Y-1631500D01*
X2325000Y-2375000D02*
X2355000Y-2405000D01*
X2355000Y-2375000D02*
X2325000Y-2405000D01*
X2400000Y-2475000D02*
X2430000Y-2505000D01*
X2430000Y-2475000D02*
X2400000Y-2505000D01*
X2500000Y-1601500D02*
X2530000Y-1631500D01*
X2530000Y-1601500D02*
X2500000Y-1631500D01*
X2500000Y-2375000D02*
X2530000Y-2405000D01*
X2530000Y-2375000D02*
X2500000Y-2405000D01*
X2600000Y-1875000D02*
X2630000Y-1905000D01*
X2630000Y-1875000D02*
X2600000Y-1905000D01*
X2675000Y-1975000D02*
X2705000Y-2005000D01*
X2705000Y-1975000D02*
X2675000Y-2005000D01*
X2805000Y-1726500D02*
X2835000Y-1756500D01*
X2835000Y-1726500D02*
X2805000Y-1756500D01*
X3050000Y-1575000D02*
X3080000Y-1605000D01*
X3080000Y-1575000D02*
X3050000Y-1605000D01*
X3075000Y-2475000D02*
X3105000Y-2505000D01*
X3105000Y-2475000D02*
X3075000Y-2505000D01*
X3150000Y-1475000D02*
X3180000Y-1505000D01*
X3180000Y-1475000D02*
X3150000Y-1505000D01*
X3175000Y-2375000D02*
X3205000Y-2405000D01*
X3205000Y-2375000D02*
X3175000Y-2405000D01*
X3225000Y-1575000D02*
X3255000Y-1605000D01*
X3255000Y-1575000D02*
X3225000Y-1605000D01*
X3250000Y-2475000D02*
X3280000Y-2505000D01*
X3280000Y-2475000D02*
X3250000Y-2505000D01*
X3325000Y-1475000D02*
X3355000Y-1505000D01*
X3355000Y-1475000D02*
X3325000Y-1505000D01*
X3330000Y-1776500D02*
X3360000Y-1806500D01*
X3360000Y-1776500D02*
X3330000Y-1806500D01*
X3455000Y-1786050D02*
X3485000Y-1816050D01*
X3485000Y-1786050D02*
X3455000Y-1816050D01*
X3455000Y-1975000D02*
X3485000Y-2005000D01*
X3485000Y-1975000D02*
X3455000Y-2005000D01*
X1670000Y-1635000D02*
G75*
G02*
X1570000Y-1635000I-50000J0D01*
G01*
X1570000Y-1635000D02*
G75*
G02*
X1670000Y-1635000I50000J0D01*
G01*
X1670000Y-1889000D02*
G75*
G02*
X1570000Y-1889000I-50000J0D01*
G01*
X1570000Y-1889000D02*
G75*
G02*
X1670000Y-1889000I50000J0D01*
G01*
X1670000Y-2143000D02*
G75*
G02*
X1570000Y-2143000I-50000J0D01*
G01*
X1570000Y-2143000D02*
G75*
G02*
X1670000Y-2143000I50000J0D01*
G01*
X1670000Y-2397000D02*
G75*
G02*
X1570000Y-2397000I-50000J0D01*
G01*
X1570000Y-2397000D02*
G75*
G02*
X1670000Y-2397000I50000J0D01*
G01*
D11*
X1648277Y-2953984D02*
X1648277Y-2753984D01*
X1648277Y-2753984D02*
X1695896Y-2753984D01*
X1695896Y-2753984D02*
X1724467Y-2763508D01*
X1724467Y-2763508D02*
X1743515Y-2782555D01*
X1743515Y-2782555D02*
X1753039Y-2801603D01*
X1753039Y-2801603D02*
X1762562Y-2839698D01*
X1762562Y-2839698D02*
X1762562Y-2868269D01*
X1762562Y-2868269D02*
X1753039Y-2906365D01*
X1753039Y-2906365D02*
X1743515Y-2925412D01*
X1743515Y-2925412D02*
X1724467Y-2944460D01*
X1724467Y-2944460D02*
X1695896Y-2953984D01*
X1695896Y-2953984D02*
X1648277Y-2953984D01*
X1848277Y-2953984D02*
X1848277Y-2820650D01*
X1848277Y-2858746D02*
X1857800Y-2839698D01*
X1857800Y-2839698D02*
X1867324Y-2830174D01*
X1867324Y-2830174D02*
X1886372Y-2820650D01*
X1886372Y-2820650D02*
X1905420Y-2820650D01*
X1972086Y-2953984D02*
X1972086Y-2820650D01*
X1972086Y-2753984D02*
X1962562Y-2763508D01*
X1962562Y-2763508D02*
X1972086Y-2773031D01*
X1972086Y-2773031D02*
X1981610Y-2763508D01*
X1981610Y-2763508D02*
X1972086Y-2753984D01*
X1972086Y-2753984D02*
X1972086Y-2773031D01*
X2095896Y-2953984D02*
X2076848Y-2944460D01*
X2076848Y-2944460D02*
X2067324Y-2925412D01*
X2067324Y-2925412D02*
X2067324Y-2753984D01*
X2200658Y-2953984D02*
X2181610Y-2944460D01*
X2181610Y-2944460D02*
X2172086Y-2925412D01*
X2172086Y-2925412D02*
X2172086Y-2753984D01*
X2429229Y-2953984D02*
X2429229Y-2753984D01*
X2429229Y-2753984D02*
X2495896Y-2896841D01*
X2495896Y-2896841D02*
X2562562Y-2753984D01*
X2562562Y-2753984D02*
X2562562Y-2953984D01*
X2743515Y-2953984D02*
X2743515Y-2849222D01*
X2743515Y-2849222D02*
X2733991Y-2830174D01*
X2733991Y-2830174D02*
X2714943Y-2820650D01*
X2714943Y-2820650D02*
X2676848Y-2820650D01*
X2676848Y-2820650D02*
X2657801Y-2830174D01*
X2743515Y-2944460D02*
X2724467Y-2953984D01*
X2724467Y-2953984D02*
X2676848Y-2953984D01*
X2676848Y-2953984D02*
X2657801Y-2944460D01*
X2657801Y-2944460D02*
X2648277Y-2925412D01*
X2648277Y-2925412D02*
X2648277Y-2906365D01*
X2648277Y-2906365D02*
X2657801Y-2887317D01*
X2657801Y-2887317D02*
X2676848Y-2877793D01*
X2676848Y-2877793D02*
X2724467Y-2877793D01*
X2724467Y-2877793D02*
X2743515Y-2868269D01*
X2838753Y-2820650D02*
X2838753Y-3020650D01*
X2838753Y-2830174D02*
X2857800Y-2820650D01*
X2857800Y-2820650D02*
X2895896Y-2820650D01*
X2895896Y-2820650D02*
X2914943Y-2830174D01*
X2914943Y-2830174D02*
X2924467Y-2839698D01*
X2924467Y-2839698D02*
X2933991Y-2858746D01*
X2933991Y-2858746D02*
X2933991Y-2915888D01*
X2933991Y-2915888D02*
X2924467Y-2934936D01*
X2924467Y-2934936D02*
X2914943Y-2944460D01*
X2914943Y-2944460D02*
X2895896Y-2953984D01*
X2895896Y-2953984D02*
X2857800Y-2953984D01*
X2857800Y-2953984D02*
X2838753Y-2944460D01*
X3019705Y-2934936D02*
X3029229Y-2944460D01*
X3029229Y-2944460D02*
X3019705Y-2953984D01*
X3019705Y-2953984D02*
X3010181Y-2944460D01*
X3010181Y-2944460D02*
X3019705Y-2934936D01*
X3019705Y-2934936D02*
X3019705Y-2953984D01*
X3019705Y-2830174D02*
X3029229Y-2839698D01*
X3029229Y-2839698D02*
X3019705Y-2849222D01*
X3019705Y-2849222D02*
X3010181Y-2839698D01*
X3010181Y-2839698D02*
X3019705Y-2830174D01*
X3019705Y-2830174D02*
X3019705Y-2849222D01*
D12*
X1357500Y-3267500D02*
X1387500Y-3297500D01*
X1387500Y-3267500D02*
X1357500Y-3297500D01*
D11*
X1686372Y-3173984D02*
X1705420Y-3173984D01*
X1705420Y-3173984D02*
X1724467Y-3183507D01*
X1724467Y-3183507D02*
X1733991Y-3193031D01*
X1733991Y-3193031D02*
X1743515Y-3212079D01*
X1743515Y-3212079D02*
X1753039Y-3250174D01*
X1753039Y-3250174D02*
X1753039Y-3297793D01*
X1753039Y-3297793D02*
X1743515Y-3335888D01*
X1743515Y-3335888D02*
X1733991Y-3354936D01*
X1733991Y-3354936D02*
X1724467Y-3364460D01*
X1724467Y-3364460D02*
X1705420Y-3373984D01*
X1705420Y-3373984D02*
X1686372Y-3373984D01*
X1686372Y-3373984D02*
X1667324Y-3364460D01*
X1667324Y-3364460D02*
X1657800Y-3354936D01*
X1657800Y-3354936D02*
X1648277Y-3335888D01*
X1648277Y-3335888D02*
X1638753Y-3297793D01*
X1638753Y-3297793D02*
X1638753Y-3250174D01*
X1638753Y-3250174D02*
X1648277Y-3212079D01*
X1648277Y-3212079D02*
X1657800Y-3193031D01*
X1657800Y-3193031D02*
X1667324Y-3183507D01*
X1667324Y-3183507D02*
X1686372Y-3173984D01*
X1838753Y-3354936D02*
X1848277Y-3364460D01*
X1848277Y-3364460D02*
X1838753Y-3373984D01*
X1838753Y-3373984D02*
X1829229Y-3364460D01*
X1829229Y-3364460D02*
X1838753Y-3354936D01*
X1838753Y-3354936D02*
X1838753Y-3373984D01*
X1914943Y-3173984D02*
X2038753Y-3173984D01*
X2038753Y-3173984D02*
X1972086Y-3250174D01*
X1972086Y-3250174D02*
X2000658Y-3250174D01*
X2000658Y-3250174D02*
X2019705Y-3259698D01*
X2019705Y-3259698D02*
X2029229Y-3269222D01*
X2029229Y-3269222D02*
X2038753Y-3288269D01*
X2038753Y-3288269D02*
X2038753Y-3335888D01*
X2038753Y-3335888D02*
X2029229Y-3354936D01*
X2029229Y-3354936D02*
X2019705Y-3364460D01*
X2019705Y-3364460D02*
X2000658Y-3373984D01*
X2000658Y-3373984D02*
X1943515Y-3373984D01*
X1943515Y-3373984D02*
X1924467Y-3364460D01*
X1924467Y-3364460D02*
X1914943Y-3354936D01*
X2162562Y-3173984D02*
X2181610Y-3173984D01*
X2181610Y-3173984D02*
X2200658Y-3183507D01*
X2200658Y-3183507D02*
X2210182Y-3193031D01*
X2210182Y-3193031D02*
X2219705Y-3212079D01*
X2219705Y-3212079D02*
X2229229Y-3250174D01*
X2229229Y-3250174D02*
X2229229Y-3297793D01*
X2229229Y-3297793D02*
X2219705Y-3335888D01*
X2219705Y-3335888D02*
X2210182Y-3354936D01*
X2210182Y-3354936D02*
X2200658Y-3364460D01*
X2200658Y-3364460D02*
X2181610Y-3373984D01*
X2181610Y-3373984D02*
X2162562Y-3373984D01*
X2162562Y-3373984D02*
X2143515Y-3364460D01*
X2143515Y-3364460D02*
X2133991Y-3354936D01*
X2133991Y-3354936D02*
X2124467Y-3335888D01*
X2124467Y-3335888D02*
X2114943Y-3297793D01*
X2114943Y-3297793D02*
X2114943Y-3250174D01*
X2114943Y-3250174D02*
X2124467Y-3212079D01*
X2124467Y-3212079D02*
X2133991Y-3193031D01*
X2133991Y-3193031D02*
X2143515Y-3183507D01*
X2143515Y-3183507D02*
X2162562Y-3173984D01*
X2353039Y-3173984D02*
X2372086Y-3173984D01*
X2372086Y-3173984D02*
X2391134Y-3183507D01*
X2391134Y-3183507D02*
X2400658Y-3193031D01*
X2400658Y-3193031D02*
X2410182Y-3212079D01*
X2410182Y-3212079D02*
X2419705Y-3250174D01*
X2419705Y-3250174D02*
X2419705Y-3297793D01*
X2419705Y-3297793D02*
X2410182Y-3335888D01*
X2410182Y-3335888D02*
X2400658Y-3354936D01*
X2400658Y-3354936D02*
X2391134Y-3364460D01*
X2391134Y-3364460D02*
X2372086Y-3373984D01*
X2372086Y-3373984D02*
X2353039Y-3373984D01*
X2353039Y-3373984D02*
X2333991Y-3364460D01*
X2333991Y-3364460D02*
X2324467Y-3354936D01*
X2324467Y-3354936D02*
X2314943Y-3335888D01*
X2314943Y-3335888D02*
X2305420Y-3297793D01*
X2305420Y-3297793D02*
X2305420Y-3250174D01*
X2305420Y-3250174D02*
X2314943Y-3212079D01*
X2314943Y-3212079D02*
X2324467Y-3193031D01*
X2324467Y-3193031D02*
X2333991Y-3183507D01*
X2333991Y-3183507D02*
X2353039Y-3173984D01*
X2505420Y-3373984D02*
X2505420Y-3240650D01*
X2505420Y-3259698D02*
X2514943Y-3250174D01*
X2514943Y-3250174D02*
X2533991Y-3240650D01*
X2533991Y-3240650D02*
X2562563Y-3240650D01*
X2562563Y-3240650D02*
X2581610Y-3250174D01*
X2581610Y-3250174D02*
X2591134Y-3269222D01*
X2591134Y-3269222D02*
X2591134Y-3373984D01*
X2591134Y-3269222D02*
X2600658Y-3250174D01*
X2600658Y-3250174D02*
X2619705Y-3240650D01*
X2619705Y-3240650D02*
X2648277Y-3240650D01*
X2648277Y-3240650D02*
X2667324Y-3250174D01*
X2667324Y-3250174D02*
X2676848Y-3269222D01*
X2676848Y-3269222D02*
X2676848Y-3373984D01*
X2772086Y-3373984D02*
X2772086Y-3240650D01*
X2772086Y-3259698D02*
X2781610Y-3250174D01*
X2781610Y-3250174D02*
X2800658Y-3240650D01*
X2800658Y-3240650D02*
X2829229Y-3240650D01*
X2829229Y-3240650D02*
X2848277Y-3250174D01*
X2848277Y-3250174D02*
X2857801Y-3269222D01*
X2857801Y-3269222D02*
X2857801Y-3373984D01*
X2857801Y-3269222D02*
X2867324Y-3250174D01*
X2867324Y-3250174D02*
X2886372Y-3240650D01*
X2886372Y-3240650D02*
X2914943Y-3240650D01*
X2914943Y-3240650D02*
X2933991Y-3250174D01*
X2933991Y-3250174D02*
X2943515Y-3269222D01*
X2943515Y-3269222D02*
X2943515Y-3373984D01*
X3333991Y-3164460D02*
X3162563Y-3421603D01*
X3591134Y-3173984D02*
X3610182Y-3173984D01*
X3610182Y-3173984D02*
X3629229Y-3183507D01*
X3629229Y-3183507D02*
X3638753Y-3193031D01*
X3638753Y-3193031D02*
X3648277Y-3212079D01*
X3648277Y-3212079D02*
X3657801Y-3250174D01*
X3657801Y-3250174D02*
X3657801Y-3297793D01*
X3657801Y-3297793D02*
X3648277Y-3335888D01*
X3648277Y-3335888D02*
X3638753Y-3354936D01*
X3638753Y-3354936D02*
X3629229Y-3364460D01*
X3629229Y-3364460D02*
X3610182Y-3373984D01*
X3610182Y-3373984D02*
X3591134Y-3373984D01*
X3591134Y-3373984D02*
X3572086Y-3364460D01*
X3572086Y-3364460D02*
X3562563Y-3354936D01*
X3562563Y-3354936D02*
X3553039Y-3335888D01*
X3553039Y-3335888D02*
X3543515Y-3297793D01*
X3543515Y-3297793D02*
X3543515Y-3250174D01*
X3543515Y-3250174D02*
X3553039Y-3212079D01*
X3553039Y-3212079D02*
X3562563Y-3193031D01*
X3562563Y-3193031D02*
X3572086Y-3183507D01*
X3572086Y-3183507D02*
X3591134Y-3173984D01*
X3743515Y-3354936D02*
X3753039Y-3364460D01*
X3753039Y-3364460D02*
X3743515Y-3373984D01*
X3743515Y-3373984D02*
X3733991Y-3364460D01*
X3733991Y-3364460D02*
X3743515Y-3354936D01*
X3743515Y-3354936D02*
X3743515Y-3373984D01*
X3876848Y-3173984D02*
X3895896Y-3173984D01*
X3895896Y-3173984D02*
X3914944Y-3183507D01*
X3914944Y-3183507D02*
X3924467Y-3193031D01*
X3924467Y-3193031D02*
X3933991Y-3212079D01*
X3933991Y-3212079D02*
X3943515Y-3250174D01*
X3943515Y-3250174D02*
X3943515Y-3297793D01*
X3943515Y-3297793D02*
X3933991Y-3335888D01*
X3933991Y-3335888D02*
X3924467Y-3354936D01*
X3924467Y-3354936D02*
X3914944Y-3364460D01*
X3914944Y-3364460D02*
X3895896Y-3373984D01*
X3895896Y-3373984D02*
X3876848Y-3373984D01*
X3876848Y-3373984D02*
X3857801Y-3364460D01*
X3857801Y-3364460D02*
X3848277Y-3354936D01*
X3848277Y-3354936D02*
X3838753Y-3335888D01*
X3838753Y-3335888D02*
X3829229Y-3297793D01*
X3829229Y-3297793D02*
X3829229Y-3250174D01*
X3829229Y-3250174D02*
X3838753Y-3212079D01*
X3838753Y-3212079D02*
X3848277Y-3193031D01*
X3848277Y-3193031D02*
X3857801Y-3183507D01*
X3857801Y-3183507D02*
X3876848Y-3173984D01*
X4133991Y-3373984D02*
X4019705Y-3373984D01*
X4076848Y-3373984D02*
X4076848Y-3173984D01*
X4076848Y-3173984D02*
X4057801Y-3202555D01*
X4057801Y-3202555D02*
X4038753Y-3221603D01*
X4038753Y-3221603D02*
X4019705Y-3231126D01*
X4324467Y-3373984D02*
X4210182Y-3373984D01*
X4267325Y-3373984D02*
X4267325Y-3173984D01*
X4267325Y-3173984D02*
X4248277Y-3202555D01*
X4248277Y-3202555D02*
X4229229Y-3221603D01*
X4229229Y-3221603D02*
X4210182Y-3231126D01*
X4438753Y-3259698D02*
X4419706Y-3250174D01*
X4419706Y-3250174D02*
X4410182Y-3240650D01*
X4410182Y-3240650D02*
X4400658Y-3221603D01*
X4400658Y-3221603D02*
X4400658Y-3212079D01*
X4400658Y-3212079D02*
X4410182Y-3193031D01*
X4410182Y-3193031D02*
X4419706Y-3183507D01*
X4419706Y-3183507D02*
X4438753Y-3173984D01*
X4438753Y-3173984D02*
X4476848Y-3173984D01*
X4476848Y-3173984D02*
X4495896Y-3183507D01*
X4495896Y-3183507D02*
X4505420Y-3193031D01*
X4505420Y-3193031D02*
X4514944Y-3212079D01*
X4514944Y-3212079D02*
X4514944Y-3221603D01*
X4514944Y-3221603D02*
X4505420Y-3240650D01*
X4505420Y-3240650D02*
X4495896Y-3250174D01*
X4495896Y-3250174D02*
X4476848Y-3259698D01*
X4476848Y-3259698D02*
X4438753Y-3259698D01*
X4438753Y-3259698D02*
X4419706Y-3269222D01*
X4419706Y-3269222D02*
X4410182Y-3278746D01*
X4410182Y-3278746D02*
X4400658Y-3297793D01*
X4400658Y-3297793D02*
X4400658Y-3335888D01*
X4400658Y-3335888D02*
X4410182Y-3354936D01*
X4410182Y-3354936D02*
X4419706Y-3364460D01*
X4419706Y-3364460D02*
X4438753Y-3373984D01*
X4438753Y-3373984D02*
X4476848Y-3373984D01*
X4476848Y-3373984D02*
X4495896Y-3364460D01*
X4495896Y-3364460D02*
X4505420Y-3354936D01*
X4505420Y-3354936D02*
X4514944Y-3335888D01*
X4514944Y-3335888D02*
X4514944Y-3297793D01*
X4514944Y-3297793D02*
X4505420Y-3278746D01*
X4505420Y-3278746D02*
X4495896Y-3269222D01*
X4495896Y-3269222D02*
X4476848Y-3259698D01*
X4591134Y-3173984D02*
X4591134Y-3212079D01*
X4667325Y-3173984D02*
X4667325Y-3212079D01*
X4962563Y-3450174D02*
X4953039Y-3440650D01*
X4953039Y-3440650D02*
X4933991Y-3412079D01*
X4933991Y-3412079D02*
X4924468Y-3393031D01*
X4924468Y-3393031D02*
X4914944Y-3364460D01*
X4914944Y-3364460D02*
X4905420Y-3316841D01*
X4905420Y-3316841D02*
X4905420Y-3278746D01*
X4905420Y-3278746D02*
X4914944Y-3231126D01*
X4914944Y-3231126D02*
X4924468Y-3202555D01*
X4924468Y-3202555D02*
X4933991Y-3183507D01*
X4933991Y-3183507D02*
X4953039Y-3154936D01*
X4953039Y-3154936D02*
X4962563Y-3145412D01*
X5029229Y-3193031D02*
X5038753Y-3183507D01*
X5038753Y-3183507D02*
X5057801Y-3173984D01*
X5057801Y-3173984D02*
X5105420Y-3173984D01*
X5105420Y-3173984D02*
X5124468Y-3183507D01*
X5124468Y-3183507D02*
X5133991Y-3193031D01*
X5133991Y-3193031D02*
X5143515Y-3212079D01*
X5143515Y-3212079D02*
X5143515Y-3231126D01*
X5143515Y-3231126D02*
X5133991Y-3259698D01*
X5133991Y-3259698D02*
X5019706Y-3373984D01*
X5019706Y-3373984D02*
X5143515Y-3373984D01*
X5324468Y-3173984D02*
X5229229Y-3173984D01*
X5229229Y-3173984D02*
X5219706Y-3269222D01*
X5219706Y-3269222D02*
X5229229Y-3259698D01*
X5229229Y-3259698D02*
X5248277Y-3250174D01*
X5248277Y-3250174D02*
X5295896Y-3250174D01*
X5295896Y-3250174D02*
X5314944Y-3259698D01*
X5314944Y-3259698D02*
X5324468Y-3269222D01*
X5324468Y-3269222D02*
X5333991Y-3288269D01*
X5333991Y-3288269D02*
X5333991Y-3335888D01*
X5333991Y-3335888D02*
X5324468Y-3354936D01*
X5324468Y-3354936D02*
X5314944Y-3364460D01*
X5314944Y-3364460D02*
X5295896Y-3373984D01*
X5295896Y-3373984D02*
X5248277Y-3373984D01*
X5248277Y-3373984D02*
X5229229Y-3364460D01*
X5229229Y-3364460D02*
X5219706Y-3354936D01*
X5572087Y-3373984D02*
X5572087Y-3173984D01*
X5657801Y-3373984D02*
X5657801Y-3269222D01*
X5657801Y-3269222D02*
X5648277Y-3250174D01*
X5648277Y-3250174D02*
X5629229Y-3240650D01*
X5629229Y-3240650D02*
X5600658Y-3240650D01*
X5600658Y-3240650D02*
X5581610Y-3250174D01*
X5581610Y-3250174D02*
X5572087Y-3259698D01*
X5781610Y-3373984D02*
X5762563Y-3364460D01*
X5762563Y-3364460D02*
X5753039Y-3354936D01*
X5753039Y-3354936D02*
X5743515Y-3335888D01*
X5743515Y-3335888D02*
X5743515Y-3278746D01*
X5743515Y-3278746D02*
X5753039Y-3259698D01*
X5753039Y-3259698D02*
X5762563Y-3250174D01*
X5762563Y-3250174D02*
X5781610Y-3240650D01*
X5781610Y-3240650D02*
X5810182Y-3240650D01*
X5810182Y-3240650D02*
X5829229Y-3250174D01*
X5829229Y-3250174D02*
X5838753Y-3259698D01*
X5838753Y-3259698D02*
X5848277Y-3278746D01*
X5848277Y-3278746D02*
X5848277Y-3335888D01*
X5848277Y-3335888D02*
X5838753Y-3354936D01*
X5838753Y-3354936D02*
X5829229Y-3364460D01*
X5829229Y-3364460D02*
X5810182Y-3373984D01*
X5810182Y-3373984D02*
X5781610Y-3373984D01*
X5962563Y-3373984D02*
X5943515Y-3364460D01*
X5943515Y-3364460D02*
X5933991Y-3345412D01*
X5933991Y-3345412D02*
X5933991Y-3173984D01*
X6114944Y-3364460D02*
X6095896Y-3373984D01*
X6095896Y-3373984D02*
X6057801Y-3373984D01*
X6057801Y-3373984D02*
X6038753Y-3364460D01*
X6038753Y-3364460D02*
X6029229Y-3345412D01*
X6029229Y-3345412D02*
X6029229Y-3269222D01*
X6029229Y-3269222D02*
X6038753Y-3250174D01*
X6038753Y-3250174D02*
X6057801Y-3240650D01*
X6057801Y-3240650D02*
X6095896Y-3240650D01*
X6095896Y-3240650D02*
X6114944Y-3250174D01*
X6114944Y-3250174D02*
X6124468Y-3269222D01*
X6124468Y-3269222D02*
X6124468Y-3288269D01*
X6124468Y-3288269D02*
X6029229Y-3307317D01*
X6200658Y-3364460D02*
X6219706Y-3373984D01*
X6219706Y-3373984D02*
X6257801Y-3373984D01*
X6257801Y-3373984D02*
X6276849Y-3364460D01*
X6276849Y-3364460D02*
X6286372Y-3345412D01*
X6286372Y-3345412D02*
X6286372Y-3335888D01*
X6286372Y-3335888D02*
X6276849Y-3316841D01*
X6276849Y-3316841D02*
X6257801Y-3307317D01*
X6257801Y-3307317D02*
X6229229Y-3307317D01*
X6229229Y-3307317D02*
X6210182Y-3297793D01*
X6210182Y-3297793D02*
X6200658Y-3278746D01*
X6200658Y-3278746D02*
X6200658Y-3269222D01*
X6200658Y-3269222D02*
X6210182Y-3250174D01*
X6210182Y-3250174D02*
X6229229Y-3240650D01*
X6229229Y-3240650D02*
X6257801Y-3240650D01*
X6257801Y-3240650D02*
X6276849Y-3250174D01*
X6353039Y-3450174D02*
X6362563Y-3440650D01*
X6362563Y-3440650D02*
X6381610Y-3412079D01*
X6381610Y-3412079D02*
X6391134Y-3393031D01*
X6391134Y-3393031D02*
X6400658Y-3364460D01*
X6400658Y-3364460D02*
X6410182Y-3316841D01*
X6410182Y-3316841D02*
X6410182Y-3278746D01*
X6410182Y-3278746D02*
X6400658Y-3231126D01*
X6400658Y-3231126D02*
X6391134Y-3202555D01*
X6391134Y-3202555D02*
X6381610Y-3183507D01*
X6381610Y-3183507D02*
X6362563Y-3154936D01*
X6362563Y-3154936D02*
X6353039Y-3145412D01*
D12*
X1387500Y-3546500D02*
G75*
G02*
X1287500Y-3546500I-50000J0D01*
G01*
X1287500Y-3546500D02*
G75*
G02*
X1387500Y-3546500I50000J0D01*
G01*
D11*
X1753039Y-3637984D02*
X1638753Y-3637984D01*
X1695896Y-3637984D02*
X1695896Y-3437984D01*
X1695896Y-3437984D02*
X1676848Y-3466555D01*
X1676848Y-3466555D02*
X1657800Y-3485603D01*
X1657800Y-3485603D02*
X1638753Y-3495126D01*
X1838753Y-3618936D02*
X1848277Y-3628460D01*
X1848277Y-3628460D02*
X1838753Y-3637984D01*
X1838753Y-3637984D02*
X1829229Y-3628460D01*
X1829229Y-3628460D02*
X1838753Y-3618936D01*
X1838753Y-3618936D02*
X1838753Y-3637984D01*
X1972086Y-3437984D02*
X1991134Y-3437984D01*
X1991134Y-3437984D02*
X2010181Y-3447507D01*
X2010181Y-3447507D02*
X2019705Y-3457031D01*
X2019705Y-3457031D02*
X2029229Y-3476079D01*
X2029229Y-3476079D02*
X2038753Y-3514174D01*
X2038753Y-3514174D02*
X2038753Y-3561793D01*
X2038753Y-3561793D02*
X2029229Y-3599888D01*
X2029229Y-3599888D02*
X2019705Y-3618936D01*
X2019705Y-3618936D02*
X2010181Y-3628460D01*
X2010181Y-3628460D02*
X1991134Y-3637984D01*
X1991134Y-3637984D02*
X1972086Y-3637984D01*
X1972086Y-3637984D02*
X1953039Y-3628460D01*
X1953039Y-3628460D02*
X1943515Y-3618936D01*
X1943515Y-3618936D02*
X1933991Y-3599888D01*
X1933991Y-3599888D02*
X1924467Y-3561793D01*
X1924467Y-3561793D02*
X1924467Y-3514174D01*
X1924467Y-3514174D02*
X1933991Y-3476079D01*
X1933991Y-3476079D02*
X1943515Y-3457031D01*
X1943515Y-3457031D02*
X1953039Y-3447507D01*
X1953039Y-3447507D02*
X1972086Y-3437984D01*
X2162562Y-3437984D02*
X2181610Y-3437984D01*
X2181610Y-3437984D02*
X2200658Y-3447507D01*
X2200658Y-3447507D02*
X2210182Y-3457031D01*
X2210182Y-3457031D02*
X2219705Y-3476079D01*
X2219705Y-3476079D02*
X2229229Y-3514174D01*
X2229229Y-3514174D02*
X2229229Y-3561793D01*
X2229229Y-3561793D02*
X2219705Y-3599888D01*
X2219705Y-3599888D02*
X2210182Y-3618936D01*
X2210182Y-3618936D02*
X2200658Y-3628460D01*
X2200658Y-3628460D02*
X2181610Y-3637984D01*
X2181610Y-3637984D02*
X2162562Y-3637984D01*
X2162562Y-3637984D02*
X2143515Y-3628460D01*
X2143515Y-3628460D02*
X2133991Y-3618936D01*
X2133991Y-3618936D02*
X2124467Y-3599888D01*
X2124467Y-3599888D02*
X2114943Y-3561793D01*
X2114943Y-3561793D02*
X2114943Y-3514174D01*
X2114943Y-3514174D02*
X2124467Y-3476079D01*
X2124467Y-3476079D02*
X2133991Y-3457031D01*
X2133991Y-3457031D02*
X2143515Y-3447507D01*
X2143515Y-3447507D02*
X2162562Y-3437984D01*
X2353039Y-3437984D02*
X2372086Y-3437984D01*
X2372086Y-3437984D02*
X2391134Y-3447507D01*
X2391134Y-3447507D02*
X2400658Y-3457031D01*
X2400658Y-3457031D02*
X2410182Y-3476079D01*
X2410182Y-3476079D02*
X2419705Y-3514174D01*
X2419705Y-3514174D02*
X2419705Y-3561793D01*
X2419705Y-3561793D02*
X2410182Y-3599888D01*
X2410182Y-3599888D02*
X2400658Y-3618936D01*
X2400658Y-3618936D02*
X2391134Y-3628460D01*
X2391134Y-3628460D02*
X2372086Y-3637984D01*
X2372086Y-3637984D02*
X2353039Y-3637984D01*
X2353039Y-3637984D02*
X2333991Y-3628460D01*
X2333991Y-3628460D02*
X2324467Y-3618936D01*
X2324467Y-3618936D02*
X2314943Y-3599888D01*
X2314943Y-3599888D02*
X2305420Y-3561793D01*
X2305420Y-3561793D02*
X2305420Y-3514174D01*
X2305420Y-3514174D02*
X2314943Y-3476079D01*
X2314943Y-3476079D02*
X2324467Y-3457031D01*
X2324467Y-3457031D02*
X2333991Y-3447507D01*
X2333991Y-3447507D02*
X2353039Y-3437984D01*
X2505420Y-3637984D02*
X2505420Y-3504650D01*
X2505420Y-3523698D02*
X2514943Y-3514174D01*
X2514943Y-3514174D02*
X2533991Y-3504650D01*
X2533991Y-3504650D02*
X2562563Y-3504650D01*
X2562563Y-3504650D02*
X2581610Y-3514174D01*
X2581610Y-3514174D02*
X2591134Y-3533222D01*
X2591134Y-3533222D02*
X2591134Y-3637984D01*
X2591134Y-3533222D02*
X2600658Y-3514174D01*
X2600658Y-3514174D02*
X2619705Y-3504650D01*
X2619705Y-3504650D02*
X2648277Y-3504650D01*
X2648277Y-3504650D02*
X2667324Y-3514174D01*
X2667324Y-3514174D02*
X2676848Y-3533222D01*
X2676848Y-3533222D02*
X2676848Y-3637984D01*
X2772086Y-3637984D02*
X2772086Y-3504650D01*
X2772086Y-3523698D02*
X2781610Y-3514174D01*
X2781610Y-3514174D02*
X2800658Y-3504650D01*
X2800658Y-3504650D02*
X2829229Y-3504650D01*
X2829229Y-3504650D02*
X2848277Y-3514174D01*
X2848277Y-3514174D02*
X2857801Y-3533222D01*
X2857801Y-3533222D02*
X2857801Y-3637984D01*
X2857801Y-3533222D02*
X2867324Y-3514174D01*
X2867324Y-3514174D02*
X2886372Y-3504650D01*
X2886372Y-3504650D02*
X2914943Y-3504650D01*
X2914943Y-3504650D02*
X2933991Y-3514174D01*
X2933991Y-3514174D02*
X2943515Y-3533222D01*
X2943515Y-3533222D02*
X2943515Y-3637984D01*
X3333991Y-3428460D02*
X3162563Y-3685603D01*
X3591134Y-3437984D02*
X3610182Y-3437984D01*
X3610182Y-3437984D02*
X3629229Y-3447507D01*
X3629229Y-3447507D02*
X3638753Y-3457031D01*
X3638753Y-3457031D02*
X3648277Y-3476079D01*
X3648277Y-3476079D02*
X3657801Y-3514174D01*
X3657801Y-3514174D02*
X3657801Y-3561793D01*
X3657801Y-3561793D02*
X3648277Y-3599888D01*
X3648277Y-3599888D02*
X3638753Y-3618936D01*
X3638753Y-3618936D02*
X3629229Y-3628460D01*
X3629229Y-3628460D02*
X3610182Y-3637984D01*
X3610182Y-3637984D02*
X3591134Y-3637984D01*
X3591134Y-3637984D02*
X3572086Y-3628460D01*
X3572086Y-3628460D02*
X3562563Y-3618936D01*
X3562563Y-3618936D02*
X3553039Y-3599888D01*
X3553039Y-3599888D02*
X3543515Y-3561793D01*
X3543515Y-3561793D02*
X3543515Y-3514174D01*
X3543515Y-3514174D02*
X3553039Y-3476079D01*
X3553039Y-3476079D02*
X3562563Y-3457031D01*
X3562563Y-3457031D02*
X3572086Y-3447507D01*
X3572086Y-3447507D02*
X3591134Y-3437984D01*
X3743515Y-3618936D02*
X3753039Y-3628460D01*
X3753039Y-3628460D02*
X3743515Y-3637984D01*
X3743515Y-3637984D02*
X3733991Y-3628460D01*
X3733991Y-3628460D02*
X3743515Y-3618936D01*
X3743515Y-3618936D02*
X3743515Y-3637984D01*
X3876848Y-3437984D02*
X3895896Y-3437984D01*
X3895896Y-3437984D02*
X3914944Y-3447507D01*
X3914944Y-3447507D02*
X3924467Y-3457031D01*
X3924467Y-3457031D02*
X3933991Y-3476079D01*
X3933991Y-3476079D02*
X3943515Y-3514174D01*
X3943515Y-3514174D02*
X3943515Y-3561793D01*
X3943515Y-3561793D02*
X3933991Y-3599888D01*
X3933991Y-3599888D02*
X3924467Y-3618936D01*
X3924467Y-3618936D02*
X3914944Y-3628460D01*
X3914944Y-3628460D02*
X3895896Y-3637984D01*
X3895896Y-3637984D02*
X3876848Y-3637984D01*
X3876848Y-3637984D02*
X3857801Y-3628460D01*
X3857801Y-3628460D02*
X3848277Y-3618936D01*
X3848277Y-3618936D02*
X3838753Y-3599888D01*
X3838753Y-3599888D02*
X3829229Y-3561793D01*
X3829229Y-3561793D02*
X3829229Y-3514174D01*
X3829229Y-3514174D02*
X3838753Y-3476079D01*
X3838753Y-3476079D02*
X3848277Y-3457031D01*
X3848277Y-3457031D02*
X3857801Y-3447507D01*
X3857801Y-3447507D02*
X3876848Y-3437984D01*
X4010182Y-3437984D02*
X4133991Y-3437984D01*
X4133991Y-3437984D02*
X4067324Y-3514174D01*
X4067324Y-3514174D02*
X4095896Y-3514174D01*
X4095896Y-3514174D02*
X4114944Y-3523698D01*
X4114944Y-3523698D02*
X4124467Y-3533222D01*
X4124467Y-3533222D02*
X4133991Y-3552269D01*
X4133991Y-3552269D02*
X4133991Y-3599888D01*
X4133991Y-3599888D02*
X4124467Y-3618936D01*
X4124467Y-3618936D02*
X4114944Y-3628460D01*
X4114944Y-3628460D02*
X4095896Y-3637984D01*
X4095896Y-3637984D02*
X4038753Y-3637984D01*
X4038753Y-3637984D02*
X4019705Y-3628460D01*
X4019705Y-3628460D02*
X4010182Y-3618936D01*
X4229229Y-3637984D02*
X4267325Y-3637984D01*
X4267325Y-3637984D02*
X4286372Y-3628460D01*
X4286372Y-3628460D02*
X4295896Y-3618936D01*
X4295896Y-3618936D02*
X4314944Y-3590365D01*
X4314944Y-3590365D02*
X4324467Y-3552269D01*
X4324467Y-3552269D02*
X4324467Y-3476079D01*
X4324467Y-3476079D02*
X4314944Y-3457031D01*
X4314944Y-3457031D02*
X4305420Y-3447507D01*
X4305420Y-3447507D02*
X4286372Y-3437984D01*
X4286372Y-3437984D02*
X4248277Y-3437984D01*
X4248277Y-3437984D02*
X4229229Y-3447507D01*
X4229229Y-3447507D02*
X4219706Y-3457031D01*
X4219706Y-3457031D02*
X4210182Y-3476079D01*
X4210182Y-3476079D02*
X4210182Y-3523698D01*
X4210182Y-3523698D02*
X4219706Y-3542746D01*
X4219706Y-3542746D02*
X4229229Y-3552269D01*
X4229229Y-3552269D02*
X4248277Y-3561793D01*
X4248277Y-3561793D02*
X4286372Y-3561793D01*
X4286372Y-3561793D02*
X4305420Y-3552269D01*
X4305420Y-3552269D02*
X4314944Y-3542746D01*
X4314944Y-3542746D02*
X4324467Y-3523698D01*
X4495896Y-3504650D02*
X4495896Y-3637984D01*
X4448277Y-3428460D02*
X4400658Y-3571317D01*
X4400658Y-3571317D02*
X4524467Y-3571317D01*
X4591134Y-3437984D02*
X4591134Y-3476079D01*
X4667325Y-3437984D02*
X4667325Y-3476079D01*
X4962563Y-3714174D02*
X4953039Y-3704650D01*
X4953039Y-3704650D02*
X4933991Y-3676079D01*
X4933991Y-3676079D02*
X4924468Y-3657031D01*
X4924468Y-3657031D02*
X4914944Y-3628460D01*
X4914944Y-3628460D02*
X4905420Y-3580841D01*
X4905420Y-3580841D02*
X4905420Y-3542746D01*
X4905420Y-3542746D02*
X4914944Y-3495126D01*
X4914944Y-3495126D02*
X4924468Y-3466555D01*
X4924468Y-3466555D02*
X4933991Y-3447507D01*
X4933991Y-3447507D02*
X4953039Y-3418936D01*
X4953039Y-3418936D02*
X4962563Y-3409412D01*
X5124468Y-3504650D02*
X5124468Y-3637984D01*
X5076848Y-3428460D02*
X5029229Y-3571317D01*
X5029229Y-3571317D02*
X5153039Y-3571317D01*
X5381610Y-3637984D02*
X5381610Y-3437984D01*
X5467325Y-3637984D02*
X5467325Y-3533222D01*
X5467325Y-3533222D02*
X5457801Y-3514174D01*
X5457801Y-3514174D02*
X5438753Y-3504650D01*
X5438753Y-3504650D02*
X5410182Y-3504650D01*
X5410182Y-3504650D02*
X5391134Y-3514174D01*
X5391134Y-3514174D02*
X5381610Y-3523698D01*
X5591134Y-3637984D02*
X5572087Y-3628460D01*
X5572087Y-3628460D02*
X5562563Y-3618936D01*
X5562563Y-3618936D02*
X5553039Y-3599888D01*
X5553039Y-3599888D02*
X5553039Y-3542746D01*
X5553039Y-3542746D02*
X5562563Y-3523698D01*
X5562563Y-3523698D02*
X5572087Y-3514174D01*
X5572087Y-3514174D02*
X5591134Y-3504650D01*
X5591134Y-3504650D02*
X5619706Y-3504650D01*
X5619706Y-3504650D02*
X5638753Y-3514174D01*
X5638753Y-3514174D02*
X5648277Y-3523698D01*
X5648277Y-3523698D02*
X5657801Y-3542746D01*
X5657801Y-3542746D02*
X5657801Y-3599888D01*
X5657801Y-3599888D02*
X5648277Y-3618936D01*
X5648277Y-3618936D02*
X5638753Y-3628460D01*
X5638753Y-3628460D02*
X5619706Y-3637984D01*
X5619706Y-3637984D02*
X5591134Y-3637984D01*
X5772087Y-3637984D02*
X5753039Y-3628460D01*
X5753039Y-3628460D02*
X5743515Y-3609412D01*
X5743515Y-3609412D02*
X5743515Y-3437984D01*
X5924468Y-3628460D02*
X5905420Y-3637984D01*
X5905420Y-3637984D02*
X5867325Y-3637984D01*
X5867325Y-3637984D02*
X5848277Y-3628460D01*
X5848277Y-3628460D02*
X5838753Y-3609412D01*
X5838753Y-3609412D02*
X5838753Y-3533222D01*
X5838753Y-3533222D02*
X5848277Y-3514174D01*
X5848277Y-3514174D02*
X5867325Y-3504650D01*
X5867325Y-3504650D02*
X5905420Y-3504650D01*
X5905420Y-3504650D02*
X5924468Y-3514174D01*
X5924468Y-3514174D02*
X5933991Y-3533222D01*
X5933991Y-3533222D02*
X5933991Y-3552269D01*
X5933991Y-3552269D02*
X5838753Y-3571317D01*
X6010182Y-3628460D02*
X6029229Y-3637984D01*
X6029229Y-3637984D02*
X6067325Y-3637984D01*
X6067325Y-3637984D02*
X6086372Y-3628460D01*
X6086372Y-3628460D02*
X6095896Y-3609412D01*
X6095896Y-3609412D02*
X6095896Y-3599888D01*
X6095896Y-3599888D02*
X6086372Y-3580841D01*
X6086372Y-3580841D02*
X6067325Y-3571317D01*
X6067325Y-3571317D02*
X6038753Y-3571317D01*
X6038753Y-3571317D02*
X6019706Y-3561793D01*
X6019706Y-3561793D02*
X6010182Y-3542746D01*
X6010182Y-3542746D02*
X6010182Y-3533222D01*
X6010182Y-3533222D02*
X6019706Y-3514174D01*
X6019706Y-3514174D02*
X6038753Y-3504650D01*
X6038753Y-3504650D02*
X6067325Y-3504650D01*
X6067325Y-3504650D02*
X6086372Y-3514174D01*
X6162563Y-3714174D02*
X6172087Y-3704650D01*
X6172087Y-3704650D02*
X6191134Y-3676079D01*
X6191134Y-3676079D02*
X6200658Y-3657031D01*
X6200658Y-3657031D02*
X6210182Y-3628460D01*
X6210182Y-3628460D02*
X6219706Y-3580841D01*
X6219706Y-3580841D02*
X6219706Y-3542746D01*
X6219706Y-3542746D02*
X6210182Y-3495126D01*
X6210182Y-3495126D02*
X6200658Y-3466555D01*
X6200658Y-3466555D02*
X6191134Y-3447507D01*
X6191134Y-3447507D02*
X6172087Y-3418936D01*
X6172087Y-3418936D02*
X6162563Y-3409412D01*
M02*
