%TF.GenerationSoftware,KiCad,Pcbnew,8.0.8-8.0.8-0~ubuntu24.04.1*%
%TF.CreationDate,2025-02-18T11:05:32+01:00*%
%TF.ProjectId,SPU0410LR5H,53505530-3431-4304-9c52-35482e6b6963,rev?*%
%TF.SameCoordinates,Original*%
%TF.FileFunction,Paste,Top*%
%TF.FilePolarity,Positive*%
%FSLAX46Y46*%
G04 Gerber Fmt 4.6, Leading zero omitted, Abs format (unit mm)*
G04 Created by KiCad (PCBNEW 8.0.8-8.0.8-0~ubuntu24.04.1) date 2025-02-18 11:05:32*
%MOMM*%
%LPD*%
G01*
G04 APERTURE LIST*
G04 Aperture macros list*
%AMRoundRect*
0 Rectangle with rounded corners*
0 $1 Rounding radius*
0 $2 $3 $4 $5 $6 $7 $8 $9 X,Y pos of 4 corners*
0 Add a 4 corners polygon primitive as box body*
4,1,4,$2,$3,$4,$5,$6,$7,$8,$9,$2,$3,0*
0 Add four circle primitives for the rounded corners*
1,1,$1+$1,$2,$3*
1,1,$1+$1,$4,$5*
1,1,$1+$1,$6,$7*
1,1,$1+$1,$8,$9*
0 Add four rect primitives between the rounded corners*
20,1,$1+$1,$2,$3,$4,$5,0*
20,1,$1+$1,$4,$5,$6,$7,0*
20,1,$1+$1,$6,$7,$8,$9,0*
20,1,$1+$1,$8,$9,$2,$3,0*%
G04 Aperture macros list end*
%ADD10C,0.001000*%
%ADD11RoundRect,0.250000X-0.450000X0.262500X-0.450000X-0.262500X0.450000X-0.262500X0.450000X0.262500X0*%
%ADD12RoundRect,0.250000X0.475000X-0.250000X0.475000X0.250000X-0.475000X0.250000X-0.475000X-0.250000X0*%
%ADD13C,0.723000*%
%ADD14C,0.562000*%
%ADD15C,0.612000*%
%ADD16RoundRect,0.250000X0.450000X-0.262500X0.450000X0.262500X-0.450000X0.262500X-0.450000X-0.262500X0*%
%ADD17RoundRect,0.250000X-0.250000X-0.475000X0.250000X-0.475000X0.250000X0.475000X-0.250000X0.475000X0*%
%ADD18RoundRect,0.250000X0.250000X0.475000X-0.250000X0.475000X-0.250000X-0.475000X0.250000X-0.475000X0*%
%ADD19RoundRect,0.150000X-0.825000X-0.150000X0.825000X-0.150000X0.825000X0.150000X-0.825000X0.150000X0*%
%ADD20RoundRect,0.250000X-0.262500X-0.450000X0.262500X-0.450000X0.262500X0.450000X-0.262500X0.450000X0*%
G04 APERTURE END LIST*
D10*
%TO.C,U2*%
X34437999Y-16648999D02*
X34431999Y-16658999D01*
X34426999Y-16667999D01*
X34421999Y-16677999D01*
X34416999Y-16687999D01*
X34412999Y-16697999D01*
X34408999Y-16708999D01*
X34405999Y-16718999D01*
X34402999Y-16729999D01*
X34399999Y-16739999D01*
X34397999Y-16750999D01*
X34395999Y-16761999D01*
X34394999Y-16772999D01*
X34393999Y-16783999D01*
X34392999Y-16794999D01*
X34392999Y-16804999D01*
X34392999Y-16815999D01*
X34393999Y-16826999D01*
X34394999Y-16837999D01*
X34395999Y-16848999D01*
X34397999Y-16859999D01*
X34399999Y-16870999D01*
X34402999Y-16880999D01*
X34405999Y-16891999D01*
X34408999Y-16901999D01*
X34412999Y-16912999D01*
X34416999Y-16922999D01*
X34421999Y-16932999D01*
X34426999Y-16942999D01*
X34431999Y-16951999D01*
X34437999Y-16961999D01*
X34219999Y-17179999D01*
X34219874Y-17179558D01*
X34205999Y-17161999D01*
X34190999Y-17139999D01*
X34175999Y-17116999D01*
X34162999Y-17092999D01*
X34149999Y-17068999D01*
X34138999Y-17043999D01*
X34127999Y-17018999D01*
X34118999Y-16992999D01*
X34110999Y-16966999D01*
X34104999Y-16940999D01*
X34098999Y-16913999D01*
X34094999Y-16886999D01*
X34091999Y-16859999D01*
X34089999Y-16832999D01*
X34088999Y-16804999D01*
X34089999Y-16777999D01*
X34091999Y-16750999D01*
X34094999Y-16723999D01*
X34098999Y-16696999D01*
X34104999Y-16669999D01*
X34110999Y-16643999D01*
X34118999Y-16617999D01*
X34127999Y-16591999D01*
X34138999Y-16566999D01*
X34149999Y-16541999D01*
X34162999Y-16517999D01*
X34175999Y-16493999D01*
X34190999Y-16470999D01*
X34205999Y-16448999D01*
X34219999Y-16430999D01*
X34437999Y-16648999D01*
G36*
X34437999Y-16648999D02*
G01*
X34431999Y-16658999D01*
X34426999Y-16667999D01*
X34421999Y-16677999D01*
X34416999Y-16687999D01*
X34412999Y-16697999D01*
X34408999Y-16708999D01*
X34405999Y-16718999D01*
X34402999Y-16729999D01*
X34399999Y-16739999D01*
X34397999Y-16750999D01*
X34395999Y-16761999D01*
X34394999Y-16772999D01*
X34393999Y-16783999D01*
X34392999Y-16794999D01*
X34392999Y-16804999D01*
X34392999Y-16815999D01*
X34393999Y-16826999D01*
X34394999Y-16837999D01*
X34395999Y-16848999D01*
X34397999Y-16859999D01*
X34399999Y-16870999D01*
X34402999Y-16880999D01*
X34405999Y-16891999D01*
X34408999Y-16901999D01*
X34412999Y-16912999D01*
X34416999Y-16922999D01*
X34421999Y-16932999D01*
X34426999Y-16942999D01*
X34431999Y-16951999D01*
X34437999Y-16961999D01*
X34219999Y-17179999D01*
X34219874Y-17179558D01*
X34205999Y-17161999D01*
X34190999Y-17139999D01*
X34175999Y-17116999D01*
X34162999Y-17092999D01*
X34149999Y-17068999D01*
X34138999Y-17043999D01*
X34127999Y-17018999D01*
X34118999Y-16992999D01*
X34110999Y-16966999D01*
X34104999Y-16940999D01*
X34098999Y-16913999D01*
X34094999Y-16886999D01*
X34091999Y-16859999D01*
X34089999Y-16832999D01*
X34088999Y-16804999D01*
X34089999Y-16777999D01*
X34091999Y-16750999D01*
X34094999Y-16723999D01*
X34098999Y-16696999D01*
X34104999Y-16669999D01*
X34110999Y-16643999D01*
X34118999Y-16617999D01*
X34127999Y-16591999D01*
X34138999Y-16566999D01*
X34149999Y-16541999D01*
X34162999Y-16517999D01*
X34175999Y-16493999D01*
X34190999Y-16470999D01*
X34205999Y-16448999D01*
X34219999Y-16430999D01*
X34437999Y-16648999D01*
G37*
X34731999Y-16195999D02*
X34758999Y-16197999D01*
X34785999Y-16200999D01*
X34811999Y-16204999D01*
X34838999Y-16210999D01*
X34864999Y-16217999D01*
X34889999Y-16225999D01*
X34915999Y-16234999D01*
X34940999Y-16244999D01*
X34964999Y-16255999D01*
X34988999Y-16268999D01*
X35011999Y-16281999D01*
X35034999Y-16296999D01*
X35056999Y-16311999D01*
X35073999Y-16324999D01*
X34855999Y-16542999D01*
X34846999Y-16537999D01*
X34836999Y-16531999D01*
X34826999Y-16526999D01*
X34816999Y-16522999D01*
X34806999Y-16518999D01*
X34796999Y-16514999D01*
X34786999Y-16510999D01*
X34775999Y-16507999D01*
X34764999Y-16505999D01*
X34754999Y-16502999D01*
X34743999Y-16501999D01*
X34732999Y-16499999D01*
X34721999Y-16498999D01*
X34710999Y-16498999D01*
X34699999Y-16497999D01*
X34688999Y-16498999D01*
X34677999Y-16498999D01*
X34666999Y-16499999D01*
X34655999Y-16501999D01*
X34644999Y-16502999D01*
X34634999Y-16505999D01*
X34623999Y-16507999D01*
X34612999Y-16510999D01*
X34602999Y-16514999D01*
X34592999Y-16518999D01*
X34582999Y-16522999D01*
X34572999Y-16526999D01*
X34562999Y-16531999D01*
X34552999Y-16537999D01*
X34543999Y-16542999D01*
X34326186Y-16325186D01*
X34351999Y-16305999D01*
X34373999Y-16290999D01*
X34396999Y-16276999D01*
X34419999Y-16263999D01*
X34443999Y-16251999D01*
X34468999Y-16240999D01*
X34493999Y-16230999D01*
X34519999Y-16221999D01*
X34544999Y-16214999D01*
X34571999Y-16208999D01*
X34597999Y-16202999D01*
X34624999Y-16198999D01*
X34650999Y-16196999D01*
X34677999Y-16194999D01*
X34704999Y-16194999D01*
X34731999Y-16195999D01*
G36*
X34731999Y-16195999D02*
G01*
X34758999Y-16197999D01*
X34785999Y-16200999D01*
X34811999Y-16204999D01*
X34838999Y-16210999D01*
X34864999Y-16217999D01*
X34889999Y-16225999D01*
X34915999Y-16234999D01*
X34940999Y-16244999D01*
X34964999Y-16255999D01*
X34988999Y-16268999D01*
X35011999Y-16281999D01*
X35034999Y-16296999D01*
X35056999Y-16311999D01*
X35073999Y-16324999D01*
X34855999Y-16542999D01*
X34846999Y-16537999D01*
X34836999Y-16531999D01*
X34826999Y-16526999D01*
X34816999Y-16522999D01*
X34806999Y-16518999D01*
X34796999Y-16514999D01*
X34786999Y-16510999D01*
X34775999Y-16507999D01*
X34764999Y-16505999D01*
X34754999Y-16502999D01*
X34743999Y-16501999D01*
X34732999Y-16499999D01*
X34721999Y-16498999D01*
X34710999Y-16498999D01*
X34699999Y-16497999D01*
X34688999Y-16498999D01*
X34677999Y-16498999D01*
X34666999Y-16499999D01*
X34655999Y-16501999D01*
X34644999Y-16502999D01*
X34634999Y-16505999D01*
X34623999Y-16507999D01*
X34612999Y-16510999D01*
X34602999Y-16514999D01*
X34592999Y-16518999D01*
X34582999Y-16522999D01*
X34572999Y-16526999D01*
X34562999Y-16531999D01*
X34552999Y-16537999D01*
X34543999Y-16542999D01*
X34326186Y-16325186D01*
X34351999Y-16305999D01*
X34373999Y-16290999D01*
X34396999Y-16276999D01*
X34419999Y-16263999D01*
X34443999Y-16251999D01*
X34468999Y-16240999D01*
X34493999Y-16230999D01*
X34519999Y-16221999D01*
X34544999Y-16214999D01*
X34571999Y-16208999D01*
X34597999Y-16202999D01*
X34624999Y-16198999D01*
X34650999Y-16196999D01*
X34677999Y-16194999D01*
X34704999Y-16194999D01*
X34731999Y-16195999D01*
G37*
X34326186Y-16325186D02*
X34325940Y-16325369D01*
X34325999Y-16324999D01*
X34326186Y-16325186D01*
G36*
X34326186Y-16325186D02*
G01*
X34325940Y-16325369D01*
X34325999Y-16324999D01*
X34326186Y-16325186D01*
G37*
X35073814Y-17285814D02*
X35056999Y-17298999D01*
X35034999Y-17313999D01*
X35011999Y-17328999D01*
X34988999Y-17341999D01*
X34964999Y-17354999D01*
X34940999Y-17365999D01*
X34915999Y-17375999D01*
X34889999Y-17384999D01*
X34864999Y-17392999D01*
X34838999Y-17399999D01*
X34811999Y-17405999D01*
X34785999Y-17409999D01*
X34758999Y-17412999D01*
X34731999Y-17414999D01*
X34704999Y-17415999D01*
X34677999Y-17415999D01*
X34650999Y-17413999D01*
X34624999Y-17411999D01*
X34597999Y-17407999D01*
X34571999Y-17401999D01*
X34544999Y-17395999D01*
X34519999Y-17388999D01*
X34493999Y-17379999D01*
X34468999Y-17369999D01*
X34443999Y-17358999D01*
X34419999Y-17346999D01*
X34396999Y-17333999D01*
X34373999Y-17319999D01*
X34351999Y-17304999D01*
X34325999Y-17285999D01*
X34543999Y-17067999D01*
X34552999Y-17072999D01*
X34562999Y-17078999D01*
X34572999Y-17083999D01*
X34582999Y-17087999D01*
X34592999Y-17091999D01*
X34602999Y-17095999D01*
X34612999Y-17099999D01*
X34623999Y-17102999D01*
X34634999Y-17104999D01*
X34644999Y-17107999D01*
X34655999Y-17108999D01*
X34666999Y-17110999D01*
X34677999Y-17111999D01*
X34688999Y-17111999D01*
X34699999Y-17112999D01*
X34710999Y-17111999D01*
X34721999Y-17111999D01*
X34732999Y-17110999D01*
X34743999Y-17108999D01*
X34754999Y-17107999D01*
X34764999Y-17104999D01*
X34775999Y-17102999D01*
X34786999Y-17099999D01*
X34796999Y-17095999D01*
X34806999Y-17091999D01*
X34816999Y-17087999D01*
X34826999Y-17083999D01*
X34836999Y-17078999D01*
X34846999Y-17072999D01*
X34855999Y-17067999D01*
X35073814Y-17285814D01*
G36*
X35073814Y-17285814D02*
G01*
X35056999Y-17298999D01*
X35034999Y-17313999D01*
X35011999Y-17328999D01*
X34988999Y-17341999D01*
X34964999Y-17354999D01*
X34940999Y-17365999D01*
X34915999Y-17375999D01*
X34889999Y-17384999D01*
X34864999Y-17392999D01*
X34838999Y-17399999D01*
X34811999Y-17405999D01*
X34785999Y-17409999D01*
X34758999Y-17412999D01*
X34731999Y-17414999D01*
X34704999Y-17415999D01*
X34677999Y-17415999D01*
X34650999Y-17413999D01*
X34624999Y-17411999D01*
X34597999Y-17407999D01*
X34571999Y-17401999D01*
X34544999Y-17395999D01*
X34519999Y-17388999D01*
X34493999Y-17379999D01*
X34468999Y-17369999D01*
X34443999Y-17358999D01*
X34419999Y-17346999D01*
X34396999Y-17333999D01*
X34373999Y-17319999D01*
X34351999Y-17304999D01*
X34325999Y-17285999D01*
X34543999Y-17067999D01*
X34552999Y-17072999D01*
X34562999Y-17078999D01*
X34572999Y-17083999D01*
X34582999Y-17087999D01*
X34592999Y-17091999D01*
X34602999Y-17095999D01*
X34612999Y-17099999D01*
X34623999Y-17102999D01*
X34634999Y-17104999D01*
X34644999Y-17107999D01*
X34655999Y-17108999D01*
X34666999Y-17110999D01*
X34677999Y-17111999D01*
X34688999Y-17111999D01*
X34699999Y-17112999D01*
X34710999Y-17111999D01*
X34721999Y-17111999D01*
X34732999Y-17110999D01*
X34743999Y-17108999D01*
X34754999Y-17107999D01*
X34764999Y-17104999D01*
X34775999Y-17102999D01*
X34786999Y-17099999D01*
X34796999Y-17095999D01*
X34806999Y-17091999D01*
X34816999Y-17087999D01*
X34826999Y-17083999D01*
X34836999Y-17078999D01*
X34846999Y-17072999D01*
X34855999Y-17067999D01*
X35073814Y-17285814D01*
G37*
X35073999Y-17285999D02*
X35073814Y-17285814D01*
X35074058Y-17285624D01*
X35073999Y-17285999D01*
G36*
X35073999Y-17285999D02*
G01*
X35073814Y-17285814D01*
X35074058Y-17285624D01*
X35073999Y-17285999D01*
G37*
X35180124Y-16431439D02*
X35198999Y-16456999D01*
X35213999Y-16478999D01*
X35227999Y-16500999D01*
X35240999Y-16524999D01*
X35252999Y-16547999D01*
X35263999Y-16572999D01*
X35273999Y-16596999D01*
X35281999Y-16621999D01*
X35289999Y-16647999D01*
X35295999Y-16673999D01*
X35300999Y-16699999D01*
X35304999Y-16725999D01*
X35307999Y-16751999D01*
X35309999Y-16778999D01*
X35310999Y-16804999D01*
X35309999Y-16831999D01*
X35307999Y-16858999D01*
X35304999Y-16884999D01*
X35300999Y-16910999D01*
X35295999Y-16936999D01*
X35289999Y-16962999D01*
X35281999Y-16988999D01*
X35273999Y-17013999D01*
X35263999Y-17037999D01*
X35252999Y-17062999D01*
X35240999Y-17085999D01*
X35227999Y-17109999D01*
X35213999Y-17131999D01*
X35198999Y-17153999D01*
X35179999Y-17179999D01*
X34961999Y-16961999D01*
X34967999Y-16951999D01*
X34972999Y-16942999D01*
X34977999Y-16932999D01*
X34982999Y-16922999D01*
X34986999Y-16912999D01*
X34990999Y-16901999D01*
X34993999Y-16891999D01*
X34996999Y-16880999D01*
X34999999Y-16870999D01*
X35001999Y-16859999D01*
X35003999Y-16848999D01*
X35004999Y-16837999D01*
X35005999Y-16826999D01*
X35006999Y-16815999D01*
X35006999Y-16804999D01*
X35006999Y-16794999D01*
X35005999Y-16783999D01*
X35004999Y-16772999D01*
X35003999Y-16761999D01*
X35001999Y-16750999D01*
X34999999Y-16739999D01*
X34996999Y-16729999D01*
X34993999Y-16718999D01*
X34990999Y-16708999D01*
X34986999Y-16697999D01*
X34982999Y-16687999D01*
X34977999Y-16677999D01*
X34972999Y-16667999D01*
X34967999Y-16658999D01*
X34961999Y-16648999D01*
X35179999Y-16430999D01*
X35180124Y-16431439D01*
G36*
X35180124Y-16431439D02*
G01*
X35198999Y-16456999D01*
X35213999Y-16478999D01*
X35227999Y-16500999D01*
X35240999Y-16524999D01*
X35252999Y-16547999D01*
X35263999Y-16572999D01*
X35273999Y-16596999D01*
X35281999Y-16621999D01*
X35289999Y-16647999D01*
X35295999Y-16673999D01*
X35300999Y-16699999D01*
X35304999Y-16725999D01*
X35307999Y-16751999D01*
X35309999Y-16778999D01*
X35310999Y-16804999D01*
X35309999Y-16831999D01*
X35307999Y-16858999D01*
X35304999Y-16884999D01*
X35300999Y-16910999D01*
X35295999Y-16936999D01*
X35289999Y-16962999D01*
X35281999Y-16988999D01*
X35273999Y-17013999D01*
X35263999Y-17037999D01*
X35252999Y-17062999D01*
X35240999Y-17085999D01*
X35227999Y-17109999D01*
X35213999Y-17131999D01*
X35198999Y-17153999D01*
X35179999Y-17179999D01*
X34961999Y-16961999D01*
X34967999Y-16951999D01*
X34972999Y-16942999D01*
X34977999Y-16932999D01*
X34982999Y-16922999D01*
X34986999Y-16912999D01*
X34990999Y-16901999D01*
X34993999Y-16891999D01*
X34996999Y-16880999D01*
X34999999Y-16870999D01*
X35001999Y-16859999D01*
X35003999Y-16848999D01*
X35004999Y-16837999D01*
X35005999Y-16826999D01*
X35006999Y-16815999D01*
X35006999Y-16804999D01*
X35006999Y-16794999D01*
X35005999Y-16783999D01*
X35004999Y-16772999D01*
X35003999Y-16761999D01*
X35001999Y-16750999D01*
X34999999Y-16739999D01*
X34996999Y-16729999D01*
X34993999Y-16718999D01*
X34990999Y-16708999D01*
X34986999Y-16697999D01*
X34982999Y-16687999D01*
X34977999Y-16677999D01*
X34972999Y-16667999D01*
X34967999Y-16658999D01*
X34961999Y-16648999D01*
X35179999Y-16430999D01*
X35180124Y-16431439D01*
G37*
%TD*%
D11*
%TO.C,R2*%
X19449999Y-20289999D03*
X19449999Y-22114999D03*
%TD*%
D12*
%TO.C,C2*%
X21699999Y-22114999D03*
X21699999Y-20214999D03*
%TD*%
D13*
%TO.C,U2*%
X35665999Y-18908499D03*
D14*
X35714999Y-16171499D03*
X33684999Y-16171499D03*
D13*
X33733999Y-18908499D03*
D15*
X34699999Y-18908499D03*
%TD*%
D16*
%TO.C,R5*%
X31699999Y-18952499D03*
X31699999Y-17127499D03*
%TD*%
%TO.C,R3*%
X31699999Y-22702499D03*
X31699999Y-20877499D03*
%TD*%
D17*
%TO.C,C3*%
X33749999Y-21039999D03*
X35649999Y-21039999D03*
%TD*%
D18*
%TO.C,C1*%
X29149999Y-16164999D03*
X27249999Y-16164999D03*
%TD*%
D19*
%TO.C,U1*%
X24224999Y-18259999D03*
X24224999Y-19529999D03*
X24224999Y-20799999D03*
X24224999Y-22069999D03*
X29174999Y-22069999D03*
X29174999Y-20799999D03*
X29174999Y-19529999D03*
X29174999Y-18259999D03*
%TD*%
D11*
%TO.C,R1*%
X19449999Y-16602499D03*
X19449999Y-18427499D03*
%TD*%
D20*
%TO.C,R4*%
X26537499Y-24164999D03*
X28362499Y-24164999D03*
%TD*%
M02*
