M48
; DRILL file {KiCad 8.0.8-8.0.8-0~ubuntu24.04.1} date 2025-02-18T11:05:34+0100
; FORMAT={-:-/ absolute / inch / decimal}
; #@! TF.CreationDate,2025-02-18T11:05:34+01:00
; #@! TF.GenerationSoftware,Kicad,Pcbnew,8.0.8-8.0.8-0~ubuntu24.04.1
; #@! TF.FileFunction,Plated,1,2,PTH
FMAT,2
INCH
; #@! TA.AperFunction,Plated,PTH,ViaDrill
T1C0.0118
; #@! TA.AperFunction,Plated,PTH,ComponentDrill
T2C0.0394
%
G90
G05
T1
X0.7146Y-0.9409
X0.7441Y-0.9803
X0.7835Y-0.9409
X0.813Y-0.9803
X0.8524Y-0.6364
X0.8524Y-0.9409
X0.8819Y-0.9803
X0.9213Y-0.6364
X0.9213Y-0.9409
X0.9508Y-0.9803
X0.9902Y-0.6364
X0.9902Y-0.9409
X1.0295Y-0.7441
X1.0591Y-0.7835
X1.1102Y-0.6856
X1.2067Y-0.626
X1.2165Y-0.9803
X1.2461Y-0.5866
X1.2559Y-0.9409
X1.2756Y-0.626
X1.2854Y-0.9803
X1.315Y-0.5866
X1.3169Y-0.7053
X1.3661Y-0.7091
X1.3661Y-0.7835
T2
X0.6378Y-0.6437
X0.6378Y-0.7437
X0.6378Y-0.8437
X0.6378Y-0.9437
M30
