%TF.GenerationSoftware,KiCad,Pcbnew,8.0.8-8.0.8-0~ubuntu24.04.1*%
%TF.CreationDate,2025-02-18T02:42:04+01:00*%
%TF.ProjectId,SPU0410LR5H,53505530-3431-4304-9c52-35482e6b6963,rev?*%
%TF.SameCoordinates,Original*%
%TF.FileFunction,Drillmap*%
%TF.FilePolarity,Positive*%
%FSLAX45Y45*%
G04 Gerber Fmt 4.5, Leading zero omitted, Abs format (unit mm)*
G04 Created by KiCad (PCBNEW 8.0.8-8.0.8-0~ubuntu24.04.1) date 2025-02-18 02:42:04*
%MOMM*%
%LPD*%
G01*
G04 APERTURE LIST*
%ADD10C,0.050000*%
%ADD11C,0.200000*%
%ADD12C,0.100000*%
G04 APERTURE END LIST*
D10*
X1490000Y-1390000D02*
X3590000Y-1390000D01*
X1390000Y-2540000D02*
X1390000Y-1490000D01*
X3690000Y-1490000D02*
X3690000Y-2540000D01*
X3590000Y-2640000D02*
X1490000Y-2640000D01*
X1490000Y-2640000D02*
G75*
G02*
X1390000Y-2540000I0J100000D01*
G01*
X1390000Y-1490000D02*
G75*
G02*
X1490000Y-1390000I100000J0D01*
G01*
X3590000Y-1390000D02*
G75*
G02*
X3690000Y-1490000I0J-100000D01*
G01*
X3690000Y-2540000D02*
G75*
G02*
X3590000Y-2640000I-100000J0D01*
G01*
D11*
D12*
X3447500Y-1658050D02*
X3492500Y-1703050D01*
X3492500Y-1658050D02*
X3447500Y-1703050D01*
D11*
X1648277Y-2953984D02*
X1648277Y-2753984D01*
X1648277Y-2753984D02*
X1695896Y-2753984D01*
X1695896Y-2753984D02*
X1724467Y-2763508D01*
X1724467Y-2763508D02*
X1743515Y-2782555D01*
X1743515Y-2782555D02*
X1753039Y-2801603D01*
X1753039Y-2801603D02*
X1762562Y-2839698D01*
X1762562Y-2839698D02*
X1762562Y-2868269D01*
X1762562Y-2868269D02*
X1753039Y-2906365D01*
X1753039Y-2906365D02*
X1743515Y-2925412D01*
X1743515Y-2925412D02*
X1724467Y-2944460D01*
X1724467Y-2944460D02*
X1695896Y-2953984D01*
X1695896Y-2953984D02*
X1648277Y-2953984D01*
X1848277Y-2953984D02*
X1848277Y-2820650D01*
X1848277Y-2858746D02*
X1857800Y-2839698D01*
X1857800Y-2839698D02*
X1867324Y-2830174D01*
X1867324Y-2830174D02*
X1886372Y-2820650D01*
X1886372Y-2820650D02*
X1905420Y-2820650D01*
X1972086Y-2953984D02*
X1972086Y-2820650D01*
X1972086Y-2753984D02*
X1962562Y-2763508D01*
X1962562Y-2763508D02*
X1972086Y-2773031D01*
X1972086Y-2773031D02*
X1981610Y-2763508D01*
X1981610Y-2763508D02*
X1972086Y-2753984D01*
X1972086Y-2753984D02*
X1972086Y-2773031D01*
X2095896Y-2953984D02*
X2076848Y-2944460D01*
X2076848Y-2944460D02*
X2067324Y-2925412D01*
X2067324Y-2925412D02*
X2067324Y-2753984D01*
X2200658Y-2953984D02*
X2181610Y-2944460D01*
X2181610Y-2944460D02*
X2172086Y-2925412D01*
X2172086Y-2925412D02*
X2172086Y-2753984D01*
X2429229Y-2953984D02*
X2429229Y-2753984D01*
X2429229Y-2753984D02*
X2495896Y-2896841D01*
X2495896Y-2896841D02*
X2562562Y-2753984D01*
X2562562Y-2753984D02*
X2562562Y-2953984D01*
X2743515Y-2953984D02*
X2743515Y-2849222D01*
X2743515Y-2849222D02*
X2733991Y-2830174D01*
X2733991Y-2830174D02*
X2714943Y-2820650D01*
X2714943Y-2820650D02*
X2676848Y-2820650D01*
X2676848Y-2820650D02*
X2657801Y-2830174D01*
X2743515Y-2944460D02*
X2724467Y-2953984D01*
X2724467Y-2953984D02*
X2676848Y-2953984D01*
X2676848Y-2953984D02*
X2657801Y-2944460D01*
X2657801Y-2944460D02*
X2648277Y-2925412D01*
X2648277Y-2925412D02*
X2648277Y-2906365D01*
X2648277Y-2906365D02*
X2657801Y-2887317D01*
X2657801Y-2887317D02*
X2676848Y-2877793D01*
X2676848Y-2877793D02*
X2724467Y-2877793D01*
X2724467Y-2877793D02*
X2743515Y-2868269D01*
X2838753Y-2820650D02*
X2838753Y-3020650D01*
X2838753Y-2830174D02*
X2857800Y-2820650D01*
X2857800Y-2820650D02*
X2895896Y-2820650D01*
X2895896Y-2820650D02*
X2914943Y-2830174D01*
X2914943Y-2830174D02*
X2924467Y-2839698D01*
X2924467Y-2839698D02*
X2933991Y-2858746D01*
X2933991Y-2858746D02*
X2933991Y-2915888D01*
X2933991Y-2915888D02*
X2924467Y-2934936D01*
X2924467Y-2934936D02*
X2914943Y-2944460D01*
X2914943Y-2944460D02*
X2895896Y-2953984D01*
X2895896Y-2953984D02*
X2857800Y-2953984D01*
X2857800Y-2953984D02*
X2838753Y-2944460D01*
X3019705Y-2934936D02*
X3029229Y-2944460D01*
X3029229Y-2944460D02*
X3019705Y-2953984D01*
X3019705Y-2953984D02*
X3010181Y-2944460D01*
X3010181Y-2944460D02*
X3019705Y-2934936D01*
X3019705Y-2934936D02*
X3019705Y-2953984D01*
X3019705Y-2830174D02*
X3029229Y-2839698D01*
X3029229Y-2839698D02*
X3019705Y-2849222D01*
X3019705Y-2849222D02*
X3010181Y-2839698D01*
X3010181Y-2839698D02*
X3019705Y-2830174D01*
X3019705Y-2830174D02*
X3019705Y-2849222D01*
D12*
X1342500Y-3260000D02*
X1387500Y-3305000D01*
X1387500Y-3260000D02*
X1342500Y-3305000D01*
D11*
X1686372Y-3173984D02*
X1705420Y-3173984D01*
X1705420Y-3173984D02*
X1724467Y-3183507D01*
X1724467Y-3183507D02*
X1733991Y-3193031D01*
X1733991Y-3193031D02*
X1743515Y-3212079D01*
X1743515Y-3212079D02*
X1753039Y-3250174D01*
X1753039Y-3250174D02*
X1753039Y-3297793D01*
X1753039Y-3297793D02*
X1743515Y-3335888D01*
X1743515Y-3335888D02*
X1733991Y-3354936D01*
X1733991Y-3354936D02*
X1724467Y-3364460D01*
X1724467Y-3364460D02*
X1705420Y-3373984D01*
X1705420Y-3373984D02*
X1686372Y-3373984D01*
X1686372Y-3373984D02*
X1667324Y-3364460D01*
X1667324Y-3364460D02*
X1657800Y-3354936D01*
X1657800Y-3354936D02*
X1648277Y-3335888D01*
X1648277Y-3335888D02*
X1638753Y-3297793D01*
X1638753Y-3297793D02*
X1638753Y-3250174D01*
X1638753Y-3250174D02*
X1648277Y-3212079D01*
X1648277Y-3212079D02*
X1657800Y-3193031D01*
X1657800Y-3193031D02*
X1667324Y-3183507D01*
X1667324Y-3183507D02*
X1686372Y-3173984D01*
X1838753Y-3354936D02*
X1848277Y-3364460D01*
X1848277Y-3364460D02*
X1838753Y-3373984D01*
X1838753Y-3373984D02*
X1829229Y-3364460D01*
X1829229Y-3364460D02*
X1838753Y-3354936D01*
X1838753Y-3354936D02*
X1838753Y-3373984D01*
X2019705Y-3240650D02*
X2019705Y-3373984D01*
X1972086Y-3164460D02*
X1924467Y-3307317D01*
X1924467Y-3307317D02*
X2048277Y-3307317D01*
X2219705Y-3173984D02*
X2124467Y-3173984D01*
X2124467Y-3173984D02*
X2114943Y-3269222D01*
X2114943Y-3269222D02*
X2124467Y-3259698D01*
X2124467Y-3259698D02*
X2143515Y-3250174D01*
X2143515Y-3250174D02*
X2191134Y-3250174D01*
X2191134Y-3250174D02*
X2210182Y-3259698D01*
X2210182Y-3259698D02*
X2219705Y-3269222D01*
X2219705Y-3269222D02*
X2229229Y-3288269D01*
X2229229Y-3288269D02*
X2229229Y-3335888D01*
X2229229Y-3335888D02*
X2219705Y-3354936D01*
X2219705Y-3354936D02*
X2210182Y-3364460D01*
X2210182Y-3364460D02*
X2191134Y-3373984D01*
X2191134Y-3373984D02*
X2143515Y-3373984D01*
X2143515Y-3373984D02*
X2124467Y-3364460D01*
X2124467Y-3364460D02*
X2114943Y-3354936D01*
X2353039Y-3173984D02*
X2372086Y-3173984D01*
X2372086Y-3173984D02*
X2391134Y-3183507D01*
X2391134Y-3183507D02*
X2400658Y-3193031D01*
X2400658Y-3193031D02*
X2410182Y-3212079D01*
X2410182Y-3212079D02*
X2419705Y-3250174D01*
X2419705Y-3250174D02*
X2419705Y-3297793D01*
X2419705Y-3297793D02*
X2410182Y-3335888D01*
X2410182Y-3335888D02*
X2400658Y-3354936D01*
X2400658Y-3354936D02*
X2391134Y-3364460D01*
X2391134Y-3364460D02*
X2372086Y-3373984D01*
X2372086Y-3373984D02*
X2353039Y-3373984D01*
X2353039Y-3373984D02*
X2333991Y-3364460D01*
X2333991Y-3364460D02*
X2324467Y-3354936D01*
X2324467Y-3354936D02*
X2314943Y-3335888D01*
X2314943Y-3335888D02*
X2305420Y-3297793D01*
X2305420Y-3297793D02*
X2305420Y-3250174D01*
X2305420Y-3250174D02*
X2314943Y-3212079D01*
X2314943Y-3212079D02*
X2324467Y-3193031D01*
X2324467Y-3193031D02*
X2333991Y-3183507D01*
X2333991Y-3183507D02*
X2353039Y-3173984D01*
X2505420Y-3373984D02*
X2505420Y-3240650D01*
X2505420Y-3259698D02*
X2514943Y-3250174D01*
X2514943Y-3250174D02*
X2533991Y-3240650D01*
X2533991Y-3240650D02*
X2562563Y-3240650D01*
X2562563Y-3240650D02*
X2581610Y-3250174D01*
X2581610Y-3250174D02*
X2591134Y-3269222D01*
X2591134Y-3269222D02*
X2591134Y-3373984D01*
X2591134Y-3269222D02*
X2600658Y-3250174D01*
X2600658Y-3250174D02*
X2619705Y-3240650D01*
X2619705Y-3240650D02*
X2648277Y-3240650D01*
X2648277Y-3240650D02*
X2667324Y-3250174D01*
X2667324Y-3250174D02*
X2676848Y-3269222D01*
X2676848Y-3269222D02*
X2676848Y-3373984D01*
X2772086Y-3373984D02*
X2772086Y-3240650D01*
X2772086Y-3259698D02*
X2781610Y-3250174D01*
X2781610Y-3250174D02*
X2800658Y-3240650D01*
X2800658Y-3240650D02*
X2829229Y-3240650D01*
X2829229Y-3240650D02*
X2848277Y-3250174D01*
X2848277Y-3250174D02*
X2857801Y-3269222D01*
X2857801Y-3269222D02*
X2857801Y-3373984D01*
X2857801Y-3269222D02*
X2867324Y-3250174D01*
X2867324Y-3250174D02*
X2886372Y-3240650D01*
X2886372Y-3240650D02*
X2914943Y-3240650D01*
X2914943Y-3240650D02*
X2933991Y-3250174D01*
X2933991Y-3250174D02*
X2943515Y-3269222D01*
X2943515Y-3269222D02*
X2943515Y-3373984D01*
X3333991Y-3164460D02*
X3162563Y-3421603D01*
X3591134Y-3173984D02*
X3610182Y-3173984D01*
X3610182Y-3173984D02*
X3629229Y-3183507D01*
X3629229Y-3183507D02*
X3638753Y-3193031D01*
X3638753Y-3193031D02*
X3648277Y-3212079D01*
X3648277Y-3212079D02*
X3657801Y-3250174D01*
X3657801Y-3250174D02*
X3657801Y-3297793D01*
X3657801Y-3297793D02*
X3648277Y-3335888D01*
X3648277Y-3335888D02*
X3638753Y-3354936D01*
X3638753Y-3354936D02*
X3629229Y-3364460D01*
X3629229Y-3364460D02*
X3610182Y-3373984D01*
X3610182Y-3373984D02*
X3591134Y-3373984D01*
X3591134Y-3373984D02*
X3572086Y-3364460D01*
X3572086Y-3364460D02*
X3562563Y-3354936D01*
X3562563Y-3354936D02*
X3553039Y-3335888D01*
X3553039Y-3335888D02*
X3543515Y-3297793D01*
X3543515Y-3297793D02*
X3543515Y-3250174D01*
X3543515Y-3250174D02*
X3553039Y-3212079D01*
X3553039Y-3212079D02*
X3562563Y-3193031D01*
X3562563Y-3193031D02*
X3572086Y-3183507D01*
X3572086Y-3183507D02*
X3591134Y-3173984D01*
X3743515Y-3354936D02*
X3753039Y-3364460D01*
X3753039Y-3364460D02*
X3743515Y-3373984D01*
X3743515Y-3373984D02*
X3733991Y-3364460D01*
X3733991Y-3364460D02*
X3743515Y-3354936D01*
X3743515Y-3354936D02*
X3743515Y-3373984D01*
X3876848Y-3173984D02*
X3895896Y-3173984D01*
X3895896Y-3173984D02*
X3914944Y-3183507D01*
X3914944Y-3183507D02*
X3924467Y-3193031D01*
X3924467Y-3193031D02*
X3933991Y-3212079D01*
X3933991Y-3212079D02*
X3943515Y-3250174D01*
X3943515Y-3250174D02*
X3943515Y-3297793D01*
X3943515Y-3297793D02*
X3933991Y-3335888D01*
X3933991Y-3335888D02*
X3924467Y-3354936D01*
X3924467Y-3354936D02*
X3914944Y-3364460D01*
X3914944Y-3364460D02*
X3895896Y-3373984D01*
X3895896Y-3373984D02*
X3876848Y-3373984D01*
X3876848Y-3373984D02*
X3857801Y-3364460D01*
X3857801Y-3364460D02*
X3848277Y-3354936D01*
X3848277Y-3354936D02*
X3838753Y-3335888D01*
X3838753Y-3335888D02*
X3829229Y-3297793D01*
X3829229Y-3297793D02*
X3829229Y-3250174D01*
X3829229Y-3250174D02*
X3838753Y-3212079D01*
X3838753Y-3212079D02*
X3848277Y-3193031D01*
X3848277Y-3193031D02*
X3857801Y-3183507D01*
X3857801Y-3183507D02*
X3876848Y-3173984D01*
X4133991Y-3373984D02*
X4019705Y-3373984D01*
X4076848Y-3373984D02*
X4076848Y-3173984D01*
X4076848Y-3173984D02*
X4057801Y-3202555D01*
X4057801Y-3202555D02*
X4038753Y-3221603D01*
X4038753Y-3221603D02*
X4019705Y-3231126D01*
X4200658Y-3173984D02*
X4333991Y-3173984D01*
X4333991Y-3173984D02*
X4248277Y-3373984D01*
X4391134Y-3173984D02*
X4524467Y-3173984D01*
X4524467Y-3173984D02*
X4438753Y-3373984D01*
X4591134Y-3173984D02*
X4591134Y-3212079D01*
X4667325Y-3173984D02*
X4667325Y-3212079D01*
X4962563Y-3450174D02*
X4953039Y-3440650D01*
X4953039Y-3440650D02*
X4933991Y-3412079D01*
X4933991Y-3412079D02*
X4924468Y-3393031D01*
X4924468Y-3393031D02*
X4914944Y-3364460D01*
X4914944Y-3364460D02*
X4905420Y-3316841D01*
X4905420Y-3316841D02*
X4905420Y-3278746D01*
X4905420Y-3278746D02*
X4914944Y-3231126D01*
X4914944Y-3231126D02*
X4924468Y-3202555D01*
X4924468Y-3202555D02*
X4933991Y-3183507D01*
X4933991Y-3183507D02*
X4953039Y-3154936D01*
X4953039Y-3154936D02*
X4962563Y-3145412D01*
X5143515Y-3373984D02*
X5029229Y-3373984D01*
X5086372Y-3373984D02*
X5086372Y-3173984D01*
X5086372Y-3173984D02*
X5067325Y-3202555D01*
X5067325Y-3202555D02*
X5048277Y-3221603D01*
X5048277Y-3221603D02*
X5029229Y-3231126D01*
X5381610Y-3373984D02*
X5381610Y-3173984D01*
X5467325Y-3373984D02*
X5467325Y-3269222D01*
X5467325Y-3269222D02*
X5457801Y-3250174D01*
X5457801Y-3250174D02*
X5438753Y-3240650D01*
X5438753Y-3240650D02*
X5410182Y-3240650D01*
X5410182Y-3240650D02*
X5391134Y-3250174D01*
X5391134Y-3250174D02*
X5381610Y-3259698D01*
X5591134Y-3373984D02*
X5572087Y-3364460D01*
X5572087Y-3364460D02*
X5562563Y-3354936D01*
X5562563Y-3354936D02*
X5553039Y-3335888D01*
X5553039Y-3335888D02*
X5553039Y-3278746D01*
X5553039Y-3278746D02*
X5562563Y-3259698D01*
X5562563Y-3259698D02*
X5572087Y-3250174D01*
X5572087Y-3250174D02*
X5591134Y-3240650D01*
X5591134Y-3240650D02*
X5619706Y-3240650D01*
X5619706Y-3240650D02*
X5638753Y-3250174D01*
X5638753Y-3250174D02*
X5648277Y-3259698D01*
X5648277Y-3259698D02*
X5657801Y-3278746D01*
X5657801Y-3278746D02*
X5657801Y-3335888D01*
X5657801Y-3335888D02*
X5648277Y-3354936D01*
X5648277Y-3354936D02*
X5638753Y-3364460D01*
X5638753Y-3364460D02*
X5619706Y-3373984D01*
X5619706Y-3373984D02*
X5591134Y-3373984D01*
X5772087Y-3373984D02*
X5753039Y-3364460D01*
X5753039Y-3364460D02*
X5743515Y-3345412D01*
X5743515Y-3345412D02*
X5743515Y-3173984D01*
X5924468Y-3364460D02*
X5905420Y-3373984D01*
X5905420Y-3373984D02*
X5867325Y-3373984D01*
X5867325Y-3373984D02*
X5848277Y-3364460D01*
X5848277Y-3364460D02*
X5838753Y-3345412D01*
X5838753Y-3345412D02*
X5838753Y-3269222D01*
X5838753Y-3269222D02*
X5848277Y-3250174D01*
X5848277Y-3250174D02*
X5867325Y-3240650D01*
X5867325Y-3240650D02*
X5905420Y-3240650D01*
X5905420Y-3240650D02*
X5924468Y-3250174D01*
X5924468Y-3250174D02*
X5933991Y-3269222D01*
X5933991Y-3269222D02*
X5933991Y-3288269D01*
X5933991Y-3288269D02*
X5838753Y-3307317D01*
X6000658Y-3450174D02*
X6010182Y-3440650D01*
X6010182Y-3440650D02*
X6029229Y-3412079D01*
X6029229Y-3412079D02*
X6038753Y-3393031D01*
X6038753Y-3393031D02*
X6048277Y-3364460D01*
X6048277Y-3364460D02*
X6057801Y-3316841D01*
X6057801Y-3316841D02*
X6057801Y-3278746D01*
X6057801Y-3278746D02*
X6048277Y-3231126D01*
X6048277Y-3231126D02*
X6038753Y-3202555D01*
X6038753Y-3202555D02*
X6029229Y-3183507D01*
X6029229Y-3183507D02*
X6010182Y-3154936D01*
X6010182Y-3154936D02*
X6000658Y-3145412D01*
X6362563Y-3450174D02*
X6353039Y-3440650D01*
X6353039Y-3440650D02*
X6333991Y-3412079D01*
X6333991Y-3412079D02*
X6324468Y-3393031D01*
X6324468Y-3393031D02*
X6314944Y-3364460D01*
X6314944Y-3364460D02*
X6305420Y-3316841D01*
X6305420Y-3316841D02*
X6305420Y-3278746D01*
X6305420Y-3278746D02*
X6314944Y-3231126D01*
X6314944Y-3231126D02*
X6324468Y-3202555D01*
X6324468Y-3202555D02*
X6333991Y-3183507D01*
X6333991Y-3183507D02*
X6353039Y-3154936D01*
X6353039Y-3154936D02*
X6362563Y-3145412D01*
X6438753Y-3240650D02*
X6438753Y-3373984D01*
X6438753Y-3259698D02*
X6448277Y-3250174D01*
X6448277Y-3250174D02*
X6467325Y-3240650D01*
X6467325Y-3240650D02*
X6495896Y-3240650D01*
X6495896Y-3240650D02*
X6514944Y-3250174D01*
X6514944Y-3250174D02*
X6524468Y-3269222D01*
X6524468Y-3269222D02*
X6524468Y-3373984D01*
X6648277Y-3373984D02*
X6629229Y-3364460D01*
X6629229Y-3364460D02*
X6619706Y-3354936D01*
X6619706Y-3354936D02*
X6610182Y-3335888D01*
X6610182Y-3335888D02*
X6610182Y-3278746D01*
X6610182Y-3278746D02*
X6619706Y-3259698D01*
X6619706Y-3259698D02*
X6629229Y-3250174D01*
X6629229Y-3250174D02*
X6648277Y-3240650D01*
X6648277Y-3240650D02*
X6676849Y-3240650D01*
X6676849Y-3240650D02*
X6695896Y-3250174D01*
X6695896Y-3250174D02*
X6705420Y-3259698D01*
X6705420Y-3259698D02*
X6714944Y-3278746D01*
X6714944Y-3278746D02*
X6714944Y-3335888D01*
X6714944Y-3335888D02*
X6705420Y-3354936D01*
X6705420Y-3354936D02*
X6695896Y-3364460D01*
X6695896Y-3364460D02*
X6676849Y-3373984D01*
X6676849Y-3373984D02*
X6648277Y-3373984D01*
X6772087Y-3240650D02*
X6848277Y-3240650D01*
X6800658Y-3173984D02*
X6800658Y-3345412D01*
X6800658Y-3345412D02*
X6810182Y-3364460D01*
X6810182Y-3364460D02*
X6829229Y-3373984D01*
X6829229Y-3373984D02*
X6848277Y-3373984D01*
X7067325Y-3240650D02*
X7067325Y-3440650D01*
X7067325Y-3250174D02*
X7086372Y-3240650D01*
X7086372Y-3240650D02*
X7124468Y-3240650D01*
X7124468Y-3240650D02*
X7143515Y-3250174D01*
X7143515Y-3250174D02*
X7153039Y-3259698D01*
X7153039Y-3259698D02*
X7162563Y-3278746D01*
X7162563Y-3278746D02*
X7162563Y-3335888D01*
X7162563Y-3335888D02*
X7153039Y-3354936D01*
X7153039Y-3354936D02*
X7143515Y-3364460D01*
X7143515Y-3364460D02*
X7124468Y-3373984D01*
X7124468Y-3373984D02*
X7086372Y-3373984D01*
X7086372Y-3373984D02*
X7067325Y-3364460D01*
X7276849Y-3373984D02*
X7257801Y-3364460D01*
X7257801Y-3364460D02*
X7248277Y-3345412D01*
X7248277Y-3345412D02*
X7248277Y-3173984D01*
X7438753Y-3373984D02*
X7438753Y-3269222D01*
X7438753Y-3269222D02*
X7429230Y-3250174D01*
X7429230Y-3250174D02*
X7410182Y-3240650D01*
X7410182Y-3240650D02*
X7372087Y-3240650D01*
X7372087Y-3240650D02*
X7353039Y-3250174D01*
X7438753Y-3364460D02*
X7419706Y-3373984D01*
X7419706Y-3373984D02*
X7372087Y-3373984D01*
X7372087Y-3373984D02*
X7353039Y-3364460D01*
X7353039Y-3364460D02*
X7343515Y-3345412D01*
X7343515Y-3345412D02*
X7343515Y-3326365D01*
X7343515Y-3326365D02*
X7353039Y-3307317D01*
X7353039Y-3307317D02*
X7372087Y-3297793D01*
X7372087Y-3297793D02*
X7419706Y-3297793D01*
X7419706Y-3297793D02*
X7438753Y-3288269D01*
X7505420Y-3240650D02*
X7581610Y-3240650D01*
X7533991Y-3173984D02*
X7533991Y-3345412D01*
X7533991Y-3345412D02*
X7543515Y-3364460D01*
X7543515Y-3364460D02*
X7562563Y-3373984D01*
X7562563Y-3373984D02*
X7581610Y-3373984D01*
X7724468Y-3364460D02*
X7705420Y-3373984D01*
X7705420Y-3373984D02*
X7667325Y-3373984D01*
X7667325Y-3373984D02*
X7648277Y-3364460D01*
X7648277Y-3364460D02*
X7638753Y-3345412D01*
X7638753Y-3345412D02*
X7638753Y-3269222D01*
X7638753Y-3269222D02*
X7648277Y-3250174D01*
X7648277Y-3250174D02*
X7667325Y-3240650D01*
X7667325Y-3240650D02*
X7705420Y-3240650D01*
X7705420Y-3240650D02*
X7724468Y-3250174D01*
X7724468Y-3250174D02*
X7733991Y-3269222D01*
X7733991Y-3269222D02*
X7733991Y-3288269D01*
X7733991Y-3288269D02*
X7638753Y-3307317D01*
X7905420Y-3373984D02*
X7905420Y-3173984D01*
X7905420Y-3364460D02*
X7886372Y-3373984D01*
X7886372Y-3373984D02*
X7848277Y-3373984D01*
X7848277Y-3373984D02*
X7829230Y-3364460D01*
X7829230Y-3364460D02*
X7819706Y-3354936D01*
X7819706Y-3354936D02*
X7810182Y-3335888D01*
X7810182Y-3335888D02*
X7810182Y-3278746D01*
X7810182Y-3278746D02*
X7819706Y-3259698D01*
X7819706Y-3259698D02*
X7829230Y-3250174D01*
X7829230Y-3250174D02*
X7848277Y-3240650D01*
X7848277Y-3240650D02*
X7886372Y-3240650D01*
X7886372Y-3240650D02*
X7905420Y-3250174D01*
X7981611Y-3450174D02*
X7991134Y-3440650D01*
X7991134Y-3440650D02*
X8010182Y-3412079D01*
X8010182Y-3412079D02*
X8019706Y-3393031D01*
X8019706Y-3393031D02*
X8029230Y-3364460D01*
X8029230Y-3364460D02*
X8038753Y-3316841D01*
X8038753Y-3316841D02*
X8038753Y-3278746D01*
X8038753Y-3278746D02*
X8029230Y-3231126D01*
X8029230Y-3231126D02*
X8019706Y-3202555D01*
X8019706Y-3202555D02*
X8010182Y-3183507D01*
X8010182Y-3183507D02*
X7991134Y-3154936D01*
X7991134Y-3154936D02*
X7981611Y-3145412D01*
M02*
